0
SECTION
2
HEADER
9
$INSUNITS
70
4
9
$ACADVER
1
AC1014
9
$HANDSEED
5
FFFF
0
ENDSEC
0
SECTION
2
TABLES
0
TABLE
2
VPORT
5
8
100
AcDbSymbolTable
0
ENDTAB
0
TABLE
2
LTYPE
5
5
100
AcDbSymbolTable
0
LTYPE
5
14
100
AcDbSymbolTableRecord
100
AcDbLinetypeTableRecord
2
BYBLOCK
70
0
0
LTYPE
5
15
100
AcDbSymbolTableRecord
100
AcDbLinetypeTableRecord
2
BYLAYER
70
0
0
LTYPE
5
16
100
AcDbSymbolTableRecord
100
AcDbLinetypeTableRecord
2
DASHED
70
0
3
Dashed __ __ __ __ __ __ __ __ __ __ __ __ __ _
72
65
73
2
40
0.75
49
0.5
74
0
49
-0.25
74
0
0
ENDTAB
0
TABLE
2
LAYER
5
2
100
AcDbSymbolTable
70
2
0
LAYER
5
50
100
AcDbSymbolTableRecord
100
AcDbLayerTableRecord
2
0
70
0
62
7
6
CONTINUOUS
0
ENDTAB
0
TABLE
2
STYLE
5
3
100
AcDbSymbolTable
70
1
0
STYLE
5
11
100
AcDbSymbolTableRecord
100
AcDbTextStyleTableRecord
2
STANDARD
70
0
0
ENDTAB
0
TABLE
2
VIEW
5
6
100
AcDbSymbolTable
70
0
0
ENDTAB
0
TABLE
2
UCS
5
7
100
AcDbSymbolTable
70
0
0
ENDTAB
0
TABLE
2
APPID
5
9
100
AcDbSymbolTable
70
2
0
APPID
5
12
100
AcDbSymbolTableRecord
100
AcDbRegAppTableRecord
2
ACAD
70
0
0
ENDTAB
0
TABLE
2
DIMSTYLE
5
A
100
AcDbSymbolTable
70
1
0
ENDTAB
0
TABLE
2
BLOCK_RECORD
5
1
100
AcDbSymbolTable
70
1
0
BLOCK_RECORD
5
1F
100
AcDbSymbolTableRecord
100
AcDbBlockTableRecord
2
*MODEL_SPACE
0
BLOCK_RECORD
5
1B
100
AcDbSymbolTableRecord
100
AcDbBlockTableRecord
2
*PAPER_SPACE
0
ENDTAB
0
ENDSEC
0
SECTION
2
BLOCKS
0
BLOCK
5
20
100
AcDbEntity
100
AcDbBlockBegin
2
*MODEL_SPACE
0
ENDBLK
5
21
100
AcDbEntity
100
AcDbBlockEnd
0
BLOCK
5
1C
100
AcDbEntity
100
AcDbBlockBegin
2
*PAPER_SPACE
0
ENDBLK
5
1D
100
AcDbEntity
100
AcDbBlockEnd
0
ENDSEC
0
SECTION
2
ENTITIES
0
LWPOLYLINE
5
100
100
AcDbEntity
8
OUTER_PROFILES
100
AcDbPolyline
90
38
70
1
43
0.0
10
499.89479651037442
20
0.57738173825910244
42
-0.29147341958601281
10
498.98848872333792
20
-1.8179902028236938e-14
10
7.1054273576010019e-14
20
-2.1510571102112408e-14
42
-0.2914734195861064
10
-0.9063077870366496
20
0.57738173825927774
10
-1.1747819709186302
20
1.1531264835724642
42
-0.25383460874073738
10
-0.8848075807591349
20
5.9136939886556261
42
0.46537267528863913
10
-3.0057556380041817
20
12.464398496655932
42
0.19571582171607044
10
-6.3986757021867158
20
12.464398496667332
42
0.034827953071898787
10
-6.9607928939258246
20
12.188572219443525
42
-0.12614181628875104
10
-9.3509107462344865
20
11.51460908155666
42
-0.42122667286073517
10
-11.398675704250287
20
13.514038627398804
10
-11.398675704201437
20
494.0000000000033
42
-0.41421356237309265
10
-9.3986757042012119
20
496.00000000000313
10
-7.6995027742816147
20
496.00000000000301
42
-0.09548908030643237
10
-6.3986757042013531
20
495.74928437256034
42
-0.18640973335680136
10
-4.5522383351559137
20
494.03125000094377
42
0.13301340640859877
10
-3.0057556382926953
20
492.2583427127912
42
1.0705364975330056
10
1.4629945107198992
20
500.04648284779705
42
-0.28700757539322391
10
-0.5057554892797913
20
503.19374728497132
10
-0.50575563829077907
20
517.39292006587129
42
-0.41421356237307583
10
1.4942443617093315
20
519.39292006587118
10
497.49424436170955
20
519.39292006582036
42
-0.41421356237307422
10
499.49424436170932
20
517.39292006582014
10
499.4942442126968
20
503.19374728492005
42
-0.28700757539321536
10
497.52549421269669
20
500.04648284774635
42
1.0705364975330676
10
501.99424436499891
20
492.25834270781382
42
0.13301340669710818
10
503.54072706910097
20
494.03124999572981
42
-0.18640973287421744
10
505.38716442893372
20
495.74928436877821
42
-0.095489080306513319
10
506.68799149752209
20
495.99999999995026
10
508.38716442744243
20
495.99999999995021
42
-0.41421356237310542
10
510.38716442744231
20
493.99999999994998
10
510.38716442738973
20
13.514038627345855
42
-0.42122667286055615
10
508.33939946937471
20
11.514609081504046
42
-0.1261418162888385
10
505.94928161706434
20
12.18857221939084
42
0.034827952947925532
10
505.38716442892559
20
12.464398499548155
42
0.1957158212653938
10
501.99424437080575
20
12.464398499498426
42
0.46537267595630727
10
499.87329630407294
20
5.9136939886030246
42
-0.25383460874076758
10
500.16327069423187
20
1.1531264835192911
0
CIRCLE
5
101
100
AcDbEntity
8
INTERIOR_PROFILES
100
AcDbCircle
10
-19.494244361667654
20
110.00000000002343
30
0
40
1.7500000000000071
210
0
220
0
230
-1
0
CIRCLE
5
102
100
AcDbEntity
8
INTERIOR_PROFILES
100
AcDbCircle
10
-479.4942443616676
20
109.9999999999765
30
0
40
1.7500000000000426
210
0
220
0
230
-1
0
CIRCLE
5
103
100
AcDbEntity
8
INTERIOR_PROFILES
100
AcDbCircle
10
-479.49424436167067
20
139.99999999997652
30
0
40
1.7499999999999716
210
0
220
0
230
-1
0
CIRCLE
5
104
100
AcDbEntity
8
INTERIOR_PROFILES
100
AcDbCircle
10
-134.49424436167072
20
140.00000000001171
30
0
40
1.7500000000000071
210
0
220
0
230
-1
0
CIRCLE
5
105
100
AcDbEntity
8
INTERIOR_PROFILES
100
AcDbCircle
10
-364.49424436167078
20
139.99999999998826
30
0
40
1.7499999999999716
210
0
220
0
230
-1
0
CIRCLE
5
106
100
AcDbEntity
8
INTERIOR_PROFILES
100
AcDbCircle
10
-249.49424436169295
20
350.99999999997669
30
0
40
1.7500000000000071
210
0
220
0
230
-1
0
CIRCLE
5
107
100
AcDbEntity
8
INTERIOR_PROFILES
100
AcDbCircle
10
-19.494244361664528
20
80.000000000023434
30
0
40
1.7500000000000071
210
0
220
0
230
-1
0
CIRCLE
5
108
100
AcDbEntity
8
INTERIOR_PROFILES
100
AcDbCircle
10
-364.49424436169897
20
410.99999999996487
30
0
40
1.7500000000000426
210
0
220
0
230
-1
0
CIRCLE
5
109
100
AcDbEntity
8
INTERIOR_PROFILES
100
AcDbCircle
10
-364.49424436169284
20
350.99999999996487
30
0
40
1.7499999999999716
210
0
220
0
230
-1
0
CIRCLE
5
110
100
AcDbEntity
8
INTERIOR_PROFILES
100
AcDbCircle
10
-249.49424436166456
20
79.999999999999986
30
0
40
1.7500000000000071
210
0
220
0
230
-1
0
CIRCLE
5
111
100
AcDbEntity
8
INTERIOR_PROFILES
100
AcDbCircle
10
-479.49424436169897
20
410.99999999995305
30
0
40
1.7500000000000426
210
0
220
0
230
-1
0
CIRCLE
5
112
100
AcDbEntity
8
INTERIOR_PROFILES
100
AcDbCircle
10
-249.49424436167072
20
140
30
0
40
1.7500000000000071
210
0
220
0
230
-1
0
CIRCLE
5
113
100
AcDbEntity
8
INTERIOR_PROFILES
100
AcDbCircle
10
-134.49424436169897
20
410.99999999998857
30
0
40
1.7500000000000071
210
0
220
0
230
-1
0
CIRCLE
5
114
100
AcDbEntity
8
INTERIOR_PROFILES
100
AcDbCircle
10
-19.494244361692949
20
351.00000000000028
30
0
40
1.7500000000000071
210
0
220
0
230
-1
0
CIRCLE
5
115
100
AcDbEntity
8
INTERIOR_PROFILES
100
AcDbCircle
10
-479.49424436169295
20
350.9999999999531
30
0
40
1.7499999999999716
210
0
220
0
230
-1
0
CIRCLE
5
116
100
AcDbEntity
8
INTERIOR_PROFILES
100
AcDbCircle
10
-134.49424436169289
20
350.99999999998852
30
0
40
1.7500000000000071
210
0
220
0
230
-1
0
CIRCLE
5
117
100
AcDbEntity
8
INTERIOR_PROFILES
100
AcDbCircle
10
-19.49424436169906
20
411.00000000000028
30
0
40
1.7500000000000071
210
0
220
0
230
-1
0
CIRCLE
5
118
100
AcDbEntity
8
INTERIOR_PROFILES
100
AcDbCircle
10
-19.494244361670638
20
140.00000000002345
30
0
40
1.7500000000000071
210
0
220
0
230
-1
0
CIRCLE
5
119
100
AcDbEntity
8
INTERIOR_PROFILES
100
AcDbCircle
10
-249.49424436169906
20
410.99999999997669
30
0
40
1.7500000000000071
210
0
220
0
230
-1
0
CIRCLE
5
120
100
AcDbEntity
8
INTERIOR_PROFILES
100
AcDbCircle
10
-249.49424436166763
20
109.99999999999999
30
0
40
1.7500000000000071
210
0
220
0
230
-1
0
CIRCLE
5
121
100
AcDbEntity
8
INTERIOR_PROFILES
100
AcDbCircle
10
-479.49424436166453
20
79.999999999976509
30
0
40
1.7499999999999716
210
0
220
0
230
-1
0
CIRCLE
5
122
100
AcDbEntity
8
INTERIOR_PROFILES
100
AcDbCircle
10
-19.494244361695863
20
381.00000000000034
30
0
40
1.7500000000000071
210
0
220
0
230
-1
0
CIRCLE
5
123
100
AcDbEntity
8
INTERIOR_PROFILES
100
AcDbCircle
10
-364.49424436166765
20
109.99999999998826
30
0
40
1.7499999999999716
210
0
220
0
230
-1
0
CIRCLE
5
124
100
AcDbEntity
8
INTERIOR_PROFILES
100
AcDbCircle
10
-364.49424436166458
20
79.999999999988248
30
0
40
1.7500000000000426
210
0
220
0
230
-1
0
CIRCLE
5
125
100
AcDbEntity
8
INTERIOR_PROFILES
100
AcDbCircle
10
-249.49424436169596
20
380.99999999997669
30
0
40
1.7500000000000071
210
0
220
0
230
-1
0
CIRCLE
5
126
100
AcDbEntity
8
INTERIOR_PROFILES
100
AcDbCircle
10
-134.49424436166458
20
80.00000000001171
30
0
40
1.7500000000000071
210
0
220
0
230
-1
0
CIRCLE
5
127
100
AcDbEntity
8
INTERIOR_PROFILES
100
AcDbCircle
10
-364.49424436169591
20
380.99999999996487
30
0
40
1.7499999999999716
210
0
220
0
230
-1
0
CIRCLE
5
128
100
AcDbEntity
8
INTERIOR_PROFILES
100
AcDbCircle
10
-479.49424436169591
20
380.9999999999531
30
0
40
1.7499999999999716
210
0
220
0
230
-1
0
CIRCLE
5
129
100
AcDbEntity
8
INTERIOR_PROFILES
100
AcDbCircle
10
-134.49424436169593
20
380.99999999998857
30
0
40
1.7500000000000071
210
0
220
0
230
-1
0
CIRCLE
5
130
100
AcDbEntity
8
INTERIOR_PROFILES
100
AcDbCircle
10
-134.49424436166771
20
110.00000000001168
30
0
40
1.7500000000000071
210
0
220
0
230
-1
0
LINE
5
131
100
AcDbEntity
8
BEND
100
AcDbLine
10
503.69070439457425
20
494.30728247862197
30
-7.538587177494319e-13
11
503.69070439452332
21
12.796422565344514
31
-7.5051901297847951e-13
0
LINE
5
132
100
AcDbEntity
8
BEND
100
AcDbLine
10
-0.50575563829134751
20
512.69646003293656
30
2.0556634957794247e-14
11
499.49424436170864
21
512.6964600328854
31
-8.0900273202007167e-13
0
LINE
5
133
100
AcDbEntity
8
BEND
100
AcDbLine
10
-4.7022156712962726
20
12.796422565397414
30
-6.4255077036895862e-14
11
-4.7022156712471741
21
494.30728250044513
31
-6.0635311753755963e-14
0
LINE
5
134
100
AcDbEntity
8
BEND_EXTENT
100
AcDbLine
10
-0.50575563829106329
20
514.39292006587141
30
9.6130845528365714e-15
11
499.49424436170887
21
514.39292006582014
31
-7.8441914563702457e-13
0
LINE
5
135
100
AcDbEntity
8
BEND_EXTENT
100
AcDbLine
10
505.38716442744078
20
495.7492843725077
30
1.3386881590280529e-12
11
505.38716442738951
21
12.464398495774347
31
-5.4425009073613864e-13
0
LINE
5
136
100
AcDbEntity
8
BEND_EXTENT
100
AcDbLine
10
-6.3986757042506781
20
12.464398495827282
30
-1.7393149619615982e-14
11
-6.3986757042012954
21
495.74928437256034
31
-3.0161024392372737e-13
0
LINE
5
137
100
AcDbEntity
8
BEND_EXTENT
100
AcDbLine
10
501.99424436165702
20
12.464398495774635
30
-7.5250689863201383e-13
11
501.99424436170773
21
492.2583427127397
31
-7.5250689863208714e-13
0
LINE
5
138
100
AcDbEntity
8
BEND_EXTENT
100
AcDbLine
10
499.49424436170864
20
510.99999999995106
30
-7.4889200884901926e-13
11
-0.50575563829156067
21
511.00000000000239
31
-2.5914052235167807e-14
0
LINE
5
139
100
AcDbEntity
8
BEND_EXTENT
100
AcDbLine
10
-3.0057556382926265
20
492.25834271279126
30
-2.229916245209697e-14
11
-3.0057556383415118
21
12.464398495827069
31
-2.2299162452026288e-14
0
ENDSEC
0
SECTION
2
OBJECTS
0
DICTIONARY
5
C
100
AcDbDictionary
3
ACAD_GROUP
350
D
3
ACAD_MLINESTYLE
350
17
0
DICTIONARY
5
D
100
AcDbDictionary
0
DICTIONARY
5
1A
330
C
100
AcDbDictionary
0
DICTIONARY
5
17
100
AcDbDictionary
0
ENDSEC
0
EOF
