%TF.GenerationSoftware,KiCad,Pcbnew,9.0.2*%
%TF.CreationDate,2026-07-24T01:25:43+01:00*%
%TF.ProjectId,fabrizio_project _Mainboard,66616272-697a-4696-9f5f-70726f6a6563,rev?*%
%TF.SameCoordinates,PX5204180PY8583b00*%
%TF.FileFunction,Legend,Bot*%
%TF.FilePolarity,Positive*%
%FSLAX46Y46*%
G04 Gerber Fmt 4.6, Leading zero omitted, Abs format (unit mm)*
G04 Created by KiCad (PCBNEW 9.0.2) date 2026-07-24 01:25:43*
%MOMM*%
%LPD*%
G01*
G04 APERTURE LIST*
%ADD10C,0.100000*%
%ADD11C,0.000000*%
%ADD12C,0.200000*%
%ADD13C,0.400000*%
%ADD14C,0.600000*%
%ADD15C,0.150000*%
%ADD16C,0.120000*%
G04 APERTURE END LIST*
D10*
X600000Y64275000D02*
X600000Y75850000D01*
X625000Y13800000D02*
X15225000Y13800000D01*
X105973600Y89471400D02*
X105973600Y82410200D01*
X88500000Y78025000D02*
X88500000Y79800000D01*
X96700000Y16324600D02*
X20550000Y16324600D01*
X7550000Y75875000D02*
X7550000Y78075000D01*
X103473000Y44120200D02*
X111093000Y44120200D01*
X64675000Y79100000D02*
X64675000Y76625000D01*
X90050000Y80175000D02*
X105973600Y80175000D01*
X20550000Y16325000D02*
X20550000Y425000D01*
X600000Y80150000D02*
X600000Y78075000D01*
D11*
G36*
X101087361Y43813333D02*
G01*
X96025000Y40850000D01*
X90962639Y37886667D01*
X85953195Y40823539D01*
X80934933Y43760415D01*
X80908472Y49704719D01*
X80893056Y54908191D01*
X82522432Y54908191D01*
X82616224Y54844595D01*
X82872591Y54687154D01*
X83802352Y54132080D01*
X85170331Y53325653D01*
X86835140Y52350553D01*
X91121389Y49845830D01*
X91121389Y44739373D01*
X91127590Y42761338D01*
X91144540Y41145450D01*
X91169758Y40058730D01*
X91184693Y39766001D01*
X91200764Y39668195D01*
X95478194Y42155277D01*
X99676250Y44615901D01*
X99658611Y49739997D01*
X99632152Y54855275D01*
X95310625Y57386456D01*
X92244766Y59169085D01*
X91303428Y59706934D01*
X90945001Y59899997D01*
X86694029Y57421732D01*
X85064912Y56464685D01*
X83735105Y55672175D01*
X82841860Y55126059D01*
X82601841Y54970978D01*
X82522432Y54908191D01*
X80893056Y54908191D01*
X80890835Y55657844D01*
X85838541Y58559440D01*
X89379549Y60615474D01*
X90489420Y61247029D01*
X90936180Y61487497D01*
X90976774Y61475549D01*
X91067042Y61434081D01*
X91386110Y61268527D01*
X91872403Y61002721D01*
X92504939Y60648548D01*
X94124823Y59722644D01*
X96077917Y58585900D01*
X101078542Y55657844D01*
X101087361Y49731178D01*
X101087361Y44615901D01*
X101087361Y43813333D01*
G37*
D10*
X75850000Y89475000D02*
X75850000Y79100000D01*
X119475000Y19025000D02*
X107130600Y19025000D01*
X600000Y27850000D02*
X15225000Y27850000D01*
X625000Y27200000D02*
X625000Y13800000D01*
X64675000Y79100000D02*
X64675000Y89475000D01*
X105973600Y80175000D02*
X105973600Y82410200D01*
X20550000Y425000D02*
X96700000Y475000D01*
X15225000Y54525000D02*
X15225000Y41100000D01*
X600000Y38750000D02*
X15225000Y38750000D01*
X15200000Y75850000D02*
X15200000Y64275000D01*
X64675000Y76625000D02*
X75850000Y76625000D01*
X104336600Y31674200D02*
X104336600Y32436200D01*
X600000Y56825000D02*
X15225000Y56825000D01*
X111093000Y43205800D02*
X119627400Y43205800D01*
X15200000Y64275000D02*
X15125000Y64275000D01*
X600000Y54525000D02*
X15225000Y54525000D01*
X600000Y78075000D02*
X15200000Y78075000D01*
X88500000Y89550000D02*
X88500000Y79800000D01*
X15225000Y59000000D02*
X600000Y59000000D01*
X53200000Y16300000D02*
X53200000Y501200D01*
X88500000Y79800000D02*
X76550000Y79800000D01*
X600000Y41100000D02*
X600000Y54525000D01*
X76500000Y89550000D02*
X88500000Y89550000D01*
X90050000Y89471400D02*
X105973600Y89471400D01*
X103473000Y32436200D02*
X103473000Y39853000D01*
X107130600Y31674200D02*
X104336600Y31674200D01*
X7912500Y54525000D02*
X7912500Y56825000D01*
X600000Y54525000D02*
X600000Y56825000D01*
X75850000Y79100000D02*
X64675000Y79100000D01*
X90050000Y89471400D02*
X90050000Y80175000D01*
X15150000Y64275000D02*
X600000Y64275000D01*
X15225000Y41100000D02*
X600000Y41100000D01*
X107130600Y19025000D02*
X107130600Y31674200D01*
X15225000Y56825000D02*
X15225000Y59000000D01*
X600000Y40783245D02*
X600000Y27850000D01*
X76550000Y78025000D02*
X88500000Y78025000D01*
X103473000Y39853000D02*
X103473000Y44120200D01*
X20525000Y13900000D02*
X96650000Y13825000D01*
X15225000Y56825000D02*
X15225000Y54525000D01*
X76550000Y79800000D02*
X76550000Y78025000D01*
X15225000Y27850000D02*
X15225000Y40783245D01*
X15225000Y27200000D02*
X625000Y27200000D01*
X15225000Y13800000D02*
X15225000Y27200000D01*
X600000Y59000000D02*
X600000Y56825000D01*
X600000Y40783245D02*
X15225000Y40783245D01*
X105973600Y82410200D02*
X105973600Y81699000D01*
X15200000Y80150000D02*
X600000Y80150000D01*
X104336600Y32436200D02*
X103473000Y32436200D01*
X111093000Y44120200D02*
X111093000Y43205800D01*
X73100000Y16324800D02*
X73100000Y475200D01*
X12675000Y27175000D02*
X12675000Y13800000D01*
X75850000Y79100000D02*
X75850000Y76625000D01*
X15200000Y78075000D02*
X15200000Y80150000D01*
X600000Y75850000D02*
X600000Y78075000D01*
X64675000Y89475000D02*
X75850000Y89475000D01*
X76550000Y79800000D02*
X76550000Y89550000D01*
X105973600Y82410200D02*
X90276400Y82410200D01*
X34575000Y16300000D02*
X34575000Y450400D01*
X15200000Y78075000D02*
X15200000Y75850000D01*
X675000Y75850000D02*
X15150000Y75850000D01*
X96700000Y475000D02*
X96700000Y16324600D01*
X14374800Y22893735D02*
X14422419Y22750878D01*
X14422419Y22750878D02*
X14422419Y22512783D01*
X14422419Y22512783D02*
X14374800Y22417545D01*
X14374800Y22417545D02*
X14327180Y22369926D01*
X14327180Y22369926D02*
X14231942Y22322307D01*
X14231942Y22322307D02*
X14136704Y22322307D01*
X14136704Y22322307D02*
X14041466Y22369926D01*
X14041466Y22369926D02*
X13993847Y22417545D01*
X13993847Y22417545D02*
X13946228Y22512783D01*
X13946228Y22512783D02*
X13898609Y22703259D01*
X13898609Y22703259D02*
X13850990Y22798497D01*
X13850990Y22798497D02*
X13803371Y22846116D01*
X13803371Y22846116D02*
X13708133Y22893735D01*
X13708133Y22893735D02*
X13612895Y22893735D01*
X13612895Y22893735D02*
X13517657Y22846116D01*
X13517657Y22846116D02*
X13470038Y22798497D01*
X13470038Y22798497D02*
X13422419Y22703259D01*
X13422419Y22703259D02*
X13422419Y22465164D01*
X13422419Y22465164D02*
X13470038Y22322307D01*
X14327180Y21322307D02*
X14374800Y21369926D01*
X14374800Y21369926D02*
X14422419Y21512783D01*
X14422419Y21512783D02*
X14422419Y21608021D01*
X14422419Y21608021D02*
X14374800Y21750878D01*
X14374800Y21750878D02*
X14279561Y21846116D01*
X14279561Y21846116D02*
X14184323Y21893735D01*
X14184323Y21893735D02*
X13993847Y21941354D01*
X13993847Y21941354D02*
X13850990Y21941354D01*
X13850990Y21941354D02*
X13660514Y21893735D01*
X13660514Y21893735D02*
X13565276Y21846116D01*
X13565276Y21846116D02*
X13470038Y21750878D01*
X13470038Y21750878D02*
X13422419Y21608021D01*
X13422419Y21608021D02*
X13422419Y21512783D01*
X13422419Y21512783D02*
X13470038Y21369926D01*
X13470038Y21369926D02*
X13517657Y21322307D01*
X14422419Y20322307D02*
X13946228Y20655640D01*
X14422419Y20893735D02*
X13422419Y20893735D01*
X13422419Y20893735D02*
X13422419Y20512783D01*
X13422419Y20512783D02*
X13470038Y20417545D01*
X13470038Y20417545D02*
X13517657Y20369926D01*
X13517657Y20369926D02*
X13612895Y20322307D01*
X13612895Y20322307D02*
X13755752Y20322307D01*
X13755752Y20322307D02*
X13850990Y20369926D01*
X13850990Y20369926D02*
X13898609Y20417545D01*
X13898609Y20417545D02*
X13946228Y20512783D01*
X13946228Y20512783D02*
X13946228Y20893735D01*
X13898609Y19893735D02*
X13898609Y19560402D01*
X14422419Y19417545D02*
X14422419Y19893735D01*
X14422419Y19893735D02*
X13422419Y19893735D01*
X13422419Y19893735D02*
X13422419Y19417545D01*
X13898609Y18988973D02*
X13898609Y18655640D01*
X14422419Y18512783D02*
X14422419Y18988973D01*
X14422419Y18988973D02*
X13422419Y18988973D01*
X13422419Y18988973D02*
X13422419Y18512783D01*
X14422419Y18084211D02*
X13422419Y18084211D01*
X13422419Y18084211D02*
X14422419Y17512783D01*
X14422419Y17512783D02*
X13422419Y17512783D01*
X97480019Y85351154D02*
X97480019Y84732107D01*
X97480019Y84732107D02*
X97860971Y85065440D01*
X97860971Y85065440D02*
X97860971Y84922583D01*
X97860971Y84922583D02*
X97908590Y84827345D01*
X97908590Y84827345D02*
X97956209Y84779726D01*
X97956209Y84779726D02*
X98051447Y84732107D01*
X98051447Y84732107D02*
X98289542Y84732107D01*
X98289542Y84732107D02*
X98384780Y84779726D01*
X98384780Y84779726D02*
X98432400Y84827345D01*
X98432400Y84827345D02*
X98480019Y84922583D01*
X98480019Y84922583D02*
X98480019Y85208297D01*
X98480019Y85208297D02*
X98432400Y85303535D01*
X98432400Y85303535D02*
X98384780Y85351154D01*
X97480019Y84446392D02*
X98480019Y84113059D01*
X98480019Y84113059D02*
X97480019Y83779726D01*
X97480019Y83541630D02*
X97480019Y82922583D01*
X97480019Y82922583D02*
X97860971Y83255916D01*
X97860971Y83255916D02*
X97860971Y83113059D01*
X97860971Y83113059D02*
X97908590Y83017821D01*
X97908590Y83017821D02*
X97956209Y82970202D01*
X97956209Y82970202D02*
X98051447Y82922583D01*
X98051447Y82922583D02*
X98289542Y82922583D01*
X98289542Y82922583D02*
X98384780Y82970202D01*
X98384780Y82970202D02*
X98432400Y83017821D01*
X98432400Y83017821D02*
X98480019Y83113059D01*
X98480019Y83113059D02*
X98480019Y83398773D01*
X98480019Y83398773D02*
X98432400Y83494011D01*
X98432400Y83494011D02*
X98384780Y83541630D01*
X29788972Y6152581D02*
X29455639Y5152581D01*
X29455639Y5152581D02*
X29122306Y6152581D01*
X28788972Y5533534D02*
X28027068Y5533534D01*
X28408020Y5152581D02*
X28408020Y5914486D01*
X66152419Y81838154D02*
X66152419Y81219107D01*
X66152419Y81219107D02*
X66533371Y81552440D01*
X66533371Y81552440D02*
X66533371Y81409583D01*
X66533371Y81409583D02*
X66580990Y81314345D01*
X66580990Y81314345D02*
X66628609Y81266726D01*
X66628609Y81266726D02*
X66723847Y81219107D01*
X66723847Y81219107D02*
X66961942Y81219107D01*
X66961942Y81219107D02*
X67057180Y81266726D01*
X67057180Y81266726D02*
X67104800Y81314345D01*
X67104800Y81314345D02*
X67152419Y81409583D01*
X67152419Y81409583D02*
X67152419Y81695297D01*
X67152419Y81695297D02*
X67104800Y81790535D01*
X67104800Y81790535D02*
X67057180Y81838154D01*
X66152419Y80933392D02*
X67152419Y80600059D01*
X67152419Y80600059D02*
X66152419Y80266726D01*
X66152419Y80028630D02*
X66152419Y79409583D01*
X66152419Y79409583D02*
X66533371Y79742916D01*
X66533371Y79742916D02*
X66533371Y79600059D01*
X66533371Y79600059D02*
X66580990Y79504821D01*
X66580990Y79504821D02*
X66628609Y79457202D01*
X66628609Y79457202D02*
X66723847Y79409583D01*
X66723847Y79409583D02*
X66961942Y79409583D01*
X66961942Y79409583D02*
X67057180Y79457202D01*
X67057180Y79457202D02*
X67104800Y79504821D01*
X67104800Y79504821D02*
X67152419Y79600059D01*
X67152419Y79600059D02*
X67152419Y79885773D01*
X67152419Y79885773D02*
X67104800Y79981011D01*
X67104800Y79981011D02*
X67057180Y80028630D01*
X8165125Y47369981D02*
X8641315Y47369981D01*
X8641315Y47369981D02*
X8688934Y46893791D01*
X8688934Y46893791D02*
X8641315Y46941410D01*
X8641315Y46941410D02*
X8546077Y46989029D01*
X8546077Y46989029D02*
X8307982Y46989029D01*
X8307982Y46989029D02*
X8212744Y46941410D01*
X8212744Y46941410D02*
X8165125Y46893791D01*
X8165125Y46893791D02*
X8117506Y46798553D01*
X8117506Y46798553D02*
X8117506Y46560458D01*
X8117506Y46560458D02*
X8165125Y46465220D01*
X8165125Y46465220D02*
X8212744Y46417600D01*
X8212744Y46417600D02*
X8307982Y46369981D01*
X8307982Y46369981D02*
X8546077Y46369981D01*
X8546077Y46369981D02*
X8641315Y46417600D01*
X8641315Y46417600D02*
X8688934Y46465220D01*
X7831791Y47369981D02*
X7498458Y46369981D01*
X7498458Y46369981D02*
X7165125Y47369981D01*
D12*
X74252945Y77380400D02*
X74116041Y77332781D01*
X74116041Y77332781D02*
X73877945Y77332781D01*
X73877945Y77332781D02*
X73776755Y77380400D01*
X73776755Y77380400D02*
X73723183Y77428020D01*
X73723183Y77428020D02*
X73663660Y77523258D01*
X73663660Y77523258D02*
X73651755Y77618496D01*
X73651755Y77618496D02*
X73687469Y77713734D01*
X73687469Y77713734D02*
X73729136Y77761353D01*
X73729136Y77761353D02*
X73818422Y77808972D01*
X73818422Y77808972D02*
X74002945Y77856591D01*
X74002945Y77856591D02*
X74092231Y77904210D01*
X74092231Y77904210D02*
X74133898Y77951829D01*
X74133898Y77951829D02*
X74169612Y78047067D01*
X74169612Y78047067D02*
X74157707Y78142305D01*
X74157707Y78142305D02*
X74098183Y78237543D01*
X74098183Y78237543D02*
X74044612Y78285162D01*
X74044612Y78285162D02*
X73943422Y78332781D01*
X73943422Y78332781D02*
X73705326Y78332781D01*
X73705326Y78332781D02*
X73568422Y78285162D01*
X73229136Y78332781D02*
X73116041Y77332781D01*
X73116041Y77332781D02*
X72836279Y78047067D01*
X72836279Y78047067D02*
X72735088Y77332781D01*
X72735088Y77332781D02*
X72371993Y78332781D01*
X72116041Y77332781D02*
X71991041Y78332781D01*
X71991041Y78332781D02*
X71752945Y78332781D01*
X71752945Y78332781D02*
X71616041Y78285162D01*
X71616041Y78285162D02*
X71532707Y78189924D01*
X71532707Y78189924D02*
X71496993Y78094686D01*
X71496993Y78094686D02*
X71473184Y77904210D01*
X71473184Y77904210D02*
X71491041Y77761353D01*
X71491041Y77761353D02*
X71562469Y77570877D01*
X71562469Y77570877D02*
X71621993Y77475639D01*
X71621993Y77475639D02*
X71729136Y77380400D01*
X71729136Y77380400D02*
X71877945Y77332781D01*
X71877945Y77332781D02*
X72116041Y77332781D01*
X70270803Y78380400D02*
X71288660Y77094686D01*
X70068422Y77332781D02*
X69943422Y78332781D01*
X69943422Y78332781D02*
X69562469Y78332781D01*
X69562469Y78332781D02*
X69473184Y78285162D01*
X69473184Y78285162D02*
X69431517Y78237543D01*
X69431517Y78237543D02*
X69395803Y78142305D01*
X69395803Y78142305D02*
X69413660Y77999448D01*
X69413660Y77999448D02*
X69473184Y77904210D01*
X69473184Y77904210D02*
X69526755Y77856591D01*
X69526755Y77856591D02*
X69627945Y77808972D01*
X69627945Y77808972D02*
X70008898Y77808972D01*
X68496993Y77332781D02*
X68770803Y77808972D01*
X69068422Y77332781D02*
X68943422Y78332781D01*
X68943422Y78332781D02*
X68562469Y78332781D01*
X68562469Y78332781D02*
X68473184Y78285162D01*
X68473184Y78285162D02*
X68431517Y78237543D01*
X68431517Y78237543D02*
X68395803Y78142305D01*
X68395803Y78142305D02*
X68413660Y77999448D01*
X68413660Y77999448D02*
X68473184Y77904210D01*
X68473184Y77904210D02*
X68526755Y77856591D01*
X68526755Y77856591D02*
X68627945Y77808972D01*
X68627945Y77808972D02*
X69008898Y77808972D01*
X67752945Y78332781D02*
X67562469Y78332781D01*
X67562469Y78332781D02*
X67473184Y78285162D01*
X67473184Y78285162D02*
X67389850Y78189924D01*
X67389850Y78189924D02*
X67366041Y77999448D01*
X67366041Y77999448D02*
X67407707Y77666115D01*
X67407707Y77666115D02*
X67479136Y77475639D01*
X67479136Y77475639D02*
X67586279Y77380400D01*
X67586279Y77380400D02*
X67687469Y77332781D01*
X67687469Y77332781D02*
X67877945Y77332781D01*
X67877945Y77332781D02*
X67967231Y77380400D01*
X67967231Y77380400D02*
X68050565Y77475639D01*
X68050565Y77475639D02*
X68074374Y77666115D01*
X68074374Y77666115D02*
X68032707Y77999448D01*
X68032707Y77999448D02*
X67961279Y78189924D01*
X67961279Y78189924D02*
X67854136Y78285162D01*
X67854136Y78285162D02*
X67752945Y78332781D01*
X66377946Y78285162D02*
X66467231Y78332781D01*
X66467231Y78332781D02*
X66610088Y78332781D01*
X66610088Y78332781D02*
X66758898Y78285162D01*
X66758898Y78285162D02*
X66866041Y78189924D01*
X66866041Y78189924D02*
X66925565Y78094686D01*
X66925565Y78094686D02*
X66996993Y77904210D01*
X66996993Y77904210D02*
X67014850Y77761353D01*
X67014850Y77761353D02*
X66991041Y77570877D01*
X66991041Y77570877D02*
X66955326Y77475639D01*
X66955326Y77475639D02*
X66871993Y77380400D01*
X66871993Y77380400D02*
X66735088Y77332781D01*
X66735088Y77332781D02*
X66639850Y77332781D01*
X66639850Y77332781D02*
X66491041Y77380400D01*
X66491041Y77380400D02*
X66437469Y77428020D01*
X66437469Y77428020D02*
X66395803Y77761353D01*
X66395803Y77761353D02*
X66586279Y77761353D01*
D10*
X6012782Y76901391D02*
X6346115Y76901391D01*
X6346115Y76377581D02*
X6346115Y77377581D01*
X6346115Y77377581D02*
X5869925Y77377581D01*
X5488972Y76377581D02*
X5488972Y77377581D01*
X4536592Y76377581D02*
X5012782Y76377581D01*
X5012782Y76377581D02*
X5012782Y77377581D01*
X4346115Y77377581D02*
X3774687Y77377581D01*
X4060401Y76377581D02*
X4060401Y77377581D01*
X3441353Y76901391D02*
X3108020Y76901391D01*
X2965163Y76377581D02*
X3441353Y76377581D01*
X3441353Y76377581D02*
X3441353Y77377581D01*
X3441353Y77377581D02*
X2965163Y77377581D01*
X1965163Y76377581D02*
X2298496Y76853772D01*
X2536591Y76377581D02*
X2536591Y77377581D01*
X2536591Y77377581D02*
X2155639Y77377581D01*
X2155639Y77377581D02*
X2060401Y77329962D01*
X2060401Y77329962D02*
X2012782Y77282343D01*
X2012782Y77282343D02*
X1965163Y77187105D01*
X1965163Y77187105D02*
X1965163Y77044248D01*
X1965163Y77044248D02*
X2012782Y76949010D01*
X2012782Y76949010D02*
X2060401Y76901391D01*
X2060401Y76901391D02*
X2155639Y76853772D01*
X2155639Y76853772D02*
X2536591Y76853772D01*
D12*
X65464850Y14382781D02*
X65738660Y14858972D01*
X66036279Y14382781D02*
X65911279Y15382781D01*
X65911279Y15382781D02*
X65530326Y15382781D01*
X65530326Y15382781D02*
X65441041Y15335162D01*
X65441041Y15335162D02*
X65399374Y15287543D01*
X65399374Y15287543D02*
X65363660Y15192305D01*
X65363660Y15192305D02*
X65381517Y15049448D01*
X65381517Y15049448D02*
X65441041Y14954210D01*
X65441041Y14954210D02*
X65494612Y14906591D01*
X65494612Y14906591D02*
X65595802Y14858972D01*
X65595802Y14858972D02*
X65976755Y14858972D01*
X64970802Y14906591D02*
X64637469Y14906591D01*
X64560088Y14382781D02*
X65036279Y14382781D01*
X65036279Y14382781D02*
X64911279Y15382781D01*
X64911279Y15382781D02*
X64435088Y15382781D01*
X63488660Y15335162D02*
X63577945Y15382781D01*
X63577945Y15382781D02*
X63720802Y15382781D01*
X63720802Y15382781D02*
X63869612Y15335162D01*
X63869612Y15335162D02*
X63976755Y15239924D01*
X63976755Y15239924D02*
X64036279Y15144686D01*
X64036279Y15144686D02*
X64107707Y14954210D01*
X64107707Y14954210D02*
X64125564Y14811353D01*
X64125564Y14811353D02*
X64101755Y14620877D01*
X64101755Y14620877D02*
X64066040Y14525639D01*
X64066040Y14525639D02*
X63982707Y14430400D01*
X63982707Y14430400D02*
X63845802Y14382781D01*
X63845802Y14382781D02*
X63750564Y14382781D01*
X63750564Y14382781D02*
X63601755Y14430400D01*
X63601755Y14430400D02*
X63548183Y14478020D01*
X63548183Y14478020D02*
X63506517Y14811353D01*
X63506517Y14811353D02*
X63696993Y14811353D01*
X61970802Y14906591D02*
X62304135Y14906591D01*
X62369612Y14382781D02*
X62244612Y15382781D01*
X62244612Y15382781D02*
X61768421Y15382781D01*
X61524373Y14668496D02*
X61048183Y14668496D01*
X61655326Y14382781D02*
X61196992Y15382781D01*
X61196992Y15382781D02*
X60988659Y14382781D01*
X60655326Y14382781D02*
X60530326Y15382781D01*
X60530326Y15382781D02*
X60083897Y14382781D01*
X60083897Y14382781D02*
X59958897Y15382781D01*
D10*
X93388361Y83136294D02*
X93435980Y83041056D01*
X93435980Y83041056D02*
X93435980Y82898199D01*
X93435980Y82898199D02*
X93388361Y82755342D01*
X93388361Y82755342D02*
X93293123Y82660104D01*
X93293123Y82660104D02*
X93197885Y82612485D01*
X93197885Y82612485D02*
X93007409Y82564866D01*
X93007409Y82564866D02*
X92864552Y82564866D01*
X92864552Y82564866D02*
X92674076Y82612485D01*
X92674076Y82612485D02*
X92578838Y82660104D01*
X92578838Y82660104D02*
X92483600Y82755342D01*
X92483600Y82755342D02*
X92435980Y82898199D01*
X92435980Y82898199D02*
X92435980Y82993437D01*
X92435980Y82993437D02*
X92483600Y83136294D01*
X92483600Y83136294D02*
X92531219Y83183913D01*
X92531219Y83183913D02*
X92864552Y83183913D01*
X92864552Y83183913D02*
X92864552Y82993437D01*
X92435980Y83612485D02*
X93435980Y83612485D01*
X93435980Y83612485D02*
X92435980Y84183913D01*
X92435980Y84183913D02*
X93435980Y84183913D01*
X92435980Y84660104D02*
X93435980Y84660104D01*
X93435980Y84660104D02*
X93435980Y84898199D01*
X93435980Y84898199D02*
X93388361Y85041056D01*
X93388361Y85041056D02*
X93293123Y85136294D01*
X93293123Y85136294D02*
X93197885Y85183913D01*
X93197885Y85183913D02*
X93007409Y85231532D01*
X93007409Y85231532D02*
X92864552Y85231532D01*
X92864552Y85231532D02*
X92674076Y85183913D01*
X92674076Y85183913D02*
X92578838Y85136294D01*
X92578838Y85136294D02*
X92483600Y85041056D01*
X92483600Y85041056D02*
X92435980Y84898199D01*
X92435980Y84898199D02*
X92435980Y84660104D01*
X48121115Y10552581D02*
X48121115Y11552581D01*
X48121115Y11552581D02*
X47740163Y11552581D01*
X47740163Y11552581D02*
X47644925Y11504962D01*
X47644925Y11504962D02*
X47597306Y11457343D01*
X47597306Y11457343D02*
X47549687Y11362105D01*
X47549687Y11362105D02*
X47549687Y11219248D01*
X47549687Y11219248D02*
X47597306Y11124010D01*
X47597306Y11124010D02*
X47644925Y11076391D01*
X47644925Y11076391D02*
X47740163Y11028772D01*
X47740163Y11028772D02*
X48121115Y11028772D01*
X47216353Y11552581D02*
X46978258Y10552581D01*
X46978258Y10552581D02*
X46787782Y11266867D01*
X46787782Y11266867D02*
X46597306Y10552581D01*
X46597306Y10552581D02*
X46359211Y11552581D01*
X45978258Y10552581D02*
X45978258Y11552581D01*
X45978258Y11552581D02*
X45644925Y10838296D01*
X45644925Y10838296D02*
X45311592Y11552581D01*
X45311592Y11552581D02*
X45311592Y10552581D01*
X8892134Y51396000D02*
X8749277Y51348381D01*
X8749277Y51348381D02*
X8511182Y51348381D01*
X8511182Y51348381D02*
X8415944Y51396000D01*
X8415944Y51396000D02*
X8368325Y51443620D01*
X8368325Y51443620D02*
X8320706Y51538858D01*
X8320706Y51538858D02*
X8320706Y51634096D01*
X8320706Y51634096D02*
X8368325Y51729334D01*
X8368325Y51729334D02*
X8415944Y51776953D01*
X8415944Y51776953D02*
X8511182Y51824572D01*
X8511182Y51824572D02*
X8701658Y51872191D01*
X8701658Y51872191D02*
X8796896Y51919810D01*
X8796896Y51919810D02*
X8844515Y51967429D01*
X8844515Y51967429D02*
X8892134Y52062667D01*
X8892134Y52062667D02*
X8892134Y52157905D01*
X8892134Y52157905D02*
X8844515Y52253143D01*
X8844515Y52253143D02*
X8796896Y52300762D01*
X8796896Y52300762D02*
X8701658Y52348381D01*
X8701658Y52348381D02*
X8463563Y52348381D01*
X8463563Y52348381D02*
X8320706Y52300762D01*
X7320706Y51443620D02*
X7368325Y51396000D01*
X7368325Y51396000D02*
X7511182Y51348381D01*
X7511182Y51348381D02*
X7606420Y51348381D01*
X7606420Y51348381D02*
X7749277Y51396000D01*
X7749277Y51396000D02*
X7844515Y51491239D01*
X7844515Y51491239D02*
X7892134Y51586477D01*
X7892134Y51586477D02*
X7939753Y51776953D01*
X7939753Y51776953D02*
X7939753Y51919810D01*
X7939753Y51919810D02*
X7892134Y52110286D01*
X7892134Y52110286D02*
X7844515Y52205524D01*
X7844515Y52205524D02*
X7749277Y52300762D01*
X7749277Y52300762D02*
X7606420Y52348381D01*
X7606420Y52348381D02*
X7511182Y52348381D01*
X7511182Y52348381D02*
X7368325Y52300762D01*
X7368325Y52300762D02*
X7320706Y52253143D01*
X6892134Y51348381D02*
X6892134Y52348381D01*
X6320706Y51348381D02*
X6749277Y51919810D01*
X6320706Y52348381D02*
X6892134Y51776953D01*
X29674687Y7902581D02*
X30008020Y8378772D01*
X30246115Y7902581D02*
X30246115Y8902581D01*
X30246115Y8902581D02*
X29865163Y8902581D01*
X29865163Y8902581D02*
X29769925Y8854962D01*
X29769925Y8854962D02*
X29722306Y8807343D01*
X29722306Y8807343D02*
X29674687Y8712105D01*
X29674687Y8712105D02*
X29674687Y8569248D01*
X29674687Y8569248D02*
X29722306Y8474010D01*
X29722306Y8474010D02*
X29769925Y8426391D01*
X29769925Y8426391D02*
X29865163Y8378772D01*
X29865163Y8378772D02*
X30246115Y8378772D01*
X29246115Y7902581D02*
X29246115Y8902581D01*
X29246115Y8902581D02*
X28865163Y8902581D01*
X28865163Y8902581D02*
X28769925Y8854962D01*
X28769925Y8854962D02*
X28722306Y8807343D01*
X28722306Y8807343D02*
X28674687Y8712105D01*
X28674687Y8712105D02*
X28674687Y8569248D01*
X28674687Y8569248D02*
X28722306Y8474010D01*
X28722306Y8474010D02*
X28769925Y8426391D01*
X28769925Y8426391D02*
X28865163Y8378772D01*
X28865163Y8378772D02*
X29246115Y8378772D01*
X28246115Y7902581D02*
X28246115Y8902581D01*
X28246115Y8902581D02*
X27912782Y8188296D01*
X27912782Y8188296D02*
X27579449Y8902581D01*
X27579449Y8902581D02*
X27579449Y7902581D01*
D13*
X88650852Y3102467D02*
X87127043Y3102467D01*
D10*
X47449687Y7952581D02*
X47783020Y8428772D01*
X48021115Y7952581D02*
X48021115Y8952581D01*
X48021115Y8952581D02*
X47640163Y8952581D01*
X47640163Y8952581D02*
X47544925Y8904962D01*
X47544925Y8904962D02*
X47497306Y8857343D01*
X47497306Y8857343D02*
X47449687Y8762105D01*
X47449687Y8762105D02*
X47449687Y8619248D01*
X47449687Y8619248D02*
X47497306Y8524010D01*
X47497306Y8524010D02*
X47544925Y8476391D01*
X47544925Y8476391D02*
X47640163Y8428772D01*
X47640163Y8428772D02*
X48021115Y8428772D01*
X47021115Y7952581D02*
X47021115Y8952581D01*
X47021115Y8952581D02*
X46640163Y8952581D01*
X46640163Y8952581D02*
X46544925Y8904962D01*
X46544925Y8904962D02*
X46497306Y8857343D01*
X46497306Y8857343D02*
X46449687Y8762105D01*
X46449687Y8762105D02*
X46449687Y8619248D01*
X46449687Y8619248D02*
X46497306Y8524010D01*
X46497306Y8524010D02*
X46544925Y8476391D01*
X46544925Y8476391D02*
X46640163Y8428772D01*
X46640163Y8428772D02*
X47021115Y8428772D01*
X46021115Y7952581D02*
X46021115Y8952581D01*
X46021115Y8952581D02*
X45687782Y8238296D01*
X45687782Y8238296D02*
X45354449Y8952581D01*
X45354449Y8952581D02*
X45354449Y7952581D01*
D12*
X86577945Y14555400D02*
X86441041Y14507781D01*
X86441041Y14507781D02*
X86202945Y14507781D01*
X86202945Y14507781D02*
X86101755Y14555400D01*
X86101755Y14555400D02*
X86048183Y14603020D01*
X86048183Y14603020D02*
X85988660Y14698258D01*
X85988660Y14698258D02*
X85976755Y14793496D01*
X85976755Y14793496D02*
X86012469Y14888734D01*
X86012469Y14888734D02*
X86054136Y14936353D01*
X86054136Y14936353D02*
X86143422Y14983972D01*
X86143422Y14983972D02*
X86327945Y15031591D01*
X86327945Y15031591D02*
X86417231Y15079210D01*
X86417231Y15079210D02*
X86458898Y15126829D01*
X86458898Y15126829D02*
X86494612Y15222067D01*
X86494612Y15222067D02*
X86482707Y15317305D01*
X86482707Y15317305D02*
X86423183Y15412543D01*
X86423183Y15412543D02*
X86369612Y15460162D01*
X86369612Y15460162D02*
X86268422Y15507781D01*
X86268422Y15507781D02*
X86030326Y15507781D01*
X86030326Y15507781D02*
X85893422Y15460162D01*
X85625564Y14555400D02*
X85488660Y14507781D01*
X85488660Y14507781D02*
X85250564Y14507781D01*
X85250564Y14507781D02*
X85149374Y14555400D01*
X85149374Y14555400D02*
X85095802Y14603020D01*
X85095802Y14603020D02*
X85036279Y14698258D01*
X85036279Y14698258D02*
X85024374Y14793496D01*
X85024374Y14793496D02*
X85060088Y14888734D01*
X85060088Y14888734D02*
X85101755Y14936353D01*
X85101755Y14936353D02*
X85191041Y14983972D01*
X85191041Y14983972D02*
X85375564Y15031591D01*
X85375564Y15031591D02*
X85464850Y15079210D01*
X85464850Y15079210D02*
X85506517Y15126829D01*
X85506517Y15126829D02*
X85542231Y15222067D01*
X85542231Y15222067D02*
X85530326Y15317305D01*
X85530326Y15317305D02*
X85470802Y15412543D01*
X85470802Y15412543D02*
X85417231Y15460162D01*
X85417231Y15460162D02*
X85316041Y15507781D01*
X85316041Y15507781D02*
X85077945Y15507781D01*
X85077945Y15507781D02*
X84941041Y15460162D01*
X84060088Y14507781D02*
X84333898Y14983972D01*
X84631517Y14507781D02*
X84506517Y15507781D01*
X84506517Y15507781D02*
X84125564Y15507781D01*
X84125564Y15507781D02*
X84036279Y15460162D01*
X84036279Y15460162D02*
X83994612Y15412543D01*
X83994612Y15412543D02*
X83958898Y15317305D01*
X83958898Y15317305D02*
X83976755Y15174448D01*
X83976755Y15174448D02*
X84036279Y15079210D01*
X84036279Y15079210D02*
X84089850Y15031591D01*
X84089850Y15031591D02*
X84191040Y14983972D01*
X84191040Y14983972D02*
X84571993Y14983972D01*
D13*
X118498238Y38910453D02*
X116498238Y38910453D01*
X116498238Y38910453D02*
X116498238Y38148548D01*
X116498238Y38148548D02*
X116593476Y37958072D01*
X116593476Y37958072D02*
X116688714Y37862834D01*
X116688714Y37862834D02*
X116879190Y37767596D01*
X116879190Y37767596D02*
X117164904Y37767596D01*
X117164904Y37767596D02*
X117355380Y37862834D01*
X117355380Y37862834D02*
X117450619Y37958072D01*
X117450619Y37958072D02*
X117545857Y38148548D01*
X117545857Y38148548D02*
X117545857Y38910453D01*
X116498238Y36529501D02*
X116498238Y36148548D01*
X116498238Y36148548D02*
X116593476Y35958072D01*
X116593476Y35958072D02*
X116783952Y35767596D01*
X116783952Y35767596D02*
X117164904Y35672358D01*
X117164904Y35672358D02*
X117831571Y35672358D01*
X117831571Y35672358D02*
X118212523Y35767596D01*
X118212523Y35767596D02*
X118403000Y35958072D01*
X118403000Y35958072D02*
X118498238Y36148548D01*
X118498238Y36148548D02*
X118498238Y36529501D01*
X118498238Y36529501D02*
X118403000Y36719977D01*
X118403000Y36719977D02*
X118212523Y36910453D01*
X118212523Y36910453D02*
X117831571Y37005691D01*
X117831571Y37005691D02*
X117164904Y37005691D01*
X117164904Y37005691D02*
X116783952Y36910453D01*
X116783952Y36910453D02*
X116593476Y36719977D01*
X116593476Y36719977D02*
X116498238Y36529501D01*
X116498238Y35005691D02*
X118498238Y34529501D01*
X118498238Y34529501D02*
X117069666Y34148548D01*
X117069666Y34148548D02*
X118498238Y33767596D01*
X118498238Y33767596D02*
X116498238Y33291405D01*
X117450619Y32529501D02*
X117450619Y31862834D01*
X118498238Y31577120D02*
X118498238Y32529501D01*
X118498238Y32529501D02*
X116498238Y32529501D01*
X116498238Y32529501D02*
X116498238Y31577120D01*
X118498238Y29577120D02*
X117545857Y30243787D01*
X118498238Y30719977D02*
X116498238Y30719977D01*
X116498238Y30719977D02*
X116498238Y29958072D01*
X116498238Y29958072D02*
X116593476Y29767596D01*
X116593476Y29767596D02*
X116688714Y29672358D01*
X116688714Y29672358D02*
X116879190Y29577120D01*
X116879190Y29577120D02*
X117164904Y29577120D01*
X117164904Y29577120D02*
X117355380Y29672358D01*
X117355380Y29672358D02*
X117450619Y29767596D01*
X117450619Y29767596D02*
X117545857Y29958072D01*
X117545857Y29958072D02*
X117545857Y30719977D01*
X118498238Y27196167D02*
X116498238Y27196167D01*
X118498238Y26243786D02*
X116498238Y26243786D01*
X116498238Y26243786D02*
X118498238Y25100929D01*
X118498238Y25100929D02*
X116498238Y25100929D01*
D10*
X8393734Y69625200D02*
X8250877Y69577581D01*
X8250877Y69577581D02*
X8012782Y69577581D01*
X8012782Y69577581D02*
X7917544Y69625200D01*
X7917544Y69625200D02*
X7869925Y69672820D01*
X7869925Y69672820D02*
X7822306Y69768058D01*
X7822306Y69768058D02*
X7822306Y69863296D01*
X7822306Y69863296D02*
X7869925Y69958534D01*
X7869925Y69958534D02*
X7917544Y70006153D01*
X7917544Y70006153D02*
X8012782Y70053772D01*
X8012782Y70053772D02*
X8203258Y70101391D01*
X8203258Y70101391D02*
X8298496Y70149010D01*
X8298496Y70149010D02*
X8346115Y70196629D01*
X8346115Y70196629D02*
X8393734Y70291867D01*
X8393734Y70291867D02*
X8393734Y70387105D01*
X8393734Y70387105D02*
X8346115Y70482343D01*
X8346115Y70482343D02*
X8298496Y70529962D01*
X8298496Y70529962D02*
X8203258Y70577581D01*
X8203258Y70577581D02*
X7965163Y70577581D01*
X7965163Y70577581D02*
X7822306Y70529962D01*
X7393734Y69577581D02*
X7393734Y70577581D01*
X6393735Y70529962D02*
X6488973Y70577581D01*
X6488973Y70577581D02*
X6631830Y70577581D01*
X6631830Y70577581D02*
X6774687Y70529962D01*
X6774687Y70529962D02*
X6869925Y70434724D01*
X6869925Y70434724D02*
X6917544Y70339486D01*
X6917544Y70339486D02*
X6965163Y70149010D01*
X6965163Y70149010D02*
X6965163Y70006153D01*
X6965163Y70006153D02*
X6917544Y69815677D01*
X6917544Y69815677D02*
X6869925Y69720439D01*
X6869925Y69720439D02*
X6774687Y69625200D01*
X6774687Y69625200D02*
X6631830Y69577581D01*
X6631830Y69577581D02*
X6536592Y69577581D01*
X6536592Y69577581D02*
X6393735Y69625200D01*
X6393735Y69625200D02*
X6346116Y69672820D01*
X6346116Y69672820D02*
X6346116Y70006153D01*
X6346116Y70006153D02*
X6536592Y70006153D01*
X7994925Y24827581D02*
X8471115Y24827581D01*
X8471115Y24827581D02*
X8518734Y24351391D01*
X8518734Y24351391D02*
X8471115Y24399010D01*
X8471115Y24399010D02*
X8375877Y24446629D01*
X8375877Y24446629D02*
X8137782Y24446629D01*
X8137782Y24446629D02*
X8042544Y24399010D01*
X8042544Y24399010D02*
X7994925Y24351391D01*
X7994925Y24351391D02*
X7947306Y24256153D01*
X7947306Y24256153D02*
X7947306Y24018058D01*
X7947306Y24018058D02*
X7994925Y23922820D01*
X7994925Y23922820D02*
X8042544Y23875200D01*
X8042544Y23875200D02*
X8137782Y23827581D01*
X8137782Y23827581D02*
X8375877Y23827581D01*
X8375877Y23827581D02*
X8471115Y23875200D01*
X8471115Y23875200D02*
X8518734Y23922820D01*
X7661591Y24827581D02*
X7328258Y23827581D01*
X7328258Y23827581D02*
X6994925Y24827581D01*
X77281265Y83154800D02*
X77424122Y83202420D01*
X77424122Y83202420D02*
X77662217Y83202420D01*
X77662217Y83202420D02*
X77757455Y83154800D01*
X77757455Y83154800D02*
X77805074Y83107181D01*
X77805074Y83107181D02*
X77852693Y83011943D01*
X77852693Y83011943D02*
X77852693Y82916705D01*
X77852693Y82916705D02*
X77805074Y82821467D01*
X77805074Y82821467D02*
X77757455Y82773848D01*
X77757455Y82773848D02*
X77662217Y82726229D01*
X77662217Y82726229D02*
X77471741Y82678610D01*
X77471741Y82678610D02*
X77376503Y82630991D01*
X77376503Y82630991D02*
X77328884Y82583372D01*
X77328884Y82583372D02*
X77281265Y82488134D01*
X77281265Y82488134D02*
X77281265Y82392896D01*
X77281265Y82392896D02*
X77328884Y82297658D01*
X77328884Y82297658D02*
X77376503Y82250039D01*
X77376503Y82250039D02*
X77471741Y82202420D01*
X77471741Y82202420D02*
X77709836Y82202420D01*
X77709836Y82202420D02*
X77852693Y82250039D01*
X78281265Y83202420D02*
X78281265Y82202420D01*
X79281264Y82250039D02*
X79186026Y82202420D01*
X79186026Y82202420D02*
X79043169Y82202420D01*
X79043169Y82202420D02*
X78900312Y82250039D01*
X78900312Y82250039D02*
X78805074Y82345277D01*
X78805074Y82345277D02*
X78757455Y82440515D01*
X78757455Y82440515D02*
X78709836Y82630991D01*
X78709836Y82630991D02*
X78709836Y82773848D01*
X78709836Y82773848D02*
X78757455Y82964324D01*
X78757455Y82964324D02*
X78805074Y83059562D01*
X78805074Y83059562D02*
X78900312Y83154800D01*
X78900312Y83154800D02*
X79043169Y83202420D01*
X79043169Y83202420D02*
X79138407Y83202420D01*
X79138407Y83202420D02*
X79281264Y83154800D01*
X79281264Y83154800D02*
X79328883Y83107181D01*
X79328883Y83107181D02*
X79328883Y82773848D01*
X79328883Y82773848D02*
X79138407Y82773848D01*
X10994925Y39252581D02*
X11471115Y39252581D01*
X11471115Y39252581D02*
X11471115Y40252581D01*
X10661591Y39776391D02*
X10328258Y39776391D01*
X10185401Y39252581D02*
X10661591Y39252581D01*
X10661591Y39252581D02*
X10661591Y40252581D01*
X10661591Y40252581D02*
X10185401Y40252581D01*
X9756829Y39252581D02*
X9756829Y40252581D01*
X9756829Y40252581D02*
X9518734Y40252581D01*
X9518734Y40252581D02*
X9375877Y40204962D01*
X9375877Y40204962D02*
X9280639Y40109724D01*
X9280639Y40109724D02*
X9233020Y40014486D01*
X9233020Y40014486D02*
X9185401Y39824010D01*
X9185401Y39824010D02*
X9185401Y39681153D01*
X9185401Y39681153D02*
X9233020Y39490677D01*
X9233020Y39490677D02*
X9280639Y39395439D01*
X9280639Y39395439D02*
X9375877Y39300200D01*
X9375877Y39300200D02*
X9518734Y39252581D01*
X9518734Y39252581D02*
X9756829Y39252581D01*
X8042543Y39300200D02*
X7899686Y39252581D01*
X7899686Y39252581D02*
X7661591Y39252581D01*
X7661591Y39252581D02*
X7566353Y39300200D01*
X7566353Y39300200D02*
X7518734Y39347820D01*
X7518734Y39347820D02*
X7471115Y39443058D01*
X7471115Y39443058D02*
X7471115Y39538296D01*
X7471115Y39538296D02*
X7518734Y39633534D01*
X7518734Y39633534D02*
X7566353Y39681153D01*
X7566353Y39681153D02*
X7661591Y39728772D01*
X7661591Y39728772D02*
X7852067Y39776391D01*
X7852067Y39776391D02*
X7947305Y39824010D01*
X7947305Y39824010D02*
X7994924Y39871629D01*
X7994924Y39871629D02*
X8042543Y39966867D01*
X8042543Y39966867D02*
X8042543Y40062105D01*
X8042543Y40062105D02*
X7994924Y40157343D01*
X7994924Y40157343D02*
X7947305Y40204962D01*
X7947305Y40204962D02*
X7852067Y40252581D01*
X7852067Y40252581D02*
X7613972Y40252581D01*
X7613972Y40252581D02*
X7471115Y40204962D01*
X7185400Y40252581D02*
X6613972Y40252581D01*
X6899686Y39252581D02*
X6899686Y40252581D01*
X5709210Y39252581D02*
X6042543Y39728772D01*
X6280638Y39252581D02*
X6280638Y40252581D01*
X6280638Y40252581D02*
X5899686Y40252581D01*
X5899686Y40252581D02*
X5804448Y40204962D01*
X5804448Y40204962D02*
X5756829Y40157343D01*
X5756829Y40157343D02*
X5709210Y40062105D01*
X5709210Y40062105D02*
X5709210Y39919248D01*
X5709210Y39919248D02*
X5756829Y39824010D01*
X5756829Y39824010D02*
X5804448Y39776391D01*
X5804448Y39776391D02*
X5899686Y39728772D01*
X5899686Y39728772D02*
X6280638Y39728772D01*
X5280638Y39252581D02*
X5280638Y40252581D01*
X4804448Y39252581D02*
X4804448Y40252581D01*
X4804448Y40252581D02*
X4423496Y40252581D01*
X4423496Y40252581D02*
X4328258Y40204962D01*
X4328258Y40204962D02*
X4280639Y40157343D01*
X4280639Y40157343D02*
X4233020Y40062105D01*
X4233020Y40062105D02*
X4233020Y39919248D01*
X4233020Y39919248D02*
X4280639Y39824010D01*
X4280639Y39824010D02*
X4328258Y39776391D01*
X4328258Y39776391D02*
X4423496Y39728772D01*
X4423496Y39728772D02*
X4804448Y39728772D01*
D12*
X32071993Y15206591D02*
X32405326Y15206591D01*
X32405326Y14682781D02*
X32405326Y15682781D01*
X32405326Y15682781D02*
X31929136Y15682781D01*
X31548183Y14682781D02*
X31548183Y15682781D01*
X30595803Y14682781D02*
X31071993Y14682781D01*
X31071993Y14682781D02*
X31071993Y15682781D01*
X30405326Y15682781D02*
X29833898Y15682781D01*
X30119612Y14682781D02*
X30119612Y15682781D01*
X29500564Y15206591D02*
X29167231Y15206591D01*
X29024374Y14682781D02*
X29500564Y14682781D01*
X29500564Y14682781D02*
X29500564Y15682781D01*
X29500564Y15682781D02*
X29024374Y15682781D01*
X28024374Y14682781D02*
X28357707Y15158972D01*
X28595802Y14682781D02*
X28595802Y15682781D01*
X28595802Y15682781D02*
X28214850Y15682781D01*
X28214850Y15682781D02*
X28119612Y15635162D01*
X28119612Y15635162D02*
X28071993Y15587543D01*
X28071993Y15587543D02*
X28024374Y15492305D01*
X28024374Y15492305D02*
X28024374Y15349448D01*
X28024374Y15349448D02*
X28071993Y15254210D01*
X28071993Y15254210D02*
X28119612Y15206591D01*
X28119612Y15206591D02*
X28214850Y15158972D01*
X28214850Y15158972D02*
X28595802Y15158972D01*
X26500564Y15206591D02*
X26833897Y15206591D01*
X26833897Y14682781D02*
X26833897Y15682781D01*
X26833897Y15682781D02*
X26357707Y15682781D01*
X26024373Y14968496D02*
X25548183Y14968496D01*
X26119611Y14682781D02*
X25786278Y15682781D01*
X25786278Y15682781D02*
X25452945Y14682781D01*
X25119611Y14682781D02*
X25119611Y15682781D01*
X25119611Y15682781D02*
X24548183Y14682781D01*
X24548183Y14682781D02*
X24548183Y15682781D01*
D13*
X94035652Y3102467D02*
X92511843Y3102467D01*
X93273747Y2340562D02*
X93273747Y3864372D01*
X94960652Y12652467D02*
X93436843Y12652467D01*
X94198747Y11890562D02*
X94198747Y13414372D01*
D10*
X12569925Y55177581D02*
X13046115Y55177581D01*
X13046115Y55177581D02*
X13046115Y56177581D01*
X12236591Y55701391D02*
X11903258Y55701391D01*
X11760401Y55177581D02*
X12236591Y55177581D01*
X12236591Y55177581D02*
X12236591Y56177581D01*
X12236591Y56177581D02*
X11760401Y56177581D01*
X10998496Y55701391D02*
X11331829Y55701391D01*
X11331829Y55177581D02*
X11331829Y56177581D01*
X11331829Y56177581D02*
X10855639Y56177581D01*
X10617543Y56177581D02*
X10046115Y56177581D01*
X10331829Y55177581D02*
X10331829Y56177581D01*
X23968734Y54563296D02*
X23492544Y54563296D01*
X24063972Y54277581D02*
X23730639Y55277581D01*
X23730639Y55277581D02*
X23397306Y54277581D01*
X23111591Y55182343D02*
X23063972Y55229962D01*
X23063972Y55229962D02*
X22968734Y55277581D01*
X22968734Y55277581D02*
X22730639Y55277581D01*
X22730639Y55277581D02*
X22635401Y55229962D01*
X22635401Y55229962D02*
X22587782Y55182343D01*
X22587782Y55182343D02*
X22540163Y55087105D01*
X22540163Y55087105D02*
X22540163Y54991867D01*
X22540163Y54991867D02*
X22587782Y54849010D01*
X22587782Y54849010D02*
X23159210Y54277581D01*
X23159210Y54277581D02*
X22540163Y54277581D01*
D12*
X101895526Y80866581D02*
X101895526Y81866581D01*
X101895526Y81866581D02*
X101514574Y81866581D01*
X101514574Y81866581D02*
X101419336Y81818962D01*
X101419336Y81818962D02*
X101371717Y81771343D01*
X101371717Y81771343D02*
X101324098Y81676105D01*
X101324098Y81676105D02*
X101324098Y81533248D01*
X101324098Y81533248D02*
X101371717Y81438010D01*
X101371717Y81438010D02*
X101419336Y81390391D01*
X101419336Y81390391D02*
X101514574Y81342772D01*
X101514574Y81342772D02*
X101895526Y81342772D01*
X100705050Y81866581D02*
X100514574Y81866581D01*
X100514574Y81866581D02*
X100419336Y81818962D01*
X100419336Y81818962D02*
X100324098Y81723724D01*
X100324098Y81723724D02*
X100276479Y81533248D01*
X100276479Y81533248D02*
X100276479Y81199915D01*
X100276479Y81199915D02*
X100324098Y81009439D01*
X100324098Y81009439D02*
X100419336Y80914200D01*
X100419336Y80914200D02*
X100514574Y80866581D01*
X100514574Y80866581D02*
X100705050Y80866581D01*
X100705050Y80866581D02*
X100800288Y80914200D01*
X100800288Y80914200D02*
X100895526Y81009439D01*
X100895526Y81009439D02*
X100943145Y81199915D01*
X100943145Y81199915D02*
X100943145Y81533248D01*
X100943145Y81533248D02*
X100895526Y81723724D01*
X100895526Y81723724D02*
X100800288Y81818962D01*
X100800288Y81818962D02*
X100705050Y81866581D01*
X99943145Y81866581D02*
X99705050Y80866581D01*
X99705050Y80866581D02*
X99514574Y81580867D01*
X99514574Y81580867D02*
X99324098Y80866581D01*
X99324098Y80866581D02*
X99086003Y81866581D01*
X98705050Y81390391D02*
X98371717Y81390391D01*
X98228860Y80866581D02*
X98705050Y80866581D01*
X98705050Y80866581D02*
X98705050Y81866581D01*
X98705050Y81866581D02*
X98228860Y81866581D01*
X97228860Y80866581D02*
X97562193Y81342772D01*
X97800288Y80866581D02*
X97800288Y81866581D01*
X97800288Y81866581D02*
X97419336Y81866581D01*
X97419336Y81866581D02*
X97324098Y81818962D01*
X97324098Y81818962D02*
X97276479Y81771343D01*
X97276479Y81771343D02*
X97228860Y81676105D01*
X97228860Y81676105D02*
X97228860Y81533248D01*
X97228860Y81533248D02*
X97276479Y81438010D01*
X97276479Y81438010D02*
X97324098Y81390391D01*
X97324098Y81390391D02*
X97419336Y81342772D01*
X97419336Y81342772D02*
X97800288Y81342772D01*
X95847907Y81866581D02*
X95657431Y81866581D01*
X95657431Y81866581D02*
X95562193Y81818962D01*
X95562193Y81818962D02*
X95466955Y81723724D01*
X95466955Y81723724D02*
X95419336Y81533248D01*
X95419336Y81533248D02*
X95419336Y81199915D01*
X95419336Y81199915D02*
X95466955Y81009439D01*
X95466955Y81009439D02*
X95562193Y80914200D01*
X95562193Y80914200D02*
X95657431Y80866581D01*
X95657431Y80866581D02*
X95847907Y80866581D01*
X95847907Y80866581D02*
X95943145Y80914200D01*
X95943145Y80914200D02*
X96038383Y81009439D01*
X96038383Y81009439D02*
X96086002Y81199915D01*
X96086002Y81199915D02*
X96086002Y81533248D01*
X96086002Y81533248D02*
X96038383Y81723724D01*
X96038383Y81723724D02*
X95943145Y81818962D01*
X95943145Y81818962D02*
X95847907Y81866581D01*
X94990764Y81866581D02*
X94990764Y81057058D01*
X94990764Y81057058D02*
X94943145Y80961820D01*
X94943145Y80961820D02*
X94895526Y80914200D01*
X94895526Y80914200D02*
X94800288Y80866581D01*
X94800288Y80866581D02*
X94609812Y80866581D01*
X94609812Y80866581D02*
X94514574Y80914200D01*
X94514574Y80914200D02*
X94466955Y80961820D01*
X94466955Y80961820D02*
X94419336Y81057058D01*
X94419336Y81057058D02*
X94419336Y81866581D01*
X94086002Y81866581D02*
X93514574Y81866581D01*
X93800288Y80866581D02*
X93800288Y81866581D01*
D10*
X7874687Y19077581D02*
X8208020Y19553772D01*
X8446115Y19077581D02*
X8446115Y20077581D01*
X8446115Y20077581D02*
X8065163Y20077581D01*
X8065163Y20077581D02*
X7969925Y20029962D01*
X7969925Y20029962D02*
X7922306Y19982343D01*
X7922306Y19982343D02*
X7874687Y19887105D01*
X7874687Y19887105D02*
X7874687Y19744248D01*
X7874687Y19744248D02*
X7922306Y19649010D01*
X7922306Y19649010D02*
X7969925Y19601391D01*
X7969925Y19601391D02*
X8065163Y19553772D01*
X8065163Y19553772D02*
X8446115Y19553772D01*
X7541353Y20077581D02*
X6874687Y19077581D01*
X6874687Y20077581D02*
X7541353Y19077581D01*
X95971419Y84852697D02*
X95971419Y84662221D01*
X95971419Y84662221D02*
X95923800Y84566983D01*
X95923800Y84566983D02*
X95876180Y84519364D01*
X95876180Y84519364D02*
X95733323Y84424126D01*
X95733323Y84424126D02*
X95542847Y84376507D01*
X95542847Y84376507D02*
X95161895Y84376507D01*
X95161895Y84376507D02*
X95066657Y84424126D01*
X95066657Y84424126D02*
X95019038Y84471745D01*
X95019038Y84471745D02*
X94971419Y84566983D01*
X94971419Y84566983D02*
X94971419Y84757459D01*
X94971419Y84757459D02*
X95019038Y84852697D01*
X95019038Y84852697D02*
X95066657Y84900316D01*
X95066657Y84900316D02*
X95161895Y84947935D01*
X95161895Y84947935D02*
X95399990Y84947935D01*
X95399990Y84947935D02*
X95495228Y84900316D01*
X95495228Y84900316D02*
X95542847Y84852697D01*
X95542847Y84852697D02*
X95590466Y84757459D01*
X95590466Y84757459D02*
X95590466Y84566983D01*
X95590466Y84566983D02*
X95542847Y84471745D01*
X95542847Y84471745D02*
X95495228Y84424126D01*
X95495228Y84424126D02*
X95399990Y84376507D01*
X94971419Y84090792D02*
X95971419Y83757459D01*
X95971419Y83757459D02*
X94971419Y83424126D01*
D13*
X58910652Y2277467D02*
X57386843Y2277467D01*
X58148747Y1515562D02*
X58148747Y3039372D01*
D10*
X8097306Y73179962D02*
X8192544Y73227581D01*
X8192544Y73227581D02*
X8335401Y73227581D01*
X8335401Y73227581D02*
X8478258Y73179962D01*
X8478258Y73179962D02*
X8573496Y73084724D01*
X8573496Y73084724D02*
X8621115Y72989486D01*
X8621115Y72989486D02*
X8668734Y72799010D01*
X8668734Y72799010D02*
X8668734Y72656153D01*
X8668734Y72656153D02*
X8621115Y72465677D01*
X8621115Y72465677D02*
X8573496Y72370439D01*
X8573496Y72370439D02*
X8478258Y72275200D01*
X8478258Y72275200D02*
X8335401Y72227581D01*
X8335401Y72227581D02*
X8240163Y72227581D01*
X8240163Y72227581D02*
X8097306Y72275200D01*
X8097306Y72275200D02*
X8049687Y72322820D01*
X8049687Y72322820D02*
X8049687Y72656153D01*
X8049687Y72656153D02*
X8240163Y72656153D01*
X7621115Y72227581D02*
X7621115Y73227581D01*
X7621115Y73227581D02*
X7049687Y72227581D01*
X7049687Y72227581D02*
X7049687Y73227581D01*
X6573496Y72227581D02*
X6573496Y73227581D01*
X6573496Y73227581D02*
X6335401Y73227581D01*
X6335401Y73227581D02*
X6192544Y73179962D01*
X6192544Y73179962D02*
X6097306Y73084724D01*
X6097306Y73084724D02*
X6049687Y72989486D01*
X6049687Y72989486D02*
X6002068Y72799010D01*
X6002068Y72799010D02*
X6002068Y72656153D01*
X6002068Y72656153D02*
X6049687Y72465677D01*
X6049687Y72465677D02*
X6097306Y72370439D01*
X6097306Y72370439D02*
X6192544Y72275200D01*
X6192544Y72275200D02*
X6335401Y72227581D01*
X6335401Y72227581D02*
X6573496Y72227581D01*
X8216353Y67952581D02*
X7597306Y67952581D01*
X7597306Y67952581D02*
X7930639Y67571629D01*
X7930639Y67571629D02*
X7787782Y67571629D01*
X7787782Y67571629D02*
X7692544Y67524010D01*
X7692544Y67524010D02*
X7644925Y67476391D01*
X7644925Y67476391D02*
X7597306Y67381153D01*
X7597306Y67381153D02*
X7597306Y67143058D01*
X7597306Y67143058D02*
X7644925Y67047820D01*
X7644925Y67047820D02*
X7692544Y67000200D01*
X7692544Y67000200D02*
X7787782Y66952581D01*
X7787782Y66952581D02*
X8073496Y66952581D01*
X8073496Y66952581D02*
X8168734Y67000200D01*
X8168734Y67000200D02*
X8216353Y67047820D01*
X7311591Y67952581D02*
X6978258Y66952581D01*
X6978258Y66952581D02*
X6644925Y67952581D01*
X8422306Y44629962D02*
X8517544Y44677581D01*
X8517544Y44677581D02*
X8660401Y44677581D01*
X8660401Y44677581D02*
X8803258Y44629962D01*
X8803258Y44629962D02*
X8898496Y44534724D01*
X8898496Y44534724D02*
X8946115Y44439486D01*
X8946115Y44439486D02*
X8993734Y44249010D01*
X8993734Y44249010D02*
X8993734Y44106153D01*
X8993734Y44106153D02*
X8946115Y43915677D01*
X8946115Y43915677D02*
X8898496Y43820439D01*
X8898496Y43820439D02*
X8803258Y43725200D01*
X8803258Y43725200D02*
X8660401Y43677581D01*
X8660401Y43677581D02*
X8565163Y43677581D01*
X8565163Y43677581D02*
X8422306Y43725200D01*
X8422306Y43725200D02*
X8374687Y43772820D01*
X8374687Y43772820D02*
X8374687Y44106153D01*
X8374687Y44106153D02*
X8565163Y44106153D01*
X7946115Y43677581D02*
X7946115Y44677581D01*
X7946115Y44677581D02*
X7374687Y43677581D01*
X7374687Y43677581D02*
X7374687Y44677581D01*
X6898496Y43677581D02*
X6898496Y44677581D01*
X6898496Y44677581D02*
X6660401Y44677581D01*
X6660401Y44677581D02*
X6517544Y44629962D01*
X6517544Y44629962D02*
X6422306Y44534724D01*
X6422306Y44534724D02*
X6374687Y44439486D01*
X6374687Y44439486D02*
X6327068Y44249010D01*
X6327068Y44249010D02*
X6327068Y44106153D01*
X6327068Y44106153D02*
X6374687Y43915677D01*
X6374687Y43915677D02*
X6422306Y43820439D01*
X6422306Y43820439D02*
X6517544Y43725200D01*
X6517544Y43725200D02*
X6660401Y43677581D01*
X6660401Y43677581D02*
X6898496Y43677581D01*
D13*
X82235652Y3102467D02*
X80711843Y3102467D01*
X81473747Y2340562D02*
X81473747Y3864372D01*
D10*
X69692419Y81285716D02*
X68692419Y81285716D01*
X68692419Y80619050D02*
X68692419Y80428574D01*
X68692419Y80428574D02*
X68740038Y80333336D01*
X68740038Y80333336D02*
X68835276Y80238098D01*
X68835276Y80238098D02*
X69025752Y80190479D01*
X69025752Y80190479D02*
X69359085Y80190479D01*
X69359085Y80190479D02*
X69549561Y80238098D01*
X69549561Y80238098D02*
X69644800Y80333336D01*
X69644800Y80333336D02*
X69692419Y80428574D01*
X69692419Y80428574D02*
X69692419Y80619050D01*
X69692419Y80619050D02*
X69644800Y80714288D01*
X69644800Y80714288D02*
X69549561Y80809526D01*
X69549561Y80809526D02*
X69359085Y80857145D01*
X69359085Y80857145D02*
X69025752Y80857145D01*
X69025752Y80857145D02*
X68835276Y80809526D01*
X68835276Y80809526D02*
X68740038Y80714288D01*
X68740038Y80714288D02*
X68692419Y80619050D01*
X73820038Y81422307D02*
X73772419Y81517545D01*
X73772419Y81517545D02*
X73772419Y81660402D01*
X73772419Y81660402D02*
X73820038Y81803259D01*
X73820038Y81803259D02*
X73915276Y81898497D01*
X73915276Y81898497D02*
X74010514Y81946116D01*
X74010514Y81946116D02*
X74200990Y81993735D01*
X74200990Y81993735D02*
X74343847Y81993735D01*
X74343847Y81993735D02*
X74534323Y81946116D01*
X74534323Y81946116D02*
X74629561Y81898497D01*
X74629561Y81898497D02*
X74724800Y81803259D01*
X74724800Y81803259D02*
X74772419Y81660402D01*
X74772419Y81660402D02*
X74772419Y81565164D01*
X74772419Y81565164D02*
X74724800Y81422307D01*
X74724800Y81422307D02*
X74677180Y81374688D01*
X74677180Y81374688D02*
X74343847Y81374688D01*
X74343847Y81374688D02*
X74343847Y81565164D01*
X74772419Y80946116D02*
X73772419Y80946116D01*
X73772419Y80946116D02*
X74772419Y80374688D01*
X74772419Y80374688D02*
X73772419Y80374688D01*
X74772419Y79898497D02*
X73772419Y79898497D01*
X73772419Y79898497D02*
X73772419Y79660402D01*
X73772419Y79660402D02*
X73820038Y79517545D01*
X73820038Y79517545D02*
X73915276Y79422307D01*
X73915276Y79422307D02*
X74010514Y79374688D01*
X74010514Y79374688D02*
X74200990Y79327069D01*
X74200990Y79327069D02*
X74343847Y79327069D01*
X74343847Y79327069D02*
X74534323Y79374688D01*
X74534323Y79374688D02*
X74629561Y79422307D01*
X74629561Y79422307D02*
X74724800Y79517545D01*
X74724800Y79517545D02*
X74772419Y79660402D01*
X74772419Y79660402D02*
X74772419Y79898497D01*
X100020019Y84373326D02*
X100020019Y84849516D01*
X100020019Y84849516D02*
X100496209Y84897135D01*
X100496209Y84897135D02*
X100448590Y84849516D01*
X100448590Y84849516D02*
X100400971Y84754278D01*
X100400971Y84754278D02*
X100400971Y84516183D01*
X100400971Y84516183D02*
X100448590Y84420945D01*
X100448590Y84420945D02*
X100496209Y84373326D01*
X100496209Y84373326D02*
X100591447Y84325707D01*
X100591447Y84325707D02*
X100829542Y84325707D01*
X100829542Y84325707D02*
X100924780Y84373326D01*
X100924780Y84373326D02*
X100972400Y84420945D01*
X100972400Y84420945D02*
X101020019Y84516183D01*
X101020019Y84516183D02*
X101020019Y84754278D01*
X101020019Y84754278D02*
X100972400Y84849516D01*
X100972400Y84849516D02*
X100924780Y84897135D01*
X100020019Y84039992D02*
X101020019Y83706659D01*
X101020019Y83706659D02*
X100020019Y83373326D01*
X30346115Y10502581D02*
X30346115Y11502581D01*
X30346115Y11502581D02*
X29965163Y11502581D01*
X29965163Y11502581D02*
X29869925Y11454962D01*
X29869925Y11454962D02*
X29822306Y11407343D01*
X29822306Y11407343D02*
X29774687Y11312105D01*
X29774687Y11312105D02*
X29774687Y11169248D01*
X29774687Y11169248D02*
X29822306Y11074010D01*
X29822306Y11074010D02*
X29869925Y11026391D01*
X29869925Y11026391D02*
X29965163Y10978772D01*
X29965163Y10978772D02*
X30346115Y10978772D01*
X29441353Y11502581D02*
X29203258Y10502581D01*
X29203258Y10502581D02*
X29012782Y11216867D01*
X29012782Y11216867D02*
X28822306Y10502581D01*
X28822306Y10502581D02*
X28584211Y11502581D01*
X28203258Y10502581D02*
X28203258Y11502581D01*
X28203258Y11502581D02*
X27869925Y10788296D01*
X27869925Y10788296D02*
X27536592Y11502581D01*
X27536592Y11502581D02*
X27536592Y10502581D01*
X29722306Y3554962D02*
X29817544Y3602581D01*
X29817544Y3602581D02*
X29960401Y3602581D01*
X29960401Y3602581D02*
X30103258Y3554962D01*
X30103258Y3554962D02*
X30198496Y3459724D01*
X30198496Y3459724D02*
X30246115Y3364486D01*
X30246115Y3364486D02*
X30293734Y3174010D01*
X30293734Y3174010D02*
X30293734Y3031153D01*
X30293734Y3031153D02*
X30246115Y2840677D01*
X30246115Y2840677D02*
X30198496Y2745439D01*
X30198496Y2745439D02*
X30103258Y2650200D01*
X30103258Y2650200D02*
X29960401Y2602581D01*
X29960401Y2602581D02*
X29865163Y2602581D01*
X29865163Y2602581D02*
X29722306Y2650200D01*
X29722306Y2650200D02*
X29674687Y2697820D01*
X29674687Y2697820D02*
X29674687Y3031153D01*
X29674687Y3031153D02*
X29865163Y3031153D01*
X29246115Y2602581D02*
X29246115Y3602581D01*
X29246115Y3602581D02*
X28674687Y2602581D01*
X28674687Y2602581D02*
X28674687Y3602581D01*
X28198496Y2602581D02*
X28198496Y3602581D01*
X28198496Y3602581D02*
X27960401Y3602581D01*
X27960401Y3602581D02*
X27817544Y3554962D01*
X27817544Y3554962D02*
X27722306Y3459724D01*
X27722306Y3459724D02*
X27674687Y3364486D01*
X27674687Y3364486D02*
X27627068Y3174010D01*
X27627068Y3174010D02*
X27627068Y3031153D01*
X27627068Y3031153D02*
X27674687Y2840677D01*
X27674687Y2840677D02*
X27722306Y2745439D01*
X27722306Y2745439D02*
X27817544Y2650200D01*
X27817544Y2650200D02*
X27960401Y2602581D01*
X27960401Y2602581D02*
X28198496Y2602581D01*
X47563972Y6202581D02*
X47230639Y5202581D01*
X47230639Y5202581D02*
X46897306Y6202581D01*
X46563972Y5583534D02*
X45802068Y5583534D01*
X46183020Y5202581D02*
X46183020Y5964486D01*
X23993734Y57388296D02*
X23517544Y57388296D01*
X24088972Y57102581D02*
X23755639Y58102581D01*
X23755639Y58102581D02*
X23422306Y57102581D01*
X22565163Y57102581D02*
X23136591Y57102581D01*
X22850877Y57102581D02*
X22850877Y58102581D01*
X22850877Y58102581D02*
X22946115Y57959724D01*
X22946115Y57959724D02*
X23041353Y57864486D01*
X23041353Y57864486D02*
X23136591Y57816867D01*
D14*
X109907400Y30065979D02*
X109907400Y27780264D01*
D10*
X77805074Y84872420D02*
X77328884Y84872420D01*
X77328884Y84872420D02*
X77281265Y85348610D01*
X77281265Y85348610D02*
X77328884Y85300991D01*
X77328884Y85300991D02*
X77424122Y85253372D01*
X77424122Y85253372D02*
X77662217Y85253372D01*
X77662217Y85253372D02*
X77757455Y85300991D01*
X77757455Y85300991D02*
X77805074Y85348610D01*
X77805074Y85348610D02*
X77852693Y85443848D01*
X77852693Y85443848D02*
X77852693Y85681943D01*
X77852693Y85681943D02*
X77805074Y85777181D01*
X77805074Y85777181D02*
X77757455Y85824800D01*
X77757455Y85824800D02*
X77662217Y85872420D01*
X77662217Y85872420D02*
X77424122Y85872420D01*
X77424122Y85872420D02*
X77328884Y85824800D01*
X77328884Y85824800D02*
X77281265Y85777181D01*
X78138408Y84872420D02*
X78471741Y85872420D01*
X78471741Y85872420D02*
X78805074Y84872420D01*
X14312782Y79201391D02*
X14646115Y79201391D01*
X14646115Y78677581D02*
X14646115Y79677581D01*
X14646115Y79677581D02*
X14169925Y79677581D01*
X13836591Y78963296D02*
X13360401Y78963296D01*
X13931829Y78677581D02*
X13598496Y79677581D01*
X13598496Y79677581D02*
X13265163Y78677581D01*
X12931829Y78677581D02*
X12931829Y79677581D01*
X12931829Y79677581D02*
X12360401Y78677581D01*
X12360401Y78677581D02*
X12360401Y79677581D01*
X10550877Y78772820D02*
X10598496Y78725200D01*
X10598496Y78725200D02*
X10741353Y78677581D01*
X10741353Y78677581D02*
X10836591Y78677581D01*
X10836591Y78677581D02*
X10979448Y78725200D01*
X10979448Y78725200D02*
X11074686Y78820439D01*
X11074686Y78820439D02*
X11122305Y78915677D01*
X11122305Y78915677D02*
X11169924Y79106153D01*
X11169924Y79106153D02*
X11169924Y79249010D01*
X11169924Y79249010D02*
X11122305Y79439486D01*
X11122305Y79439486D02*
X11074686Y79534724D01*
X11074686Y79534724D02*
X10979448Y79629962D01*
X10979448Y79629962D02*
X10836591Y79677581D01*
X10836591Y79677581D02*
X10741353Y79677581D01*
X10741353Y79677581D02*
X10598496Y79629962D01*
X10598496Y79629962D02*
X10550877Y79582343D01*
X9931829Y79677581D02*
X9741353Y79677581D01*
X9741353Y79677581D02*
X9646115Y79629962D01*
X9646115Y79629962D02*
X9550877Y79534724D01*
X9550877Y79534724D02*
X9503258Y79344248D01*
X9503258Y79344248D02*
X9503258Y79010915D01*
X9503258Y79010915D02*
X9550877Y78820439D01*
X9550877Y78820439D02*
X9646115Y78725200D01*
X9646115Y78725200D02*
X9741353Y78677581D01*
X9741353Y78677581D02*
X9931829Y78677581D01*
X9931829Y78677581D02*
X10027067Y78725200D01*
X10027067Y78725200D02*
X10122305Y78820439D01*
X10122305Y78820439D02*
X10169924Y79010915D01*
X10169924Y79010915D02*
X10169924Y79344248D01*
X10169924Y79344248D02*
X10122305Y79534724D01*
X10122305Y79534724D02*
X10027067Y79629962D01*
X10027067Y79629962D02*
X9931829Y79677581D01*
X9074686Y78677581D02*
X9074686Y79677581D01*
X9074686Y79677581D02*
X8503258Y78677581D01*
X8503258Y78677581D02*
X8503258Y79677581D01*
X8169924Y79677581D02*
X7598496Y79677581D01*
X7884210Y78677581D02*
X7884210Y79677581D01*
X6693734Y78677581D02*
X7027067Y79153772D01*
X7265162Y78677581D02*
X7265162Y79677581D01*
X7265162Y79677581D02*
X6884210Y79677581D01*
X6884210Y79677581D02*
X6788972Y79629962D01*
X6788972Y79629962D02*
X6741353Y79582343D01*
X6741353Y79582343D02*
X6693734Y79487105D01*
X6693734Y79487105D02*
X6693734Y79344248D01*
X6693734Y79344248D02*
X6741353Y79249010D01*
X6741353Y79249010D02*
X6788972Y79201391D01*
X6788972Y79201391D02*
X6884210Y79153772D01*
X6884210Y79153772D02*
X7265162Y79153772D01*
X6074686Y79677581D02*
X5884210Y79677581D01*
X5884210Y79677581D02*
X5788972Y79629962D01*
X5788972Y79629962D02*
X5693734Y79534724D01*
X5693734Y79534724D02*
X5646115Y79344248D01*
X5646115Y79344248D02*
X5646115Y79010915D01*
X5646115Y79010915D02*
X5693734Y78820439D01*
X5693734Y78820439D02*
X5788972Y78725200D01*
X5788972Y78725200D02*
X5884210Y78677581D01*
X5884210Y78677581D02*
X6074686Y78677581D01*
X6074686Y78677581D02*
X6169924Y78725200D01*
X6169924Y78725200D02*
X6265162Y78820439D01*
X6265162Y78820439D02*
X6312781Y79010915D01*
X6312781Y79010915D02*
X6312781Y79344248D01*
X6312781Y79344248D02*
X6265162Y79534724D01*
X6265162Y79534724D02*
X6169924Y79629962D01*
X6169924Y79629962D02*
X6074686Y79677581D01*
X4741353Y78677581D02*
X5217543Y78677581D01*
X5217543Y78677581D02*
X5217543Y79677581D01*
X3646114Y78677581D02*
X3646114Y79677581D01*
X3646114Y79677581D02*
X3265162Y79677581D01*
X3265162Y79677581D02*
X3169924Y79629962D01*
X3169924Y79629962D02*
X3122305Y79582343D01*
X3122305Y79582343D02*
X3074686Y79487105D01*
X3074686Y79487105D02*
X3074686Y79344248D01*
X3074686Y79344248D02*
X3122305Y79249010D01*
X3122305Y79249010D02*
X3169924Y79201391D01*
X3169924Y79201391D02*
X3265162Y79153772D01*
X3265162Y79153772D02*
X3646114Y79153772D01*
X2455638Y79677581D02*
X2265162Y79677581D01*
X2265162Y79677581D02*
X2169924Y79629962D01*
X2169924Y79629962D02*
X2074686Y79534724D01*
X2074686Y79534724D02*
X2027067Y79344248D01*
X2027067Y79344248D02*
X2027067Y79010915D01*
X2027067Y79010915D02*
X2074686Y78820439D01*
X2074686Y78820439D02*
X2169924Y78725200D01*
X2169924Y78725200D02*
X2265162Y78677581D01*
X2265162Y78677581D02*
X2455638Y78677581D01*
X2455638Y78677581D02*
X2550876Y78725200D01*
X2550876Y78725200D02*
X2646114Y78820439D01*
X2646114Y78820439D02*
X2693733Y79010915D01*
X2693733Y79010915D02*
X2693733Y79344248D01*
X2693733Y79344248D02*
X2646114Y79534724D01*
X2646114Y79534724D02*
X2550876Y79629962D01*
X2550876Y79629962D02*
X2455638Y79677581D01*
X1741352Y79677581D02*
X1169924Y79677581D01*
X1455638Y78677581D02*
X1455638Y79677581D01*
D13*
X77104852Y3254867D02*
X75581043Y3254867D01*
D10*
X7707706Y36435762D02*
X7802944Y36483381D01*
X7802944Y36483381D02*
X7945801Y36483381D01*
X7945801Y36483381D02*
X8088658Y36435762D01*
X8088658Y36435762D02*
X8183896Y36340524D01*
X8183896Y36340524D02*
X8231515Y36245286D01*
X8231515Y36245286D02*
X8279134Y36054810D01*
X8279134Y36054810D02*
X8279134Y35911953D01*
X8279134Y35911953D02*
X8231515Y35721477D01*
X8231515Y35721477D02*
X8183896Y35626239D01*
X8183896Y35626239D02*
X8088658Y35531000D01*
X8088658Y35531000D02*
X7945801Y35483381D01*
X7945801Y35483381D02*
X7850563Y35483381D01*
X7850563Y35483381D02*
X7707706Y35531000D01*
X7707706Y35531000D02*
X7660087Y35578620D01*
X7660087Y35578620D02*
X7660087Y35911953D01*
X7660087Y35911953D02*
X7850563Y35911953D01*
X7231515Y35483381D02*
X7231515Y36483381D01*
X7231515Y36483381D02*
X6660087Y35483381D01*
X6660087Y35483381D02*
X6660087Y36483381D01*
X6183896Y35483381D02*
X6183896Y36483381D01*
X6183896Y36483381D02*
X5945801Y36483381D01*
X5945801Y36483381D02*
X5802944Y36435762D01*
X5802944Y36435762D02*
X5707706Y36340524D01*
X5707706Y36340524D02*
X5660087Y36245286D01*
X5660087Y36245286D02*
X5612468Y36054810D01*
X5612468Y36054810D02*
X5612468Y35911953D01*
X5612468Y35911953D02*
X5660087Y35721477D01*
X5660087Y35721477D02*
X5707706Y35626239D01*
X5707706Y35626239D02*
X5802944Y35531000D01*
X5802944Y35531000D02*
X5945801Y35483381D01*
X5945801Y35483381D02*
X6183896Y35483381D01*
D12*
X47652945Y14553020D02*
X47706517Y14505400D01*
X47706517Y14505400D02*
X47855326Y14457781D01*
X47855326Y14457781D02*
X47950564Y14457781D01*
X47950564Y14457781D02*
X48087469Y14505400D01*
X48087469Y14505400D02*
X48170802Y14600639D01*
X48170802Y14600639D02*
X48206517Y14695877D01*
X48206517Y14695877D02*
X48230326Y14886353D01*
X48230326Y14886353D02*
X48212469Y15029210D01*
X48212469Y15029210D02*
X48141041Y15219686D01*
X48141041Y15219686D02*
X48081517Y15314924D01*
X48081517Y15314924D02*
X47974374Y15410162D01*
X47974374Y15410162D02*
X47825564Y15457781D01*
X47825564Y15457781D02*
X47730326Y15457781D01*
X47730326Y15457781D02*
X47593422Y15410162D01*
X47593422Y15410162D02*
X47551755Y15362543D01*
X46920802Y15457781D02*
X46730326Y15457781D01*
X46730326Y15457781D02*
X46641041Y15410162D01*
X46641041Y15410162D02*
X46557707Y15314924D01*
X46557707Y15314924D02*
X46533898Y15124448D01*
X46533898Y15124448D02*
X46575564Y14791115D01*
X46575564Y14791115D02*
X46646993Y14600639D01*
X46646993Y14600639D02*
X46754136Y14505400D01*
X46754136Y14505400D02*
X46855326Y14457781D01*
X46855326Y14457781D02*
X47045802Y14457781D01*
X47045802Y14457781D02*
X47135088Y14505400D01*
X47135088Y14505400D02*
X47218422Y14600639D01*
X47218422Y14600639D02*
X47242231Y14791115D01*
X47242231Y14791115D02*
X47200564Y15124448D01*
X47200564Y15124448D02*
X47129136Y15314924D01*
X47129136Y15314924D02*
X47021993Y15410162D01*
X47021993Y15410162D02*
X46920802Y15457781D01*
X45873183Y15457781D02*
X45682707Y15457781D01*
X45682707Y15457781D02*
X45593422Y15410162D01*
X45593422Y15410162D02*
X45510088Y15314924D01*
X45510088Y15314924D02*
X45486279Y15124448D01*
X45486279Y15124448D02*
X45527945Y14791115D01*
X45527945Y14791115D02*
X45599374Y14600639D01*
X45599374Y14600639D02*
X45706517Y14505400D01*
X45706517Y14505400D02*
X45807707Y14457781D01*
X45807707Y14457781D02*
X45998183Y14457781D01*
X45998183Y14457781D02*
X46087469Y14505400D01*
X46087469Y14505400D02*
X46170803Y14600639D01*
X46170803Y14600639D02*
X46194612Y14791115D01*
X46194612Y14791115D02*
X46152945Y15124448D01*
X46152945Y15124448D02*
X46081517Y15314924D01*
X46081517Y15314924D02*
X45974374Y15410162D01*
X45974374Y15410162D02*
X45873183Y15457781D01*
X44664850Y14457781D02*
X45141041Y14457781D01*
X45141041Y14457781D02*
X45016041Y15457781D01*
X44331517Y14457781D02*
X44206517Y15457781D01*
X43855327Y14457781D02*
X43730327Y15457781D01*
X43730327Y15457781D02*
X43283898Y14457781D01*
X43283898Y14457781D02*
X43158898Y15457781D01*
X42164851Y15410162D02*
X42254136Y15457781D01*
X42254136Y15457781D02*
X42396993Y15457781D01*
X42396993Y15457781D02*
X42545803Y15410162D01*
X42545803Y15410162D02*
X42652946Y15314924D01*
X42652946Y15314924D02*
X42712470Y15219686D01*
X42712470Y15219686D02*
X42783898Y15029210D01*
X42783898Y15029210D02*
X42801755Y14886353D01*
X42801755Y14886353D02*
X42777946Y14695877D01*
X42777946Y14695877D02*
X42742231Y14600639D01*
X42742231Y14600639D02*
X42658898Y14505400D01*
X42658898Y14505400D02*
X42521993Y14457781D01*
X42521993Y14457781D02*
X42426755Y14457781D01*
X42426755Y14457781D02*
X42277946Y14505400D01*
X42277946Y14505400D02*
X42224374Y14553020D01*
X42224374Y14553020D02*
X42182708Y14886353D01*
X42182708Y14886353D02*
X42373184Y14886353D01*
X40646993Y14981591D02*
X40980326Y14981591D01*
X41045803Y14457781D02*
X40920803Y15457781D01*
X40920803Y15457781D02*
X40444612Y15457781D01*
X40200564Y14743496D02*
X39724374Y14743496D01*
X40331517Y14457781D02*
X39873183Y15457781D01*
X39873183Y15457781D02*
X39664850Y14457781D01*
X39331517Y14457781D02*
X39206517Y15457781D01*
X39206517Y15457781D02*
X38760088Y14457781D01*
X38760088Y14457781D02*
X38635088Y15457781D01*
D10*
X8438115Y48655981D02*
X8438115Y49655981D01*
X8438115Y49655981D02*
X8200020Y49655981D01*
X8200020Y49655981D02*
X8057163Y49608362D01*
X8057163Y49608362D02*
X7961925Y49513124D01*
X7961925Y49513124D02*
X7914306Y49417886D01*
X7914306Y49417886D02*
X7866687Y49227410D01*
X7866687Y49227410D02*
X7866687Y49084553D01*
X7866687Y49084553D02*
X7914306Y48894077D01*
X7914306Y48894077D02*
X7961925Y48798839D01*
X7961925Y48798839D02*
X8057163Y48703600D01*
X8057163Y48703600D02*
X8200020Y48655981D01*
X8200020Y48655981D02*
X8438115Y48655981D01*
X7580972Y49655981D02*
X7009544Y49655981D01*
X7295258Y48655981D02*
X7295258Y49655981D01*
X8097306Y16979962D02*
X8192544Y17027581D01*
X8192544Y17027581D02*
X8335401Y17027581D01*
X8335401Y17027581D02*
X8478258Y16979962D01*
X8478258Y16979962D02*
X8573496Y16884724D01*
X8573496Y16884724D02*
X8621115Y16789486D01*
X8621115Y16789486D02*
X8668734Y16599010D01*
X8668734Y16599010D02*
X8668734Y16456153D01*
X8668734Y16456153D02*
X8621115Y16265677D01*
X8621115Y16265677D02*
X8573496Y16170439D01*
X8573496Y16170439D02*
X8478258Y16075200D01*
X8478258Y16075200D02*
X8335401Y16027581D01*
X8335401Y16027581D02*
X8240163Y16027581D01*
X8240163Y16027581D02*
X8097306Y16075200D01*
X8097306Y16075200D02*
X8049687Y16122820D01*
X8049687Y16122820D02*
X8049687Y16456153D01*
X8049687Y16456153D02*
X8240163Y16456153D01*
X7621115Y16027581D02*
X7621115Y17027581D01*
X7621115Y17027581D02*
X7049687Y16027581D01*
X7049687Y16027581D02*
X7049687Y17027581D01*
X6573496Y16027581D02*
X6573496Y17027581D01*
X6573496Y17027581D02*
X6335401Y17027581D01*
X6335401Y17027581D02*
X6192544Y16979962D01*
X6192544Y16979962D02*
X6097306Y16884724D01*
X6097306Y16884724D02*
X6049687Y16789486D01*
X6049687Y16789486D02*
X6002068Y16599010D01*
X6002068Y16599010D02*
X6002068Y16456153D01*
X6002068Y16456153D02*
X6049687Y16265677D01*
X6049687Y16265677D02*
X6097306Y16170439D01*
X6097306Y16170439D02*
X6192544Y16075200D01*
X6192544Y16075200D02*
X6335401Y16027581D01*
X6335401Y16027581D02*
X6573496Y16027581D01*
D13*
X67910652Y2227467D02*
X66386843Y2227467D01*
X67148747Y1465562D02*
X67148747Y2989372D01*
D12*
X93669905Y15140040D02*
X93533000Y15092421D01*
X93533000Y15092421D02*
X93491334Y15044802D01*
X93491334Y15044802D02*
X93455619Y14949564D01*
X93455619Y14949564D02*
X93473477Y14806707D01*
X93473477Y14806707D02*
X93533000Y14711469D01*
X93533000Y14711469D02*
X93586572Y14663849D01*
X93586572Y14663849D02*
X93687762Y14616230D01*
X93687762Y14616230D02*
X94068715Y14616230D01*
X94068715Y14616230D02*
X93943715Y15616230D01*
X93943715Y15616230D02*
X93610381Y15616230D01*
X93610381Y15616230D02*
X93521096Y15568611D01*
X93521096Y15568611D02*
X93479429Y15520992D01*
X93479429Y15520992D02*
X93443715Y15425754D01*
X93443715Y15425754D02*
X93455619Y15330516D01*
X93455619Y15330516D02*
X93515143Y15235278D01*
X93515143Y15235278D02*
X93568715Y15187659D01*
X93568715Y15187659D02*
X93669905Y15140040D01*
X93669905Y15140040D02*
X94003238Y15140040D01*
D10*
X10569925Y32902581D02*
X11046115Y32902581D01*
X11046115Y32902581D02*
X11046115Y33902581D01*
X10236591Y33426391D02*
X9903258Y33426391D01*
X9760401Y32902581D02*
X10236591Y32902581D01*
X10236591Y32902581D02*
X10236591Y33902581D01*
X10236591Y33902581D02*
X9760401Y33902581D01*
X9331829Y32902581D02*
X9331829Y33902581D01*
X9331829Y33902581D02*
X9093734Y33902581D01*
X9093734Y33902581D02*
X8950877Y33854962D01*
X8950877Y33854962D02*
X8855639Y33759724D01*
X8855639Y33759724D02*
X8808020Y33664486D01*
X8808020Y33664486D02*
X8760401Y33474010D01*
X8760401Y33474010D02*
X8760401Y33331153D01*
X8760401Y33331153D02*
X8808020Y33140677D01*
X8808020Y33140677D02*
X8855639Y33045439D01*
X8855639Y33045439D02*
X8950877Y32950200D01*
X8950877Y32950200D02*
X9093734Y32902581D01*
X9093734Y32902581D02*
X9331829Y32902581D01*
X7617543Y32950200D02*
X7474686Y32902581D01*
X7474686Y32902581D02*
X7236591Y32902581D01*
X7236591Y32902581D02*
X7141353Y32950200D01*
X7141353Y32950200D02*
X7093734Y32997820D01*
X7093734Y32997820D02*
X7046115Y33093058D01*
X7046115Y33093058D02*
X7046115Y33188296D01*
X7046115Y33188296D02*
X7093734Y33283534D01*
X7093734Y33283534D02*
X7141353Y33331153D01*
X7141353Y33331153D02*
X7236591Y33378772D01*
X7236591Y33378772D02*
X7427067Y33426391D01*
X7427067Y33426391D02*
X7522305Y33474010D01*
X7522305Y33474010D02*
X7569924Y33521629D01*
X7569924Y33521629D02*
X7617543Y33616867D01*
X7617543Y33616867D02*
X7617543Y33712105D01*
X7617543Y33712105D02*
X7569924Y33807343D01*
X7569924Y33807343D02*
X7522305Y33854962D01*
X7522305Y33854962D02*
X7427067Y33902581D01*
X7427067Y33902581D02*
X7188972Y33902581D01*
X7188972Y33902581D02*
X7046115Y33854962D01*
X6617543Y32902581D02*
X6617543Y33902581D01*
X5617544Y33854962D02*
X5712782Y33902581D01*
X5712782Y33902581D02*
X5855639Y33902581D01*
X5855639Y33902581D02*
X5998496Y33854962D01*
X5998496Y33854962D02*
X6093734Y33759724D01*
X6093734Y33759724D02*
X6141353Y33664486D01*
X6141353Y33664486D02*
X6188972Y33474010D01*
X6188972Y33474010D02*
X6188972Y33331153D01*
X6188972Y33331153D02*
X6141353Y33140677D01*
X6141353Y33140677D02*
X6093734Y33045439D01*
X6093734Y33045439D02*
X5998496Y32950200D01*
X5998496Y32950200D02*
X5855639Y32902581D01*
X5855639Y32902581D02*
X5760401Y32902581D01*
X5760401Y32902581D02*
X5617544Y32950200D01*
X5617544Y32950200D02*
X5569925Y32997820D01*
X5569925Y32997820D02*
X5569925Y33331153D01*
X5569925Y33331153D02*
X5760401Y33331153D01*
X47497306Y3604962D02*
X47592544Y3652581D01*
X47592544Y3652581D02*
X47735401Y3652581D01*
X47735401Y3652581D02*
X47878258Y3604962D01*
X47878258Y3604962D02*
X47973496Y3509724D01*
X47973496Y3509724D02*
X48021115Y3414486D01*
X48021115Y3414486D02*
X48068734Y3224010D01*
X48068734Y3224010D02*
X48068734Y3081153D01*
X48068734Y3081153D02*
X48021115Y2890677D01*
X48021115Y2890677D02*
X47973496Y2795439D01*
X47973496Y2795439D02*
X47878258Y2700200D01*
X47878258Y2700200D02*
X47735401Y2652581D01*
X47735401Y2652581D02*
X47640163Y2652581D01*
X47640163Y2652581D02*
X47497306Y2700200D01*
X47497306Y2700200D02*
X47449687Y2747820D01*
X47449687Y2747820D02*
X47449687Y3081153D01*
X47449687Y3081153D02*
X47640163Y3081153D01*
X47021115Y2652581D02*
X47021115Y3652581D01*
X47021115Y3652581D02*
X46449687Y2652581D01*
X46449687Y2652581D02*
X46449687Y3652581D01*
X45973496Y2652581D02*
X45973496Y3652581D01*
X45973496Y3652581D02*
X45735401Y3652581D01*
X45735401Y3652581D02*
X45592544Y3604962D01*
X45592544Y3604962D02*
X45497306Y3509724D01*
X45497306Y3509724D02*
X45449687Y3414486D01*
X45449687Y3414486D02*
X45402068Y3224010D01*
X45402068Y3224010D02*
X45402068Y3081153D01*
X45402068Y3081153D02*
X45449687Y2890677D01*
X45449687Y2890677D02*
X45497306Y2795439D01*
X45497306Y2795439D02*
X45592544Y2700200D01*
X45592544Y2700200D02*
X45735401Y2652581D01*
X45735401Y2652581D02*
X45973496Y2652581D01*
X8588972Y22527581D02*
X8017544Y22527581D01*
X8303258Y21527581D02*
X8303258Y22527581D01*
X7779448Y22527581D02*
X7112782Y21527581D01*
X7112782Y22527581D02*
X7779448Y21527581D01*
D13*
X110928357Y23299000D02*
X108642643Y23299000D01*
X109785500Y22156143D02*
X109785500Y24441858D01*
D10*
X23993734Y59913296D02*
X23517544Y59913296D01*
X24088972Y59627581D02*
X23755639Y60627581D01*
X23755639Y60627581D02*
X23422306Y59627581D01*
X22898496Y60627581D02*
X22803258Y60627581D01*
X22803258Y60627581D02*
X22708020Y60579962D01*
X22708020Y60579962D02*
X22660401Y60532343D01*
X22660401Y60532343D02*
X22612782Y60437105D01*
X22612782Y60437105D02*
X22565163Y60246629D01*
X22565163Y60246629D02*
X22565163Y60008534D01*
X22565163Y60008534D02*
X22612782Y59818058D01*
X22612782Y59818058D02*
X22660401Y59722820D01*
X22660401Y59722820D02*
X22708020Y59675200D01*
X22708020Y59675200D02*
X22803258Y59627581D01*
X22803258Y59627581D02*
X22898496Y59627581D01*
X22898496Y59627581D02*
X22993734Y59675200D01*
X22993734Y59675200D02*
X23041353Y59722820D01*
X23041353Y59722820D02*
X23088972Y59818058D01*
X23088972Y59818058D02*
X23136591Y60008534D01*
X23136591Y60008534D02*
X23136591Y60246629D01*
X23136591Y60246629D02*
X23088972Y60437105D01*
X23088972Y60437105D02*
X23041353Y60532343D01*
X23041353Y60532343D02*
X22993734Y60579962D01*
X22993734Y60579962D02*
X22898496Y60627581D01*
X102560019Y84992373D02*
X103560019Y84659040D01*
X103560019Y84659040D02*
X102560019Y84325707D01*
X103560019Y83992373D02*
X102560019Y83992373D01*
X103560019Y83516183D02*
X102560019Y83516183D01*
X102560019Y83516183D02*
X103560019Y82944755D01*
X103560019Y82944755D02*
X102560019Y82944755D01*
D13*
X61450652Y2277467D02*
X59926843Y2277467D01*
D10*
X72187980Y81222288D02*
X72235600Y81269907D01*
X72235600Y81269907D02*
X72283219Y81412764D01*
X72283219Y81412764D02*
X72283219Y81508002D01*
X72283219Y81508002D02*
X72235600Y81650859D01*
X72235600Y81650859D02*
X72140361Y81746097D01*
X72140361Y81746097D02*
X72045123Y81793716D01*
X72045123Y81793716D02*
X71854647Y81841335D01*
X71854647Y81841335D02*
X71711790Y81841335D01*
X71711790Y81841335D02*
X71521314Y81793716D01*
X71521314Y81793716D02*
X71426076Y81746097D01*
X71426076Y81746097D02*
X71330838Y81650859D01*
X71330838Y81650859D02*
X71283219Y81508002D01*
X71283219Y81508002D02*
X71283219Y81412764D01*
X71283219Y81412764D02*
X71330838Y81269907D01*
X71330838Y81269907D02*
X71378457Y81222288D01*
X72283219Y80317526D02*
X72283219Y80793716D01*
X72283219Y80793716D02*
X71283219Y80793716D01*
X72283219Y79984192D02*
X71283219Y79984192D01*
X72283219Y79412764D02*
X71711790Y79841335D01*
X71283219Y79412764D02*
X71854647Y79984192D01*
D12*
X84956220Y78518704D02*
X84819316Y78471085D01*
X84819316Y78471085D02*
X84581220Y78471085D01*
X84581220Y78471085D02*
X84480030Y78518704D01*
X84480030Y78518704D02*
X84426458Y78566324D01*
X84426458Y78566324D02*
X84366935Y78661562D01*
X84366935Y78661562D02*
X84355030Y78756800D01*
X84355030Y78756800D02*
X84390744Y78852038D01*
X84390744Y78852038D02*
X84432411Y78899657D01*
X84432411Y78899657D02*
X84521697Y78947276D01*
X84521697Y78947276D02*
X84706220Y78994895D01*
X84706220Y78994895D02*
X84795506Y79042514D01*
X84795506Y79042514D02*
X84837173Y79090133D01*
X84837173Y79090133D02*
X84872887Y79185371D01*
X84872887Y79185371D02*
X84860982Y79280609D01*
X84860982Y79280609D02*
X84801458Y79375847D01*
X84801458Y79375847D02*
X84747887Y79423466D01*
X84747887Y79423466D02*
X84646697Y79471085D01*
X84646697Y79471085D02*
X84408601Y79471085D01*
X84408601Y79471085D02*
X84271697Y79423466D01*
X83896696Y78994895D02*
X83563363Y78994895D01*
X83485982Y78471085D02*
X83962173Y78471085D01*
X83962173Y78471085D02*
X83837173Y79471085D01*
X83837173Y79471085D02*
X83360982Y79471085D01*
X82485982Y78471085D02*
X82759792Y78947276D01*
X83057411Y78471085D02*
X82932411Y79471085D01*
X82932411Y79471085D02*
X82551458Y79471085D01*
X82551458Y79471085D02*
X82462173Y79423466D01*
X82462173Y79423466D02*
X82420506Y79375847D01*
X82420506Y79375847D02*
X82384792Y79280609D01*
X82384792Y79280609D02*
X82402649Y79137752D01*
X82402649Y79137752D02*
X82462173Y79042514D01*
X82462173Y79042514D02*
X82515744Y78994895D01*
X82515744Y78994895D02*
X82616934Y78947276D01*
X82616934Y78947276D02*
X82997887Y78947276D01*
X82075268Y79471085D02*
X81866934Y78471085D01*
X81866934Y78471085D02*
X81408601Y79471085D01*
X80884791Y79471085D02*
X80694315Y79471085D01*
X80694315Y79471085D02*
X80605030Y79423466D01*
X80605030Y79423466D02*
X80521696Y79328228D01*
X80521696Y79328228D02*
X80497887Y79137752D01*
X80497887Y79137752D02*
X80539553Y78804419D01*
X80539553Y78804419D02*
X80610982Y78613943D01*
X80610982Y78613943D02*
X80718125Y78518704D01*
X80718125Y78518704D02*
X80819315Y78471085D01*
X80819315Y78471085D02*
X81009791Y78471085D01*
X81009791Y78471085D02*
X81099077Y78518704D01*
X81099077Y78518704D02*
X81182411Y78613943D01*
X81182411Y78613943D02*
X81206220Y78804419D01*
X81206220Y78804419D02*
X81164553Y79137752D01*
X81164553Y79137752D02*
X81093125Y79328228D01*
X81093125Y79328228D02*
X80985982Y79423466D01*
X80985982Y79423466D02*
X80884791Y79471085D01*
D10*
X7713972Y31352581D02*
X7380639Y30352581D01*
X7380639Y30352581D02*
X7047306Y31352581D01*
X6713972Y30352581D02*
X6713972Y31352581D01*
X6237782Y30352581D02*
X6237782Y31352581D01*
X6237782Y31352581D02*
X5666354Y30352581D01*
X5666354Y30352581D02*
X5666354Y31352581D01*
D14*
X101841759Y30166153D02*
X101591759Y32166153D01*
X101627473Y31880439D02*
X101466759Y32023296D01*
X101466759Y32023296D02*
X101163188Y32166153D01*
X101163188Y32166153D02*
X100734616Y32166153D01*
X100734616Y32166153D02*
X100466759Y32023296D01*
X100466759Y32023296D02*
X100359616Y31737582D01*
X100359616Y31737582D02*
X100556045Y30166153D01*
X100359616Y31737582D02*
X100181045Y32023296D01*
X100181045Y32023296D02*
X99877473Y32166153D01*
X99877473Y32166153D02*
X99448902Y32166153D01*
X99448902Y32166153D02*
X99181045Y32023296D01*
X99181045Y32023296D02*
X99073902Y31737582D01*
X99073902Y31737582D02*
X99270330Y30166153D01*
X96556045Y30166153D02*
X96359616Y31737582D01*
X96359616Y31737582D02*
X96466759Y32023296D01*
X96466759Y32023296D02*
X96734616Y32166153D01*
X96734616Y32166153D02*
X97306045Y32166153D01*
X97306045Y32166153D02*
X97609616Y32023296D01*
X96538188Y30309010D02*
X96841759Y30166153D01*
X96841759Y30166153D02*
X97556045Y30166153D01*
X97556045Y30166153D02*
X97823902Y30309010D01*
X97823902Y30309010D02*
X97931045Y30594725D01*
X97931045Y30594725D02*
X97895330Y30880439D01*
X97895330Y30880439D02*
X97716759Y31166153D01*
X97716759Y31166153D02*
X97413188Y31309010D01*
X97413188Y31309010D02*
X96698902Y31309010D01*
X96698902Y31309010D02*
X96395330Y31451868D01*
X95127473Y30166153D02*
X94877473Y32166153D01*
X94752473Y33166153D02*
X94913187Y33023296D01*
X94913187Y33023296D02*
X94788187Y32880439D01*
X94788187Y32880439D02*
X94627473Y33023296D01*
X94627473Y33023296D02*
X94752473Y33166153D01*
X94752473Y33166153D02*
X94788187Y32880439D01*
X93448902Y32166153D02*
X93698902Y30166153D01*
X93484616Y31880439D02*
X93323902Y32023296D01*
X93323902Y32023296D02*
X93020331Y32166153D01*
X93020331Y32166153D02*
X92591759Y32166153D01*
X92591759Y32166153D02*
X92323902Y32023296D01*
X92323902Y32023296D02*
X92216759Y31737582D01*
X92216759Y31737582D02*
X92413188Y30166153D01*
X90984616Y30166153D02*
X90609616Y33166153D01*
X90752473Y32023296D02*
X90448902Y32166153D01*
X90448902Y32166153D02*
X89877473Y32166153D01*
X89877473Y32166153D02*
X89609616Y32023296D01*
X89609616Y32023296D02*
X89484616Y31880439D01*
X89484616Y31880439D02*
X89377473Y31594725D01*
X89377473Y31594725D02*
X89484616Y30737582D01*
X89484616Y30737582D02*
X89663187Y30451868D01*
X89663187Y30451868D02*
X89823902Y30309010D01*
X89823902Y30309010D02*
X90127473Y30166153D01*
X90127473Y30166153D02*
X90698902Y30166153D01*
X90698902Y30166153D02*
X90966759Y30309010D01*
X87841759Y30166153D02*
X88109616Y30309010D01*
X88109616Y30309010D02*
X88234616Y30451868D01*
X88234616Y30451868D02*
X88341759Y30737582D01*
X88341759Y30737582D02*
X88234616Y31594725D01*
X88234616Y31594725D02*
X88056044Y31880439D01*
X88056044Y31880439D02*
X87895330Y32023296D01*
X87895330Y32023296D02*
X87591759Y32166153D01*
X87591759Y32166153D02*
X87163187Y32166153D01*
X87163187Y32166153D02*
X86895330Y32023296D01*
X86895330Y32023296D02*
X86770330Y31880439D01*
X86770330Y31880439D02*
X86663187Y31594725D01*
X86663187Y31594725D02*
X86770330Y30737582D01*
X86770330Y30737582D02*
X86948901Y30451868D01*
X86948901Y30451868D02*
X87109616Y30309010D01*
X87109616Y30309010D02*
X87413187Y30166153D01*
X87413187Y30166153D02*
X87841759Y30166153D01*
X84270330Y30166153D02*
X84073901Y31737582D01*
X84073901Y31737582D02*
X84181044Y32023296D01*
X84181044Y32023296D02*
X84448901Y32166153D01*
X84448901Y32166153D02*
X85020330Y32166153D01*
X85020330Y32166153D02*
X85323901Y32023296D01*
X84252473Y30309010D02*
X84556044Y30166153D01*
X84556044Y30166153D02*
X85270330Y30166153D01*
X85270330Y30166153D02*
X85538187Y30309010D01*
X85538187Y30309010D02*
X85645330Y30594725D01*
X85645330Y30594725D02*
X85609615Y30880439D01*
X85609615Y30880439D02*
X85431044Y31166153D01*
X85431044Y31166153D02*
X85127473Y31309010D01*
X85127473Y31309010D02*
X84413187Y31309010D01*
X84413187Y31309010D02*
X84109615Y31451868D01*
X82841758Y30166153D02*
X82591758Y32166153D01*
X82663187Y31594725D02*
X82484615Y31880439D01*
X82484615Y31880439D02*
X82323901Y32023296D01*
X82323901Y32023296D02*
X82020329Y32166153D01*
X82020329Y32166153D02*
X81734615Y32166153D01*
X79698901Y30166153D02*
X79323901Y33166153D01*
X79681044Y30309010D02*
X79984615Y30166153D01*
X79984615Y30166153D02*
X80556044Y30166153D01*
X80556044Y30166153D02*
X80823901Y30309010D01*
X80823901Y30309010D02*
X80948901Y30451868D01*
X80948901Y30451868D02*
X81056044Y30737582D01*
X81056044Y30737582D02*
X80948901Y31594725D01*
X80948901Y31594725D02*
X80770329Y31880439D01*
X80770329Y31880439D02*
X80609615Y32023296D01*
X80609615Y32023296D02*
X80306044Y32166153D01*
X80306044Y32166153D02*
X79734615Y32166153D01*
X79734615Y32166153D02*
X79466758Y32023296D01*
X95556045Y25336321D02*
X96377474Y26764893D01*
X97270331Y25336321D02*
X96895331Y28336321D01*
X96895331Y28336321D02*
X95752474Y28336321D01*
X95752474Y28336321D02*
X95484617Y28193464D01*
X95484617Y28193464D02*
X95359617Y28050607D01*
X95359617Y28050607D02*
X95252474Y27764893D01*
X95252474Y27764893D02*
X95306045Y27336321D01*
X95306045Y27336321D02*
X95484617Y27050607D01*
X95484617Y27050607D02*
X95645331Y26907750D01*
X95645331Y26907750D02*
X95948902Y26764893D01*
X95948902Y26764893D02*
X97091760Y26764893D01*
X93109617Y25479178D02*
X93413188Y25336321D01*
X93413188Y25336321D02*
X93984617Y25336321D01*
X93984617Y25336321D02*
X94252474Y25479178D01*
X94252474Y25479178D02*
X94359617Y25764893D01*
X94359617Y25764893D02*
X94216760Y26907750D01*
X94216760Y26907750D02*
X94038188Y27193464D01*
X94038188Y27193464D02*
X93734617Y27336321D01*
X93734617Y27336321D02*
X93163188Y27336321D01*
X93163188Y27336321D02*
X92895331Y27193464D01*
X92895331Y27193464D02*
X92788188Y26907750D01*
X92788188Y26907750D02*
X92823902Y26622036D01*
X92823902Y26622036D02*
X94288188Y26336321D01*
X91734616Y27336321D02*
X91270331Y25336321D01*
X91270331Y25336321D02*
X90306045Y27336321D01*
X89270331Y26479178D02*
X86984617Y26479178D01*
X84502473Y26907750D02*
X84091759Y26764893D01*
X84091759Y26764893D02*
X83966759Y26622036D01*
X83966759Y26622036D02*
X83859616Y26336321D01*
X83859616Y26336321D02*
X83913188Y25907750D01*
X83913188Y25907750D02*
X84091759Y25622036D01*
X84091759Y25622036D02*
X84252473Y25479178D01*
X84252473Y25479178D02*
X84556045Y25336321D01*
X84556045Y25336321D02*
X85698902Y25336321D01*
X85698902Y25336321D02*
X85323902Y28336321D01*
X85323902Y28336321D02*
X84323902Y28336321D01*
X84323902Y28336321D02*
X84056045Y28193464D01*
X84056045Y28193464D02*
X83931045Y28050607D01*
X83931045Y28050607D02*
X83823902Y27764893D01*
X83823902Y27764893D02*
X83859616Y27479178D01*
X83859616Y27479178D02*
X84038188Y27193464D01*
X84038188Y27193464D02*
X84198902Y27050607D01*
X84198902Y27050607D02*
X84502473Y26907750D01*
X84502473Y26907750D02*
X85502473Y26907750D01*
D10*
X5474687Y55252581D02*
X5808020Y55728772D01*
X6046115Y55252581D02*
X6046115Y56252581D01*
X6046115Y56252581D02*
X5665163Y56252581D01*
X5665163Y56252581D02*
X5569925Y56204962D01*
X5569925Y56204962D02*
X5522306Y56157343D01*
X5522306Y56157343D02*
X5474687Y56062105D01*
X5474687Y56062105D02*
X5474687Y55919248D01*
X5474687Y55919248D02*
X5522306Y55824010D01*
X5522306Y55824010D02*
X5569925Y55776391D01*
X5569925Y55776391D02*
X5665163Y55728772D01*
X5665163Y55728772D02*
X6046115Y55728772D01*
X5046115Y55252581D02*
X5046115Y56252581D01*
X4046116Y56204962D02*
X4141354Y56252581D01*
X4141354Y56252581D02*
X4284211Y56252581D01*
X4284211Y56252581D02*
X4427068Y56204962D01*
X4427068Y56204962D02*
X4522306Y56109724D01*
X4522306Y56109724D02*
X4569925Y56014486D01*
X4569925Y56014486D02*
X4617544Y55824010D01*
X4617544Y55824010D02*
X4617544Y55681153D01*
X4617544Y55681153D02*
X4569925Y55490677D01*
X4569925Y55490677D02*
X4522306Y55395439D01*
X4522306Y55395439D02*
X4427068Y55300200D01*
X4427068Y55300200D02*
X4284211Y55252581D01*
X4284211Y55252581D02*
X4188973Y55252581D01*
X4188973Y55252581D02*
X4046116Y55300200D01*
X4046116Y55300200D02*
X3998497Y55347820D01*
X3998497Y55347820D02*
X3998497Y55681153D01*
X3998497Y55681153D02*
X4188973Y55681153D01*
X3569925Y55252581D02*
X3569925Y56252581D01*
X3569925Y55776391D02*
X2998497Y55776391D01*
X2998497Y55252581D02*
X2998497Y56252581D01*
X2665163Y56252581D02*
X2093735Y56252581D01*
X2379449Y55252581D02*
X2379449Y56252581D01*
X77352693Y87270039D02*
X77257455Y87222420D01*
X77257455Y87222420D02*
X77114598Y87222420D01*
X77114598Y87222420D02*
X76971741Y87270039D01*
X76971741Y87270039D02*
X76876503Y87365277D01*
X76876503Y87365277D02*
X76828884Y87460515D01*
X76828884Y87460515D02*
X76781265Y87650991D01*
X76781265Y87650991D02*
X76781265Y87793848D01*
X76781265Y87793848D02*
X76828884Y87984324D01*
X76828884Y87984324D02*
X76876503Y88079562D01*
X76876503Y88079562D02*
X76971741Y88174800D01*
X76971741Y88174800D02*
X77114598Y88222420D01*
X77114598Y88222420D02*
X77209836Y88222420D01*
X77209836Y88222420D02*
X77352693Y88174800D01*
X77352693Y88174800D02*
X77400312Y88127181D01*
X77400312Y88127181D02*
X77400312Y87793848D01*
X77400312Y87793848D02*
X77209836Y87793848D01*
X77828884Y88222420D02*
X77828884Y87222420D01*
X77828884Y87222420D02*
X78400312Y88222420D01*
X78400312Y88222420D02*
X78400312Y87222420D01*
X78876503Y88222420D02*
X78876503Y87222420D01*
X78876503Y87222420D02*
X79114598Y87222420D01*
X79114598Y87222420D02*
X79257455Y87270039D01*
X79257455Y87270039D02*
X79352693Y87365277D01*
X79352693Y87365277D02*
X79400312Y87460515D01*
X79400312Y87460515D02*
X79447931Y87650991D01*
X79447931Y87650991D02*
X79447931Y87793848D01*
X79447931Y87793848D02*
X79400312Y87984324D01*
X79400312Y87984324D02*
X79352693Y88079562D01*
X79352693Y88079562D02*
X79257455Y88174800D01*
X79257455Y88174800D02*
X79114598Y88222420D01*
X79114598Y88222420D02*
X78876503Y88222420D01*
D13*
X70501452Y2278267D02*
X68977643Y2278267D01*
D12*
X76548183Y15068496D02*
X76071993Y15068496D01*
X76679136Y14782781D02*
X76220802Y15782781D01*
X76220802Y15782781D02*
X76012469Y14782781D01*
D10*
X14124687Y76672820D02*
X14172306Y76625200D01*
X14172306Y76625200D02*
X14315163Y76577581D01*
X14315163Y76577581D02*
X14410401Y76577581D01*
X14410401Y76577581D02*
X14553258Y76625200D01*
X14553258Y76625200D02*
X14648496Y76720439D01*
X14648496Y76720439D02*
X14696115Y76815677D01*
X14696115Y76815677D02*
X14743734Y77006153D01*
X14743734Y77006153D02*
X14743734Y77149010D01*
X14743734Y77149010D02*
X14696115Y77339486D01*
X14696115Y77339486D02*
X14648496Y77434724D01*
X14648496Y77434724D02*
X14553258Y77529962D01*
X14553258Y77529962D02*
X14410401Y77577581D01*
X14410401Y77577581D02*
X14315163Y77577581D01*
X14315163Y77577581D02*
X14172306Y77529962D01*
X14172306Y77529962D02*
X14124687Y77482343D01*
X13505639Y77577581D02*
X13315163Y77577581D01*
X13315163Y77577581D02*
X13219925Y77529962D01*
X13219925Y77529962D02*
X13124687Y77434724D01*
X13124687Y77434724D02*
X13077068Y77244248D01*
X13077068Y77244248D02*
X13077068Y76910915D01*
X13077068Y76910915D02*
X13124687Y76720439D01*
X13124687Y76720439D02*
X13219925Y76625200D01*
X13219925Y76625200D02*
X13315163Y76577581D01*
X13315163Y76577581D02*
X13505639Y76577581D01*
X13505639Y76577581D02*
X13600877Y76625200D01*
X13600877Y76625200D02*
X13696115Y76720439D01*
X13696115Y76720439D02*
X13743734Y76910915D01*
X13743734Y76910915D02*
X13743734Y77244248D01*
X13743734Y77244248D02*
X13696115Y77434724D01*
X13696115Y77434724D02*
X13600877Y77529962D01*
X13600877Y77529962D02*
X13505639Y77577581D01*
X12458020Y77577581D02*
X12267544Y77577581D01*
X12267544Y77577581D02*
X12172306Y77529962D01*
X12172306Y77529962D02*
X12077068Y77434724D01*
X12077068Y77434724D02*
X12029449Y77244248D01*
X12029449Y77244248D02*
X12029449Y76910915D01*
X12029449Y76910915D02*
X12077068Y76720439D01*
X12077068Y76720439D02*
X12172306Y76625200D01*
X12172306Y76625200D02*
X12267544Y76577581D01*
X12267544Y76577581D02*
X12458020Y76577581D01*
X12458020Y76577581D02*
X12553258Y76625200D01*
X12553258Y76625200D02*
X12648496Y76720439D01*
X12648496Y76720439D02*
X12696115Y76910915D01*
X12696115Y76910915D02*
X12696115Y77244248D01*
X12696115Y77244248D02*
X12648496Y77434724D01*
X12648496Y77434724D02*
X12553258Y77529962D01*
X12553258Y77529962D02*
X12458020Y77577581D01*
X11124687Y76577581D02*
X11600877Y76577581D01*
X11600877Y76577581D02*
X11600877Y77577581D01*
X10791353Y76577581D02*
X10791353Y77577581D01*
X10315163Y76577581D02*
X10315163Y77577581D01*
X10315163Y77577581D02*
X9743735Y76577581D01*
X9743735Y76577581D02*
X9743735Y77577581D01*
X8743735Y77529962D02*
X8838973Y77577581D01*
X8838973Y77577581D02*
X8981830Y77577581D01*
X8981830Y77577581D02*
X9124687Y77529962D01*
X9124687Y77529962D02*
X9219925Y77434724D01*
X9219925Y77434724D02*
X9267544Y77339486D01*
X9267544Y77339486D02*
X9315163Y77149010D01*
X9315163Y77149010D02*
X9315163Y77006153D01*
X9315163Y77006153D02*
X9267544Y76815677D01*
X9267544Y76815677D02*
X9219925Y76720439D01*
X9219925Y76720439D02*
X9124687Y76625200D01*
X9124687Y76625200D02*
X8981830Y76577581D01*
X8981830Y76577581D02*
X8886592Y76577581D01*
X8886592Y76577581D02*
X8743735Y76625200D01*
X8743735Y76625200D02*
X8696116Y76672820D01*
X8696116Y76672820D02*
X8696116Y77006153D01*
X8696116Y77006153D02*
X8886592Y77006153D01*
X11194925Y57502581D02*
X11671115Y57502581D01*
X11671115Y57502581D02*
X11671115Y58502581D01*
X10671115Y58502581D02*
X10480639Y58502581D01*
X10480639Y58502581D02*
X10385401Y58454962D01*
X10385401Y58454962D02*
X10290163Y58359724D01*
X10290163Y58359724D02*
X10242544Y58169248D01*
X10242544Y58169248D02*
X10242544Y57835915D01*
X10242544Y57835915D02*
X10290163Y57645439D01*
X10290163Y57645439D02*
X10385401Y57550200D01*
X10385401Y57550200D02*
X10480639Y57502581D01*
X10480639Y57502581D02*
X10671115Y57502581D01*
X10671115Y57502581D02*
X10766353Y57550200D01*
X10766353Y57550200D02*
X10861591Y57645439D01*
X10861591Y57645439D02*
X10909210Y57835915D01*
X10909210Y57835915D02*
X10909210Y58169248D01*
X10909210Y58169248D02*
X10861591Y58359724D01*
X10861591Y58359724D02*
X10766353Y58454962D01*
X10766353Y58454962D02*
X10671115Y58502581D01*
X9861591Y57788296D02*
X9385401Y57788296D01*
X9956829Y57502581D02*
X9623496Y58502581D01*
X9623496Y58502581D02*
X9290163Y57502581D01*
X8956829Y57502581D02*
X8956829Y58502581D01*
X8956829Y58502581D02*
X8718734Y58502581D01*
X8718734Y58502581D02*
X8575877Y58454962D01*
X8575877Y58454962D02*
X8480639Y58359724D01*
X8480639Y58359724D02*
X8433020Y58264486D01*
X8433020Y58264486D02*
X8385401Y58074010D01*
X8385401Y58074010D02*
X8385401Y57931153D01*
X8385401Y57931153D02*
X8433020Y57740677D01*
X8433020Y57740677D02*
X8480639Y57645439D01*
X8480639Y57645439D02*
X8575877Y57550200D01*
X8575877Y57550200D02*
X8718734Y57502581D01*
X8718734Y57502581D02*
X8956829Y57502581D01*
X6623496Y57597820D02*
X6671115Y57550200D01*
X6671115Y57550200D02*
X6813972Y57502581D01*
X6813972Y57502581D02*
X6909210Y57502581D01*
X6909210Y57502581D02*
X7052067Y57550200D01*
X7052067Y57550200D02*
X7147305Y57645439D01*
X7147305Y57645439D02*
X7194924Y57740677D01*
X7194924Y57740677D02*
X7242543Y57931153D01*
X7242543Y57931153D02*
X7242543Y58074010D01*
X7242543Y58074010D02*
X7194924Y58264486D01*
X7194924Y58264486D02*
X7147305Y58359724D01*
X7147305Y58359724D02*
X7052067Y58454962D01*
X7052067Y58454962D02*
X6909210Y58502581D01*
X6909210Y58502581D02*
X6813972Y58502581D01*
X6813972Y58502581D02*
X6671115Y58454962D01*
X6671115Y58454962D02*
X6623496Y58407343D01*
X6194924Y58026391D02*
X5861591Y58026391D01*
X5718734Y57502581D02*
X6194924Y57502581D01*
X6194924Y57502581D02*
X6194924Y58502581D01*
X6194924Y58502581D02*
X5718734Y58502581D01*
X4813972Y57502581D02*
X5290162Y57502581D01*
X5290162Y57502581D02*
X5290162Y58502581D01*
X4004448Y57502581D02*
X4480638Y57502581D01*
X4480638Y57502581D02*
X4480638Y58502581D01*
D15*
X70733333Y57595181D02*
X70733333Y56880896D01*
X70733333Y56880896D02*
X70780952Y56738039D01*
X70780952Y56738039D02*
X70876190Y56642800D01*
X70876190Y56642800D02*
X71019047Y56595181D01*
X71019047Y56595181D02*
X71114285Y56595181D01*
X70257142Y56595181D02*
X70257142Y57595181D01*
X70257142Y57595181D02*
X69876190Y57595181D01*
X69876190Y57595181D02*
X69780952Y57547562D01*
X69780952Y57547562D02*
X69733333Y57499943D01*
X69733333Y57499943D02*
X69685714Y57404705D01*
X69685714Y57404705D02*
X69685714Y57261848D01*
X69685714Y57261848D02*
X69733333Y57166610D01*
X69733333Y57166610D02*
X69780952Y57118991D01*
X69780952Y57118991D02*
X69876190Y57071372D01*
X69876190Y57071372D02*
X70257142Y57071372D01*
X69209523Y56595181D02*
X69019047Y56595181D01*
X69019047Y56595181D02*
X68923809Y56642800D01*
X68923809Y56642800D02*
X68876190Y56690420D01*
X68876190Y56690420D02*
X68780952Y56833277D01*
X68780952Y56833277D02*
X68733333Y57023753D01*
X68733333Y57023753D02*
X68733333Y57404705D01*
X68733333Y57404705D02*
X68780952Y57499943D01*
X68780952Y57499943D02*
X68828571Y57547562D01*
X68828571Y57547562D02*
X68923809Y57595181D01*
X68923809Y57595181D02*
X69114285Y57595181D01*
X69114285Y57595181D02*
X69209523Y57547562D01*
X69209523Y57547562D02*
X69257142Y57499943D01*
X69257142Y57499943D02*
X69304761Y57404705D01*
X69304761Y57404705D02*
X69304761Y57166610D01*
X69304761Y57166610D02*
X69257142Y57071372D01*
X69257142Y57071372D02*
X69209523Y57023753D01*
X69209523Y57023753D02*
X69114285Y56976134D01*
X69114285Y56976134D02*
X68923809Y56976134D01*
X68923809Y56976134D02*
X68828571Y57023753D01*
X68828571Y57023753D02*
X68780952Y57071372D01*
X68780952Y57071372D02*
X68733333Y57166610D01*
D16*
%TO.C,JP6*%
X24725000Y55550000D02*
X24725000Y53550000D01*
X24725000Y53550000D02*
X27525000Y53550000D01*
X27525000Y55550000D02*
X24725000Y55550000D01*
X27525000Y53550000D02*
X27525000Y55550000D01*
%TO.C,JP9*%
X67850000Y59850000D02*
X67850000Y57850000D01*
X67850000Y57850000D02*
X71950000Y57850000D01*
X68300000Y60350000D02*
X68900000Y60350000D01*
X68600000Y60050000D02*
X68300000Y60350000D01*
X68600000Y60050000D02*
X68900000Y60350000D01*
X71950000Y59850000D02*
X67850000Y59850000D01*
X71950000Y57850000D02*
X71950000Y59850000D01*
%TO.C,JP4*%
X24725000Y60950000D02*
X24725000Y58950000D01*
X24725000Y58950000D02*
X27525000Y58950000D01*
X27525000Y60950000D02*
X24725000Y60950000D01*
X27525000Y58950000D02*
X27525000Y60950000D01*
%TO.C,JP5*%
X24725000Y58250000D02*
X24725000Y56250000D01*
X24725000Y56250000D02*
X27525000Y56250000D01*
X27525000Y58250000D02*
X24725000Y58250000D01*
X27525000Y56250000D02*
X27525000Y58250000D01*
%TD*%
M02*
