0
SECTION
2
HEADER
9
$INSUNITS
70
4
9
$ACADVER
1
AC1014
9
$HANDSEED
5
FFFF
0
ENDSEC
0
SECTION
2
TABLES
0
TABLE
2
VPORT
5
8
100
AcDbSymbolTable
0
ENDTAB
0
TABLE
2
LTYPE
5
5
100
AcDbSymbolTable
0
LTYPE
5
14
100
AcDbSymbolTableRecord
100
AcDbLinetypeTableRecord
2
BYBLOCK
70
0
0
LTYPE
5
15
100
AcDbSymbolTableRecord
100
AcDbLinetypeTableRecord
2
BYLAYER
70
0
0
LTYPE
5
16
100
AcDbSymbolTableRecord
100
AcDbLinetypeTableRecord
2
DASHED
70
0
3
Dashed __ __ __ __ __ __ __ __ __ __ __ __ __ _
72
65
73
2
40
0.75
49
0.5
74
0
49
-0.25
74
0
0
ENDTAB
0
TABLE
2
LAYER
5
2
100
AcDbSymbolTable
70
2
0
LAYER
5
50
100
AcDbSymbolTableRecord
100
AcDbLayerTableRecord
2
0
70
0
62
7
6
CONTINUOUS
0
ENDTAB
0
TABLE
2
STYLE
5
3
100
AcDbSymbolTable
70
1
0
STYLE
5
11
100
AcDbSymbolTableRecord
100
AcDbTextStyleTableRecord
2
STANDARD
70
0
0
ENDTAB
0
TABLE
2
VIEW
5
6
100
AcDbSymbolTable
70
0
0
ENDTAB
0
TABLE
2
UCS
5
7
100
AcDbSymbolTable
70
0
0
ENDTAB
0
TABLE
2
APPID
5
9
100
AcDbSymbolTable
70
2
0
APPID
5
12
100
AcDbSymbolTableRecord
100
AcDbRegAppTableRecord
2
ACAD
70
0
0
ENDTAB
0
TABLE
2
DIMSTYLE
5
A
100
AcDbSymbolTable
70
1
0
ENDTAB
0
TABLE
2
BLOCK_RECORD
5
1
100
AcDbSymbolTable
70
1
0
BLOCK_RECORD
5
1F
100
AcDbSymbolTableRecord
100
AcDbBlockTableRecord
2
*MODEL_SPACE
0
BLOCK_RECORD
5
1B
100
AcDbSymbolTableRecord
100
AcDbBlockTableRecord
2
*PAPER_SPACE
0
ENDTAB
0
ENDSEC
0
SECTION
2
BLOCKS
0
BLOCK
5
20
100
AcDbEntity
100
AcDbBlockBegin
2
*MODEL_SPACE
0
ENDBLK
5
21
100
AcDbEntity
100
AcDbBlockEnd
0
BLOCK
5
1C
100
AcDbEntity
100
AcDbBlockBegin
2
*PAPER_SPACE
0
ENDBLK
5
1D
100
AcDbEntity
100
AcDbBlockEnd
0
ENDSEC
0
SECTION
2
ENTITIES
0
CIRCLE
5
100
100
AcDbEntity
8
0
100
AcDbCircle
10
129.87258300203106
20
62.372583002030595
30
0
40
1.7500000000000071
210
0
220
0
230
1
0
CIRCLE
5
101
100
AcDbEntity
8
0
100
AcDbCircle
10
175.1274169979701
20
62.372583002030595
30
0
40
1.7500000000000071
210
0
220
0
230
1
0
LWPOLYLINE
5
102
100
AcDbEntity
8
0
100
AcDbPolyline
90
16
70
1
43
0.0
10
-47.699999999938626
20
239.19615242271806
42
0.26794919243111748
10
-46.199999999938612
20
236.5980762113648
42
-0.5773502691896315
10
-46.199999999938619
20
231.40192378865811
42
0.26794919243112336
10
-47.699999999938605
20
228.80384757730479
10
-47.699999999938626
20
223.80000000000962
42
-0.41421356237299733
10
-59.999999999938609
20
211.50000000001381
10
-189.99999999993906
20
211.50000000001376
42
-0.41421356237309337
10
-202.2999999999391
20
223.80000000001382
10
-202.29999999993902
20
228.80384757730693
42
0.26794919243112475
10
-203.79999999993902
20
231.40192378866021
42
-0.57735026918962062
10
-203.79999999993888
20
236.5980762113669
42
0.2679491924311157
10
-202.29999999993882
20
239.19615242272016
10
-202.29999999993876
20
244.20000000001323
42
-0.41421356237309842
10
-189.99999999993875
20
256.50000000001324
10
-59.999999999938609
20
256.50000000001319
42
-0.4142135623730942
10
-47.699999999938605
20
244.20000000001323
0
LWPOLYLINE
5
103
100
AcDbEntity
8
0
100
AcDbPolyline
90
16
70
1
43
0.0
10
202.2999999999389
20
239.19615242272013
42
0.26794919243111454
10
203.7999999999389
20
236.59807621136679
42
-0.57735026918963239
10
203.79999999993896
20
231.40192378866018
42
0.26794919243113346
10
202.29999999993905
20
228.8038475773069
10
202.29999999993908
20
223.80000000001377
42
-0.41421356237309503
10
189.99999999993912
20
211.50000000001381
10
59.999999999938645
20
211.50000000001384
42
-0.41421356237299567
10
47.69999999993864
20
223.80000000000967
10
47.69999999993864
20
228.80384757730482
42
0.26794919243112475
10
46.199999999938598
20
231.40192378865811
42
-0.57735026918962284
10
46.199999999938626
20
236.5980762113648
42
0.26794919243113735
10
47.699999999938633
20
239.19615242271811
10
47.69999999993864
20
244.20000000001323
42
-0.4142135623730967
10
59.999999999938645
20
256.50000000001324
10
189.99999999993878
20
256.50000000001319
42
-0.41421356237309587
10
202.29999999993879
20
244.20000000001323
0
CIRCLE
5
104
100
AcDbEntity
8
0
100
AcDbCircle
10
152.5000000000006
20
85.000000000000114
30
0
40
25.549999999999997
210
0
220
0
230
1
0
CIRCLE
5
105
100
AcDbEntity
8
0
100
AcDbCircle
10
152.50000000000068
20
117
30
0
40
1.7500000000000071
210
0
220
-0
230
1
0
CIRCLE
5
106
100
AcDbEntity
8
0
100
AcDbCircle
10
124.75000000000001
20
510
30
0
40
1.7499999999999716
210
0
220
0
230
1
0
CIRCLE
5
107
100
AcDbEntity
8
0
100
AcDbCircle
10
260
20
125.12500000000003
30
0
40
1.7500000000000071
210
0
220
0
230
1
0
CIRCLE
5
108
100
AcDbEntity
8
0
100
AcDbCircle
10
260
20
414.87500000000006
30
0
40
1.7500000000000071
210
0
220
0
230
1
0
CIRCLE
5
109
100
AcDbEntity
8
0
100
AcDbCircle
10
-260
20
414.87500000000006
30
0
40
1.7500000000000071
210
0
220
0
230
1
0
CIRCLE
5
110
100
AcDbEntity
8
0
100
AcDbCircle
10
-260
20
125.12500000000003
30
0
40
1.7500000000000071
210
0
220
0
230
1
0
CIRCLE
5
111
100
AcDbEntity
8
0
100
AcDbCircle
10
-124.75000000000001
20
510
30
0
40
1.7499999999999716
210
0
220
0
230
1
0
CIRCLE
5
112
100
AcDbEntity
8
0
100
AcDbCircle
10
-259.99999999999994
20
290.09999999999985
30
0
40
1.7500000000000071
210
0
220
0
230
1
0
CIRCLE
5
113
100
AcDbEntity
8
0
100
AcDbCircle
10
259.99999999999994
20
290.09999999999985
30
0
40
1.7500000000000071
210
0
220
0
230
1
0
CIRCLE
5
114
100
AcDbEntity
8
0
100
AcDbCircle
10
-259.99999999999994
20
249.90000000000015
30
0
40
1.7500000000000071
210
0
220
0
230
1
0
CIRCLE
5
115
100
AcDbEntity
8
0
100
AcDbCircle
10
259.99999999999994
20
249.90000000000015
30
0
40
1.7500000000000071
210
0
220
0
230
1
0
CIRCLE
5
116
100
AcDbEntity
8
0
100
AcDbCircle
10
152.5000000000006
20
46.000000000000099
30
0
40
7.5000000000000044
210
0
220
0
230
1
0
LWPOLYLINE
5
117
100
AcDbEntity
8
0
100
AcDbPolyline
90
16
70
1
43
0.0
10
46.149999999970426
20
406.62630919734909
42
0.27308447681393877
10
47.699999999970416
20
409.25261839468283
10
47.699999999970558
20
468.99999999997783
42
-0.41421356237309315
10
59.999999999885254
20
481.29999999989258
10
190.00000000000762
20
481.30000000001519
42
-0.41421356237309587
10
202.29999999997074
20
469.00000000005235
10
202.29999999997068
20
409.25261839468277
42
0.27308447681391795
10
203.84999999997066
20
406.62630919734903
42
-0.59018184209748381
10
203.84999999997066
20
401.37369080268149
42
0.27308447681391823
10
202.29999999997065
20
398.74738160534775
10
202.29999999997079
20
338.9999999999809
42
-0.41421356237315937
10
190.00000000000509
20
326.70000000001232
10
59.999999999873751
20
326.70000000001522
42
-0.41421356237309698
10
47.699999999970366
20
338.99999999991871
10
47.699999999970473
20
398.7473816053477
42
0.27308447681395304
10
46.149999999970362
20
401.37369080268144
42
-0.59018184209747837
0
LWPOLYLINE
5
118
100
AcDbEntity
8
0
100
AcDbPolyline
90
16
70
1
43
0.0
10
-46.149999999970419
20
401.37369080268149
42
0.27308447681393422
10
-47.69999999997043
20
398.7473816053477
10
-47.699999999970437
20
338.99999999991871
42
-0.41421356237309803
10
-59.999999999873751
20
326.70000000001522
10
-190.00000000000509
20
326.70000000001215
42
-0.41421356237315937
10
-202.29999999997079
20
338.9999999999809
10
-202.29999999997068
20
398.74738160534775
42
0.27308447681391795
10
-203.84999999997066
20
401.37369080268149
42
-0.59018184209748048
10
-203.84999999997063
20
406.62630919734903
42
0.27308447681391546
10
-202.29999999997062
20
409.25261839468277
10
-202.29999999997068
20
469.00000000005235
42
-0.41421356237308826
10
-190.00000000000762
20
481.30000000001519
10
-59.999999999885247
20
481.29999999989258
42
-0.41421356237309098
10
-47.69999999997053
20
468.99999999997783
10
-47.699999999970466
20
409.25261839468283
42
0.27308447681393455
10
-46.149999999970497
20
406.62630919734909
42
-0.59018184209747504
0
LWPOLYLINE
5
119
100
AcDbEntity
8
0
100
AcDbPolyline
90
16
70
1
43
0.0
10
1.8464671309561729
20
487.32886003622366
42
0.24539268395648103
10
4.3084225508996354
20
486.04314575051012
10
12.499999999999945
20
486.04314575050779
42
-0.41421356237309087
10
24.543145750507268
20
474.00000000000028
10
24.5431457505073
20
334.00000000000057
42
-0.4142135623730947
10
12.499999999999931
20
321.95685424949318
10
4.3084225508998486
20
321.95685424949056
42
0.24539268395644032
10
1.8464671309563481
20
320.67113996377685
42
-0.52223296786710682
10
-1.8464659989609367
20
320.67113996377776
42
0.24539268395666264
10
-4.3084214189062653
20
321.95685424949272
10
-12.500000000000151
20
321.95685424949289
42
-0.41421356237309176
10
-24.543145750507534
20
334.0000000000004
10
-24.543145750507598
20
474.00000000000011
42
-0.41421356237309542
10
-12.500000000000133
20
486.04314575050756
10
-4.3084214189065673
20
486.04314575050756
42
0.24539268395669631
10
-1.846465998961192
20
487.32886003622252
42
-0.52223296786711459
0
LWPOLYLINE
5
120
100
AcDbEntity
8
0
100
AcDbPolyline
90
25
70
1
43
0.0
10
-164.85719277943576
20
40.947368421052623
42
0.33820160067987398
10
-170.16333305780569
20
45
10
-174.39999999999998
20
45.000000000000007
42
-0.99999999999999989
10
-174.39999999999998
20
60.000000000000007
10
-170.90000000000003
20
60
42
0.41421356237309553
10
-165.40000000000006
20
65.5
10
-165.40000000000006
20
164.99999999999989
42
-0.41421356237309365
10
-149.99999999999994
20
180.40000000000003
10
-124.83761304761256
20
180.40000000000006
42
0.18468790121985804
10
-121.5013281870782
20
181.67586206896559
42
-0.38242000377663687
10
-118.49867181259738
20
181.67586206896556
42
0.18468790121985734
10
-115.16238695206304
20
180.39999999999998
10
-89.99999999967568
20
180.39999999999998
42
-0.41421356237309437
10
-74.599999999675703
20
165.00000000000003
10
-74.600000000018952
20
45.000000000024556
42
-0.12153657741594673
10
-76.367211371171635
20
37.837104342402242
42
0.17376882253460363
10
-76.836865956785928
20
34.496445324868155
42
-0.53972667052924228
10
-79.496851656387832
20
31.836541733825321
42
0.17376882253460701
10
-82.837525169873132
20
31.366990269640141
42
-0.12152874630075851
10
-89.999999999972658
20
29.599999999992637
10
-150.00000000000006
20
29.599999999999994
42
-0.12171122277105595
10
-157.17227874918308
20
31.372145526752313
42
0.16487065720567246
10
-160.34261779528575
20
31.876166316063706
42
-0.57031161009782427
10
-163.15366891215334
20
34.540495518686789
42
0.1345494820710775
10
-163.26748304046009
20
37.18118335225175
42
-0.06665767469801806
0
LWPOLYLINE
5
121
100
AcDbEntity
8
0
100
AcDbPolyline
90
46
70
1
43
0.0
10
-249.5
20
12.249999999999998
42
0.41421356237309664
10
-247.5
20
10.249999999999995
10
-242.93000000000006
20
10.249999999999993
42
-0.41421356237309598
10
-240.93000000000006
20
8.2499999999999929
10
-240.93000000000004
20
1.9999999999999929
42
0.4142135623730937
10
-238.93000000000004
20
8.8817841970012523e-15
10
238.92999999999998
20
0
42
0.41421356237310158
10
240.93000000000001
20
1.9999999999999931
10
240.93000000000004
20
8.2500000000000107
42
-0.41421356237309404
10
242.93000000000004
20
10.250000000000004
10
247.5
20
10.249999999999986
42
0.41421356237309664
10
249.5
20
12.250000000000004
10
249.50000000000006
20
18.500000000000004
42
-0.41421356237309503
10
251.50000000000006
20
20.500000000000004
10
268
20
20.500000000000004
42
0.4142135623730937
10
270
20
22.5
10
270
20
517.5
42
0.41421356237310542
10
268
20
519.5
10
243.43000000000004
20
519.5
42
-0.41421356237309503
10
241.43000000000004
20
521.5
10
241.43000000000001
20
535.50000804662625
42
0.414213562373069
10
239.43000000000001
20
537.50000804662625
10
56.0830019169547
20
537.50000804662704
42
0.41421356237307683
10
55.08300191695475
20
536.50000804662704
10
55.083001916954721
20
535.59808425798042
42
0.26794919243115384
10
55.833001916954686
20
534.29904615230373
42
-0.26794919243113047
10
56.583001916954728
20
533.00000804662704
10
56.583001916954736
20
529.00000804662693
42
-0.26794919243112902
10
55.8330019169547
20
527.70096994095024
42
0.26794919243114013
10
55.08300191695475
20
526.40193183527367
10
55.0830019169547
20
524.00000804662704
42
-0.41421356237309503
10
53.583001916954714
20
522.50000804662716
10
42.583001916954721
20
522.50000804662704
42
-0.41421356237309503
10
41.083001916954714
20
524.00000804662704
10
41.0830019169547
20
535.50000804662704
42
0.41421356237307355
10
39.083001916954714
20
537.50000804662716
10
-239.43000000000001
20
537.5000080466283
42
0.41421356237308982
10
-241.43000000000001
20
535.5000080466283
10
-241.42999999999998
20
521.5
42
-0.41421356237309503
10
-243.43000000000001
20
519.5
10
-268
20
519.5
42
0.41421356237308982
10
-270
20
517.5
10
-270
20
22.5
42
0.41421356237309631
10
-268
20
20.5
10
-251.50000000000003
20
20.499999999999993
42
-0.41421356237309503
10
-249.50000000000003
20
18.5
0
ENDSEC
0
SECTION
2
OBJECTS
0
DICTIONARY
5
C
100
AcDbDictionary
3
ACAD_GROUP
350
D
3
ACAD_MLINESTYLE
350
17
0
DICTIONARY
5
D
100
AcDbDictionary
0
DICTIONARY
5
1A
330
C
100
AcDbDictionary
0
DICTIONARY
5
17
100
AcDbDictionary
0
ENDSEC
0
EOF
