0
SECTION
2
HEADER
9
$INSUNITS
70
4
9
$ACADVER
1
AC1014
9
$HANDSEED
5
FFFF
0
ENDSEC
0
SECTION
2
TABLES
0
TABLE
2
VPORT
5
8
100
AcDbSymbolTable
0
ENDTAB
0
TABLE
2
LTYPE
5
5
100
AcDbSymbolTable
0
LTYPE
5
14
100
AcDbSymbolTableRecord
100
AcDbLinetypeTableRecord
2
BYBLOCK
70
0
0
LTYPE
5
15
100
AcDbSymbolTableRecord
100
AcDbLinetypeTableRecord
2
BYLAYER
70
0
0
LTYPE
5
16
100
AcDbSymbolTableRecord
100
AcDbLinetypeTableRecord
2
DASHED
70
0
3
Dashed __ __ __ __ __ __ __ __ __ __ __ __ __ _
72
65
73
2
40
0.75
49
0.5
74
0
49
-0.25
74
0
0
ENDTAB
0
TABLE
2
LAYER
5
2
100
AcDbSymbolTable
70
2
0
LAYER
5
50
100
AcDbSymbolTableRecord
100
AcDbLayerTableRecord
2
0
70
0
62
7
6
CONTINUOUS
0
ENDTAB
0
TABLE
2
STYLE
5
3
100
AcDbSymbolTable
70
1
0
STYLE
5
11
100
AcDbSymbolTableRecord
100
AcDbTextStyleTableRecord
2
STANDARD
70
0
0
ENDTAB
0
TABLE
2
VIEW
5
6
100
AcDbSymbolTable
70
0
0
ENDTAB
0
TABLE
2
UCS
5
7
100
AcDbSymbolTable
70
0
0
ENDTAB
0
TABLE
2
APPID
5
9
100
AcDbSymbolTable
70
2
0
APPID
5
12
100
AcDbSymbolTableRecord
100
AcDbRegAppTableRecord
2
ACAD
70
0
0
ENDTAB
0
TABLE
2
DIMSTYLE
5
A
100
AcDbSymbolTable
70
1
0
ENDTAB
0
TABLE
2
BLOCK_RECORD
5
1
100
AcDbSymbolTable
70
1
0
BLOCK_RECORD
5
1F
100
AcDbSymbolTableRecord
100
AcDbBlockTableRecord
2
*MODEL_SPACE
0
BLOCK_RECORD
5
1B
100
AcDbSymbolTableRecord
100
AcDbBlockTableRecord
2
*PAPER_SPACE
0
ENDTAB
0
ENDSEC
0
SECTION
2
BLOCKS
0
BLOCK
5
20
100
AcDbEntity
100
AcDbBlockBegin
2
*MODEL_SPACE
0
ENDBLK
5
21
100
AcDbEntity
100
AcDbBlockEnd
0
BLOCK
5
1C
100
AcDbEntity
100
AcDbBlockBegin
2
*PAPER_SPACE
0
ENDBLK
5
1D
100
AcDbEntity
100
AcDbBlockEnd
0
ENDSEC
0
SECTION
2
ENTITIES
0
ARC
5
100
100
AcDbEntity
8
0
100
AcDbCircle
10
268.00000014901161
20
276.39999998510734
30
0
40
1.9999999999999929
210
0
220
0
230
1
100
AcDbArc
50
0
51
90
0
LINE
5
101
100
AcDbEntity
8
0
100
AcDbLine
10
268.00000014901161
20
278.39999998510734
30
0
11
255.10000014901127
21
278.3999999851074
31
0
0
ARC
5
102
100
AcDbEntity
8
0
100
AcDbCircle
10
255.10000014901124
20
284.80000000000848
30
0
40
6.4000000149010905
210
0
220
0
230
1
100
AcDbArc
50
190.14157364703306
51
270.00000000000023
0
LINE
5
103
100
AcDbEntity
8
0
100
AcDbLine
10
248.7999958127736
20
283.67308138976153
30
0
11
248.7999958127736
21
295.00000499188894
31
0
0
ARC
5
104
100
AcDbEntity
8
0
100
AcDbCircle
10
244.99999582767472
20
295.00000499188889
30
0
40
3.7999999850988786
210
0
220
-0
230
1
100
AcDbArc
50
0
51
89.999999999999588
0
LINE
5
105
100
AcDbEntity
8
0
100
AcDbLine
10
244.99999582767475
20
298.80000497698779
30
0
11
233.6730293256571
21
298.80000497698779
31
0
0
ARC
5
106
100
AcDbEntity
8
0
100
AcDbCircle
10
234.79999999996889
20
305.0999999999998
30
0
40
6.4000000149011882
210
0
220
0
230
1
100
AcDbArc
50
180
51
259.8579528527556
0
LINE
5
107
100
AcDbEntity
8
0
100
AcDbLine
10
228.39999998506769
20
305.0999999999998
30
0
11
228.39999998506769
21
317.99999999999989
31
0
0
ARC
5
108
100
AcDbEntity
8
0
100
AcDbCircle
10
226.39999998506769
20
317.99999999999989
30
0
40
1.9999999999999929
210
0
220
0
230
1
100
AcDbArc
50
0
51
90
0
LINE
5
109
100
AcDbEntity
8
0
100
AcDbLine
10
226.39999998506769
20
319.99999999999989
30
0
11
225.09999582767477
21
320.00000476837158
31
0
0
LINE
5
110
100
AcDbEntity
8
0
100
AcDbLine
10
225.09999582767477
20
320.00000476837158
30
0
11
-225.09999582767477
21
319.99999999999994
31
0
0
LINE
5
111
100
AcDbEntity
8
0
100
AcDbLine
10
-225.09999582767477
20
319.99999999999994
30
0
11
-226.39999998506769
21
319.99999999999994
31
0
0
ARC
5
112
100
AcDbEntity
8
0
100
AcDbCircle
10
-226.39999998506769
20
317.99999999999994
30
0
40
1.9999999999999929
210
0
220
-0
230
1
100
AcDbArc
50
90
51
180
0
LINE
5
113
100
AcDbEntity
8
0
100
AcDbLine
10
-228.39999998506769
20
317.99999999999994
30
0
11
-228.39999998506772
21
305.0999999999998
31
0
0
ARC
5
114
100
AcDbEntity
8
0
100
AcDbCircle
10
-234.79999999996889
20
305.0999999999998
30
0
40
6.4000000149011385
210
0
220
0
230
1
100
AcDbArc
50
-79.857952852755929
51
0
0
LINE
5
115
100
AcDbEntity
8
0
100
AcDbLine
10
-233.67302932565713
20
298.80000497698779
30
0
11
-244.99999582767472
21
298.80000497698779
31
0
0
ARC
5
116
100
AcDbEntity
8
0
100
AcDbCircle
10
-244.99999582767472
20
295.00000499188889
30
0
40
3.7999999850988786
210
0
220
-0
230
1
100
AcDbArc
50
90
51
180
0
LINE
5
117
100
AcDbEntity
8
0
100
AcDbLine
10
-248.7999958127736
20
295.00000499188894
30
0
11
-248.7999958127736
21
283.67308138976159
31
0
0
ARC
5
118
100
AcDbEntity
8
0
100
AcDbCircle
10
-255.10000014901135
20
284.80000000000859
30
0
40
6.4000000149012237
210
0
220
0
230
1
100
AcDbArc
50
270.00000000000102
51
349.8584263529666
0
LINE
5
119
100
AcDbEntity
8
0
100
AcDbLine
10
-255.10000014901124
20
278.3999999851074
30
0
11
-268.00000014901156
21
278.39999998510734
31
0
0
ARC
5
120
100
AcDbEntity
8
0
100
AcDbCircle
10
-268.00000014901156
20
276.39999998510734
30
0
40
1.9999999999999929
210
0
220
-0
230
1
100
AcDbArc
50
90
51
180
0
LINE
5
121
100
AcDbEntity
8
0
100
AcDbLine
10
-270.00000014901156
20
276.39999998510734
30
0
11
-270.00000402331352
21
275.10000499188897
31
0
0
LINE
5
122
100
AcDbEntity
8
0
100
AcDbLine
10
-270.00000402331352
20
275.10000499188897
30
0
11
-270.00000014901156
21
-212.29999999999995
31
0
0
ARC
5
123
100
AcDbEntity
8
0
100
AcDbCircle
10
-265.30000014901157
20
-212.30000000000001
30
0
40
4.6999999999999886
210
0
220
0
230
1
100
AcDbArc
50
180
51
270
0
LINE
5
124
100
AcDbEntity
8
0
100
AcDbLine
10
-265.30000014901157
20
-217
30
0
11
-204.70000014901157
21
-217
31
0
0
SPLINE
5
125
100
AcDbEntity
8
0
100
AcDbSpline
70
4
71
5
72
21
73
15
74
0
42
0.000000001
43
0.0000000001
44
0.0000000001
40
0
40
0
40
0
40
0
40
0
40
0
40
0.10000000000000001
40
0.20000000000000001
40
0.30000000000000004
40
0.40000000000000002
40
0.5
40
0.59999999999999998
40
0.69999999999999996
40
0.79999999999999993
40
0.89999999999999991
40
1
40
1
40
1
40
1
40
1
40
1
41
1
41
1
41
1
41
1
41
1
41
1
41
1
41
1
41
1
41
1
41
1
41
1
41
1
41
1
41
1
10
-204.70000014901157
20
-217.00000323355198
30
0
10
-204.44564739595009
20
-217.0000025755817
30
0
10
-203.95234711977523
20
-216.97958118385029
30
0
10
-203.25860949408511
20
-216.88769271459273
30
0
10
-202.42134703906598
20
-216.6488979474255
30
0
10
-201.49418600197041
20
-216.19211353270691
30
0
10
-200.65064933696971
20
-215.62448217881547
30
0
10
-199.85000012164267
20
-215.00000175368496
30
0
10
-199.04935101078752
20
-214.37552076168257
30
0
10
-198.20581458470738
20
-213.80788811117066
30
0
10
-197.27865376019707
20
-213.3511025420222
30
0
10
-196.44139130203598
20
-213.11230779014383
30
0
10
-195.7476535028745
20
-213.02042026003966
30
0
10
-195.25435302467926
20
-212.99999996269725
30
0
10
-195.00000014901232
20
-212.99999996900431
30
0
0
LINE
5
126
100
AcDbEntity
8
0
100
AcDbLine
10
-195.00000014901232
20
-212.99999996900431
30
0
11
195.00000014901232
21
-212.99999996900431
31
0
0
SPLINE
5
127
100
AcDbEntity
8
0
100
AcDbSpline
70
4
71
5
72
21
73
15
74
0
42
0.000000001
43
0.0000000001
44
0.0000000001
40
-1
40
-1
40
-1
40
-1
40
-1
40
-1
40
-0.89999999999999991
40
-0.79999999999999993
40
-0.69999999999999996
40
-0.59999999999999998
40
-0.5
40
-0.40000000000000002
40
-0.30000000000000004
40
-0.20000000000000001
40
-0.10000000000000001
40
0
40
0
40
0
40
0
40
0
40
0
41
1
41
1
41
1
41
1
41
1
41
1
41
1
41
1
41
1
41
1
41
1
41
1
41
1
41
1
41
1
10
195.00000014901232
20
-212.99999996900431
30
0
10
195.25435302467926
20
-212.99999996269725
30
0
10
195.7476535028745
20
-213.02042026003966
30
0
10
196.44139130203598
20
-213.11230779014383
30
0
10
197.27865376019707
20
-213.3511025420222
30
0
10
198.20581458470738
20
-213.80788811117066
30
0
10
199.04935101078752
20
-214.37552076168257
30
0
10
199.85000012164267
20
-215.00000175368496
30
0
10
200.65064933696971
20
-215.62448217881547
30
0
10
201.49418600197041
20
-216.19211353270691
30
0
10
202.42134703906598
20
-216.6488979474255
30
0
10
203.25860949408511
20
-216.88769271459273
30
0
10
203.95234711977523
20
-216.97958118385029
30
0
10
204.44564739595009
20
-217.0000025755817
30
0
10
204.70000014901157
20
-217.00000323355198
30
0
0
LINE
5
128
100
AcDbEntity
8
0
100
AcDbLine
10
204.70000014901157
20
-217.00000323355198
30
0
11
265.30000014901157
21
-217
31
0
0
ARC
5
129
100
AcDbEntity
8
0
100
AcDbCircle
10
265.30000014901157
20
-212.30000000000001
30
0
40
4.6999999999999886
210
0
220
0
230
1
100
AcDbArc
50
-90
51
0
0
LINE
5
130
100
AcDbEntity
8
0
100
AcDbLine
10
270.00000014901156
20
-212.30000000000001
30
0
11
270.00000014901156
21
275.10000499188897
31
0
0
LINE
5
131
100
AcDbEntity
8
0
100
AcDbLine
10
270.00000014901156
20
275.10000499188897
30
0
11
270.00000014901156
21
276.39999998510734
31
0
0
LWPOLYLINE
5
132
100
AcDbEntity
8
0
100
AcDbPolyline
90
30
70
1
43
0.0
10
13.81579981743625
20
-63.335083926128213
10
-13.815799817436252
20
-63.335083926128213
42
-0.13165249758738848
10
-16.465799817436096
20
-62.62501856618573
10
-23.099774413652526
20
-58.794891547262999
42
-0.41421356237315105
10
-23.941632842356505
20
-55.65303311855839
10
-21.333193651317703
20
-51.135083911227426
42
0.26794919243117626
10
-21.333193651316719
20
-41.43508391122576
10
-64.057113562743879
20
32.564916073870023
42
-0.26794919243112214
10
-64.057113562743837
20
42.864916073870006
10
-51.651957959789854
20
64.351275853983935
10
-43.626346627952522
20
82.386134482701408
42
-0.29626415069230527
10
-36.50010121336139
20
87.014916058968993
10
-21.50010121336139
20
87.014916058968879
42
-0.36104797181011672
10
-13.833003823518402
20
80.648658579319758
10
-11.934152516278612
20
70.494340286607638
42
0.36104797181012971
10
-10.75459907168738
20
69.514916058969305
10
10.75459907168738
20
69.514916058969305
42
0.36104797181012505
10
11.934152516278612
20
70.494340286607638
10
13.833003823518396
20
80.648658579319758
42
-0.36104797181011694
10
21.50010121336139
20
87.014916058968879
10
36.50010121336139
20
87.014916058968979
42
-0.29626415069230405
10
43.626346627952515
20
82.386134482701408
10
51.651957959789854
20
64.351275853983935
10
64.057113562743837
20
42.864916073870006
42
-0.26794919243112214
10
64.057113562743865
20
32.564916073870023
10
21.333193651316719
20
-41.43508391122576
42
0.26794919243117554
10
21.333193651317703
20
-51.135083911227419
10
23.941632842356505
20
-55.65303311855839
42
-0.41421356237315149
10
23.099774413652526
20
-58.794891547262992
10
16.465799817436093
20
-62.62501856618573
42
-0.13165249758738848
0
LWPOLYLINE
5
133
100
AcDbEntity
8
0
100
AcDbPolyline
90
8
70
1
43
0.0
10
-12.5
20
291.85797374669329
10
12.5
20
291.85797374669329
42
-0.41421356237309503
10
15
20
289.35797374669329
10
15
20
286.35797374669329
42
-0.41421356237309503
10
12.5
20
283.85797374669329
10
-12.5
20
283.85797374669329
42
-0.41421356237309503
10
-15
20
286.35797374669329
10
-15
20
289.35797374669329
42
-0.41421356237309503
0
CIRCLE
5
134
100
AcDbEntity
8
0
100
AcDbCircle
10
42.137213562373091
20
287.85797374669329
30
0
40
1.749999999999998
210
0
220
0
230
1
0
CIRCLE
5
135
100
AcDbEntity
8
0
100
AcDbCircle
10
-42.137213562373091
20
287.85797374669329
30
0
40
1.7500000000000071
210
0
220
0
230
1
0
CIRCLE
5
136
100
AcDbEntity
8
0
100
AcDbCircle
10
-72.137213562373091
20
287.85797374669329
30
0
40
1.7499999999999805
210
0
220
-0
230
1
0
CIRCLE
5
137
100
AcDbEntity
8
0
100
AcDbCircle
10
72.137213562373091
20
287.85797374669329
30
0
40
1.7499999999999805
210
0
220
-0
230
1
0
CIRCLE
5
138
100
AcDbEntity
8
0
100
AcDbCircle
10
-26.529426672757332
20
-101.18043785436785
30
0
40
1.8499999999999981
210
0
220
0
230
1
0
CIRCLE
5
139
100
AcDbEntity
8
0
100
AcDbCircle
10
-47.58300191695632
20
-196.52018381652664
30
0
40
1.8499999999999981
210
0
220
0
230
1
0
CIRCLE
5
140
100
AcDbEntity
8
0
100
AcDbCircle
10
57.746240850016157
20
70.214909629009696
30
0
40
1.850000000000007
210
0
220
0
230
1
0
CIRCLE
5
141
100
AcDbEntity
8
0
100
AcDbCircle
10
195.28882976675385
20
-92.535083926116641
30
0
40
1.850000000000007
210
0
220
0
230
1
0
CIRCLE
5
142
100
AcDbEntity
8
0
100
AcDbCircle
10
-24.518483286687783
20
-68.252517517966794
30
0
40
1.8500000000000028
210
0
220
0
230
1
0
CIRCLE
5
143
100
AcDbEntity
8
0
100
AcDbCircle
10
78.375400255718688
20
200.46491607393034
30
0
40
1.8499999999999894
210
0
220
0
230
1
0
CIRCLE
5
144
100
AcDbEntity
8
0
100
AcDbCircle
10
-57.746038423294138
20
70.214909629009696
30
0
40
1.850000000000007
210
0
220
0
230
1
0
CIRCLE
5
145
100
AcDbEntity
8
0
100
AcDbCircle
10
72.174438361521212
20
45.224535017107627
30
0
40
1.8499999999999981
210
0
220
0
230
1
0
CIRCLE
5
146
100
AcDbEntity
8
0
100
AcDbCircle
10
-195.28862734003184
20
-92.535083926116641
30
0
40
1.850000000000007
210
0
220
0
230
1
0
CIRCLE
5
147
100
AcDbEntity
8
0
100
AcDbCircle
10
24.518685713409802
20
-68.252517517966794
30
0
40
1.8500000000000028
210
0
220
0
230
1
0
CIRCLE
5
148
100
AcDbEntity
8
0
100
AcDbCircle
10
-78.375197828996676
20
200.46491607393034
30
0
40
1.8499999999999894
210
0
220
0
230
1
0
CIRCLE
5
149
100
AcDbEntity
8
0
100
AcDbCircle
10
-72.174235934799199
20
45.224535017107627
30
0
40
1.8499999999999981
210
0
220
0
230
1
0
CIRCLE
5
150
100
AcDbEntity
8
0
100
AcDbCircle
10
-235.00000014901158
20
-207.00000161677596
30
0
40
1.7500000000000071
210
0
220
0
230
1
0
CIRCLE
5
151
100
AcDbEntity
8
0
100
AcDbCircle
10
-210.00000014901156
20
-207.00000280558183
30
0
40
1.7500000000000071
210
0
220
0
230
1
0
CIRCLE
5
152
100
AcDbEntity
8
0
100
AcDbCircle
10
-260.00000014901156
20
-207.00000042797004
30
0
40
1.7500000000000071
210
0
220
0
230
1
0
CIRCLE
5
153
100
AcDbEntity
8
0
100
AcDbCircle
10
260.00000014901156
20
-207.00000042797004
30
0
40
1.7500000000000071
210
0
220
0
230
1
0
CIRCLE
5
154
100
AcDbEntity
8
0
100
AcDbCircle
10
210.00000014901156
20
-207.00000280558183
30
0
40
1.7500000000000071
210
0
220
0
230
1
0
CIRCLE
5
155
100
AcDbEntity
8
0
100
AcDbCircle
10
235.00000014901158
20
-207.00000161677596
30
0
40
1.7500000000000071
210
0
220
0
230
1
0
CIRCLE
5
156
100
AcDbEntity
8
0
100
AcDbCircle
10
-260.00000014901156
20
269.10000499188897
30
0
40
1.7500000000000071
210
0
220
-0
230
1
0
CIRCLE
5
157
100
AcDbEntity
8
0
100
AcDbCircle
10
260.00000014901156
20
269.10000499188897
30
0
40
1.7500000000000071
210
0
220
-0
230
1
0
ENDSEC
0
SECTION
2
OBJECTS
0
DICTIONARY
5
C
100
AcDbDictionary
3
ACAD_GROUP
350
D
3
ACAD_MLINESTYLE
350
17
0
DICTIONARY
5
D
100
AcDbDictionary
0
DICTIONARY
5
1A
330
C
100
AcDbDictionary
0
DICTIONARY
5
17
100
AcDbDictionary
0
ENDSEC
0
EOF
