0
SECTION
2
HEADER
9
$INSUNITS
70
4
9
$ACADVER
1
AC1014
9
$HANDSEED
5
FFFF
0
ENDSEC
0
SECTION
2
TABLES
0
TABLE
2
VPORT
5
8
100
AcDbSymbolTable
0
ENDTAB
0
TABLE
2
LTYPE
5
5
100
AcDbSymbolTable
0
LTYPE
5
14
100
AcDbSymbolTableRecord
100
AcDbLinetypeTableRecord
2
BYBLOCK
70
0
0
LTYPE
5
15
100
AcDbSymbolTableRecord
100
AcDbLinetypeTableRecord
2
BYLAYER
70
0
0
LTYPE
5
16
100
AcDbSymbolTableRecord
100
AcDbLinetypeTableRecord
2
DASHED
70
0
3
Dashed __ __ __ __ __ __ __ __ __ __ __ __ __ _
72
65
73
2
40
0.75
49
0.5
74
0
49
-0.25
74
0
0
ENDTAB
0
TABLE
2
LAYER
5
2
100
AcDbSymbolTable
70
2
0
LAYER
5
50
100
AcDbSymbolTableRecord
100
AcDbLayerTableRecord
2
0
70
0
62
7
6
CONTINUOUS
0
ENDTAB
0
TABLE
2
STYLE
5
3
100
AcDbSymbolTable
70
1
0
STYLE
5
11
100
AcDbSymbolTableRecord
100
AcDbTextStyleTableRecord
2
STANDARD
70
0
0
ENDTAB
0
TABLE
2
VIEW
5
6
100
AcDbSymbolTable
70
0
0
ENDTAB
0
TABLE
2
UCS
5
7
100
AcDbSymbolTable
70
0
0
ENDTAB
0
TABLE
2
APPID
5
9
100
AcDbSymbolTable
70
2
0
APPID
5
12
100
AcDbSymbolTableRecord
100
AcDbRegAppTableRecord
2
ACAD
70
0
0
ENDTAB
0
TABLE
2
DIMSTYLE
5
A
100
AcDbSymbolTable
70
1
0
ENDTAB
0
TABLE
2
BLOCK_RECORD
5
1
100
AcDbSymbolTable
70
1
0
BLOCK_RECORD
5
1F
100
AcDbSymbolTableRecord
100
AcDbBlockTableRecord
2
*MODEL_SPACE
0
BLOCK_RECORD
5
1B
100
AcDbSymbolTableRecord
100
AcDbBlockTableRecord
2
*PAPER_SPACE
0
ENDTAB
0
ENDSEC
0
SECTION
2
BLOCKS
0
BLOCK
5
20
100
AcDbEntity
100
AcDbBlockBegin
2
*MODEL_SPACE
0
ENDBLK
5
21
100
AcDbEntity
100
AcDbBlockEnd
0
BLOCK
5
1C
100
AcDbEntity
100
AcDbBlockBegin
2
*PAPER_SPACE
0
ENDBLK
5
1D
100
AcDbEntity
100
AcDbBlockEnd
0
ENDSEC
0
SECTION
2
ENTITIES
0
CIRCLE
5
100
100
AcDbEntity
8
0
100
AcDbCircle
10
242.49999999996888
20
35.250000000000163
30
0
40
1.7500000000000071
210
-1.7105694144585363e-49
220
5.2710989716130952e-82
230
1
0
CIRCLE
5
101
100
AcDbEntity
8
0
100
AcDbCircle
10
68.999999999978826
20
501.25000886982917
30
0
40
1.7500000000000071
210
-1.7105694144585363e-49
220
5.2710989716130952e-82
230
1
0
CIRCLE
5
102
100
AcDbEntity
8
0
100
AcDbCircle
10
25.499999999997275
20
316.38619350949637
30
3.5527136788005009e-14
40
1.7500000000000113
210
-1.7105694144585363e-49
220
5.2710989716130958e-82
230
1
0
CIRCLE
5
103
100
AcDbEntity
8
0
100
AcDbCircle
10
13.249979883430019
20
236.3861935095031
30
0
40
1.7500000000000093
210
-1.7105694144585363e-49
220
5.2710989716130952e-82
230
1
0
CIRCLE
5
104
100
AcDbEntity
8
0
100
AcDbCircle
10
68.999999999978826
20
466.75000886982912
30
0
40
1.749999999999998
210
-1.7105694144585369e-49
220
-6.1629758220391561e-33
230
1
0
CIRCLE
5
105
100
AcDbEntity
8
0
100
AcDbCircle
10
235.24999999996891
20
511.99999999999977
30
0
40
1.7500000000000426
210
-1.7105694144585361e-49
220
6.1629758220391547e-33
230
1
0
CIRCLE
5
106
100
AcDbEntity
8
0
100
AcDbCircle
10
235.24999999996885
20
28.000000000000149
30
0
40
1.7500000000000071
210
-1.7105694144585363e-49
220
5.2710989716130952e-82
230
1
0
LWPOLYLINE
5
107
100
AcDbEntity
8
0
100
AcDbPolyline
90
4
70
1
43
0.0
10
9.3999999999963286
20
261.422321201253
10
9.3999999999963286
20
271.35006011804569
42
-0.56001611624736236
10
25.599999999996324
20
271.35006011804569
10
25.599999999996324
20
261.422321201253
42
-0.56001611624736647
0
CIRCLE
5
108
100
AcDbEntity
8
0
100
AcDbCircle
10
13.250020116564546
20
296.3861935094896
30
0
40
1.7499999999999847
210
-1.7105694144585369e-49
220
-6.1629758220391561e-33
230
1
0
CIRCLE
5
109
100
AcDbEntity
8
0
100
AcDbCircle
10
25.499999999997286
20
216.38619350949639
30
0
40
1.7499999999999847
210
-1.7105694144585369e-49
220
-6.1629758220391561e-33
230
1
0
CIRCLE
5
110
100
AcDbEntity
8
0
100
AcDbCircle
10
242.49999999996891
20
504.74999999999972
30
0
40
1.7500000000000071
210
-1.7105694144585363e-49
220
5.2710989716130952e-82
230
1
0
LWPOLYLINE
5
111
100
AcDbEntity
8
0
100
AcDbPolyline
90
24
70
1
43
0.0
10
64.00000000003233
20
518.5
42
0.41421356237309709
10
61.500000000032308
20
516
10
61.500000000032394
20
459.00000000000637
42
-0.4142135623730942
10
40.000000000032401
20
437.50000000000631
10
3.4999999999999032
20
437.50000000000631
42
0.41421356237309775
10
0.99999999999987987
20
435.00000000000631
10
1.0000000000000342
20
32.999989888891577
42
0.41421356237309243
10
3.500000000000032
20
30.499989888891591
10
28.500000014901072
20
30.499989888891594
42
-0.41421356237309398
10
31.000000014901072
20
27.999989888891605
10
31.000000014901218
20
23.999999999999915
42
0.41421356237308565
10
33.500000014901218
20
21.500000000000004
10
235.95494122074251
20
21.500000000000018
42
0.54648811547852238
10
237.77305987615978
20
24.333333399560747
42
-0.32522227575008911
10
238.14534279299903
20
26.178480993400509
10
244.41778787326496
20
31.938536613203183
42
-0.28896916743100853
10
246.09701486308336
20
32.24449944319246
42
0.53120051210824404
10
248.49999999999997
20
33.868109744639824
10
248.50000000000006
20
506.13189025536019
42
0.53120051210822139
10
246.09701486308353
20
507.75550055680748
42
-0.28896916743102646
10
244.41778787326501
20
508.06146338679667
10
238.14534279299903
20
513.82151900659937
42
-0.32522227575013313
10
237.77305987615989
20
515.66666660043938
42
0.54648811547850529
10
235.95494122074257
20
518.5
0
ENDSEC
0
SECTION
2
OBJECTS
0
DICTIONARY
5
C
100
AcDbDictionary
3
ACAD_GROUP
350
D
3
ACAD_MLINESTYLE
350
17
0
DICTIONARY
5
D
100
AcDbDictionary
0
DICTIONARY
5
1A
330
C
100
AcDbDictionary
0
DICTIONARY
5
17
100
AcDbDictionary
0
ENDSEC
0
EOF
