0
SECTION
2
HEADER
9
$INSUNITS
70
4
9
$ACADVER
1
AC1014
9
$HANDSEED
5
FFFF
0
ENDSEC
0
SECTION
2
TABLES
0
TABLE
2
VPORT
5
8
100
AcDbSymbolTable
0
ENDTAB
0
TABLE
2
LTYPE
5
5
100
AcDbSymbolTable
0
LTYPE
5
14
100
AcDbSymbolTableRecord
100
AcDbLinetypeTableRecord
2
BYBLOCK
70
0
0
LTYPE
5
15
100
AcDbSymbolTableRecord
100
AcDbLinetypeTableRecord
2
BYLAYER
70
0
0
LTYPE
5
16
100
AcDbSymbolTableRecord
100
AcDbLinetypeTableRecord
2
DASHED
70
0
3
Dashed __ __ __ __ __ __ __ __ __ __ __ __ __ _
72
65
73
2
40
0.75
49
0.5
74
0
49
-0.25
74
0
0
ENDTAB
0
TABLE
2
LAYER
5
2
100
AcDbSymbolTable
70
2
0
LAYER
5
50
100
AcDbSymbolTableRecord
100
AcDbLayerTableRecord
2
0
70
0
62
7
6
CONTINUOUS
0
ENDTAB
0
TABLE
2
STYLE
5
3
100
AcDbSymbolTable
70
1
0
STYLE
5
11
100
AcDbSymbolTableRecord
100
AcDbTextStyleTableRecord
2
STANDARD
70
0
0
ENDTAB
0
TABLE
2
VIEW
5
6
100
AcDbSymbolTable
70
0
0
ENDTAB
0
TABLE
2
UCS
5
7
100
AcDbSymbolTable
70
0
0
ENDTAB
0
TABLE
2
APPID
5
9
100
AcDbSymbolTable
70
2
0
APPID
5
12
100
AcDbSymbolTableRecord
100
AcDbRegAppTableRecord
2
ACAD
70
0
0
ENDTAB
0
TABLE
2
DIMSTYLE
5
A
100
AcDbSymbolTable
70
1
0
ENDTAB
0
TABLE
2
BLOCK_RECORD
5
1
100
AcDbSymbolTable
70
1
0
BLOCK_RECORD
5
1F
100
AcDbSymbolTableRecord
100
AcDbBlockTableRecord
2
*MODEL_SPACE
0
BLOCK_RECORD
5
1B
100
AcDbSymbolTableRecord
100
AcDbBlockTableRecord
2
*PAPER_SPACE
0
ENDTAB
0
ENDSEC
0
SECTION
2
BLOCKS
0
BLOCK
5
20
100
AcDbEntity
100
AcDbBlockBegin
2
*MODEL_SPACE
0
ENDBLK
5
21
100
AcDbEntity
100
AcDbBlockEnd
0
BLOCK
5
1C
100
AcDbEntity
100
AcDbBlockBegin
2
*PAPER_SPACE
0
ENDBLK
5
1D
100
AcDbEntity
100
AcDbBlockEnd
0
ENDSEC
0
SECTION
2
ENTITIES
0
CIRCLE
5
100
100
AcDbEntity
8
0
100
AcDbCircle
10
68.999999999978826
20
466.75000886982912
30
0
40
1.749999999999998
210
0
220
0
230
1
0
CIRCLE
5
101
100
AcDbEntity
8
0
100
AcDbCircle
10
68.999999999978826
20
501.25000886982917
30
0
40
1.7500000000000071
210
0
220
-0
230
1
0
LINE
5
102
100
AcDbEntity
8
0
100
AcDbLine
10
40.000000000032401
20
437.50000000000631
30
0
11
3.4999999999998987
21
437.50000000000631
31
0
0
ARC
5
103
100
AcDbEntity
8
0
100
AcDbCircle
10
3.4999999999998801
20
435.00000000000631
30
0
40
2.5
210
0
220
-0
230
1
100
AcDbArc
50
89.999999999999588
51
180
0
LINE
5
104
100
AcDbEntity
8
0
100
AcDbLine
10
0.99999999999987987
20
435.00000000000631
30
0
11
0.99999999999988098
21
429.00000000000654
31
0
0
LINE
5
105
100
AcDbEntity
8
0
100
AcDbLine
10
0.99999999999988098
20
429.00000000000654
30
0
11
39.999999999967642
21
429.00000000000648
31
0
0
ARC
5
106
100
AcDbEntity
8
0
100
AcDbCircle
10
39.999999999967557
20
459.00000000000654
30
0
40
30.000000000000071
210
-0
220
0
230
1
100
AcDbArc
50
270.00000000000017
51
309.14233071986666
0
SPLINE
5
107
100
AcDbEntity
8
0
100
AcDbSpline
70
4
71
3
72
19
73
15
74
0
42
0.000000001
43
0.0000000001
44
0.0000000001
40
-1
40
-1
40
-1
40
-1
40
-0.88331510425003512
40
-0.88331510425003512
40
-0.70000000000000251
40
-0.70000000000000251
40
-0.50000000000000422
40
-0.50000000000000422
40
-0.50000000000000422
40
-0.25000000000000622
40
-0.25000000000000622
40
-0.1000000000000075
40
-0.1000000000000075
40
-8.3266726846886741e-15
40
-8.3266726846886741e-15
40
-8.3266726846886741e-15
40
-8.3266726846886741e-15
41
1
41
1
41
1
41
1
41
1
41
1
41
1
41
1
41
1
41
1
41
1
41
1
41
1
41
1
41
1
10
58.937469593023707
20
435.73259263692017
30
0
10
60.083805095598692
20
436.66560992146481
30
0
10
61.145876876805886
20
437.50716408231472
30
0
10
63.69799995200335
20
439.47352596767041
30
0
10
65.088830838739256
20
440.48431886764558
30
0
10
67.896767838877452
20
442.50809587035855
30
0
10
69.321480557447529
20
443.5208866421724
30
0
10
70.755748186733996
20
444.70860451414944
30
0
10
72.548582723342051
20
446.1932518541206
30
0
10
74.361088802591425
20
447.95835889661032
30
0
10
76.566002183695616
20
451.6634002621123
30
0
10
77.224777958445145
20
453.24822953447688
30
0
10
77.865520225089966
20
456.27205249245401
30
0
10
77.999999999967699
20
457.58331406163632
30
0
10
77.999999999967699
20
459.00000000000631
30
0
0
LINE
5
108
100
AcDbEntity
8
0
100
AcDbLine
10
77.999999999967685
20
459.00000000000637
30
0
11
77.999999999967656
21
518.50000772625208
31
0
0
LINE
5
109
100
AcDbEntity
8
0
100
AcDbLine
10
77.999999999967656
20
518.50000772625208
30
0
11
64.000000000032315
21
518.5
31
0
0
ARC
5
110
100
AcDbEntity
8
0
100
AcDbCircle
10
64.000000000032301
20
516
30
0
40
2.5
210
0
220
-0
230
1
100
AcDbArc
50
89.999999999999673
51
180
0
LINE
5
111
100
AcDbEntity
8
0
100
AcDbLine
10
61.500000000032308
20
516
30
0
11
61.500000000032394
21
459.00000000000637
31
0
0
ARC
5
112
100
AcDbEntity
8
0
100
AcDbCircle
10
39.999999999967557
20
459.00000000000654
30
0
40
21.500000000000199
210
0
220
0
230
1
100
AcDbArc
50
270.0000000001728
51
360
0
ENDSEC
0
SECTION
2
OBJECTS
0
DICTIONARY
5
C
100
AcDbDictionary
3
ACAD_GROUP
350
D
3
ACAD_MLINESTYLE
350
17
0
DICTIONARY
5
D
100
AcDbDictionary
0
DICTIONARY
5
1A
330
C
100
AcDbDictionary
0
DICTIONARY
5
17
100
AcDbDictionary
0
ENDSEC
0
EOF
