0
SECTION
2
HEADER
9
$INSUNITS
70
4
9
$ACADVER
1
AC1014
9
$HANDSEED
5
FFFF
0
ENDSEC
0
SECTION
2
TABLES
0
TABLE
2
VPORT
5
8
100
AcDbSymbolTable
0
ENDTAB
0
TABLE
2
LTYPE
5
5
100
AcDbSymbolTable
0
LTYPE
5
14
100
AcDbSymbolTableRecord
100
AcDbLinetypeTableRecord
2
BYBLOCK
70
0
0
LTYPE
5
15
100
AcDbSymbolTableRecord
100
AcDbLinetypeTableRecord
2
BYLAYER
70
0
0
LTYPE
5
16
100
AcDbSymbolTableRecord
100
AcDbLinetypeTableRecord
2
DASHED
70
0
3
Dashed __ __ __ __ __ __ __ __ __ __ __ __ __ _
72
65
73
2
40
0.75
49
0.5
74
0
49
-0.25
74
0
0
ENDTAB
0
TABLE
2
LAYER
5
2
100
AcDbSymbolTable
70
2
0
LAYER
5
50
100
AcDbSymbolTableRecord
100
AcDbLayerTableRecord
2
0
70
0
62
7
6
CONTINUOUS
0
ENDTAB
0
TABLE
2
STYLE
5
3
100
AcDbSymbolTable
70
1
0
STYLE
5
11
100
AcDbSymbolTableRecord
100
AcDbTextStyleTableRecord
2
STANDARD
70
0
0
ENDTAB
0
TABLE
2
VIEW
5
6
100
AcDbSymbolTable
70
0
0
ENDTAB
0
TABLE
2
UCS
5
7
100
AcDbSymbolTable
70
0
0
ENDTAB
0
TABLE
2
APPID
5
9
100
AcDbSymbolTable
70
2
0
APPID
5
12
100
AcDbSymbolTableRecord
100
AcDbRegAppTableRecord
2
ACAD
70
0
0
ENDTAB
0
TABLE
2
DIMSTYLE
5
A
100
AcDbSymbolTable
70
1
0
ENDTAB
0
TABLE
2
BLOCK_RECORD
5
1
100
AcDbSymbolTable
70
1
0
BLOCK_RECORD
5
1F
100
AcDbSymbolTableRecord
100
AcDbBlockTableRecord
2
*MODEL_SPACE
0
BLOCK_RECORD
5
1B
100
AcDbSymbolTableRecord
100
AcDbBlockTableRecord
2
*PAPER_SPACE
0
ENDTAB
0
ENDSEC
0
SECTION
2
BLOCKS
0
BLOCK
5
20
100
AcDbEntity
100
AcDbBlockBegin
2
*MODEL_SPACE
0
ENDBLK
5
21
100
AcDbEntity
100
AcDbBlockEnd
0
BLOCK
5
1C
100
AcDbEntity
100
AcDbBlockBegin
2
*PAPER_SPACE
0
ENDBLK
5
1D
100
AcDbEntity
100
AcDbBlockEnd
0
ENDSEC
0
SECTION
2
ENTITIES
0
LWPOLYLINE
5
100
100
AcDbEntity
8
0
100
AcDbPolyline
90
52
70
1
43
0.0
10
-37.49999791383744
20
-271.66369258313603
42
0.15686008726290041
10
-38.249998956918738
20
-269.33184636607382
42
-0.32163400724863889
10
-38.249998956918738
20
-264.6681539319494
42
0.15686008726290579
10
-37.499997913837447
20
-262.3363077148872
10
-37.499997913837433
20
-259.00000000000006
42
0.41421356237309631
10
-39.499997913837433
20
-257.00000000000006
10
-221.50000000000009
20
-257
42
0.41421356237309503
10
-223.50000000000009
20
-259
10
-223.50000000000009
20
-282.99999998882413
42
-0.41421356237309503
10
-225.50000000000009
20
-284.99999998882413
10
-259.00000000000011
20
-284.99999998882413
42
-0.41421356237309503
10
-261.00000000000011
20
-282.99999998882419
10
-261.00000000000011
20
-259
42
0.41421356237309503
10
-263.00000000000006
20
-257
10
-278
20
-257
42
0.41421356237309503
10
-279.99999999999994
20
-259
10
-280
20
-308.00000499188866
42
0.41421356237310542
10
-278.00000000000006
20
-310.00000499188866
10
-264.99999582767492
20
-310.00000499188872
42
-0.41421356237309293
10
-259.99999582767492
20
-315.00000499188866
10
-259.99999582767492
20
-330.00000499188872
42
0.41421356237309503
10
-254.99999582767492
20
-335.00000499188872
10
-239.99999582767492
20
-335.00000499188872
42
-0.41421356237310336
10
-234.99999582767492
20
-340.00000499188872
10
-234.99999582767492
20
-353
42
0.41421356237310542
10
-232.99999582767498
20
-355
10
232.99999582767484
20
-355
42
0.41421356237310542
10
234.99999582767481
20
-353
10
234.99999582767487
20
-340.00000499188872
42
-0.41421356237310336
10
239.99999582767487
20
-335.00000499188872
10
254.99999582767487
20
-335.00000499188872
42
0.41421356237309503
10
259.99999582767487
20
-330.00000499188872
10
259.99999582767487
20
-315.00000499188872
42
-0.41421356237309503
10
264.99999582767487
20
-310.00000499188872
10
278
20
-310.00000499188872
42
0.41421356237309503
10
279.99999999999994
20
-308.00000499188872
10
280
20
-259
42
0.41421356237309503
10
278
20
-257
10
263.00000000000051
20
-257
42
0.41421356237309503
10
261.00000000000051
20
-259
10
261.00000000000045
20
-283.00000000000006
42
-0.41421356237309503
10
259.00000000000051
20
-285.00000000000006
10
225.5000000000004
20
-284.99999998882413
42
-0.41421356237309503
10
223.50000000000045
20
-282.99999998882419
10
223.50000000000048
20
-259
42
0.41421356237309503
10
221.50000000000048
20
-257
10
39.50000208616256
20
-257
42
0.4142135623730937
10
37.500002086162574
20
-259
10
37.500002086162581
20
-287
42
-0.4142135623730922
10
31.500002086162517
20
-293.00000000000006
10
-31.499997913837454
20
-293.00000000000006
42
-0.41421356237309337
10
-37.499997913837447
20
-287
0
CIRCLE
5
101
100
AcDbEntity
8
0
100
AcDbCircle
10
228.3999958276749
20
-345.00000499188872
30
0
40
1.7499999999999716
210
0
220
0
230
1
0
CIRCLE
5
102
100
AcDbEntity
8
0
100
AcDbCircle
10
-269.99999582767492
20
-303.40000499188869
30
0
40
1.7500000000000071
210
0
220
0
230
1
0
CIRCLE
5
103
100
AcDbEntity
8
0
100
AcDbCircle
10
269.99999582767487
20
-303.40000499188869
30
0
40
1.7500000000000071
210
0
220
0
230
1
0
CIRCLE
5
104
100
AcDbEntity
8
0
100
AcDbCircle
10
-228.3999958276749
20
-345.00000499188872
30
0
40
1.7499999999999716
210
0
220
0
230
1
0
ENDSEC
0
SECTION
2
OBJECTS
0
DICTIONARY
5
C
100
AcDbDictionary
3
ACAD_GROUP
350
D
3
ACAD_MLINESTYLE
350
17
0
DICTIONARY
5
D
100
AcDbDictionary
0
DICTIONARY
5
1A
330
C
100
AcDbDictionary
0
DICTIONARY
5
17
100
AcDbDictionary
0
ENDSEC
0
EOF
