0
SECTION
2
HEADER
9
$INSUNITS
70
4
9
$ACADVER
1
AC1014
9
$HANDSEED
5
FFFF
0
ENDSEC
0
SECTION
2
TABLES
0
TABLE
2
VPORT
5
8
100
AcDbSymbolTable
0
ENDTAB
0
TABLE
2
LTYPE
5
5
100
AcDbSymbolTable
0
LTYPE
5
14
100
AcDbSymbolTableRecord
100
AcDbLinetypeTableRecord
2
BYBLOCK
70
0
0
LTYPE
5
15
100
AcDbSymbolTableRecord
100
AcDbLinetypeTableRecord
2
BYLAYER
70
0
0
LTYPE
5
16
100
AcDbSymbolTableRecord
100
AcDbLinetypeTableRecord
2
DASHED
70
0
3
Dashed __ __ __ __ __ __ __ __ __ __ __ __ __ _
72
65
73
2
40
0.75
49
0.5
74
0
49
-0.25
74
0
0
ENDTAB
0
TABLE
2
LAYER
5
2
100
AcDbSymbolTable
70
2
0
LAYER
5
50
100
AcDbSymbolTableRecord
100
AcDbLayerTableRecord
2
0
70
0
62
7
6
CONTINUOUS
0
ENDTAB
0
TABLE
2
STYLE
5
3
100
AcDbSymbolTable
70
1
0
STYLE
5
11
100
AcDbSymbolTableRecord
100
AcDbTextStyleTableRecord
2
STANDARD
70
0
0
ENDTAB
0
TABLE
2
VIEW
5
6
100
AcDbSymbolTable
70
0
0
ENDTAB
0
TABLE
2
UCS
5
7
100
AcDbSymbolTable
70
0
0
ENDTAB
0
TABLE
2
APPID
5
9
100
AcDbSymbolTable
70
2
0
APPID
5
12
100
AcDbSymbolTableRecord
100
AcDbRegAppTableRecord
2
ACAD
70
0
0
ENDTAB
0
TABLE
2
DIMSTYLE
5
A
100
AcDbSymbolTable
70
1
0
ENDTAB
0
TABLE
2
BLOCK_RECORD
5
1
100
AcDbSymbolTable
70
1
0
BLOCK_RECORD
5
1F
100
AcDbSymbolTableRecord
100
AcDbBlockTableRecord
2
*MODEL_SPACE
0
BLOCK_RECORD
5
1B
100
AcDbSymbolTableRecord
100
AcDbBlockTableRecord
2
*PAPER_SPACE
0
ENDTAB
0
ENDSEC
0
SECTION
2
BLOCKS
0
BLOCK
5
20
100
AcDbEntity
100
AcDbBlockBegin
2
*MODEL_SPACE
0
ENDBLK
5
21
100
AcDbEntity
100
AcDbBlockEnd
0
BLOCK
5
1C
100
AcDbEntity
100
AcDbBlockBegin
2
*PAPER_SPACE
0
ENDBLK
5
1D
100
AcDbEntity
100
AcDbBlockEnd
0
ENDSEC
0
SECTION
2
ENTITIES
0
LWPOLYLINE
5
100
100
AcDbEntity
8
0
100
AcDbPolyline
90
28
70
1
43
0.0
10
-278
20
313.69999997020608
42
0.41421356237310542
10
-279.99999999999994
20
311.69999997020614
10
-279.99999582767492
20
310.000004991889
10
-279.99999999999994
20
-247.30000000000007
42
0.41421356237309281
10
-275.30000000000001
20
-252.00000000000003
10
275.29999999999995
20
-252.00000000000003
42
0.41421356237309725
10
280
20
-247.30000000000004
10
279.99999999999994
20
310.000004991889
10
279.99999582767487
20
311.69999997020619
42
0.41421356237310542
10
278
20
313.69999997020619
10
265.10000014901146
20
313.69999997020619
42
-0.36205104617785178
10
259.09999579787274
20
318.7000235684867
10
259.09999579787274
20
330.00000499188894
42
0.41421356237309503
10
254.99999582767501
20
334.1000049620867
10
243.69997276912159
20
334.10000496208659
42
-0.36204865208997511
10
238.6999999701668
20
340.0999999999998
10
238.6999999701668
20
353
42
0.41421356237310542
10
236.6999999701668
20
355
10
234.99999582767487
20
355.000004991889
10
-234.99999582767487
20
355
10
-236.6999999701668
20
355
42
0.41421356237310542
10
-238.69999997016677
20
353
10
-238.69999997016686
20
340.0999999999998
42
-0.3620486520899816
10
-243.69997276912173
20
334.10000496208659
10
-254.99999582767501
20
334.10000496208653
42
0.41421356237308232
10
-259.09999579787262
20
330.000004991889
10
-259.09999579787274
20
318.70002356848636
42
-0.3620510461778283
10
-265.10000014901146
20
313.69999997020614
0
CIRCLE
5
101
100
AcDbEntity
8
0
100
AcDbCircle
10
42.137213562373091
20
322.85797374669329
30
0
40
1.7499999999999716
210
0
220
0
230
1
0
CIRCLE
5
102
100
AcDbEntity
8
0
100
AcDbCircle
10
72.137213562373091
20
322.85797374669329
30
0
40
1.7499999999999805
210
0
220
0
230
1
0
CIRCLE
5
103
100
AcDbEntity
8
0
100
AcDbCircle
10
-72.137213562373091
20
322.85797374669329
30
0
40
1.7499999999999805
210
0
220
0
230
1
0
LWPOLYLINE
5
104
100
AcDbEntity
8
0
100
AcDbPolyline
90
8
70
1
43
0.0
10
14.799999999999994
20
324.35797374669335
10
14.799999999999983
20
321.35797374669346
42
-0.41421356237311935
10
12.5
20
319.05797374669339
10
-12.499999999999996
20
319.05797374669334
42
-0.41421356237310836
10
-14.799999999999994
20
321.35797374669335
10
-14.799999999999986
20
324.35797374669335
42
-0.41421356237310636
10
-12.5
20
326.65797374669341
10
12.5
20
326.65797374669341
42
-0.41421356237310608
0
CIRCLE
5
105
100
AcDbEntity
8
0
100
AcDbCircle
10
-42.137213562373091
20
322.85797374669329
30
0
40
1.7499999999999716
210
0
220
0
230
1
0
CIRCLE
5
106
100
AcDbEntity
8
0
100
AcDbCircle
10
269.99999582767487
20
303.40000499188898
30
0
40
1.7500000000000071
210
0
220
0
230
1
0
CIRCLE
5
107
100
AcDbEntity
8
0
100
AcDbCircle
10
-228.39999582767493
20
345.000004991889
30
0
40
1.7499999999999716
210
0
220
0
230
1
0
CIRCLE
5
108
100
AcDbEntity
8
0
100
AcDbCircle
10
228.39999582767487
20
345.000004991889
30
0
40
1.7499999999999716
210
0
220
0
230
1
0
CIRCLE
5
109
100
AcDbEntity
8
0
100
AcDbCircle
10
-269.99999582767492
20
303.40000499188898
30
0
40
1.7500000000000071
210
0
220
0
230
1
0
CIRCLE
5
110
100
AcDbEntity
8
0
100
AcDbCircle
10
-78.37529904249223
20
199.25000001490147
30
0
40
1.749999999999998
210
0
220
0
230
1
0
CIRCLE
5
111
100
AcDbEntity
8
0
100
AcDbCircle
10
78.375299042357057
20
199.25000001496147
30
0
40
1.749999999999998
210
0
220
0
230
1
0
CIRCLE
5
112
100
AcDbEntity
8
0
100
AcDbCircle
10
72.174337148159594
20
44.009618958138965
30
0
40
1.749999999999998
210
0
220
0
230
1
0
CIRCLE
5
113
100
AcDbEntity
8
0
100
AcDbCircle
10
-72.174337148167353
20
44.009618958134631
30
0
40
1.749999999999998
210
0
220
0
230
1
0
CIRCLE
5
114
100
AcDbEntity
8
0
100
AcDbCircle
10
-47.583103130317809
20
-197.73509987549502
30
0
40
1.7500000000000071
210
0
220
0
230
1
0
CIRCLE
5
115
100
AcDbEntity
8
0
100
AcDbCircle
10
-195.28872855339148
20
-93.749999985096906
30
0
40
1.7500000000000071
210
0
220
0
230
1
0
CIRCLE
5
116
100
AcDbEntity
8
0
100
AcDbCircle
10
57.746139636654554
20
68.999993570040985
30
0
40
1.749999999999998
210
0
220
0
230
1
0
CIRCLE
5
117
100
AcDbEntity
8
0
100
AcDbCircle
10
195.2887285533921
20
-93.749999985085168
30
0
40
1.7500000000000071
210
0
220
0
230
1
0
CIRCLE
5
118
100
AcDbEntity
8
0
100
AcDbCircle
10
-57.746133917893673
20
69.000000014901474
30
0
40
1.749999999999998
210
0
220
0
230
1
0
CIRCLE
5
119
100
AcDbEntity
8
0
100
AcDbCircle
10
-26.529527886118849
20
-102.39535391333635
30
0
40
1.7500000000000071
210
0
220
0
230
1
0
CIRCLE
5
120
100
AcDbEntity
8
0
100
AcDbCircle
10
-24.518584500049183
20
-69.467433576936827
30
0
40
1.7500000000000027
210
0
220
0
230
1
0
CIRCLE
5
121
100
AcDbEntity
8
0
100
AcDbCircle
10
1.2652875667207297e-05
20
244.50000001490133
30
0
40
1.749999999999986
210
0
220
0
230
1
0
CIRCLE
5
122
100
AcDbEntity
8
0
100
AcDbCircle
10
24.518584500048235
20
-69.467433576935349
30
0
40
1.749999999999998
210
0
220
0
230
1
0
LWPOLYLINE
5
123
100
AcDbEntity
8
0
100
AcDbPolyline
90
30
70
1
43
0.0
10
64.057012349381722
20
31.350000014901308
42
0.26794919243112242
10
64.057012349381722
20
41.650000014901316
10
51.651856746427782
20
63.136359795015338
10
43.626245414590549
20
81.171218423732711
42
0.29626415069230544
10
36.499999999999453
20
85.800000000000338
10
21.49999999999946
20
85.800000000000296
42
0.36104797181011539
10
13.832902610156452
20
79.433742520351203
10
11.934051302916638
20
69.279424227639112
42
-0.36104797181012133
10
10.754497858325395
20
68.300000000000765
10
-10.754497858326467
20
68.300000000000807
42
-0.36104797181011972
10
-11.934051302917688
20
69.279424227639126
10
-13.832902610157467
20
79.433742520351274
42
0.36104797181011555
10
-21.500000000000448
20
85.800000000000409
10
-36.500000000000455
20
85.800000000000523
42
0.29626415069230283
10
-43.626245414591516
20
81.171218423732938
10
-51.651856746429452
20
63.13635979501548
10
-64.057012349383456
20
41.65000001490148
42
0.26794919243112192
10
-64.057012349383456
20
31.350000014901482
10
-21.333092437955727
20
-42.649999970195232
42
-0.26794919243127685
10
-21.333092437958534
20
-52.349999970200081
10
-23.941531628996149
20
-56.867949177525006
42
0.41421356237328949
10
-23.099673200292443
20
-60.009807606230439
10
-16.465698604071235
20
-63.839934625155223
42
0.13165249758738282
10
-13.815698604071436
20
-64.549999985097486
10
13.815698604073848
20
-64.549999985096676
42
0.13165249758738434
10
16.46569860407368
20
-63.8399346251542
10
23.099673200290127
20
-60.00980760623149
42
0.41421356237315227
10
23.941531628994106
20
-56.867949177526889
10
21.333092437955319
20
-52.349999970195924
42
-0.26794919243117593
10
21.333092437954377
20
-42.649999970194266
0
CIRCLE
5
124
100
AcDbEntity
8
0
100
AcDbCircle
10
-245.00000000000006
20
-241.99999997764823
30
0
40
1.7500000000000071
210
0
220
0
230
1
0
CIRCLE
5
125
100
AcDbEntity
8
0
100
AcDbCircle
10
-220.00000000000006
20
-241.9999987888423
30
0
40
1.7499999999999716
210
0
220
0
230
1
0
CIRCLE
5
126
100
AcDbEntity
8
0
100
AcDbCircle
10
220.00000000000045
20
-242.00000116645407
30
0
40
1.7500000000000071
210
0
220
0
230
1
0
CIRCLE
5
127
100
AcDbEntity
8
0
100
AcDbCircle
10
245.00000000000051
20
-241.9999999776482
30
0
40
1.7500000000000071
210
0
220
0
230
1
0
CIRCLE
5
128
100
AcDbEntity
8
0
100
AcDbCircle
10
270.00000000000051
20
-241.99999878884228
30
0
40
1.7500000000000071
210
0
220
0
230
1
0
CIRCLE
5
129
100
AcDbEntity
8
0
100
AcDbCircle
10
-270.00000000000011
20
-242.0000011664541
30
0
40
1.7500000000000071
210
0
220
0
230
1
0
ENDSEC
0
SECTION
2
OBJECTS
0
DICTIONARY
5
C
100
AcDbDictionary
3
ACAD_GROUP
350
D
3
ACAD_MLINESTYLE
350
17
0
DICTIONARY
5
D
100
AcDbDictionary
0
DICTIONARY
5
1A
330
C
100
AcDbDictionary
0
DICTIONARY
5
17
100
AcDbDictionary
0
ENDSEC
0
EOF
