0
SECTION
2
HEADER
9
$INSUNITS
70
4
9
$ACADVER
1
AC1014
9
$HANDSEED
5
FFFF
0
ENDSEC
0
SECTION
2
TABLES
0
TABLE
2
VPORT
5
8
100
AcDbSymbolTable
0
ENDTAB
0
TABLE
2
LTYPE
5
5
100
AcDbSymbolTable
0
LTYPE
5
14
100
AcDbSymbolTableRecord
100
AcDbLinetypeTableRecord
2
BYBLOCK
70
0
0
LTYPE
5
15
100
AcDbSymbolTableRecord
100
AcDbLinetypeTableRecord
2
BYLAYER
70
0
0
LTYPE
5
16
100
AcDbSymbolTableRecord
100
AcDbLinetypeTableRecord
2
DASHED
70
0
3
Dashed __ __ __ __ __ __ __ __ __ __ __ __ __ _
72
65
73
2
40
0.75
49
0.5
74
0
49
-0.25
74
0
0
ENDTAB
0
TABLE
2
LAYER
5
2
100
AcDbSymbolTable
70
2
0
LAYER
5
50
100
AcDbSymbolTableRecord
100
AcDbLayerTableRecord
2
0
70
0
62
7
6
CONTINUOUS
0
ENDTAB
0
TABLE
2
STYLE
5
3
100
AcDbSymbolTable
70
1
0
STYLE
5
11
100
AcDbSymbolTableRecord
100
AcDbTextStyleTableRecord
2
STANDARD
70
0
0
ENDTAB
0
TABLE
2
VIEW
5
6
100
AcDbSymbolTable
70
0
0
ENDTAB
0
TABLE
2
UCS
5
7
100
AcDbSymbolTable
70
0
0
ENDTAB
0
TABLE
2
APPID
5
9
100
AcDbSymbolTable
70
2
0
APPID
5
12
100
AcDbSymbolTableRecord
100
AcDbRegAppTableRecord
2
ACAD
70
0
0
ENDTAB
0
TABLE
2
DIMSTYLE
5
A
100
AcDbSymbolTable
70
1
0
ENDTAB
0
TABLE
2
BLOCK_RECORD
5
1
100
AcDbSymbolTable
70
1
0
BLOCK_RECORD
5
1F
100
AcDbSymbolTableRecord
100
AcDbBlockTableRecord
2
*MODEL_SPACE
0
BLOCK_RECORD
5
1B
100
AcDbSymbolTableRecord
100
AcDbBlockTableRecord
2
*PAPER_SPACE
0
ENDTAB
0
ENDSEC
0
SECTION
2
BLOCKS
0
BLOCK
5
20
100
AcDbEntity
100
AcDbBlockBegin
2
*MODEL_SPACE
0
ENDBLK
5
21
100
AcDbEntity
100
AcDbBlockEnd
0
BLOCK
5
1C
100
AcDbEntity
100
AcDbBlockBegin
2
*PAPER_SPACE
0
ENDBLK
5
1D
100
AcDbEntity
100
AcDbBlockEnd
0
ENDSEC
0
SECTION
2
ENTITIES
0
LWPOLYLINE
5
100
100
AcDbEntity
8
0
100
AcDbPolyline
90
24
70
1
43
0.0
10
-3.5000000149010368
20
29.49998987399038
42
0.4142135623730992
10
-1.0000000149010368
20
31.999989873990415
10
-1.0000000149010966
20
515.49999998509998
42
0.41421356237310536
10
-3.0000000149010968
20
517.49999998510009
10
-39.999999999999936
20
517.49999998509998
42
-0.41421356237303714
10
-61.50000000000361
20
538.99999998510009
10
-61.499999999999943
20
596.49999998509907
42
0.41421356237309243
10
-63.499999999999943
20
598.49999998509918
10
-245.95494509469148
20
598.49999998509588
42
0.54648748661610791
10
-247.77305987616012
20
595.66666658553834
42
-0.32522227575011814
10
-248.14534279299923
20
593.82151899169844
10
-254.41778787326535
20
588.0614633718958
42
-0.28896916743110607
10
-256.09701486308393
20
587.75550054190671
42
0.53120107774163494
10
-258.50000000000028
20
586.131884685552
10
-258.49999999999432
20
33.868105173537586
42
0.53120152958828126
10
-256.09701486308387
20
32.244489317182854
42
-0.28896916743107853
10
-254.41778787326535
20
31.938526487193762
10
-248.14534279299923
20
26.178470867391034
42
-0.32522227575011547
10
-247.77305987616015
20
24.333323273551176
42
0.54648748661585633
10
-245.95494509469148
20
21.499989873990415
10
-33.500000014901055
20
21.499989873990373
42
0.41421356237309659
10
-31.000000014901033
20
23.999989873990373
10
-31.00000001490104
20
26.999989873990373
42
-0.41421356237309503
10
-28.50000001490104
20
29.499989873990373
0
CIRCLE
5
101
100
AcDbEntity
8
0
100
AcDbCircle
10
-252.49999999996916
20
35.24999998509891
30
0
40
1.7500000000000071
210
0
220
-0
230
1
0
CIRCLE
5
102
100
AcDbEntity
8
0
100
AcDbCircle
10
-245.24999999996913
20
591.99999998509884
30
0
40
1.7499999999999716
210
0
220
-0
230
1
0
CIRCLE
5
103
100
AcDbEntity
8
0
100
AcDbCircle
10
-245.24999999996913
20
27.999999985098896
30
0
40
1.7500000000000071
210
0
220
-0
230
1
0
CIRCLE
5
104
100
AcDbEntity
8
0
100
AcDbCircle
10
-252.49999999996916
20
584.74999998509884
30
0
40
1.7499999999999716
210
0
220
-0
230
1
0
CIRCLE
5
105
100
AcDbEntity
8
0
100
AcDbCircle
10
-25.499999999999979
20
349.99999998509884
30
0
40
1.7499999999999805
210
0
220
0
230
1
0
CIRCLE
5
106
100
AcDbEntity
8
0
100
AcDbCircle
10
-25.499999999999979
20
269.99999998509884
30
0
40
1.7500000000000071
210
0
220
0
230
1
0
ENDSEC
0
SECTION
2
OBJECTS
0
DICTIONARY
5
C
100
AcDbDictionary
3
ACAD_GROUP
350
D
3
ACAD_MLINESTYLE
350
17
0
DICTIONARY
5
D
100
AcDbDictionary
0
DICTIONARY
5
1A
330
C
100
AcDbDictionary
0
DICTIONARY
5
17
100
AcDbDictionary
0
ENDSEC
0
EOF
