%TF.GenerationSoftware,KiCad,Pcbnew,9.0.2*%
%TF.CreationDate,2026-07-24T01:25:42+01:00*%
%TF.ProjectId,fabrizio_project _Mainboard,66616272-697a-4696-9f5f-70726f6a6563,rev?*%
%TF.SameCoordinates,PX5204180PY8583b00*%
%TF.FileFunction,Paste,Top*%
%TF.FilePolarity,Positive*%
%FSLAX46Y46*%
G04 Gerber Fmt 4.6, Leading zero omitted, Abs format (unit mm)*
G04 Created by KiCad (PCBNEW 9.0.2) date 2026-07-24 01:25:42*
%MOMM*%
%LPD*%
G01*
G04 APERTURE LIST*
G04 Aperture macros list*
%AMRoundRect*
0 Rectangle with rounded corners*
0 $1 Rounding radius*
0 $2 $3 $4 $5 $6 $7 $8 $9 X,Y pos of 4 corners*
0 Add a 4 corners polygon primitive as box body*
4,1,4,$2,$3,$4,$5,$6,$7,$8,$9,$2,$3,0*
0 Add four circle primitives for the rounded corners*
1,1,$1+$1,$2,$3*
1,1,$1+$1,$4,$5*
1,1,$1+$1,$6,$7*
1,1,$1+$1,$8,$9*
0 Add four rect primitives between the rounded corners*
20,1,$1+$1,$2,$3,$4,$5,0*
20,1,$1+$1,$4,$5,$6,$7,0*
20,1,$1+$1,$6,$7,$8,$9,0*
20,1,$1+$1,$8,$9,$2,$3,0*%
G04 Aperture macros list end*
%ADD10R,0.600000X0.800000*%
%ADD11RoundRect,0.150000X0.150000X0.200000X-0.150000X0.200000X-0.150000X-0.200000X0.150000X-0.200000X0*%
%ADD12R,0.800000X0.600000*%
%ADD13RoundRect,0.225000X-0.250000X0.225000X-0.250000X-0.225000X0.250000X-0.225000X0.250000X0.225000X0*%
%ADD14RoundRect,0.200000X0.275000X-0.200000X0.275000X0.200000X-0.275000X0.200000X-0.275000X-0.200000X0*%
%ADD15RoundRect,0.093750X-0.093750X0.156250X-0.093750X-0.156250X0.093750X-0.156250X0.093750X0.156250X0*%
%ADD16RoundRect,0.075000X-0.075000X0.250000X-0.075000X-0.250000X0.075000X-0.250000X0.075000X0.250000X0*%
%ADD17RoundRect,0.200000X-0.275000X0.200000X-0.275000X-0.200000X0.275000X-0.200000X0.275000X0.200000X0*%
%ADD18RoundRect,0.093750X0.156250X0.093750X-0.156250X0.093750X-0.156250X-0.093750X0.156250X-0.093750X0*%
%ADD19RoundRect,0.075000X0.250000X0.075000X-0.250000X0.075000X-0.250000X-0.075000X0.250000X-0.075000X0*%
%ADD20R,0.550000X1.200000*%
%ADD21R,0.700000X1.200000*%
%ADD22R,1.000000X0.800000*%
%ADD23R,1.000000X1.200000*%
%ADD24R,1.000000X2.800000*%
%ADD25R,1.300000X1.900000*%
%ADD26RoundRect,0.225000X-0.225000X-0.250000X0.225000X-0.250000X0.225000X0.250000X-0.225000X0.250000X0*%
%ADD27RoundRect,0.225000X0.225000X0.250000X-0.225000X0.250000X-0.225000X-0.250000X0.225000X-0.250000X0*%
%ADD28RoundRect,0.093750X0.093750X-0.156250X0.093750X0.156250X-0.093750X0.156250X-0.093750X-0.156250X0*%
%ADD29RoundRect,0.075000X0.075000X-0.250000X0.075000X0.250000X-0.075000X0.250000X-0.075000X-0.250000X0*%
%ADD30RoundRect,0.150000X0.150000X0.700000X-0.150000X0.700000X-0.150000X-0.700000X0.150000X-0.700000X0*%
%ADD31RoundRect,0.250000X0.250000X1.100000X-0.250000X1.100000X-0.250000X-1.100000X0.250000X-1.100000X0*%
%ADD32RoundRect,0.150000X-0.587500X-0.150000X0.587500X-0.150000X0.587500X0.150000X-0.587500X0.150000X0*%
%ADD33RoundRect,0.250000X1.000000X0.650000X-1.000000X0.650000X-1.000000X-0.650000X1.000000X-0.650000X0*%
%ADD34RoundRect,0.150000X-0.150000X0.587500X-0.150000X-0.587500X0.150000X-0.587500X0.150000X0.587500X0*%
%ADD35R,3.150000X1.000000*%
%ADD36RoundRect,0.200000X-0.200000X-0.275000X0.200000X-0.275000X0.200000X0.275000X-0.200000X0.275000X0*%
%ADD37RoundRect,0.150000X-0.150000X-0.200000X0.150000X-0.200000X0.150000X0.200000X-0.150000X0.200000X0*%
%ADD38RoundRect,0.250000X0.350000X0.450000X-0.350000X0.450000X-0.350000X-0.450000X0.350000X-0.450000X0*%
%ADD39RoundRect,0.225000X0.250000X-0.225000X0.250000X0.225000X-0.250000X0.225000X-0.250000X-0.225000X0*%
%ADD40RoundRect,0.250000X-1.000000X-0.650000X1.000000X-0.650000X1.000000X0.650000X-1.000000X0.650000X0*%
%ADD41RoundRect,0.200000X0.200000X0.275000X-0.200000X0.275000X-0.200000X-0.275000X0.200000X-0.275000X0*%
%ADD42RoundRect,0.175000X-0.175000X-0.325000X0.175000X-0.325000X0.175000X0.325000X-0.175000X0.325000X0*%
%ADD43RoundRect,0.150000X-0.200000X-0.150000X0.200000X-0.150000X0.200000X0.150000X-0.200000X0.150000X0*%
%ADD44RoundRect,0.150000X-0.825000X-0.150000X0.825000X-0.150000X0.825000X0.150000X-0.825000X0.150000X0*%
%ADD45RoundRect,0.250000X1.950000X1.000000X-1.950000X1.000000X-1.950000X-1.000000X1.950000X-1.000000X0*%
%ADD46RoundRect,0.250000X-1.000000X1.950000X-1.000000X-1.950000X1.000000X-1.950000X1.000000X1.950000X0*%
%ADD47RoundRect,0.250000X2.025000X2.375000X-2.025000X2.375000X-2.025000X-2.375000X2.025000X-2.375000X0*%
%ADD48RoundRect,0.250000X2.050000X0.300000X-2.050000X0.300000X-2.050000X-0.300000X2.050000X-0.300000X0*%
%ADD49RoundRect,0.250000X-2.375000X2.025000X-2.375000X-2.025000X2.375000X-2.025000X2.375000X2.025000X0*%
%ADD50RoundRect,0.250000X-0.300000X2.050000X-0.300000X-2.050000X0.300000X-2.050000X0.300000X2.050000X0*%
%ADD51RoundRect,0.250002X1.799998X-1.799998X1.799998X1.799998X-1.799998X1.799998X-1.799998X-1.799998X0*%
%ADD52RoundRect,0.250000X-0.270000X-0.270000X0.270000X-0.270000X0.270000X0.270000X-0.270000X0.270000X0*%
%ADD53RoundRect,0.062500X-0.375000X-0.062500X0.375000X-0.062500X0.375000X0.062500X-0.375000X0.062500X0*%
%ADD54RoundRect,0.062500X-0.062500X-0.375000X0.062500X-0.375000X0.062500X0.375000X-0.062500X0.375000X0*%
%ADD55RoundRect,0.250000X0.310000X-0.970000X0.310000X0.970000X-0.310000X0.970000X-0.310000X-0.970000X0*%
%ADD56R,4.241800X3.810000*%
%ADD57RoundRect,0.250000X0.475000X-0.250000X0.475000X0.250000X-0.475000X0.250000X-0.475000X-0.250000X0*%
%ADD58RoundRect,0.150000X0.512500X0.150000X-0.512500X0.150000X-0.512500X-0.150000X0.512500X-0.150000X0*%
%ADD59RoundRect,0.250000X-0.525000X-0.250000X0.525000X-0.250000X0.525000X0.250000X-0.525000X0.250000X0*%
%ADD60R,2.700000X1.000000*%
%ADD61RoundRect,0.150000X0.587500X0.150000X-0.587500X0.150000X-0.587500X-0.150000X0.587500X-0.150000X0*%
%ADD62RoundRect,0.250000X-0.450000X-0.350000X0.450000X-0.350000X0.450000X0.350000X-0.450000X0.350000X0*%
%ADD63RoundRect,0.250000X1.500000X-0.925000X1.500000X0.925000X-1.500000X0.925000X-1.500000X-0.925000X0*%
%ADD64RoundRect,0.250000X-1.950000X-1.000000X1.950000X-1.000000X1.950000X1.000000X-1.950000X1.000000X0*%
%ADD65RoundRect,0.250000X-1.400000X-1.000000X1.400000X-1.000000X1.400000X1.000000X-1.400000X1.000000X0*%
%ADD66RoundRect,0.250000X0.250000X0.475000X-0.250000X0.475000X-0.250000X-0.475000X0.250000X-0.475000X0*%
%ADD67RoundRect,0.175000X0.175000X1.575000X-0.175000X1.575000X-0.175000X-1.575000X0.175000X-1.575000X0*%
%ADD68RoundRect,0.200000X0.200000X1.550000X-0.200000X1.550000X-0.200000X-1.550000X0.200000X-1.550000X0*%
%ADD69RoundRect,0.475000X0.475000X1.275000X-0.475000X1.275000X-0.475000X-1.275000X0.475000X-1.275000X0*%
%ADD70RoundRect,0.050000X0.050000X-0.325000X0.050000X0.325000X-0.050000X0.325000X-0.050000X-0.325000X0*%
G04 APERTURE END LIST*
D10*
%TO.C,D9*%
X31750000Y23325000D03*
X31750000Y20825000D03*
%TD*%
D11*
%TO.C,U11*%
X77050000Y80600000D03*
X78450000Y80600000D03*
%TD*%
D12*
%TO.C,D25*%
X105850000Y78600000D03*
X103350000Y78600000D03*
%TD*%
D13*
%TO.C,C9*%
X34350000Y47200000D03*
X34350000Y45650000D03*
%TD*%
D14*
%TO.C,R25*%
X67800000Y76050000D03*
X67800000Y77700000D03*
%TD*%
D15*
%TO.C,U3*%
X47510000Y15650000D03*
D16*
X46972500Y15725000D03*
D15*
X46435000Y15650000D03*
X46435000Y13950000D03*
D16*
X46972500Y13875000D03*
D15*
X47510000Y13950000D03*
%TD*%
D17*
%TO.C,R29*%
X52500000Y64600000D03*
X52500000Y62950000D03*
%TD*%
D18*
%TO.C,U12*%
X10550000Y19415000D03*
D19*
X10625000Y19952500D03*
D18*
X10550000Y20490000D03*
X8850000Y20490000D03*
D19*
X8775000Y19952500D03*
D18*
X8850000Y19415000D03*
%TD*%
D12*
%TO.C,D14*%
X78150000Y12550000D03*
X80650000Y12550000D03*
%TD*%
%TO.C,D7*%
X9625000Y39100000D03*
X12125000Y39100000D03*
%TD*%
D20*
%TO.C,U22*%
X67850000Y53600000D03*
X68800000Y53600000D03*
X69750000Y53600000D03*
X69750000Y56200000D03*
X68800000Y56200000D03*
X67850000Y56200000D03*
%TD*%
D21*
%TO.C,SD1*%
X53195000Y73240000D03*
X54295000Y73240000D03*
X55395000Y73240000D03*
X56495000Y73240000D03*
X57595000Y73240000D03*
X58695000Y73240000D03*
X59795000Y73240000D03*
X60895000Y73240000D03*
X61845000Y73240000D03*
D22*
X62795000Y83740000D03*
D23*
X62795000Y77540000D03*
D24*
X62795000Y87890000D03*
D23*
X51645000Y73240000D03*
D25*
X49295000Y88340000D03*
%TD*%
D26*
%TO.C,C8*%
X59250000Y37600000D03*
X60800000Y37600000D03*
%TD*%
D14*
%TO.C,R19*%
X54050000Y62950000D03*
X54050000Y64600000D03*
%TD*%
D27*
%TO.C,C24*%
X81500000Y55275000D03*
X79950000Y55275000D03*
%TD*%
D17*
%TO.C,R14*%
X12700000Y35600000D03*
X12700000Y33950000D03*
%TD*%
D27*
%TO.C,C15*%
X20875000Y59100000D03*
X19325000Y59100000D03*
%TD*%
D28*
%TO.C,U1*%
X3020000Y55480000D03*
D29*
X3557500Y55405000D03*
D28*
X4095000Y55480000D03*
X4095000Y57180000D03*
D29*
X3557500Y57255000D03*
D28*
X3020000Y57180000D03*
%TD*%
D30*
%TO.C,J1*%
X23377511Y84591257D03*
X22127511Y84591257D03*
X20877511Y84591257D03*
X19627511Y84591257D03*
X18377511Y84591257D03*
X17127511Y84591257D03*
X15877511Y84591257D03*
X14627511Y84591257D03*
D31*
X25227511Y87791257D03*
X12777511Y87791257D03*
%TD*%
D32*
%TO.C,Q7*%
X28487500Y66125000D03*
X28487500Y64225000D03*
X30362500Y65175000D03*
%TD*%
D33*
%TO.C,D27*%
X83700000Y27225000D03*
X79700000Y27225000D03*
%TD*%
D17*
%TO.C,R36*%
X38800000Y69925000D03*
X38800000Y68275000D03*
%TD*%
D14*
%TO.C,R18*%
X50950000Y62950000D03*
X50950000Y64600000D03*
%TD*%
D13*
%TO.C,C23*%
X100750000Y38300000D03*
X100750000Y36750000D03*
%TD*%
D12*
%TO.C,D18*%
X67100000Y81325000D03*
X64600000Y81325000D03*
%TD*%
D34*
%TO.C,Q2*%
X20932500Y13257500D03*
X19032500Y13257500D03*
X19982500Y11382500D03*
%TD*%
D27*
%TO.C,C13*%
X40025000Y42300000D03*
X38475000Y42300000D03*
%TD*%
D13*
%TO.C,C3*%
X56150000Y37475000D03*
X56150000Y35925000D03*
%TD*%
D10*
%TO.C,D22*%
X87950000Y85250000D03*
X87950000Y87750000D03*
%TD*%
D34*
%TO.C,Q3*%
X42092500Y18427500D03*
X40192500Y18427500D03*
X41142500Y16552500D03*
%TD*%
D35*
%TO.C,JP3*%
X47490000Y25920000D03*
X42440000Y25920000D03*
X47490000Y28460000D03*
X42440000Y28460000D03*
X47490000Y31000000D03*
X42440000Y31000000D03*
%TD*%
D36*
%TO.C,R46*%
X50000000Y15150000D03*
X51650000Y15150000D03*
%TD*%
D14*
%TO.C,R15*%
X16750000Y76600000D03*
X16750000Y78250000D03*
%TD*%
D37*
%TO.C,U15*%
X4100000Y76650000D03*
X2700000Y76650000D03*
%TD*%
D26*
%TO.C,C12*%
X57500000Y39550000D03*
X59050000Y39550000D03*
%TD*%
D38*
%TO.C,R51*%
X21700000Y40125000D03*
X19700000Y40125000D03*
%TD*%
D39*
%TO.C,C30*%
X65875000Y54250000D03*
X65875000Y55800000D03*
%TD*%
D28*
%TO.C,U5*%
X18415000Y80150000D03*
D29*
X18952500Y80075000D03*
D28*
X19490000Y80150000D03*
X19490000Y81850000D03*
D29*
X18952500Y81925000D03*
D28*
X18415000Y81850000D03*
%TD*%
D10*
%TO.C,D3*%
X58375000Y9275000D03*
X58375000Y11775000D03*
%TD*%
D40*
%TO.C,D8*%
X62200000Y11175000D03*
X66200000Y11175000D03*
%TD*%
D14*
%TO.C,R17*%
X79400000Y17325000D03*
X79400000Y18975000D03*
%TD*%
D26*
%TO.C,C11*%
X62525000Y48900000D03*
X64075000Y48900000D03*
%TD*%
D12*
%TO.C,D20*%
X8550000Y24250000D03*
X11050000Y24250000D03*
%TD*%
D10*
%TO.C,D10*%
X47150000Y23275000D03*
X47150000Y20775000D03*
%TD*%
%TO.C,D24*%
X95150000Y81800000D03*
X95150000Y79300000D03*
%TD*%
D14*
%TO.C,R21*%
X60250000Y62950000D03*
X60250000Y64600000D03*
%TD*%
D17*
%TO.C,R30*%
X58700000Y64600000D03*
X58700000Y62950000D03*
%TD*%
D41*
%TO.C,R1*%
X4700000Y61240000D03*
X3050000Y61240000D03*
%TD*%
D42*
%TO.C,D11*%
X8900000Y35600000D03*
D43*
X8900000Y33900000D03*
X10900000Y33900000D03*
X10900000Y35800000D03*
%TD*%
D44*
%TO.C,U13*%
X31500000Y59220000D03*
X31500000Y57950000D03*
X31500000Y56680000D03*
X31500000Y55410000D03*
X36450000Y55410000D03*
X36450000Y56680000D03*
X36450000Y57950000D03*
X36450000Y59220000D03*
%TD*%
D41*
%TO.C,R8*%
X20752500Y15292500D03*
X19102500Y15292500D03*
%TD*%
D45*
%TO.C,C18*%
X100150000Y22300000D03*
X91750000Y22300000D03*
%TD*%
D35*
%TO.C,JP1*%
X63490000Y25880000D03*
X58440000Y25880000D03*
X63490000Y28420000D03*
X58440000Y28420000D03*
X63490000Y30960000D03*
X58440000Y30960000D03*
%TD*%
D36*
%TO.C,R49*%
X67925000Y50850000D03*
X69575000Y50850000D03*
%TD*%
D41*
%TO.C,R23*%
X86250000Y21175000D03*
X84600000Y21175000D03*
%TD*%
D46*
%TO.C,C26*%
X111550000Y56625000D03*
X111550000Y48225000D03*
%TD*%
D47*
%TO.C,U18*%
X82150000Y32275000D03*
X82150000Y37825000D03*
X77300000Y32275000D03*
X77300000Y37825000D03*
D48*
X88875000Y31650000D03*
X88875000Y33350000D03*
X88875000Y35050000D03*
X88875000Y36750000D03*
X88875000Y38450000D03*
%TD*%
D12*
%TO.C,D1*%
X69400000Y30890000D03*
X71900000Y30890000D03*
%TD*%
D49*
%TO.C,U9*%
X112795000Y68180000D03*
X107245000Y68180000D03*
X112795000Y63330000D03*
X107245000Y63330000D03*
D50*
X112560000Y74905000D03*
X107480000Y74905000D03*
%TD*%
D36*
%TO.C,R24*%
X30950000Y37850000D03*
X32600000Y37850000D03*
%TD*%
D46*
%TO.C,C25*%
X67250000Y44357500D03*
X67250000Y35957500D03*
%TD*%
D17*
%TO.C,R39*%
X32325000Y68575000D03*
X32325000Y66925000D03*
%TD*%
D26*
%TO.C,C7*%
X36650000Y49100000D03*
X38200000Y49100000D03*
%TD*%
D51*
%TO.C,L3*%
X98250000Y60625000D03*
X98250000Y70125000D03*
%TD*%
D35*
%TO.C,JP2*%
X32440000Y25920000D03*
X27390000Y25920000D03*
X32440000Y28460000D03*
X27390000Y28460000D03*
X32440000Y31000000D03*
X27390000Y31000000D03*
%TD*%
D17*
%TO.C,R28*%
X55600000Y64600000D03*
X55600000Y62950000D03*
%TD*%
D13*
%TO.C,C19*%
X107500000Y6900000D03*
X107500000Y5350000D03*
%TD*%
D41*
%TO.C,R35*%
X10550000Y17850000D03*
X8900000Y17850000D03*
%TD*%
D12*
%TO.C,D17*%
X89375000Y12575000D03*
X91875000Y12575000D03*
%TD*%
D52*
%TO.C,U6*%
X50690000Y45535000D03*
X50690000Y44245000D03*
X50690000Y42955000D03*
X50690000Y41665000D03*
X51980000Y45535000D03*
X51980000Y44245000D03*
X51980000Y42955000D03*
X51980000Y41665000D03*
X53270000Y45535000D03*
X53270000Y44245000D03*
X53270000Y42955000D03*
X53270000Y41665000D03*
X54560000Y45535000D03*
X54560000Y44245000D03*
X54560000Y42955000D03*
X54560000Y41665000D03*
D53*
X49187500Y46350000D03*
X49187500Y45850000D03*
X49187500Y45350000D03*
X49187500Y44850000D03*
X49187500Y44350000D03*
X49187500Y43850000D03*
X49187500Y43350000D03*
X49187500Y42850000D03*
X49187500Y42350000D03*
X49187500Y41850000D03*
X49187500Y41350000D03*
X49187500Y40850000D03*
D54*
X49875000Y40162500D03*
X50375000Y40162500D03*
X50875000Y40162500D03*
X51375000Y40162500D03*
X51875000Y40162500D03*
X52375000Y40162500D03*
X52875000Y40162500D03*
X53375000Y40162500D03*
X53875000Y40162500D03*
X54375000Y40162500D03*
X54875000Y40162500D03*
X55375000Y40162500D03*
D53*
X56062500Y40850000D03*
X56062500Y41350000D03*
X56062500Y41850000D03*
X56062500Y42350000D03*
X56062500Y42850000D03*
X56062500Y43350000D03*
X56062500Y43850000D03*
X56062500Y44350000D03*
X56062500Y44850000D03*
X56062500Y45350000D03*
X56062500Y45850000D03*
X56062500Y46350000D03*
D54*
X55375000Y47037500D03*
X54875000Y47037500D03*
X54375000Y47037500D03*
X53875000Y47037500D03*
X53375000Y47037500D03*
X52875000Y47037500D03*
X52375000Y47037500D03*
X51875000Y47037500D03*
X51375000Y47037500D03*
X50875000Y47037500D03*
X50375000Y47037500D03*
X49875000Y47037500D03*
%TD*%
D26*
%TO.C,C4*%
X26050000Y36100000D03*
X27600000Y36100000D03*
%TD*%
D14*
%TO.C,R10*%
X13200000Y30000000D03*
X13200000Y31650000D03*
%TD*%
D10*
%TO.C,D23*%
X99150000Y81550000D03*
X99150000Y79050000D03*
%TD*%
D26*
%TO.C,C29*%
X68800000Y58125000D03*
X70350000Y58125000D03*
%TD*%
D13*
%TO.C,C10*%
X48000000Y51675000D03*
X48000000Y50125000D03*
%TD*%
D55*
%TO.C,SW1*%
X25900000Y40330000D03*
X28440000Y40330000D03*
X28440000Y48940000D03*
X25900000Y48940000D03*
%TD*%
D12*
%TO.C,D19*%
X48950000Y71050000D03*
X51450000Y71050000D03*
%TD*%
D56*
%TO.C,F1*%
X109537700Y14200000D03*
X103162300Y14200000D03*
%TD*%
D10*
%TO.C,D5*%
X70050000Y9425000D03*
X70050000Y11925000D03*
%TD*%
D47*
%TO.C,U21*%
X82250000Y59600000D03*
X82250000Y65150000D03*
X77400000Y59600000D03*
X77400000Y65150000D03*
D48*
X88975000Y58975000D03*
X88975000Y60675000D03*
X88975000Y62375000D03*
X88975000Y64075000D03*
X88975000Y65775000D03*
%TD*%
D40*
%TO.C,D28*%
X98332500Y41645000D03*
X102332500Y41645000D03*
%TD*%
D17*
%TO.C,R13*%
X38530000Y18950000D03*
X38530000Y17300000D03*
%TD*%
D15*
%TO.C,U4*%
X38787500Y15575000D03*
D16*
X38250000Y15650000D03*
D15*
X37712500Y15575000D03*
X37712500Y13875000D03*
D16*
X38250000Y13800000D03*
D15*
X38787500Y13875000D03*
%TD*%
D14*
%TO.C,R47*%
X38650000Y5400000D03*
X38650000Y7050000D03*
%TD*%
D13*
%TO.C,C14*%
X41875000Y51725000D03*
X41875000Y50175000D03*
%TD*%
D41*
%TO.C,R34*%
X10500000Y21950000D03*
X8850000Y21950000D03*
%TD*%
D17*
%TO.C,R7*%
X39025000Y61150000D03*
X39025000Y59500000D03*
%TD*%
D57*
%TO.C,C16*%
X102190000Y74640000D03*
X102190000Y76540000D03*
%TD*%
D36*
%TO.C,R4*%
X67700000Y18050000D03*
X69350000Y18050000D03*
%TD*%
D47*
%TO.C,U19*%
X82450000Y45275000D03*
X82450000Y50825000D03*
X77600000Y45275000D03*
X77600000Y50825000D03*
D48*
X89175000Y44650000D03*
X89175000Y46350000D03*
X89175000Y48050000D03*
X89175000Y49750000D03*
X89175000Y51450000D03*
%TD*%
D10*
%TO.C,D16*%
X97050000Y8450000D03*
X97050000Y10950000D03*
%TD*%
D39*
%TO.C,C2*%
X38700000Y9525000D03*
X38700000Y11075000D03*
%TD*%
D17*
%TO.C,R3*%
X71400000Y18700000D03*
X71400000Y17050000D03*
%TD*%
D12*
%TO.C,D2*%
X69460000Y25980000D03*
X71960000Y25980000D03*
%TD*%
D26*
%TO.C,C5*%
X31000000Y36150000D03*
X32550000Y36150000D03*
%TD*%
D34*
%TO.C,Q1*%
X69487500Y16137500D03*
X67587500Y16137500D03*
X68537500Y14262500D03*
%TD*%
D41*
%TO.C,R16*%
X22625000Y78125000D03*
X20975000Y78125000D03*
%TD*%
D17*
%TO.C,R32*%
X61800000Y64600000D03*
X61800000Y62950000D03*
%TD*%
D28*
%TO.C,U8*%
X69525000Y78975000D03*
D29*
X70062500Y78900000D03*
D28*
X70600000Y78975000D03*
X70600000Y80675000D03*
D29*
X70062500Y80750000D03*
D28*
X69525000Y80675000D03*
%TD*%
D58*
%TO.C,U10*%
X37000000Y70000000D03*
X37000000Y70950000D03*
X37000000Y71900000D03*
X34725000Y71900000D03*
X34725000Y70950000D03*
X34725000Y70000000D03*
%TD*%
D12*
%TO.C,D15*%
X105475000Y30675000D03*
X107975000Y30675000D03*
%TD*%
D34*
%TO.C,Q5*%
X77425000Y16412500D03*
X75525000Y16412500D03*
X76475000Y14537500D03*
%TD*%
D59*
%TO.C,SW2*%
X17025000Y55375000D03*
X22275000Y55375000D03*
X17025000Y52175000D03*
X22275000Y52175000D03*
%TD*%
D41*
%TO.C,R6*%
X12460000Y60700000D03*
X10810000Y60700000D03*
%TD*%
D36*
%TO.C,R48*%
X64850000Y50850000D03*
X66500000Y50850000D03*
%TD*%
D17*
%TO.C,R12*%
X17180000Y13690000D03*
X17180000Y12040000D03*
%TD*%
D41*
%TO.C,R2*%
X6600000Y59560000D03*
X4950000Y59560000D03*
%TD*%
%TO.C,R33*%
X43450000Y40800000D03*
X41800000Y40800000D03*
%TD*%
D11*
%TO.C,U14*%
X11050000Y76400000D03*
X12450000Y76400000D03*
%TD*%
D12*
%TO.C,D21*%
X108350000Y81550000D03*
X105850000Y81550000D03*
%TD*%
D14*
%TO.C,R20*%
X57150000Y62950000D03*
X57150000Y64600000D03*
%TD*%
D12*
%TO.C,D4*%
X69290000Y28500000D03*
X71790000Y28500000D03*
%TD*%
D60*
%TO.C,L4*%
X63200000Y56150000D03*
X63200000Y53950000D03*
%TD*%
D10*
%TO.C,D12*%
X14600000Y82250000D03*
X14600000Y79750000D03*
%TD*%
%TO.C,D6*%
X16205000Y46500000D03*
X16205000Y44000000D03*
%TD*%
D36*
%TO.C,R22*%
X25975000Y37825000D03*
X27625000Y37825000D03*
%TD*%
%TO.C,R31*%
X19275000Y57575000D03*
X20925000Y57575000D03*
%TD*%
D17*
%TO.C,R37*%
X40525000Y71625000D03*
X40525000Y69975000D03*
%TD*%
%TO.C,R11*%
X40625000Y61150000D03*
X40625000Y59500000D03*
%TD*%
D39*
%TO.C,C6*%
X49575000Y51575000D03*
X49575000Y53125000D03*
%TD*%
D26*
%TO.C,C22*%
X62525000Y47312500D03*
X64075000Y47312500D03*
%TD*%
D61*
%TO.C,Q4*%
X11137500Y29937500D03*
X11137500Y31837500D03*
X9262500Y30887500D03*
%TD*%
D62*
%TO.C,Y1*%
X36350000Y45550000D03*
X38550000Y45550000D03*
X38550000Y47250000D03*
X36350000Y47250000D03*
%TD*%
D63*
%TO.C,L2*%
X96450000Y45275000D03*
X96450000Y51325000D03*
%TD*%
D17*
%TO.C,R27*%
X35025000Y65925000D03*
X35025000Y64275000D03*
%TD*%
D63*
%TO.C,L1*%
X96225000Y31550000D03*
X96225000Y37600000D03*
%TD*%
D15*
%TO.C,U2*%
X11830000Y57260000D03*
D16*
X11292500Y57335000D03*
D15*
X10755000Y57260000D03*
X10755000Y55560000D03*
D16*
X11292500Y55485000D03*
D15*
X11830000Y55560000D03*
%TD*%
D10*
%TO.C,D13*%
X84825000Y12600000D03*
X84825000Y15100000D03*
%TD*%
D17*
%TO.C,R38*%
X31300000Y71725000D03*
X31300000Y70075000D03*
%TD*%
D38*
%TO.C,R50*%
X21500000Y37950000D03*
X19500000Y37950000D03*
%TD*%
D64*
%TO.C,C28*%
X81967500Y74075000D03*
X90367500Y74075000D03*
%TD*%
D13*
%TO.C,C1*%
X54950000Y11200000D03*
X54950000Y9650000D03*
%TD*%
D40*
%TO.C,D29*%
X94800000Y56050000D03*
X98800000Y56050000D03*
%TD*%
D41*
%TO.C,R5*%
X14400000Y58950000D03*
X12750000Y58950000D03*
%TD*%
D65*
%TO.C,D26*%
X102800000Y8850000D03*
X102800000Y2050000D03*
%TD*%
D17*
%TO.C,R9*%
X43630000Y18960000D03*
X43630000Y17310000D03*
%TD*%
D66*
%TO.C,C31*%
X62625000Y51625000D03*
X60725000Y51625000D03*
%TD*%
D32*
%TO.C,Q6*%
X85212500Y19512500D03*
X85212500Y17612500D03*
X87087500Y18562500D03*
%TD*%
D67*
%TO.C,CONN1*%
X40535000Y77275000D03*
X39515000Y77275000D03*
X38495000Y77275000D03*
X37475000Y77275000D03*
X36455000Y77275000D03*
X35435000Y77275000D03*
X34415000Y77275000D03*
X33395000Y77275000D03*
D68*
X42715000Y77275000D03*
X43925000Y77275000D03*
X31235000Y77275000D03*
X30025000Y77275000D03*
D69*
X45875000Y87225000D03*
X28075000Y87225000D03*
%TD*%
D14*
%TO.C,R26*%
X72350000Y75900000D03*
X72350000Y77550000D03*
%TD*%
D39*
%TO.C,C27*%
X97600000Y74000000D03*
X97600000Y75550000D03*
%TD*%
D70*
%TO.C,U7*%
X54692500Y68842500D03*
X55192500Y68842500D03*
X55692500Y68842500D03*
X56192500Y68842500D03*
X56692500Y68842500D03*
X57192500Y68842500D03*
X57692500Y68842500D03*
X57692500Y70192500D03*
X57192500Y70192500D03*
X56692500Y70192500D03*
X56192500Y70192500D03*
X55692500Y70192500D03*
X55192500Y70192500D03*
X54692500Y70192500D03*
%TD*%
M02*
