M48
; DRILL file {KiCad 9.0.2} date 2026-07-24T01:25:49+0100
; FORMAT={-:-/ absolute / metric / decimal}
; #@! TF.CreationDate,2026-07-24T01:25:49+01:00
; #@! TF.GenerationSoftware,Kicad,Pcbnew,9.0.2
; #@! TF.FileFunction,Plated,1,4,PTH
FMAT,2
METRIC
; #@! TA.AperFunction,Plated,PTH,ViaDrill
T1C0.300
; #@! TA.AperFunction,Plated,PTH,ComponentDrill
T2C0.500
; #@! TA.AperFunction,Plated,PTH,ComponentDrill
T3C0.950
; #@! TA.AperFunction,Plated,PTH,ComponentDrill
T4C1.000
; #@! TA.AperFunction,Plated,PTH,ComponentDrill
T5C1.190
; #@! TA.AperFunction,Plated,PTH,ComponentDrill
T6C1.300
%
G90
G05
T1
X1.15Y59.525
X3.25Y53.23
X3.57Y59.22
X4.2Y78.6
X5.4Y56.5
X6.05Y55.925
X6.675Y20.125
X7.675Y62.575
X7.8Y27.75
X8.675Y57.25
X9.65Y26.125
X10.825Y37.775
X10.9Y36.725
X11.25Y58.41
X11.775Y53.15
X12.05Y79.275
X12.5Y21.85
X13.75Y62.35
X14.025Y64.625
X14.668Y83.087
X16.775Y23.025
X16.9Y62.075
X17.15Y15.7
X17.3Y81.025
X17.95Y79.45
X18.0Y37.95
X18.325Y55.375
X18.415Y82.775
X18.85Y78.2
X19.45Y42.275
X19.49Y82.825
X19.675Y78.775
X19.675Y53.225
X19.739Y33.04
X20.725Y55.375
X21.1Y17.25
X22.92Y31.0
X22.96Y28.48
X22.99Y25.93
X23.0Y37.925
X23.15Y40.075
X24.925Y76.95
X25.775Y50.975
X26.35Y76.325
X26.65Y32.899
X28.4Y57.85
X28.45Y68.85
X28.45Y59.75
X28.65Y56.3
X28.85Y15.9
X28.85Y8.5
X29.7Y44.375
X29.95Y53.35
X30.025Y61.05
X30.8Y63.3
X31.725Y81.125
X32.1Y65.325
X32.325Y40.4
X33.2Y70.975
X33.7Y58.45
X34.375Y82.775
X34.425Y72.975
X34.7Y66.975
X35.4Y43.775
X36.05Y61.3
X36.395Y68.67
X36.45Y74.15
X36.55Y18.65
X36.825Y72.875
X36.85Y64.175
X37.03Y16.53
X37.5Y61.15
X37.9Y12.525
X38.4Y73.825
X38.63Y31.0
X38.67Y28.46
X38.69Y25.94
X38.725Y41.175
X38.75Y71.2
X39.3Y82.05
X39.5Y63.525
X39.55Y56.375
X39.56Y55.41
X41.05Y63.5
X42.805Y36.095
X43.7Y22.575
X43.817Y36.258
X44.175Y63.975
X44.775Y21.05
X44.825Y42.35
X44.9Y34.975
X45.1Y16.275
X45.2Y60.7
X45.275Y37.2
X45.722Y39.825
X46.125Y37.15
X46.5Y49.251
X46.55Y54.675
X46.7Y56.411
X46.9Y35.65
X46.975Y12.075
X46.98Y16.9
X47.05Y46.825
X47.926Y34.049
X48.35Y48.825
X48.545Y36.723
X48.888Y35.012
X48.975Y58.2
X49.1Y35.875
X49.1Y22.45
X49.19Y56.176
X49.425Y13.675
X49.525Y55.45
X49.766Y36.684
X49.875Y49.175
X50.55Y22.8
X50.675Y57.05
X50.85Y41.825
X50.887Y45.337
X51.3Y34.95
X51.3Y29.825
X51.325Y67.875
X51.375Y27.025
X51.537Y55.137
X52.325Y37.125
X52.351Y35.875
X52.425Y65.825
X52.738Y59.763
X53.051Y56.499
X53.1Y59.05
X53.174Y57.29
X53.35Y7.45
X53.525Y36.708
X53.55Y54.175
X53.75Y61.4
X53.965Y57.413
X54.025Y58.8
X54.375Y33.8
X54.4Y41.825
X54.41Y28.48
X54.45Y25.94
X54.47Y31.0
X54.53Y57.979
X54.537Y45.512
X55.55Y65.8
X56.05Y60.65
X56.35Y16.125
X56.475Y75.025
X56.5Y20.975
X56.589Y57.45
X56.955Y55.775
X57.0Y67.1
X57.425Y47.775
X57.65Y54.1
X57.725Y52.625
X57.862Y38.112
X57.95Y34.875
X58.0Y41.976
X58.25Y72.0
X58.25Y49.975
X58.4Y67.65
X58.45Y74.65
X58.683Y57.916
X58.7Y65.75
X59.012Y41.95
X59.154Y57.27
X59.425Y77.25
X59.5Y34.975
X59.677Y41.475
X60.275Y40.875
X60.8Y75.225
X61.667Y42.656
X62.0Y66.025
X62.075Y45.35
X62.2Y21.75
X62.2Y14.875
X62.625Y50.1
X62.625Y48.125
X63.175Y44.775
X63.696Y44.168
X64.575Y45.65
X65.0Y20.7
X65.05Y73.2
X65.225Y16.3
X65.334Y45.397
X65.425Y63.825
X65.8Y59.475
X66.37Y31.03
X66.4Y28.48
X66.4Y25.94
X67.05Y39.625
X67.65Y63.75
X68.025Y72.5
X68.1Y65.2
X68.8Y57.175
X68.85Y54.7
X69.7Y70.7
X70.0Y41.85
X70.125Y77.7
X70.494Y70.818
X70.725Y56.05
X72.55Y33.525
X79.325Y21.6
X79.487Y80.938
X81.4Y13.6
X82.575Y20.5
X86.65Y55.15
X89.175Y43.2
X89.225Y56.1
X89.375Y77.55
X90.263Y27.637
X91.925Y36.75
X93.25Y36.75
X94.737Y40.587
X95.537Y39.788
X99.9Y82.6
X102.125Y47.825
X102.125Y46.175
X102.15Y49.75
X102.175Y44.575
X102.575Y32.45
X103.175Y46.95
X103.2Y49.775
X104.375Y49.775
X104.375Y46.875
X105.8Y49.775
X105.8Y46.9
X105.85Y44.375
X107.225Y47.55
X107.225Y46.4
X107.475Y49.4
X107.475Y44.55
X107.5Y79.05
X108.35Y48.475
X108.35Y45.475
X109.8Y47.05
T2
X43.95Y48.395
X45.85Y48.395
T3
X3.2Y72.5
X3.2Y70.0
X3.2Y67.5
X3.43Y51.56
X3.43Y49.06
X3.43Y46.56
X3.43Y44.06
X3.475Y35.8
X3.475Y33.3
X3.475Y30.8
X3.475Y24.25
X3.475Y21.75
X3.475Y19.25
X3.475Y16.75
X11.0Y72.5
X11.0Y70.0
X11.0Y67.5
X11.23Y51.56
X11.23Y49.06
X11.23Y46.56
X11.23Y44.06
X25.0Y11.0
X25.0Y8.5
X25.0Y6.0
X25.0Y3.5
X32.8Y11.0
X32.8Y8.5
X32.8Y6.0
X32.8Y3.5
X93.0Y86.525
X95.5Y86.525
X98.0Y86.525
X100.5Y86.525
X103.0Y86.525
T4
X21.85Y73.725
X21.85Y66.125
X58.25Y4.525
X60.75Y4.525
X66.425Y87.7
X66.425Y84.11
X67.25Y4.525
X68.965Y87.7
X68.965Y84.11
X69.75Y4.525
X71.505Y87.7
X71.505Y84.11
X74.045Y87.7
X74.045Y84.11
X81.3Y87.78
X81.3Y85.24
X81.3Y82.7
X85.15Y87.78
X85.15Y85.24
X85.15Y82.7
X115.9Y15.15
X115.9Y12.65
T5
X43.0Y11.04
X43.0Y8.5
X43.0Y5.96
X43.0Y3.42
X50.51Y11.04
X50.51Y8.5
X50.51Y5.96
X50.51Y3.42
T6
X76.475Y5.85
X81.555Y5.85
X88.106Y5.772
X93.186Y5.772
X114.497Y29.035
X114.497Y23.955
T4
G00X106.0Y36.0
M15
G01X106.0Y38.0
M16
G05
G00X110.0Y41.7
M15
G01X108.0Y41.7
M16
G05
G00X112.0Y36.0
M15
G01X112.0Y38.0
M16
G05
M30
