%TF.GenerationSoftware,KiCad,Pcbnew,9.0.2*%
%TF.CreationDate,2026-07-30T05:10:02+01:00*%
%TF.ProjectId,fabrizio_project _sensorboard,66616272-697a-4696-9f5f-70726f6a6563,rev?*%
%TF.SameCoordinates,Original*%
%TF.FileFunction,Copper,L1,Top*%
%TF.FilePolarity,Positive*%
%FSLAX46Y46*%
G04 Gerber Fmt 4.6, Leading zero omitted, Abs format (unit mm)*
G04 Created by KiCad (PCBNEW 9.0.2) date 2026-07-30 05:10:02*
%MOMM*%
%LPD*%
G01*
G04 APERTURE LIST*
G04 Aperture macros list*
%AMRoundRect*
0 Rectangle with rounded corners*
0 $1 Rounding radius*
0 $2 $3 $4 $5 $6 $7 $8 $9 X,Y pos of 4 corners*
0 Add a 4 corners polygon primitive as box body*
4,1,4,$2,$3,$4,$5,$6,$7,$8,$9,$2,$3,0*
0 Add four circle primitives for the rounded corners*
1,1,$1+$1,$2,$3*
1,1,$1+$1,$4,$5*
1,1,$1+$1,$6,$7*
1,1,$1+$1,$8,$9*
0 Add four rect primitives between the rounded corners*
20,1,$1+$1,$2,$3,$4,$5,0*
20,1,$1+$1,$4,$5,$6,$7,0*
20,1,$1+$1,$6,$7,$8,$9,0*
20,1,$1+$1,$8,$9,$2,$3,0*%
%AMHorizOval*
0 Thick line with rounded ends*
0 $1 width*
0 $2 $3 position (X,Y) of the first rounded end (center of the circle)*
0 $4 $5 position (X,Y) of the second rounded end (center of the circle)*
0 Add line between two ends*
20,1,$1,$2,$3,$4,$5,0*
0 Add two circle primitives to create the rounded ends*
1,1,$1,$2,$3*
1,1,$1,$4,$5*%
G04 Aperture macros list end*
%TA.AperFunction,ComponentPad*%
%ADD10RoundRect,0.250000X0.600000X0.725000X-0.600000X0.725000X-0.600000X-0.725000X0.600000X-0.725000X0*%
%TD*%
%TA.AperFunction,ComponentPad*%
%ADD11O,1.700000X1.950000*%
%TD*%
%TA.AperFunction,ComponentPad*%
%ADD12RoundRect,0.250000X-0.927868X0.157115X-0.327868X-0.882115X0.927868X-0.157115X0.327868X0.882115X0*%
%TD*%
%TA.AperFunction,ComponentPad*%
%ADD13HorizOval,1.700000X-0.108253X-0.062500X0.108253X0.062500X0*%
%TD*%
%TA.AperFunction,WasherPad*%
%ADD14C,4.000000*%
%TD*%
%TA.AperFunction,ComponentPad*%
%ADD15C,1.524000*%
%TD*%
%TA.AperFunction,SMDPad,CuDef*%
%ADD16RoundRect,0.150000X-0.512500X-0.150000X0.512500X-0.150000X0.512500X0.150000X-0.512500X0.150000X0*%
%TD*%
%TA.AperFunction,SMDPad,CuDef*%
%ADD17RoundRect,0.250000X0.250000X0.475000X-0.250000X0.475000X-0.250000X-0.475000X0.250000X-0.475000X0*%
%TD*%
%TA.AperFunction,SMDPad,CuDef*%
%ADD18RoundRect,0.225000X0.250000X-0.225000X0.250000X0.225000X-0.250000X0.225000X-0.250000X-0.225000X0*%
%TD*%
%TA.AperFunction,SMDPad,CuDef*%
%ADD19RoundRect,0.250000X0.475000X-0.250000X0.475000X0.250000X-0.475000X0.250000X-0.475000X-0.250000X0*%
%TD*%
%TA.AperFunction,ConnectorPad*%
%ADD20R,1.524000X1.524000*%
%TD*%
%TA.AperFunction,SMDPad,CuDef*%
%ADD21RoundRect,0.475000X0.475000X1.275000X-0.475000X1.275000X-0.475000X-1.275000X0.475000X-1.275000X0*%
%TD*%
%TA.AperFunction,SMDPad,CuDef*%
%ADD22RoundRect,0.200000X0.200000X1.550000X-0.200000X1.550000X-0.200000X-1.550000X0.200000X-1.550000X0*%
%TD*%
%TA.AperFunction,SMDPad,CuDef*%
%ADD23RoundRect,0.175000X0.175000X1.575000X-0.175000X1.575000X-0.175000X-1.575000X0.175000X-1.575000X0*%
%TD*%
%TA.AperFunction,SMDPad,CuDef*%
%ADD24RoundRect,0.225000X-0.225000X-0.625000X0.225000X-0.625000X0.225000X0.625000X-0.225000X0.625000X0*%
%TD*%
%TA.AperFunction,SMDPad,CuDef*%
%ADD25RoundRect,0.150000X-0.150000X-0.475000X0.150000X-0.475000X0.150000X0.475000X-0.150000X0.475000X0*%
%TD*%
%TA.AperFunction,ViaPad*%
%ADD26C,0.600000*%
%TD*%
%TA.AperFunction,Conductor*%
%ADD27C,0.400000*%
%TD*%
%TA.AperFunction,Conductor*%
%ADD28C,1.000000*%
%TD*%
%TA.AperFunction,Conductor*%
%ADD29C,0.200000*%
%TD*%
G04 APERTURE END LIST*
D10*
%TO.P,J4,1,Pin_1*%
%TO.N,/Sensor Board/12-24V_IN*%
X176960000Y-95710000D03*
D11*
%TO.P,J4,2,Pin_2*%
%TO.N,/Sensor Board/WS2811*%
X174460000Y-95710000D03*
%TO.P,J4,3,Pin_3*%
%TO.N,/Sensor Board/GND*%
X171960000Y-95710000D03*
%TD*%
D12*
%TO.P,POWER_IN1,1,Pin_1*%
%TO.N,/Sensor Board/GND*%
X171534664Y-72927373D03*
D13*
%TO.P,POWER_IN1,2,Pin_2*%
%TO.N,/Sensor Board/9V*%
X172784664Y-75092437D03*
%TO.P,POWER_IN1,3,Pin_3*%
%TO.N,unconnected-(POWER_IN1-Pin_3-Pad3)*%
X174034664Y-77257500D03*
%TO.P,POWER_IN1,4,Pin_4*%
%TO.N,/Sensor Board/5V*%
X175284664Y-79422564D03*
%TO.P,POWER_IN1,5,Pin_5*%
%TO.N,/Sensor Board/12-24V_IN*%
X176534664Y-81587627D03*
%TD*%
D14*
%TO.P,MQ1,*%
%TO.N,*%
X119492000Y-80278000D03*
X119492000Y-96534000D03*
X145146000Y-80278000D03*
X145146000Y-96534000D03*
D15*
%TO.P,MQ1,1,VCC*%
%TO.N,/Sensor Board/5V*%
X146240000Y-92150000D03*
%TO.P,MQ1,2,GND*%
%TO.N,/Sensor Board/GND*%
X146240000Y-89610000D03*
%TO.P,MQ1,3,DO*%
%TO.N,unconnected-(MQ1-DO-Pad3)*%
X146240000Y-87070000D03*
%TO.P,MQ1,4,AO*%
%TO.N,Net-(MQ1-AO)*%
X146240000Y-84530000D03*
%TD*%
D16*
%TO.P,U12,3,VIN*%
%TO.N,/Sensor Board/5V*%
X158800000Y-70525000D03*
%TO.P,U12,2,VOUT*%
%TO.N,/Sensor Board/3V*%
X156525000Y-71475000D03*
%TO.P,U12,1,GND*%
%TO.N,/Sensor Board/GND*%
X156525000Y-69575000D03*
%TD*%
D17*
%TO.P,C22,1*%
%TO.N,/Sensor Board/5V*%
X158000000Y-67350000D03*
%TO.P,C22,2*%
%TO.N,/Sensor Board/GND*%
X156100000Y-67350000D03*
%TD*%
D18*
%TO.P,C25,1*%
%TO.N,/Sensor Board/3V*%
X152325000Y-71475000D03*
%TO.P,C25,2*%
%TO.N,/Sensor Board/GND*%
X152325000Y-69925000D03*
%TD*%
D19*
%TO.P,C23,1*%
%TO.N,/Sensor Board/3V*%
X154200000Y-71475000D03*
%TO.P,C23,2*%
%TO.N,/Sensor Board/GND*%
X154200000Y-69575000D03*
%TD*%
D15*
%TO.P,MEMS_SMOKE1,1,A*%
%TO.N,/Sensor Board/MEMS_AOUT*%
X133565660Y-72690659D03*
D20*
X134325660Y-72690659D03*
D15*
%TO.P,MEMS_SMOKE1,2,VCC*%
%TO.N,/Sensor Board/3V*%
X133565660Y-70150659D03*
D20*
X134325660Y-70140659D03*
D15*
%TO.P,MEMS_SMOKE1,3,GND*%
%TO.N,/Sensor Board/GND*%
X133565660Y-67610659D03*
D20*
X134325660Y-67610659D03*
%TD*%
D15*
%TO.P,BME1,1,VIN*%
%TO.N,Net-(BME1-VIN)*%
X151850000Y-79060000D03*
%TO.P,BME1,2,3V*%
%TO.N,Net-(BME1-3V)*%
X151850000Y-81600000D03*
%TO.P,BME1,3,GND*%
%TO.N,/Sensor Board/GND*%
X151850000Y-84140000D03*
%TO.P,BME1,4,SCK*%
%TO.N,/Sensor Board/SCL*%
X151850000Y-86680000D03*
%TO.P,BME1,5,SDO*%
%TO.N,unconnected-(BME1-SDO-Pad5)*%
X151850000Y-89220000D03*
%TO.P,BME1,6,SDI*%
%TO.N,/Sensor Board/SDA*%
X151850000Y-91760000D03*
%TO.P,BME1,7,CS*%
%TO.N,unconnected-(BME1-CS-Pad7)*%
X151850000Y-94300000D03*
%TD*%
D21*
%TO.P,SENSOR_IN1,SH*%
%TO.N,/Sensor Board/GND*%
X137535000Y-52475000D03*
X155335000Y-52475000D03*
D22*
%TO.P,SENSOR_IN1,12*%
%TO.N,unconnected-(SENSOR_IN1-Pad12)*%
X139485000Y-62425000D03*
%TO.P,SENSOR_IN1,11*%
%TO.N,unconnected-(SENSOR_IN1-Pad11)*%
X140695000Y-62425000D03*
%TO.P,SENSOR_IN1,10*%
%TO.N,unconnected-(SENSOR_IN1-Pad10)*%
X153385000Y-62425000D03*
%TO.P,SENSOR_IN1,9*%
%TO.N,unconnected-(SENSOR_IN1-Pad9)*%
X152175000Y-62425000D03*
D23*
%TO.P,SENSOR_IN1,8*%
%TO.N,/Sensor Board/GND*%
X142855000Y-62425000D03*
%TO.P,SENSOR_IN1,7*%
%TO.N,/Sensor Board/SDA*%
X143875000Y-62425000D03*
%TO.P,SENSOR_IN1,6*%
%TO.N,/Sensor Board/SCL*%
X144895000Y-62425000D03*
%TO.P,SENSOR_IN1,5*%
%TO.N,/Sensor Board/WS2811*%
X145915000Y-62425000D03*
%TO.P,SENSOR_IN1,4*%
%TO.N,/Sensor Board/MUTE*%
X146935000Y-62425000D03*
%TO.P,SENSOR_IN1,3*%
%TO.N,/Sensor Board/ALARM*%
X147955000Y-62425000D03*
%TO.P,SENSOR_IN1,2*%
%TO.N,/Sensor Board/MQ2_DO*%
X148975000Y-62425000D03*
%TO.P,SENSOR_IN1,1*%
%TO.N,/Sensor Board/MEMS_AOUT*%
X149995000Y-62425000D03*
%TD*%
D12*
%TO.P,ELECBEE1,1,GND*%
%TO.N,/Sensor Board/GND*%
X163174664Y-58487373D03*
D13*
%TO.P,ELECBEE1,2,+9V*%
%TO.N,/Sensor Board/9V*%
X164424664Y-60652437D03*
%TO.P,ELECBEE1,3,NO*%
%TO.N,unconnected-(ELECBEE1-NO-Pad3)*%
X165674664Y-62817500D03*
%TO.P,ELECBEE1,4,CO*%
%TO.N,/Sensor Board/ALARM*%
X166924664Y-64982564D03*
%TO.P,ELECBEE1,5,NC*%
%TO.N,/Sensor Board/GND*%
X168174664Y-67147627D03*
%TD*%
D24*
%TO.P,OPTICAL_SMOKE1,MP,MP*%
%TO.N,/Sensor Board/GND*%
X134680000Y-61180000D03*
X127780000Y-61180000D03*
D25*
%TO.P,OPTICAL_SMOKE1,5,VCC*%
%TO.N,/Sensor Board/3.7V*%
X133230000Y-58055000D03*
%TO.P,OPTICAL_SMOKE1,4,GND*%
%TO.N,/Sensor Board/GND*%
X132230000Y-58055000D03*
%TO.P,OPTICAL_SMOKE1,3,NC*%
%TO.N,unconnected-(OPTICAL_SMOKE1-NC-Pad3)*%
X131230000Y-58055000D03*
%TO.P,OPTICAL_SMOKE1,2,MUTE*%
%TO.N,/Sensor Board/MUTE*%
X130230000Y-58055000D03*
%TO.P,OPTICAL_SMOKE1,1,ALARM*%
%TO.N,/Sensor Board/ALARM*%
X129230000Y-58055000D03*
%TD*%
D26*
%TO.N,/Sensor Board/GND*%
X169275000Y-90325000D03*
X168525000Y-77925000D03*
%TO.N,/Sensor Board/3.7V*%
X129900000Y-65310000D03*
%TO.N,/Sensor Board/5V*%
X159370000Y-79260000D03*
X158890000Y-96410000D03*
X160150000Y-73250000D03*
%TO.N,/Sensor Board/3V*%
X156874022Y-90373686D03*
X158100000Y-81620000D03*
X156875000Y-88080000D03*
%TO.N,/Sensor Board/9V*%
X166710000Y-84410000D03*
X166690000Y-97720000D03*
%TO.N,/Sensor Board/WS2811*%
X147200000Y-66560000D03*
%TO.N,/Sensor Board/MQ2_DO*%
X146810000Y-71360000D03*
%TO.N,/Sensor Board/ALARM*%
X155010000Y-57190000D03*
X150950000Y-57190000D03*
%TO.N,/Sensor Board/MUTE*%
X130620000Y-56760000D03*
X140970000Y-56760000D03*
%TO.N,/Sensor Board/MEMS_AOUT*%
X137600000Y-72630000D03*
X144420000Y-72690659D03*
%TO.N,/Sensor Board/GND*%
X133930000Y-91850000D03*
X133870000Y-80760000D03*
X132750000Y-91850000D03*
X131540000Y-91850000D03*
X132690000Y-80750616D03*
%TO.N,/Sensor Board/3V*%
X161940000Y-76300000D03*
%TD*%
D27*
%TO.N,/Sensor Board/3V*%
X161350000Y-76300000D02*
X161940000Y-76300000D01*
X156525000Y-71475000D02*
X161350000Y-76300000D01*
X156525000Y-71475000D02*
X152325000Y-71475000D01*
%TO.N,/Sensor Board/5V*%
X158475000Y-67350000D02*
X158000000Y-67350000D01*
X158825000Y-68125000D02*
X158825000Y-67700000D01*
X158825000Y-67700000D02*
X158475000Y-67350000D01*
X158800000Y-68150000D02*
X158825000Y-68125000D01*
X158800000Y-70525000D02*
X158800000Y-68150000D01*
X159225000Y-70950000D02*
X158800000Y-70525000D01*
X159225000Y-72325000D02*
X159225000Y-70950000D01*
X160150000Y-73250000D02*
X159225000Y-72325000D01*
%TO.N,/Sensor Board/3V*%
X161590000Y-78560000D02*
X161940000Y-78210000D01*
X161940000Y-78210000D02*
X161940000Y-76300000D01*
D28*
%TO.N,/Sensor Board/GND*%
X171960000Y-91685000D02*
X171960000Y-95710000D01*
X170600000Y-90325000D02*
X171960000Y-91685000D01*
X169275000Y-90325000D02*
X170600000Y-90325000D01*
X168525000Y-75937037D02*
X168525000Y-77925000D01*
X171534664Y-72927373D02*
X168525000Y-75937037D01*
D29*
%TO.N,/Sensor Board/3.7V*%
X133230000Y-58055000D02*
X133230000Y-61980000D01*
X133230000Y-61980000D02*
X129900000Y-65310000D01*
D27*
%TO.N,/Sensor Board/5V*%
X159370000Y-95930000D02*
X159370000Y-79260000D01*
X175284664Y-79422564D02*
X159532564Y-79422564D01*
X159532564Y-79422564D02*
X159370000Y-79260000D01*
X158890000Y-96410000D02*
X159370000Y-95930000D01*
%TO.N,unconnected-(POWER_IN1-Pin_3-Pad3)*%
X174034664Y-77625336D02*
X174034664Y-77257500D01*
D29*
%TO.N,/Sensor Board/3V*%
X156874022Y-90373686D02*
X156874022Y-88080978D01*
D27*
X159080050Y-78560000D02*
X161590000Y-78560000D01*
D29*
X156874022Y-88080978D02*
X156875000Y-88080000D01*
D27*
X158100000Y-81620000D02*
X158100000Y-79540050D01*
X158100000Y-79540050D02*
X159080050Y-78560000D01*
D28*
%TO.N,/Sensor Board/12-24V_IN*%
X176534664Y-95284664D02*
X176534664Y-81587627D01*
X176960000Y-95710000D02*
X176534664Y-95284664D01*
D27*
%TO.N,/Sensor Board/9V*%
X166690000Y-84430000D02*
X166710000Y-84410000D01*
X166690000Y-97720000D02*
X166690000Y-84430000D01*
D29*
%TO.N,/Sensor Board/WS2811*%
X145885000Y-65245000D02*
X147200000Y-66560000D01*
X145885000Y-62805000D02*
X145885000Y-65245000D01*
D27*
%TO.N,/Sensor Board/MQ2_DO*%
X148945000Y-62805000D02*
X148945000Y-69225000D01*
X148945000Y-69225000D02*
X146810000Y-71360000D01*
D29*
%TO.N,/Sensor Board/ALARM*%
X157940000Y-57190000D02*
X155010000Y-57190000D01*
X147900000Y-57190000D02*
X146691739Y-55981739D01*
X166924664Y-64982564D02*
X161422564Y-64982564D01*
X161422564Y-64982564D02*
X160340000Y-63900000D01*
X146691739Y-55981739D02*
X129308261Y-55981739D01*
X129230000Y-56060000D02*
X129230000Y-58055000D01*
X150950000Y-57190000D02*
X147900000Y-57190000D01*
X160340000Y-63900000D02*
X160340000Y-63780000D01*
X129308261Y-55981739D02*
X129230000Y-56060000D01*
X159050000Y-58300000D02*
X157940000Y-57190000D01*
X160340000Y-63780000D02*
X159050000Y-62490000D01*
X147900000Y-61030000D02*
X147900000Y-57190000D01*
X147925000Y-62805000D02*
X147925000Y-61055000D01*
X147925000Y-61055000D02*
X147900000Y-61030000D01*
X159050000Y-62490000D02*
X159050000Y-58300000D01*
%TO.N,/Sensor Board/MUTE*%
X130470000Y-56760000D02*
X130230000Y-57000000D01*
X130230000Y-57000000D02*
X130230000Y-58055000D01*
X146905000Y-57325000D02*
X146340000Y-56760000D01*
X146340000Y-56760000D02*
X140970000Y-56760000D01*
X130620000Y-56760000D02*
X130470000Y-56760000D01*
X146905000Y-62805000D02*
X146905000Y-57325000D01*
D27*
%TO.N,/Sensor Board/MEMS_AOUT*%
X137600000Y-72630000D02*
X137539341Y-72690659D01*
X149965000Y-69685000D02*
X146959341Y-72690659D01*
X146959341Y-72690659D02*
X144420000Y-72690659D01*
X149965000Y-62805000D02*
X149965000Y-69685000D01*
X137539341Y-72690659D02*
X133565660Y-72690659D01*
D29*
%TO.N,/Sensor Board/SCL*%
X147879654Y-75489654D02*
X150050000Y-77750000D01*
X144865000Y-66635000D02*
X141200000Y-70300000D01*
X150050000Y-77750000D02*
X150030000Y-82170000D01*
X150030000Y-85920000D02*
X150800000Y-86690000D01*
X144865000Y-62805000D02*
X144865000Y-66635000D01*
X141200000Y-70300000D02*
X141200000Y-73079308D01*
X150030000Y-82170000D02*
X150030000Y-85920000D01*
X143610346Y-75489654D02*
X147879654Y-75489654D01*
X150800000Y-86690000D02*
X151854000Y-86690000D01*
X141200000Y-73079308D02*
X143610346Y-75489654D01*
%TO.N,/Sensor Board/SDA*%
X140450000Y-73380000D02*
X143300000Y-76230000D01*
X147760000Y-76230000D02*
X149590000Y-78060000D01*
X150590000Y-91770000D02*
X151854000Y-91770000D01*
X140450000Y-69770000D02*
X140450000Y-73380000D01*
X143300000Y-76230000D02*
X147760000Y-76230000D01*
X149590000Y-90770000D02*
X150590000Y-91770000D01*
X143845000Y-62805000D02*
X143845000Y-66375000D01*
X149590000Y-78060000D02*
X149590000Y-90770000D01*
X143845000Y-66375000D02*
X140450000Y-69770000D01*
D27*
%TO.N,Net-(BME1-3V)*%
X151864000Y-81600000D02*
X151854000Y-81610000D01*
%TO.N,Net-(BME1-VIN)*%
X151934000Y-78990000D02*
X151854000Y-79070000D01*
%TD*%
%TA.AperFunction,Conductor*%
%TO.N,/Sensor Board/GND*%
G36*
X151469000Y-84190160D02*
G01*
X151494964Y-84287061D01*
X151545124Y-84373940D01*
X151616060Y-84444876D01*
X151702939Y-84495036D01*
X151799840Y-84521000D01*
X151822553Y-84521000D01*
X151151283Y-85192268D01*
X151151283Y-85192269D01*
X151188567Y-85219358D01*
X151345331Y-85299234D01*
X151396127Y-85347209D01*
X151412922Y-85415030D01*
X151390384Y-85481165D01*
X151345331Y-85520204D01*
X151188305Y-85600213D01*
X151027533Y-85717021D01*
X150939576Y-85804979D01*
X150931630Y-85809317D01*
X150926205Y-85816565D01*
X150901445Y-85825799D01*
X150878253Y-85838464D01*
X150869223Y-85837818D01*
X150860741Y-85840982D01*
X150834920Y-85835365D01*
X150808561Y-85833480D01*
X150799507Y-85827661D01*
X150792468Y-85826130D01*
X150764214Y-85804979D01*
X150666819Y-85707584D01*
X150633334Y-85646261D01*
X150630500Y-85619903D01*
X150630500Y-84959697D01*
X150650185Y-84892658D01*
X150702989Y-84846903D01*
X150764229Y-84836079D01*
X150797731Y-84838715D01*
X151469000Y-84167446D01*
X151469000Y-84190160D01*
G37*
%TD.AperFunction*%
%TA.AperFunction,Conductor*%
G36*
X150835703Y-82357315D02*
G01*
X150854817Y-82378142D01*
X150887019Y-82422464D01*
X151027536Y-82562981D01*
X151188306Y-82679787D01*
X151345332Y-82759796D01*
X151396127Y-82807769D01*
X151412922Y-82875590D01*
X151390385Y-82941725D01*
X151345332Y-82980764D01*
X151188566Y-83060641D01*
X151151283Y-83087729D01*
X151151282Y-83087730D01*
X151822554Y-83759000D01*
X151799840Y-83759000D01*
X151702939Y-83784964D01*
X151616060Y-83835124D01*
X151545124Y-83906060D01*
X151494964Y-83992939D01*
X151469000Y-84089840D01*
X151469000Y-84112552D01*
X150797730Y-83441282D01*
X150764228Y-83443919D01*
X150695851Y-83429554D01*
X150646094Y-83380503D01*
X150630500Y-83320301D01*
X150630500Y-82451028D01*
X150650185Y-82383989D01*
X150702989Y-82338234D01*
X150772147Y-82328290D01*
X150835703Y-82357315D01*
G37*
%TD.AperFunction*%
%TA.AperFunction,Conductor*%
G36*
X136129941Y-50483011D02*
G01*
X136196964Y-50502744D01*
X136242681Y-50555581D01*
X136252574Y-50624747D01*
X136239757Y-50664423D01*
X136184245Y-50770693D01*
X136184245Y-50770694D01*
X137624094Y-52210543D01*
X137657579Y-52271866D01*
X137652595Y-52341558D01*
X137624095Y-52385905D01*
X137535000Y-52475000D01*
X137624094Y-52564094D01*
X137657579Y-52625417D01*
X137652595Y-52695109D01*
X137624094Y-52739456D01*
X136184246Y-54179304D01*
X136241704Y-54289302D01*
X136367015Y-54442984D01*
X136520699Y-54568296D01*
X136696460Y-54660106D01*
X136887105Y-54714655D01*
X136887108Y-54714656D01*
X137003451Y-54724999D01*
X137003454Y-54725000D01*
X138066546Y-54725000D01*
X138066548Y-54724999D01*
X138182891Y-54714656D01*
X138182894Y-54714655D01*
X138373539Y-54660106D01*
X138549300Y-54568296D01*
X138702984Y-54442984D01*
X138828296Y-54289300D01*
X138914654Y-54123976D01*
X138963140Y-54073669D01*
X139031128Y-54057561D01*
X139086560Y-54073998D01*
X139231817Y-54157863D01*
X139492261Y-54265742D01*
X139764558Y-54338704D01*
X140044049Y-54375500D01*
X140044056Y-54375500D01*
X140325944Y-54375500D01*
X140325951Y-54375500D01*
X140605442Y-54338704D01*
X140877739Y-54265742D01*
X141138183Y-54157863D01*
X141382317Y-54016912D01*
X141605965Y-53845300D01*
X141805300Y-53645965D01*
X141976912Y-53422317D01*
X142117863Y-53178183D01*
X142225742Y-52917739D01*
X142298704Y-52645442D01*
X142335500Y-52365951D01*
X142335500Y-52084049D01*
X142298704Y-51804558D01*
X142225742Y-51532261D01*
X142117863Y-51271817D01*
X142117861Y-51271814D01*
X142117859Y-51271809D01*
X141976916Y-51027690D01*
X141976912Y-51027683D01*
X141805300Y-50804035D01*
X141805298Y-50804033D01*
X141805295Y-50804029D01*
X141700044Y-50698778D01*
X141666559Y-50637455D01*
X141671543Y-50567763D01*
X141713415Y-50511830D01*
X141778879Y-50487413D01*
X141787810Y-50487097D01*
X146433928Y-50490451D01*
X146434108Y-50490500D01*
X146500435Y-50490500D01*
X146565531Y-50490547D01*
X146565532Y-50490546D01*
X146573161Y-50490552D01*
X146573970Y-50490500D01*
X151078872Y-50490500D01*
X151145911Y-50510185D01*
X151191666Y-50562989D01*
X151201610Y-50632147D01*
X151172585Y-50695703D01*
X151166553Y-50702181D01*
X151064704Y-50804029D01*
X151006011Y-50880519D01*
X150896422Y-51023339D01*
X150893089Y-51027682D01*
X150893083Y-51027690D01*
X150752140Y-51271809D01*
X150752135Y-51271820D01*
X150644259Y-51532256D01*
X150571295Y-51804560D01*
X150534500Y-52084041D01*
X150534500Y-52365958D01*
X150571295Y-52645439D01*
X150644259Y-52917743D01*
X150752135Y-53178179D01*
X150752140Y-53178190D01*
X150885966Y-53409982D01*
X150893088Y-53422317D01*
X151064700Y-53645965D01*
X151064704Y-53645970D01*
X151264029Y-53845295D01*
X151264033Y-53845298D01*
X151264035Y-53845300D01*
X151487683Y-54016912D01*
X151487690Y-54016916D01*
X151731809Y-54157859D01*
X151731814Y-54157861D01*
X151731817Y-54157863D01*
X151992261Y-54265742D01*
X152264558Y-54338704D01*
X152544049Y-54375500D01*
X152544056Y-54375500D01*
X152825944Y-54375500D01*
X152825951Y-54375500D01*
X153105442Y-54338704D01*
X153377739Y-54265742D01*
X153638183Y-54157863D01*
X153783436Y-54074000D01*
X153851336Y-54057528D01*
X153917363Y-54080380D01*
X153955345Y-54123976D01*
X154041704Y-54289302D01*
X154167015Y-54442984D01*
X154320699Y-54568296D01*
X154496460Y-54660106D01*
X154687105Y-54714655D01*
X154687108Y-54714656D01*
X154803451Y-54724999D01*
X154803454Y-54725000D01*
X155866546Y-54725000D01*
X155866548Y-54724999D01*
X155982891Y-54714656D01*
X155982894Y-54714655D01*
X156173539Y-54660106D01*
X156349300Y-54568296D01*
X156502984Y-54442984D01*
X156628295Y-54289302D01*
X156685752Y-54179304D01*
X155245905Y-52739457D01*
X155212420Y-52678134D01*
X155217404Y-52608442D01*
X155245905Y-52564095D01*
X155335000Y-52475000D01*
X155334999Y-52474999D01*
X155688552Y-52474999D01*
X155688552Y-52475000D01*
X156784999Y-53571448D01*
X156785000Y-53571447D01*
X156785000Y-53545778D01*
X158149500Y-53545778D01*
X158149500Y-53834221D01*
X158149501Y-53834238D01*
X158187149Y-54120206D01*
X158187150Y-54120211D01*
X158187151Y-54120217D01*
X158259130Y-54388845D01*
X158261809Y-54398844D01*
X158261814Y-54398860D01*
X158372191Y-54665336D01*
X158372199Y-54665352D01*
X158516420Y-54915148D01*
X158516431Y-54915164D01*
X158692024Y-55144002D01*
X158692030Y-55144009D01*
X158895990Y-55347969D01*
X158895997Y-55347975D01*
X158939348Y-55381239D01*
X159124844Y-55523575D01*
X159124851Y-55523579D01*
X159374647Y-55667800D01*
X159374663Y-55667808D01*
X159641139Y-55778185D01*
X159641145Y-55778186D01*
X159641155Y-55778191D01*
X159919783Y-55852849D01*
X160205772Y-55890500D01*
X160205779Y-55890500D01*
X160494221Y-55890500D01*
X160494228Y-55890500D01*
X160780217Y-55852849D01*
X161058845Y-55778191D01*
X161058857Y-55778185D01*
X161058860Y-55778185D01*
X161325336Y-55667808D01*
X161325339Y-55667806D01*
X161325345Y-55667804D01*
X161575156Y-55523575D01*
X161804004Y-55347974D01*
X162007974Y-55144004D01*
X162183575Y-54915156D01*
X162327804Y-54665345D01*
X162438191Y-54398845D01*
X162512849Y-54120217D01*
X162550500Y-53834228D01*
X162550500Y-53545772D01*
X162512849Y-53259783D01*
X162438191Y-52981155D01*
X162438186Y-52981145D01*
X162438185Y-52981139D01*
X162327808Y-52714663D01*
X162327800Y-52714647D01*
X162183579Y-52464851D01*
X162183575Y-52464844D01*
X162107692Y-52365951D01*
X162007975Y-52235997D01*
X162007969Y-52235990D01*
X161804009Y-52032030D01*
X161804002Y-52032024D01*
X161575164Y-51856431D01*
X161575162Y-51856429D01*
X161575156Y-51856425D01*
X161575151Y-51856422D01*
X161575148Y-51856420D01*
X161325352Y-51712199D01*
X161325336Y-51712191D01*
X161058860Y-51601814D01*
X161058848Y-51601810D01*
X161058845Y-51601809D01*
X160780217Y-51527151D01*
X160780211Y-51527150D01*
X160780206Y-51527149D01*
X160494238Y-51489501D01*
X160494233Y-51489500D01*
X160494228Y-51489500D01*
X160205772Y-51489500D01*
X160205766Y-51489500D01*
X160205761Y-51489501D01*
X159919793Y-51527149D01*
X159919786Y-51527150D01*
X159919783Y-51527151D01*
X159678476Y-51591809D01*
X159641155Y-51601809D01*
X159641139Y-51601814D01*
X159374663Y-51712191D01*
X159374647Y-51712199D01*
X159124851Y-51856420D01*
X159124835Y-51856431D01*
X158895997Y-52032024D01*
X158895990Y-52032030D01*
X158692030Y-52235990D01*
X158692024Y-52235997D01*
X158516431Y-52464835D01*
X158516420Y-52464851D01*
X158372199Y-52714647D01*
X158372191Y-52714663D01*
X158261814Y-52981139D01*
X158261809Y-52981155D01*
X158189831Y-53249783D01*
X158187152Y-53259780D01*
X158187149Y-53259793D01*
X158149501Y-53545761D01*
X158149500Y-53545778D01*
X156785000Y-53545778D01*
X156785000Y-51378552D01*
X156784999Y-51378551D01*
X155688552Y-52474999D01*
X155334999Y-52474999D01*
X155245904Y-52385904D01*
X155212419Y-52324581D01*
X155217403Y-52254889D01*
X155245904Y-52210542D01*
X156685752Y-50770694D01*
X156634153Y-50671912D01*
X156620562Y-50603377D01*
X156646181Y-50538373D01*
X156702876Y-50497540D01*
X156744062Y-50490500D01*
X160284108Y-50490500D01*
X160346949Y-50490500D01*
X160353033Y-50490649D01*
X160657524Y-50505607D01*
X160669633Y-50506800D01*
X160968164Y-50551083D01*
X160980098Y-50553457D01*
X161037212Y-50567763D01*
X161272875Y-50626793D01*
X161284492Y-50630318D01*
X161568658Y-50731994D01*
X161579887Y-50736644D01*
X161852735Y-50865692D01*
X161863460Y-50871425D01*
X162105634Y-51016579D01*
X162122317Y-51026578D01*
X162132435Y-51033338D01*
X162374852Y-51213127D01*
X162384258Y-51220847D01*
X162555625Y-51376165D01*
X162580018Y-51406530D01*
X182038107Y-85465490D01*
X182038108Y-85465491D01*
X182038107Y-85465491D01*
X182039388Y-85466783D01*
X182059896Y-85494191D01*
X182138084Y-85635997D01*
X182156888Y-85670101D01*
X182161910Y-85680287D01*
X182274768Y-85938343D01*
X182278837Y-85948945D01*
X182367612Y-86216238D01*
X182370695Y-86227168D01*
X182434648Y-86501483D01*
X182436717Y-86512650D01*
X182475301Y-86791649D01*
X182476340Y-86802957D01*
X182489370Y-87087190D01*
X182489500Y-87092732D01*
X182489500Y-87155892D01*
X182489569Y-87156155D01*
X182489579Y-87164408D01*
X182489579Y-87164410D01*
X182499496Y-96286687D01*
X182499326Y-96293312D01*
X182482312Y-96617952D01*
X182480955Y-96630860D01*
X182430600Y-96948788D01*
X182427902Y-96961484D01*
X182344585Y-97272427D01*
X182340574Y-97284770D01*
X182225219Y-97585282D01*
X182219940Y-97597140D01*
X182073796Y-97883964D01*
X182067306Y-97895204D01*
X181891991Y-98165165D01*
X181884362Y-98175666D01*
X181681778Y-98425836D01*
X181673093Y-98435481D01*
X181445481Y-98663093D01*
X181435836Y-98671778D01*
X181185666Y-98874362D01*
X181175165Y-98881991D01*
X180905204Y-99057306D01*
X180893964Y-99063796D01*
X180607140Y-99209940D01*
X180595282Y-99215219D01*
X180294770Y-99330574D01*
X180282427Y-99334585D01*
X179971484Y-99417902D01*
X179958788Y-99420600D01*
X179640860Y-99470955D01*
X179627952Y-99472312D01*
X179303244Y-99489330D01*
X179296773Y-99489500D01*
X179234108Y-99489500D01*
X179234070Y-99489509D01*
X179226052Y-99489511D01*
X113713252Y-99499498D01*
X113706744Y-99499328D01*
X113382048Y-99482312D01*
X113369139Y-99480955D01*
X113051211Y-99430600D01*
X113038515Y-99427902D01*
X112727572Y-99344585D01*
X112715229Y-99340574D01*
X112414717Y-99225219D01*
X112402859Y-99219940D01*
X112263107Y-99148733D01*
X112116029Y-99073792D01*
X112104802Y-99067310D01*
X111834834Y-98891991D01*
X111824333Y-98884362D01*
X111574163Y-98681778D01*
X111564518Y-98673093D01*
X111336906Y-98445481D01*
X111328221Y-98435836D01*
X111125637Y-98185666D01*
X111118008Y-98175165D01*
X111068662Y-98099179D01*
X110942686Y-97905192D01*
X110936210Y-97893976D01*
X110790058Y-97607138D01*
X110784780Y-97595282D01*
X110780941Y-97585282D01*
X110669424Y-97294769D01*
X110665414Y-97282427D01*
X110582095Y-96971478D01*
X110579399Y-96958788D01*
X110578563Y-96953512D01*
X110529044Y-96640860D01*
X110527687Y-96627951D01*
X110515562Y-96396585D01*
X110515404Y-96393568D01*
X116991500Y-96393568D01*
X116991500Y-96674431D01*
X117022942Y-96953494D01*
X117022945Y-96953512D01*
X117085439Y-97227317D01*
X117085443Y-97227329D01*
X117178200Y-97492411D01*
X117300053Y-97745442D01*
X117300055Y-97745445D01*
X117449477Y-97983248D01*
X117541929Y-98099179D01*
X117598900Y-98170619D01*
X117624584Y-98202825D01*
X117823175Y-98401416D01*
X118042752Y-98576523D01*
X118280555Y-98725945D01*
X118533592Y-98847801D01*
X118659880Y-98891991D01*
X118798670Y-98940556D01*
X118798682Y-98940560D01*
X119072491Y-99003055D01*
X119072497Y-99003055D01*
X119072505Y-99003057D01*
X119258547Y-99024018D01*
X119351569Y-99034499D01*
X119351572Y-99034500D01*
X119351575Y-99034500D01*
X119632428Y-99034500D01*
X119632429Y-99034499D01*
X119775055Y-99018429D01*
X119911494Y-99003057D01*
X119911499Y-99003056D01*
X119911509Y-99003055D01*
X120185318Y-98940560D01*
X120450408Y-98847801D01*
X120703445Y-98725945D01*
X120941248Y-98576523D01*
X121160825Y-98401416D01*
X121359416Y-98202825D01*
X121534523Y-97983248D01*
X121683945Y-97745445D01*
X121805801Y-97492408D01*
X121898560Y-97227318D01*
X121961055Y-96953509D01*
X121992500Y-96674425D01*
X121992500Y-96393575D01*
X121992499Y-96393568D01*
X142645500Y-96393568D01*
X142645500Y-96674431D01*
X142676942Y-96953494D01*
X142676945Y-96953512D01*
X142739439Y-97227317D01*
X142739443Y-97227329D01*
X142832200Y-97492411D01*
X142954053Y-97745442D01*
X142954055Y-97745445D01*
X143103477Y-97983248D01*
X143195929Y-98099179D01*
X143252900Y-98170619D01*
X143278584Y-98202825D01*
X143477175Y-98401416D01*
X143696752Y-98576523D01*
X143934555Y-98725945D01*
X144187592Y-98847801D01*
X144313880Y-98891991D01*
X144452670Y-98940556D01*
X144452682Y-98940560D01*
X144726491Y-99003055D01*
X144726497Y-99003055D01*
X144726505Y-99003057D01*
X144912547Y-99024018D01*
X145005569Y-99034499D01*
X145005572Y-99034500D01*
X145005575Y-99034500D01*
X145286428Y-99034500D01*
X145286429Y-99034499D01*
X145429055Y-99018429D01*
X145565494Y-99003057D01*
X145565499Y-99003056D01*
X145565509Y-99003055D01*
X145839318Y-98940560D01*
X146104408Y-98847801D01*
X146357445Y-98725945D01*
X146595248Y-98576523D01*
X146814825Y-98401416D01*
X147013416Y-98202825D01*
X147188523Y-97983248D01*
X147337945Y-97745445D01*
X147388167Y-97641158D01*
X147388169Y-97641153D01*
X165889500Y-97641153D01*
X165889500Y-97798846D01*
X165920261Y-97953489D01*
X165920264Y-97953501D01*
X165980602Y-98099172D01*
X165980609Y-98099185D01*
X166068210Y-98230288D01*
X166068213Y-98230292D01*
X166179707Y-98341786D01*
X166179711Y-98341789D01*
X166310814Y-98429390D01*
X166310827Y-98429397D01*
X166456498Y-98489735D01*
X166456503Y-98489737D01*
X166611153Y-98520499D01*
X166611156Y-98520500D01*
X166611158Y-98520500D01*
X166768844Y-98520500D01*
X166768845Y-98520499D01*
X166923497Y-98489737D01*
X167069179Y-98429394D01*
X167200289Y-98341789D01*
X167311789Y-98230289D01*
X167399394Y-98099179D01*
X167459737Y-97953497D01*
X167490500Y-97798842D01*
X167490500Y-97641158D01*
X167490500Y-97641155D01*
X167490499Y-97641153D01*
X167478586Y-97581262D01*
X167459737Y-97486503D01*
X167399939Y-97342136D01*
X167390500Y-97294684D01*
X167390500Y-84870036D01*
X167410185Y-84802997D01*
X167411346Y-84801222D01*
X167419394Y-84789179D01*
X167479737Y-84643497D01*
X167510500Y-84488842D01*
X167510500Y-84331158D01*
X167510500Y-84331155D01*
X167510499Y-84331153D01*
X167479737Y-84176503D01*
X167479735Y-84176498D01*
X167419397Y-84030827D01*
X167419390Y-84030814D01*
X167331789Y-83899711D01*
X167331786Y-83899707D01*
X167220292Y-83788213D01*
X167220288Y-83788210D01*
X167089185Y-83700609D01*
X167089172Y-83700602D01*
X166943501Y-83640264D01*
X166943489Y-83640261D01*
X166788845Y-83609500D01*
X166788842Y-83609500D01*
X166631158Y-83609500D01*
X166631155Y-83609500D01*
X166476510Y-83640261D01*
X166476498Y-83640264D01*
X166330827Y-83700602D01*
X166330814Y-83700609D01*
X166199711Y-83788210D01*
X166199707Y-83788213D01*
X166088213Y-83899707D01*
X166088210Y-83899711D01*
X166000609Y-84030814D01*
X166000602Y-84030827D01*
X165940264Y-84176498D01*
X165940261Y-84176510D01*
X165909500Y-84331153D01*
X165909500Y-84488846D01*
X165940261Y-84643489D01*
X165940263Y-84643497D01*
X165980061Y-84739578D01*
X165989500Y-84787031D01*
X165989500Y-97294684D01*
X165980061Y-97342136D01*
X165920264Y-97486498D01*
X165920261Y-97486510D01*
X165889500Y-97641153D01*
X147388169Y-97641153D01*
X147417011Y-97581264D01*
X147417012Y-97581262D01*
X147459796Y-97492419D01*
X147459797Y-97492416D01*
X147459801Y-97492408D01*
X147552560Y-97227318D01*
X147615055Y-96953509D01*
X147646500Y-96674425D01*
X147646500Y-96393575D01*
X147631654Y-96261811D01*
X147615057Y-96114505D01*
X147615054Y-96114487D01*
X147579793Y-95960000D01*
X147552560Y-95840682D01*
X147459801Y-95575592D01*
X147337945Y-95322555D01*
X147188523Y-95084752D01*
X147013416Y-94865175D01*
X146814825Y-94666584D01*
X146813676Y-94665668D01*
X146725859Y-94595636D01*
X146595248Y-94491477D01*
X146357445Y-94342055D01*
X146357442Y-94342053D01*
X146104411Y-94220200D01*
X145839329Y-94127443D01*
X145839317Y-94127439D01*
X145565512Y-94064945D01*
X145565494Y-94064942D01*
X145286431Y-94033500D01*
X145286425Y-94033500D01*
X145005575Y-94033500D01*
X145005568Y-94033500D01*
X144726505Y-94064942D01*
X144726487Y-94064945D01*
X144452682Y-94127439D01*
X144452670Y-94127443D01*
X144187588Y-94220200D01*
X143934557Y-94342053D01*
X143696753Y-94491476D01*
X143477175Y-94666583D01*
X143278583Y-94865175D01*
X143103476Y-95084753D01*
X142954053Y-95322557D01*
X142832200Y-95575588D01*
X142739443Y-95840670D01*
X142739439Y-95840682D01*
X142676945Y-96114487D01*
X142676942Y-96114505D01*
X142645500Y-96393568D01*
X121992499Y-96393568D01*
X121977654Y-96261811D01*
X121961057Y-96114505D01*
X121961054Y-96114487D01*
X121925793Y-95960000D01*
X121898560Y-95840682D01*
X121805801Y-95575592D01*
X121683945Y-95322555D01*
X121534523Y-95084752D01*
X121359416Y-94865175D01*
X121160825Y-94666584D01*
X121159676Y-94665668D01*
X121071859Y-94595636D01*
X120941248Y-94491477D01*
X120703445Y-94342055D01*
X120703442Y-94342053D01*
X120450411Y-94220200D01*
X120185329Y-94127443D01*
X120185317Y-94127439D01*
X119911512Y-94064945D01*
X119911494Y-94064942D01*
X119632431Y-94033500D01*
X119632425Y-94033500D01*
X119351575Y-94033500D01*
X119351568Y-94033500D01*
X119072505Y-94064942D01*
X119072487Y-94064945D01*
X118798682Y-94127439D01*
X118798670Y-94127443D01*
X118533588Y-94220200D01*
X118280557Y-94342053D01*
X118042753Y-94491476D01*
X117823175Y-94666583D01*
X117624583Y-94865175D01*
X117449476Y-95084753D01*
X117300053Y-95322557D01*
X117178200Y-95575588D01*
X117085443Y-95840670D01*
X117085439Y-95840682D01*
X117022945Y-96114487D01*
X117022942Y-96114505D01*
X116991500Y-96393568D01*
X110515404Y-96393568D01*
X110510670Y-96303243D01*
X110510500Y-96296753D01*
X110510500Y-87102741D01*
X110510621Y-87097263D01*
X110511066Y-87087190D01*
X110516877Y-86955778D01*
X111519500Y-86955778D01*
X111519500Y-87244221D01*
X111519501Y-87244238D01*
X111557149Y-87530206D01*
X111557150Y-87530211D01*
X111557151Y-87530217D01*
X111629130Y-87798845D01*
X111631809Y-87808844D01*
X111631814Y-87808860D01*
X111742191Y-88075336D01*
X111742199Y-88075352D01*
X111886420Y-88325148D01*
X111886431Y-88325164D01*
X112062024Y-88554002D01*
X112062030Y-88554009D01*
X112265990Y-88757969D01*
X112265996Y-88757974D01*
X112494844Y-88933575D01*
X112494851Y-88933579D01*
X112744647Y-89077800D01*
X112744663Y-89077808D01*
X113011139Y-89188185D01*
X113011145Y-89188186D01*
X113011155Y-89188191D01*
X113289783Y-89262849D01*
X113575772Y-89300500D01*
X113575779Y-89300500D01*
X113864221Y-89300500D01*
X113864228Y-89300500D01*
X114150217Y-89262849D01*
X114428845Y-89188191D01*
X114428857Y-89188185D01*
X114428860Y-89188185D01*
X114695336Y-89077808D01*
X114695339Y-89077806D01*
X114695345Y-89077804D01*
X114945156Y-88933575D01*
X115174004Y-88757974D01*
X115377974Y-88554004D01*
X115553575Y-88325156D01*
X115697804Y-88075345D01*
X115728535Y-88001155D01*
X115808185Y-87808860D01*
X115808185Y-87808857D01*
X115808191Y-87808845D01*
X115882849Y-87530217D01*
X115920500Y-87244228D01*
X115920500Y-86955772D01*
X115882849Y-86669783D01*
X115808191Y-86391155D01*
X115808186Y-86391145D01*
X115808185Y-86391139D01*
X115697808Y-86124663D01*
X115697800Y-86124647D01*
X115553579Y-85874851D01*
X115553575Y-85874844D01*
X115467163Y-85762229D01*
X115377975Y-85645997D01*
X115377969Y-85645990D01*
X115174009Y-85442030D01*
X115174002Y-85442024D01*
X114945164Y-85266431D01*
X114945162Y-85266429D01*
X114945156Y-85266425D01*
X114945151Y-85266422D01*
X114945148Y-85266420D01*
X114695352Y-85122199D01*
X114695336Y-85122191D01*
X114428860Y-85011814D01*
X114428848Y-85011810D01*
X114428845Y-85011809D01*
X114150217Y-84937151D01*
X114150211Y-84937150D01*
X114150206Y-84937149D01*
X113864238Y-84899501D01*
X113864233Y-84899500D01*
X113864228Y-84899500D01*
X113575772Y-84899500D01*
X113575766Y-84899500D01*
X113575761Y-84899501D01*
X113289793Y-84937149D01*
X113289786Y-84937150D01*
X113289783Y-84937151D01*
X113048476Y-85001809D01*
X113011155Y-85011809D01*
X113011139Y-85011814D01*
X112744663Y-85122191D01*
X112744647Y-85122199D01*
X112494851Y-85266420D01*
X112494835Y-85266431D01*
X112265997Y-85442024D01*
X112265990Y-85442030D01*
X112062030Y-85645990D01*
X112062024Y-85645997D01*
X111886431Y-85874835D01*
X111886420Y-85874851D01*
X111742199Y-86124647D01*
X111742191Y-86124663D01*
X111631814Y-86391139D01*
X111631809Y-86391155D01*
X111559831Y-86659783D01*
X111557152Y-86669780D01*
X111557149Y-86669793D01*
X111519501Y-86955761D01*
X111519500Y-86955778D01*
X110516877Y-86955778D01*
X110522785Y-86822166D01*
X110523749Y-86811286D01*
X110559790Y-86541029D01*
X110561710Y-86530282D01*
X110621461Y-86264280D01*
X110624325Y-86253732D01*
X110707324Y-85994037D01*
X110711115Y-85983767D01*
X110816707Y-85732422D01*
X110821372Y-85722562D01*
X110948752Y-85481494D01*
X110954277Y-85472072D01*
X111073601Y-85287735D01*
X111089565Y-85267889D01*
X111102067Y-85255260D01*
X111136441Y-85195012D01*
X111143616Y-85184934D01*
X111146303Y-85177727D01*
X111572551Y-84430639D01*
X144977500Y-84430639D01*
X144977500Y-84629360D01*
X145008587Y-84825637D01*
X145069993Y-85014629D01*
X145069994Y-85014632D01*
X145148652Y-85169005D01*
X145160213Y-85191694D01*
X145277019Y-85352464D01*
X145417536Y-85492981D01*
X145578306Y-85609787D01*
X145629744Y-85635996D01*
X145734780Y-85689515D01*
X145785576Y-85737490D01*
X145802371Y-85805311D01*
X145779833Y-85871446D01*
X145734780Y-85910485D01*
X145578305Y-85990213D01*
X145417533Y-86107021D01*
X145277021Y-86247533D01*
X145160213Y-86408305D01*
X145069994Y-86585367D01*
X145069993Y-86585370D01*
X145008587Y-86774362D01*
X145002742Y-86811269D01*
X144977500Y-86970639D01*
X144977500Y-87169361D01*
X144987773Y-87234221D01*
X145008587Y-87365637D01*
X145069993Y-87554629D01*
X145069994Y-87554632D01*
X145115011Y-87642981D01*
X145160213Y-87731694D01*
X145277019Y-87892464D01*
X145417536Y-88032981D01*
X145578306Y-88149787D01*
X145735332Y-88229796D01*
X145786127Y-88277769D01*
X145802922Y-88345590D01*
X145780385Y-88411725D01*
X145735332Y-88450764D01*
X145578566Y-88530641D01*
X145541283Y-88557729D01*
X145541282Y-88557730D01*
X146212554Y-89229000D01*
X146189840Y-89229000D01*
X146092939Y-89254964D01*
X146006060Y-89305124D01*
X145935124Y-89376060D01*
X145884964Y-89462939D01*
X145859000Y-89559840D01*
X145859000Y-89582552D01*
X145187730Y-88911282D01*
X145187729Y-88911283D01*
X145160643Y-88948564D01*
X145070457Y-89125562D01*
X145009075Y-89314476D01*
X145009075Y-89314479D01*
X144978000Y-89510678D01*
X144978000Y-89709321D01*
X145009075Y-89905520D01*
X145009075Y-89905523D01*
X145070457Y-90094437D01*
X145160641Y-90271432D01*
X145187730Y-90308715D01*
X145187731Y-90308716D01*
X145859000Y-89637447D01*
X145859000Y-89660160D01*
X145884964Y-89757061D01*
X145935124Y-89843940D01*
X146006060Y-89914876D01*
X146092939Y-89965036D01*
X146189840Y-89991000D01*
X146212553Y-89991000D01*
X145541283Y-90662268D01*
X145541283Y-90662269D01*
X145578567Y-90689358D01*
X145735331Y-90769234D01*
X145786127Y-90817209D01*
X145802922Y-90885030D01*
X145780384Y-90951165D01*
X145735331Y-90990204D01*
X145578305Y-91070213D01*
X145417533Y-91187021D01*
X145277021Y-91327533D01*
X145160213Y-91488305D01*
X145069994Y-91665367D01*
X145069993Y-91665370D01*
X145008587Y-91854362D01*
X144977500Y-92050639D01*
X144977500Y-92249360D01*
X145008587Y-92445637D01*
X145069993Y-92634629D01*
X145069994Y-92634632D01*
X145115011Y-92722981D01*
X145160213Y-92811694D01*
X145277019Y-92972464D01*
X145417536Y-93112981D01*
X145578306Y-93229787D01*
X145665149Y-93274035D01*
X145755367Y-93320005D01*
X145755370Y-93320006D01*
X145807732Y-93337019D01*
X145944364Y-93381413D01*
X146140639Y-93412500D01*
X146140640Y-93412500D01*
X146339360Y-93412500D01*
X146339361Y-93412500D01*
X146535636Y-93381413D01*
X146724632Y-93320005D01*
X146901694Y-93229787D01*
X147062464Y-93112981D01*
X147202981Y-92972464D01*
X147319787Y-92811694D01*
X147410005Y-92634632D01*
X147471413Y-92445636D01*
X147502500Y-92249361D01*
X147502500Y-92050639D01*
X147471413Y-91854364D01*
X147410005Y-91665368D01*
X147410005Y-91665367D01*
X147319786Y-91488305D01*
X147302392Y-91464364D01*
X147202981Y-91327536D01*
X147062464Y-91187019D01*
X146901694Y-91070213D01*
X146744667Y-90990203D01*
X146693872Y-90942229D01*
X146677077Y-90874408D01*
X146699614Y-90808273D01*
X146744669Y-90769234D01*
X146901422Y-90689364D01*
X146938716Y-90662268D01*
X146267448Y-89991000D01*
X146290160Y-89991000D01*
X146387061Y-89965036D01*
X146473940Y-89914876D01*
X146544876Y-89843940D01*
X146595036Y-89757061D01*
X146621000Y-89660160D01*
X146621000Y-89637447D01*
X147292268Y-90308715D01*
X147319362Y-90271425D01*
X147409542Y-90094437D01*
X147470924Y-89905523D01*
X147470924Y-89905520D01*
X147502000Y-89709321D01*
X147502000Y-89510678D01*
X147470924Y-89314479D01*
X147470924Y-89314476D01*
X147409542Y-89125562D01*
X147319358Y-88948567D01*
X147292268Y-88911283D01*
X146621000Y-89582551D01*
X146621000Y-89559840D01*
X146595036Y-89462939D01*
X146544876Y-89376060D01*
X146473940Y-89305124D01*
X146387061Y-89254964D01*
X146290160Y-89229000D01*
X146267447Y-89229000D01*
X146938716Y-88557731D01*
X146938715Y-88557730D01*
X146901432Y-88530641D01*
X146744668Y-88450765D01*
X146693872Y-88402790D01*
X146677077Y-88334969D01*
X146699615Y-88268834D01*
X146744667Y-88229796D01*
X146901694Y-88149787D01*
X147062464Y-88032981D01*
X147202981Y-87892464D01*
X147319787Y-87731694D01*
X147410005Y-87554632D01*
X147471413Y-87365636D01*
X147502500Y-87169361D01*
X147502500Y-86970639D01*
X147471413Y-86774364D01*
X147434183Y-86659780D01*
X147410006Y-86585370D01*
X147410005Y-86585367D01*
X147319786Y-86408305D01*
X147302392Y-86384364D01*
X147202981Y-86247536D01*
X147062464Y-86107019D01*
X146901694Y-85990213D01*
X146745218Y-85910484D01*
X146694423Y-85862510D01*
X146677628Y-85794689D01*
X146700165Y-85728554D01*
X146745218Y-85689515D01*
X146901694Y-85609787D01*
X147062464Y-85492981D01*
X147202981Y-85352464D01*
X147319787Y-85191694D01*
X147410005Y-85014632D01*
X147471413Y-84825636D01*
X147502500Y-84629361D01*
X147502500Y-84430639D01*
X147471413Y-84234364D01*
X147410005Y-84045368D01*
X147410005Y-84045367D01*
X147364035Y-83955149D01*
X147319787Y-83868306D01*
X147202981Y-83707536D01*
X147062464Y-83567019D01*
X146901694Y-83450213D01*
X146724632Y-83359994D01*
X146724629Y-83359993D01*
X146535637Y-83298587D01*
X146437498Y-83283043D01*
X146339361Y-83267500D01*
X146140639Y-83267500D01*
X146075214Y-83277862D01*
X145944362Y-83298587D01*
X145755370Y-83359993D01*
X145755367Y-83359994D01*
X145578305Y-83450213D01*
X145417533Y-83567021D01*
X145277021Y-83707533D01*
X145160213Y-83868305D01*
X145069994Y-84045367D01*
X145069993Y-84045370D01*
X145008587Y-84234362D01*
X144977500Y-84430639D01*
X111572551Y-84430639D01*
X114021948Y-80137568D01*
X116991500Y-80137568D01*
X116991500Y-80418431D01*
X117022942Y-80697494D01*
X117022945Y-80697512D01*
X117085439Y-80971317D01*
X117085443Y-80971329D01*
X117178200Y-81236411D01*
X117300053Y-81489442D01*
X117344752Y-81560580D01*
X117449477Y-81727248D01*
X117624584Y-81946825D01*
X117823175Y-82145416D01*
X118042752Y-82320523D01*
X118280555Y-82469945D01*
X118533592Y-82591801D01*
X118732680Y-82661465D01*
X118798670Y-82684556D01*
X118798682Y-82684560D01*
X119072491Y-82747055D01*
X119072497Y-82747055D01*
X119072505Y-82747057D01*
X119258547Y-82768018D01*
X119351569Y-82778499D01*
X119351572Y-82778500D01*
X119351575Y-82778500D01*
X119632428Y-82778500D01*
X119632429Y-82778499D01*
X119798438Y-82759795D01*
X119911494Y-82747057D01*
X119911499Y-82747056D01*
X119911509Y-82747055D01*
X120185318Y-82684560D01*
X120450408Y-82591801D01*
X120703445Y-82469945D01*
X120941248Y-82320523D01*
X121160825Y-82145416D01*
X121359416Y-81946825D01*
X121534523Y-81727248D01*
X121683945Y-81489445D01*
X121805801Y-81236408D01*
X121898560Y-80971318D01*
X121961055Y-80697509D01*
X121963527Y-80675575D01*
X121992499Y-80418431D01*
X121992500Y-80418427D01*
X121992500Y-80137572D01*
X121992499Y-80137568D01*
X142645500Y-80137568D01*
X142645500Y-80418431D01*
X142676942Y-80697494D01*
X142676945Y-80697512D01*
X142739439Y-80971317D01*
X142739443Y-80971329D01*
X142832200Y-81236411D01*
X142954053Y-81489442D01*
X142998752Y-81560580D01*
X143103477Y-81727248D01*
X143278584Y-81946825D01*
X143477175Y-82145416D01*
X143696752Y-82320523D01*
X143934555Y-82469945D01*
X144187592Y-82591801D01*
X144386680Y-82661465D01*
X144452670Y-82684556D01*
X144452682Y-82684560D01*
X144726491Y-82747055D01*
X144726497Y-82747055D01*
X144726505Y-82747057D01*
X144912547Y-82768018D01*
X145005569Y-82778499D01*
X145005572Y-82778500D01*
X145005575Y-82778500D01*
X145286428Y-82778500D01*
X145286429Y-82778499D01*
X145452438Y-82759795D01*
X145565494Y-82747057D01*
X145565499Y-82747056D01*
X145565509Y-82747055D01*
X145839318Y-82684560D01*
X146104408Y-82591801D01*
X146357445Y-82469945D01*
X146595248Y-82320523D01*
X146814825Y-82145416D01*
X147013416Y-81946825D01*
X147188523Y-81727248D01*
X147337945Y-81489445D01*
X147459801Y-81236408D01*
X147552560Y-80971318D01*
X147615055Y-80697509D01*
X147617527Y-80675575D01*
X147646499Y-80418431D01*
X147646500Y-80418427D01*
X147646500Y-80137572D01*
X147646499Y-80137568D01*
X147646127Y-80134270D01*
X147619112Y-79894497D01*
X147615057Y-79858505D01*
X147615054Y-79858487D01*
X147552560Y-79584682D01*
X147552556Y-79584670D01*
X147498599Y-79430471D01*
X147459801Y-79319592D01*
X147337945Y-79066555D01*
X147188523Y-78828752D01*
X147013416Y-78609175D01*
X146814825Y-78410584D01*
X146595248Y-78235477D01*
X146359423Y-78087298D01*
X146357442Y-78086053D01*
X146104411Y-77964200D01*
X145839329Y-77871443D01*
X145839317Y-77871439D01*
X145565512Y-77808945D01*
X145565494Y-77808942D01*
X145286431Y-77777500D01*
X145286425Y-77777500D01*
X145005575Y-77777500D01*
X145005568Y-77777500D01*
X144726505Y-77808942D01*
X144726487Y-77808945D01*
X144452682Y-77871439D01*
X144452670Y-77871443D01*
X144187588Y-77964200D01*
X143934557Y-78086053D01*
X143696753Y-78235476D01*
X143477175Y-78410583D01*
X143278583Y-78609175D01*
X143103476Y-78828753D01*
X142954053Y-79066557D01*
X142832200Y-79319588D01*
X142739443Y-79584670D01*
X142739439Y-79584682D01*
X142676945Y-79858487D01*
X142676942Y-79858505D01*
X142645500Y-80137568D01*
X121992499Y-80137568D01*
X121992127Y-80134270D01*
X121965112Y-79894497D01*
X121961057Y-79858505D01*
X121961054Y-79858487D01*
X121898560Y-79584682D01*
X121898556Y-79584670D01*
X121844599Y-79430471D01*
X121805801Y-79319592D01*
X121683945Y-79066555D01*
X121534523Y-78828752D01*
X121359416Y-78609175D01*
X121160825Y-78410584D01*
X120941248Y-78235477D01*
X120705423Y-78087298D01*
X120703442Y-78086053D01*
X120450411Y-77964200D01*
X120185329Y-77871443D01*
X120185317Y-77871439D01*
X119911512Y-77808945D01*
X119911494Y-77808942D01*
X119632431Y-77777500D01*
X119632425Y-77777500D01*
X119351575Y-77777500D01*
X119351568Y-77777500D01*
X119072505Y-77808942D01*
X119072487Y-77808945D01*
X118798682Y-77871439D01*
X118798670Y-77871443D01*
X118533588Y-77964200D01*
X118280557Y-78086053D01*
X118042753Y-78235476D01*
X117823175Y-78410583D01*
X117624583Y-78609175D01*
X117449476Y-78828753D01*
X117300053Y-79066557D01*
X117178200Y-79319588D01*
X117085443Y-79584670D01*
X117085439Y-79584682D01*
X117022945Y-79858487D01*
X117022942Y-79858505D01*
X116991500Y-80137568D01*
X114021948Y-80137568D01*
X119776633Y-70051298D01*
X132303160Y-70051298D01*
X132303160Y-70250019D01*
X132334247Y-70446296D01*
X132395653Y-70635288D01*
X132395654Y-70635291D01*
X132468150Y-70777570D01*
X132485873Y-70812353D01*
X132602679Y-70973123D01*
X132743196Y-71113640D01*
X132903966Y-71230446D01*
X133022492Y-71290838D01*
X133060440Y-71310174D01*
X133111236Y-71358149D01*
X133128031Y-71425970D01*
X133105493Y-71492105D01*
X133060440Y-71531144D01*
X132903965Y-71610872D01*
X132743193Y-71727680D01*
X132602681Y-71868192D01*
X132485873Y-72028964D01*
X132395654Y-72206026D01*
X132395653Y-72206029D01*
X132334247Y-72395021D01*
X132303160Y-72591298D01*
X132303160Y-72790019D01*
X132334247Y-72986296D01*
X132395653Y-73175288D01*
X132395654Y-73175291D01*
X132485873Y-73352353D01*
X132602679Y-73513123D01*
X132743196Y-73653640D01*
X132903966Y-73770446D01*
X132981993Y-73810203D01*
X133081027Y-73860664D01*
X133081030Y-73860665D01*
X133175526Y-73891368D01*
X133270024Y-73922072D01*
X133466299Y-73953159D01*
X133466300Y-73953159D01*
X133716375Y-73953159D01*
X133716384Y-73953158D01*
X135135531Y-73953158D01*
X135135532Y-73953158D01*
X135195143Y-73946750D01*
X135329991Y-73896455D01*
X135445206Y-73810205D01*
X135531456Y-73694990D01*
X135581751Y-73560142D01*
X135586806Y-73513125D01*
X135588013Y-73501903D01*
X135614751Y-73437352D01*
X135672144Y-73397504D01*
X135711302Y-73391159D01*
X137321129Y-73391159D01*
X137360373Y-73398964D01*
X137360676Y-73397969D01*
X137366492Y-73399732D01*
X137366503Y-73399737D01*
X137521153Y-73430499D01*
X137521156Y-73430500D01*
X137521158Y-73430500D01*
X137678844Y-73430500D01*
X137678845Y-73430499D01*
X137833497Y-73399737D01*
X137979179Y-73339394D01*
X138110289Y-73251789D01*
X138221789Y-73140289D01*
X138309394Y-73009179D01*
X138369737Y-72863497D01*
X138400500Y-72708842D01*
X138400500Y-72551158D01*
X138400500Y-72551155D01*
X138400499Y-72551153D01*
X138391548Y-72506153D01*
X138369737Y-72396503D01*
X138327770Y-72295185D01*
X138309397Y-72250827D01*
X138309390Y-72250814D01*
X138221789Y-72119711D01*
X138221786Y-72119707D01*
X138110292Y-72008213D01*
X138110288Y-72008210D01*
X137979185Y-71920609D01*
X137979172Y-71920602D01*
X137833501Y-71860264D01*
X137833489Y-71860261D01*
X137678845Y-71829500D01*
X137678842Y-71829500D01*
X137521158Y-71829500D01*
X137521155Y-71829500D01*
X137366510Y-71860261D01*
X137366498Y-71860264D01*
X137220827Y-71920602D01*
X137220820Y-71920606D01*
X137204777Y-71931326D01*
X137148003Y-71969261D01*
X137081327Y-71990139D01*
X137079113Y-71990159D01*
X135711301Y-71990159D01*
X135644262Y-71970474D01*
X135598507Y-71917670D01*
X135588011Y-71879412D01*
X135585952Y-71860261D01*
X135581751Y-71821176D01*
X135554586Y-71748344D01*
X135531457Y-71686330D01*
X135531453Y-71686323D01*
X135463822Y-71595981D01*
X135445206Y-71571113D01*
X135370147Y-71514924D01*
X135328278Y-71458992D01*
X135323294Y-71389300D01*
X135356779Y-71327977D01*
X135370143Y-71316397D01*
X135445206Y-71260205D01*
X135531456Y-71144990D01*
X135581751Y-71010142D01*
X135588160Y-70950532D01*
X135588159Y-69330787D01*
X135581751Y-69271176D01*
X135550608Y-69187678D01*
X135531457Y-69136330D01*
X135531453Y-69136323D01*
X135445207Y-69021114D01*
X135383089Y-68974612D01*
X135341219Y-68918678D01*
X135336235Y-68848986D01*
X135369721Y-68787664D01*
X135383091Y-68776079D01*
X135444849Y-68729847D01*
X135444850Y-68729846D01*
X135531010Y-68614752D01*
X135531014Y-68614745D01*
X135581256Y-68480038D01*
X135581258Y-68480031D01*
X135587659Y-68420503D01*
X135587660Y-68420486D01*
X135587660Y-67860659D01*
X134449660Y-67860659D01*
X134382621Y-67840974D01*
X134336866Y-67788170D01*
X134325660Y-67736659D01*
X134325660Y-67610659D01*
X134199660Y-67610659D01*
X134132621Y-67590974D01*
X134086866Y-67538170D01*
X134075660Y-67486659D01*
X134075660Y-67360659D01*
X134575660Y-67360659D01*
X135587660Y-67360659D01*
X135587660Y-66800831D01*
X135587659Y-66800814D01*
X135581258Y-66741286D01*
X135581256Y-66741279D01*
X135531014Y-66606572D01*
X135531010Y-66606565D01*
X135444850Y-66491471D01*
X135444847Y-66491468D01*
X135329753Y-66405308D01*
X135329746Y-66405304D01*
X135195039Y-66355062D01*
X135195032Y-66355060D01*
X135135504Y-66348659D01*
X134575660Y-66348659D01*
X134575660Y-67360659D01*
X134075660Y-67360659D01*
X134075660Y-66348659D01*
X133466339Y-66348659D01*
X133270139Y-66379734D01*
X133270136Y-66379734D01*
X133081222Y-66441116D01*
X132904224Y-66531302D01*
X132866943Y-66558388D01*
X132866942Y-66558389D01*
X133538213Y-67229659D01*
X133515500Y-67229659D01*
X133418599Y-67255623D01*
X133331720Y-67305783D01*
X133260784Y-67376719D01*
X133210624Y-67463598D01*
X133184660Y-67560499D01*
X133184660Y-67583211D01*
X132513390Y-66911941D01*
X132513389Y-66911942D01*
X132486303Y-66949223D01*
X132396117Y-67126221D01*
X132334735Y-67315135D01*
X132334735Y-67315138D01*
X132303660Y-67511337D01*
X132303660Y-67709980D01*
X132334735Y-67906179D01*
X132334735Y-67906182D01*
X132396117Y-68095096D01*
X132486301Y-68272091D01*
X132513390Y-68309374D01*
X132513391Y-68309375D01*
X133184660Y-67638106D01*
X133184660Y-67660819D01*
X133210624Y-67757720D01*
X133260784Y-67844599D01*
X133331720Y-67915535D01*
X133418599Y-67965695D01*
X133515500Y-67991659D01*
X133538212Y-67991659D01*
X132866943Y-68662927D01*
X132866943Y-68662928D01*
X132904227Y-68690017D01*
X133060991Y-68769893D01*
X133111787Y-68817868D01*
X133128582Y-68885689D01*
X133106044Y-68951824D01*
X133060991Y-68990863D01*
X132903965Y-69070872D01*
X132743193Y-69187680D01*
X132602681Y-69328192D01*
X132485873Y-69488964D01*
X132395654Y-69666026D01*
X132395653Y-69666029D01*
X132334247Y-69855021D01*
X132303160Y-70051298D01*
X119776633Y-70051298D01*
X122526750Y-65231153D01*
X129099500Y-65231153D01*
X129099500Y-65388846D01*
X129130261Y-65543489D01*
X129130264Y-65543501D01*
X129190602Y-65689172D01*
X129190609Y-65689185D01*
X129278210Y-65820288D01*
X129278213Y-65820292D01*
X129389707Y-65931786D01*
X129389711Y-65931789D01*
X129520814Y-66019390D01*
X129520827Y-66019397D01*
X129594013Y-66049711D01*
X129666503Y-66079737D01*
X129821153Y-66110499D01*
X129821156Y-66110500D01*
X129821158Y-66110500D01*
X129978844Y-66110500D01*
X129978845Y-66110499D01*
X130133497Y-66079737D01*
X130279179Y-66019394D01*
X130410289Y-65931789D01*
X130521789Y-65820289D01*
X130609394Y-65689179D01*
X130669737Y-65543497D01*
X130689113Y-65446085D01*
X130700638Y-65388150D01*
X130733023Y-65326239D01*
X130734519Y-65324715D01*
X133598713Y-62460521D01*
X133598716Y-62460520D01*
X133710520Y-62348716D01*
X133732471Y-62310693D01*
X133741210Y-62300996D01*
X133760292Y-62289248D01*
X133776511Y-62273784D01*
X133789469Y-62271286D01*
X133800709Y-62264367D01*
X133823114Y-62264801D01*
X133845118Y-62260560D01*
X133857370Y-62265465D01*
X133870566Y-62265721D01*
X133889180Y-62278199D01*
X133909983Y-62286528D01*
X133921013Y-62296318D01*
X134002267Y-62377572D01*
X134002271Y-62377575D01*
X134146507Y-62466542D01*
X134146518Y-62466547D01*
X134307393Y-62519855D01*
X134406683Y-62529999D01*
X134930000Y-62529999D01*
X134953308Y-62529999D01*
X134953322Y-62529998D01*
X135052607Y-62519855D01*
X135213481Y-62466547D01*
X135213492Y-62466542D01*
X135357728Y-62377575D01*
X135357732Y-62377572D01*
X135477572Y-62257732D01*
X135477575Y-62257728D01*
X135566542Y-62113492D01*
X135566547Y-62113481D01*
X135619855Y-61952606D01*
X135629999Y-61853322D01*
X135630000Y-61853309D01*
X135630000Y-61430000D01*
X134930000Y-61430000D01*
X134930000Y-62529999D01*
X134406683Y-62529999D01*
X134430000Y-62529998D01*
X134430000Y-60930000D01*
X134930000Y-60930000D01*
X135629999Y-60930000D01*
X135629999Y-60818384D01*
X138584500Y-60818384D01*
X138584500Y-64031616D01*
X138586423Y-64052778D01*
X138590913Y-64102192D01*
X138590913Y-64102194D01*
X138590914Y-64102196D01*
X138641522Y-64264606D01*
X138711595Y-64380521D01*
X138729530Y-64410188D01*
X138849811Y-64530469D01*
X138849813Y-64530470D01*
X138849815Y-64530472D01*
X138995394Y-64618478D01*
X139157804Y-64669086D01*
X139228384Y-64675500D01*
X139228387Y-64675500D01*
X139741613Y-64675500D01*
X139741616Y-64675500D01*
X139812196Y-64669086D01*
X139974606Y-64618478D01*
X140025849Y-64587499D01*
X140093404Y-64569663D01*
X140154150Y-64587499D01*
X140205394Y-64618478D01*
X140367804Y-64669086D01*
X140438384Y-64675500D01*
X140438387Y-64675500D01*
X140951613Y-64675500D01*
X140951616Y-64675500D01*
X141022196Y-64669086D01*
X141184606Y-64618478D01*
X141330185Y-64530472D01*
X141450472Y-64410185D01*
X141538478Y-64264606D01*
X141589086Y-64102196D01*
X141595500Y-64031616D01*
X141595500Y-62921447D01*
X142005000Y-62921447D01*
X142501448Y-62425000D01*
X142501448Y-62424999D01*
X142005000Y-61928551D01*
X142005000Y-62921447D01*
X141595500Y-62921447D01*
X141595500Y-60818384D01*
X141589086Y-60747804D01*
X141538478Y-60585394D01*
X141450472Y-60439815D01*
X141450470Y-60439813D01*
X141450469Y-60439811D01*
X141330188Y-60319530D01*
X141322269Y-60314743D01*
X141184606Y-60231522D01*
X141022196Y-60180914D01*
X141022194Y-60180913D01*
X141022192Y-60180913D01*
X140972778Y-60176423D01*
X140951616Y-60174500D01*
X140438384Y-60174500D01*
X140419145Y-60176248D01*
X140367807Y-60180913D01*
X140314095Y-60197650D01*
X140211922Y-60229488D01*
X140205391Y-60231523D01*
X140154149Y-60262500D01*
X140086594Y-60280336D01*
X140025851Y-60262500D01*
X139974608Y-60231523D01*
X139974607Y-60231522D01*
X139974606Y-60231522D01*
X139812196Y-60180914D01*
X139812194Y-60180913D01*
X139812192Y-60180913D01*
X139762778Y-60176423D01*
X139741616Y-60174500D01*
X139228384Y-60174500D01*
X139209145Y-60176248D01*
X139157807Y-60180913D01*
X138995393Y-60231522D01*
X138849811Y-60319530D01*
X138729530Y-60439811D01*
X138641522Y-60585393D01*
X138590913Y-60747807D01*
X138586588Y-60795406D01*
X138584500Y-60818384D01*
X135629999Y-60818384D01*
X135629999Y-60506692D01*
X135629998Y-60506677D01*
X135619855Y-60407392D01*
X135566547Y-60246518D01*
X135566542Y-60246507D01*
X135477575Y-60102271D01*
X135477572Y-60102267D01*
X135357732Y-59982427D01*
X135357728Y-59982424D01*
X135213492Y-59893457D01*
X135213481Y-59893452D01*
X135052606Y-59840144D01*
X134953322Y-59830000D01*
X134930000Y-59830000D01*
X134930000Y-60930000D01*
X134430000Y-60930000D01*
X134430000Y-59829999D01*
X134406693Y-59830000D01*
X134406674Y-59830001D01*
X134307392Y-59840144D01*
X134146518Y-59893452D01*
X134146513Y-59893454D01*
X134019597Y-59971738D01*
X133952205Y-59990178D01*
X133885541Y-59969256D01*
X133840771Y-59915614D01*
X133830500Y-59866199D01*
X133830500Y-59050808D01*
X133850185Y-58983769D01*
X133866820Y-58963126D01*
X133898076Y-58931870D01*
X133898081Y-58931865D01*
X133981744Y-58790398D01*
X134027598Y-58632569D01*
X134030500Y-58595694D01*
X134030500Y-57514306D01*
X134027598Y-57477431D01*
X134017664Y-57443239D01*
X133981745Y-57319606D01*
X133981744Y-57319603D01*
X133981744Y-57319602D01*
X133898081Y-57178135D01*
X133898079Y-57178133D01*
X133898076Y-57178129D01*
X133781870Y-57061923D01*
X133781862Y-57061917D01*
X133666156Y-56993489D01*
X133640398Y-56978256D01*
X133640397Y-56978255D01*
X133640396Y-56978255D01*
X133640393Y-56978254D01*
X133482573Y-56932402D01*
X133482567Y-56932401D01*
X133445701Y-56929500D01*
X133445694Y-56929500D01*
X133014306Y-56929500D01*
X133014298Y-56929500D01*
X132977432Y-56932401D01*
X132977426Y-56932402D01*
X132819605Y-56978254D01*
X132819595Y-56978258D01*
X132792627Y-56994207D01*
X132724902Y-57011388D01*
X132666388Y-56994207D01*
X132640196Y-56978717D01*
X132640193Y-56978716D01*
X132482494Y-56932900D01*
X132482497Y-56932900D01*
X132480000Y-56932703D01*
X132480000Y-57295950D01*
X132475076Y-57330545D01*
X132432402Y-57477426D01*
X132432401Y-57477432D01*
X132429500Y-57514298D01*
X132429500Y-58595701D01*
X132432401Y-58632567D01*
X132432402Y-58632573D01*
X132475076Y-58779455D01*
X132480000Y-58814050D01*
X132480000Y-59177295D01*
X132480001Y-59177295D01*
X132482487Y-59177100D01*
X132483206Y-59176969D01*
X132483612Y-59177011D01*
X132488809Y-59176603D01*
X132488884Y-59177566D01*
X132552692Y-59184279D01*
X132607195Y-59227996D01*
X132629411Y-59294240D01*
X132629500Y-59298948D01*
X132629500Y-61679903D01*
X132609815Y-61746942D01*
X132593181Y-61767584D01*
X129885339Y-64475425D01*
X129824016Y-64508910D01*
X129821850Y-64509361D01*
X129666508Y-64540261D01*
X129666498Y-64540264D01*
X129520827Y-64600602D01*
X129520814Y-64600609D01*
X129389711Y-64688210D01*
X129389707Y-64688213D01*
X129278213Y-64799707D01*
X129278210Y-64799711D01*
X129190609Y-64930814D01*
X129190602Y-64930827D01*
X129130264Y-65076498D01*
X129130261Y-65076510D01*
X129099500Y-65231153D01*
X122526750Y-65231153D01*
X124453959Y-61853322D01*
X126830001Y-61853322D01*
X126840144Y-61952607D01*
X126893452Y-62113481D01*
X126893457Y-62113492D01*
X126982424Y-62257728D01*
X126982427Y-62257732D01*
X127102267Y-62377572D01*
X127102271Y-62377575D01*
X127246507Y-62466542D01*
X127246518Y-62466547D01*
X127407393Y-62519855D01*
X127506683Y-62529999D01*
X128030000Y-62529999D01*
X128053308Y-62529999D01*
X128053322Y-62529998D01*
X128152607Y-62519855D01*
X128313481Y-62466547D01*
X128313492Y-62466542D01*
X128457728Y-62377575D01*
X128457732Y-62377572D01*
X128577572Y-62257732D01*
X128577575Y-62257728D01*
X128666542Y-62113492D01*
X128666547Y-62113481D01*
X128719855Y-61952606D01*
X128729999Y-61853322D01*
X128730000Y-61853309D01*
X128730000Y-61430000D01*
X128030000Y-61430000D01*
X128030000Y-62529999D01*
X127506683Y-62529999D01*
X127530000Y-62529998D01*
X127530000Y-61430000D01*
X126830001Y-61430000D01*
X126830001Y-61853322D01*
X124453959Y-61853322D01*
X125222282Y-60506677D01*
X126830000Y-60506677D01*
X126830000Y-60930000D01*
X127530000Y-60930000D01*
X128030000Y-60930000D01*
X128729999Y-60930000D01*
X128729999Y-60506692D01*
X128729998Y-60506677D01*
X128719855Y-60407392D01*
X128666547Y-60246518D01*
X128666542Y-60246507D01*
X128577575Y-60102271D01*
X128577572Y-60102267D01*
X128457732Y-59982427D01*
X128457728Y-59982424D01*
X128313492Y-59893457D01*
X128313481Y-59893452D01*
X128152606Y-59840144D01*
X128053322Y-59830000D01*
X128030000Y-59830000D01*
X128030000Y-60930000D01*
X127530000Y-60930000D01*
X127530000Y-59829999D01*
X127506693Y-59830000D01*
X127506674Y-59830001D01*
X127407392Y-59840144D01*
X127246518Y-59893452D01*
X127246507Y-59893457D01*
X127102271Y-59982424D01*
X127102267Y-59982427D01*
X126982427Y-60102267D01*
X126982424Y-60102271D01*
X126893457Y-60246507D01*
X126893452Y-60246518D01*
X126840144Y-60407393D01*
X126830000Y-60506677D01*
X125222282Y-60506677D01*
X126929573Y-57514298D01*
X128429500Y-57514298D01*
X128429500Y-58595701D01*
X128432401Y-58632567D01*
X128432402Y-58632573D01*
X128478254Y-58790393D01*
X128478255Y-58790396D01*
X128561917Y-58931862D01*
X128561923Y-58931870D01*
X128678129Y-59048076D01*
X128678133Y-59048079D01*
X128678135Y-59048081D01*
X128819602Y-59131744D01*
X128861224Y-59143836D01*
X128977426Y-59177597D01*
X128977429Y-59177597D01*
X128977431Y-59177598D01*
X129014306Y-59180500D01*
X129014314Y-59180500D01*
X129445686Y-59180500D01*
X129445694Y-59180500D01*
X129482569Y-59177598D01*
X129482571Y-59177597D01*
X129482573Y-59177597D01*
X129524191Y-59165505D01*
X129640398Y-59131744D01*
X129650213Y-59125939D01*
X129666878Y-59116084D01*
X129734601Y-59098900D01*
X129793122Y-59116084D01*
X129819598Y-59131742D01*
X129819599Y-59131742D01*
X129819602Y-59131744D01*
X129861224Y-59143836D01*
X129977426Y-59177597D01*
X129977429Y-59177597D01*
X129977431Y-59177598D01*
X130014306Y-59180500D01*
X130014314Y-59180500D01*
X130445686Y-59180500D01*
X130445694Y-59180500D01*
X130482569Y-59177598D01*
X130482571Y-59177597D01*
X130482573Y-59177597D01*
X130524191Y-59165505D01*
X130640398Y-59131744D01*
X130650213Y-59125939D01*
X130666878Y-59116084D01*
X130734601Y-59098900D01*
X130793122Y-59116084D01*
X130819598Y-59131742D01*
X130819599Y-59131742D01*
X130819602Y-59131744D01*
X130861224Y-59143836D01*
X130977426Y-59177597D01*
X130977429Y-59177597D01*
X130977431Y-59177598D01*
X131014306Y-59180500D01*
X131014314Y-59180500D01*
X131445686Y-59180500D01*
X131445694Y-59180500D01*
X131482569Y-59177598D01*
X131482571Y-59177597D01*
X131482573Y-59177597D01*
X131524191Y-59165505D01*
X131640398Y-59131744D01*
X131667368Y-59115793D01*
X131735091Y-59098610D01*
X131793610Y-59115792D01*
X131819803Y-59131282D01*
X131819806Y-59131283D01*
X131977505Y-59177099D01*
X131977511Y-59177100D01*
X131979998Y-59177295D01*
X131980000Y-59177295D01*
X131980000Y-58814050D01*
X131984924Y-58779455D01*
X132027597Y-58632573D01*
X132027598Y-58632567D01*
X132030499Y-58595701D01*
X132030500Y-58595694D01*
X132030500Y-57514306D01*
X132027598Y-57477431D01*
X132019751Y-57450421D01*
X131984924Y-57330545D01*
X131980000Y-57295950D01*
X131980000Y-56932703D01*
X131977504Y-56932900D01*
X131819806Y-56978716D01*
X131819798Y-56978719D01*
X131793608Y-56994208D01*
X131725884Y-57011388D01*
X131688906Y-57004293D01*
X131677647Y-57000285D01*
X131640398Y-56978256D01*
X131506390Y-56939322D01*
X131502916Y-56938086D01*
X131477491Y-56919643D01*
X131451019Y-56902737D01*
X131449432Y-56899288D01*
X131446360Y-56897060D01*
X131434943Y-56867801D01*
X131421813Y-56839264D01*
X131421353Y-56832970D01*
X131420963Y-56831969D01*
X131421196Y-56830812D01*
X131420500Y-56821267D01*
X131420500Y-56706239D01*
X131440185Y-56639200D01*
X131492989Y-56593445D01*
X131544500Y-56582239D01*
X140045500Y-56582239D01*
X140112539Y-56601924D01*
X140158294Y-56654728D01*
X140169500Y-56706239D01*
X140169500Y-56838846D01*
X140200261Y-56993489D01*
X140200264Y-56993501D01*
X140260602Y-57139172D01*
X140260609Y-57139185D01*
X140348210Y-57270288D01*
X140348213Y-57270292D01*
X140459707Y-57381786D01*
X140459711Y-57381789D01*
X140590814Y-57469390D01*
X140590827Y-57469397D01*
X140736498Y-57529735D01*
X140736503Y-57529737D01*
X140891153Y-57560499D01*
X140891156Y-57560500D01*
X140891158Y-57560500D01*
X141048844Y-57560500D01*
X141048845Y-57560499D01*
X141203497Y-57529737D01*
X141316166Y-57483067D01*
X141349172Y-57469397D01*
X141349172Y-57469396D01*
X141349179Y-57469394D01*
X141417881Y-57423489D01*
X141480875Y-57381398D01*
X141547553Y-57360520D01*
X141549766Y-57360500D01*
X146039903Y-57360500D01*
X146069343Y-57369144D01*
X146099330Y-57375668D01*
X146104345Y-57379422D01*
X146106942Y-57380185D01*
X146127584Y-57396819D01*
X146268181Y-57537416D01*
X146301666Y-57598739D01*
X146304500Y-57625097D01*
X146304500Y-60053252D01*
X146284815Y-60120291D01*
X146232011Y-60166046D01*
X146169280Y-60176743D01*
X146144594Y-60174500D01*
X145685406Y-60174500D01*
X145617343Y-60180685D01*
X145617341Y-60180685D01*
X145617338Y-60180686D01*
X145460725Y-60229489D01*
X145455881Y-60231669D01*
X145386668Y-60241226D01*
X145354119Y-60231669D01*
X145349274Y-60229489D01*
X145192661Y-60180686D01*
X145192659Y-60180685D01*
X145192657Y-60180685D01*
X145124594Y-60174500D01*
X144665406Y-60174500D01*
X144597343Y-60180685D01*
X144597341Y-60180685D01*
X144597338Y-60180686D01*
X144440725Y-60229489D01*
X144435881Y-60231669D01*
X144366668Y-60241226D01*
X144334119Y-60231669D01*
X144329274Y-60229489D01*
X144172661Y-60180686D01*
X144172659Y-60180685D01*
X144172657Y-60180685D01*
X144104594Y-60174500D01*
X143645406Y-60174500D01*
X143577343Y-60180685D01*
X143577341Y-60180685D01*
X143577338Y-60180686D01*
X143420729Y-60229488D01*
X143415269Y-60231945D01*
X143346056Y-60241503D01*
X143313501Y-60231943D01*
X143309068Y-60229948D01*
X143152562Y-60181179D01*
X143084556Y-60175000D01*
X142625433Y-60175000D01*
X142557438Y-60181178D01*
X142557427Y-60181181D01*
X142400939Y-60229944D01*
X142400935Y-60229946D01*
X142260662Y-60314743D01*
X142260657Y-60314747D01*
X142144747Y-60430657D01*
X142144743Y-60430662D01*
X142059947Y-60570934D01*
X142011179Y-60727437D01*
X142005000Y-60795443D01*
X142005000Y-61314999D01*
X142024336Y-61323008D01*
X142025417Y-61322419D01*
X142095109Y-61327403D01*
X142139456Y-61355904D01*
X142944095Y-62160543D01*
X142977580Y-62221866D01*
X142972596Y-62291558D01*
X142944095Y-62335905D01*
X142855000Y-62425000D01*
X142944095Y-62514095D01*
X142977580Y-62575418D01*
X142972596Y-62645110D01*
X142944095Y-62689457D01*
X142139457Y-63494095D01*
X142078134Y-63527580D01*
X142031043Y-63524212D01*
X142005000Y-63534999D01*
X142005000Y-64054566D01*
X142011178Y-64122561D01*
X142011181Y-64122572D01*
X142059944Y-64279060D01*
X142059946Y-64279064D01*
X142144743Y-64419337D01*
X142144747Y-64419342D01*
X142260657Y-64535252D01*
X142260662Y-64535256D01*
X142400934Y-64620052D01*
X142557437Y-64668820D01*
X142625443Y-64674999D01*
X143084562Y-64674999D01*
X143109277Y-64672753D01*
X143177823Y-64686289D01*
X143228169Y-64734735D01*
X143244500Y-64796244D01*
X143244500Y-66074902D01*
X143224815Y-66141941D01*
X143208181Y-66162583D01*
X139969481Y-69401282D01*
X139969475Y-69401290D01*
X139932144Y-69465951D01*
X139932144Y-69465953D01*
X139890423Y-69538214D01*
X139890423Y-69538215D01*
X139849499Y-69690943D01*
X139849499Y-69690945D01*
X139849499Y-69859046D01*
X139849500Y-69859059D01*
X139849500Y-73293330D01*
X139849499Y-73293348D01*
X139849499Y-73459054D01*
X139849498Y-73459054D01*
X139849499Y-73459057D01*
X139890423Y-73611785D01*
X139914588Y-73653640D01*
X139969477Y-73748712D01*
X139969481Y-73748717D01*
X140088349Y-73867585D01*
X140088354Y-73867589D01*
X142931284Y-76710520D01*
X142931286Y-76710521D01*
X142931290Y-76710524D01*
X143068209Y-76789573D01*
X143068216Y-76789577D01*
X143220943Y-76830501D01*
X143220945Y-76830501D01*
X143386654Y-76830501D01*
X143386670Y-76830500D01*
X147459903Y-76830500D01*
X147526942Y-76850185D01*
X147547584Y-76866819D01*
X148953181Y-78272416D01*
X148986666Y-78333739D01*
X148989500Y-78360097D01*
X148989500Y-90683330D01*
X148989499Y-90683348D01*
X148989499Y-90849054D01*
X148989498Y-90849054D01*
X149030423Y-91001785D01*
X149059358Y-91051900D01*
X149059359Y-91051904D01*
X149059360Y-91051904D01*
X149109479Y-91138714D01*
X149109481Y-91138717D01*
X149228349Y-91257585D01*
X149228354Y-91257589D01*
X150221284Y-92250520D01*
X150221286Y-92250521D01*
X150221290Y-92250524D01*
X150358209Y-92329573D01*
X150358216Y-92329577D01*
X150510943Y-92370501D01*
X150510945Y-92370501D01*
X150669838Y-92370501D01*
X150736877Y-92390186D01*
X150770156Y-92421616D01*
X150887016Y-92582460D01*
X150887019Y-92582464D01*
X151027536Y-92722981D01*
X151188306Y-92839787D01*
X151306832Y-92900179D01*
X151344780Y-92919515D01*
X151395576Y-92967490D01*
X151412371Y-93035311D01*
X151389833Y-93101446D01*
X151344780Y-93140485D01*
X151188305Y-93220213D01*
X151027533Y-93337021D01*
X150887021Y-93477533D01*
X150770213Y-93638305D01*
X150679994Y-93815367D01*
X150679993Y-93815370D01*
X150618587Y-94004362D01*
X150587500Y-94200639D01*
X150587500Y-94399360D01*
X150618587Y-94595637D01*
X150679993Y-94784629D01*
X150679994Y-94784632D01*
X150770213Y-94961694D01*
X150887019Y-95122464D01*
X151027536Y-95262981D01*
X151188306Y-95379787D01*
X151263976Y-95418343D01*
X151365367Y-95470005D01*
X151365370Y-95470006D01*
X151459866Y-95500709D01*
X151554364Y-95531413D01*
X151750639Y-95562500D01*
X151750640Y-95562500D01*
X151949360Y-95562500D01*
X151949361Y-95562500D01*
X152145636Y-95531413D01*
X152334632Y-95470005D01*
X152511694Y-95379787D01*
X152672464Y-95262981D01*
X152812981Y-95122464D01*
X152929787Y-94961694D01*
X153020005Y-94784632D01*
X153081413Y-94595636D01*
X153112500Y-94399361D01*
X153112500Y-94200639D01*
X153081413Y-94004364D01*
X153020005Y-93815368D01*
X153020005Y-93815367D01*
X152929786Y-93638305D01*
X152812981Y-93477536D01*
X152672464Y-93337019D01*
X152511694Y-93220213D01*
X152355218Y-93140484D01*
X152304423Y-93092510D01*
X152287628Y-93024689D01*
X152310165Y-92958554D01*
X152355218Y-92919515D01*
X152511694Y-92839787D01*
X152672464Y-92722981D01*
X152812981Y-92582464D01*
X152929787Y-92421694D01*
X153020005Y-92244632D01*
X153081413Y-92055636D01*
X153112500Y-91859361D01*
X153112500Y-91660639D01*
X153081413Y-91464364D01*
X153020005Y-91275368D01*
X153020005Y-91275367D01*
X152952774Y-91143421D01*
X152929787Y-91098306D01*
X152812981Y-90937536D01*
X152672464Y-90797019D01*
X152511694Y-90680213D01*
X152355218Y-90600484D01*
X152304423Y-90552510D01*
X152287628Y-90484689D01*
X152310165Y-90418554D01*
X152355218Y-90379515D01*
X152511694Y-90299787D01*
X152518504Y-90294839D01*
X156073522Y-90294839D01*
X156073522Y-90452532D01*
X156104283Y-90607175D01*
X156104286Y-90607187D01*
X156164624Y-90752858D01*
X156164631Y-90752871D01*
X156252232Y-90883974D01*
X156252235Y-90883978D01*
X156363729Y-90995472D01*
X156363733Y-90995475D01*
X156494836Y-91083076D01*
X156494849Y-91083083D01*
X156640520Y-91143421D01*
X156640525Y-91143423D01*
X156795175Y-91174185D01*
X156795178Y-91174186D01*
X156795180Y-91174186D01*
X156952866Y-91174186D01*
X156952867Y-91174185D01*
X157107519Y-91143423D01*
X157253201Y-91083080D01*
X157384311Y-90995475D01*
X157495811Y-90883975D01*
X157583416Y-90752865D01*
X157643759Y-90607183D01*
X157674522Y-90452528D01*
X157674522Y-90294844D01*
X157674522Y-90294841D01*
X157674521Y-90294839D01*
X157643760Y-90140196D01*
X157643759Y-90140189D01*
X157603281Y-90042466D01*
X157583419Y-89994513D01*
X157583412Y-89994500D01*
X157495420Y-89862811D01*
X157474542Y-89796133D01*
X157474522Y-89793920D01*
X157474522Y-88661229D01*
X157494207Y-88594190D01*
X157495420Y-88592338D01*
X157584390Y-88459185D01*
X157584390Y-88459184D01*
X157584394Y-88459179D01*
X157644737Y-88313497D01*
X157675500Y-88158842D01*
X157675500Y-88001158D01*
X157675500Y-88001155D01*
X157675499Y-88001153D01*
X157666380Y-87955311D01*
X157644737Y-87846503D01*
X157644735Y-87846498D01*
X157584397Y-87700827D01*
X157584390Y-87700814D01*
X157496789Y-87569711D01*
X157496786Y-87569707D01*
X157385292Y-87458213D01*
X157385288Y-87458210D01*
X157254185Y-87370609D01*
X157254172Y-87370602D01*
X157108501Y-87310264D01*
X157108489Y-87310261D01*
X156953845Y-87279500D01*
X156953842Y-87279500D01*
X156796158Y-87279500D01*
X156796155Y-87279500D01*
X156641510Y-87310261D01*
X156641498Y-87310264D01*
X156495827Y-87370602D01*
X156495814Y-87370609D01*
X156364711Y-87458210D01*
X156364707Y-87458213D01*
X156253213Y-87569707D01*
X156253210Y-87569711D01*
X156165609Y-87700814D01*
X156165602Y-87700827D01*
X156105264Y-87846498D01*
X156105261Y-87846510D01*
X156074500Y-88001153D01*
X156074500Y-88158846D01*
X156105261Y-88313489D01*
X156105264Y-88313501D01*
X156165602Y-88459172D01*
X156165609Y-88459185D01*
X156252624Y-88589411D01*
X156273502Y-88656088D01*
X156273522Y-88658302D01*
X156273522Y-89793920D01*
X156253837Y-89860959D01*
X156252624Y-89862811D01*
X156164631Y-89994500D01*
X156164624Y-89994513D01*
X156104286Y-90140184D01*
X156104283Y-90140196D01*
X156073522Y-90294839D01*
X152518504Y-90294839D01*
X152672464Y-90182981D01*
X152812981Y-90042464D01*
X152929787Y-89881694D01*
X153020005Y-89704632D01*
X153081413Y-89515636D01*
X153112500Y-89319361D01*
X153112500Y-89120639D01*
X153081413Y-88924364D01*
X153050709Y-88829866D01*
X153020006Y-88735370D01*
X153020005Y-88735367D01*
X152929786Y-88558305D01*
X152929369Y-88557731D01*
X152812981Y-88397536D01*
X152672464Y-88257019D01*
X152511694Y-88140213D01*
X152355218Y-88060484D01*
X152304423Y-88012510D01*
X152287628Y-87944689D01*
X152310165Y-87878554D01*
X152355218Y-87839515D01*
X152511694Y-87759787D01*
X152672464Y-87642981D01*
X152812981Y-87502464D01*
X152929787Y-87341694D01*
X153020005Y-87164632D01*
X153081413Y-86975636D01*
X153112500Y-86779361D01*
X153112500Y-86580639D01*
X153081413Y-86384364D01*
X153036954Y-86247533D01*
X153020006Y-86195370D01*
X153020005Y-86195367D01*
X152929786Y-86018305D01*
X152812981Y-85857536D01*
X152672464Y-85717019D01*
X152511694Y-85600213D01*
X152354667Y-85520203D01*
X152303872Y-85472229D01*
X152287077Y-85404408D01*
X152309614Y-85338273D01*
X152354669Y-85299234D01*
X152511422Y-85219364D01*
X152548716Y-85192268D01*
X151877448Y-84521000D01*
X151900160Y-84521000D01*
X151997061Y-84495036D01*
X152083940Y-84444876D01*
X152154876Y-84373940D01*
X152205036Y-84287061D01*
X152231000Y-84190160D01*
X152231000Y-84167447D01*
X152902268Y-84838715D01*
X152929362Y-84801425D01*
X153019542Y-84624437D01*
X153080924Y-84435523D01*
X153080924Y-84435520D01*
X153112000Y-84239321D01*
X153112000Y-84040678D01*
X153080924Y-83844479D01*
X153080924Y-83844476D01*
X153019542Y-83655562D01*
X152929358Y-83478567D01*
X152902268Y-83441283D01*
X152231000Y-84112551D01*
X152231000Y-84089840D01*
X152205036Y-83992939D01*
X152154876Y-83906060D01*
X152083940Y-83835124D01*
X151997061Y-83784964D01*
X151900160Y-83759000D01*
X151877447Y-83759000D01*
X152548716Y-83087731D01*
X152548715Y-83087730D01*
X152511432Y-83060641D01*
X152354668Y-82980765D01*
X152303872Y-82932790D01*
X152287077Y-82864969D01*
X152309615Y-82798834D01*
X152354667Y-82759796D01*
X152511694Y-82679787D01*
X152672464Y-82562981D01*
X152812981Y-82422464D01*
X152929787Y-82261694D01*
X153020005Y-82084632D01*
X153081413Y-81895636D01*
X153112500Y-81699361D01*
X153112500Y-81500639D01*
X153081413Y-81304364D01*
X153050709Y-81209866D01*
X153020006Y-81115370D01*
X153020005Y-81115367D01*
X152946613Y-80971329D01*
X152929787Y-80938306D01*
X152812981Y-80777536D01*
X152672464Y-80637019D01*
X152511694Y-80520213D01*
X152355218Y-80440484D01*
X152304423Y-80392510D01*
X152287628Y-80324689D01*
X152310165Y-80258554D01*
X152355218Y-80219515D01*
X152511694Y-80139787D01*
X152672464Y-80022981D01*
X152812981Y-79882464D01*
X152929787Y-79721694D01*
X153020005Y-79544632D01*
X153081413Y-79355636D01*
X153112500Y-79159361D01*
X153112500Y-78960639D01*
X153081413Y-78764364D01*
X153046380Y-78656543D01*
X153020006Y-78575370D01*
X153020005Y-78575367D01*
X152974035Y-78485149D01*
X152929787Y-78398306D01*
X152812981Y-78237536D01*
X152672464Y-78097019D01*
X152511694Y-77980213D01*
X152480265Y-77964199D01*
X152334632Y-77889994D01*
X152334629Y-77889993D01*
X152145637Y-77828587D01*
X152047498Y-77813043D01*
X151949361Y-77797500D01*
X151750639Y-77797500D01*
X151685214Y-77807862D01*
X151554362Y-77828587D01*
X151365370Y-77889993D01*
X151365367Y-77889994D01*
X151188305Y-77980213D01*
X151027533Y-78097021D01*
X150887018Y-78237536D01*
X150872857Y-78257027D01*
X150817525Y-78299690D01*
X150747911Y-78305666D01*
X150686118Y-78273058D01*
X150651763Y-78212217D01*
X150648543Y-78183583D01*
X150650472Y-77757453D01*
X150651982Y-77683155D01*
X150650830Y-77678478D01*
X150650852Y-77673661D01*
X150631943Y-77601794D01*
X150614169Y-77529628D01*
X150611845Y-77525407D01*
X150610620Y-77520751D01*
X150574265Y-77457119D01*
X150573308Y-77455412D01*
X150537910Y-77391120D01*
X150536101Y-77388661D01*
X150534516Y-77386507D01*
X150534515Y-77386505D01*
X150534498Y-77386482D01*
X150534290Y-77386199D01*
X150534048Y-77385916D01*
X150532185Y-77383466D01*
X150532183Y-77383462D01*
X150480473Y-77331281D01*
X150479246Y-77330023D01*
X148363272Y-75126304D01*
X148360174Y-75120938D01*
X148308573Y-75069337D01*
X148258053Y-75016722D01*
X148258050Y-75016720D01*
X148258047Y-75016717D01*
X148253239Y-75012870D01*
X148248371Y-75009134D01*
X148186269Y-74973280D01*
X148185158Y-74972639D01*
X148122755Y-74934900D01*
X148116807Y-74933175D01*
X148111438Y-74930076D01*
X148042177Y-74911517D01*
X148042177Y-74911518D01*
X148040938Y-74911186D01*
X147970890Y-74890883D01*
X147964694Y-74890757D01*
X147958712Y-74889154D01*
X147958711Y-74889154D01*
X147885769Y-74889154D01*
X147812808Y-74887672D01*
X147806791Y-74889154D01*
X143910443Y-74889154D01*
X143843404Y-74869469D01*
X143822762Y-74852835D01*
X141836819Y-72866892D01*
X141803334Y-72805569D01*
X141800500Y-72779211D01*
X141800500Y-70600097D01*
X141820185Y-70533058D01*
X141836819Y-70512416D01*
X143571336Y-68777899D01*
X145345520Y-67003716D01*
X145424577Y-66866784D01*
X145465501Y-66714057D01*
X145465501Y-66555942D01*
X145465501Y-66548347D01*
X145465500Y-66548329D01*
X145465500Y-65974097D01*
X145485185Y-65907058D01*
X145537989Y-65861303D01*
X145607147Y-65851359D01*
X145670703Y-65880384D01*
X145677181Y-65886416D01*
X146365425Y-66574660D01*
X146398910Y-66635983D01*
X146399361Y-66638149D01*
X146430261Y-66793491D01*
X146430264Y-66793501D01*
X146490602Y-66939172D01*
X146490609Y-66939185D01*
X146578210Y-67070288D01*
X146578213Y-67070292D01*
X146689707Y-67181786D01*
X146689711Y-67181789D01*
X146820814Y-67269390D01*
X146820827Y-67269397D01*
X146966498Y-67329735D01*
X146966503Y-67329737D01*
X147121153Y-67360499D01*
X147121156Y-67360500D01*
X147121158Y-67360500D01*
X147278844Y-67360500D01*
X147278845Y-67360499D01*
X147433497Y-67329737D01*
X147579179Y-67269394D01*
X147710289Y-67181789D01*
X147821789Y-67070289D01*
X147909394Y-66939179D01*
X147969737Y-66793497D01*
X147993780Y-66672627D01*
X147996500Y-66658954D01*
X147996500Y-66658951D01*
X148000500Y-66638842D01*
X148000500Y-66481158D01*
X147996500Y-66461048D01*
X147996500Y-66461046D01*
X147969738Y-66326508D01*
X147969737Y-66326507D01*
X147969737Y-66326503D01*
X147932074Y-66235575D01*
X147909397Y-66180827D01*
X147909390Y-66180814D01*
X147821789Y-66049711D01*
X147821786Y-66049707D01*
X147710292Y-65938213D01*
X147710288Y-65938210D01*
X147579185Y-65850609D01*
X147579172Y-65850602D01*
X147433501Y-65790264D01*
X147433491Y-65790261D01*
X147278149Y-65759361D01*
X147216238Y-65726976D01*
X147214660Y-65725425D01*
X146521819Y-65032584D01*
X146507115Y-65005656D01*
X146490523Y-64979838D01*
X146489631Y-64973637D01*
X146488334Y-64971261D01*
X146485500Y-64944903D01*
X146485500Y-64790205D01*
X146505185Y-64723166D01*
X146557989Y-64677411D01*
X146627147Y-64667467D01*
X146633698Y-64668589D01*
X146637335Y-64669312D01*
X146637343Y-64669315D01*
X146705406Y-64675500D01*
X146705409Y-64675500D01*
X147164591Y-64675500D01*
X147164594Y-64675500D01*
X147232657Y-64669315D01*
X147389270Y-64620512D01*
X147389277Y-64620507D01*
X147394099Y-64618338D01*
X147463311Y-64608768D01*
X147495901Y-64618338D01*
X147500725Y-64620509D01*
X147500730Y-64620512D01*
X147500735Y-64620513D01*
X147500736Y-64620514D01*
X147532751Y-64630490D01*
X147657343Y-64669315D01*
X147725406Y-64675500D01*
X147725409Y-64675500D01*
X148120500Y-64675500D01*
X148187539Y-64695185D01*
X148233294Y-64747989D01*
X148244500Y-64799500D01*
X148244500Y-68883480D01*
X148224815Y-68950519D01*
X148208181Y-68971161D01*
X146615412Y-70563929D01*
X146575184Y-70590809D01*
X146430823Y-70650604D01*
X146430814Y-70650609D01*
X146299711Y-70738210D01*
X146299707Y-70738213D01*
X146188213Y-70849707D01*
X146188210Y-70849711D01*
X146100609Y-70980814D01*
X146100602Y-70980827D01*
X146040264Y-71126498D01*
X146040261Y-71126510D01*
X146009500Y-71281153D01*
X146009500Y-71438846D01*
X146040261Y-71593489D01*
X146040264Y-71593501D01*
X146100602Y-71739172D01*
X146100609Y-71739185D01*
X146139419Y-71797268D01*
X146160297Y-71863946D01*
X146141812Y-71931326D01*
X146089833Y-71978016D01*
X146036317Y-71990159D01*
X144845316Y-71990159D01*
X144797864Y-71980720D01*
X144653501Y-71920923D01*
X144653489Y-71920920D01*
X144498845Y-71890159D01*
X144498842Y-71890159D01*
X144341158Y-71890159D01*
X144341155Y-71890159D01*
X144186510Y-71920920D01*
X144186498Y-71920923D01*
X144040827Y-71981261D01*
X144040814Y-71981268D01*
X143909711Y-72068869D01*
X143909707Y-72068872D01*
X143798213Y-72180366D01*
X143798210Y-72180370D01*
X143710609Y-72311473D01*
X143710602Y-72311486D01*
X143650264Y-72457157D01*
X143650261Y-72457169D01*
X143619500Y-72611812D01*
X143619500Y-72769505D01*
X143650261Y-72924148D01*
X143650264Y-72924160D01*
X143710602Y-73069831D01*
X143710609Y-73069844D01*
X143798210Y-73200947D01*
X143798213Y-73200951D01*
X143909707Y-73312445D01*
X143909711Y-73312448D01*
X144040814Y-73400049D01*
X144040827Y-73400056D01*
X144130869Y-73437352D01*
X144186503Y-73460396D01*
X144302599Y-73483489D01*
X144341153Y-73491158D01*
X144341156Y-73491159D01*
X144341158Y-73491159D01*
X144498844Y-73491159D01*
X144498845Y-73491158D01*
X144653497Y-73460396D01*
X144728963Y-73429137D01*
X144797864Y-73400598D01*
X144845316Y-73391159D01*
X147028337Y-73391159D01*
X147134692Y-73370003D01*
X147163669Y-73364239D01*
X147249116Y-73328846D01*
X147291148Y-73311436D01*
X147291149Y-73311435D01*
X147291152Y-73311434D01*
X147405884Y-73234773D01*
X148465157Y-72175500D01*
X149439011Y-71201647D01*
X151349500Y-71201647D01*
X151349500Y-71748337D01*
X151349501Y-71748355D01*
X151359650Y-71847707D01*
X151359651Y-71847710D01*
X151412996Y-72008694D01*
X151413001Y-72008705D01*
X151502029Y-72153040D01*
X151502032Y-72153044D01*
X151621955Y-72272967D01*
X151621959Y-72272970D01*
X151766294Y-72361998D01*
X151766297Y-72361999D01*
X151766303Y-72362003D01*
X151927292Y-72415349D01*
X152026655Y-72425500D01*
X152623344Y-72425499D01*
X152623352Y-72425498D01*
X152623355Y-72425498D01*
X152677760Y-72419940D01*
X152722708Y-72415349D01*
X152883697Y-72362003D01*
X153028044Y-72272968D01*
X153032136Y-72268876D01*
X153093457Y-72235387D01*
X153163149Y-72240368D01*
X153207503Y-72268871D01*
X153256344Y-72317712D01*
X153405666Y-72409814D01*
X153572203Y-72464999D01*
X153674991Y-72475500D01*
X154725008Y-72475499D01*
X154725016Y-72475498D01*
X154725019Y-72475498D01*
X154781302Y-72469748D01*
X154827797Y-72464999D01*
X154994334Y-72409814D01*
X155143656Y-72317712D01*
X155249550Y-72211818D01*
X155310873Y-72178334D01*
X155337231Y-72175500D01*
X155631531Y-72175500D01*
X155694651Y-72192767D01*
X155752102Y-72226744D01*
X155781851Y-72235387D01*
X155909926Y-72272597D01*
X155909929Y-72272597D01*
X155909931Y-72272598D01*
X155946806Y-72275500D01*
X156283481Y-72275500D01*
X156350520Y-72295185D01*
X156371162Y-72311819D01*
X158615966Y-74556622D01*
X160805886Y-76746542D01*
X160869591Y-76810247D01*
X160903459Y-76844115D01*
X161018182Y-76920771D01*
X161018189Y-76920775D01*
X161089952Y-76950500D01*
X161145671Y-76973580D01*
X161150743Y-76974588D01*
X161161207Y-76978738D01*
X161184844Y-76997201D01*
X161209933Y-77013642D01*
X161212092Y-77018485D01*
X161216270Y-77021748D01*
X161226171Y-77050056D01*
X161238390Y-77077454D01*
X161239014Y-77086772D01*
X161239339Y-77087699D01*
X161239134Y-77088554D01*
X161239500Y-77094007D01*
X161239500Y-77735500D01*
X161219815Y-77802539D01*
X161167011Y-77848294D01*
X161115500Y-77859500D01*
X159011054Y-77859500D01*
X158875727Y-77886418D01*
X158875717Y-77886421D01*
X158748242Y-77939222D01*
X158633504Y-78015887D01*
X157555887Y-79093504D01*
X157479223Y-79208242D01*
X157426421Y-79335718D01*
X157426418Y-79335728D01*
X157414524Y-79395525D01*
X157399500Y-79471054D01*
X157399500Y-81194684D01*
X157390061Y-81242136D01*
X157330264Y-81386498D01*
X157330261Y-81386510D01*
X157299500Y-81541153D01*
X157299500Y-81698846D01*
X157330261Y-81853489D01*
X157330264Y-81853501D01*
X157390602Y-81999172D01*
X157390609Y-81999185D01*
X157478210Y-82130288D01*
X157478213Y-82130292D01*
X157589707Y-82241786D01*
X157589711Y-82241789D01*
X157720814Y-82329390D01*
X157720827Y-82329397D01*
X157852626Y-82383989D01*
X157866503Y-82389737D01*
X158005684Y-82417422D01*
X158021153Y-82420499D01*
X158021156Y-82420500D01*
X158021158Y-82420500D01*
X158178844Y-82420500D01*
X158178845Y-82420499D01*
X158333497Y-82389737D01*
X158479179Y-82329394D01*
X158479184Y-82329390D01*
X158484554Y-82326521D01*
X158485519Y-82328327D01*
X158543256Y-82310233D01*
X158610641Y-82328701D01*
X158657344Y-82380669D01*
X158669500Y-82434213D01*
X158669500Y-95552024D01*
X158649815Y-95619063D01*
X158597011Y-95664818D01*
X158592953Y-95666585D01*
X158510824Y-95700604D01*
X158510814Y-95700609D01*
X158379711Y-95788210D01*
X158379707Y-95788213D01*
X158268213Y-95899707D01*
X158268210Y-95899711D01*
X158180609Y-96030814D01*
X158180602Y-96030827D01*
X158120264Y-96176498D01*
X158120261Y-96176510D01*
X158089500Y-96331153D01*
X158089500Y-96488846D01*
X158120261Y-96643489D01*
X158120264Y-96643501D01*
X158180602Y-96789172D01*
X158180609Y-96789185D01*
X158268210Y-96920288D01*
X158268213Y-96920292D01*
X158379707Y-97031786D01*
X158379711Y-97031789D01*
X158510814Y-97119390D01*
X158510827Y-97119397D01*
X158590133Y-97152246D01*
X158656503Y-97179737D01*
X158811153Y-97210499D01*
X158811156Y-97210500D01*
X158811158Y-97210500D01*
X158968844Y-97210500D01*
X158968845Y-97210499D01*
X159123497Y-97179737D01*
X159269179Y-97119394D01*
X159400289Y-97031789D01*
X159511789Y-96920289D01*
X159599394Y-96789179D01*
X159599395Y-96789176D01*
X159599397Y-96789173D01*
X159659192Y-96644812D01*
X159686067Y-96604588D01*
X159914114Y-96376543D01*
X159990775Y-96261811D01*
X160006504Y-96223839D01*
X160026108Y-96176510D01*
X160043580Y-96134328D01*
X160064169Y-96030821D01*
X160070500Y-95998995D01*
X160070500Y-80247064D01*
X160090185Y-80180025D01*
X160142989Y-80134270D01*
X160194500Y-80123064D01*
X173913747Y-80123064D01*
X173980786Y-80142749D01*
X174021132Y-80185062D01*
X174025793Y-80193134D01*
X174059986Y-80252359D01*
X174059991Y-80252366D01*
X174126595Y-80334614D01*
X174180714Y-80401446D01*
X174193766Y-80417563D01*
X174351735Y-80559798D01*
X174351740Y-80559803D01*
X174402285Y-80592627D01*
X174530016Y-80675577D01*
X174724212Y-80762039D01*
X174929542Y-80817056D01*
X175131865Y-80838321D01*
X175196478Y-80864904D01*
X175236463Y-80922202D01*
X175239123Y-80992021D01*
X175232182Y-81012076D01*
X175149435Y-81197929D01*
X175094420Y-81403253D01*
X175094419Y-81403258D01*
X175084184Y-81500639D01*
X175072199Y-81614665D01*
X175072199Y-81614673D01*
X175083324Y-81826943D01*
X175083325Y-81826952D01*
X175097925Y-81895637D01*
X175127521Y-82034876D01*
X175146621Y-82084632D01*
X175203700Y-82233330D01*
X175203703Y-82233335D01*
X175309986Y-82417422D01*
X175309991Y-82417429D01*
X175314070Y-82422466D01*
X175443765Y-82582625D01*
X175493136Y-82627079D01*
X175529785Y-82686564D01*
X175534164Y-82719228D01*
X175534164Y-94452751D01*
X175514479Y-94519790D01*
X175461675Y-94565545D01*
X175392517Y-94575489D01*
X175337279Y-94553069D01*
X175167820Y-94429951D01*
X174978414Y-94333444D01*
X174978413Y-94333443D01*
X174978412Y-94333443D01*
X174776243Y-94267754D01*
X174776241Y-94267753D01*
X174776240Y-94267753D01*
X174589862Y-94238234D01*
X174566287Y-94234500D01*
X174353713Y-94234500D01*
X174330138Y-94238234D01*
X174143760Y-94267753D01*
X173941585Y-94333444D01*
X173752179Y-94429951D01*
X173580213Y-94554890D01*
X173429894Y-94705209D01*
X173429890Y-94705214D01*
X173310008Y-94870218D01*
X173254678Y-94912884D01*
X173185065Y-94918863D01*
X173123270Y-94886257D01*
X173109372Y-94870218D01*
X172989727Y-94705540D01*
X172989723Y-94705535D01*
X172839464Y-94555276D01*
X172839459Y-94555272D01*
X172667557Y-94430379D01*
X172478215Y-94333903D01*
X172276124Y-94268241D01*
X172210000Y-94257768D01*
X172210000Y-95305854D01*
X172143343Y-95267370D01*
X172022535Y-95235000D01*
X171897465Y-95235000D01*
X171776657Y-95267370D01*
X171710000Y-95305854D01*
X171710000Y-94257768D01*
X171709999Y-94257768D01*
X171643875Y-94268241D01*
X171441784Y-94333903D01*
X171252442Y-94430379D01*
X171080540Y-94555272D01*
X171080535Y-94555276D01*
X170930276Y-94705535D01*
X170930272Y-94705540D01*
X170805379Y-94877442D01*
X170708904Y-95066782D01*
X170643242Y-95268869D01*
X170643242Y-95268872D01*
X170612970Y-95460000D01*
X171555854Y-95460000D01*
X171517370Y-95526657D01*
X171485000Y-95647465D01*
X171485000Y-95772535D01*
X171517370Y-95893343D01*
X171555854Y-95960000D01*
X170612970Y-95960000D01*
X170643242Y-96151127D01*
X170643242Y-96151130D01*
X170708904Y-96353217D01*
X170805379Y-96542557D01*
X170930272Y-96714459D01*
X170930276Y-96714464D01*
X171080535Y-96864723D01*
X171080540Y-96864727D01*
X171252442Y-96989620D01*
X171441782Y-97086095D01*
X171643871Y-97151757D01*
X171710000Y-97162231D01*
X171710000Y-96114145D01*
X171776657Y-96152630D01*
X171897465Y-96185000D01*
X172022535Y-96185000D01*
X172143343Y-96152630D01*
X172210000Y-96114145D01*
X172210000Y-97162230D01*
X172276126Y-97151757D01*
X172276129Y-97151757D01*
X172478217Y-97086095D01*
X172667557Y-96989620D01*
X172839459Y-96864727D01*
X172839464Y-96864723D01*
X172989721Y-96714466D01*
X173109371Y-96549781D01*
X173164701Y-96507115D01*
X173234314Y-96501136D01*
X173296110Y-96533741D01*
X173310008Y-96549781D01*
X173429890Y-96714785D01*
X173429894Y-96714790D01*
X173580213Y-96865109D01*
X173752179Y-96990048D01*
X173752181Y-96990049D01*
X173752184Y-96990051D01*
X173941588Y-97086557D01*
X174143757Y-97152246D01*
X174353713Y-97185500D01*
X174353714Y-97185500D01*
X174566286Y-97185500D01*
X174566287Y-97185500D01*
X174776243Y-97152246D01*
X174978412Y-97086557D01*
X175167816Y-96990051D01*
X175339792Y-96865104D01*
X175478604Y-96726291D01*
X175539923Y-96692809D01*
X175609615Y-96697793D01*
X175665549Y-96739664D01*
X175671821Y-96748878D01*
X175675185Y-96754333D01*
X175675186Y-96754334D01*
X175767288Y-96903656D01*
X175891344Y-97027712D01*
X176040666Y-97119814D01*
X176207203Y-97174999D01*
X176309991Y-97185500D01*
X177610008Y-97185499D01*
X177712797Y-97174999D01*
X177879334Y-97119814D01*
X178028656Y-97027712D01*
X178152712Y-96903656D01*
X178244814Y-96754334D01*
X178299999Y-96587797D01*
X178310500Y-96485009D01*
X178310499Y-94934992D01*
X178308851Y-94918863D01*
X178299999Y-94832203D01*
X178299998Y-94832200D01*
X178244814Y-94665666D01*
X178152712Y-94516344D01*
X178028656Y-94392288D01*
X177879334Y-94300186D01*
X177712797Y-94245001D01*
X177712794Y-94245000D01*
X177646561Y-94238234D01*
X177581869Y-94211838D01*
X177541718Y-94154657D01*
X177535164Y-94114876D01*
X177535164Y-88746505D01*
X177554849Y-88679466D01*
X177607653Y-88633711D01*
X177676811Y-88623767D01*
X177740367Y-88652792D01*
X177746845Y-88658824D01*
X177835990Y-88747969D01*
X177835997Y-88747975D01*
X177998953Y-88873015D01*
X178064844Y-88923575D01*
X178064851Y-88923579D01*
X178314647Y-89067800D01*
X178314663Y-89067808D01*
X178581139Y-89178185D01*
X178581145Y-89178186D01*
X178581155Y-89178191D01*
X178859783Y-89252849D01*
X179145772Y-89290500D01*
X179145779Y-89290500D01*
X179434221Y-89290500D01*
X179434228Y-89290500D01*
X179720217Y-89252849D01*
X179998845Y-89178191D01*
X179998857Y-89178185D01*
X179998860Y-89178185D01*
X180265336Y-89067808D01*
X180265339Y-89067806D01*
X180265345Y-89067804D01*
X180515156Y-88923575D01*
X180744004Y-88747974D01*
X180947974Y-88544004D01*
X181123575Y-88315156D01*
X181267804Y-88065345D01*
X181281210Y-88032981D01*
X181378185Y-87798860D01*
X181378185Y-87798857D01*
X181378191Y-87798845D01*
X181452849Y-87520217D01*
X181490500Y-87234228D01*
X181490500Y-86945772D01*
X181452849Y-86659783D01*
X181378191Y-86381155D01*
X181378186Y-86381145D01*
X181378185Y-86381139D01*
X181267808Y-86114663D01*
X181267800Y-86114647D01*
X181123579Y-85864851D01*
X181123575Y-85864844D01*
X180947974Y-85635996D01*
X180947969Y-85635990D01*
X180744009Y-85432030D01*
X180744002Y-85432024D01*
X180515164Y-85256431D01*
X180515162Y-85256429D01*
X180515156Y-85256425D01*
X180515151Y-85256422D01*
X180515148Y-85256420D01*
X180265352Y-85112199D01*
X180265336Y-85112191D01*
X179998860Y-85001814D01*
X179998848Y-85001810D01*
X179998845Y-85001809D01*
X179720217Y-84927151D01*
X179720211Y-84927150D01*
X179720206Y-84927149D01*
X179434238Y-84889501D01*
X179434233Y-84889500D01*
X179434228Y-84889500D01*
X179145772Y-84889500D01*
X179145766Y-84889500D01*
X179145761Y-84889501D01*
X178859793Y-84927149D01*
X178859786Y-84927150D01*
X178859783Y-84927151D01*
X178581155Y-85001809D01*
X178581139Y-85001814D01*
X178314663Y-85112191D01*
X178314647Y-85112199D01*
X178064851Y-85256420D01*
X178064835Y-85256431D01*
X177835997Y-85432024D01*
X177835990Y-85432030D01*
X177746845Y-85521176D01*
X177685522Y-85554661D01*
X177615830Y-85549677D01*
X177559897Y-85507805D01*
X177535480Y-85442341D01*
X177535164Y-85433495D01*
X177535164Y-82599244D01*
X177554849Y-82532205D01*
X177573814Y-82509292D01*
X177575418Y-82507770D01*
X177652227Y-82422464D01*
X177717654Y-82349800D01*
X177833430Y-82171522D01*
X177919892Y-81977326D01*
X177974910Y-81771996D01*
X177997129Y-81560587D01*
X177986003Y-81348305D01*
X177941807Y-81140377D01*
X177892557Y-81012076D01*
X177865630Y-80941927D01*
X177865625Y-80941918D01*
X177815794Y-80855608D01*
X177759341Y-80757829D01*
X177625564Y-80592629D01*
X177467591Y-80450390D01*
X177467588Y-80450387D01*
X177289313Y-80334614D01*
X177095120Y-80248153D01*
X177095113Y-80248150D01*
X176889785Y-80193133D01*
X176687464Y-80171870D01*
X176622849Y-80145286D01*
X176582864Y-80087989D01*
X176580204Y-80018170D01*
X176587141Y-79998122D01*
X176669892Y-79812263D01*
X176724910Y-79606933D01*
X176747129Y-79395524D01*
X176736003Y-79183242D01*
X176691807Y-78975314D01*
X176635548Y-78828753D01*
X176615630Y-78776864D01*
X176615625Y-78776855D01*
X176542140Y-78649575D01*
X176509341Y-78592766D01*
X176375564Y-78427566D01*
X176356702Y-78410583D01*
X176217593Y-78285329D01*
X176217588Y-78285324D01*
X176039313Y-78169551D01*
X175845120Y-78083090D01*
X175845113Y-78083087D01*
X175639785Y-78028070D01*
X175453850Y-78008529D01*
X175437462Y-78006806D01*
X175372848Y-77980223D01*
X175332863Y-77922926D01*
X175330203Y-77853107D01*
X175337145Y-77833050D01*
X175419892Y-77647199D01*
X175474910Y-77441869D01*
X175497129Y-77230460D01*
X175486003Y-77018178D01*
X175441807Y-76810250D01*
X175441806Y-76810247D01*
X175365630Y-76611800D01*
X175365625Y-76611791D01*
X175320417Y-76533489D01*
X175259341Y-76427702D01*
X175125564Y-76262502D01*
X174967591Y-76120263D01*
X174967588Y-76120260D01*
X174789313Y-76004487D01*
X174595120Y-75918026D01*
X174595113Y-75918023D01*
X174389785Y-75863006D01*
X174187464Y-75841743D01*
X174122849Y-75815159D01*
X174082864Y-75757862D01*
X174080204Y-75688043D01*
X174087141Y-75667995D01*
X174169892Y-75482136D01*
X174224910Y-75276806D01*
X174247129Y-75065397D01*
X174236003Y-74853115D01*
X174235943Y-74852835D01*
X174204960Y-74707069D01*
X174191807Y-74645187D01*
X174188914Y-74637650D01*
X174115630Y-74446737D01*
X174115625Y-74446728D01*
X174009342Y-74262641D01*
X174009337Y-74262634D01*
X173936178Y-74172291D01*
X173875564Y-74097439D01*
X173717591Y-73955200D01*
X173717588Y-73955197D01*
X173539313Y-73839424D01*
X173345120Y-73752963D01*
X173345116Y-73752961D01*
X173155004Y-73702021D01*
X173095344Y-73665656D01*
X173064815Y-73602809D01*
X173073110Y-73533433D01*
X173077953Y-73523395D01*
X173164290Y-73363273D01*
X173209666Y-73193927D01*
X173214765Y-73018674D01*
X173179311Y-72846975D01*
X173137037Y-72752765D01*
X173137033Y-72752757D01*
X172937051Y-72406379D01*
X172937050Y-72406379D01*
X172009664Y-72941806D01*
X172009664Y-72864838D01*
X171977294Y-72744030D01*
X171914759Y-72635716D01*
X171826321Y-72547278D01*
X171759663Y-72508793D01*
X172687050Y-71973367D01*
X172687050Y-71973366D01*
X172487063Y-71626978D01*
X172426617Y-71543269D01*
X172426614Y-71543265D01*
X172295643Y-71426711D01*
X172141317Y-71343499D01*
X171971971Y-71298123D01*
X171796718Y-71293024D01*
X171625019Y-71328478D01*
X171530815Y-71370749D01*
X171530805Y-71370754D01*
X171076170Y-71633238D01*
X171076170Y-71633239D01*
X171549097Y-72452373D01*
X171472129Y-72452373D01*
X171351321Y-72484743D01*
X171243007Y-72547278D01*
X171154569Y-72635716D01*
X171116084Y-72702372D01*
X170643158Y-71883239D01*
X170643157Y-71883239D01*
X170188525Y-72145722D01*
X170188520Y-72145724D01*
X170104805Y-72206174D01*
X170104803Y-72206175D01*
X169988249Y-72337146D01*
X169905037Y-72491472D01*
X169859661Y-72660818D01*
X169854562Y-72836071D01*
X169890016Y-73007770D01*
X169932290Y-73101980D01*
X169932294Y-73101988D01*
X170132275Y-73448365D01*
X170132276Y-73448365D01*
X171059664Y-72912938D01*
X171059664Y-72989908D01*
X171092034Y-73110716D01*
X171154569Y-73219030D01*
X171243007Y-73307468D01*
X171309662Y-73345951D01*
X170382276Y-73881377D01*
X170382276Y-73881378D01*
X170582264Y-74227767D01*
X170642710Y-74311476D01*
X170642713Y-74311480D01*
X170773684Y-74428034D01*
X170928010Y-74511246D01*
X171097356Y-74556622D01*
X171279190Y-74561912D01*
X171345629Y-74583538D01*
X171389829Y-74637650D01*
X171397757Y-74707069D01*
X171395359Y-74717953D01*
X171344420Y-74908062D01*
X171344419Y-74908065D01*
X171344419Y-74908068D01*
X171337565Y-74973280D01*
X171322199Y-75119475D01*
X171322199Y-75119483D01*
X171333324Y-75331753D01*
X171333325Y-75331762D01*
X171365287Y-75482130D01*
X171377521Y-75539686D01*
X171397069Y-75590609D01*
X171453700Y-75738140D01*
X171453703Y-75738145D01*
X171559175Y-75920827D01*
X171559988Y-75922235D01*
X171693765Y-76087435D01*
X171842274Y-76221153D01*
X171851735Y-76229671D01*
X171851740Y-76229676D01*
X171902285Y-76262500D01*
X172030016Y-76345450D01*
X172224212Y-76431912D01*
X172429542Y-76486929D01*
X172631865Y-76508194D01*
X172696478Y-76534777D01*
X172736463Y-76592075D01*
X172739123Y-76661894D01*
X172732182Y-76681949D01*
X172649435Y-76867802D01*
X172594420Y-77073126D01*
X172594419Y-77073131D01*
X172592888Y-77087699D01*
X172572199Y-77284538D01*
X172572199Y-77284546D01*
X172583324Y-77496816D01*
X172583325Y-77496825D01*
X172615288Y-77647195D01*
X172620912Y-77673658D01*
X172627521Y-77704748D01*
X172703700Y-77903203D01*
X172703703Y-77903208D01*
X172809986Y-78087295D01*
X172809991Y-78087302D01*
X172943766Y-78252499D01*
X173101735Y-78394734D01*
X173101735Y-78394735D01*
X173101737Y-78394736D01*
X173101738Y-78394737D01*
X173131911Y-78414332D01*
X173254695Y-78494069D01*
X173300197Y-78547090D01*
X173309811Y-78616295D01*
X173280484Y-78679712D01*
X173221527Y-78717206D01*
X173187159Y-78722064D01*
X162671309Y-78722064D01*
X162604270Y-78702379D01*
X162558515Y-78649575D01*
X162548571Y-78580417D01*
X162559273Y-78547783D01*
X162558444Y-78547440D01*
X162593515Y-78462768D01*
X162613580Y-78414328D01*
X162624367Y-78360097D01*
X162640500Y-78278996D01*
X162640500Y-76725316D01*
X162649939Y-76677864D01*
X162685473Y-76592075D01*
X162709737Y-76533497D01*
X162740500Y-76378842D01*
X162740500Y-76221158D01*
X162740500Y-76221155D01*
X162740499Y-76221153D01*
X162720431Y-76120265D01*
X162709737Y-76066503D01*
X162709735Y-76066498D01*
X162649397Y-75920827D01*
X162649390Y-75920814D01*
X162561789Y-75789711D01*
X162561786Y-75789707D01*
X162450292Y-75678213D01*
X162450288Y-75678210D01*
X162319185Y-75590609D01*
X162319172Y-75590602D01*
X162173501Y-75530264D01*
X162173489Y-75530261D01*
X162018845Y-75499500D01*
X162018842Y-75499500D01*
X161861158Y-75499500D01*
X161861155Y-75499500D01*
X161706511Y-75530260D01*
X161706510Y-75530261D01*
X161706507Y-75530262D01*
X161706503Y-75530263D01*
X161687173Y-75538269D01*
X161617707Y-75545737D01*
X161555228Y-75514461D01*
X161552044Y-75511388D01*
X160278039Y-74237383D01*
X160244554Y-74176060D01*
X160249538Y-74106368D01*
X160291410Y-74050435D01*
X160341526Y-74028085D01*
X160383497Y-74019737D01*
X160529179Y-73959394D01*
X160660289Y-73871789D01*
X160771789Y-73760289D01*
X160859394Y-73629179D01*
X160919737Y-73483497D01*
X160950500Y-73328842D01*
X160950500Y-73171158D01*
X160950500Y-73171155D01*
X160950499Y-73171153D01*
X160944360Y-73140289D01*
X160919737Y-73016503D01*
X160916703Y-73009179D01*
X160866152Y-72887134D01*
X160866151Y-72887133D01*
X160859398Y-72870829D01*
X160859390Y-72870814D01*
X160771789Y-72739711D01*
X160771786Y-72739707D01*
X160660292Y-72628213D01*
X160660288Y-72628210D01*
X160529185Y-72540609D01*
X160529172Y-72540602D01*
X160384814Y-72480808D01*
X160344585Y-72453928D01*
X159961819Y-72071162D01*
X159928334Y-72009839D01*
X159925500Y-71983481D01*
X159925500Y-70914300D01*
X159930423Y-70879707D01*
X159960098Y-70777569D01*
X159963000Y-70740694D01*
X159963000Y-70309306D01*
X159960098Y-70272431D01*
X159950802Y-70240435D01*
X159917266Y-70125004D01*
X159914244Y-70114602D01*
X159830581Y-69973135D01*
X159830579Y-69973133D01*
X159830576Y-69973129D01*
X159714370Y-69856923D01*
X159714362Y-69856917D01*
X159566183Y-69769285D01*
X159567194Y-69767574D01*
X159521532Y-69729564D01*
X159500524Y-69662927D01*
X159500500Y-69660473D01*
X159500500Y-68331886D01*
X159501386Y-68317091D01*
X159501953Y-68312366D01*
X159525500Y-68193993D01*
X159525500Y-67631007D01*
X159515530Y-67580887D01*
X159498580Y-67495672D01*
X159485295Y-67463598D01*
X159445777Y-67368192D01*
X159369112Y-67253454D01*
X159036818Y-66921160D01*
X159003333Y-66859837D01*
X159000499Y-66833479D01*
X159000499Y-66824998D01*
X159000498Y-66824981D01*
X158989999Y-66722203D01*
X158989998Y-66722200D01*
X158952399Y-66608735D01*
X158934814Y-66555666D01*
X158842712Y-66406344D01*
X158718656Y-66282288D01*
X158569334Y-66190186D01*
X158402797Y-66135001D01*
X158402795Y-66135000D01*
X158300010Y-66124500D01*
X157699998Y-66124500D01*
X157699980Y-66124501D01*
X157597203Y-66135000D01*
X157597200Y-66135001D01*
X157430668Y-66190185D01*
X157430663Y-66190187D01*
X157281342Y-66282289D01*
X157157288Y-66406343D01*
X157157283Y-66406349D01*
X157155241Y-66409661D01*
X157153247Y-66411453D01*
X157152807Y-66412011D01*
X157152711Y-66411935D01*
X157103291Y-66456383D01*
X157034328Y-66467602D01*
X156970247Y-66439755D01*
X156944168Y-66409656D01*
X156942319Y-66406659D01*
X156942316Y-66406655D01*
X156818345Y-66282684D01*
X156669124Y-66190643D01*
X156669119Y-66190641D01*
X156502697Y-66135494D01*
X156502690Y-66135493D01*
X156399986Y-66125000D01*
X156350000Y-66125000D01*
X156350000Y-67226000D01*
X156330315Y-67293039D01*
X156277511Y-67338794D01*
X156226000Y-67350000D01*
X156100000Y-67350000D01*
X156100000Y-67476000D01*
X156080315Y-67543039D01*
X156027511Y-67588794D01*
X155976000Y-67600000D01*
X155100001Y-67600000D01*
X155100001Y-67874986D01*
X155110494Y-67977697D01*
X155165641Y-68144119D01*
X155165643Y-68144124D01*
X155257684Y-68293345D01*
X155381654Y-68417315D01*
X155530875Y-68509356D01*
X155530880Y-68509358D01*
X155697302Y-68564505D01*
X155697310Y-68564506D01*
X155764446Y-68571365D01*
X155829138Y-68597761D01*
X155869289Y-68654941D01*
X155872153Y-68724752D01*
X155836819Y-68785029D01*
X155786441Y-68813799D01*
X155752303Y-68823717D01*
X155610947Y-68907314D01*
X155610942Y-68907318D01*
X155528627Y-68989633D01*
X155467303Y-69023117D01*
X155397612Y-69018133D01*
X155341678Y-68976261D01*
X155335407Y-68967048D01*
X155267315Y-68856654D01*
X155143345Y-68732684D01*
X154994124Y-68640643D01*
X154994119Y-68640641D01*
X154827697Y-68585494D01*
X154827690Y-68585493D01*
X154724986Y-68575000D01*
X154450000Y-68575000D01*
X154450000Y-69325000D01*
X156275000Y-69325000D01*
X156775000Y-69325000D01*
X157684795Y-69325000D01*
X157684795Y-69324998D01*
X157684600Y-69322513D01*
X157638781Y-69164801D01*
X157555185Y-69023447D01*
X157555178Y-69023438D01*
X157439061Y-68907321D01*
X157439052Y-68907314D01*
X157297696Y-68823717D01*
X157297693Y-68823716D01*
X157139995Y-68777900D01*
X157139989Y-68777899D01*
X157103149Y-68775000D01*
X156775000Y-68775000D01*
X156775000Y-69325000D01*
X156275000Y-69325000D01*
X156275000Y-68765289D01*
X156253195Y-68725357D01*
X156258179Y-68655665D01*
X156300051Y-68599732D01*
X156365515Y-68575315D01*
X156374361Y-68574999D01*
X156399971Y-68574999D01*
X156399987Y-68574998D01*
X156502697Y-68564505D01*
X156669119Y-68509358D01*
X156669124Y-68509356D01*
X156818345Y-68417315D01*
X156942318Y-68293342D01*
X156944165Y-68290348D01*
X156945969Y-68288724D01*
X156946798Y-68287677D01*
X156946976Y-68287818D01*
X156996110Y-68243621D01*
X157065073Y-68232396D01*
X157129156Y-68260236D01*
X157155243Y-68290341D01*
X157157288Y-68293656D01*
X157281344Y-68417712D01*
X157430666Y-68509814D01*
X157597203Y-68564999D01*
X157699991Y-68575500D01*
X157975501Y-68575499D01*
X158042539Y-68595183D01*
X158088294Y-68647987D01*
X158099500Y-68699499D01*
X158099500Y-69660473D01*
X158096510Y-69670653D01*
X158097757Y-69681189D01*
X158086837Y-69703597D01*
X158079815Y-69727512D01*
X158070988Y-69736120D01*
X158067150Y-69743997D01*
X158051321Y-69755301D01*
X158039906Y-69766435D01*
X158030132Y-69772375D01*
X158027102Y-69773256D01*
X157885635Y-69856919D01*
X157877259Y-69865294D01*
X157864520Y-69873038D01*
X157844572Y-69878356D01*
X157826454Y-69888246D01*
X157811497Y-69887174D01*
X157797008Y-69891037D01*
X157777351Y-69884726D01*
X157756763Y-69883251D01*
X157742087Y-69873405D01*
X157730483Y-69869680D01*
X157723011Y-69860608D01*
X157709058Y-69851247D01*
X157684796Y-69825000D01*
X156775000Y-69825000D01*
X156775000Y-70375000D01*
X157103134Y-70375000D01*
X157103149Y-70374999D01*
X157139989Y-70372100D01*
X157139995Y-70372099D01*
X157297693Y-70326283D01*
X157297696Y-70326282D01*
X157445771Y-70238712D01*
X157446790Y-70240435D01*
X157502026Y-70218744D01*
X157570545Y-70232418D01*
X157620793Y-70280966D01*
X157637000Y-70342257D01*
X157637000Y-70707104D01*
X157617315Y-70774143D01*
X157564511Y-70819898D01*
X157495353Y-70829842D01*
X157447002Y-70809330D01*
X157446080Y-70810890D01*
X157361189Y-70760686D01*
X157297898Y-70723256D01*
X157297897Y-70723255D01*
X157297896Y-70723255D01*
X157297893Y-70723254D01*
X157140073Y-70677402D01*
X157140067Y-70677401D01*
X157103201Y-70674500D01*
X157103194Y-70674500D01*
X155946806Y-70674500D01*
X155946798Y-70674500D01*
X155909932Y-70677401D01*
X155909926Y-70677402D01*
X155752106Y-70723254D01*
X155752103Y-70723255D01*
X155722629Y-70740686D01*
X155696154Y-70756344D01*
X155694652Y-70757232D01*
X155631531Y-70774500D01*
X155337231Y-70774500D01*
X155309124Y-70766246D01*
X155280353Y-70760686D01*
X155273744Y-70755858D01*
X155270192Y-70754815D01*
X155251614Y-70740198D01*
X155250559Y-70739191D01*
X155143656Y-70632288D01*
X155129250Y-70623402D01*
X155119823Y-70614404D01*
X155108619Y-70594975D01*
X155093618Y-70578297D01*
X155091501Y-70565290D01*
X155084920Y-70553877D01*
X155085999Y-70531471D01*
X155082397Y-70509334D01*
X155087647Y-70497250D01*
X155088281Y-70484088D01*
X155101302Y-70465821D01*
X155110240Y-70445252D01*
X155125218Y-70432274D01*
X155128839Y-70427195D01*
X155132999Y-70425531D01*
X155140348Y-70419165D01*
X155143342Y-70417318D01*
X155267316Y-70293344D01*
X155267317Y-70293342D01*
X155335407Y-70182952D01*
X155387355Y-70136227D01*
X155456317Y-70125004D01*
X155520400Y-70152848D01*
X155528627Y-70160367D01*
X155610938Y-70242678D01*
X155610947Y-70242685D01*
X155752303Y-70326282D01*
X155752306Y-70326283D01*
X155910004Y-70372099D01*
X155910010Y-70372100D01*
X155946850Y-70374999D01*
X155946866Y-70375000D01*
X156275000Y-70375000D01*
X156275000Y-69825000D01*
X154324000Y-69825000D01*
X154256961Y-69805315D01*
X154211206Y-69752511D01*
X154200000Y-69701000D01*
X154200000Y-69575000D01*
X154074000Y-69575000D01*
X154006961Y-69555315D01*
X153961206Y-69502511D01*
X153950000Y-69451000D01*
X153950000Y-68575000D01*
X153675029Y-68575000D01*
X153675012Y-68575001D01*
X153572302Y-68585494D01*
X153405880Y-68640641D01*
X153405875Y-68640643D01*
X153256654Y-68732684D01*
X153132683Y-68856655D01*
X153132680Y-68856659D01*
X153047863Y-68994169D01*
X152995915Y-69040894D01*
X152926953Y-69052115D01*
X152889925Y-69041456D01*
X152883488Y-69038455D01*
X152722606Y-68985144D01*
X152623322Y-68975000D01*
X152575000Y-68975000D01*
X152575000Y-69801000D01*
X152555315Y-69868039D01*
X152502511Y-69913794D01*
X152451000Y-69925000D01*
X152325000Y-69925000D01*
X152325000Y-70051000D01*
X152305315Y-70118039D01*
X152252511Y-70163794D01*
X152201000Y-70175000D01*
X151350001Y-70175000D01*
X151350001Y-70198322D01*
X151360144Y-70297607D01*
X151413452Y-70458481D01*
X151413457Y-70458492D01*
X151502424Y-70602728D01*
X151502427Y-70602732D01*
X151511660Y-70611965D01*
X151545145Y-70673288D01*
X151540161Y-70742980D01*
X151511663Y-70787324D01*
X151502033Y-70796953D01*
X151502029Y-70796959D01*
X151413001Y-70941294D01*
X151412996Y-70941305D01*
X151359651Y-71102290D01*
X151349500Y-71201647D01*
X149439011Y-71201647D01*
X149529841Y-71110817D01*
X150509111Y-70131546D01*
X150509112Y-70131545D01*
X150509114Y-70131543D01*
X150585775Y-70016811D01*
X150598962Y-69984976D01*
X150638578Y-69889332D01*
X150638580Y-69889328D01*
X150651376Y-69825000D01*
X150665500Y-69753996D01*
X150665500Y-69651677D01*
X151350000Y-69651677D01*
X151350000Y-69675000D01*
X152075000Y-69675000D01*
X152075000Y-68975000D01*
X152074999Y-68974999D01*
X152026693Y-68975000D01*
X152026675Y-68975001D01*
X151927392Y-68985144D01*
X151766518Y-69038452D01*
X151766507Y-69038457D01*
X151622271Y-69127424D01*
X151622267Y-69127427D01*
X151502427Y-69247267D01*
X151502424Y-69247271D01*
X151413457Y-69391507D01*
X151413452Y-69391518D01*
X151360144Y-69552393D01*
X151350000Y-69651677D01*
X150665500Y-69651677D01*
X150665500Y-66825013D01*
X155100000Y-66825013D01*
X155100000Y-67100000D01*
X155850000Y-67100000D01*
X155850000Y-66125000D01*
X155849999Y-66124999D01*
X155800029Y-66125000D01*
X155800011Y-66125001D01*
X155697302Y-66135494D01*
X155530880Y-66190641D01*
X155530875Y-66190643D01*
X155381654Y-66282684D01*
X155257684Y-66406654D01*
X155165643Y-66555875D01*
X155165641Y-66555880D01*
X155110494Y-66722302D01*
X155110493Y-66722309D01*
X155100000Y-66825013D01*
X150665500Y-66825013D01*
X150665500Y-64511163D01*
X150685185Y-64444124D01*
X150701819Y-64423482D01*
X150705648Y-64419653D01*
X150750327Y-64345745D01*
X150790511Y-64279272D01*
X150790514Y-64279263D01*
X150793801Y-64268715D01*
X150839315Y-64122657D01*
X150845500Y-64054594D01*
X150845500Y-60818384D01*
X151274500Y-60818384D01*
X151274500Y-64031616D01*
X151276423Y-64052778D01*
X151280913Y-64102192D01*
X151280913Y-64102194D01*
X151280914Y-64102196D01*
X151331522Y-64264606D01*
X151401595Y-64380521D01*
X151419530Y-64410188D01*
X151539811Y-64530469D01*
X151539813Y-64530470D01*
X151539815Y-64530472D01*
X151685394Y-64618478D01*
X151847804Y-64669086D01*
X151918384Y-64675500D01*
X151918387Y-64675500D01*
X152431613Y-64675500D01*
X152431616Y-64675500D01*
X152502196Y-64669086D01*
X152664606Y-64618478D01*
X152715849Y-64587499D01*
X152783404Y-64569663D01*
X152844150Y-64587499D01*
X152895394Y-64618478D01*
X153057804Y-64669086D01*
X153128384Y-64675500D01*
X153128387Y-64675500D01*
X153641613Y-64675500D01*
X153641616Y-64675500D01*
X153712196Y-64669086D01*
X153874606Y-64618478D01*
X154020185Y-64530472D01*
X154140472Y-64410185D01*
X154228478Y-64264606D01*
X154279086Y-64102196D01*
X154285500Y-64031616D01*
X154285500Y-60818384D01*
X154279086Y-60747804D01*
X154228478Y-60585394D01*
X154140472Y-60439815D01*
X154140470Y-60439813D01*
X154140469Y-60439811D01*
X154020188Y-60319530D01*
X154012269Y-60314743D01*
X153874606Y-60231522D01*
X153712196Y-60180914D01*
X153712194Y-60180913D01*
X153712192Y-60180913D01*
X153662778Y-60176423D01*
X153641616Y-60174500D01*
X153128384Y-60174500D01*
X153109145Y-60176248D01*
X153057807Y-60180913D01*
X153004095Y-60197650D01*
X152901922Y-60229488D01*
X152895391Y-60231523D01*
X152844149Y-60262500D01*
X152776594Y-60280336D01*
X152715851Y-60262500D01*
X152664608Y-60231523D01*
X152664607Y-60231522D01*
X152664606Y-60231522D01*
X152502196Y-60180914D01*
X152502194Y-60180913D01*
X152502192Y-60180913D01*
X152452778Y-60176423D01*
X152431616Y-60174500D01*
X151918384Y-60174500D01*
X151899145Y-60176248D01*
X151847807Y-60180913D01*
X151685393Y-60231522D01*
X151539811Y-60319530D01*
X151419530Y-60439811D01*
X151331522Y-60585393D01*
X151280913Y-60747807D01*
X151276588Y-60795406D01*
X151274500Y-60818384D01*
X150845500Y-60818384D01*
X150845500Y-60795406D01*
X150839315Y-60727343D01*
X150790512Y-60570730D01*
X150790511Y-60570727D01*
X150705651Y-60430351D01*
X150705648Y-60430347D01*
X150589652Y-60314351D01*
X150589648Y-60314348D01*
X150449272Y-60229488D01*
X150449263Y-60229485D01*
X150292664Y-60180687D01*
X150292662Y-60180686D01*
X150292657Y-60180685D01*
X150224594Y-60174500D01*
X149765406Y-60174500D01*
X149697343Y-60180685D01*
X149697341Y-60180685D01*
X149697338Y-60180686D01*
X149540725Y-60229489D01*
X149535881Y-60231669D01*
X149466668Y-60241226D01*
X149434119Y-60231669D01*
X149429274Y-60229489D01*
X149272661Y-60180686D01*
X149272659Y-60180685D01*
X149272657Y-60180685D01*
X149204594Y-60174500D01*
X148745406Y-60174500D01*
X148677343Y-60180685D01*
X148677342Y-60180685D01*
X148661387Y-60185657D01*
X148591526Y-60186806D01*
X148532135Y-60150003D01*
X148502069Y-60086933D01*
X148500500Y-60067270D01*
X148500500Y-57914500D01*
X148520185Y-57847461D01*
X148572989Y-57801706D01*
X148624500Y-57790500D01*
X150370234Y-57790500D01*
X150437273Y-57810185D01*
X150439125Y-57811398D01*
X150570814Y-57899390D01*
X150570827Y-57899397D01*
X150716498Y-57959735D01*
X150716503Y-57959737D01*
X150861747Y-57988628D01*
X150871153Y-57990499D01*
X150871156Y-57990500D01*
X150871158Y-57990500D01*
X151028844Y-57990500D01*
X151028845Y-57990499D01*
X151183497Y-57959737D01*
X151329179Y-57899394D01*
X151460289Y-57811789D01*
X151571789Y-57700289D01*
X151659394Y-57569179D01*
X151719737Y-57423497D01*
X151750500Y-57268842D01*
X151750500Y-57111158D01*
X151750500Y-57111155D01*
X151750499Y-57111153D01*
X154209500Y-57111153D01*
X154209500Y-57268846D01*
X154240261Y-57423489D01*
X154240264Y-57423501D01*
X154300602Y-57569172D01*
X154300609Y-57569185D01*
X154388210Y-57700288D01*
X154388213Y-57700292D01*
X154499707Y-57811786D01*
X154499711Y-57811789D01*
X154630814Y-57899390D01*
X154630827Y-57899397D01*
X154776498Y-57959735D01*
X154776503Y-57959737D01*
X154921747Y-57988628D01*
X154931153Y-57990499D01*
X154931156Y-57990500D01*
X154931158Y-57990500D01*
X155088844Y-57990500D01*
X155088845Y-57990499D01*
X155243497Y-57959737D01*
X155389179Y-57899394D01*
X155392543Y-57897146D01*
X155520875Y-57811398D01*
X155587553Y-57790520D01*
X155589766Y-57790500D01*
X157639903Y-57790500D01*
X157706942Y-57810185D01*
X157727584Y-57826819D01*
X158413181Y-58512416D01*
X158446666Y-58573739D01*
X158449500Y-58600097D01*
X158449500Y-62403330D01*
X158449499Y-62403348D01*
X158449499Y-62569054D01*
X158449498Y-62569054D01*
X158490423Y-62721785D01*
X158519358Y-62771900D01*
X158519359Y-62771904D01*
X158519360Y-62771904D01*
X158561294Y-62844538D01*
X158569479Y-62858714D01*
X158569481Y-62858717D01*
X158688349Y-62977585D01*
X158688355Y-62977590D01*
X159734187Y-64023422D01*
X159740009Y-64032484D01*
X159745785Y-64036809D01*
X159755061Y-64055908D01*
X159762695Y-64067789D01*
X159764756Y-64073319D01*
X159780423Y-64131785D01*
X159792537Y-64152766D01*
X159797719Y-64161741D01*
X159859479Y-64268715D01*
X159978349Y-64387585D01*
X159978354Y-64387589D01*
X161053848Y-65463084D01*
X161053850Y-65463085D01*
X161053854Y-65463088D01*
X161190773Y-65542137D01*
X161190780Y-65542141D01*
X161343507Y-65583065D01*
X161343509Y-65583065D01*
X161509218Y-65583065D01*
X161509234Y-65583064D01*
X165496011Y-65583064D01*
X165563050Y-65602749D01*
X165603398Y-65645064D01*
X165699986Y-65812359D01*
X165699991Y-65812366D01*
X165730960Y-65850609D01*
X165833765Y-65977562D01*
X165947243Y-66079738D01*
X165991735Y-66119798D01*
X165991740Y-66119803D01*
X166025830Y-66141941D01*
X166170016Y-66235577D01*
X166364212Y-66322039D01*
X166569542Y-66377056D01*
X166772389Y-66398376D01*
X166837002Y-66424959D01*
X166876987Y-66482257D01*
X166879647Y-66552076D01*
X166872706Y-66572131D01*
X166789909Y-66758096D01*
X166734911Y-66963350D01*
X166712701Y-67174676D01*
X166712701Y-67174685D01*
X166723821Y-67386878D01*
X166723822Y-67386887D01*
X166768002Y-67594733D01*
X166791994Y-67657236D01*
X167671827Y-67149265D01*
X167699664Y-67133193D01*
X167699664Y-67210162D01*
X167732034Y-67330970D01*
X167794569Y-67439284D01*
X167883007Y-67527722D01*
X167949661Y-67566204D01*
X167041994Y-68090247D01*
X167041994Y-68090248D01*
X167084130Y-68142281D01*
X167242040Y-68284463D01*
X167242045Y-68284468D01*
X167420252Y-68400196D01*
X167614380Y-68486628D01*
X167614379Y-68486628D01*
X167819634Y-68541626D01*
X168030965Y-68563836D01*
X168243162Y-68552716D01*
X168243171Y-68552715D01*
X168451016Y-68508536D01*
X168631671Y-68439187D01*
X168160230Y-67622627D01*
X168237199Y-67622627D01*
X168358007Y-67590257D01*
X168466321Y-67527722D01*
X168554759Y-67439284D01*
X168593242Y-67372628D01*
X169064683Y-68189188D01*
X169064684Y-68189188D01*
X169215071Y-68067407D01*
X169357255Y-67909497D01*
X169357259Y-67909492D01*
X169472986Y-67731286D01*
X169559419Y-67537154D01*
X169614414Y-67331909D01*
X169636626Y-67120577D01*
X169636626Y-67120568D01*
X169625506Y-66908375D01*
X169625505Y-66908366D01*
X169581325Y-66700519D01*
X169557333Y-66638017D01*
X168649664Y-67162058D01*
X168649664Y-67085092D01*
X168617294Y-66964284D01*
X168554759Y-66855970D01*
X168466321Y-66767532D01*
X168399664Y-66729047D01*
X169307332Y-66205005D01*
X169307332Y-66205004D01*
X169265197Y-66152972D01*
X169107288Y-66010789D01*
X169107283Y-66010785D01*
X168929076Y-65895057D01*
X168734947Y-65808625D01*
X168734948Y-65808625D01*
X168529699Y-65753629D01*
X168327249Y-65732351D01*
X168262634Y-65705767D01*
X168222649Y-65648469D01*
X168219989Y-65578650D01*
X168226928Y-65558601D01*
X168309892Y-65372263D01*
X168364910Y-65166933D01*
X168387129Y-64955524D01*
X168376003Y-64743242D01*
X168331807Y-64535314D01*
X168329947Y-64530469D01*
X168255630Y-64336864D01*
X168255625Y-64336855D01*
X168149341Y-64152766D01*
X168015564Y-63987566D01*
X167857591Y-63845327D01*
X167857588Y-63845324D01*
X167679313Y-63729551D01*
X167485120Y-63643090D01*
X167485113Y-63643087D01*
X167279785Y-63588070D01*
X167093850Y-63568529D01*
X167077462Y-63566806D01*
X167012848Y-63540223D01*
X166972863Y-63482926D01*
X166970203Y-63413107D01*
X166977145Y-63393050D01*
X167059892Y-63207199D01*
X167114910Y-63001869D01*
X167137129Y-62790460D01*
X167126003Y-62578178D01*
X167081807Y-62370250D01*
X167055223Y-62300996D01*
X167005630Y-62171800D01*
X167005625Y-62171791D01*
X166961161Y-62094777D01*
X166899341Y-61987702D01*
X166765564Y-61822502D01*
X166607591Y-61680263D01*
X166607588Y-61680260D01*
X166429313Y-61564487D01*
X166235120Y-61478026D01*
X166235113Y-61478023D01*
X166029785Y-61423006D01*
X165827464Y-61401743D01*
X165762849Y-61375159D01*
X165722864Y-61317862D01*
X165720204Y-61248043D01*
X165727141Y-61227995D01*
X165809892Y-61042136D01*
X165864910Y-60836806D01*
X165887129Y-60625397D01*
X165876003Y-60413115D01*
X165831807Y-60205187D01*
X165822489Y-60180913D01*
X165755630Y-60006737D01*
X165755625Y-60006728D01*
X165741593Y-59982424D01*
X165649341Y-59822639D01*
X165515564Y-59657439D01*
X165357591Y-59515200D01*
X165357588Y-59515197D01*
X165179313Y-59399424D01*
X164985120Y-59312963D01*
X164985116Y-59312961D01*
X164795004Y-59262021D01*
X164735344Y-59225656D01*
X164704815Y-59162809D01*
X164713110Y-59093433D01*
X164717953Y-59083395D01*
X164804290Y-58923273D01*
X164849666Y-58753927D01*
X164854765Y-58578674D01*
X164819311Y-58406975D01*
X164777037Y-58312765D01*
X164777033Y-58312757D01*
X164577051Y-57966379D01*
X164577050Y-57966379D01*
X163649664Y-58501806D01*
X163649664Y-58424838D01*
X163617294Y-58304030D01*
X163554759Y-58195716D01*
X163466321Y-58107278D01*
X163399663Y-58068793D01*
X164327050Y-57533367D01*
X164327050Y-57533366D01*
X164127063Y-57186978D01*
X164066617Y-57103269D01*
X164066614Y-57103265D01*
X163935643Y-56986711D01*
X163781317Y-56903499D01*
X163611971Y-56858123D01*
X163436718Y-56853024D01*
X163265019Y-56888478D01*
X163170815Y-56930749D01*
X163170805Y-56930754D01*
X162716170Y-57193238D01*
X162716170Y-57193239D01*
X163189097Y-58012373D01*
X163112129Y-58012373D01*
X162991321Y-58044743D01*
X162883007Y-58107278D01*
X162794569Y-58195716D01*
X162756084Y-58262372D01*
X162283158Y-57443239D01*
X162283157Y-57443239D01*
X161828525Y-57705722D01*
X161828520Y-57705724D01*
X161744805Y-57766174D01*
X161744803Y-57766175D01*
X161628249Y-57897146D01*
X161545037Y-58051472D01*
X161499661Y-58220818D01*
X161494562Y-58396071D01*
X161530016Y-58567770D01*
X161572290Y-58661980D01*
X161572294Y-58661988D01*
X161772275Y-59008365D01*
X161772276Y-59008365D01*
X162699664Y-58472938D01*
X162699664Y-58549908D01*
X162732034Y-58670716D01*
X162794569Y-58779030D01*
X162883007Y-58867468D01*
X162949662Y-58905951D01*
X162022276Y-59441377D01*
X162022276Y-59441378D01*
X162222264Y-59787767D01*
X162282710Y-59871476D01*
X162282713Y-59871480D01*
X162413684Y-59988034D01*
X162568010Y-60071246D01*
X162737356Y-60116622D01*
X162919190Y-60121912D01*
X162985629Y-60143538D01*
X163029829Y-60197650D01*
X163037757Y-60267069D01*
X163035359Y-60277953D01*
X162984420Y-60468062D01*
X162984419Y-60468065D01*
X162984419Y-60468068D01*
X162973629Y-60570727D01*
X162962199Y-60679475D01*
X162962199Y-60679483D01*
X162973324Y-60891753D01*
X162973325Y-60891762D01*
X163017521Y-61099685D01*
X163093700Y-61298140D01*
X163093703Y-61298145D01*
X163199986Y-61482232D01*
X163199991Y-61482239D01*
X163333766Y-61647436D01*
X163370221Y-61680260D01*
X163467204Y-61767584D01*
X163491735Y-61789671D01*
X163491740Y-61789676D01*
X163599936Y-61859939D01*
X163670016Y-61905450D01*
X163864212Y-61991912D01*
X164069542Y-62046929D01*
X164271865Y-62068194D01*
X164336478Y-62094777D01*
X164376463Y-62152075D01*
X164379123Y-62221894D01*
X164372182Y-62241949D01*
X164289435Y-62427802D01*
X164234420Y-62633126D01*
X164212199Y-62844538D01*
X164212199Y-62844546D01*
X164223324Y-63056816D01*
X164223325Y-63056825D01*
X164267521Y-63264748D01*
X164343700Y-63463203D01*
X164343703Y-63463208D01*
X164449986Y-63647295D01*
X164449991Y-63647302D01*
X164583766Y-63812499D01*
X164741735Y-63954734D01*
X164741740Y-63954739D01*
X164847503Y-64023422D01*
X164920016Y-64070513D01*
X165086833Y-64144785D01*
X165140069Y-64190035D01*
X165160390Y-64256884D01*
X165141345Y-64324108D01*
X165088979Y-64370363D01*
X165036396Y-64382064D01*
X161722662Y-64382064D01*
X161655623Y-64362379D01*
X161634981Y-64345745D01*
X160945810Y-63656575D01*
X160913717Y-63600989D01*
X160899577Y-63548216D01*
X160899574Y-63548212D01*
X160899574Y-63548209D01*
X160820524Y-63411290D01*
X160820521Y-63411286D01*
X160820520Y-63411284D01*
X160708716Y-63299480D01*
X160708715Y-63299479D01*
X160704385Y-63295149D01*
X160704374Y-63295139D01*
X159686819Y-62277584D01*
X159653334Y-62216261D01*
X159650500Y-62189903D01*
X159650500Y-58220945D01*
X159650500Y-58220943D01*
X159609577Y-58068216D01*
X159609577Y-58068215D01*
X159564708Y-57990500D01*
X159530520Y-57931284D01*
X159418716Y-57819480D01*
X159418715Y-57819479D01*
X159414385Y-57815149D01*
X159414374Y-57815139D01*
X158427590Y-56828355D01*
X158427588Y-56828352D01*
X158308717Y-56709481D01*
X158308716Y-56709480D01*
X158221904Y-56659360D01*
X158221904Y-56659359D01*
X158221900Y-56659358D01*
X158171785Y-56630423D01*
X158019057Y-56589499D01*
X157860943Y-56589499D01*
X157853347Y-56589499D01*
X157853331Y-56589500D01*
X155589766Y-56589500D01*
X155522727Y-56569815D01*
X155520875Y-56568602D01*
X155389185Y-56480609D01*
X155389172Y-56480602D01*
X155243501Y-56420264D01*
X155243489Y-56420261D01*
X155088845Y-56389500D01*
X155088842Y-56389500D01*
X154931158Y-56389500D01*
X154931155Y-56389500D01*
X154776510Y-56420261D01*
X154776498Y-56420264D01*
X154630827Y-56480602D01*
X154630814Y-56480609D01*
X154499711Y-56568210D01*
X154499707Y-56568213D01*
X154388213Y-56679707D01*
X154388210Y-56679711D01*
X154300609Y-56810814D01*
X154300602Y-56810827D01*
X154240264Y-56956498D01*
X154240261Y-56956510D01*
X154209500Y-57111153D01*
X151750499Y-57111153D01*
X151727096Y-56993501D01*
X151719737Y-56956503D01*
X151719735Y-56956498D01*
X151659397Y-56810827D01*
X151659390Y-56810814D01*
X151571789Y-56679711D01*
X151571786Y-56679707D01*
X151460292Y-56568213D01*
X151460288Y-56568210D01*
X151329185Y-56480609D01*
X151329172Y-56480602D01*
X151183501Y-56420264D01*
X151183489Y-56420261D01*
X151028845Y-56389500D01*
X151028842Y-56389500D01*
X150871158Y-56389500D01*
X150871155Y-56389500D01*
X150716510Y-56420261D01*
X150716498Y-56420264D01*
X150570827Y-56480602D01*
X150570814Y-56480609D01*
X150439125Y-56568602D01*
X150372447Y-56589480D01*
X150370234Y-56589500D01*
X148200097Y-56589500D01*
X148133058Y-56569815D01*
X148112416Y-56553181D01*
X147179329Y-55620094D01*
X147179327Y-55620091D01*
X147060456Y-55501220D01*
X147060455Y-55501219D01*
X146973643Y-55451099D01*
X146973643Y-55451098D01*
X146973639Y-55451097D01*
X146923524Y-55422162D01*
X146770796Y-55381238D01*
X146612682Y-55381238D01*
X146605086Y-55381238D01*
X146605070Y-55381239D01*
X134360102Y-55381239D01*
X134293063Y-55361554D01*
X134247308Y-55308750D01*
X134237364Y-55239592D01*
X134266389Y-55176036D01*
X134272421Y-55169558D01*
X134307969Y-55134009D01*
X134307974Y-55134004D01*
X134483575Y-54905156D01*
X134627804Y-54655345D01*
X134734050Y-54398844D01*
X134738185Y-54388860D01*
X134738185Y-54388857D01*
X134738191Y-54388845D01*
X134812849Y-54110217D01*
X134850500Y-53824228D01*
X134850500Y-53571448D01*
X136085000Y-53571448D01*
X137181448Y-52475000D01*
X137181448Y-52474999D01*
X136085000Y-51378551D01*
X136085000Y-53571448D01*
X134850500Y-53571448D01*
X134850500Y-53535772D01*
X134812849Y-53249783D01*
X134738191Y-52971155D01*
X134738186Y-52971145D01*
X134738185Y-52971139D01*
X134627808Y-52704663D01*
X134627800Y-52704647D01*
X134483579Y-52454851D01*
X134483575Y-52454844D01*
X134430676Y-52385904D01*
X134307975Y-52225997D01*
X134307969Y-52225990D01*
X134104009Y-52022030D01*
X134104002Y-52022024D01*
X133875164Y-51846431D01*
X133875162Y-51846429D01*
X133875156Y-51846425D01*
X133875151Y-51846422D01*
X133875148Y-51846420D01*
X133625352Y-51702199D01*
X133625336Y-51702191D01*
X133358860Y-51591814D01*
X133358848Y-51591810D01*
X133358845Y-51591809D01*
X133080217Y-51517151D01*
X133080211Y-51517150D01*
X133080206Y-51517149D01*
X132794238Y-51479501D01*
X132794233Y-51479500D01*
X132794228Y-51479500D01*
X132505772Y-51479500D01*
X132505766Y-51479500D01*
X132505761Y-51479501D01*
X132219793Y-51517149D01*
X132219786Y-51517150D01*
X132219783Y-51517151D01*
X132163392Y-51532261D01*
X131941155Y-51591809D01*
X131941139Y-51591814D01*
X131674663Y-51702191D01*
X131674647Y-51702199D01*
X131424851Y-51846420D01*
X131424835Y-51846431D01*
X131195997Y-52022024D01*
X131195990Y-52022030D01*
X130992030Y-52225990D01*
X130992024Y-52225997D01*
X130816431Y-52454835D01*
X130816420Y-52454851D01*
X130672199Y-52704647D01*
X130672191Y-52704663D01*
X130561814Y-52971139D01*
X130561809Y-52971155D01*
X130487152Y-53249780D01*
X130487149Y-53249793D01*
X130449501Y-53535761D01*
X130449500Y-53535778D01*
X130449500Y-53824221D01*
X130449501Y-53824238D01*
X130487149Y-54110206D01*
X130487150Y-54110211D01*
X130487151Y-54110217D01*
X130561809Y-54388844D01*
X130561814Y-54388860D01*
X130672191Y-54655336D01*
X130672199Y-54655352D01*
X130816420Y-54905148D01*
X130816431Y-54905164D01*
X130992024Y-55134002D01*
X130992030Y-55134009D01*
X131027579Y-55169558D01*
X131061064Y-55230881D01*
X131056080Y-55300573D01*
X131014208Y-55356506D01*
X130948744Y-55380923D01*
X130939898Y-55381239D01*
X129394931Y-55381239D01*
X129394915Y-55381238D01*
X129387319Y-55381238D01*
X129229204Y-55381238D01*
X129152840Y-55401700D01*
X129076475Y-55422162D01*
X129076470Y-55422165D01*
X128939551Y-55501214D01*
X128939543Y-55501220D01*
X128749481Y-55691282D01*
X128749480Y-55691284D01*
X128715607Y-55749954D01*
X128670423Y-55828215D01*
X128629499Y-55980943D01*
X128629499Y-55980945D01*
X128629499Y-56149046D01*
X128629500Y-56149059D01*
X128629500Y-57059191D01*
X128609815Y-57126230D01*
X128593181Y-57146872D01*
X128561923Y-57178129D01*
X128561917Y-57178137D01*
X128478255Y-57319603D01*
X128478254Y-57319606D01*
X128432402Y-57477426D01*
X128432401Y-57477432D01*
X128429500Y-57514298D01*
X126929573Y-57514298D01*
X130420077Y-51396471D01*
X130421644Y-51394519D01*
X130421992Y-51393231D01*
X130444500Y-51366051D01*
X130615751Y-51210839D01*
X130625138Y-51203134D01*
X130867577Y-51023330D01*
X130877670Y-51016587D01*
X131136548Y-50861421D01*
X131147257Y-50855697D01*
X131420120Y-50726642D01*
X131431335Y-50721997D01*
X131715507Y-50620319D01*
X131727124Y-50616794D01*
X132019901Y-50543458D01*
X132031832Y-50541084D01*
X132330371Y-50496800D01*
X132342471Y-50495608D01*
X132646947Y-50480651D01*
X132653116Y-50480502D01*
X136129941Y-50483011D01*
G37*
%TD.AperFunction*%
%TD*%
M02*
