%TF.GenerationSoftware,KiCad,Pcbnew,9.0.2*%
%TF.CreationDate,2026-07-30T05:10:02+01:00*%
%TF.ProjectId,fabrizio_project _sensorboard,66616272-697a-4696-9f5f-70726f6a6563,rev?*%
%TF.SameCoordinates,Original*%
%TF.FileFunction,Soldermask,Bot*%
%TF.FilePolarity,Negative*%
%FSLAX46Y46*%
G04 Gerber Fmt 4.6, Leading zero omitted, Abs format (unit mm)*
G04 Created by KiCad (PCBNEW 9.0.2) date 2026-07-30 05:10:02*
%MOMM*%
%LPD*%
G01*
G04 APERTURE LIST*
G04 Aperture macros list*
%AMRoundRect*
0 Rectangle with rounded corners*
0 $1 Rounding radius*
0 $2 $3 $4 $5 $6 $7 $8 $9 X,Y pos of 4 corners*
0 Add a 4 corners polygon primitive as box body*
4,1,4,$2,$3,$4,$5,$6,$7,$8,$9,$2,$3,0*
0 Add four circle primitives for the rounded corners*
1,1,$1+$1,$2,$3*
1,1,$1+$1,$4,$5*
1,1,$1+$1,$6,$7*
1,1,$1+$1,$8,$9*
0 Add four rect primitives between the rounded corners*
20,1,$1+$1,$2,$3,$4,$5,0*
20,1,$1+$1,$4,$5,$6,$7,0*
20,1,$1+$1,$6,$7,$8,$9,0*
20,1,$1+$1,$8,$9,$2,$3,0*%
%AMHorizOval*
0 Thick line with rounded ends*
0 $1 width*
0 $2 $3 position (X,Y) of the first rounded end (center of the circle)*
0 $4 $5 position (X,Y) of the second rounded end (center of the circle)*
0 Add line between two ends*
20,1,$1,$2,$3,$4,$5,0*
0 Add two circle primitives to create the rounded ends*
1,1,$1,$2,$3*
1,1,$1,$4,$5*%
%AMFreePoly0*
4,1,23,0.500000,-0.750000,0.000000,-0.750000,0.000000,-0.745722,-0.065263,-0.745722,-0.191342,-0.711940,-0.304381,-0.646677,-0.396677,-0.554381,-0.461940,-0.441342,-0.495722,-0.315263,-0.495722,-0.250000,-0.500000,-0.250000,-0.500000,0.250000,-0.495722,0.250000,-0.495722,0.315263,-0.461940,0.441342,-0.396677,0.554381,-0.304381,0.646677,-0.191342,0.711940,-0.065263,0.745722,0.000000,0.745722,
0.000000,0.750000,0.500000,0.750000,0.500000,-0.750000,0.500000,-0.750000,$1*%
%AMFreePoly1*
4,1,23,0.000000,0.745722,0.065263,0.745722,0.191342,0.711940,0.304381,0.646677,0.396677,0.554381,0.461940,0.441342,0.495722,0.315263,0.495722,0.250000,0.500000,0.250000,0.500000,-0.250000,0.495722,-0.250000,0.495722,-0.315263,0.461940,-0.441342,0.396677,-0.554381,0.304381,-0.646677,0.191342,-0.711940,0.065263,-0.745722,0.000000,-0.745722,0.000000,-0.750000,-0.500000,-0.750000,
-0.500000,0.750000,0.000000,0.750000,0.000000,0.745722,0.000000,0.745722,$1*%
G04 Aperture macros list end*
%ADD10FreePoly0,180.000000*%
%ADD11FreePoly1,180.000000*%
%ADD12FreePoly0,0.000000*%
%ADD13FreePoly1,0.000000*%
%ADD14RoundRect,0.250000X0.600000X0.725000X-0.600000X0.725000X-0.600000X-0.725000X0.600000X-0.725000X0*%
%ADD15O,1.700000X1.950000*%
%ADD16RoundRect,0.250000X-0.927868X0.157115X-0.327868X-0.882115X0.927868X-0.157115X0.327868X0.882115X0*%
%ADD17HorizOval,1.700000X-0.108253X-0.062500X0.108253X0.062500X0*%
%ADD18C,4.000000*%
%ADD19C,1.524000*%
%ADD20RoundRect,0.200000X-0.200000X-0.275000X0.200000X-0.275000X0.200000X0.275000X-0.200000X0.275000X0*%
%ADD21RoundRect,0.250000X-0.250000X-0.475000X0.250000X-0.475000X0.250000X0.475000X-0.250000X0.475000X0*%
%ADD22RoundRect,0.375000X0.625000X0.375000X-0.625000X0.375000X-0.625000X-0.375000X0.625000X-0.375000X0*%
%ADD23RoundRect,0.500000X0.500000X1.400000X-0.500000X1.400000X-0.500000X-1.400000X0.500000X-1.400000X0*%
%ADD24RoundRect,0.200000X0.200000X0.275000X-0.200000X0.275000X-0.200000X-0.275000X0.200000X-0.275000X0*%
G04 APERTURE END LIST*
%TO.C,JP1*%
G36*
X155820000Y-77130000D02*
G01*
X155520000Y-77130000D01*
X155520000Y-78630000D01*
X155820000Y-78630000D01*
X155820000Y-77130000D01*
G37*
%TO.C,JP2*%
G36*
X155625000Y-82375000D02*
G01*
X155925000Y-82375000D01*
X155925000Y-80875000D01*
X155625000Y-80875000D01*
X155625000Y-82375000D01*
G37*
%TD*%
D10*
%TO.C,JP1*%
X156320000Y-77880000D03*
D11*
X155020000Y-77880000D03*
%TD*%
D12*
%TO.C,JP2*%
X155125000Y-81625000D03*
D13*
X156425000Y-81625000D03*
%TD*%
D14*
%TO.C,J4*%
X176960000Y-95710000D03*
D15*
X174460000Y-95710000D03*
X171960000Y-95710000D03*
%TD*%
D16*
%TO.C,POWER_IN1*%
X171534664Y-72927373D03*
D17*
X172784664Y-75092437D03*
X174034664Y-77257500D03*
X175284664Y-79422564D03*
X176534664Y-81587627D03*
%TD*%
D18*
%TO.C,MQ1*%
X119492000Y-80278000D03*
X119492000Y-96534000D03*
X145146000Y-80278000D03*
X145146000Y-96534000D03*
D19*
X146240000Y-92150000D03*
X146240000Y-89610000D03*
X146240000Y-87070000D03*
X146240000Y-84530000D03*
%TD*%
%TO.C,MEMS_SMOKE1*%
X133565660Y-72690659D03*
X133565660Y-70150659D03*
X133565660Y-67610659D03*
%TD*%
%TO.C,BME1*%
X151850000Y-79060000D03*
X151850000Y-81600000D03*
X151850000Y-84140000D03*
X151850000Y-86680000D03*
X151850000Y-89220000D03*
X151850000Y-91760000D03*
X151850000Y-94300000D03*
%TD*%
D20*
%TO.C,R19*%
X142525000Y-86300000D03*
X140875000Y-86300000D03*
%TD*%
%TO.C,R22*%
X131355000Y-80740000D03*
X129705000Y-80740000D03*
%TD*%
D16*
%TO.C,ELECBEE1*%
X163174664Y-58487373D03*
D17*
X164424664Y-60652437D03*
X165674664Y-62817500D03*
X166924664Y-64982564D03*
X168174664Y-67147627D03*
%TD*%
D21*
%TO.C,C13*%
X129650000Y-91850000D03*
X127750000Y-91850000D03*
%TD*%
D22*
%TO.C,U6*%
X132150000Y-83362500D03*
X132150000Y-85662500D03*
D23*
X125850000Y-85662500D03*
D22*
X132150000Y-87962500D03*
%TD*%
D24*
%TO.C,R23*%
X156875000Y-86700000D03*
X155225000Y-86700000D03*
%TD*%
%TO.C,R18*%
X142515000Y-84520000D03*
X140865000Y-84520000D03*
%TD*%
%TO.C,R24*%
X156895000Y-91770000D03*
X155245000Y-91770000D03*
%TD*%
D20*
%TO.C,R21*%
X125910000Y-80760000D03*
X127560000Y-80760000D03*
%TD*%
M02*
