%TF.GenerationSoftware,KiCad,Pcbnew,9.0.2*%
%TF.CreationDate,2026-07-30T05:10:02+01:00*%
%TF.ProjectId,fabrizio_project _sensorboard,66616272-697a-4696-9f5f-70726f6a6563,rev?*%
%TF.SameCoordinates,Original*%
%TF.FileFunction,Soldermask,Top*%
%TF.FilePolarity,Negative*%
%FSLAX46Y46*%
G04 Gerber Fmt 4.6, Leading zero omitted, Abs format (unit mm)*
G04 Created by KiCad (PCBNEW 9.0.2) date 2026-07-30 05:10:02*
%MOMM*%
%LPD*%
G01*
G04 APERTURE LIST*
G04 Aperture macros list*
%AMRoundRect*
0 Rectangle with rounded corners*
0 $1 Rounding radius*
0 $2 $3 $4 $5 $6 $7 $8 $9 X,Y pos of 4 corners*
0 Add a 4 corners polygon primitive as box body*
4,1,4,$2,$3,$4,$5,$6,$7,$8,$9,$2,$3,0*
0 Add four circle primitives for the rounded corners*
1,1,$1+$1,$2,$3*
1,1,$1+$1,$4,$5*
1,1,$1+$1,$6,$7*
1,1,$1+$1,$8,$9*
0 Add four rect primitives between the rounded corners*
20,1,$1+$1,$2,$3,$4,$5,0*
20,1,$1+$1,$4,$5,$6,$7,0*
20,1,$1+$1,$6,$7,$8,$9,0*
20,1,$1+$1,$8,$9,$2,$3,0*%
%AMHorizOval*
0 Thick line with rounded ends*
0 $1 width*
0 $2 $3 position (X,Y) of the first rounded end (center of the circle)*
0 $4 $5 position (X,Y) of the second rounded end (center of the circle)*
0 Add line between two ends*
20,1,$1,$2,$3,$4,$5,0*
0 Add two circle primitives to create the rounded ends*
1,1,$1,$2,$3*
1,1,$1,$4,$5*%
G04 Aperture macros list end*
%ADD10RoundRect,0.250000X0.600000X0.725000X-0.600000X0.725000X-0.600000X-0.725000X0.600000X-0.725000X0*%
%ADD11O,1.700000X1.950000*%
%ADD12RoundRect,0.250000X-0.927868X0.157115X-0.327868X-0.882115X0.927868X-0.157115X0.327868X0.882115X0*%
%ADD13HorizOval,1.700000X-0.108253X-0.062500X0.108253X0.062500X0*%
%ADD14C,4.000000*%
%ADD15C,1.524000*%
%ADD16RoundRect,0.150000X-0.512500X-0.150000X0.512500X-0.150000X0.512500X0.150000X-0.512500X0.150000X0*%
%ADD17RoundRect,0.250000X0.250000X0.475000X-0.250000X0.475000X-0.250000X-0.475000X0.250000X-0.475000X0*%
%ADD18RoundRect,0.225000X0.250000X-0.225000X0.250000X0.225000X-0.250000X0.225000X-0.250000X-0.225000X0*%
%ADD19RoundRect,0.250000X0.475000X-0.250000X0.475000X0.250000X-0.475000X0.250000X-0.475000X-0.250000X0*%
%ADD20R,1.524000X1.524000*%
%ADD21RoundRect,0.475000X0.475000X1.275000X-0.475000X1.275000X-0.475000X-1.275000X0.475000X-1.275000X0*%
%ADD22RoundRect,0.200000X0.200000X1.550000X-0.200000X1.550000X-0.200000X-1.550000X0.200000X-1.550000X0*%
%ADD23RoundRect,0.175000X0.175000X1.575000X-0.175000X1.575000X-0.175000X-1.575000X0.175000X-1.575000X0*%
%ADD24RoundRect,0.225000X-0.225000X-0.625000X0.225000X-0.625000X0.225000X0.625000X-0.225000X0.625000X0*%
%ADD25RoundRect,0.150000X-0.150000X-0.475000X0.150000X-0.475000X0.150000X0.475000X-0.150000X0.475000X0*%
G04 APERTURE END LIST*
D10*
%TO.C,J4*%
X176960000Y-95710000D03*
D11*
X174460000Y-95710000D03*
X171960000Y-95710000D03*
%TD*%
D12*
%TO.C,POWER_IN1*%
X171534664Y-72927373D03*
D13*
X172784664Y-75092437D03*
X174034664Y-77257500D03*
X175284664Y-79422564D03*
X176534664Y-81587627D03*
%TD*%
D14*
%TO.C,MQ1*%
X119492000Y-80278000D03*
X119492000Y-96534000D03*
X145146000Y-80278000D03*
X145146000Y-96534000D03*
D15*
X146240000Y-92150000D03*
X146240000Y-89610000D03*
X146240000Y-87070000D03*
X146240000Y-84530000D03*
%TD*%
D16*
%TO.C,U12*%
X158800000Y-70525000D03*
X156525000Y-71475000D03*
X156525000Y-69575000D03*
%TD*%
D17*
%TO.C,C22*%
X158000000Y-67350000D03*
X156100000Y-67350000D03*
%TD*%
D18*
%TO.C,C25*%
X152325000Y-71475000D03*
X152325000Y-69925000D03*
%TD*%
D19*
%TO.C,C23*%
X154200000Y-71475000D03*
X154200000Y-69575000D03*
%TD*%
D15*
%TO.C,MEMS_SMOKE1*%
X133565660Y-72690659D03*
D20*
X134325660Y-72690659D03*
D15*
X133565660Y-70150659D03*
D20*
X134325660Y-70140659D03*
D15*
X133565660Y-67610659D03*
D20*
X134325660Y-67610659D03*
%TD*%
D15*
%TO.C,BME1*%
X151850000Y-79060000D03*
X151850000Y-81600000D03*
X151850000Y-84140000D03*
X151850000Y-86680000D03*
X151850000Y-89220000D03*
X151850000Y-91760000D03*
X151850000Y-94300000D03*
%TD*%
D21*
%TO.C,SENSOR_IN1*%
X137535000Y-52475000D03*
X155335000Y-52475000D03*
D22*
X139485000Y-62425000D03*
X140695000Y-62425000D03*
X153385000Y-62425000D03*
X152175000Y-62425000D03*
D23*
X142855000Y-62425000D03*
X143875000Y-62425000D03*
X144895000Y-62425000D03*
X145915000Y-62425000D03*
X146935000Y-62425000D03*
X147955000Y-62425000D03*
X148975000Y-62425000D03*
X149995000Y-62425000D03*
%TD*%
D12*
%TO.C,ELECBEE1*%
X163174664Y-58487373D03*
D13*
X164424664Y-60652437D03*
X165674664Y-62817500D03*
X166924664Y-64982564D03*
X168174664Y-67147627D03*
%TD*%
D24*
%TO.C,OPTICAL_SMOKE1*%
X134680000Y-61180000D03*
X127780000Y-61180000D03*
D25*
X133230000Y-58055000D03*
X132230000Y-58055000D03*
X131230000Y-58055000D03*
X130230000Y-58055000D03*
X129230000Y-58055000D03*
%TD*%
M02*
