0
SECTION
2
HEADER
9
$INSUNITS
70
4
9
$ACADVER
1
AC1014
9
$HANDSEED
5
FFFF
0
ENDSEC
0
SECTION
2
TABLES
0
TABLE
2
VPORT
5
8
100
AcDbSymbolTable
0
ENDTAB
0
TABLE
2
LTYPE
5
5
100
AcDbSymbolTable
0
LTYPE
5
14
100
AcDbSymbolTableRecord
100
AcDbLinetypeTableRecord
2
BYBLOCK
70
0
0
LTYPE
5
15
100
AcDbSymbolTableRecord
100
AcDbLinetypeTableRecord
2
BYLAYER
70
0
0
LTYPE
5
16
100
AcDbSymbolTableRecord
100
AcDbLinetypeTableRecord
2
DASHED
70
0
3
Dashed __ __ __ __ __ __ __ __ __ __ __ __ __ _
72
65
73
2
40
0.75
49
0.5
74
0
49
-0.25
74
0
0
ENDTAB
0
TABLE
2
LAYER
5
2
100
AcDbSymbolTable
70
2
0
LAYER
5
50
100
AcDbSymbolTableRecord
100
AcDbLayerTableRecord
2
0
70
0
62
7
6
CONTINUOUS
0
ENDTAB
0
TABLE
2
STYLE
5
3
100
AcDbSymbolTable
70
1
0
STYLE
5
11
100
AcDbSymbolTableRecord
100
AcDbTextStyleTableRecord
2
STANDARD
70
0
0
ENDTAB
0
TABLE
2
VIEW
5
6
100
AcDbSymbolTable
70
0
0
ENDTAB
0
TABLE
2
UCS
5
7
100
AcDbSymbolTable
70
0
0
ENDTAB
0
TABLE
2
APPID
5
9
100
AcDbSymbolTable
70
2
0
APPID
5
12
100
AcDbSymbolTableRecord
100
AcDbRegAppTableRecord
2
ACAD
70
0
0
ENDTAB
0
TABLE
2
DIMSTYLE
5
A
100
AcDbSymbolTable
70
1
0
ENDTAB
0
TABLE
2
BLOCK_RECORD
5
1
100
AcDbSymbolTable
70
1
0
BLOCK_RECORD
5
1F
100
AcDbSymbolTableRecord
100
AcDbBlockTableRecord
2
*MODEL_SPACE
0
BLOCK_RECORD
5
1B
100
AcDbSymbolTableRecord
100
AcDbBlockTableRecord
2
*PAPER_SPACE
0
ENDTAB
0
ENDSEC
0
SECTION
2
BLOCKS
0
BLOCK
5
20
100
AcDbEntity
100
AcDbBlockBegin
2
*MODEL_SPACE
0
ENDBLK
5
21
100
AcDbEntity
100
AcDbBlockEnd
0
BLOCK
5
1C
100
AcDbEntity
100
AcDbBlockBegin
2
*PAPER_SPACE
0
ENDBLK
5
1D
100
AcDbEntity
100
AcDbBlockEnd
0
ENDSEC
0
SECTION
2
ENTITIES
0
CIRCLE
5
100
100
AcDbEntity
8
0
100
AcDbCircle
10
-234.50000000001836
20
350.00000000001017
30
0
40
1.7500000000000071
210
0
220
0
230
1
0
LWPOLYLINE
5
101
100
AcDbEntity
8
0
100
AcDbPolyline
90
7
70
1
43
0.0
10
202.4999979138413
20
519.68802153518504
10
195.99999791384164
20
515.9352447854526
10
186.47371847221257
20
521.43524478545271
10
186.47371847221251
20
532.43524478545294
10
195.9999979138415
20
537.93524478545282
10
202.00087019133463
20
534.47063956066984
42
-0.050081675206233398
10
202.4999979138413
20
529.49999911293116
0
CIRCLE
5
102
100
AcDbEntity
8
0
100
AcDbCircle
10
-234.50000000001836
20
270.00000000001017
30
0
40
1.7500000000000071
210
0
220
0
230
1
0
CIRCLE
5
103
100
AcDbEntity
8
0
100
AcDbCircle
10
234.50000000001836
20
350.00000000001017
30
0
40
1.7500000000000071
210
0
220
0
230
1
0
CIRCLE
5
104
100
AcDbEntity
8
0
100
AcDbCircle
10
234.50000000001836
20
270.00000000001017
30
0
40
1.7500000000000071
210
0
220
0
230
1
0
LWPOLYLINE
5
105
100
AcDbEntity
8
0
100
AcDbPolyline
90
6
70
1
43
0.0
10
76.22371847221234
20
457.78237760729519
10
76.223718472212283
20
468.78237760729542
10
85.749997913841298
20
474.28237760729536
10
95.276277355470356
20
468.78237760729553
10
95.276277355470427
20
457.7823776072953
10
85.749997913841426
20
452.28237760729513
0
LWPOLYLINE
5
106
100
AcDbEntity
8
0
100
AcDbPolyline
90
6
70
1
43
0.0
10
-107.52628152778757
20
479.00000000001273
10
-107.52628152778766
20
490.00000000001296
10
-98.000002086158631
20
495.5000000000129
10
-88.473722644529573
20
490.00000000001307
10
-88.473722644529502
20
479.00000000001285
10
-98.000002086158503
20
473.50000000001268
0
LWPOLYLINE
5
107
100
AcDbEntity
8
0
100
AcDbPolyline
90
6
70
1
43
0.0
10
149.72371847221251
20
500.21762239273352
10
149.72371847221245
20
511.21762239273374
10
159.24999791384147
20
516.71762239273369
10
168.77627735547054
20
511.21762239273386
10
168.77627735547063
20
500.21762239273363
10
159.24999791384158
20
494.71762239273346
0
LWPOLYLINE
5
108
100
AcDbEntity
8
0
100
AcDbPolyline
90
6
70
1
43
0.0
10
-95.27628152778766
20
457.78237760729388
10
-95.276281527787731
20
468.78237760729411
10
-85.75000208615873
20
474.28237760729411
10
-76.223722644529644
20
468.78237760729428
10
-76.223722644529573
20
457.78237760729405
10
-85.750002086158588
20
452.28237760729382
0
LWPOLYLINE
5
109
100
AcDbEntity
8
0
100
AcDbPolyline
90
6
70
1
43
0.0
10
-119.77628152778765
20
457.78237760729371
10
-119.77628152778772
20
468.78237760729394
10
-110.2500020861587
20
474.28237760729388
10
-100.72372264452964
20
468.78237760729405
10
-100.72372264452957
20
457.78237760729382
10
-110.25000208615857
20
452.28237760729365
0
LWPOLYLINE
5
110
100
AcDbEntity
8
0
100
AcDbPolyline
90
6
70
1
43
0.0
10
63.973718472212575
20
521.43524478545169
10
63.973718472212511
20
532.43524478545191
10
73.499997913841526
20
537.93524478545191
10
83.026277355470597
20
532.43524478545214
10
83.026277355470654
20
521.43524478545191
10
73.499997913841653
20
515.93524478545169
0
LWPOLYLINE
5
111
100
AcDbEntity
8
0
100
AcDbPolyline
90
6
70
1
43
0.0
10
125.22371847221235
20
457.78237760729553
10
125.22371847221228
20
468.78237760729576
10
134.7499979138413
20
474.28237760729576
10
144.27627735547037
20
468.78237760729587
10
144.27627735547043
20
457.78237760729564
10
134.74999791384141
20
452.28237760729547
0
LWPOLYLINE
5
112
100
AcDbEntity
8
0
100
AcDbPolyline
90
6
70
1
43
0.0
10
112.97371847221228
20
436.56475521457656
10
112.97371847221221
20
447.56475521457679
10
122.49999791384124
20
453.06475521457679
10
132.02627735547028
20
447.56475521457696
10
132.02627735547037
20
436.56475521457673
10
122.49999791384136
20
431.06475521457651
0
LWPOLYLINE
5
113
100
AcDbEntity
8
0
100
AcDbPolyline
90
6
70
1
43
0.0
10
-144.27628152778749
20
500.2176223927313
10
-144.27628152778757
20
511.21762239273153
10
-134.75000208615856
20
516.71762239273153
10
-125.22372264452949
20
511.21762239273164
10
-125.22372264452942
20
500.21762239273141
10
-134.75000208615842
20
494.71762239273124
0
LWPOLYLINE
5
114
100
AcDbEntity
8
0
100
AcDbPolyline
90
6
70
1
43
0.0
10
76.223718472212497
20
500.21762239273295
10
76.22371847221244
20
511.21762239273318
10
85.749997913841455
20
516.71762239273312
10
95.276277355470512
20
511.21762239273329
10
95.276277355470583
20
500.21762239273306
10
85.749997913841582
20
494.71762239273289
0
LWPOLYLINE
5
115
100
AcDbEntity
8
0
100
AcDbPolyline
90
6
70
1
43
0.0
10
100.7237184722125
20
500.21762239273312
10
100.72371847221243
20
511.21762239273335
10
110.24999791384145
20
516.71762239273335
10
119.77627735547051
20
511.21762239273352
10
119.77627735547058
20
500.21762239273329
10
110.24999791384158
20
494.71762239273312
0
LWPOLYLINE
5
116
100
AcDbEntity
8
0
100
AcDbPolyline
90
6
70
1
43
0.0
10
174.22371847221251
20
500.21762239273363
10
174.22371847221243
20
511.21762239273386
10
183.74999791384141
20
516.7176223927338
10
193.27627735547051
20
511.21762239273403
10
193.27627735547057
20
500.2176223927338
10
183.74999791384155
20
494.71762239273357
0
LWPOLYLINE
5
117
100
AcDbEntity
8
0
100
AcDbPolyline
90
6
70
1
43
0.0
10
-58.526281527787738
20
436.56475521457531
10
-58.526281527787802
20
447.56475521457554
10
-49.000002086158787
20
453.06475521457548
10
-39.473722644529715
20
447.56475521457565
10
-39.473722644529651
20
436.56475521457543
10
-49.000002086158659
20
431.06475521457526
0
LWPOLYLINE
5
118
100
AcDbEntity
8
0
100
AcDbPolyline
90
6
70
1
43
0.0
10
-132.02628152778775
20
436.56475521457475
10
-132.0262815277878
20
447.56475521457497
10
-122.50000208615879
20
453.06475521457492
10
-112.97372264452973
20
447.56475521457509
10
-112.97372264452966
20
436.56475521457486
10
-122.50000208615866
20
431.06475521457469
0
LWPOLYLINE
5
119
100
AcDbEntity
8
0
100
AcDbPolyline
90
6
70
1
43
0.0
10
2.7237184722124974
20
500.21762239273238
10
2.7237184722124343
20
511.21762239273261
10
12.249997913841442
20
516.71762239273255
10
21.776277355470519
20
511.21762239273272
10
21.776277355470583
20
500.21762239273249
10
12.249997913841572
20
494.71762239273232
0
LWPOLYLINE
5
120
100
AcDbEntity
8
0
100
AcDbPolyline
90
6
70
1
43
0.0
10
-193.27628152778749
20
500.21762239273096
10
-193.27628152778757
20
511.21762239273119
10
-183.75000208615859
20
516.71762239273119
10
-174.22372264452949
20
511.2176223927313
10
-174.22372264452943
20
500.21762239273107
10
-183.75000208615845
20
494.7176223927309
0
LWPOLYLINE
5
121
100
AcDbEntity
8
0
100
AcDbPolyline
90
6
70
1
43
0.0
10
-9.5262815277874289
20
521.43524478545123
10
-9.526281527787491
20
532.43524478545146
10
-2.0861584826281643e-06
20
537.93524478545135
10
9.5262773554705955
20
532.43524478545157
10
9.5262773554706577
20
521.43524478545135
10
-2.0861583538422934e-06
20
515.93524478545112
0
LWPOLYLINE
5
122
100
AcDbEntity
8
0
100
AcDbPolyline
90
6
70
1
43
0.0
10
112.97371847221243
20
479.00000000001432
10
112.97371847221235
20
490.00000000001455
10
122.49999791384138
20
495.50000000001455
10
132.02627735547043
20
490.00000000001472
10
132.02627735547051
20
479.0000000000145
10
122.4999979138415
20
473.50000000001432
0
LWPOLYLINE
5
123
100
AcDbEntity
8
0
100
AcDbPolyline
90
6
70
1
43
0.0
10
27.223718472212347
20
457.78237760729485
10
27.223718472212287
20
468.78237760729507
10
36.749997913841298
20
474.28237760729502
10
46.27627735547037
20
468.78237760729519
10
46.276277355470434
20
457.78237760729496
10
36.749997913841426
20
452.28237760729479
0
LWPOLYLINE
5
124
100
AcDbEntity
8
0
100
AcDbPolyline
90
6
70
1
43
0.0
10
88.473718472212425
20
479.0000000000141
10
88.473718472212369
20
490.00000000001432
10
97.999997913841383
20
495.50000000001432
10
107.52627735547044
20
490.0000000000145
10
107.52627735547051
20
479.00000000001427
10
97.999997913841511
20
473.5000000000141
0
LWPOLYLINE
5
125
100
AcDbEntity
8
0
100
AcDbPolyline
90
6
70
1
43
0.0
10
63.973718472212269
20
436.56475521457622
10
63.973718472212212
20
447.56475521457645
10
73.499997913841227
20
453.06475521457639
10
83.026277355470285
20
447.56475521457662
10
83.026277355470356
20
436.56475521457639
10
73.499997913841355
20
431.06475521457617
0
LWPOLYLINE
5
126
100
AcDbEntity
8
0
100
AcDbPolyline
90
6
70
1
43
0.0
10
51.723718472212497
20
500.21762239273272
10
51.723718472212433
20
511.21762239273295
10
61.249997913841447
20
516.71762239273289
10
70.776277355470526
20
511.21762239273312
10
70.776277355470583
20
500.21762239273289
10
61.249997913841568
20
494.71762239273266
0
LWPOLYLINE
5
127
100
AcDbEntity
8
0
100
AcDbPolyline
90
6
70
1
43
0.0
10
-132.02628152778757
20
479.00000000001251
10
-132.02628152778766
20
490.00000000001273
10
-122.50000208615862
20
495.50000000001268
10
-112.97372264452957
20
490.00000000001285
10
-112.97372264452949
20
479.00000000001262
10
-122.5000020861585
20
473.50000000001245
0
LWPOLYLINE
5
128
100
AcDbEntity
8
0
100
AcDbPolyline
90
6
70
1
43
0.0
10
14.973718472212422
20
479.00000000001364
10
14.973718472212362
20
490.00000000001387
10
24.499997913841369
20
495.50000000001381
10
34.026277355470441
20
490.00000000001398
10
34.026277355470512
20
479.00000000001376
10
24.499997913841497
20
473.50000000001359
0
LWPOLYLINE
5
129
100
AcDbEntity
8
0
100
AcDbPolyline
90
6
70
1
43
0.0
10
-2.0861586336184956e-06
20
495.50000000001364
10
9.5262773554704445
20
490.00000000001376
10
9.5262773554705067
20
479.00000000001353
10
-2.0861585048326248e-06
20
473.50000000001336
10
-9.5262815277875781
20
479.00000000001342
10
-9.526281527787642
20
490.00000000001364
0
LWPOLYLINE
5
130
100
AcDbEntity
8
0
100
AcDbPolyline
90
6
70
1
43
0.0
10
-181.0262815277876
20
479.00000000001216
10
-181.02628152778766
20
490.00000000001239
10
-171.50000208615867
20
495.50000000001234
10
-161.97372264452957
20
490.00000000001251
10
-161.97372264452952
20
479.00000000001228
10
-171.50000208615853
20
473.50000000001211
0
LWPOLYLINE
5
131
100
AcDbEntity
8
0
100
AcDbPolyline
90
6
70
1
43
0.0
10
-181.02628152778775
20
436.56475521457435
10
-181.0262815277878
20
447.56475521457457
10
-171.50000208615882
20
453.06475521457457
10
-161.97372264452974
20
447.56475521457475
10
-161.97372264452966
20
436.56475521457452
10
-171.50000208615867
20
431.06475521457435
0
LWPOLYLINE
5
132
100
AcDbEntity
8
0
100
AcDbPolyline
90
6
70
1
43
0.0
10
-156.52628152778757
20
479.00000000001234
10
-156.52628152778766
20
490.00000000001256
10
-147.00000208615864
20
495.50000000001256
10
-137.47372264452957
20
490.00000000001273
10
-137.47372264452952
20
479.00000000001251
10
-147.0000020861585
20
473.50000000001228
0
LWPOLYLINE
5
133
100
AcDbEntity
8
0
100
AcDbPolyline
90
6
70
1
43
0.0
10
63.973718472212425
20
479.00000000001398
10
63.973718472212362
20
490.00000000001421
10
73.499997913841369
20
495.50000000001421
10
83.026277355470455
20
490.00000000001432
10
83.026277355470498
20
479.0000000000141
10
73.499997913841497
20
473.50000000001393
0
LWPOLYLINE
5
134
100
AcDbEntity
8
0
100
AcDbPolyline
90
6
70
1
43
0.0
10
-21.776281527787503
20
500.21762239273221
10
-21.776281527787567
20
511.21762239273244
10
-12.250002086158558
20
516.71762239273244
10
-2.7237226445294818
20
511.21762239273261
10
-2.7237226445294196
20
500.21762239273238
10
-12.250002086158428
20
494.71762239273221
0
LWPOLYLINE
5
135
100
AcDbEntity
8
0
100
AcDbPolyline
90
6
70
1
43
0.0
10
-107.52628152778772
20
436.56475521457492
10
-107.5262815277878
20
447.56475521457514
10
-98.000002086158773
20
453.06475521457514
10
-88.473722644529715
20
447.56475521457531
10
-88.473722644529644
20
436.56475521457509
10
-98.000002086158645
20
431.06475521457492
0
LWPOLYLINE
5
136
100
AcDbEntity
8
0
100
AcDbPolyline
90
6
70
1
43
0.0
10
100.72371847221235
20
457.78237760729542
10
100.72371847221228
20
468.78237760729564
10
110.24999791384131
20
474.28237760729559
10
119.77627735547037
20
468.78237760729576
10
119.77627735547044
20
457.78237760729553
10
110.24999791384144
20
452.28237760729536
0
LWPOLYLINE
5
137
100
AcDbEntity
8
0
100
AcDbPolyline
90
6
70
1
43
0.0
10
39.473718472212575
20
521.43524478545157
10
39.473718472212511
20
532.4352447854518
10
48.999997913841526
20
537.93524478545169
10
58.526277355470597
20
532.43524478545191
10
58.526277355470661
20
521.43524478545169
10
48.999997913841646
20
515.93524478545146
0
LWPOLYLINE
5
138
100
AcDbEntity
8
0
100
AcDbPolyline
90
6
70
1
43
0.0
10
112.97371847221258
20
521.43524478545214
10
112.97371847221251
20
532.43524478545237
10
122.49999791384154
20
537.93524478545226
10
132.0262773554706
20
532.43524478545248
10
132.02627735547065
20
521.43524478545226
10
122.49999791384167
20
515.93524478545203
0
LWPOLYLINE
5
139
100
AcDbEntity
8
0
100
AcDbPolyline
90
6
70
1
43
0.0
10
14.973718472212575
20
521.43524478545135
10
14.973718472212511
20
532.43524478545157
10
24.499997913841518
20
537.93524478545157
10
34.026277355470597
20
532.4352447854518
10
34.026277355470661
20
521.43524478545157
10
24.49999791384165
20
515.93524478545135
0
LWPOLYLINE
5
140
100
AcDbEntity
8
0
100
AcDbPolyline
90
6
70
1
43
0.0
10
39.473718472212425
20
479.00000000001376
10
39.473718472212362
20
490.00000000001398
10
48.999997913841369
20
495.50000000001398
10
58.526277355470448
20
490.00000000001415
10
58.526277355470512
20
479.00000000001393
10
48.999997913841497
20
473.50000000001376
0
LWPOLYLINE
5
141
100
AcDbEntity
8
0
100
AcDbPolyline
90
6
70
1
43
0.0
10
-144.27628152778766
20
457.78237760729354
10
-144.27628152778772
20
468.78237760729377
10
-134.7500020861587
20
474.28237760729371
10
-125.22372264452966
20
468.78237760729394
10
-125.22372264452957
20
457.78237760729371
10
-134.75000208615859
20
452.28237760729348
0
LWPOLYLINE
5
142
100
AcDbEntity
8
0
100
AcDbPolyline
90
6
70
1
43
0.0
10
27.2237184722125
20
500.21762239273255
10
27.223718472212436
20
511.21762239273278
10
36.749997913841447
20
516.71762239273278
10
46.276277355470519
20
511.21762239273295
10
46.276277355470583
20
500.21762239273272
10
36.749997913841575
20
494.71762239273255
0
LWPOLYLINE
5
143
100
AcDbEntity
8
0
100
AcDbPolyline
90
6
70
1
43
0.0
10
88.473718472212283
20
436.56475521457639
10
88.473718472212227
20
447.56475521457662
10
97.999997913841241
20
453.06475521457656
10
107.5262773554703
20
447.56475521457673
10
107.52627735547037
20
436.56475521457651
10
97.999997913841369
20
431.06475521457634
0
LWPOLYLINE
5
144
100
AcDbEntity
8
0
100
AcDbPolyline
90
6
70
1
43
0.0
10
161.97371847221245
20
479.00000000001467
10
161.97371847221237
20
490.00000000001489
10
171.49999791384136
20
495.50000000001489
10
181.02627735547046
20
490.00000000001506
10
181.02627735547054
20
479.00000000001484
10
171.4999979138415
20
473.50000000001467
0
LWPOLYLINE
5
145
100
AcDbEntity
8
0
100
AcDbPolyline
90
6
70
1
43
0.0
10
125.22371847221251
20
500.21762239273329
10
125.22371847221244
20
511.21762239273352
10
134.74999791384147
20
516.71762239273346
10
144.27627735547051
20
511.21762239273369
10
144.2762773554706
20
500.21762239273346
10
134.74999791384158
20
494.71762239273323
0
LWPOLYLINE
5
146
100
AcDbEntity
8
0
100
AcDbPolyline
90
6
70
1
43
0.0
10
-181.02628152778743
20
521.43524478544987
10
-181.02628152778749
20
532.4352447854501
10
-171.5000020861585
20
537.9352447854501
10
-161.9737226445294
20
532.43524478545032
10
-161.97372264452935
20
521.4352447854501
10
-171.50000208615836
20
515.93524478544987
0
LWPOLYLINE
5
147
100
AcDbEntity
8
0
100
AcDbPolyline
90
6
70
1
43
0.0
10
-70.77628152778766
20
457.78237760729411
10
-70.776281527787731
20
468.78237760729434
10
-61.250002086158716
20
474.28237760729428
10
-51.723722644529637
20
468.78237760729451
10
-51.723722644529573
20
457.78237760729428
10
-61.250002086158588
20
452.28237760729405
0
LWPOLYLINE
5
148
100
AcDbEntity
8
0
100
AcDbPolyline
90
6
70
1
43
0.0
10
-83.026281527787575
20
479.00000000001285
10
-83.026281527787646
20
490.00000000001307
10
-73.500002086158645
20
495.50000000001307
10
-63.973722644529559
20
490.00000000001319
10
-63.973722644529502
20
479.00000000001296
10
-73.500002086158517
20
473.50000000001279
0
LWPOLYLINE
5
149
100
AcDbEntity
8
0
100
AcDbPolyline
90
6
70
1
43
0.0
10
161.9737184722126
20
521.43524478545248
10
161.97371847221251
20
532.43524478545271
10
171.4999979138415
20
537.9352447854526
10
181.0262773554706
20
532.43524478545282
10
181.02627735547065
20
521.4352447854526
10
171.49999791384164
20
515.93524478545237
0
LWPOLYLINE
5
150
100
AcDbEntity
8
0
100
AcDbPolyline
90
6
70
1
43
0.0
10
137.47371847221243
20
479.0000000000145
10
137.47371847221237
20
490.00000000001472
10
146.99999791384138
20
495.50000000001467
10
156.52627735547046
20
490.00000000001484
10
156.52627735547051
20
479.00000000001461
10
146.99999791384153
20
473.50000000001444
0
LWPOLYLINE
5
151
100
AcDbEntity
8
0
100
AcDbPolyline
90
6
70
1
43
0.0
10
-83.026281527787432
20
521.43524478545055
10
-83.026281527787503
20
532.43524478545078
10
-73.500002086158489
20
537.93524478545078
10
-63.97372264452941
20
532.435244785451
10
-63.973722644529346
20
521.43524478545078
10
-73.500002086158361
20
515.93524478545055
0
LWPOLYLINE
5
152
100
AcDbEntity
8
0
100
AcDbPolyline
90
6
70
1
43
0.0
10
-9.5262815277877309
20
436.56475521457565
10
-9.526281527787793
20
447.56475521457588
10
-2.086158784608827e-06
20
453.06475521457583
10
9.5262773554702935
20
447.56475521457605
10
9.5262773554703557
20
436.56475521457583
10
-2.0861586558229561e-06
20
431.0647552145756
0
LWPOLYLINE
5
153
100
AcDbEntity
8
0
100
AcDbPolyline
90
6
70
1
43
0.0
10
137.47371847221228
20
436.56475521457673
10
137.4737184722122
20
447.56475521457696
10
146.99999791384124
20
453.06475521457691
10
156.52627735547028
20
447.56475521457708
10
156.52627735547037
20
436.56475521457685
10
146.99999791384136
20
431.06475521457668
0
LWPOLYLINE
5
154
100
AcDbEntity
8
0
100
AcDbPolyline
90
6
70
1
43
0.0
10
174.22371847221234
20
457.78237760729587
10
174.22371847221228
20
468.7823776072961
10
183.74999791384127
20
474.2823776072961
10
193.27627735547037
20
468.78237760729627
10
193.27627735547043
20
457.78237760729604
10
183.74999791384141
20
452.28237760729587
0
LWPOLYLINE
5
155
100
AcDbEntity
8
0
100
AcDbPolyline
90
6
70
1
43
0.0
10
-34.026281527787582
20
479.00000000001319
10
-34.026281527787646
20
490.00000000001342
10
-24.500002086158634
20
495.50000000001342
10
-14.973722644529559
20
490.00000000001359
10
-14.973722644529492
20
479.00000000001336
10
-24.500002086158506
20
473.50000000001319
0
LWPOLYLINE
5
156
100
AcDbEntity
8
0
100
AcDbPolyline
90
6
70
1
43
0.0
10
149.72371847221237
20
457.78237760729576
10
149.72371847221228
20
468.78237760729598
10
159.2499979138413
20
474.28237760729593
10
168.77627735547037
20
468.7823776072961
10
168.77627735547043
20
457.78237760729587
10
159.24999791384144
20
452.2823776072957
0
LWPOLYLINE
5
157
100
AcDbEntity
8
0
100
AcDbPolyline
90
6
70
1
43
0.0
10
-58.526281527787432
20
521.43524478545078
10
-58.526281527787496
20
532.435244785451
10
-49.000002086158489
20
537.935244785451
10
-39.47372264452941
20
532.43524478545123
10
-39.473722644529346
20
521.435244785451
10
-49.000002086158361
20
515.93524478545078
0
LWPOLYLINE
5
158
100
AcDbEntity
8
0
100
AcDbPolyline
90
6
70
1
43
0.0
10
-58.526281527787589
20
479.00000000001307
10
-58.526281527787646
20
490.0000000000133
10
-49.000002086158638
20
495.50000000001324
10
-39.473722644529559
20
490.00000000001342
10
-39.473722644529502
20
479.00000000001319
10
-49.000002086158503
20
473.50000000001302
0
LWPOLYLINE
5
159
100
AcDbEntity
8
0
100
AcDbPolyline
90
6
70
1
43
0.0
10
14.973718472212273
20
436.56475521457588
10
14.973718472212209
20
447.56475521457611
10
24.49999791384122
20
453.06475521457605
10
34.026277355470292
20
447.56475521457622
10
34.026277355470363
20
436.56475521457594
10
24.499997913841348
20
431.06475521457583
0
LWPOLYLINE
5
160
100
AcDbEntity
8
0
100
AcDbPolyline
90
6
70
1
43
0.0
10
-46.27628152778766
20
457.78237760729428
10
-46.276281527787724
20
468.78237760729451
10
-36.750002086158709
20
474.28237760729445
10
-27.223722644529637
20
468.78237760729462
10
-27.22372264452957
20
457.78237760729439
10
-36.750002086158574
20
452.28237760729422
0
LWPOLYLINE
5
161
100
AcDbEntity
8
0
100
AcDbPolyline
90
6
70
1
43
0.0
10
-21.776281527787656
20
457.78237760729445
10
-21.776281527787717
20
468.78237760729468
10
-12.250002086158709
20
474.28237760729468
10
-2.7237226445296328
20
468.78237760729485
10
-2.7237226445295706
20
457.78237760729462
10
-12.250002086158581
20
452.28237760729439
0
LWPOLYLINE
5
162
100
AcDbEntity
8
0
100
AcDbPolyline
90
6
70
1
43
0.0
10
-107.52628152778743
20
521.43524478545044
10
-107.52628152778752
20
532.43524478545066
10
-98.000002086158489
20
537.93524478545066
10
-88.473722644529431
20
532.43524478545078
10
-88.47372264452936
20
521.43524478545055
10
-98.000002086158361
20
515.93524478545044
0
LWPOLYLINE
5
163
100
AcDbEntity
8
0
100
AcDbPolyline
90
6
70
1
43
0.0
10
-156.52628152778743
20
521.4352447854501
10
-156.52628152778749
20
532.43524478545032
10
-147.00000208615847
20
537.93524478545032
10
-137.4737226445294
20
532.43524478545044
10
-137.47372264452935
20
521.43524478545021
10
-147.00000208615836
20
515.9352447854501
0
LWPOLYLINE
5
164
100
AcDbEntity
8
0
100
AcDbPolyline
90
6
70
1
43
0.0
10
-46.276281527787511
20
500.21762239273198
10
-46.276281527787575
20
511.21762239273221
10
-36.75000208615856
20
516.71762239273221
10
-27.223722644529484
20
511.21762239273238
10
-27.223722644529417
20
500.21762239273215
10
-36.750002086158432
20
494.71762239273198
0
LWPOLYLINE
5
165
100
AcDbEntity
8
0
100
AcDbPolyline
90
6
70
1
43
0.0
10
-95.276281527787489
20
500.21762239273164
10
-95.276281527787575
20
511.21762239273187
10
-85.75000208615856
20
516.71762239273187
10
-76.223722644529474
20
511.21762239273204
10
-76.223722644529403
20
500.21762239273181
10
-85.750002086158418
20
494.71762239273164
0
LWPOLYLINE
5
166
100
AcDbEntity
8
0
100
AcDbPolyline
90
6
70
1
43
0.0
10
2.7237184722123464
20
457.78237760729462
10
2.7237184722122834
20
468.78237760729485
10
12.249997913841291
20
474.28237760729479
10
21.77627735547037
20
468.78237760729496
10
21.77627735547043
20
457.78237760729473
10
12.249997913841423
20
452.28237760729456
0
LWPOLYLINE
5
167
100
AcDbEntity
8
0
100
AcDbPolyline
90
6
70
1
43
0.0
10
-168.77628152778766
20
457.78237760729331
10
-168.77628152778772
20
468.78237760729354
10
-159.25000208615873
20
474.28237760729354
10
-149.72372264452966
20
468.78237760729371
10
-149.7237226445296
20
457.78237760729348
10
-159.25000208615862
20
452.28237760729326
0
LWPOLYLINE
5
168
100
AcDbEntity
8
0
100
AcDbPolyline
90
6
70
1
43
0.0
10
88.473718472212568
20
521.43524478545191
10
88.473718472212511
20
532.43524478545214
10
97.999997913841526
20
537.93524478545214
10
107.52627735547058
20
532.43524478545226
10
107.52627735547065
20
521.43524478545203
10
97.999997913841653
20
515.9352447854518
0
LWPOLYLINE
5
169
100
AcDbEntity
8
0
100
AcDbPolyline
90
6
70
1
43
0.0
10
137.4737184722126
20
521.43524478545226
10
137.47371847221251
20
532.43524478545248
10
146.99999791384155
20
537.93524478545248
10
156.5262773554706
20
532.4352447854526
10
156.52627735547068
20
521.43524478545248
10
146.99999791384167
20
515.93524478545214
0
LWPOLYLINE
5
170
100
AcDbEntity
8
0
100
AcDbPolyline
90
6
70
1
43
0.0
10
161.97371847221228
20
436.56475521457696
10
161.9737184722122
20
447.56475521457719
10
171.49999791384118
20
453.06475521457713
10
181.02627735547028
20
447.5647552145773
10
181.02627735547034
20
436.56475521457708
10
171.49999791384133
20
431.06475521457691
0
LWPOLYLINE
5
171
100
AcDbEntity
8
0
100
AcDbPolyline
90
6
70
1
43
0.0
10
39.473718472212276
20
436.564755214576
10
39.473718472212212
20
447.56475521457622
10
48.99999791384122
20
453.06475521457622
10
58.526277355470299
20
447.56475521457639
10
58.526277355470356
20
436.56475521457617
10
48.999997913841341
20
431.06475521457594
0
LWPOLYLINE
5
172
100
AcDbEntity
8
0
100
AcDbPolyline
90
6
70
1
43
0.0
10
-83.026281527787731
20
436.56475521457509
10
-83.026281527787802
20
447.56475521457531
10
-73.500002086158787
20
453.06475521457526
10
-63.973722644529715
20
447.56475521457548
10
-63.973722644529651
20
436.56475521457526
10
-73.500002086158659
20
431.06475521457503
0
LWPOLYLINE
5
173
100
AcDbEntity
8
0
100
AcDbPolyline
90
6
70
1
43
0.0
10
-119.7762815277875
20
500.21762239273141
10
-119.77628152778757
20
511.21762239273164
10
-110.25000208615856
20
516.71762239273164
10
-100.7237226445295
20
511.21762239273181
10
-100.72372264452943
20
500.21762239273158
10
-110.25000208615843
20
494.71762239273141
0
LWPOLYLINE
5
174
100
AcDbEntity
8
0
100
AcDbPolyline
90
6
70
1
43
0.0
10
-34.026281527787432
20
521.435244785451
10
-34.026281527787489
20
532.43524478545123
10
-24.500002086158482
20
537.93524478545112
10
-14.973722644529408
20
532.43524478545135
10
-14.973722644529342
20
521.43524478545123
10
-24.500002086158354
20
515.93524478545089
0
LWPOLYLINE
5
175
100
AcDbEntity
8
0
100
AcDbPolyline
90
6
70
1
43
0.0
10
-132.02628152778743
20
521.43524478545021
10
-132.02628152778749
20
532.43524478545044
10
-122.50000208615847
20
537.93524478545044
10
-112.97372264452943
20
532.43524478545066
10
-112.97372264452935
20
521.43524478545044
10
-122.50000208615836
20
515.93524478545021
0
LWPOLYLINE
5
176
100
AcDbEntity
8
0
100
AcDbPolyline
90
6
70
1
43
0.0
10
51.723718472212347
20
457.78237760729496
10
51.723718472212283
20
468.78237760729519
10
61.249997913841298
20
474.28237760729519
10
70.77627735547037
20
468.7823776072953
10
70.776277355470427
20
457.78237760729507
10
61.249997913841426
20
452.2823776072949
0
LWPOLYLINE
5
177
100
AcDbEntity
8
0
100
AcDbPolyline
90
6
70
1
43
0.0
10
-70.776281527787518
20
500.21762239273187
10
-70.776281527787575
20
511.2176223927321
10
-61.25000208615856
20
516.7176223927321
10
-51.723722644529488
20
511.21762239273221
10
-51.723722644529424
20
500.21762239273198
10
-61.250002086158432
20
494.71762239273181
0
LWPOLYLINE
5
178
100
AcDbEntity
8
0
100
AcDbPolyline
90
6
70
1
43
0.0
10
-168.77628152778752
20
500.21762239273107
10
-168.77628152778757
20
511.2176223927313
10
-159.25000208615856
20
516.7176223927313
10
-149.72372264452952
20
511.21762239273147
10
-149.72372264452943
20
500.21762239273124
10
-159.25000208615845
20
494.71762239273107
0
LWPOLYLINE
5
179
100
AcDbEntity
8
0
100
AcDbPolyline
90
6
70
1
43
0.0
10
-193.27628152778766
20
457.7823776072932
10
-193.27628152778772
20
468.78237760729343
10
-183.75000208615873
20
474.28237760729337
10
-174.22372264452963
20
468.78237760729354
10
-174.22372264452957
20
457.78237760729331
10
-183.75000208615859
20
452.28237760729314
0
LWPOLYLINE
5
180
100
AcDbEntity
8
0
100
AcDbPolyline
90
6
70
1
43
0.0
10
-156.52628152778775
20
436.56475521457457
10
-156.52628152778783
20
447.5647552145748
10
-147.00000208615879
20
453.0647552145748
10
-137.47372264452974
20
447.56475521457497
10
-137.47372264452966
20
436.56475521457469
10
-147.00000208615867
20
431.06475521457457
0
LWPOLYLINE
5
181
100
AcDbEntity
8
0
100
AcDbPolyline
90
6
70
1
43
0.0
10
-34.026281527787731
20
436.56475521457543
10
-34.026281527787795
20
447.56475521457565
10
-24.500002086158787
20
453.06475521457565
10
-14.97372264452971
20
447.56475521457583
10
-14.973722644529644
20
436.5647552145756
10
-24.500002086158656
20
431.06475521457537
0
LWPOLYLINE
5
182
100
AcDbEntity
8
0
100
AcDbPolyline
90
4
70
1
43
0.0
10
202.4999979138413
20
498.03738644057427
10
198.72371847221251
20
500.21762239273386
10
198.72371847221245
20
511.21762239273409
10
202.4999979138413
20
513.39785834489373
0
LWPOLYLINE
5
183
100
AcDbEntity
8
0
100
AcDbPolyline
90
6
70
1
43
0.0
10
202.4999979138413
20
477.25277674974734
10
195.9999979138415
20
473.50000000001489
10
186.47371847221245
20
479.00000000001489
10
186.47371847221237
20
490.00000000001512
10
195.99999791384136
20
495.50000000001512
10
202.4999979138413
20
491.74722325028279
0
LWPOLYLINE
5
184
100
AcDbEntity
8
0
100
AcDbPolyline
90
4
70
1
43
0.0
10
202.4999979138413
20
455.60214165513639
10
198.7237184722124
20
457.7823776072961
10
198.72371847221231
20
468.78237760729633
10
202.4999979138413
20
470.96261355945603
0
LWPOLYLINE
5
185
100
AcDbEntity
8
0
100
AcDbPolyline
90
7
70
1
43
0.0
10
202.00087019133522
20
434.52936043936074
10
195.99999791384136
20
431.06475521457708
10
186.47371847221228
20
436.56475521457713
10
186.47371847221223
20
447.56475521457736
10
195.99999791384121
20
453.06475521457736
10
202.4999979138413
20
449.31197846484497
10
202.49999791384127
20
439.50000000001359
42
-0.050081666313119347
0
LWPOLYLINE
5
186
100
AcDbEntity
8
0
100
AcDbPolyline
90
3
70
1
43
0.0
10
198.72371847221217
20
426.28812331045185
10
198.72371847221217
20
426.34713282185857
10
198.78063197669661
20
426.37999184899309
42
-0.0010806943439823698
0
LWPOLYLINE
5
187
100
AcDbEntity
8
0
100
AcDbPolyline
90
7
70
1
43
0.0
10
175.69099556040609
20
414.50000000001359
10
174.22371847221223
20
415.34713282185811
10
174.22371847221214
20
426.34713282185834
10
183.74999791384113
20
431.84713282185834
10
193.27627735547023
20
426.34713282185851
10
193.27627735547065
20
420.1064699711701
42
-0.1724052160999717
10
177.4999979138413
20
414.50000000001359
0
LWPOLYLINE
5
188
100
AcDbEntity
8
0
100
AcDbPolyline
90
7
70
1
43
0.0
10
151.19099556040592
20
414.50000000001359
10
149.7237184722122
20
415.347132821858
10
149.72371847221214
20
426.34713282185822
10
159.24999791384116
20
431.84713282185817
10
168.77627735547023
20
426.34713282185834
10
168.77627735547031
20
415.34713282185805
10
167.30900026727656
20
414.50000000001359
0
LWPOLYLINE
5
189
100
AcDbEntity
8
0
100
AcDbPolyline
90
7
70
1
43
0.0
10
126.69099556040553
20
414.50000000001359
10
125.22371847221221
20
415.34713282185777
10
125.22371847221214
20
426.347132821858
10
134.74999791384116
20
431.84713282185794
10
144.27627735547023
20
426.34713282185817
10
144.27627735547028
20
415.34713282185794
10
142.80900026727676
20
414.50000000001359
0
LWPOLYLINE
5
190
100
AcDbEntity
8
0
100
AcDbPolyline
90
7
70
1
43
0.0
10
102.19099556040518
20
414.50000000001359
10
100.7237184722122
20
415.34713282185754
10
100.72371847221213
20
426.34713282185777
10
110.24999791384116
20
431.84713282185777
10
119.7762773554702
20
426.34713282185794
10
119.77627735547028
20
415.34713282185771
10
118.30900026727716
20
414.50000000001359
0
LWPOLYLINE
5
191
100
AcDbEntity
8
0
100
AcDbPolyline
90
7
70
1
43
0.0
10
77.690995560404929
20
414.50000000001359
10
76.223718472212198
20
415.34713282185743
10
76.223718472212141
20
426.34713282185766
10
85.749997913841156
20
431.8471328218576
10
95.276277355470214
20
426.34713282185777
10
95.276277355470285
20
415.34713282185754
10
93.809000267277369
20
414.50000000001359
0
LWPOLYLINE
5
192
100
AcDbEntity
8
0
100
AcDbPolyline
90
7
70
1
43
0.0
10
53.190995560404524
20
414.50000000001359
10
51.723718472212198
20
415.3471328218572
10
51.723718472212134
20
426.34713282185743
10
61.249997913841142
20
431.84713282185737
10
70.776277355470228
20
426.3471328218576
10
70.776277355470285
20
415.34713282185737
10
69.309000267277767
20
414.50000000001359
0
LWPOLYLINE
5
193
100
AcDbEntity
8
0
100
AcDbPolyline
90
7
70
1
43
0.0
10
28.690995560404282
20
414.50000000001359
10
27.223718472212198
20
415.34713282185703
10
27.223718472212134
20
426.34713282185726
10
36.749997913841142
20
431.84713282185726
10
46.276277355470221
20
426.34713282185743
10
46.276277355470285
20
415.3471328218572
10
44.809000267278016
20
414.50000000001359
0
LWPOLYLINE
5
194
100
AcDbEntity
8
0
100
AcDbPolyline
90
7
70
1
43
0.0
10
4.1909955604039038
20
414.50000000001359
10
2.7237184722121954
20
415.34713282185686
10
2.7237184722121324
20
426.34713282185709
10
12.24999791384114
20
431.84713282185703
10
21.776277355470217
20
426.3471328218572
10
21.776277355470278
20
415.34713282185697
10
20.30900026727835
20
414.50000000001359
0
LWPOLYLINE
5
195
100
AcDbEntity
8
0
100
AcDbPolyline
90
7
70
1
43
0.0
10
-20.30900443959634
20
414.50000000001359
10
-21.776281527787805
20
415.34713282185669
10
-21.776281527787869
20
426.34713282185692
10
-12.25000208615886
20
431.84713282185692
10
-2.7237226445297837
20
426.34713282185709
10
-2.7237226445297216
20
415.3471328218568
10
-4.19099973272131
20
414.50000000001359
0
LWPOLYLINE
5
196
100
AcDbEntity
8
0
100
AcDbPolyline
90
7
70
1
43
0.0
10
-44.809004439596706
20
414.50000000001359
10
-46.276281527787816
20
415.34713282185646
10
-46.276281527787873
20
426.34713282185669
10
-36.750002086158858
20
431.84713282185669
10
-27.223722644529786
20
426.34713282185686
10
-27.223722644529719
20
415.34713282185663
10
-28.690999732721032
20
414.50000000001359
0
LWPOLYLINE
5
197
100
AcDbEntity
8
0
100
AcDbPolyline
90
7
70
1
43
0.0
10
-69.309004439597075
20
414.50000000001359
10
-70.776281527787816
20
415.34713282185629
10
-70.776281527787873
20
426.34713282185652
10
-61.250002086158865
20
431.84713282185646
10
-51.723722644529786
20
426.34713282185663
10
-51.72372264452973
20
415.34713282185641
10
-53.190999732720655
20
414.50000000001359
0
LWPOLYLINE
5
198
100
AcDbEntity
8
0
100
AcDbPolyline
90
7
70
1
43
0.0
10
-93.809004439597317
20
414.50000000001359
10
-95.276281527787802
20
415.34713282185612
10
-95.276281527787873
20
426.34713282185635
10
-85.750002086158872
20
431.84713282185635
10
-76.223722644529786
20
426.34713282185652
10
-76.223722644529715
20
415.34713282185629
10
-77.690999732720414
20
414.50000000001359
0
LWPOLYLINE
5
199
100
AcDbEntity
8
0
100
AcDbPolyline
90
7
70
1
43
0.0
10
-118.30900443959769
20
414.50000000001359
10
-119.7762815277878
20
415.34713282185589
10
-119.77628152778789
20
426.34713282185612
10
-110.25000208615886
20
431.84713282185612
10
-100.7237226445298
20
426.34713282185629
10
-100.72372264452973
20
415.34713282185606
10
-102.19099973272003
20
414.50000000001359
0
LWPOLYLINE
5
200
100
AcDbEntity
8
0
100
AcDbPolyline
90
7
70
1
43
0.0
10
-142.80900443959794
20
414.50000000001359
10
-144.27628152778783
20
415.34713282185578
10
-144.27628152778789
20
426.34713282185601
10
-134.75000208615887
20
431.84713282185601
10
-125.22372264452981
20
426.34713282185612
10
-125.22372264452974
20
415.34713282185589
10
-126.69099973271982
20
414.50000000001359
0
LWPOLYLINE
5
201
100
AcDbEntity
8
0
100
AcDbPolyline
90
7
70
1
43
0.0
10
-167.30900443959831
20
414.50000000001359
10
-168.7762815277878
20
415.34713282185555
10
-168.77628152778786
20
426.34713282185578
10
-159.25000208615887
20
431.84713282185578
10
-149.7237226445298
20
426.34713282185595
10
-149.72372264452974
20
415.34713282185572
10
-151.19099973271943
20
414.50000000001359
0
LWPOLYLINE
5
202
100
AcDbEntity
8
0
100
AcDbPolyline
90
7
70
1
43
0.0
10
-193.27628152778783
20
420.10646997117072
10
-193.27628152778786
20
426.34713282185567
10
-183.75000208615887
20
431.84713282185561
10
-174.22372264452977
20
426.34713282185578
10
-174.22372264452972
20
415.3471328218555
10
-175.69099973271904
20
414.50000000001359
10
-177.5000020861587
20
414.50000000001359
42
-0.17240521609997261
0
LWPOLYLINE
5
203
100
AcDbEntity
8
0
100
AcDbPolyline
90
3
70
1
43
0.0
10
-198.78063614901092
20
426.37999184898831
10
-198.7237226445298
20
426.34713282185555
10
-198.72372264452918
20
426.28812331045134
42
-0.0010806943439438451
0
LWPOLYLINE
5
204
100
AcDbEntity
8
0
100
AcDbPolyline
90
7
70
1
43
0.0
10
-202.5000020861587
20
449.31197846484196
10
-196.00000208615882
20
453.06475521457435
10
-186.47372264452972
20
447.56475521457452
10
-186.47372264452966
20
436.56475521457429
10
-196.00000208615867
20
431.06475521457412
10
-202.00087436365206
20
434.52936043935745
42
-0.050081666313151182
10
-202.50000208615873
20
439.50000000001353
0
LWPOLYLINE
5
205
100
AcDbEntity
8
0
100
AcDbPolyline
90
4
70
1
43
0.0
10
-202.5000020861587
20
470.96261355945296
10
-198.72372264452966
20
468.78237760729337
10
-198.7237226445296
20
457.78237760729314
10
-202.5000020861587
20
455.60214165513332
0
LWPOLYLINE
5
206
100
AcDbEntity
8
0
100
AcDbPolyline
90
6
70
1
43
0.0
10
-202.5000020861587
20
491.74722325027966
10
-196.00000208615867
20
495.50000000001211
10
-186.47372264452957
20
490.00000000001228
10
-186.47372264452952
20
479.00000000001205
10
-196.00000208615853
20
473.50000000001188
10
-202.5000020861587
20
477.2527767497445
0
LWPOLYLINE
5
207
100
AcDbEntity
8
0
100
AcDbPolyline
90
4
70
1
43
0.0
10
-202.5000020861587
20
513.39785834489089
10
-198.72372264452952
20
511.21762239273107
10
-198.72372264452946
20
500.21762239273085
10
-202.5000020861587
20
498.03738644057097
0
LWPOLYLINE
5
208
100
AcDbEntity
8
0
100
AcDbPolyline
90
7
70
1
43
0.0
10
-202.00087436365277
20
534.47063956066609
10
-196.00000208615853
20
537.93524478544987
10
-186.47372264452943
20
532.4352447854501
10
-186.47372264452937
20
521.43524478544987
10
-196.00000208615839
20
515.93524478544964
10
-202.5000020861587
20
519.68802153518232
10
-202.5000020861587
20
529.50000000001364
42
-0.050081666313106663
0
LWPOLYLINE
5
209
100
AcDbEntity
8
0
100
AcDbPolyline
90
3
70
1
43
0.0
10
-198.72372264452932
20
542.71187668957577
10
-198.72372264452932
20
542.65286717816866
10
-198.78063614901458
20
542.62000815103295
42
-0.0010806943442263973
0
LWPOLYLINE
5
210
100
AcDbEntity
8
0
100
AcDbPolyline
90
7
70
1
43
0.0
10
-175.69099973272341
20
554.50000000001364
10
-174.22372264452935
20
553.65286717816912
10
-174.22372264452929
20
542.65286717816889
10
-183.7500020861583
20
537.15286717816866
10
-193.27628152778738
20
542.65286717816866
10
-193.27628152778607
20
548.89353002885503
42
-0.17240521609995638
10
-177.5000020861587
20
554.50000000001364
0
LWPOLYLINE
5
211
100
AcDbEntity
8
0
100
AcDbPolyline
90
7
70
1
43
0.0
10
-151.1909997327231
20
554.50000000001364
10
-149.72372264452935
20
553.65286717816923
10
-149.72372264452926
20
542.65286717816912
10
-159.2500020861583
20
537.15286717816878
10
-168.77628152778732
20
542.65286717816889
10
-168.7762815277874
20
553.65286717816912
10
-167.30900443959345
20
554.50000000001364
0
LWPOLYLINE
5
212
100
AcDbEntity
8
0
100
AcDbPolyline
90
7
70
1
43
0.0
10
-126.69099973272276
20
554.50000000001364
10
-125.22372264452935
20
553.65286717816946
10
-125.22372264452927
20
542.65286717816923
10
-134.75000208615828
20
537.152867178169
10
-144.27628152778735
20
542.65286717816912
10
-144.27628152778743
20
553.65286717816934
10
-142.80900443959391
20
554.50000000001364
0
LWPOLYLINE
5
213
100
AcDbEntity
8
0
100
AcDbPolyline
90
7
70
1
43
0.0
10
-102.19099973272236
20
554.50000000001364
10
-100.72372264452935
20
553.65286717816969
10
-100.72372264452926
20
542.65286717816946
10
-110.25000208615828
20
537.15286717816923
10
-119.77628152778735
20
542.65286717816923
10
-119.77628152778742
20
553.65286717816946
10
-118.30900443959419
20
554.50000000001364
0
LWPOLYLINE
5
214
100
AcDbEntity
8
0
100
AcDbPolyline
90
7
70
1
43
0.0
10
-77.690999732722119
20
554.50000000001364
10
-76.223722644529332
20
553.6528671781698
10
-76.223722644529261
20
542.65286717816957
10
-85.750002086158275
20
537.15286717816934
10
-95.276281527787347
20
542.65286717816946
10
-95.276281527787432
20
553.65286717816969
10
-93.809004439594474
20
554.50000000001364
0
LWPOLYLINE
5
215
100
AcDbEntity
8
0
100
AcDbPolyline
90
7
70
1
43
0.0
10
-53.190999732721764
20
554.50000000001364
10
-51.723722644529332
20
553.65286717817003
10
-51.723722644529275
20
542.6528671781698
10
-61.25000208615829
20
537.15286717816957
10
-70.776281527787361
20
542.65286717816957
10
-70.776281527787418
20
553.6528671781698
10
-69.309004439594801
20
554.50000000001364
0
LWPOLYLINE
5
216
100
AcDbEntity
8
0
100
AcDbPolyline
90
7
70
1
43
0.0
10
-28.690999732721462
20
554.50000000001364
10
-27.223722644529332
20
553.65286717817014
10
-27.223722644529268
20
542.65286717816991
10
-36.750002086158275
20
537.15286717816969
10
-46.276281527787361
20
542.6528671781698
10
-46.276281527787418
20
553.65286717817003
10
-44.809004439595057
20
554.50000000001364
0
LWPOLYLINE
5
217
100
AcDbEntity
8
0
100
AcDbPolyline
90
7
70
1
43
0.0
10
-4.1909997327211101
20
554.50000000001364
10
-2.7237226445293308
20
553.65286717817037
10
-2.7237226445292686
20
542.65286717817014
10
-12.250002086158279
20
537.15286717816991
10
-21.776281527787354
20
542.65286717817003
10
-21.776281527787415
20
553.65286717817025
10
-20.309004439595483
20
554.50000000001364
0
LWPOLYLINE
5
218
100
AcDbEntity
8
0
100
AcDbPolyline
90
7
70
1
43
0.0
10
20.309000267279131
20
554.50000000001364
10
21.776277355470668
20
553.65286717817048
10
21.776277355470732
20
542.65286717817037
10
12.249997913841725
20
537.15286717817003
10
2.7237184722126484
20
542.65286717817014
10
2.7237184722125853
20
553.65286717817037
10
4.1909955604042972
20
554.50000000001364
0
LWPOLYLINE
5
219
100
AcDbEntity
8
0
100
AcDbPolyline
90
7
70
1
43
0.0
10
44.809000267279501
20
554.50000000001364
10
46.276277355470668
20
553.65286717817071
10
46.276277355470732
20
542.65286717817048
10
36.749997913841725
20
537.15286717817025
10
27.223718472212649
20
542.65286717817037
10
27.223718472212589
20
553.6528671781706
10
28.690995560403962
20
554.50000000001364
0
LWPOLYLINE
5
220
100
AcDbEntity
8
0
100
AcDbPolyline
90
7
70
1
43
0.0
10
69.309000267279885
20
554.50000000001364
10
70.776277355470668
20
553.65286717817094
10
70.776277355470739
20
542.65286717817071
10
61.249997913841732
20
537.15286717817048
10
51.723718472212646
20
542.6528671781706
10
51.723718472212582
20
553.65286717817082
10
53.190995560403579
20
554.50000000001364
0
LWPOLYLINE
5
221
100
AcDbEntity
8
0
100
AcDbPolyline
90
7
70
1
43
0.0
10
93.809000267280126
20
554.50000000001364
10
95.276277355470654
20
553.65286717817105
10
95.276277355470725
20
542.65286717817082
10
85.749997913841725
20
537.15286717817071
10
76.223718472212639
20
542.65286717817071
10
76.223718472212582
20
553.65286717817094
10
77.690995560403309
20
554.50000000001364
0
LWPOLYLINE
5
222
100
AcDbEntity
8
0
100
AcDbPolyline
90
7
70
1
43
0.0
10
118.30900026728052
20
554.50000000001364
10
119.77627735547067
20
553.65286717817128
10
119.77627735547074
20
542.65286717817105
10
110.24999791384174
20
537.15286717817082
10
100.72371847221265
20
542.65286717817094
10
100.7237184722126
20
553.65286717817116
10
102.19099556040297
20
554.50000000001364
0
LWPOLYLINE
5
223
100
AcDbEntity
8
0
100
AcDbPolyline
90
7
70
1
43
0.0
10
142.80900026728077
20
554.50000000001364
10
144.27627735547068
20
553.65286717817139
10
144.27627735547074
20
542.65286717817116
10
134.74999791384175
20
537.15286717817105
10
125.22371847221267
20
542.65286717817105
10
125.2237184722126
20
553.65286717817128
10
126.69099556040273
20
554.50000000001364
0
LWPOLYLINE
5
224
100
AcDbEntity
8
0
100
AcDbPolyline
90
7
70
1
43
0.0
10
167.30900026728111
20
554.50000000001364
10
168.77627735547068
20
553.65286717817162
10
168.77627735547077
20
542.65286717817139
10
159.24999791384175
20
537.15286717817116
10
149.72371847221265
20
542.65286717817128
10
149.7237184722126
20
553.6528671781715
10
151.19099556040237
20
554.50000000001364
0
LWPOLYLINE
5
225
100
AcDbEntity
8
0
100
AcDbPolyline
90
7
70
1
43
0.0
10
193.27627735547068
20
548.89353002885628
10
193.27627735547071
20
542.65286717817162
10
183.7499979138417
20
537.15286717817139
10
174.22371847221262
20
542.65286717817139
10
174.22371847221257
20
553.65286717817162
10
175.69099556040209
20
554.50000000001364
10
177.49999791384136
20
554.50000000001148
42
-0.17240521609998566
0
LWPOLYLINE
5
226
100
AcDbEntity
8
0
100
AcDbPolyline
90
3
70
1
43
0.0
10
198.78063197669354
20
542.62000815103897
42
0.0010806943436870086
10
198.72371847221277
20
542.71187668957441
10
198.72371847221268
20
542.65286717817162
0
LWPOLYLINE
5
227
100
AcDbEntity
8
0
100
AcDbPolyline
90
32
70
1
43
0.0
10
259.49999584299445
20
580.50000001532271
42
0.41421356013081634
10
257.49999584299439
20
582.50000000001148
10
254.65685007717553
20
582.50000000001137
42
-0.19891236737964554
10
251.47486956183602
20
583.81801948467182
10
243.81801531234339
20
591.47487373416413
42
-0.19891236737965534
10
242.49999582768285
20
594.65685424950357
10
242.4999958276828
20
597.50000000001114
42
0.4142135623730846
10
240.49999582768277
20
599.50000000001114
10
-240.50000000000037
20
599.50000000000489
42
0.41421356237310542
10
-242.50000000000031
20
597.50000000000477
10
-242.50000000000023
20
594.65685424949709
42
-0.19891236737965534
10
-243.81801948466085
20
591.47487373415754
10
-251.47487373415339
20
583.81801948466523
42
-0.19891236737967555
10
-254.65685424949271
20
582.50000000000477
10
-257.49999998468905
20
582.50000000000477
42
0.41421356461536335
10
-259.49999998468905
20
580.49999998469366
10
-259.49999584299621
20
39.499999984689964
42
0.41421356013082411
10
-257.49999584299621
20
37.500000000001194
10
-254.65685007717724
20
37.500000000001187
42
-0.19891236737965362
10
-251.47486956183783
20
36.181980515340733
10
-243.81801531234527
20
28.525126265848488
42
-0.19891236737966228
10
-242.49999582768467
20
25.343145750509066
10
-242.49999582768459
20
22.50000000000146
42
0.41421356237307616
10
-240.49999582768464
20
20.500000000001492
10
240.49999999999898
20
20.500000000004576
42
0.41421356237309825
10
242.49999999999901
20
22.500000000004565
10
242.49999999999912
20
25.343145750512388
42
-0.19891236737964887
10
243.81801948465954
20
28.525126265851735
10
251.4748737341522
20
36.181980515344087
42
-0.19891236737964865
10
254.65685424949152
20
37.500000000004519
10
257.49999998468786
20
37.500000000004505
42
0.41421356461537506
10
259.49999998468786
20
39.500000015315763
0
CIRCLE
5
228
100
AcDbEntity
8
0
100
AcDbCircle
10
-229.2616661262411
20
26.696699141108432
30
0
40
1.7500000000000071
210
0
220
0
230
1
0
CIRCLE
5
229
100
AcDbEntity
8
0
100
AcDbCircle
10
229.26166612623933
20
593.30330085891399
30
0
40
1.7500000000000071
210
0
220
0
230
1
0
CIRCLE
5
230
100
AcDbEntity
8
0
100
AcDbCircle
10
-229.26167020924939
20
593.30329755476134
30
0
40
1.7500000000000071
210
0
220
0
230
1
0
CIRCLE
5
231
100
AcDbEntity
8
0
100
AcDbCircle
10
229.26167020924765
20
26.696702445260829
30
0
40
1.7500000000000071
210
0
220
0
230
1
0
CIRCLE
5
232
100
AcDbEntity
8
0
100
AcDbCircle
10
-253.30329668658439
20
50.738329701450283
30
0
40
1.7500000000000071
210
0
220
0
230
1
0
CIRCLE
5
233
100
AcDbEntity
8
0
100
AcDbCircle
10
253.30329668658271
20
569.26167029857208
30
0
40
1.7500000000000071
210
0
220
0
230
1
0
CIRCLE
5
234
100
AcDbEntity
8
0
100
AcDbCircle
10
-253.30330042310123
20
569.261666647928
30
0
40
1.7500000000000071
210
0
220
0
230
1
0
CIRCLE
5
235
100
AcDbEntity
8
0
100
AcDbCircle
10
253.30330042309956
20
50.738333352094145
30
0
40
1.7500000000000071
210
0
220
0
230
1
0
CIRCLE
5
236
100
AcDbEntity
8
0
100
AcDbCircle
10
-234.50000000001836
20
360.0000000000158
30
0
40
1.7500000000000071
210
0
220
0
230
1
0
CIRCLE
5
237
100
AcDbEntity
8
0
100
AcDbCircle
10
-234.50000000001836
20
340.0000000000158
30
0
40
1.7500000000000071
210
0
220
0
230
1
0
CIRCLE
5
238
100
AcDbEntity
8
0
100
AcDbCircle
10
234.50000000001836
20
340.0000000000158
30
0
40
1.7499999999999716
210
0
220
0
230
1
0
CIRCLE
5
239
100
AcDbEntity
8
0
100
AcDbCircle
10
234.50000000001836
20
360.0000000000158
30
0
40
1.7500000000000071
210
0
220
0
230
1
0
CIRCLE
5
240
100
AcDbEntity
8
0
100
AcDbCircle
10
-234.50000000001836
20
260.0000000000158
30
0
40
1.7500000000000071
210
0
220
0
230
1
0
CIRCLE
5
241
100
AcDbEntity
8
0
100
AcDbCircle
10
-234.50000000001836
20
280.0000000000158
30
0
40
1.7500000000000071
210
0
220
0
230
1
0
CIRCLE
5
242
100
AcDbEntity
8
0
100
AcDbCircle
10
234.50000000001836
20
280.0000000000158
30
0
40
1.7500000000000071
210
0
220
0
230
1
0
CIRCLE
5
243
100
AcDbEntity
8
0
100
AcDbCircle
10
234.50000000001836
20
260.0000000000158
30
0
40
1.7500000000000071
210
0
220
0
230
1
0
ENDSEC
0
SECTION
2
OBJECTS
0
DICTIONARY
5
C
100
AcDbDictionary
3
ACAD_GROUP
350
D
3
ACAD_MLINESTYLE
350
17
0
DICTIONARY
5
D
100
AcDbDictionary
0
DICTIONARY
5
1A
330
C
100
AcDbDictionary
0
DICTIONARY
5
17
100
AcDbDictionary
0
ENDSEC
0
EOF
