0
SECTION
2
HEADER
9
$INSUNITS
70
4
9
$ACADVER
1
AC1014
9
$HANDSEED
5
FFFF
0
ENDSEC
0
SECTION
2
TABLES
0
TABLE
2
VPORT
5
8
100
AcDbSymbolTable
0
ENDTAB
0
TABLE
2
LTYPE
5
5
100
AcDbSymbolTable
0
LTYPE
5
14
100
AcDbSymbolTableRecord
100
AcDbLinetypeTableRecord
2
BYBLOCK
70
0
0
LTYPE
5
15
100
AcDbSymbolTableRecord
100
AcDbLinetypeTableRecord
2
BYLAYER
70
0
0
LTYPE
5
16
100
AcDbSymbolTableRecord
100
AcDbLinetypeTableRecord
2
DASHED
70
0
3
Dashed __ __ __ __ __ __ __ __ __ __ __ __ __ _
72
65
73
2
40
0.75
49
0.5
74
0
49
-0.25
74
0
0
ENDTAB
0
TABLE
2
LAYER
5
2
100
AcDbSymbolTable
70
2
0
LAYER
5
50
100
AcDbSymbolTableRecord
100
AcDbLayerTableRecord
2
0
70
0
62
7
6
CONTINUOUS
0
ENDTAB
0
TABLE
2
STYLE
5
3
100
AcDbSymbolTable
70
1
0
STYLE
5
11
100
AcDbSymbolTableRecord
100
AcDbTextStyleTableRecord
2
STANDARD
70
0
0
ENDTAB
0
TABLE
2
VIEW
5
6
100
AcDbSymbolTable
70
0
0
ENDTAB
0
TABLE
2
UCS
5
7
100
AcDbSymbolTable
70
0
0
ENDTAB
0
TABLE
2
APPID
5
9
100
AcDbSymbolTable
70
2
0
APPID
5
12
100
AcDbSymbolTableRecord
100
AcDbRegAppTableRecord
2
ACAD
70
0
0
ENDTAB
0
TABLE
2
DIMSTYLE
5
A
100
AcDbSymbolTable
70
1
0
ENDTAB
0
TABLE
2
BLOCK_RECORD
5
1
100
AcDbSymbolTable
70
1
0
BLOCK_RECORD
5
1F
100
AcDbSymbolTableRecord
100
AcDbBlockTableRecord
2
*MODEL_SPACE
0
BLOCK_RECORD
5
1B
100
AcDbSymbolTableRecord
100
AcDbBlockTableRecord
2
*PAPER_SPACE
0
ENDTAB
0
ENDSEC
0
SECTION
2
BLOCKS
0
BLOCK
5
20
100
AcDbEntity
100
AcDbBlockBegin
2
*MODEL_SPACE
0
ENDBLK
5
21
100
AcDbEntity
100
AcDbBlockEnd
0
BLOCK
5
1C
100
AcDbEntity
100
AcDbBlockBegin
2
*PAPER_SPACE
0
ENDBLK
5
1D
100
AcDbEntity
100
AcDbBlockEnd
0
ENDSEC
0
SECTION
2
ENTITIES
0
LWPOLYLINE
5
100
100
AcDbEntity
8
0
100
AcDbPolyline
90
84
70
1
43
0.0
10
-161.99999999992573
20
1.0000000000000009
42
0.41421356237309459
10
-159.99999999992573
20
3.0000000000000075
10
-159.99999999992576
20
33.250000000016904
42
0.4142135623730937
10
-161.99999999992573
20
35.25000000001689
10
-163.00000000001091
20
35.250000000016897
42
-0.99999999999999989
10
-163.00000000001091
20
38.750000000016911
10
-161.99999999992571
20
38.750000000016911
42
0.41421356237309631
10
-159.99999999992571
20
40.750000000016904
10
-159.99999999992576
20
113.25000000003183
42
0.41421356237309503
10
-161.99999999992573
20
115.25000000003182
10
-162.99999999992582
20
115.25000000003182
42
-0.99999999999999989
10
-162.99999999992576
20
118.75000000003183
10
-161.99999999992573
20
118.75000000003183
42
0.41421356237309503
10
-159.99999999992576
20
120.75000000003183
10
-159.99999999992579
20
127.00000000003183
42
-0.41421356237309437
10
-144.99999999992579
20
142.00000000003186
10
-94.999999999925748
20
142.00000000003183
42
-0.41421356237309503
10
-79.999999999925748
20
127.00000000003183
10
-79.999999999925762
20
117.0000000000104
42
0.41421356237309492
10
-64.999999999925748
20
102.0000000000104
10
54.999999999954312
20
102.0000000000104
42
-0.41421356237309503
10
69.999999999954312
20
87.000000000010402
10
69.999999999954312
20
70.749999999982819
42
0.41421356237308982
10
71.999999999954312
20
68.749999999982819
10
72.999999999989086
20
68.749999999982819
42
-0.99999999999999989
10
72.999999999989086
20
65.249999999982819
10
71.999999999954298
20
65.249999999982819
42
0.41421356237309243
10
69.999999999954298
20
63.249999999982819
10
69.999999999954312
20
40.750000000016733
42
0.41421356237309243
10
71.999999999954312
20
38.750000000016733
10
72.999999999989086
20
38.750000000016733
42
-0.99999999999999989
10
72.999999999989086
20
35.25000000001674
10
71.999999999954298
20
35.25000000001674
42
0.41421356237309631
10
69.999999999954298
20
33.250000000016726
10
69.999999999954326
20
3.0000000000000071
42
0.41421356237309992
10
71.999999999954341
20
1.0000000000000075
10
248.93000000000001
20
1.0000000000000142
42
0.41421356237309725
10
250.93000000000001
20
3.000000000000008
10
250.93000000000001
20
9.2500000000000249
42
-0.4142135623730947
10
252.93000000000001
20
11.250000000000021
10
257.50000000000006
20
11.250000000000021
42
0.41421356237309404
10
259.5
20
13.250000000000025
10
259.5
20
19.5
42
-0.41421356237309503
10
260.50000000000006
20
20.500000000000004
10
278.99999999999994
20
20.500000000000004
42
0.41421356237307161
10
279.99999999999994
20
21.499999999999986
10
279.99999999999994
20
598.5
42
0.41421356237313667
10
278.99999999999989
20
599.5
10
260.50000000000006
20
599.5
10
252.50000102321306
20
599.49999181429644
42
-0.41421386206531197
10
251.49999999999991
20
600.49999181429598
10
251.49999999999994
20
616
42
0.41421356237310542
10
249.49999999999994
20
618
10
56.583103130316132
20
618
42
0.41421356237309243
10
54.583103130316118
20
616
10
54.583103130316118
20
615.75
42
0.41421356237309503
10
55.083103130316118
20
615.25
10
55.333103130316132
20
615.25
42
-0.41421356237309503
10
56.333103130316132
20
614.25
10
56.333103130316189
20
609.73431348329837
42
-0.377964473009197
10
55.458103130316147
20
608.74215674164918
42
0.37796447300921976
10
54.583103130316147
20
607.75
10
54.583103130316161
20
606
42
-0.41421356237309503
10
52.583103130316132
20
603.99999999999989
10
42.583103130316132
20
604
42
-0.41421356237309503
10
40.583103130316125
20
606
10
40.583103130316132
20
616
42
0.41421356237310347
10
38.583103130316132
20
618
10
-249.50000000000003
20
618
42
0.41421356237310542
10
-251.5
20
616
10
-251.50000000000003
20
600.50000000000011
42
-0.41421356237309503
10
-252.50000000000003
20
599.50000000000011
10
-278.99999999999994
20
599.5
42
0.4142135623730846
10
-279.99999999999994
20
598.50000000000011
10
-279.99999999999994
20
21.500000000000057
42
0.41421356237308204
10
-278.99999999999994
20
20.500000000000014
10
-260.50000000000006
20
20.500000000000014
42
-0.41421356237309503
10
-259.5
20
19.5
10
-259.5
20
13.250000000000014
42
0.41421356237309404
10
-257.50000000000006
20
11.250000000000028
10
-252.93000000000001
20
11.250000000000009
42
-0.41421356237309631
10
-250.93000000000001
20
9.2500000000000071
10
-250.93000000000001
20
3.0000000000000071
42
0.41421356237309698
10
-248.93000000000001
20
1.0000000000000011
0
CIRCLE
5
101
100
AcDbEntity
8
0
100
AcDbCircle
10
-230.12741699796891
20
62.372583002030602
30
0
40
1.7500000000000071
210
0
220
0
230
1
0
CIRCLE
5
102
100
AcDbEntity
8
0
100
AcDbCircle
10
-207.4999999999994
20
117.00000000000011
30
0
40
1.7500000000000071
210
0
220
0
230
1
0
CIRCLE
5
103
100
AcDbEntity
8
0
100
AcDbCircle
10
-207.4999999999994
20
46.000000000000121
30
0
40
7.5000000000000222
210
0
220
0
230
1
0
LWPOLYLINE
5
104
100
AcDbEntity
8
0
100
AcDbPolyline
90
16
70
1
43
0.0
10
208.79999999996588
20
311.40192378861394
42
0.26794919243112203
10
207.29999999996585
20
308.80384757726063
10
207.29999999996585
20
303.79999999996733
42
-0.41421356237309337
10
194.99999999996584
20
291.49999999996726
10
64.999999999965823
20
291.49999999996726
42
-0.4142135623730967
10
52.699999999965847
20
303.79999999996721
10
52.69999999996584
20
308.80384757726063
42
0.26794919243111742
10
51.199999999965861
20
311.40192378861394
42
-0.57735026918963428
10
51.199999999965861
20
316.59807621132063
42
0.26794919243112109
10
52.69999999996584
20
319.19615242267389
10
52.699999999965847
20
324.1999999999673
42
-0.41421356237309165
10
64.999999999965809
20
336.49999999996732
10
194.99999999996578
20
336.49999999996726
42
-0.41421356237310009
10
207.29999999996585
20
324.19999999996719
10
207.29999999996585
20
319.19615242267389
42
0.2679491924311177
10
208.79999999996588
20
316.59807621132057
42
-0.57735026918962007
0
LWPOLYLINE
5
105
100
AcDbEntity
8
0
100
AcDbPolyline
90
16
70
1
43
0.0
10
-51.199999999965861
20
311.40192378861394
42
0.26794919243112109
10
-52.69999999996584
20
308.80384757726063
10
-52.699999999965854
20
303.79999999996721
42
-0.41421356237309653
10
-64.999999999965809
20
291.49999999996726
10
-194.99999999996584
20
291.49999999996726
42
-0.41421356237309337
10
-207.29999999996585
20
303.79999999996733
10
-207.29999999996585
20
308.80384757726063
42
0.26794919243112203
10
-208.79999999996588
20
311.40192378861394
42
-0.57735026918962007
10
-208.79999999996588
20
316.59807621132057
42
0.26794919243112203
10
-207.29999999996585
20
319.19615242267389
10
-207.29999999996585
20
324.19999999996719
42
-0.41421356237309759
10
-194.99999999996578
20
336.49999999996732
10
-64.999999999965823
20
336.49999999996732
42
-0.41421356237309187
10
-52.699999999965847
20
324.1999999999673
10
-52.69999999996584
20
319.19615242267389
42
0.26794919243111454
10
-51.199999999965854
20
316.59807621132063
42
-0.5773502691896335
0
CIRCLE
5
106
100
AcDbEntity
8
0
100
AcDbCircle
10
177.5000000000006
20
117.00000000000014
30
0
40
1.7500000000000071
210
0
220
-0
230
1
0
CIRCLE
5
107
100
AcDbEntity
8
0
100
AcDbCircle
10
154.87258300203109
20
62.372583002030595
30
0
40
1.7499999999999893
210
0
220
0
230
1
0
CIRCLE
5
108
100
AcDbEntity
8
0
100
AcDbCircle
10
177.5000000000006
20
46.000000000000099
30
0
40
7.5000000000000222
210
0
220
0
230
1
0
CIRCLE
5
109
100
AcDbEntity
8
0
100
AcDbCircle
10
200.12741699797016
20
62.372583002030609
30
0
40
1.7500000000000071
210
0
220
0
230
1
0
CIRCLE
5
110
100
AcDbEntity
8
0
100
AcDbCircle
10
-129.75
20
590
30
0
40
1.7499999999999716
210
0
220
0
230
1
0
CIRCLE
5
111
100
AcDbEntity
8
0
100
AcDbCircle
10
0
20
590
30
0
40
1.7499999999999716
210
0
220
0
230
1
0
CIRCLE
5
112
100
AcDbEntity
8
0
100
AcDbCircle
10
129.75
20
590
30
0
40
1.7499999999999716
210
0
220
0
230
1
0
LWPOLYLINE
5
113
100
AcDbEntity
8
0
100
AcDbPolyline
90
16
70
1
43
0.0
10
-52.700000000000571
20
489.19615242270527
42
0.26794919243113369
10
-51.200000000000578
20
486.59807621135189
42
-0.57735026918964061
10
-51.200000000000571
20
481.40192378864526
42
0.26794919243111387
10
-52.700000000000585
20
478.80384757729195
10
-52.700000000000486
20
418.99999999990189
42
-0.41421356237309614
10
-64.999999999903864
20
406.69999999999851
10
-195.00000000003502
20
406.69999999999561
42
-0.41421356237316187
10
-207.30000000000075
20
418.99999999996425
10
-207.30000000000072
20
478.80384757729183
42
0.26794919243113463
10
-208.80000000000075
20
481.40192378864515
42
-0.5773502691896143
10
-208.80000000000075
20
486.59807621135189
42
0.26794919243114285
10
-207.30000000000072
20
489.19615242270515
10
-207.30000000000064
20
549.0000000000357
42
-0.41421356237309587
10
-195.00000000003746
20
561.29999999999859
10
-64.999999999915445
20
561.29999999987592
42
-0.41421356237309465
10
-52.700000000000635
20
548.99999999996101
0
LWPOLYLINE
5
114
100
AcDbEntity
8
0
100
AcDbPolyline
90
16
70
1
43
0.0
10
207.29999999999956
20
489.19615242270532
42
0.26794919243114285
10
208.79999999999956
20
486.59807621135201
42
-0.57735026918963384
10
208.79999999999956
20
481.40192378864538
42
0.26794919243113774
10
207.29999999999959
20
478.803847577292
10
207.29999999999959
20
418.99999999990206
42
-0.41421356237310009
10
195.00000000009624
20
406.69999999999868
10
64.99999999996507
20
406.69999999999584
42
-0.41421356237316209
10
52.699999999999378
20
418.99999999996442
10
52.699999999999399
20
478.803847577292
42
0.26794919243112109
10
51.199999999999399
20
481.40192378864532
42
-0.57735026918961418
10
51.199999999999378
20
486.59807621135195
42
0.26794919243112392
10
52.699999999999392
20
489.19615242270527
10
52.699999999999392
20
549.00000000003581
42
-0.41421356237310009
10
64.999999999962625
20
561.2999999999987
10
195.00000000008467
20
561.29999999987604
42
-0.41421356237309165
10
207.29999999999947
20
548.99999999996123
0
LWPOLYLINE
5
115
100
AcDbEntity
8
0
100
AcDbPolyline
90
16
70
1
43
0.0
10
-4.3084214189026486
20
566.0431457505083
42
0.2453926839564573
10
-1.8464659989589214
20
567.3288600362223
42
-0.52223296786715112
10
1.8464671309586413
20
567.32886003622127
42
0.24539268395669225
10
4.3084225509041216
20
566.04314575050626
10
12.499999999999524
20
566.04314575050603
42
-0.41421356237309914
10
24.543145750506909
20
553.99999999999864
10
24.543145750506945
20
413.99999999999909
42
-0.41421356237309204
10
12.499999999999547
20
401.9568542494917
10
4.3084225509045115
20
401.95685424949158
42
0.24539268395673608
10
1.846467130958922
20
400.67113996377623
42
-0.5222329678671781
10
-1.8464659989586687
20
400.67113996377486
42
0.24539268395647898
10
-4.3084214189020917
20
401.95685424948857
10
-12.500000000000469
20
401.95685424949176
42
-0.41421356237309104
10
-24.543145750507776
20
413.99999999999909
10
-24.54314575050789
20
553.99999999999864
42
-0.41421356237309553
10
-12.500000000000419
20
566.04314575050603
0
CIRCLE
5
116
100
AcDbEntity
8
0
100
AcDbCircle
10
-270.00000402331625
20
289.64999999999998
30
0
40
1.7500000000000071
210
0
220
0
230
1
0
CIRCLE
5
117
100
AcDbEntity
8
0
100
AcDbCircle
10
270.00000402331625
20
164.875
30
0
40
1.7500000000000071
210
0
220
0
230
1
0
CIRCLE
5
118
100
AcDbEntity
8
0
100
AcDbCircle
10
270.00000402331642
20
538.25
30
0
40
1.7500000000000426
210
0
220
0
230
1
0
CIRCLE
5
119
100
AcDbEntity
8
0
100
AcDbCircle
10
270.00000402331625
20
289.64999999999998
30
0
40
1.7500000000000071
210
0
220
0
230
1
0
CIRCLE
5
120
100
AcDbEntity
8
0
100
AcDbCircle
10
-270.00000402331625
20
329.85000000000002
30
0
40
1.7499999999999716
210
0
220
0
230
1
0
CIRCLE
5
121
100
AcDbEntity
8
0
100
AcDbCircle
10
-270.00000402331625
20
164.875
30
0
40
1.7500000000000071
210
0
220
0
230
1
0
CIRCLE
5
122
100
AcDbEntity
8
0
100
AcDbCircle
10
-270.00000402331642
20
538.25
30
0
40
1.7500000000000426
210
0
220
0
230
1
0
CIRCLE
5
123
100
AcDbEntity
8
0
100
AcDbCircle
10
270.00000402331625
20
81.25
30
0
40
1.7500000000000071
210
0
220
0
230
1
0
CIRCLE
5
124
100
AcDbEntity
8
0
100
AcDbCircle
10
270.00000402331625
20
454.62500000000006
30
0
40
1.7499999999999716
210
0
220
0
230
1
0
CIRCLE
5
125
100
AcDbEntity
8
0
100
AcDbCircle
10
270.00000402331625
20
329.85000000000002
30
0
40
1.7499999999999716
210
0
220
0
230
1
0
CIRCLE
5
126
100
AcDbEntity
8
0
100
AcDbCircle
10
177.5000000000006
20
85.000000000000128
30
0
40
25.449999999999982
210
0
220
0
230
1
0
CIRCLE
5
127
100
AcDbEntity
8
0
100
AcDbCircle
10
-270.00000402331625
20
454.62500000000006
30
0
40
1.7499999999999716
210
0
220
0
230
1
0
CIRCLE
5
128
100
AcDbEntity
8
0
100
AcDbCircle
10
-270.00000402331625
20
81.25
30
0
40
1.7500000000000071
210
0
220
0
230
1
0
CIRCLE
5
129
100
AcDbEntity
8
0
100
AcDbCircle
10
-184.87258300202984
20
62.372583002030602
30
0
40
1.7500000000000071
210
0
220
-0
230
1
0
CIRCLE
5
130
100
AcDbEntity
8
0
100
AcDbCircle
10
-207.4999999999994
20
85.000000000000128
30
0
40
25.450000000000017
210
0
220
-0
230
1
0
ENDSEC
0
SECTION
2
OBJECTS
0
DICTIONARY
5
C
100
AcDbDictionary
3
ACAD_GROUP
350
D
3
ACAD_MLINESTYLE
350
17
0
DICTIONARY
5
D
100
AcDbDictionary
0
DICTIONARY
5
1A
330
C
100
AcDbDictionary
0
DICTIONARY
5
17
100
AcDbDictionary
0
ENDSEC
0
EOF
