0
SECTION
2
HEADER
9
$INSUNITS
70
4
9
$ACADVER
1
AC1014
9
$HANDSEED
5
FFFF
0
ENDSEC
0
SECTION
2
TABLES
0
TABLE
2
VPORT
5
8
100
AcDbSymbolTable
0
ENDTAB
0
TABLE
2
LTYPE
5
5
100
AcDbSymbolTable
0
LTYPE
5
14
100
AcDbSymbolTableRecord
100
AcDbLinetypeTableRecord
2
BYBLOCK
70
0
0
LTYPE
5
15
100
AcDbSymbolTableRecord
100
AcDbLinetypeTableRecord
2
BYLAYER
70
0
0
LTYPE
5
16
100
AcDbSymbolTableRecord
100
AcDbLinetypeTableRecord
2
DASHED
70
0
3
Dashed __ __ __ __ __ __ __ __ __ __ __ __ __ _
72
65
73
2
40
0.75
49
0.5
74
0
49
-0.25
74
0
0
ENDTAB
0
TABLE
2
LAYER
5
2
100
AcDbSymbolTable
70
2
0
LAYER
5
50
100
AcDbSymbolTableRecord
100
AcDbLayerTableRecord
2
0
70
0
62
7
6
CONTINUOUS
0
ENDTAB
0
TABLE
2
STYLE
5
3
100
AcDbSymbolTable
70
1
0
STYLE
5
11
100
AcDbSymbolTableRecord
100
AcDbTextStyleTableRecord
2
STANDARD
70
0
0
ENDTAB
0
TABLE
2
VIEW
5
6
100
AcDbSymbolTable
70
0
0
ENDTAB
0
TABLE
2
UCS
5
7
100
AcDbSymbolTable
70
0
0
ENDTAB
0
TABLE
2
APPID
5
9
100
AcDbSymbolTable
70
2
0
APPID
5
12
100
AcDbSymbolTableRecord
100
AcDbRegAppTableRecord
2
ACAD
70
0
0
ENDTAB
0
TABLE
2
DIMSTYLE
5
A
100
AcDbSymbolTable
70
1
0
ENDTAB
0
TABLE
2
BLOCK_RECORD
5
1
100
AcDbSymbolTable
70
1
0
BLOCK_RECORD
5
1F
100
AcDbSymbolTableRecord
100
AcDbBlockTableRecord
2
*MODEL_SPACE
0
BLOCK_RECORD
5
1B
100
AcDbSymbolTableRecord
100
AcDbBlockTableRecord
2
*PAPER_SPACE
0
ENDTAB
0
ENDSEC
0
SECTION
2
BLOCKS
0
BLOCK
5
20
100
AcDbEntity
100
AcDbBlockBegin
2
*MODEL_SPACE
0
ENDBLK
5
21
100
AcDbEntity
100
AcDbBlockEnd
0
BLOCK
5
1C
100
AcDbEntity
100
AcDbBlockBegin
2
*PAPER_SPACE
0
ENDBLK
5
1D
100
AcDbEntity
100
AcDbBlockEnd
0
ENDSEC
0
SECTION
2
ENTITIES
0
LWPOLYLINE
5
100
100
AcDbEntity
8
0
100
AcDbPolyline
90
50
70
1
43
0.0
10
222.50000000000045
20
-259
42
0.41421356237309503
10
220.50000000000045
20
-257
10
40.999999820158415
20
-257
42
0.4142135623730937
10
38.999999820158429
20
-259
10
38.999999820158401
20
-289
42
-0.41421356237309481
10
32.999999820158351
20
-295.00000000000006
10
-33.000000179841621
20
-295
42
-0.41421356237309159
10
-39.000000179841621
20
-289
10
-39.000000179841614
20
-275.26135579578863
42
0.20309239477156316
10
-40.217391421635881
20
-272.38784078821402
42
-0.35102684700394426
10
-41.398288050462412
20
-263.0869565735693
42
0.58581110296109118
10
-44.810708344042325
20
-257
10
-220.50000000000009
20
-257
42
0.41421356237309503
10
-222.50000000000006
20
-259
10
-222.50000000000003
20
-283.99999998882413
42
-0.41421356237308116
10
-225.50000000000006
20
-286.99999998882413
10
-259.00000000000011
20
-286.99999998882413
42
-0.41421356237308815
10
-262.00000000000011
20
-283.99999998882413
10
-262.00000000000011
20
-259
42
0.41421469931247668
10
-264.00000393390656
20
-257.00000382959848
10
-278
20
-257
42
0.41421356237309503
10
-280
20
-259
10
-280
20
-308.00000499188866
42
0.41421356237310542
10
-278.00000000000006
20
-310.00000499188866
10
-264.99999582767492
20
-310.00000499188872
42
-0.41421356237309293
10
-259.99999582767492
20
-315.00000499188866
10
-259.99999582767492
20
-330.00000499188872
42
0.41421356237309503
10
-254.99999582767492
20
-335.00000499188872
10
-239.99999582767492
20
-335.00000499188872
42
-0.41421356237310336
10
-234.99999582767492
20
-340.00000499188872
10
-234.99999582767492
20
-353
42
0.41421356237310542
10
-232.99999582767498
20
-355
10
232.99999582767484
20
-355
42
0.41421356237310542
10
234.99999582767481
20
-353
10
234.99999582767487
20
-340.00000499188872
42
-0.41421356237310336
10
239.99999582767487
20
-335.00000499188872
10
254.99999582767487
20
-335.00000499188872
42
0.41421356237309503
10
259.99999582767487
20
-330.00000499188872
10
259.99999582767487
20
-315.00000499188872
42
-0.41421356237309503
10
264.99999582767487
20
-310.00000499188872
10
278
20
-310.00000499188872
42
0.41421356237309503
10
279.99999999999994
20
-308.00000499188872
10
280
20
-259
42
0.41421356237309503
10
278
20
-257
10
264.00000393390656
20
-257
42
0.41421469931024762
10
262.00000000000051
20
-259
10
262.00000000000051
20
-284.00000000000011
42
-0.41421356237309159
10
259.00000000000057
20
-287.00000000000006
10
225.50000000000043
20
-286.99999998882413
42
-0.41421356237310897
10
222.50000000000045
20
-283.99999998882419
0
CIRCLE
5
101
100
AcDbEntity
8
0
100
AcDbCircle
10
228.3999958276749
20
-345.00000499188872
30
0
40
1.7499999999999716
210
0
220
0
230
1
0
CIRCLE
5
102
100
AcDbEntity
8
0
100
AcDbCircle
10
-269.99999582767492
20
-303.40000499188869
30
0
40
1.7500000000000071
210
0
220
0
230
1
0
CIRCLE
5
103
100
AcDbEntity
8
0
100
AcDbCircle
10
269.99999582767487
20
-303.40000499188869
30
0
40
1.7500000000000071
210
0
220
0
230
1
0
CIRCLE
5
104
100
AcDbEntity
8
0
100
AcDbCircle
10
-228.3999958276749
20
-345.00000499188872
30
0
40
1.7499999999999716
210
0
220
0
230
1
0
ENDSEC
0
SECTION
2
OBJECTS
0
DICTIONARY
5
C
100
AcDbDictionary
3
ACAD_GROUP
350
D
3
ACAD_MLINESTYLE
350
17
0
DICTIONARY
5
D
100
AcDbDictionary
0
DICTIONARY
5
1A
330
C
100
AcDbDictionary
0
DICTIONARY
5
17
100
AcDbDictionary
0
ENDSEC
0
EOF
