0
SECTION
2
HEADER
9
$INSUNITS
70
4
9
$ACADVER
1
AC1014
9
$HANDSEED
5
FFFF
0
ENDSEC
0
SECTION
2
TABLES
0
TABLE
2
VPORT
5
8
100
AcDbSymbolTable
0
ENDTAB
0
TABLE
2
LTYPE
5
5
100
AcDbSymbolTable
0
LTYPE
5
14
100
AcDbSymbolTableRecord
100
AcDbLinetypeTableRecord
2
BYBLOCK
70
0
0
LTYPE
5
15
100
AcDbSymbolTableRecord
100
AcDbLinetypeTableRecord
2
BYLAYER
70
0
0
LTYPE
5
16
100
AcDbSymbolTableRecord
100
AcDbLinetypeTableRecord
2
DASHED
70
0
3
Dashed __ __ __ __ __ __ __ __ __ __ __ __ __ _
72
65
73
2
40
0.75
49
0.5
74
0
49
-0.25
74
0
0
ENDTAB
0
TABLE
2
LAYER
5
2
100
AcDbSymbolTable
70
2
0
LAYER
5
50
100
AcDbSymbolTableRecord
100
AcDbLayerTableRecord
2
0
70
0
62
7
6
CONTINUOUS
0
ENDTAB
0
TABLE
2
STYLE
5
3
100
AcDbSymbolTable
70
1
0
STYLE
5
11
100
AcDbSymbolTableRecord
100
AcDbTextStyleTableRecord
2
STANDARD
70
0
0
ENDTAB
0
TABLE
2
VIEW
5
6
100
AcDbSymbolTable
70
0
0
ENDTAB
0
TABLE
2
UCS
5
7
100
AcDbSymbolTable
70
0
0
ENDTAB
0
TABLE
2
APPID
5
9
100
AcDbSymbolTable
70
2
0
APPID
5
12
100
AcDbSymbolTableRecord
100
AcDbRegAppTableRecord
2
ACAD
70
0
0
ENDTAB
0
TABLE
2
DIMSTYLE
5
A
100
AcDbSymbolTable
70
1
0
ENDTAB
0
TABLE
2
BLOCK_RECORD
5
1
100
AcDbSymbolTable
70
1
0
BLOCK_RECORD
5
1F
100
AcDbSymbolTableRecord
100
AcDbBlockTableRecord
2
*MODEL_SPACE
0
BLOCK_RECORD
5
1B
100
AcDbSymbolTableRecord
100
AcDbBlockTableRecord
2
*PAPER_SPACE
0
ENDTAB
0
ENDSEC
0
SECTION
2
BLOCKS
0
BLOCK
5
20
100
AcDbEntity
100
AcDbBlockBegin
2
*MODEL_SPACE
0
ENDBLK
5
21
100
AcDbEntity
100
AcDbBlockEnd
0
BLOCK
5
1C
100
AcDbEntity
100
AcDbBlockBegin
2
*PAPER_SPACE
0
ENDBLK
5
1D
100
AcDbEntity
100
AcDbBlockEnd
0
ENDSEC
0
SECTION
2
ENTITIES
0
CIRCLE
5
100
100
AcDbEntity
8
0
100
AcDbCircle
10
-270.00000000000011
20
-242.0000011664541
30
0
40
1.7500000000000071
210
0
220
0
230
1
0
CIRCLE
5
101
100
AcDbEntity
8
0
100
AcDbCircle
10
270.00000000000051
20
-241.99999878884228
30
0
40
1.7500000000000071
210
0
220
0
230
1
0
CIRCLE
5
102
100
AcDbEntity
8
0
100
AcDbCircle
10
245.00000000000051
20
-241.9999999776482
30
0
40
1.7500000000000071
210
0
220
0
230
1
0
CIRCLE
5
103
100
AcDbEntity
8
0
100
AcDbCircle
10
220.00000000000045
20
-242.00000116645407
30
0
40
1.7500000000000071
210
0
220
0
230
1
0
CIRCLE
5
104
100
AcDbEntity
8
0
100
AcDbCircle
10
-220.00000000000006
20
-241.9999987888423
30
0
40
1.7499999999999716
210
0
220
0
230
1
0
CIRCLE
5
105
100
AcDbEntity
8
0
100
AcDbCircle
10
-245.00000000000006
20
-241.99999997764823
30
0
40
1.7500000000000071
210
0
220
0
230
1
0
LWPOLYLINE
5
106
100
AcDbEntity
8
0
100
AcDbPolyline
90
30
70
1
43
0.0
10
64.057012349381722
20
31.350000014901308
42
0.26794919243112242
10
64.057012349381722
20
41.650000014901316
10
51.651856746427782
20
63.136359795015338
10
43.626245414590549
20
81.171218423732711
42
0.29626415069230544
10
36.499999999999453
20
85.800000000000338
10
21.49999999999946
20
85.800000000000296
42
0.36104797181011539
10
13.832902610156452
20
79.433742520351203
10
11.934051302916638
20
69.279424227639112
42
-0.36104797181012133
10
10.754497858325395
20
68.300000000000765
10
-10.754497858326467
20
68.300000000000807
42
-0.36104797181011972
10
-11.934051302917688
20
69.279424227639126
10
-13.832902610157467
20
79.433742520351274
42
0.36104797181011555
10
-21.500000000000448
20
85.800000000000409
10
-36.500000000000455
20
85.800000000000523
42
0.29626415069230283
10
-43.626245414591516
20
81.171218423732938
10
-51.651856746429452
20
63.13635979501548
10
-64.057012349383456
20
41.65000001490148
42
0.26794919243112192
10
-64.057012349383456
20
31.350000014901482
10
-21.333092437955727
20
-42.649999970195232
42
-0.26794919243127685
10
-21.333092437958534
20
-52.349999970200081
10
-23.941531628996149
20
-56.867949177525006
42
0.41421356237328949
10
-23.099673200292443
20
-60.009807606230439
10
-16.465698604071235
20
-63.839934625155223
42
0.13165249758738282
10
-13.815698604071436
20
-64.549999985097486
10
13.815698604073848
20
-64.549999985096676
42
0.13165249758738434
10
16.46569860407368
20
-63.8399346251542
10
23.099673200290127
20
-60.00980760623149
42
0.41421356237315227
10
23.941531628994106
20
-56.867949177526889
10
21.333092437955319
20
-52.349999970195924
42
-0.26794919243117593
10
21.333092437954377
20
-42.649999970194266
0
CIRCLE
5
107
100
AcDbEntity
8
0
100
AcDbCircle
10
24.518584500048235
20
-69.467433576935349
30
0
40
1.749999999999998
210
0
220
0
230
1
0
CIRCLE
5
108
100
AcDbEntity
8
0
100
AcDbCircle
10
1.2652875667207297e-05
20
244.50000001490133
30
0
40
1.749999999999986
210
0
220
0
230
1
0
CIRCLE
5
109
100
AcDbEntity
8
0
100
AcDbCircle
10
-24.518584500049183
20
-69.467433576936827
30
0
40
1.7500000000000027
210
0
220
0
230
1
0
CIRCLE
5
110
100
AcDbEntity
8
0
100
AcDbCircle
10
-26.529527886118849
20
-102.39535391333635
30
0
40
1.7500000000000071
210
0
220
0
230
1
0
CIRCLE
5
111
100
AcDbEntity
8
0
100
AcDbCircle
10
-57.746133917893673
20
69.000000014901474
30
0
40
1.749999999999998
210
0
220
0
230
1
0
CIRCLE
5
112
100
AcDbEntity
8
0
100
AcDbCircle
10
195.2887285533921
20
-93.749999985085168
30
0
40
1.7500000000000071
210
0
220
0
230
1
0
CIRCLE
5
113
100
AcDbEntity
8
0
100
AcDbCircle
10
57.746139636654554
20
68.999993570040985
30
0
40
1.749999999999998
210
0
220
0
230
1
0
CIRCLE
5
114
100
AcDbEntity
8
0
100
AcDbCircle
10
-195.28872855339148
20
-93.749999985096906
30
0
40
1.7500000000000071
210
0
220
0
230
1
0
CIRCLE
5
115
100
AcDbEntity
8
0
100
AcDbCircle
10
-47.583103130317809
20
-197.73509987549502
30
0
40
1.7500000000000071
210
0
220
0
230
1
0
CIRCLE
5
116
100
AcDbEntity
8
0
100
AcDbCircle
10
-72.174337148167353
20
44.009618958134631
30
0
40
1.749999999999998
210
0
220
0
230
1
0
CIRCLE
5
117
100
AcDbEntity
8
0
100
AcDbCircle
10
72.174337148159594
20
44.009618958138965
30
0
40
1.749999999999998
210
0
220
0
230
1
0
CIRCLE
5
118
100
AcDbEntity
8
0
100
AcDbCircle
10
78.375299042357057
20
199.25000001496147
30
0
40
1.749999999999998
210
0
220
0
230
1
0
CIRCLE
5
119
100
AcDbEntity
8
0
100
AcDbCircle
10
-78.37529904249223
20
199.25000001490147
30
0
40
1.749999999999998
210
0
220
0
230
1
0
CIRCLE
5
120
100
AcDbEntity
8
0
100
AcDbCircle
10
-269.99999582767492
20
303.40000499188898
30
0
40
1.7500000000000071
210
0
220
0
230
1
0
CIRCLE
5
121
100
AcDbEntity
8
0
100
AcDbCircle
10
228.39999582767487
20
345.000004991889
30
0
40
1.7499999999999716
210
0
220
0
230
1
0
CIRCLE
5
122
100
AcDbEntity
8
0
100
AcDbCircle
10
-228.39999582767493
20
345.000004991889
30
0
40
1.7499999999999716
210
0
220
0
230
1
0
CIRCLE
5
123
100
AcDbEntity
8
0
100
AcDbCircle
10
269.99999582767487
20
303.40000499188898
30
0
40
1.7500000000000071
210
0
220
0
230
1
0
CIRCLE
5
124
100
AcDbEntity
8
0
100
AcDbCircle
10
-42.137213562373091
20
322.85797374669329
30
0
40
1.7499999999999716
210
0
220
0
230
1
0
LWPOLYLINE
5
125
100
AcDbEntity
8
0
100
AcDbPolyline
90
8
70
1
43
0.0
10
14.799999999999994
20
324.35797374669335
10
14.799999999999983
20
321.35797374669346
42
-0.41421356237311935
10
12.5
20
319.05797374669339
10
-12.499999999999996
20
319.05797374669334
42
-0.41421356237310836
10
-14.799999999999994
20
321.35797374669335
10
-14.799999999999986
20
324.35797374669335
42
-0.41421356237310636
10
-12.5
20
326.65797374669341
10
12.5
20
326.65797374669341
42
-0.41421356237310608
0
CIRCLE
5
126
100
AcDbEntity
8
0
100
AcDbCircle
10
-72.137213562373091
20
322.85797374669329
30
0
40
1.7499999999999805
210
0
220
0
230
1
0
CIRCLE
5
127
100
AcDbEntity
8
0
100
AcDbCircle
10
72.137213562373091
20
322.85797374669329
30
0
40
1.7499999999999805
210
0
220
0
230
1
0
CIRCLE
5
128
100
AcDbEntity
8
0
100
AcDbCircle
10
42.137213562373091
20
322.85797374669329
30
0
40
1.7499999999999716
210
0
220
0
230
1
0
SPLINE
5
129
100
AcDbEntity
8
0
100
AcDbSpline
70
4
71
5
72
21
73
15
74
0
42
0.000000001
43
0.0000000001
44
0.0000000001
40
0
40
0
40
0
40
0
40
0
40
0
40
0.10000000000000001
40
0.20000000000000001
40
0.30000000000000004
40
0.40000000000000002
40
0.5
40
0.59999999999999998
40
0.69999999999999996
40
0.79999999999999993
40
0.89999999999999991
40
1
40
1
40
1
40
1
40
1
40
1
41
1
41
1
41
1
41
1
41
1
41
1
41
1
41
1
41
1
41
1
41
1
41
1
41
1
41
1
41
1
10
-214.70000000000041
20
-252.00000159442413
30
0
10
-214.43715333060015
20
-252.0000019296954
30
0
10
-213.92903334763628
20
-251.97958222373001
30
0
10
-213.21957013110037
20
-251.88769538104535
30
0
10
-212.37368603009924
20
-251.64890114772629
30
0
10
-211.45255453170796
20
-251.19211558516719
30
0
10
-210.62681647395146
20
-250.6244823609396
30
0
10
-209.85000159262529
20
-250.00000034694716
30
0
10
-209.07318663554435
20
-249.37551869595421
30
0
10
-208.24744840200142
20
-248.80788632177232
30
0
10
-207.3263167387876
20
-248.35110158136931
30
0
10
-206.48043261965023
20
-248.11230749684546
30
0
10
-205.77096950426386
20
-248.02042024410784
30
0
10
-205.26284964684015
20
-248.00000000000006
30
0
10
-205.00000305473804
20
-248.00000000000006
30
0
0
LINE
5
130
100
AcDbEntity
8
0
100
AcDbLine
10
-205.00000305473802
20
-248.00000000000006
30
0
11
205.00000000000043
21
-248.00000000000006
31
0
0
SPLINE
5
131
100
AcDbEntity
8
0
100
AcDbSpline
70
4
71
5
72
21
73
15
74
0
42
0.000000001
43
0.0000000001
44
0.0000000001
40
0
40
0
40
0
40
0
40
0
40
0
40
0.10000000000000001
40
0.20000000000000001
40
0.30000000000000004
40
0.40000000000000002
40
0.5
40
0.59999999999999998
40
0.69999999999999996
40
0.79999999999999993
40
0.89999999999999991
40
1
40
1
40
1
40
1
40
1
40
1
41
1
41
1
41
1
41
1
41
1
41
1
41
1
41
1
41
1
41
1
41
1
41
1
41
1
41
1
41
1
10
205.00000000000043
20
-248.00000000000006
30
0
10
205.26219436304336
20
-248.00000000000006
30
0
10
205.7691770265497
20
-248.02041607874907
30
0
10
206.47743611188915
20
-248.11228458964473
30
0
10
207.32266615258067
20
-248.35103621054793
30
0
10
208.24426917403639
20
-248.80777710578397
30
0
10
209.07137330695204
20
-249.37541607193708
30
0
10
209.85000339808062
20
-249.99998209822206
30
0
10
210.6286199496115
20
-250.62462178028338
30
0
10
211.45569312660274
20
-251.19242915943806
30
0
10
212.37726863169689
20
-251.6493197945602
30
0
10
213.22249914642595
20
-251.88806893260346
30
0
10
213.93078079458877
20
-251.97981481688055
30
0
10
214.43778970898967
20
-252.00008818847519
30
0
10
214.70000000000041
20
-252.00000159442413
30
0
0
LINE
5
132
100
AcDbEntity
8
0
100
AcDbLine
10
214.70000000000044
20
-252.00000159442413
30
0
11
275.30000000000001
21
-252.00000000000003
31
0
0
ARC
5
133
100
AcDbEntity
8
0
100
AcDbCircle
10
275.30000000000001
20
-247.30000000000004
30
0
40
4.6999999999999886
210
-0
220
0
230
1
100
AcDbArc
50
-90
51
0
0
LINE
5
134
100
AcDbEntity
8
0
100
AcDbLine
10
280
20
-247.30000000000004
30
0
11
279.99999999999994
21
310.000004991889
31
0
0
LINE
5
135
100
AcDbEntity
8
0
100
AcDbLine
10
279.99999999999994
20
310.000004991889
30
0
11
279.99999582767487
21
311.39999998510723
31
0
0
ARC
5
136
100
AcDbEntity
8
0
100
AcDbCircle
10
278
20
311.39999998510729
30
0
40
1.9999958276748586
210
0
220
0
230
1
100
AcDbArc
50
0
51
90
0
LINE
5
137
100
AcDbEntity
8
0
100
AcDbLine
10
278
20
313.39999998510723
30
0
11
265.10000014901146
21
313.39999998510734
31
0
0
ARC
5
138
100
AcDbEntity
8
0
100
AcDbCircle
10
265.10000014901152
20
319.80000000000848
30
0
40
6.4000000149011598
210
0
220
0
230
1
100
AcDbArc
50
190.14157364703658
51
269.99999999999949
0
LINE
5
139
100
AcDbEntity
8
0
100
AcDbLine
10
258.79999581277389
20
318.67308138976114
30
0
11
258.79999581277389
21
330.00000499188894
31
0
0
ARC
5
140
100
AcDbEntity
8
0
100
AcDbCircle
10
254.99999582767501
20
330.00000499188894
30
0
40
3.7999999850988786
210
0
220
-0
230
1
100
AcDbArc
50
0
51
90
0
LINE
5
141
100
AcDbEntity
8
0
100
AcDbLine
10
254.99999582767501
20
333.80000497698779
30
0
11
243.67302932565735
21
333.80000497698774
31
0
0
ARC
5
142
100
AcDbEntity
8
0
100
AcDbCircle
10
244.7999999999692
20
340.0999999999998
30
0
40
6.4000000149012237
210
0
220
0
230
1
100
AcDbArc
50
180
51
259.8579528527552
0
LINE
5
143
100
AcDbEntity
8
0
100
AcDbLine
10
238.39999998506798
20
340.0999999999998
30
0
11
238.39999998506798
21
353
31
0
0
ARC
5
144
100
AcDbEntity
8
0
100
AcDbCircle
10
236.39999998506795
20
353
30
0
40
2.0000000000000284
210
0
220
0
230
1
100
AcDbArc
50
0
51
89.99999999999919
0
LINE
5
145
100
AcDbEntity
8
0
100
AcDbLine
10
236.39999998506798
20
355
30
0
11
234.99999582767487
21
355.000004991889
31
0
0
LINE
5
146
100
AcDbEntity
8
0
100
AcDbLine
10
234.99999582767487
20
355.000004991889
30
0
11
-234.99999582767487
21
355
31
0
0
LINE
5
147
100
AcDbEntity
8
0
100
AcDbLine
10
-234.99999582767487
20
355
30
0
11
-236.39999998506798
21
355
31
0
0
ARC
5
148
100
AcDbEntity
8
0
100
AcDbCircle
10
-236.39999998506795
20
353
30
0
40
2.0000000000000284
210
0
220
0
230
1
100
AcDbArc
50
90.00000000000081
51
180
0
LINE
5
149
100
AcDbEntity
8
0
100
AcDbLine
10
-238.39999998506798
20
353
30
0
11
-238.39999998506795
21
340.0999999999998
31
0
0
ARC
5
150
100
AcDbEntity
8
0
100
AcDbCircle
10
-244.79999999996903
20
340.09999999999962
30
0
40
6.4000000149010647
210
0
220
0
230
1
100
AcDbArc
50
-79.85795285275421
51
0
0
LINE
5
151
100
AcDbEntity
8
0
100
AcDbLine
10
-243.6730293256571
20
333.80000497698774
30
0
11
-254.99999582767501
21
333.80000497698768
31
0
0
ARC
5
152
100
AcDbEntity
8
0
100
AcDbCircle
10
-254.99999582767498
20
330.00000499188889
30
0
40
3.7999999850988075
210
0
220
0
230
1
100
AcDbArc
50
90.000000000000441
51
180
0
LINE
5
153
100
AcDbEntity
8
0
100
AcDbLine
10
-258.79999581277377
20
330.00000499188906
30
0
11
-258.79999581277394
21
318.67308138976063
31
0
0
ARC
5
154
100
AcDbEntity
8
0
100
AcDbCircle
10
-265.10000014901146
20
319.80000000000848
30
0
40
6.4000000149011882
210
0
220
0
230
1
100
AcDbArc
50
270
51
349.85842635295882
0
LINE
5
155
100
AcDbEntity
8
0
100
AcDbLine
10
-265.10000014901146
20
313.39999998510729
30
0
11
-278
21
313.39999998510729
31
0
0
ARC
5
156
100
AcDbEntity
8
0
100
AcDbCircle
10
-278
20
311.39999998510734
30
0
40
1.9999999999999574
210
0
220
-0
230
1
100
AcDbArc
50
90
51
180
0
LINE
5
157
100
AcDbEntity
8
0
100
AcDbLine
10
-279.99999999999994
20
311.39999998510734
30
0
11
-279.99999582767492
21
310.000004991889
31
0
0
LINE
5
158
100
AcDbEntity
8
0
100
AcDbLine
10
-279.99999582767492
20
310.000004991889
30
0
11
-279.99999999999994
21
-247.30000000000007
31
0
0
ARC
5
159
100
AcDbEntity
8
0
100
AcDbCircle
10
-275.30000000000001
20
-247.30000000000004
30
0
40
4.6999999999999531
210
0
220
0
230
1
100
AcDbArc
50
180
51
270
0
LINE
5
160
100
AcDbEntity
8
0
100
AcDbLine
10
-275.30000000000001
20
-252.00000000000003
30
0
11
-214.70000000000041
21
-252.00000159442413
31
0
0
ENDSEC
0
SECTION
2
OBJECTS
0
DICTIONARY
5
C
100
AcDbDictionary
3
ACAD_GROUP
350
D
3
ACAD_MLINESTYLE
350
17
0
DICTIONARY
5
D
100
AcDbDictionary
0
DICTIONARY
5
1A
330
C
100
AcDbDictionary
0
DICTIONARY
5
17
100
AcDbDictionary
0
ENDSEC
0
EOF
