0
SECTION
2
HEADER
9
$INSUNITS
70
4
9
$ACADVER
1
AC1014
9
$HANDSEED
5
FFFF
0
ENDSEC
0
SECTION
2
TABLES
0
TABLE
2
VPORT
5
8
100
AcDbSymbolTable
0
ENDTAB
0
TABLE
2
LTYPE
5
5
100
AcDbSymbolTable
0
LTYPE
5
14
100
AcDbSymbolTableRecord
100
AcDbLinetypeTableRecord
2
BYBLOCK
70
0
0
LTYPE
5
15
100
AcDbSymbolTableRecord
100
AcDbLinetypeTableRecord
2
BYLAYER
70
0
0
LTYPE
5
16
100
AcDbSymbolTableRecord
100
AcDbLinetypeTableRecord
2
DASHED
70
0
3
Dashed __ __ __ __ __ __ __ __ __ __ __ __ __ _
72
65
73
2
40
0.75
49
0.5
74
0
49
-0.25
74
0
0
ENDTAB
0
TABLE
2
LAYER
5
2
100
AcDbSymbolTable
70
2
0
LAYER
5
50
100
AcDbSymbolTableRecord
100
AcDbLayerTableRecord
2
0
70
0
62
7
6
CONTINUOUS
0
ENDTAB
0
TABLE
2
STYLE
5
3
100
AcDbSymbolTable
70
1
0
STYLE
5
11
100
AcDbSymbolTableRecord
100
AcDbTextStyleTableRecord
2
STANDARD
70
0
0
ENDTAB
0
TABLE
2
VIEW
5
6
100
AcDbSymbolTable
70
0
0
ENDTAB
0
TABLE
2
UCS
5
7
100
AcDbSymbolTable
70
0
0
ENDTAB
0
TABLE
2
APPID
5
9
100
AcDbSymbolTable
70
2
0
APPID
5
12
100
AcDbSymbolTableRecord
100
AcDbRegAppTableRecord
2
ACAD
70
0
0
ENDTAB
0
TABLE
2
DIMSTYLE
5
A
100
AcDbSymbolTable
70
1
0
ENDTAB
0
TABLE
2
BLOCK_RECORD
5
1
100
AcDbSymbolTable
70
1
0
BLOCK_RECORD
5
1F
100
AcDbSymbolTableRecord
100
AcDbBlockTableRecord
2
*MODEL_SPACE
0
BLOCK_RECORD
5
1B
100
AcDbSymbolTableRecord
100
AcDbBlockTableRecord
2
*PAPER_SPACE
0
ENDTAB
0
ENDSEC
0
SECTION
2
BLOCKS
0
BLOCK
5
20
100
AcDbEntity
100
AcDbBlockBegin
2
*MODEL_SPACE
0
ENDBLK
5
21
100
AcDbEntity
100
AcDbBlockEnd
0
BLOCK
5
1C
100
AcDbEntity
100
AcDbBlockBegin
2
*PAPER_SPACE
0
ENDBLK
5
1D
100
AcDbEntity
100
AcDbBlockEnd
0
ENDSEC
0
SECTION
2
ENTITIES
0
LWPOLYLINE
5
100
100
AcDbEntity
8
0
100
AcDbPolyline
90
6
70
1
43
0.0
10
301.10288568295971
20
236.87306680995766
10
301.10288568295937
20
241.37306680995766
10
304.9999999999892
20
243.62306680995795
10
308.89711431701932
20
241.3730668099582
10
308.89711431701966
20
236.8730668099582
10
304.99999999998983
20
234.62306680995795
0
LWPOLYLINE
5
101
100
AcDbEntity
8
0
100
AcDbPolyline
90
6
70
1
43
0.0
10
306.35288568296039
20
227.77980007022148
10
306.35288568296011
20
232.27980007022148
10
310.24999999998988
20
234.52980007022174
10
314.14711431702005
20
232.279800070222
10
314.14711431702034
20
227.779800070222
10
310.24999999999056
20
225.52980007022174
0
LWPOLYLINE
5
102
100
AcDbEntity
8
0
100
AcDbPolyline
90
6
70
1
43
0.0
10
316.85288568296039
20
227.77980007022225
10
316.85288568296011
20
232.27980007022225
10
320.74999999998994
20
234.52980007022251
10
324.64711431702
20
232.27980007022279
10
324.6471143170204
20
227.77980007022279
10
320.74999999999051
20
225.52980007022254
0
LWPOLYLINE
5
103
100
AcDbEntity
8
0
100
AcDbPolyline
90
6
70
1
43
0.0
10
295.85288568295903
20
245.96633354969387
10
295.85288568295869
20
250.46633354969387
10
299.74999999998852
20
252.71633354969413
10
303.64711431701863
20
250.46633354969441
10
303.64711431701897
20
245.96633354969441
10
299.74999999998914
20
243.71633354969416
0
LWPOLYLINE
5
104
100
AcDbEntity
8
0
100
AcDbPolyline
90
6
70
1
43
0.0
10
290.60288568295834
20
255.05960028943008
10
290.602885682958
20
259.55960028943008
10
294.49999999998784
20
261.80960028943036
10
298.39711431701795
20
259.55960028943059
10
298.39711431701824
20
255.05960028943062
10
294.49999999998846
20
252.80960028943036
0
LWPOLYLINE
5
105
100
AcDbEntity
8
0
100
AcDbPolyline
90
6
70
1
43
0.0
10
301.10288568295834
20
255.05960028943088
10
301.102885682958
20
259.55960028943088
10
304.99999999998784
20
261.8096002894311
10
308.89711431701795
20
259.55960028943139
10
308.89711431701824
20
255.05960028943139
10
304.99999999998846
20
252.80960028943113
0
LWPOLYLINE
5
106
100
AcDbEntity
8
0
100
AcDbPolyline
90
6
70
1
43
0.0
10
311.60288568295971
20
236.87306680995846
10
311.60288568295937
20
241.37306680995846
10
315.4999999999892
20
243.62306680995871
10
319.39711431701932
20
241.37306680995897
10
319.39711431701966
20
236.873066809959
10
315.49999999998983
20
234.62306680995874
0
LWPOLYLINE
5
107
100
AcDbEntity
8
0
100
AcDbPolyline
90
6
70
1
43
0.0
10
306.35288568295903
20
245.96633354969467
10
306.35288568295869
20
250.46633354969464
10
310.24999999998852
20
252.71633354969492
10
314.14711431701863
20
250.46633354969518
10
314.14711431701897
20
245.96633354969521
10
310.24999999998914
20
243.71633354969492
0
LWPOLYLINE
5
108
100
AcDbEntity
8
0
100
AcDbPolyline
90
6
70
1
43
0.0
10
316.85288568295903
20
245.96633354969541
10
316.85288568295869
20
250.46633354969541
10
320.74999999998852
20
252.71633354969566
10
324.64711431701858
20
250.46633354969595
10
324.64711431701903
20
245.96633354969595
10
320.74999999998914
20
243.71633354969566
0
LWPOLYLINE
5
109
100
AcDbEntity
8
0
100
AcDbPolyline
90
6
70
1
43
0.0
10
311.60288568295834
20
255.05960028943161
10
311.602885682958
20
259.55960028943161
10
315.49999999998784
20
261.8096002894319
10
319.39711431701795
20
259.55960028943213
10
319.39711431701829
20
255.05960028943218
10
315.49999999998846
20
252.8096002894319
0
LWPOLYLINE
5
110
100
AcDbEntity
8
0
100
AcDbPolyline
90
6
70
1
43
0.0
10
295.85288568296602
20
155.03366615232804
10
295.85288568296568
20
159.53366615232801
10
299.74999999999551
20
161.78366615232829
10
303.64711431702563
20
159.53366615232855
10
303.64711431702597
20
155.03366615232858
10
299.74999999999613
20
152.78366615232829
0
LWPOLYLINE
5
111
100
AcDbEntity
8
0
100
AcDbPolyline
90
6
70
1
43
0.0
10
311.6028856829667
20
145.94039941259263
10
311.60288568296642
20
150.4403994125926
10
315.49999999999619
20
152.69039941259285
10
319.39711431702631
20
150.44039941259314
10
319.39711431702665
20
145.94039941259314
10
315.49999999999682
20
143.69039941259288
0
LWPOLYLINE
5
112
100
AcDbEntity
8
0
100
AcDbPolyline
90
6
70
1
43
0.0
10
290.60288568296534
20
164.12693289206425
10
290.602885682965
20
168.62693289206422
10
294.49999999999483
20
170.87693289206447
10
298.39711431702494
20
168.62693289206476
10
298.39711431702528
20
164.12693289206476
10
294.49999999999545
20
161.8769328920645
0
LWPOLYLINE
5
113
100
AcDbEntity
8
0
100
AcDbPolyline
90
6
70
1
43
0.0
10
285.3528856829646
20
173.22019963180043
10
285.35288568296431
20
177.72019963180043
10
289.24999999999409
20
179.97019963180068
10
293.14711431702426
20
177.72019963180097
10
293.14711431702455
20
173.22019963180097
10
289.24999999999477
20
170.97019963180071
0
LWPOLYLINE
5
114
100
AcDbEntity
8
0
100
AcDbPolyline
90
6
70
1
43
0.0
10
295.8528856829646
20
173.22019963180122
10
295.85288568296431
20
177.72019963180122
10
299.74999999999409
20
179.97019963180148
10
303.64711431702426
20
177.72019963180173
10
303.64711431702455
20
173.22019963180173
10
299.74999999999477
20
170.97019963180148
0
LWPOLYLINE
5
115
100
AcDbEntity
8
0
100
AcDbPolyline
90
6
70
1
43
0.0
10
306.35288568296602
20
155.03366615232881
10
306.35288568296568
20
159.53366615232881
10
310.24999999999551
20
161.78366615232906
10
314.14711431702563
20
159.53366615232935
10
314.14711431702597
20
155.03366615232935
10
310.24999999999613
20
152.78366615232909
0
LWPOLYLINE
5
116
100
AcDbEntity
8
0
100
AcDbPolyline
90
6
70
1
43
0.0
10
301.10288568296534
20
164.12693289206501
10
301.102885682965
20
168.62693289206501
10
304.99999999999483
20
170.87693289206527
10
308.89711431702494
20
168.62693289206555
10
308.89711431702528
20
164.12693289206555
10
304.99999999999545
20
161.87693289206527
0
LWPOLYLINE
5
117
100
AcDbEntity
8
0
100
AcDbPolyline
90
6
70
1
43
0.0
10
316.85288568296602
20
155.03366615232957
10
316.85288568296573
20
159.53366615232957
10
320.74999999999545
20
161.78366615232983
10
324.64711431702568
20
159.53366615233011
10
324.64711431702597
20
155.03366615233011
10
320.74999999999619
20
152.78366615232986
0
LWPOLYLINE
5
118
100
AcDbEntity
8
0
100
AcDbPolyline
90
6
70
1
43
0.0
10
290.60288568296392
20
182.3134663715374
10
290.60288568296363
20
186.8134663715374
10
294.49999999999341
20
189.06346637153769
10
298.39711431702358
20
186.81346637153794
10
298.39711431702386
20
182.31346637153794
10
294.49999999999409
20
180.06346637153769
0
LWPOLYLINE
5
119
100
AcDbEntity
8
0
100
AcDbPolyline
90
6
70
1
43
0.0
10
285.35288568296318
20
191.40673311127361
10
285.35288568296289
20
195.90673311127361
10
289.24999999999272
20
198.15673311127387
10
293.14711431702284
20
195.90673311127415
10
293.14711431702318
20
191.40673311127415
10
289.24999999999335
20
189.15673311127389
0
LWPOLYLINE
5
120
100
AcDbEntity
8
0
100
AcDbPolyline
90
6
70
1
43
0.0
10
301.10288568296392
20
182.31346637153817
10
301.10288568296357
20
186.81346637153814
10
304.99999999999341
20
189.06346637153842
10
308.89711431702352
20
186.81346637153868
10
308.89711431702386
20
182.31346637153871
10
304.99999999999403
20
180.06346637153842
0
LWPOLYLINE
5
121
100
AcDbEntity
8
0
100
AcDbPolyline
90
6
70
1
43
0.0
10
311.60288568296534
20
164.12693289206575
10
311.602885682965
20
168.62693289206575
10
315.49999999999483
20
170.87693289206601
10
319.39711431702494
20
168.62693289206629
10
319.39711431702528
20
164.12693289206629
10
315.49999999999545
20
161.87693289206604
0
LWPOLYLINE
5
122
100
AcDbEntity
8
0
100
AcDbPolyline
90
6
70
1
43
0.0
10
306.35288568296465
20
173.22019963180196
10
306.35288568296431
20
177.72019963180196
10
310.24999999999409
20
179.97019963180222
10
314.14711431702426
20
177.72019963180247
10
314.14711431702455
20
173.2201996318025
10
310.24999999999471
20
170.97019963180225
0
LWPOLYLINE
5
123
100
AcDbEntity
8
0
100
AcDbPolyline
90
6
70
1
43
0.0
10
285.35288568296181
20
209.59326659074677
10
285.35288568296147
20
214.09326659074677
10
289.2499999999913
20
216.34326659074702
10
293.14711431702142
20
214.09326659074731
10
293.14711431702176
20
209.59326659074731
10
289.24999999999193
20
207.34326659074702
0
LWPOLYLINE
5
124
100
AcDbEntity
8
0
100
AcDbPolyline
90
6
70
1
43
0.0
10
295.85288568296323
20
191.40673311127438
10
295.85288568296289
20
195.90673311127435
10
299.74999999999272
20
198.1567331112746
10
303.64711431702284
20
195.90673311127489
10
303.64711431702312
20
191.40673311127489
10
299.74999999999335
20
189.15673311127463
0
LWPOLYLINE
5
125
100
AcDbEntity
8
0
100
AcDbPolyline
90
6
70
1
43
0.0
10
290.60288568296249
20
200.49999985101056
10
290.60288568296221
20
204.99999985101056
10
294.49999999999199
20
207.24999985101081
10
298.3971143170221
20
204.9999998510111
10
298.39711431702244
20
200.4999998510111
10
294.49999999999261
20
198.24999985101084
0
LWPOLYLINE
5
126
100
AcDbEntity
8
0
100
AcDbPolyline
90
6
70
1
43
0.0
10
306.35288568296323
20
191.40673311127514
10
306.35288568296289
20
195.90673311127514
10
310.24999999999272
20
198.1567331112754
10
314.14711431702284
20
195.90673311127568
10
314.14711431702312
20
191.40673311127568
10
310.24999999999335
20
189.1567331112754
0
LWPOLYLINE
5
127
100
AcDbEntity
8
0
100
AcDbPolyline
90
6
70
1
43
0.0
10
316.8528856829646
20
173.22019963180276
10
316.85288568296426
20
177.72019963180273
10
320.74999999999415
20
179.97019963180298
10
324.64711431702426
20
177.72019963180327
10
324.64711431702455
20
173.22019963180327
10
320.74999999999477
20
170.97019963180301
0
LWPOLYLINE
5
128
100
AcDbEntity
8
0
100
AcDbPolyline
90
6
70
1
43
0.0
10
311.60288568296392
20
182.31346637153894
10
311.60288568296357
20
186.81346637153894
10
315.49999999999341
20
189.06346637153919
10
319.39711431702352
20
186.81346637153948
10
319.39711431702386
20
182.31346637153948
10
315.49999999999403
20
180.06346637153922
0
LWPOLYLINE
5
129
100
AcDbEntity
8
0
100
AcDbPolyline
90
6
70
1
43
0.0
10
285.35288568296045
20
227.77980007021995
10
285.35288568296011
20
232.27980007021995
10
289.24999999998994
20
234.5298000702202
10
293.14711431702005
20
232.27980007022046
10
293.1471143170204
20
227.77980007022049
10
289.24999999999056
20
225.52980007022023
0
LWPOLYLINE
5
130
100
AcDbEntity
8
0
100
AcDbPolyline
90
6
70
1
43
0.0
10
295.85288568296181
20
209.59326659074753
10
295.85288568296153
20
214.09326659074753
10
299.7499999999913
20
216.34326659074782
10
303.64711431702142
20
214.09326659074807
10
303.64711431702176
20
209.59326659074807
10
299.74999999999193
20
207.34326659074782
0
LWPOLYLINE
5
131
100
AcDbEntity
8
0
100
AcDbPolyline
90
6
70
1
43
0.0
10
290.60288568296113
20
218.68653333048374
10
290.60288568296079
20
223.18653333048374
10
294.49999999999062
20
225.436533330484
10
298.39711431702074
20
223.18653333048428
10
298.39711431702108
20
218.68653333048428
10
294.49999999999125
20
216.43653333048402
0
LWPOLYLINE
5
132
100
AcDbEntity
8
0
100
AcDbPolyline
90
6
70
1
43
0.0
10
306.35288568296181
20
209.59326659074833
10
306.35288568296153
20
214.09326659074833
10
310.2499999999913
20
216.34326659074858
10
314.14711431702142
20
214.09326659074884
10
314.14711431702176
20
209.59326659074887
10
310.24999999999193
20
207.34326659074861
0
LWPOLYLINE
5
133
100
AcDbEntity
8
0
100
AcDbPolyline
90
6
70
1
43
0.0
10
316.85288568296323
20
191.40673311127591
10
316.85288568296289
20
195.90673311127591
10
320.74999999999272
20
198.1567331112762
10
324.64711431702284
20
195.90673311127645
10
324.64711431702312
20
191.40673311127645
10
320.74999999999335
20
189.1567331112762
0
LWPOLYLINE
5
134
100
AcDbEntity
8
0
100
AcDbPolyline
90
6
70
1
43
0.0
10
311.60288568296255
20
200.49999985101212
10
311.60288568296221
20
204.99999985101212
10
315.49999999999204
20
207.24999985101238
10
319.39711431702216
20
204.99999985101266
10
319.39711431702244
20
200.49999985101266
10
315.49999999999267
20
198.2499998510124
0
LWPOLYLINE
5
135
100
AcDbEntity
8
0
100
AcDbPolyline
90
6
70
1
43
0.0
10
290.60288568295971
20
236.87306680995692
10
290.60288568295937
20
241.37306680995692
10
294.4999999999892
20
243.62306680995718
10
298.39711431701932
20
241.37306680995746
10
298.39711431701966
20
236.87306680995746
10
294.49999999998983
20
234.62306680995721
0
LWPOLYLINE
5
136
100
AcDbEntity
8
0
100
AcDbPolyline
90
6
70
1
43
0.0
10
301.10288568296113
20
218.68653333048454
10
301.10288568296079
20
223.18653333048451
10
304.99999999999062
20
225.43653333048479
10
308.89711431702074
20
223.18653333048505
10
308.89711431702108
20
218.68653333048508
10
304.99999999999125
20
216.43653333048479
0
LWPOLYLINE
5
137
100
AcDbEntity
8
0
100
AcDbPolyline
90
6
70
1
43
0.0
10
295.85288568296039
20
227.77980007022074
10
295.85288568296005
20
232.27980007022072
10
299.74999999998994
20
234.52980007022097
10
303.64711431702
20
232.27980007022126
10
303.6471143170204
20
227.77980007022126
10
299.74999999999056
20
225.529800070221
0
LWPOLYLINE
5
138
100
AcDbEntity
8
0
100
AcDbPolyline
90
6
70
1
43
0.0
10
311.60288568296107
20
218.68653333048528
10
311.60288568296079
20
223.18653333048528
10
315.49999999999056
20
225.43653333048553
10
319.39711431702074
20
223.18653333048582
10
319.39711431702102
20
218.68653333048582
10
315.49999999999125
20
216.43653333048553
0
LWPOLYLINE
5
139
100
AcDbEntity
8
0
100
AcDbPolyline
90
6
70
1
43
0.0
10
285.35288568295903
20
245.9663335496931
10
285.35288568295869
20
250.4663335496931
10
289.24999999998852
20
252.71633354969339
10
293.14711431701863
20
250.46633354969362
10
293.14711431701892
20
245.96633354969367
10
289.24999999998914
20
243.71633354969339
0
LWPOLYLINE
5
140
100
AcDbEntity
8
0
100
AcDbPolyline
90
6
70
1
43
0.0
10
316.85288568296181
20
209.59326659074907
10
316.85288568296153
20
214.09326659074907
10
320.7499999999913
20
216.34326659074932
10
324.64711431702142
20
214.09326659074961
10
324.6471143170217
20
209.59326659074961
10
320.74999999999193
20
207.34326659074935
0
LWPOLYLINE
5
141
100
AcDbEntity
8
0
100
AcDbPolyline
90
5
70
1
43
0.0
10
310.24999999998778
20
261.90286702916808
10
306.35288568295761
20
264.15286702916785
10
306.35288568295732
20
267.74999985101169
10
314.14711431701727
20
267.74999985101169
10
314.14711431701755
20
264.15286702916836
0
LWPOLYLINE
5
142
100
AcDbEntity
8
0
100
AcDbPolyline
90
5
70
1
43
0.0
10
324.99999999999238
20
257.74999985101169
42
0.081138535854877736
10
324.48018987001103
20
260.93213750177335
10
322.102885682958
20
259.55960028943241
10
322.10288568295834
20
255.05960028943238
10
324.99999999999238
20
253.3869505586199
0
LWPOLYLINE
5
143
100
AcDbEntity
8
0
100
AcDbPolyline
90
4
70
1
43
0.0
10
322.10288568295937
20
241.3730668099592
10
324.99999999999238
20
243.04571654077159
10
324.99999999999238
20
235.20041707914754
10
322.10288568295965
20
236.8730668099592
0
LWPOLYLINE
5
144
100
AcDbEntity
8
0
100
AcDbPolyline
90
5
70
1
43
0.0
10
287.89711431701795
20
259.55960028942985
10
287.89711431701824
20
255.05960028942985
10
284.99999999999238
20
253.38695055862161
10
284.99999999999244
20
257.74999985101169
42
-0.081138535854695118
10
285.5198101299714
20
260.93213750176653
0
LWPOLYLINE
5
145
100
AcDbEntity
8
0
100
AcDbPolyline
90
4
70
1
43
0.0
10
287.89711431702074
20
223.18653333048348
10
287.89711431702108
20
218.68653333048354
10
284.99999999999238
20
217.01388359967368
10
284.99999999999238
20
224.85918306129267
0
LWPOLYLINE
5
146
100
AcDbEntity
8
0
100
AcDbPolyline
90
4
70
1
43
0.0
10
323.27694010420061
20
263.36179657856246
42
0.19974994798944967
10
316.85288568295732
20
267.57684139068567
10
316.85288568295761
20
264.15286702916859
10
320.74999999998772
20
261.90286702916887
0
LWPOLYLINE
5
147
100
AcDbEntity
8
0
100
AcDbPolyline
90
5
70
1
43
0.0
10
299.74999999998778
20
261.90286702916734
10
295.85288568295761
20
264.15286702916706
10
295.85288568295738
20
267.74999985101169
10
303.64711431701733
20
267.74999985101169
10
303.64711431701755
20
264.15286702916762
0
LWPOLYLINE
5
148
100
AcDbEntity
8
0
100
AcDbPolyline
90
4
70
1
43
0.0
10
293.14711431701733
20
267.57684139068385
42
0.19974994798936344
10
286.72305989578024
20
263.36179657855661
10
289.24999999998772
20
261.90286702916654
10
293.14711431701755
20
264.15286702916683
0
LWPOLYLINE
5
149
100
AcDbEntity
8
0
100
AcDbPolyline
90
4
70
1
43
0.0
10
287.89711431701937
20
241.37306680995667
10
287.89711431701966
20
236.8730668099567
10
284.99999999999238
20
235.2004170791476
10
284.99999999999238
20
243.04571654076506
0
LWPOLYLINE
5
150
100
AcDbEntity
8
0
100
AcDbPolyline
90
4
70
1
43
0.0
10
287.89711431702352
20
186.81346637153717
10
287.89711431702386
20
182.31346637153717
10
284.99999999999238
20
180.64081664072569
10
284.99999999999238
20
188.48611610234795
0
LWPOLYLINE
5
151
100
AcDbEntity
8
0
100
AcDbPolyline
90
5
70
1
43
0.0
10
303.64711431702705
20
141.34713267285539
10
303.64711431702733
20
137.74999985101167
10
295.85288568296738
20
137.74999985101167
10
295.8528856829671
20
141.34713267285485
10
299.74999999999687
20
143.59713267285511
0
LWPOLYLINE
5
152
100
AcDbEntity
8
0
100
AcDbPolyline
90
4
70
1
43
0.0
10
287.8971143170221
20
204.99999985101033
10
287.89711431702244
20
200.49999985101036
10
284.99999999999238
20
198.82735012019967
10
284.99999999999238
20
206.67264958182031
0
LWPOLYLINE
5
153
100
AcDbEntity
8
0
100
AcDbPolyline
90
4
70
1
43
0.0
10
287.89711431702494
20
168.62693289206402
10
287.89711431702523
20
164.12693289206402
10
284.99999999999238
20
162.45428316125171
10
284.99999999999238
20
170.29958262287556
0
LWPOLYLINE
5
154
100
AcDbEntity
8
0
100
AcDbPolyline
90
5
70
1
43
0.0
10
284.99999999999238
20
147.74999985101167
42
0.08113853585487589
10
285.51981012997368
20
144.56786220024998
10
287.89711431702665
20
145.94039941259084
10
287.89711431702636
20
150.44039941259084
10
284.99999999999238
20
152.11304914340323
0
LWPOLYLINE
5
155
100
AcDbEntity
8
0
100
AcDbPolyline
90
4
70
1
43
0.0
10
286.72305989578422
20
142.13820312346084
42
0.19974994798944173
10
293.14711431702727
20
137.92315831133766
10
293.14711431702705
20
141.34713267285463
10
289.24999999999693
20
143.59713267285434
0
LWPOLYLINE
5
156
100
AcDbEntity
8
0
100
AcDbPolyline
90
5
70
1
43
0.0
10
314.14711431702705
20
141.34713267285616
10
314.14711431702727
20
137.74999985101167
10
306.35288568296733
20
137.74999985101167
10
306.3528856829671
20
141.34713267285562
10
310.24999999999687
20
143.59713267285588
0
LWPOLYLINE
5
157
100
AcDbEntity
8
0
100
AcDbPolyline
90
5
70
1
43
0.0
10
322.10288568296642
20
150.44039941259337
10
324.99999999999238
20
152.11304914340172
10
324.99999999999238
20
147.74999985101167
42
-0.081138535854716018
10
324.48018987001331
20
144.5678622002566
10
322.10288568296676
20
145.94039941259337
0
LWPOLYLINE
5
158
100
AcDbEntity
8
0
100
AcDbPolyline
90
4
70
1
43
0.0
10
322.10288568296363
20
186.81346637153973
10
324.99999999999238
20
188.48611610234965
10
324.99999999999238
20
180.64081664073043
10
322.10288568296392
20
182.31346637153973
0
LWPOLYLINE
5
159
100
AcDbEntity
8
0
100
AcDbPolyline
90
4
70
1
43
0.0
10
316.85288568296733
20
137.92315831133951
10
316.8528856829671
20
141.34713267285639
10
320.74999999999693
20
143.59713267285667
10
323.27694010420481
20
142.13820312346638
42
-0.19974994798938972
0
LWPOLYLINE
5
160
100
AcDbEntity
8
0
100
AcDbPolyline
90
4
70
1
43
0.0
10
322.102885682965
20
168.62693289206652
10
324.99999999999238
20
170.29958262287568
10
324.99999999999238
20
162.4542831612581
10
322.10288568296534
20
164.12693289206655
0
LWPOLYLINE
5
161
100
AcDbEntity
8
0
100
AcDbPolyline
90
6
70
1
43
0.0
10
304.99999999999267
20
198.24999985101161
10
301.10288568296249
20
200.49999985101135
10
301.10288568296221
20
204.99999985101135
10
304.99999999999199
20
207.24999985101161
10
308.89711431702216
20
204.99999985101186
10
308.89711431702244
20
200.49999985101186
0
LWPOLYLINE
5
162
100
AcDbEntity
8
0
100
AcDbPolyline
90
4
70
1
43
0.0
10
322.10288568296221
20
204.99999985101286
10
324.99999999999238
20
206.67264958182363
10
324.99999999999238
20
198.82735012020279
10
322.10288568296249
20
200.49999985101289
0
LWPOLYLINE
5
163
100
AcDbEntity
8
0
100
AcDbPolyline
90
4
70
1
43
0.0
10
292.50000000014961
20
531.99999985100567
42
0.99999999999999989
10
317.49999999981287
20
531.99999985101749
10
317.49999999979235
20
547.99999985101749
42
0.99999999999999989
10
292.50000000014199
20
547.99999985100555
0
LWPOLYLINE
5
164
100
AcDbEntity
8
0
100
AcDbPolyline
90
6
70
1
43
0.0
10
285.35288568296602
20
155.03366615232727
10
285.35288568296568
20
159.53366615232727
10
289.24999999999551
20
161.78366615232756
10
293.14711431702563
20
159.53366615232781
10
293.14711431702597
20
155.03366615232781
10
289.24999999999613
20
152.78366615232756
0
LWPOLYLINE
5
165
100
AcDbEntity
8
0
100
AcDbPolyline
90
6
70
1
43
0.0
10
290.6028856829667
20
145.94039941259106
10
290.60288568296636
20
150.44039941259106
10
294.49999999999619
20
152.69039941259132
10
298.39711431702631
20
150.4403994125916
10
298.39711431702665
20
145.9403994125916
10
294.49999999999682
20
143.69039941259135
0
LWPOLYLINE
5
166
100
AcDbEntity
8
0
100
AcDbPolyline
90
6
70
1
43
0.0
10
301.1028856829667
20
145.94039941259183
10
301.10288568296642
20
150.44039941259183
10
304.99999999999619
20
152.69039941259209
10
308.89711431702631
20
150.44039941259234
10
308.89711431702665
20
145.94039941259237
10
304.99999999999682
20
143.69039941259211
0
LWPOLYLINE
5
167
100
AcDbEntity
8
0
100
AcDbPolyline
90
4
70
1
43
0.0
10
322.10288568296079
20
223.18653333048604
10
324.99999999999238
20
224.85918306129761
10
324.99999999999238
20
217.01388359967521
10
322.10288568296107
20
218.68653333048604
0
LWPOLYLINE
5
168
100
AcDbEntity
8
0
100
AcDbPolyline
90
8
70
1
43
0.0
10
334.49999999998158
20
597.49999985101169
42
0.41421356237309503
10
332.49999999998153
20
599.49999985101169
10
277.49999999998147
20
599.49999985101169
42
0.41421356237308982
10
275.49999999998147
20
597.49999985101169
10
275.49999999998147
20
104.74999985101164
42
0.41421356237309243
10
277.49999999998153
20
102.74999985101159
10
332.49999999998153
20
102.74999985101161
42
0.41421356237310542
10
334.49999999998158
20
104.74999985101161
0
ENDSEC
0
SECTION
2
OBJECTS
0
DICTIONARY
5
C
100
AcDbDictionary
3
ACAD_GROUP
350
D
3
ACAD_MLINESTYLE
350
17
0
DICTIONARY
5
D
100
AcDbDictionary
0
DICTIONARY
5
1A
330
C
100
AcDbDictionary
0
DICTIONARY
5
17
100
AcDbDictionary
0
ENDSEC
0
EOF
