0
SECTION
2
HEADER
9
$INSUNITS
70
4
9
$ACADVER
1
AC1014
9
$HANDSEED
5
FFFF
0
ENDSEC
0
SECTION
2
TABLES
0
TABLE
2
VPORT
5
8
100
AcDbSymbolTable
0
ENDTAB
0
TABLE
2
LTYPE
5
5
100
AcDbSymbolTable
0
LTYPE
5
14
100
AcDbSymbolTableRecord
100
AcDbLinetypeTableRecord
2
BYBLOCK
70
0
0
LTYPE
5
15
100
AcDbSymbolTableRecord
100
AcDbLinetypeTableRecord
2
BYLAYER
70
0
0
LTYPE
5
16
100
AcDbSymbolTableRecord
100
AcDbLinetypeTableRecord
2
DASHED
70
0
3
Dashed __ __ __ __ __ __ __ __ __ __ __ __ __ _
72
65
73
2
40
0.75
49
0.5
74
0
49
-0.25
74
0
0
ENDTAB
0
TABLE
2
LAYER
5
2
100
AcDbSymbolTable
70
2
0
LAYER
5
50
100
AcDbSymbolTableRecord
100
AcDbLayerTableRecord
2
0
70
0
62
7
6
CONTINUOUS
0
ENDTAB
0
TABLE
2
STYLE
5
3
100
AcDbSymbolTable
70
1
0
STYLE
5
11
100
AcDbSymbolTableRecord
100
AcDbTextStyleTableRecord
2
STANDARD
70
0
0
ENDTAB
0
TABLE
2
VIEW
5
6
100
AcDbSymbolTable
70
0
0
ENDTAB
0
TABLE
2
UCS
5
7
100
AcDbSymbolTable
70
0
0
ENDTAB
0
TABLE
2
APPID
5
9
100
AcDbSymbolTable
70
2
0
APPID
5
12
100
AcDbSymbolTableRecord
100
AcDbRegAppTableRecord
2
ACAD
70
0
0
ENDTAB
0
TABLE
2
DIMSTYLE
5
A
100
AcDbSymbolTable
70
1
0
ENDTAB
0
TABLE
2
BLOCK_RECORD
5
1
100
AcDbSymbolTable
70
1
0
BLOCK_RECORD
5
1F
100
AcDbSymbolTableRecord
100
AcDbBlockTableRecord
2
*MODEL_SPACE
0
BLOCK_RECORD
5
1B
100
AcDbSymbolTableRecord
100
AcDbBlockTableRecord
2
*PAPER_SPACE
0
ENDTAB
0
ENDSEC
0
SECTION
2
BLOCKS
0
BLOCK
5
20
100
AcDbEntity
100
AcDbBlockBegin
2
*MODEL_SPACE
0
ENDBLK
5
21
100
AcDbEntity
100
AcDbBlockEnd
0
BLOCK
5
1C
100
AcDbEntity
100
AcDbBlockBegin
2
*PAPER_SPACE
0
ENDBLK
5
1D
100
AcDbEntity
100
AcDbBlockEnd
0
ENDSEC
0
SECTION
2
ENTITIES
0
SPLINE
5
100
100
AcDbEntity
8
0
100
AcDbSpline
70
0
71
3
72
10
73
6
74
0
42
0.000000001
43
0.0000000001
44
0.0000000001
40
0
40
0
40
0
40
0
40
0.44842597192635147
40
0.44842597192635147
40
0.89685194385270317
40
0.89685194385270317
40
0.89685194385270317
40
0.89685194385270317
10
-25.468359585691811
20
569.40710395539543
30
0
10
-24.231988995320958
20
570.24714860362701
30
0
10
-22.876968147405762
20
570.89768753393241
30
0
10
-20.019572062418376
20
571.77657126032921
30
0
10
-18.533179784763266
20
571.99999998510486
30
0
10
-17.038426545008761
20
571.99999998510486
30
0
0
SPLINE
5
101
100
AcDbEntity
8
0
100
AcDbSpline
70
0
71
3
72
11
73
7
74
0
42
0.000000001
43
0.0000000001
44
0.0000000001
40
-0.12290869573314328
40
-0.12290869573314328
40
-0.12290869573314328
40
-0.12290869573314328
40
0.3640872040655021
40
0.3640872040655021
40
0.3640872040655021
40
0.42361012469170112
40
0.42361012469170112
40
0.42361012469170112
40
0.42361012469170112
10
-25.468359585691907
20
569.40710395539566
30
0
10
-26.960997725541468
20
568.39293984400979
30
0
10
-28.717738633909132
20
567.78038358175263
30
0
10
-30.53572040636719
20
567.66416186472929
30
0
10
-30.757922656502434
20
567.64995670193366
30
0
10
-30.980929813404259
20
567.64285711305308
30
0
10
-31.204330833956014
20
567.64285711305308
30
0
0
LINE
5
102
100
AcDbEntity
8
0
100
AcDbLine
10
-31.204330833956014
20
567.64285711305308
30
0
11
-108.79566916604325
21
567.64285711305308
31
0
0
SPLINE
5
103
100
AcDbEntity
8
0
100
AcDbSpline
70
0
71
3
72
14
73
10
74
0
42
0.000000001
43
0.0000000001
44
0.0000000001
40
-0.42361012469169884
40
-0.42361012469169884
40
-0.42361012469169884
40
-0.42361012469169884
40
0.26094934112305063
40
0.26094934112305063
40
0.26094934112305063
40
0.97995581553202227
40
0.97995581553202227
40
0.97995581553202227
40
1.0645546481902151
40
1.0645546481902151
40
1.0645546481902151
40
1.0645546481902151
10
-108.79566916604325
20
567.64285711305308
30
0
10
-111.36495309368814
20
567.64285711305308
30
0
10
-113.871037179399
20
568.62344851269768
30
0
10
-115.73304933537628
20
570.3634298078847
30
0
10
-117.68875787850843
20
572.19096690154095
30
0
10
-118.91323305483698
20
574.83146217004889
30
0
10
-119.13876741453365
20
577.63129634530901
30
0
10
-119.16530395381911
20
577.96072690163089
30
0
10
-119.17857144347218
20
578.29219668201597
30
0
10
-119.17857144347218
20
578.62455118462753
30
0
0
LINE
5
104
100
AcDbEntity
8
0
100
AcDbLine
10
-119.17857144347218
20
578.62455118462765
30
0
11
-119.17857144347212
21
603.59999998510864
31
0
0
ARC
5
105
100
AcDbEntity
8
0
100
AcDbCircle
10
-121.17857144347218
20
603.59999998510864
30
0
40
2.0000000000000462
210
0
220
0
230
1
100
AcDbArc
50
0
51
89.999999999994301
0
LINE
5
106
100
AcDbEntity
8
0
100
AcDbLine
10
-121.17857144347198
20
605.59999998510864
30
0
11
-245.49999634921539
21
605.59999998511773
31
0
0
ARC
5
107
100
AcDbEntity
8
0
100
AcDbCircle
10
-245.49999634921556
20
603.59999998511762
30
0
40
2.0000000000000284
210
0
220
-0
230
1
100
AcDbArc
50
89.999999999995111
51
180
0
LINE
5
108
100
AcDbEntity
8
0
100
AcDbLine
10
-247.49999634921556
20
603.59999998511762
30
0
11
-247.49999634921556
21
16.399999985080029
31
0
0
ARC
5
109
100
AcDbEntity
8
0
100
AcDbCircle
10
-245.49999634921562
20
16.399999985080008
30
0
40
1.9999999999999574
210
0
220
0
230
1
100
AcDbArc
50
180
51
270.00000000000409
0
LINE
5
110
100
AcDbEntity
8
0
100
AcDbLine
10
-245.49999634921548
20
14.399999985080015
30
0
11
325.49999634921608
21
14.399999985121639
31
0
0
ARC
5
111
100
AcDbEntity
8
0
100
AcDbCircle
10
325.49999634921596
20
16.399999985121667
30
0
40
2.0000000000000284
210
0
220
0
230
1
100
AcDbArc
50
-89.999999999996746
51
0
0
LINE
5
112
100
AcDbEntity
8
0
100
AcDbLine
10
327.49999634921602
20
16.399999985121781
30
0
11
327.49999634917339
21
603.59999998507624
31
0
0
ARC
5
113
100
AcDbEntity
8
0
100
AcDbCircle
10
325.49999634917327
20
603.59999998507601
30
0
40
2.0000000000000995
210
0
220
-0
230
1
100
AcDbArc
50
0
51
89.999999999993491
0
LINE
5
114
100
AcDbEntity
8
0
100
AcDbLine
10
325.4999963491735
20
605.59999998507612
30
0
11
8.4999999999985931
21
605.5999999850992
31
0
0
ARC
5
115
100
AcDbEntity
8
0
100
AcDbCircle
10
8.4999999999984439
20
603.5999999850992
30
0
40
2.0000000000000284
210
0
220
-0
230
1
100
AcDbArc
50
89.999999999995737
51
180
0
LINE
5
116
100
AcDbEntity
8
0
100
AcDbLine
10
6.4999999999984155
20
603.5999999850992
30
0
11
6.4999999999984528
21
576.99999998510486
31
0
0
ARC
5
117
100
AcDbEntity
8
0
100
AcDbCircle
10
1.4999999999985003
20
576.99999998510475
30
0
40
4.9999999999999289
210
0
220
0
230
1
100
AcDbArc
50
-90.000000000000611
51
0
0
LINE
5
118
100
AcDbEntity
8
0
100
AcDbLine
10
1.4999999999984488
20
571.99999998510486
30
0
11
-17.038426545008761
21
571.99999998510486
31
0
0
CIRCLE
5
119
100
AcDbEntity
8
0
100
AcDbCircle
10
141.49999634921613
20
128.39999998512178
30
0
40
1.7500000000000071
210
0
220
-0
230
1
0
CIRCLE
5
120
100
AcDbEntity
8
0
100
AcDbCircle
10
141.49999634921613
20
200.39999998512178
30
0
40
1.7500000000000071
210
0
220
-0
230
1
0
LWPOLYLINE
5
121
100
AcDbEntity
8
0
100
AcDbPolyline
90
8
70
1
43
0.0
10
142.49999634921613
20
132.39999998512178
10
142.49999634921613
20
196.39999998512178
10
145.49999634921616
20
199.39999998512178
10
209.49999634921613
20
199.39999998512178
10
212.49999634921613
20
196.39999998512178
10
212.49999634921613
20
132.39999998512178
10
209.49999634921613
20
129.39999998512178
10
145.49999634921616
20
129.39999998512178
0
CIRCLE
5
122
100
AcDbEntity
8
0
100
AcDbCircle
10
213.49999634921616
20
200.39999998512178
30
0
40
1.7499999999999716
210
0
220
-0
230
1
0
CIRCLE
5
123
100
AcDbEntity
8
0
100
AcDbCircle
10
213.49999634921616
20
128.39999998512178
30
0
40
1.7500000000000071
210
0
220
-0
230
1
0
ENDSEC
0
SECTION
2
OBJECTS
0
DICTIONARY
5
C
100
AcDbDictionary
3
ACAD_GROUP
350
D
3
ACAD_MLINESTYLE
350
17
0
DICTIONARY
5
D
100
AcDbDictionary
0
DICTIONARY
5
1A
330
C
100
AcDbDictionary
0
DICTIONARY
5
17
100
AcDbDictionary
0
ENDSEC
0
EOF
