0
SECTION
2
HEADER
9
$INSUNITS
70
4
9
$ACADVER
1
AC1014
9
$HANDSEED
5
FFFF
0
ENDSEC
0
SECTION
2
TABLES
0
TABLE
2
VPORT
5
8
100
AcDbSymbolTable
0
ENDTAB
0
TABLE
2
LTYPE
5
5
100
AcDbSymbolTable
0
LTYPE
5
14
100
AcDbSymbolTableRecord
100
AcDbLinetypeTableRecord
2
BYBLOCK
70
0
0
LTYPE
5
15
100
AcDbSymbolTableRecord
100
AcDbLinetypeTableRecord
2
BYLAYER
70
0
0
LTYPE
5
16
100
AcDbSymbolTableRecord
100
AcDbLinetypeTableRecord
2
DASHED
70
0
3
Dashed __ __ __ __ __ __ __ __ __ __ __ __ __ _
72
65
73
2
40
0.75
49
0.5
74
0
49
-0.25
74
0
0
ENDTAB
0
TABLE
2
LAYER
5
2
100
AcDbSymbolTable
70
2
0
LAYER
5
50
100
AcDbSymbolTableRecord
100
AcDbLayerTableRecord
2
0
70
0
62
7
6
CONTINUOUS
0
ENDTAB
0
TABLE
2
STYLE
5
3
100
AcDbSymbolTable
70
1
0
STYLE
5
11
100
AcDbSymbolTableRecord
100
AcDbTextStyleTableRecord
2
STANDARD
70
0
0
ENDTAB
0
TABLE
2
VIEW
5
6
100
AcDbSymbolTable
70
0
0
ENDTAB
0
TABLE
2
UCS
5
7
100
AcDbSymbolTable
70
0
0
ENDTAB
0
TABLE
2
APPID
5
9
100
AcDbSymbolTable
70
2
0
APPID
5
12
100
AcDbSymbolTableRecord
100
AcDbRegAppTableRecord
2
ACAD
70
0
0
ENDTAB
0
TABLE
2
DIMSTYLE
5
A
100
AcDbSymbolTable
70
1
0
ENDTAB
0
TABLE
2
BLOCK_RECORD
5
1
100
AcDbSymbolTable
70
1
0
BLOCK_RECORD
5
1F
100
AcDbSymbolTableRecord
100
AcDbBlockTableRecord
2
*MODEL_SPACE
0
BLOCK_RECORD
5
1B
100
AcDbSymbolTableRecord
100
AcDbBlockTableRecord
2
*PAPER_SPACE
0
ENDTAB
0
ENDSEC
0
SECTION
2
BLOCKS
0
BLOCK
5
20
100
AcDbEntity
100
AcDbBlockBegin
2
*MODEL_SPACE
0
ENDBLK
5
21
100
AcDbEntity
100
AcDbBlockEnd
0
BLOCK
5
1C
100
AcDbEntity
100
AcDbBlockBegin
2
*PAPER_SPACE
0
ENDBLK
5
1D
100
AcDbEntity
100
AcDbBlockEnd
0
ENDSEC
0
SECTION
2
ENTITIES
0
CIRCLE
5
100
100
AcDbEntity
8
0
100
AcDbCircle
10
252.49999999996916
20
585.75
30
0
40
1.7499999999999716
210
-7.0967196319200822e-87
220
-1.5748224439288766e-138
230
1
0
CIRCLE
5
101
100
AcDbEntity
8
0
100
AcDbCircle
10
252.49999999996916
20
36.250000000000071
30
0
40
1.7500000000000071
210
-7.096719631920083e-87
220
-1.5748224439288768e-138
230
1
0
CIRCLE
5
102
100
AcDbEntity
8
0
100
AcDbCircle
10
245.24999999996913
20
593
30
0
40
1.7500000000000071
210
-7.096719631920083e-87
220
-1.5748224439288768e-138
230
1
0
CIRCLE
5
103
100
AcDbEntity
8
0
100
AcDbCircle
10
245.24999999996913
20
29.000000000000057
30
0
40
1.7500000000000071
210
-7.096719631920083e-87
220
-1.5748224439288768e-138
230
1
0
LWPOLYLINE
5
104
100
AcDbEntity
8
0
100
AcDbPolyline
90
24
70
1
43
0.0
10
31.00000001490104
20
24.999989888891538
42
0.41421356237309609
10
33.50000001490104
20
22.499989888891538
10
245.95494509469151
20
22.499989888891605
42
0.54648748661594637
10
247.77305987615992
20
25.333323288452817
42
-0.32522227575002344
10
248.14534279299923
20
27.178470882292203
10
254.41778787326535
20
32.938526502094923
42
-0.28896916743107226
10
256.09701486308387
20
33.244489332084015
42
0.53120116132930006
10
258.49999999999682
20
34.868103177938522
10
258.50000000000028
20
587.13188470045316
42
0.53120116132929907
10
256.09701443969755
20
588.75550038653
42
-0.28896909017310518
10
254.4177878732653
20
589.06146338679696
10
248.14534279299923
20
594.8215190065996
42
-0.32522227575011364
10
247.77305987616012
20
596.6666666004395
42
0.54648748661595792
10
245.95494509469245
20
599.49999999999636
10
63.499999999999943
20
599.50000000000023
42
0.41421356237307161
10
61.499999999999929
20
597.50000000000023
10
61.500000000003624
20
540.00000000000125
42
-0.41421356237303603
10
39.999999999999936
20
518.50000000000125
10
3.0000000149011052
20
518.50000000000125
42
0.41421356237310603
10
1.0000000149011443
20
516.50000000000114
10
1.0000000149010393
20
32.999989888891577
42
0.4142135623730952
10
3.5000000149010395
20
30.499989888891577
10
28.500000014901037
20
30.499989888891548
42
-0.41421356237309553
10
31.00000001490104
20
27.999989888891548
0
LWPOLYLINE
5
105
100
AcDbEntity
8
0
100
AcDbPolyline
90
4
70
1
43
0.0
10
9.4000000000000021
20
306.03613054160354
10
9.4000000000000057
20
315.9638694583964
42
-0.56001611624736447
10
25.599999999999994
20
315.96386945839629
10
25.600000000000005
20
306.03613054160371
42
-0.56001611624736458
0
CIRCLE
5
106
100
AcDbEntity
8
0
100
AcDbCircle
10
13.250000007450575
20
281.00000000000006
30
0
40
1.7500000000000071
210
-7.096719631920083e-87
220
-1.5748224439288768e-138
230
1
0
CIRCLE
5
107
100
AcDbEntity
8
0
100
AcDbCircle
10
13.250000007450568
20
341
30
0
40
1.7499999999999716
210
-7.0967196319200822e-87
220
-1.5748224439288766e-138
230
1
0
CIRCLE
5
108
100
AcDbEntity
8
0
100
AcDbCircle
10
69.000002548098706
20
547.75000000000114
30
0
40
1.7499999999999893
210
-7.096719631920083e-87
220
-1.5748224439288768e-138
230
1
0
CIRCLE
5
109
100
AcDbEntity
8
0
100
AcDbCircle
10
69.000002548098706
20
582.25000000000125
30
0
40
1.750000000000016
210
-7.096719631920083e-87
220
-1.5748224439288768e-138
230
1
0
CIRCLE
5
110
100
AcDbEntity
8
0
100
AcDbCircle
10
25.499999999999694
20
260.99999999999994
30
0
40
1.7499999999999716
210
-7.0967196319200822e-87
220
-1.5748224439288766e-138
230
1
0
CIRCLE
5
111
100
AcDbEntity
8
0
100
AcDbCircle
10
25.500000000000277
20
361
30
0
40
1.7499999999999716
210
-7.0967196319200822e-87
220
-1.5748224439288766e-138
230
1
0
ENDSEC
0
SECTION
2
OBJECTS
0
DICTIONARY
5
C
100
AcDbDictionary
3
ACAD_GROUP
350
D
3
ACAD_MLINESTYLE
350
17
0
DICTIONARY
5
D
100
AcDbDictionary
0
DICTIONARY
5
1A
330
C
100
AcDbDictionary
0
DICTIONARY
5
17
100
AcDbDictionary
0
ENDSEC
0
EOF
