%TF.GenerationSoftware,KiCad,Pcbnew,8.0.6*%
%TF.CreationDate,2025-04-13T07:27:20+01:00*%
%TF.ProjectId,fabrizio_project _Mainboard,66616272-697a-4696-9f5f-70726f6a6563,rev?*%
%TF.SameCoordinates,Original*%
%TF.FileFunction,Drillmap*%
%TF.FilePolarity,Positive*%
%FSLAX45Y45*%
G04 Gerber Fmt 4.5, Leading zero omitted, Abs format (unit mm)*
G04 Created by KiCad (PCBNEW 8.0.6) date 2025-04-13 07:27:20*
%MOMM*%
%LPD*%
G01*
G04 APERTURE LIST*
%ADD10C,0.050000*%
%ADD11C,0.200000*%
%ADD12C,0.100000*%
G04 APERTURE END LIST*
D10*
X5400000Y-12000000D02*
G75*
G02*
X5000000Y-11600000I0J400000D01*
G01*
X5000000Y-4400000D02*
X5000000Y-11600000D01*
X15600000Y-4000000D02*
X5400000Y-4000000D01*
X16000000Y-11600000D02*
G75*
G02*
X15600000Y-12000000I-400000J0D01*
G01*
X16000000Y-11600000D02*
X16000000Y-4400000D01*
X5000000Y-4400000D02*
G75*
G02*
X5400000Y-4000000I400000J0D01*
G01*
X15600000Y-4000000D02*
G75*
G02*
X16000000Y-4400000I0J-400000D01*
G01*
X5400000Y-12000000D02*
X15600000Y-12000000D01*
X9610500Y-4299500D02*
G75*
G02*
X9280500Y-4299500I-165000J0D01*
G01*
X9280500Y-4299500D02*
G75*
G02*
X9610500Y-4299500I165000J0D01*
G01*
X8360500Y-4299500D02*
G75*
G02*
X8030500Y-4299500I-165000J0D01*
G01*
X8030500Y-4299500D02*
G75*
G02*
X8360500Y-4299500I165000J0D01*
G01*
D11*
D12*
X11049642Y-10591605D02*
X11059642Y-10601605D01*
X11059642Y-10591605D02*
X11049642Y-10601605D01*
D11*
X5258277Y-12313984D02*
X5258277Y-12113984D01*
X5258277Y-12113984D02*
X5305896Y-12113984D01*
X5305896Y-12113984D02*
X5334467Y-12123508D01*
X5334467Y-12123508D02*
X5353515Y-12142555D01*
X5353515Y-12142555D02*
X5363039Y-12161603D01*
X5363039Y-12161603D02*
X5372563Y-12199698D01*
X5372563Y-12199698D02*
X5372563Y-12228269D01*
X5372563Y-12228269D02*
X5363039Y-12266365D01*
X5363039Y-12266365D02*
X5353515Y-12285412D01*
X5353515Y-12285412D02*
X5334467Y-12304460D01*
X5334467Y-12304460D02*
X5305896Y-12313984D01*
X5305896Y-12313984D02*
X5258277Y-12313984D01*
X5458277Y-12313984D02*
X5458277Y-12180650D01*
X5458277Y-12218746D02*
X5467801Y-12199698D01*
X5467801Y-12199698D02*
X5477324Y-12190174D01*
X5477324Y-12190174D02*
X5496372Y-12180650D01*
X5496372Y-12180650D02*
X5515420Y-12180650D01*
X5582086Y-12313984D02*
X5582086Y-12180650D01*
X5582086Y-12113984D02*
X5572563Y-12123508D01*
X5572563Y-12123508D02*
X5582086Y-12133031D01*
X5582086Y-12133031D02*
X5591610Y-12123508D01*
X5591610Y-12123508D02*
X5582086Y-12113984D01*
X5582086Y-12113984D02*
X5582086Y-12133031D01*
X5705896Y-12313984D02*
X5686848Y-12304460D01*
X5686848Y-12304460D02*
X5677324Y-12285412D01*
X5677324Y-12285412D02*
X5677324Y-12113984D01*
X5810658Y-12313984D02*
X5791610Y-12304460D01*
X5791610Y-12304460D02*
X5782086Y-12285412D01*
X5782086Y-12285412D02*
X5782086Y-12113984D01*
X6039229Y-12313984D02*
X6039229Y-12113984D01*
X6039229Y-12113984D02*
X6105896Y-12256841D01*
X6105896Y-12256841D02*
X6172562Y-12113984D01*
X6172562Y-12113984D02*
X6172562Y-12313984D01*
X6353515Y-12313984D02*
X6353515Y-12209222D01*
X6353515Y-12209222D02*
X6343991Y-12190174D01*
X6343991Y-12190174D02*
X6324943Y-12180650D01*
X6324943Y-12180650D02*
X6286848Y-12180650D01*
X6286848Y-12180650D02*
X6267801Y-12190174D01*
X6353515Y-12304460D02*
X6334467Y-12313984D01*
X6334467Y-12313984D02*
X6286848Y-12313984D01*
X6286848Y-12313984D02*
X6267801Y-12304460D01*
X6267801Y-12304460D02*
X6258277Y-12285412D01*
X6258277Y-12285412D02*
X6258277Y-12266365D01*
X6258277Y-12266365D02*
X6267801Y-12247317D01*
X6267801Y-12247317D02*
X6286848Y-12237793D01*
X6286848Y-12237793D02*
X6334467Y-12237793D01*
X6334467Y-12237793D02*
X6353515Y-12228269D01*
X6448753Y-12180650D02*
X6448753Y-12380650D01*
X6448753Y-12190174D02*
X6467801Y-12180650D01*
X6467801Y-12180650D02*
X6505896Y-12180650D01*
X6505896Y-12180650D02*
X6524943Y-12190174D01*
X6524943Y-12190174D02*
X6534467Y-12199698D01*
X6534467Y-12199698D02*
X6543991Y-12218746D01*
X6543991Y-12218746D02*
X6543991Y-12275888D01*
X6543991Y-12275888D02*
X6534467Y-12294936D01*
X6534467Y-12294936D02*
X6524943Y-12304460D01*
X6524943Y-12304460D02*
X6505896Y-12313984D01*
X6505896Y-12313984D02*
X6467801Y-12313984D01*
X6467801Y-12313984D02*
X6448753Y-12304460D01*
X6629705Y-12294936D02*
X6639229Y-12304460D01*
X6639229Y-12304460D02*
X6629705Y-12313984D01*
X6629705Y-12313984D02*
X6620182Y-12304460D01*
X6620182Y-12304460D02*
X6629705Y-12294936D01*
X6629705Y-12294936D02*
X6629705Y-12313984D01*
X6629705Y-12190174D02*
X6639229Y-12199698D01*
X6639229Y-12199698D02*
X6629705Y-12209222D01*
X6629705Y-12209222D02*
X6620182Y-12199698D01*
X6620182Y-12199698D02*
X6629705Y-12190174D01*
X6629705Y-12190174D02*
X6629705Y-12209222D01*
D12*
X4987500Y-12637500D02*
X4997500Y-12647500D01*
X4997500Y-12637500D02*
X4987500Y-12647500D01*
D11*
X5296372Y-12533984D02*
X5315420Y-12533984D01*
X5315420Y-12533984D02*
X5334467Y-12543508D01*
X5334467Y-12543508D02*
X5343991Y-12553031D01*
X5343991Y-12553031D02*
X5353515Y-12572079D01*
X5353515Y-12572079D02*
X5363039Y-12610174D01*
X5363039Y-12610174D02*
X5363039Y-12657793D01*
X5363039Y-12657793D02*
X5353515Y-12695888D01*
X5353515Y-12695888D02*
X5343991Y-12714936D01*
X5343991Y-12714936D02*
X5334467Y-12724460D01*
X5334467Y-12724460D02*
X5315420Y-12733984D01*
X5315420Y-12733984D02*
X5296372Y-12733984D01*
X5296372Y-12733984D02*
X5277324Y-12724460D01*
X5277324Y-12724460D02*
X5267801Y-12714936D01*
X5267801Y-12714936D02*
X5258277Y-12695888D01*
X5258277Y-12695888D02*
X5248753Y-12657793D01*
X5248753Y-12657793D02*
X5248753Y-12610174D01*
X5248753Y-12610174D02*
X5258277Y-12572079D01*
X5258277Y-12572079D02*
X5267801Y-12553031D01*
X5267801Y-12553031D02*
X5277324Y-12543508D01*
X5277324Y-12543508D02*
X5296372Y-12533984D01*
X5448753Y-12714936D02*
X5458277Y-12724460D01*
X5458277Y-12724460D02*
X5448753Y-12733984D01*
X5448753Y-12733984D02*
X5439229Y-12724460D01*
X5439229Y-12724460D02*
X5448753Y-12714936D01*
X5448753Y-12714936D02*
X5448753Y-12733984D01*
X5648753Y-12733984D02*
X5534467Y-12733984D01*
X5591610Y-12733984D02*
X5591610Y-12533984D01*
X5591610Y-12533984D02*
X5572563Y-12562555D01*
X5572563Y-12562555D02*
X5553515Y-12581603D01*
X5553515Y-12581603D02*
X5534467Y-12591127D01*
X5772562Y-12533984D02*
X5791610Y-12533984D01*
X5791610Y-12533984D02*
X5810658Y-12543508D01*
X5810658Y-12543508D02*
X5820182Y-12553031D01*
X5820182Y-12553031D02*
X5829705Y-12572079D01*
X5829705Y-12572079D02*
X5839229Y-12610174D01*
X5839229Y-12610174D02*
X5839229Y-12657793D01*
X5839229Y-12657793D02*
X5829705Y-12695888D01*
X5829705Y-12695888D02*
X5820182Y-12714936D01*
X5820182Y-12714936D02*
X5810658Y-12724460D01*
X5810658Y-12724460D02*
X5791610Y-12733984D01*
X5791610Y-12733984D02*
X5772562Y-12733984D01*
X5772562Y-12733984D02*
X5753515Y-12724460D01*
X5753515Y-12724460D02*
X5743991Y-12714936D01*
X5743991Y-12714936D02*
X5734467Y-12695888D01*
X5734467Y-12695888D02*
X5724943Y-12657793D01*
X5724943Y-12657793D02*
X5724943Y-12610174D01*
X5724943Y-12610174D02*
X5734467Y-12572079D01*
X5734467Y-12572079D02*
X5743991Y-12553031D01*
X5743991Y-12553031D02*
X5753515Y-12543508D01*
X5753515Y-12543508D02*
X5772562Y-12533984D01*
X5963039Y-12533984D02*
X5982086Y-12533984D01*
X5982086Y-12533984D02*
X6001134Y-12543508D01*
X6001134Y-12543508D02*
X6010658Y-12553031D01*
X6010658Y-12553031D02*
X6020182Y-12572079D01*
X6020182Y-12572079D02*
X6029705Y-12610174D01*
X6029705Y-12610174D02*
X6029705Y-12657793D01*
X6029705Y-12657793D02*
X6020182Y-12695888D01*
X6020182Y-12695888D02*
X6010658Y-12714936D01*
X6010658Y-12714936D02*
X6001134Y-12724460D01*
X6001134Y-12724460D02*
X5982086Y-12733984D01*
X5982086Y-12733984D02*
X5963039Y-12733984D01*
X5963039Y-12733984D02*
X5943991Y-12724460D01*
X5943991Y-12724460D02*
X5934467Y-12714936D01*
X5934467Y-12714936D02*
X5924943Y-12695888D01*
X5924943Y-12695888D02*
X5915420Y-12657793D01*
X5915420Y-12657793D02*
X5915420Y-12610174D01*
X5915420Y-12610174D02*
X5924943Y-12572079D01*
X5924943Y-12572079D02*
X5934467Y-12553031D01*
X5934467Y-12553031D02*
X5943991Y-12543508D01*
X5943991Y-12543508D02*
X5963039Y-12533984D01*
X6115420Y-12733984D02*
X6115420Y-12600650D01*
X6115420Y-12619698D02*
X6124943Y-12610174D01*
X6124943Y-12610174D02*
X6143991Y-12600650D01*
X6143991Y-12600650D02*
X6172563Y-12600650D01*
X6172563Y-12600650D02*
X6191610Y-12610174D01*
X6191610Y-12610174D02*
X6201134Y-12629222D01*
X6201134Y-12629222D02*
X6201134Y-12733984D01*
X6201134Y-12629222D02*
X6210658Y-12610174D01*
X6210658Y-12610174D02*
X6229705Y-12600650D01*
X6229705Y-12600650D02*
X6258277Y-12600650D01*
X6258277Y-12600650D02*
X6277324Y-12610174D01*
X6277324Y-12610174D02*
X6286848Y-12629222D01*
X6286848Y-12629222D02*
X6286848Y-12733984D01*
X6382086Y-12733984D02*
X6382086Y-12600650D01*
X6382086Y-12619698D02*
X6391610Y-12610174D01*
X6391610Y-12610174D02*
X6410658Y-12600650D01*
X6410658Y-12600650D02*
X6439229Y-12600650D01*
X6439229Y-12600650D02*
X6458277Y-12610174D01*
X6458277Y-12610174D02*
X6467801Y-12629222D01*
X6467801Y-12629222D02*
X6467801Y-12733984D01*
X6467801Y-12629222D02*
X6477324Y-12610174D01*
X6477324Y-12610174D02*
X6496372Y-12600650D01*
X6496372Y-12600650D02*
X6524943Y-12600650D01*
X6524943Y-12600650D02*
X6543991Y-12610174D01*
X6543991Y-12610174D02*
X6553515Y-12629222D01*
X6553515Y-12629222D02*
X6553515Y-12733984D01*
X6943991Y-12524460D02*
X6772563Y-12781603D01*
X7201134Y-12533984D02*
X7220182Y-12533984D01*
X7220182Y-12533984D02*
X7239229Y-12543508D01*
X7239229Y-12543508D02*
X7248753Y-12553031D01*
X7248753Y-12553031D02*
X7258277Y-12572079D01*
X7258277Y-12572079D02*
X7267801Y-12610174D01*
X7267801Y-12610174D02*
X7267801Y-12657793D01*
X7267801Y-12657793D02*
X7258277Y-12695888D01*
X7258277Y-12695888D02*
X7248753Y-12714936D01*
X7248753Y-12714936D02*
X7239229Y-12724460D01*
X7239229Y-12724460D02*
X7220182Y-12733984D01*
X7220182Y-12733984D02*
X7201134Y-12733984D01*
X7201134Y-12733984D02*
X7182086Y-12724460D01*
X7182086Y-12724460D02*
X7172563Y-12714936D01*
X7172563Y-12714936D02*
X7163039Y-12695888D01*
X7163039Y-12695888D02*
X7153515Y-12657793D01*
X7153515Y-12657793D02*
X7153515Y-12610174D01*
X7153515Y-12610174D02*
X7163039Y-12572079D01*
X7163039Y-12572079D02*
X7172563Y-12553031D01*
X7172563Y-12553031D02*
X7182086Y-12543508D01*
X7182086Y-12543508D02*
X7201134Y-12533984D01*
X7353515Y-12714936D02*
X7363039Y-12724460D01*
X7363039Y-12724460D02*
X7353515Y-12733984D01*
X7353515Y-12733984D02*
X7343991Y-12724460D01*
X7343991Y-12724460D02*
X7353515Y-12714936D01*
X7353515Y-12714936D02*
X7353515Y-12733984D01*
X7486848Y-12533984D02*
X7505896Y-12533984D01*
X7505896Y-12533984D02*
X7524944Y-12543508D01*
X7524944Y-12543508D02*
X7534467Y-12553031D01*
X7534467Y-12553031D02*
X7543991Y-12572079D01*
X7543991Y-12572079D02*
X7553515Y-12610174D01*
X7553515Y-12610174D02*
X7553515Y-12657793D01*
X7553515Y-12657793D02*
X7543991Y-12695888D01*
X7543991Y-12695888D02*
X7534467Y-12714936D01*
X7534467Y-12714936D02*
X7524944Y-12724460D01*
X7524944Y-12724460D02*
X7505896Y-12733984D01*
X7505896Y-12733984D02*
X7486848Y-12733984D01*
X7486848Y-12733984D02*
X7467801Y-12724460D01*
X7467801Y-12724460D02*
X7458277Y-12714936D01*
X7458277Y-12714936D02*
X7448753Y-12695888D01*
X7448753Y-12695888D02*
X7439229Y-12657793D01*
X7439229Y-12657793D02*
X7439229Y-12610174D01*
X7439229Y-12610174D02*
X7448753Y-12572079D01*
X7448753Y-12572079D02*
X7458277Y-12553031D01*
X7458277Y-12553031D02*
X7467801Y-12543508D01*
X7467801Y-12543508D02*
X7486848Y-12533984D01*
X7677325Y-12533984D02*
X7696372Y-12533984D01*
X7696372Y-12533984D02*
X7715420Y-12543508D01*
X7715420Y-12543508D02*
X7724944Y-12553031D01*
X7724944Y-12553031D02*
X7734467Y-12572079D01*
X7734467Y-12572079D02*
X7743991Y-12610174D01*
X7743991Y-12610174D02*
X7743991Y-12657793D01*
X7743991Y-12657793D02*
X7734467Y-12695888D01*
X7734467Y-12695888D02*
X7724944Y-12714936D01*
X7724944Y-12714936D02*
X7715420Y-12724460D01*
X7715420Y-12724460D02*
X7696372Y-12733984D01*
X7696372Y-12733984D02*
X7677325Y-12733984D01*
X7677325Y-12733984D02*
X7658277Y-12724460D01*
X7658277Y-12724460D02*
X7648753Y-12714936D01*
X7648753Y-12714936D02*
X7639229Y-12695888D01*
X7639229Y-12695888D02*
X7629706Y-12657793D01*
X7629706Y-12657793D02*
X7629706Y-12610174D01*
X7629706Y-12610174D02*
X7639229Y-12572079D01*
X7639229Y-12572079D02*
X7648753Y-12553031D01*
X7648753Y-12553031D02*
X7658277Y-12543508D01*
X7658277Y-12543508D02*
X7677325Y-12533984D01*
X7810658Y-12533984D02*
X7934467Y-12533984D01*
X7934467Y-12533984D02*
X7867801Y-12610174D01*
X7867801Y-12610174D02*
X7896372Y-12610174D01*
X7896372Y-12610174D02*
X7915420Y-12619698D01*
X7915420Y-12619698D02*
X7924944Y-12629222D01*
X7924944Y-12629222D02*
X7934467Y-12648269D01*
X7934467Y-12648269D02*
X7934467Y-12695888D01*
X7934467Y-12695888D02*
X7924944Y-12714936D01*
X7924944Y-12714936D02*
X7915420Y-12724460D01*
X7915420Y-12724460D02*
X7896372Y-12733984D01*
X7896372Y-12733984D02*
X7839229Y-12733984D01*
X7839229Y-12733984D02*
X7820182Y-12724460D01*
X7820182Y-12724460D02*
X7810658Y-12714936D01*
X8029706Y-12733984D02*
X8067801Y-12733984D01*
X8067801Y-12733984D02*
X8086848Y-12724460D01*
X8086848Y-12724460D02*
X8096372Y-12714936D01*
X8096372Y-12714936D02*
X8115420Y-12686365D01*
X8115420Y-12686365D02*
X8124944Y-12648269D01*
X8124944Y-12648269D02*
X8124944Y-12572079D01*
X8124944Y-12572079D02*
X8115420Y-12553031D01*
X8115420Y-12553031D02*
X8105896Y-12543508D01*
X8105896Y-12543508D02*
X8086848Y-12533984D01*
X8086848Y-12533984D02*
X8048753Y-12533984D01*
X8048753Y-12533984D02*
X8029706Y-12543508D01*
X8029706Y-12543508D02*
X8020182Y-12553031D01*
X8020182Y-12553031D02*
X8010658Y-12572079D01*
X8010658Y-12572079D02*
X8010658Y-12619698D01*
X8010658Y-12619698D02*
X8020182Y-12638746D01*
X8020182Y-12638746D02*
X8029706Y-12648269D01*
X8029706Y-12648269D02*
X8048753Y-12657793D01*
X8048753Y-12657793D02*
X8086848Y-12657793D01*
X8086848Y-12657793D02*
X8105896Y-12648269D01*
X8105896Y-12648269D02*
X8115420Y-12638746D01*
X8115420Y-12638746D02*
X8124944Y-12619698D01*
X8201134Y-12533984D02*
X8201134Y-12572079D01*
X8277325Y-12533984D02*
X8277325Y-12572079D01*
X8572563Y-12810174D02*
X8563039Y-12800650D01*
X8563039Y-12800650D02*
X8543991Y-12772079D01*
X8543991Y-12772079D02*
X8534468Y-12753031D01*
X8534468Y-12753031D02*
X8524944Y-12724460D01*
X8524944Y-12724460D02*
X8515420Y-12676841D01*
X8515420Y-12676841D02*
X8515420Y-12638746D01*
X8515420Y-12638746D02*
X8524944Y-12591127D01*
X8524944Y-12591127D02*
X8534468Y-12562555D01*
X8534468Y-12562555D02*
X8543991Y-12543508D01*
X8543991Y-12543508D02*
X8563039Y-12514936D01*
X8563039Y-12514936D02*
X8572563Y-12505412D01*
X8753515Y-12733984D02*
X8639230Y-12733984D01*
X8696372Y-12733984D02*
X8696372Y-12533984D01*
X8696372Y-12533984D02*
X8677325Y-12562555D01*
X8677325Y-12562555D02*
X8658277Y-12581603D01*
X8658277Y-12581603D02*
X8639230Y-12591127D01*
X8991611Y-12733984D02*
X8991611Y-12533984D01*
X9077325Y-12733984D02*
X9077325Y-12629222D01*
X9077325Y-12629222D02*
X9067801Y-12610174D01*
X9067801Y-12610174D02*
X9048753Y-12600650D01*
X9048753Y-12600650D02*
X9020182Y-12600650D01*
X9020182Y-12600650D02*
X9001134Y-12610174D01*
X9001134Y-12610174D02*
X8991611Y-12619698D01*
X9201134Y-12733984D02*
X9182087Y-12724460D01*
X9182087Y-12724460D02*
X9172563Y-12714936D01*
X9172563Y-12714936D02*
X9163039Y-12695888D01*
X9163039Y-12695888D02*
X9163039Y-12638746D01*
X9163039Y-12638746D02*
X9172563Y-12619698D01*
X9172563Y-12619698D02*
X9182087Y-12610174D01*
X9182087Y-12610174D02*
X9201134Y-12600650D01*
X9201134Y-12600650D02*
X9229706Y-12600650D01*
X9229706Y-12600650D02*
X9248753Y-12610174D01*
X9248753Y-12610174D02*
X9258277Y-12619698D01*
X9258277Y-12619698D02*
X9267801Y-12638746D01*
X9267801Y-12638746D02*
X9267801Y-12695888D01*
X9267801Y-12695888D02*
X9258277Y-12714936D01*
X9258277Y-12714936D02*
X9248753Y-12724460D01*
X9248753Y-12724460D02*
X9229706Y-12733984D01*
X9229706Y-12733984D02*
X9201134Y-12733984D01*
X9382087Y-12733984D02*
X9363039Y-12724460D01*
X9363039Y-12724460D02*
X9353515Y-12705412D01*
X9353515Y-12705412D02*
X9353515Y-12533984D01*
X9534468Y-12724460D02*
X9515420Y-12733984D01*
X9515420Y-12733984D02*
X9477325Y-12733984D01*
X9477325Y-12733984D02*
X9458277Y-12724460D01*
X9458277Y-12724460D02*
X9448753Y-12705412D01*
X9448753Y-12705412D02*
X9448753Y-12629222D01*
X9448753Y-12629222D02*
X9458277Y-12610174D01*
X9458277Y-12610174D02*
X9477325Y-12600650D01*
X9477325Y-12600650D02*
X9515420Y-12600650D01*
X9515420Y-12600650D02*
X9534468Y-12610174D01*
X9534468Y-12610174D02*
X9543992Y-12629222D01*
X9543992Y-12629222D02*
X9543992Y-12648269D01*
X9543992Y-12648269D02*
X9448753Y-12667317D01*
X9610658Y-12810174D02*
X9620182Y-12800650D01*
X9620182Y-12800650D02*
X9639230Y-12772079D01*
X9639230Y-12772079D02*
X9648753Y-12753031D01*
X9648753Y-12753031D02*
X9658277Y-12724460D01*
X9658277Y-12724460D02*
X9667801Y-12676841D01*
X9667801Y-12676841D02*
X9667801Y-12638746D01*
X9667801Y-12638746D02*
X9658277Y-12591127D01*
X9658277Y-12591127D02*
X9648753Y-12562555D01*
X9648753Y-12562555D02*
X9639230Y-12543508D01*
X9639230Y-12543508D02*
X9620182Y-12514936D01*
X9620182Y-12514936D02*
X9610658Y-12505412D01*
M02*
