%TF.GenerationSoftware,KiCad,Pcbnew,8.0.6*%
%TF.CreationDate,2025-04-13T07:27:20+01:00*%
%TF.ProjectId,fabrizio_project _Mainboard,66616272-697a-4696-9f5f-70726f6a6563,rev?*%
%TF.SameCoordinates,Original*%
%TF.FileFunction,Drillmap*%
%TF.FilePolarity,Positive*%
%FSLAX45Y45*%
G04 Gerber Fmt 4.5, Leading zero omitted, Abs format (unit mm)*
G04 Created by KiCad (PCBNEW 8.0.6) date 2025-04-13 07:27:20*
%MOMM*%
%LPD*%
G01*
G04 APERTURE LIST*
%ADD10C,0.050000*%
%ADD11C,0.200000*%
%ADD12C,0.100000*%
%ADD13C,0.119000*%
%ADD14C,0.130000*%
G04 APERTURE END LIST*
D10*
X5400000Y-12000000D02*
G75*
G02*
X5000000Y-11600000I0J400000D01*
G01*
X5000000Y-4400000D02*
X5000000Y-11600000D01*
X15600000Y-4000000D02*
X5400000Y-4000000D01*
X16000000Y-11600000D02*
G75*
G02*
X15600000Y-12000000I-400000J0D01*
G01*
X16000000Y-11600000D02*
X16000000Y-4400000D01*
X5000000Y-4400000D02*
G75*
G02*
X5400000Y-4000000I400000J0D01*
G01*
X15600000Y-4000000D02*
G75*
G02*
X16000000Y-4400000I0J-400000D01*
G01*
X5400000Y-12000000D02*
X15600000Y-12000000D01*
X9610500Y-4299500D02*
G75*
G02*
X9280500Y-4299500I-165000J0D01*
G01*
X9280500Y-4299500D02*
G75*
G02*
X9610500Y-4299500I165000J0D01*
G01*
X8360500Y-4299500D02*
G75*
G02*
X8030500Y-4299500I-165000J0D01*
G01*
X8030500Y-4299500D02*
G75*
G02*
X8360500Y-4299500I165000J0D01*
G01*
D11*
D12*
X5366000Y-6637000D02*
X5396000Y-6667000D01*
X5396000Y-6637000D02*
X5366000Y-6667000D01*
X5379000Y-7591000D02*
X5409000Y-7621000D01*
X5409000Y-7591000D02*
X5379000Y-7621000D01*
X5610000Y-7702000D02*
X5640000Y-7732000D01*
X5640000Y-7702000D02*
X5610000Y-7732000D01*
X5612000Y-6726000D02*
X5642000Y-6756000D01*
X5642000Y-6726000D02*
X5612000Y-6756000D01*
X5910000Y-10456875D02*
X5940000Y-10486875D01*
X5940000Y-10456875D02*
X5910000Y-10486875D01*
X6785000Y-5175000D02*
X6815000Y-5205000D01*
X6815000Y-5175000D02*
X6785000Y-5205000D01*
X6825000Y-9825000D02*
X6855000Y-9855000D01*
X6855000Y-9825000D02*
X6825000Y-9855000D01*
X6825000Y-10335000D02*
X6855000Y-10365000D01*
X6855000Y-10335000D02*
X6825000Y-10365000D01*
X6825609Y-10080481D02*
X6855609Y-10110481D01*
X6855609Y-10080481D02*
X6825609Y-10110481D01*
X6925000Y-5185000D02*
X6955000Y-5215000D01*
X6955000Y-5185000D02*
X6925000Y-5215000D01*
X7455000Y-7395000D02*
X7485000Y-7425000D01*
X7485000Y-7395000D02*
X7455000Y-7425000D01*
X7695000Y-6245000D02*
X7725000Y-6275000D01*
X7725000Y-6245000D02*
X7695000Y-6275000D01*
X7904000Y-10910000D02*
X7934000Y-10940000D01*
X7934000Y-10910000D02*
X7904000Y-10940000D01*
X8075000Y-7335000D02*
X8105000Y-7365000D01*
X8105000Y-7335000D02*
X8075000Y-7365000D01*
X8182500Y-8760000D02*
X8212500Y-8790000D01*
X8212500Y-8760000D02*
X8182500Y-8790000D01*
X8265000Y-5965000D02*
X8295000Y-5995000D01*
X8295000Y-5965000D02*
X8265000Y-5995000D01*
X8265000Y-7535000D02*
X8295000Y-7565000D01*
X8295000Y-7535000D02*
X8265000Y-7565000D01*
X8310000Y-6802500D02*
X8340000Y-6832500D01*
X8340000Y-6802500D02*
X8310000Y-6832500D01*
X8310000Y-7002500D02*
X8340000Y-7032500D01*
X8340000Y-7002500D02*
X8310000Y-7032500D01*
X8375000Y-5855000D02*
X8405000Y-5885000D01*
X8405000Y-5855000D02*
X8375000Y-5885000D01*
X8465000Y-9825000D02*
X8495000Y-9855000D01*
X8495000Y-9825000D02*
X8465000Y-9855000D01*
X8465000Y-10335000D02*
X8495000Y-10365000D01*
X8495000Y-10335000D02*
X8465000Y-10365000D01*
X8465768Y-10081090D02*
X8495768Y-10111090D01*
X8495768Y-10081090D02*
X8465768Y-10111090D01*
X8585000Y-8410000D02*
X8615000Y-8440000D01*
X8615000Y-8410000D02*
X8585000Y-8440000D01*
X8635000Y-6902500D02*
X8665000Y-6932500D01*
X8665000Y-6902500D02*
X8635000Y-6932500D01*
X8635000Y-8160000D02*
X8665000Y-8190000D01*
X8665000Y-8160000D02*
X8635000Y-8190000D01*
X8665000Y-8084105D02*
X8695000Y-8114105D01*
X8695000Y-8084105D02*
X8665000Y-8114105D01*
X8695000Y-9065000D02*
X8725000Y-9095000D01*
X8725000Y-9065000D02*
X8695000Y-9095000D01*
X8925000Y-5645000D02*
X8955000Y-5675000D01*
X8955000Y-5645000D02*
X8925000Y-5675000D01*
X8945000Y-8825000D02*
X8975000Y-8855000D01*
X8975000Y-8825000D02*
X8945000Y-8855000D01*
X8985000Y-8510000D02*
X9015000Y-8540000D01*
X9015000Y-8510000D02*
X8985000Y-8540000D01*
X8995000Y-5705000D02*
X9025000Y-5735000D01*
X9025000Y-5705000D02*
X8995000Y-5735000D01*
X9039263Y-8288542D02*
X9069263Y-8318542D01*
X9069263Y-8288542D02*
X9039263Y-8318542D01*
X9095000Y-5785000D02*
X9125000Y-5815000D01*
X9125000Y-5785000D02*
X9095000Y-5815000D01*
X9105000Y-8545000D02*
X9135000Y-8575000D01*
X9135000Y-8545000D02*
X9105000Y-8575000D01*
X9108785Y-8348542D02*
X9138785Y-8378542D01*
X9138785Y-8348542D02*
X9108785Y-8378542D01*
X9115000Y-8805000D02*
X9145000Y-8835000D01*
X9145000Y-8805000D02*
X9115000Y-8835000D01*
X9160000Y-4900000D02*
X9190000Y-4930000D01*
X9190000Y-4900000D02*
X9160000Y-4930000D01*
X9160000Y-8410000D02*
X9190000Y-8440000D01*
X9190000Y-8410000D02*
X9160000Y-8440000D01*
X9205000Y-5805000D02*
X9235000Y-5835000D01*
X9235000Y-5805000D02*
X9205000Y-5835000D01*
X9235000Y-8625000D02*
X9265000Y-8655000D01*
X9265000Y-8625000D02*
X9235000Y-8655000D01*
X9265000Y-9305000D02*
X9295000Y-9335000D01*
X9295000Y-9305000D02*
X9265000Y-9335000D01*
X9335000Y-8175598D02*
X9365000Y-8205598D01*
X9365000Y-8175598D02*
X9335000Y-8205598D01*
X9405000Y-8025000D02*
X9435000Y-8055000D01*
X9435000Y-8025000D02*
X9405000Y-8055000D01*
X9455000Y-9345000D02*
X9485000Y-9375000D01*
X9485000Y-9345000D02*
X9455000Y-9375000D01*
X9475000Y-6475000D02*
X9505000Y-6505000D01*
X9505000Y-6475000D02*
X9475000Y-6505000D01*
X9502427Y-8037573D02*
X9532427Y-8067573D01*
X9532427Y-8037573D02*
X9502427Y-8067573D01*
X9535000Y-8505000D02*
X9565000Y-8535000D01*
X9565000Y-8505000D02*
X9535000Y-8535000D01*
X9537500Y-8312500D02*
X9567500Y-8342500D01*
X9567500Y-8312500D02*
X9537500Y-8342500D01*
X9545000Y-9425000D02*
X9575000Y-9455000D01*
X9575000Y-9425000D02*
X9545000Y-9455000D01*
X9595000Y-8025000D02*
X9625000Y-8055000D01*
X9625000Y-8025000D02*
X9595000Y-8055000D01*
X9612135Y-9366988D02*
X9642135Y-9396988D01*
X9642135Y-9366988D02*
X9612135Y-9396988D01*
X9655000Y-7855000D02*
X9685000Y-7885000D01*
X9685000Y-7855000D02*
X9655000Y-7885000D01*
X9675000Y-7415000D02*
X9705000Y-7445000D01*
X9705000Y-7415000D02*
X9675000Y-7445000D01*
X9694123Y-9115000D02*
X9724123Y-9145000D01*
X9724123Y-9115000D02*
X9694123Y-9145000D01*
X9694123Y-9365000D02*
X9724123Y-9395000D01*
X9724123Y-9365000D02*
X9694123Y-9395000D01*
X9726554Y-7890777D02*
X9756554Y-7920777D01*
X9756554Y-7890777D02*
X9726554Y-7920777D01*
X9735000Y-7515000D02*
X9765000Y-7545000D01*
X9765000Y-7515000D02*
X9735000Y-7545000D01*
X9754123Y-9040539D02*
X9784123Y-9070539D01*
X9784123Y-9040539D02*
X9754123Y-9070539D01*
X9786011Y-10879001D02*
X9816011Y-10909001D01*
X9816011Y-10879001D02*
X9786011Y-10909001D01*
X9795000Y-10535000D02*
X9825000Y-10565000D01*
X9825000Y-10535000D02*
X9795000Y-10565000D01*
X9800000Y-8975000D02*
X9830000Y-9005000D01*
X9830000Y-8975000D02*
X9800000Y-9005000D01*
X9806403Y-7895703D02*
X9836403Y-7925703D01*
X9836403Y-7895703D02*
X9806403Y-7925703D01*
X9815000Y-8025000D02*
X9845000Y-8055000D01*
X9845000Y-8025000D02*
X9815000Y-8055000D01*
X9860000Y-9035000D02*
X9890000Y-9065000D01*
X9890000Y-9035000D02*
X9860000Y-9065000D01*
X9875000Y-7685000D02*
X9905000Y-7715000D01*
X9905000Y-7685000D02*
X9875000Y-7715000D01*
X9912500Y-10787500D02*
X9942500Y-10817500D01*
X9942500Y-10787500D02*
X9912500Y-10817500D01*
X10030000Y-8980000D02*
X10060000Y-9010000D01*
X10060000Y-8980000D02*
X10030000Y-9010000D01*
X10085000Y-10875000D02*
X10115000Y-10905000D01*
X10115000Y-10875000D02*
X10085000Y-10905000D01*
X10095000Y-9825000D02*
X10125000Y-9855000D01*
X10125000Y-9825000D02*
X10095000Y-9855000D01*
X10095000Y-10335000D02*
X10125000Y-10365000D01*
X10125000Y-10335000D02*
X10095000Y-10365000D01*
X10095609Y-10080481D02*
X10125609Y-10110481D01*
X10125609Y-10080481D02*
X10095609Y-10110481D01*
X10215000Y-8165000D02*
X10245000Y-8195000D01*
X10245000Y-8165000D02*
X10215000Y-8195000D01*
X10225000Y-10615000D02*
X10255000Y-10645000D01*
X10255000Y-10615000D02*
X10225000Y-10645000D01*
X10245000Y-8515000D02*
X10275000Y-8545000D01*
X10275000Y-8515000D02*
X10245000Y-8545000D01*
X10285000Y-9385000D02*
X10315000Y-9415000D01*
X10315000Y-9385000D02*
X10285000Y-9415000D01*
X10305000Y-7275000D02*
X10335000Y-7305000D01*
X10335000Y-7275000D02*
X10305000Y-7305000D01*
X10367427Y-8237426D02*
X10397427Y-8267426D01*
X10397427Y-8237426D02*
X10367427Y-8267426D01*
X10368683Y-8396562D02*
X10398683Y-8426562D01*
X10398683Y-8396562D02*
X10368683Y-8426562D01*
X10376337Y-8316929D02*
X10406337Y-8346929D01*
X10406337Y-8316929D02*
X10376337Y-8346929D01*
X10379223Y-8533446D02*
X10409223Y-8563446D01*
X10409223Y-8533446D02*
X10379223Y-8563446D01*
X10385000Y-8135000D02*
X10415000Y-8165000D01*
X10415000Y-8135000D02*
X10385000Y-8165000D01*
X10415000Y-8605000D02*
X10445000Y-8635000D01*
X10445000Y-8605000D02*
X10415000Y-8635000D01*
X10415000Y-8735000D02*
X10445000Y-8765000D01*
X10445000Y-8735000D02*
X10415000Y-8765000D01*
X10444851Y-8257562D02*
X10474851Y-8287562D01*
X10474851Y-8257562D02*
X10444851Y-8287562D01*
X10455000Y-7445000D02*
X10485000Y-7475000D01*
X10485000Y-7445000D02*
X10455000Y-7475000D01*
X10505000Y-10535000D02*
X10535000Y-10565000D01*
X10535000Y-10535000D02*
X10505000Y-10565000D01*
X10515000Y-8325000D02*
X10545000Y-8355000D01*
X10545000Y-8325000D02*
X10515000Y-8355000D01*
X10545000Y-8805000D02*
X10575000Y-8835000D01*
X10575000Y-8805000D02*
X10545000Y-8835000D01*
X10555000Y-6505000D02*
X10585000Y-6535000D01*
X10585000Y-6505000D02*
X10555000Y-6535000D01*
X10635000Y-6605000D02*
X10665000Y-6635000D01*
X10665000Y-6605000D02*
X10635000Y-6635000D01*
X10715000Y-6505000D02*
X10745000Y-6535000D01*
X10745000Y-6505000D02*
X10715000Y-6535000D01*
X10815000Y-6025000D02*
X10845000Y-6055000D01*
X10845000Y-6025000D02*
X10815000Y-6055000D01*
X10815000Y-6605000D02*
X10845000Y-6635000D01*
X10845000Y-6605000D02*
X10815000Y-6635000D01*
X10815000Y-7975000D02*
X10845000Y-8005000D01*
X10845000Y-7975000D02*
X10815000Y-8005000D01*
X10855000Y-6715000D02*
X10885000Y-6745000D01*
X10885000Y-6715000D02*
X10855000Y-6745000D01*
X10865000Y-5445000D02*
X10895000Y-5475000D01*
X10895000Y-5445000D02*
X10865000Y-5475000D01*
X10895000Y-8135000D02*
X10925000Y-8165000D01*
X10925000Y-8135000D02*
X10895000Y-8165000D01*
X10905000Y-10935000D02*
X10935000Y-10965000D01*
X10935000Y-10935000D02*
X10905000Y-10965000D01*
X10935000Y-6505000D02*
X10965000Y-6535000D01*
X10965000Y-6505000D02*
X10935000Y-6535000D01*
X10985000Y-8435000D02*
X11015000Y-8465000D01*
X11015000Y-8435000D02*
X10985000Y-8465000D01*
X11045000Y-9095000D02*
X11075000Y-9125000D01*
X11075000Y-9095000D02*
X11045000Y-9125000D01*
X11060000Y-5585000D02*
X11090000Y-5615000D01*
X11090000Y-5585000D02*
X11060000Y-5615000D01*
X11125000Y-6505000D02*
X11155000Y-6535000D01*
X11155000Y-6505000D02*
X11125000Y-6535000D01*
X11345000Y-6005000D02*
X11375000Y-6035000D01*
X11375000Y-6005000D02*
X11345000Y-6035000D01*
X11605000Y-5855000D02*
X11635000Y-5885000D01*
X11635000Y-5855000D02*
X11605000Y-5885000D01*
X11860000Y-10385000D02*
X11890000Y-10415000D01*
X11890000Y-10385000D02*
X11860000Y-10415000D01*
X12385000Y-4227000D02*
X12415000Y-4257000D01*
X12415000Y-4227000D02*
X12385000Y-4257000D01*
X12795000Y-9015000D02*
X12825000Y-9045000D01*
X12825000Y-9015000D02*
X12795000Y-9045000D01*
X13260000Y-10185000D02*
X13290000Y-10215000D01*
X13290000Y-10185000D02*
X13260000Y-10215000D01*
X13285000Y-9835000D02*
X13315000Y-9865000D01*
X13315000Y-9835000D02*
X13285000Y-9865000D01*
X13325000Y-4115000D02*
X13355000Y-4145000D01*
X13355000Y-4115000D02*
X13325000Y-4145000D01*
X13385000Y-6035000D02*
X13415000Y-6065000D01*
X13415000Y-6035000D02*
X13385000Y-6065000D01*
X13460000Y-7785000D02*
X13490000Y-7815000D01*
X13490000Y-7785000D02*
X13460000Y-7815000D01*
X13785000Y-6535000D02*
X13815000Y-6565000D01*
X13815000Y-6535000D02*
X13785000Y-6565000D01*
X13835000Y-7175000D02*
X13865000Y-7205000D01*
X13865000Y-7175000D02*
X13835000Y-7205000D01*
X14175000Y-9275000D02*
X14205000Y-9305000D01*
X14205000Y-9275000D02*
X14175000Y-9305000D01*
X14175000Y-10885000D02*
X14205000Y-10915000D01*
X14205000Y-10885000D02*
X14175000Y-10915000D01*
X14290000Y-5175000D02*
X14320000Y-5205000D01*
X14320000Y-5175000D02*
X14290000Y-5205000D01*
X14290000Y-5355000D02*
X14320000Y-5385000D01*
X14320000Y-5355000D02*
X14290000Y-5385000D01*
X14510000Y-9610000D02*
X14540000Y-9640000D01*
X14540000Y-9610000D02*
X14510000Y-9640000D01*
X14785000Y-8785000D02*
X14815000Y-8815000D01*
X14815000Y-8785000D02*
X14785000Y-8815000D01*
X15305000Y-5605000D02*
X15335000Y-5635000D01*
X15335000Y-5605000D02*
X15305000Y-5635000D01*
X15355000Y-4965000D02*
X15385000Y-4995000D01*
X15385000Y-4965000D02*
X15355000Y-4995000D01*
X8400000Y-7780000D02*
G75*
G02*
X8350000Y-7780000I-25000J0D01*
G01*
X8350000Y-7780000D02*
G75*
G02*
X8400000Y-7780000I25000J0D01*
G01*
X8400000Y-7970000D02*
G75*
G02*
X8350000Y-7970000I-25000J0D01*
G01*
X8350000Y-7970000D02*
G75*
G02*
X8400000Y-7970000I25000J0D01*
G01*
X5375000Y-6227500D02*
X5375000Y-6322500D01*
X5327500Y-6275000D02*
X5422500Y-6275000D01*
X5375000Y-7152500D02*
X5375000Y-7247500D01*
X5327500Y-7200000D02*
X5422500Y-7200000D01*
X5422500Y-9927500D02*
X5422500Y-10022500D01*
X5375000Y-9975000D02*
X5470000Y-9975000D01*
X5422500Y-10177500D02*
X5422500Y-10272500D01*
X5375000Y-10225000D02*
X5470000Y-10225000D01*
X5422500Y-10427500D02*
X5422500Y-10522500D01*
X5375000Y-10475000D02*
X5470000Y-10475000D01*
X5422500Y-10677500D02*
X5422500Y-10772500D01*
X5375000Y-10725000D02*
X5470000Y-10725000D01*
X5625000Y-6227500D02*
X5625000Y-6322500D01*
X5577500Y-6275000D02*
X5672500Y-6275000D01*
X5625000Y-7152500D02*
X5625000Y-7247500D01*
X5577500Y-7200000D02*
X5672500Y-7200000D01*
X5875000Y-6227500D02*
X5875000Y-6322500D01*
X5827500Y-6275000D02*
X5922500Y-6275000D01*
X5875000Y-7152500D02*
X5875000Y-7247500D01*
X5827500Y-7200000D02*
X5922500Y-7200000D01*
X6125000Y-6227500D02*
X6125000Y-6322500D01*
X6077500Y-6275000D02*
X6172500Y-6275000D01*
X6125000Y-7152500D02*
X6125000Y-7247500D01*
X6077500Y-7200000D02*
X6172500Y-7200000D01*
X6600000Y-10877500D02*
X6600000Y-10972500D01*
X6552500Y-10925000D02*
X6647500Y-10925000D01*
X6600000Y-11127500D02*
X6600000Y-11222500D01*
X6552500Y-11175000D02*
X6647500Y-11175000D01*
X6600000Y-11377500D02*
X6600000Y-11472500D01*
X6552500Y-11425000D02*
X6647500Y-11425000D01*
X6600000Y-11627500D02*
X6600000Y-11722500D01*
X6552500Y-11675000D02*
X6647500Y-11675000D01*
X7600000Y-10877500D02*
X7600000Y-10972500D01*
X7552500Y-10925000D02*
X7647500Y-10925000D01*
X7600000Y-11127500D02*
X7600000Y-11222500D01*
X7552500Y-11175000D02*
X7647500Y-11175000D01*
X7600000Y-11377500D02*
X7600000Y-11472500D01*
X7552500Y-11425000D02*
X7647500Y-11425000D01*
X7600000Y-11627500D02*
X7600000Y-11722500D01*
X7552500Y-11675000D02*
X7647500Y-11675000D01*
X13600000Y-4302500D02*
X13600000Y-4397500D01*
X13552500Y-4350000D02*
X13647500Y-4350000D01*
X13850000Y-4302500D02*
X13850000Y-4397500D01*
X13802500Y-4350000D02*
X13897500Y-4350000D01*
X14100000Y-4302500D02*
X14100000Y-4397500D01*
X14052500Y-4350000D02*
X14147500Y-4350000D01*
X14350000Y-4302500D02*
X14350000Y-4397500D01*
X14302500Y-4350000D02*
X14397500Y-4350000D01*
X14600000Y-4302500D02*
X14600000Y-4397500D01*
X14552500Y-4350000D02*
X14647500Y-4350000D01*
X5530356Y-8810356D02*
X5530356Y-8739644D01*
X5459644Y-8739644D01*
X5459644Y-8810356D01*
X5530356Y-8810356D01*
X6290356Y-8810356D02*
X6290356Y-8739644D01*
X6219644Y-8739644D01*
X6219644Y-8810356D01*
X6290356Y-8810356D01*
X10310356Y-11507856D02*
X10310356Y-11437144D01*
X10239644Y-11437144D01*
X10239644Y-11507856D01*
X10310356Y-11507856D01*
X10560356Y-11507856D02*
X10560356Y-11437144D01*
X10489644Y-11437144D01*
X10489644Y-11507856D01*
X10560356Y-11507856D01*
X11260356Y-11510356D02*
X11260356Y-11439644D01*
X11189644Y-11439644D01*
X11189644Y-11510356D01*
X11260356Y-11510356D01*
X11510356Y-11510356D02*
X11510356Y-11439644D01*
X11439644Y-11439644D01*
X11439644Y-11510356D01*
X11510356Y-11510356D01*
X11968265Y-4278685D02*
X11968265Y-4207973D01*
X11897554Y-4207973D01*
X11897554Y-4278685D01*
X11968265Y-4278685D01*
X11968265Y-4532685D02*
X11968265Y-4461973D01*
X11897554Y-4461973D01*
X11897554Y-4532685D01*
X11968265Y-4532685D01*
X11968265Y-4786685D02*
X11968265Y-4715973D01*
X11897554Y-4715973D01*
X11897554Y-4786685D01*
X11968265Y-4786685D01*
X11968265Y-5040685D02*
X11968265Y-4969973D01*
X11897554Y-4969973D01*
X11897554Y-5040685D01*
X11968265Y-5040685D01*
X12760356Y-4277356D02*
X12760356Y-4206644D01*
X12689644Y-4206644D01*
X12689644Y-4277356D01*
X12760356Y-4277356D01*
X12760356Y-4531356D02*
X12760356Y-4460644D01*
X12689644Y-4460644D01*
X12689644Y-4531356D01*
X12760356Y-4531356D01*
X12760356Y-4785356D02*
X12760356Y-4714644D01*
X12689644Y-4714644D01*
X12689644Y-4785356D01*
X12760356Y-4785356D01*
X14585356Y-7781106D02*
X14585356Y-7710394D01*
X14514644Y-7710394D01*
X14514644Y-7781106D01*
X14585356Y-7781106D01*
X14600000Y-7845750D02*
X14600000Y-7645750D01*
X14500000Y-7645750D02*
G75*
G02*
X14600000Y-7645750I50000J0D01*
G01*
X14500000Y-7645750D02*
X14500000Y-7845750D01*
X14500000Y-7845750D02*
G75*
G03*
X14600000Y-7845750I50000J0D01*
G01*
X14885356Y-7311106D02*
X14885356Y-7240394D01*
X14814644Y-7240394D01*
X14814644Y-7311106D01*
X14885356Y-7311106D01*
X14950000Y-7225750D02*
X14750000Y-7225750D01*
X14750000Y-7325750D02*
G75*
G02*
X14750000Y-7225750I0J50000D01*
G01*
X14750000Y-7325750D02*
X14950000Y-7325750D01*
X14950000Y-7325750D02*
G75*
G03*
X14950000Y-7225750I0J50000D01*
G01*
X15185356Y-7781106D02*
X15185356Y-7710394D01*
X15114644Y-7710394D01*
X15114644Y-7781106D01*
X15185356Y-7781106D01*
X15200000Y-7845750D02*
X15200000Y-7645750D01*
X15100000Y-7645750D02*
G75*
G02*
X15200000Y-7645750I50000J0D01*
G01*
X15100000Y-7645750D02*
X15100000Y-7845750D01*
X15100000Y-7845750D02*
G75*
G03*
X15200000Y-7845750I50000J0D01*
G01*
D13*
X8502000Y-10953500D02*
X8561500Y-10894000D01*
X8502000Y-10834500D01*
X8442500Y-10894000D01*
X8502000Y-10953500D01*
X8502000Y-11207500D02*
X8561500Y-11148000D01*
X8502000Y-11088500D01*
X8442500Y-11148000D01*
X8502000Y-11207500D01*
X8502000Y-11461500D02*
X8561500Y-11402000D01*
X8502000Y-11342500D01*
X8442500Y-11402000D01*
X8502000Y-11461500D01*
X8502000Y-11715500D02*
X8561500Y-11656000D01*
X8502000Y-11596500D01*
X8442500Y-11656000D01*
X8502000Y-11715500D01*
X9487000Y-10953500D02*
X9546500Y-10894000D01*
X9487000Y-10834500D01*
X9427500Y-10894000D01*
X9487000Y-10953500D01*
X9487000Y-11207500D02*
X9546500Y-11148000D01*
X9487000Y-11088500D01*
X9427500Y-11148000D01*
X9487000Y-11207500D01*
X9487000Y-11461500D02*
X9546500Y-11402000D01*
X9487000Y-11342500D01*
X9427500Y-11402000D01*
X9487000Y-11461500D01*
X9487000Y-11715500D02*
X9546500Y-11656000D01*
X9487000Y-11596500D01*
X9427500Y-11656000D01*
X9487000Y-11715500D01*
D14*
X12527000Y-11320750D02*
X12657000Y-11450750D01*
X12657000Y-11320750D02*
X12527000Y-11450750D01*
X12657000Y-11385750D02*
G75*
G02*
X12527000Y-11385750I-65000J0D01*
G01*
X12527000Y-11385750D02*
G75*
G02*
X12657000Y-11385750I65000J0D01*
G01*
X13035000Y-11320750D02*
X13165000Y-11450750D01*
X13165000Y-11320750D02*
X13035000Y-11450750D01*
X13165000Y-11385750D02*
G75*
G02*
X13035000Y-11385750I-65000J0D01*
G01*
X13035000Y-11385750D02*
G75*
G02*
X13165000Y-11385750I65000J0D01*
G01*
X13777000Y-11326250D02*
X13907000Y-11456250D01*
X13907000Y-11326250D02*
X13777000Y-11456250D01*
X13907000Y-11391250D02*
G75*
G02*
X13777000Y-11391250I-65000J0D01*
G01*
X13777000Y-11391250D02*
G75*
G02*
X13907000Y-11391250I65000J0D01*
G01*
X14285000Y-11326250D02*
X14415000Y-11456250D01*
X14415000Y-11326250D02*
X14285000Y-11456250D01*
X14415000Y-11391250D02*
G75*
G02*
X14285000Y-11391250I-65000J0D01*
G01*
X14285000Y-11391250D02*
G75*
G02*
X14415000Y-11391250I65000J0D01*
G01*
X15340500Y-10056500D02*
X15470500Y-10186500D01*
X15470500Y-10056500D02*
X15340500Y-10186500D01*
X15470500Y-10121500D02*
G75*
G02*
X15340500Y-10121500I-65000J0D01*
G01*
X15340500Y-10121500D02*
G75*
G02*
X15470500Y-10121500I65000J0D01*
G01*
X15340500Y-10564500D02*
X15470500Y-10694500D01*
X15470500Y-10564500D02*
X15340500Y-10694500D01*
X15470500Y-10629500D02*
G75*
G02*
X15340500Y-10629500I-65000J0D01*
G01*
X15340500Y-10629500D02*
G75*
G02*
X15470500Y-10629500I65000J0D01*
G01*
D11*
X5258277Y-12313984D02*
X5258277Y-12113984D01*
X5258277Y-12113984D02*
X5305896Y-12113984D01*
X5305896Y-12113984D02*
X5334467Y-12123508D01*
X5334467Y-12123508D02*
X5353515Y-12142555D01*
X5353515Y-12142555D02*
X5363039Y-12161603D01*
X5363039Y-12161603D02*
X5372563Y-12199698D01*
X5372563Y-12199698D02*
X5372563Y-12228269D01*
X5372563Y-12228269D02*
X5363039Y-12266365D01*
X5363039Y-12266365D02*
X5353515Y-12285412D01*
X5353515Y-12285412D02*
X5334467Y-12304460D01*
X5334467Y-12304460D02*
X5305896Y-12313984D01*
X5305896Y-12313984D02*
X5258277Y-12313984D01*
X5458277Y-12313984D02*
X5458277Y-12180650D01*
X5458277Y-12218746D02*
X5467801Y-12199698D01*
X5467801Y-12199698D02*
X5477324Y-12190174D01*
X5477324Y-12190174D02*
X5496372Y-12180650D01*
X5496372Y-12180650D02*
X5515420Y-12180650D01*
X5582086Y-12313984D02*
X5582086Y-12180650D01*
X5582086Y-12113984D02*
X5572563Y-12123508D01*
X5572563Y-12123508D02*
X5582086Y-12133031D01*
X5582086Y-12133031D02*
X5591610Y-12123508D01*
X5591610Y-12123508D02*
X5582086Y-12113984D01*
X5582086Y-12113984D02*
X5582086Y-12133031D01*
X5705896Y-12313984D02*
X5686848Y-12304460D01*
X5686848Y-12304460D02*
X5677324Y-12285412D01*
X5677324Y-12285412D02*
X5677324Y-12113984D01*
X5810658Y-12313984D02*
X5791610Y-12304460D01*
X5791610Y-12304460D02*
X5782086Y-12285412D01*
X5782086Y-12285412D02*
X5782086Y-12113984D01*
X6039229Y-12313984D02*
X6039229Y-12113984D01*
X6039229Y-12113984D02*
X6105896Y-12256841D01*
X6105896Y-12256841D02*
X6172562Y-12113984D01*
X6172562Y-12113984D02*
X6172562Y-12313984D01*
X6353515Y-12313984D02*
X6353515Y-12209222D01*
X6353515Y-12209222D02*
X6343991Y-12190174D01*
X6343991Y-12190174D02*
X6324943Y-12180650D01*
X6324943Y-12180650D02*
X6286848Y-12180650D01*
X6286848Y-12180650D02*
X6267801Y-12190174D01*
X6353515Y-12304460D02*
X6334467Y-12313984D01*
X6334467Y-12313984D02*
X6286848Y-12313984D01*
X6286848Y-12313984D02*
X6267801Y-12304460D01*
X6267801Y-12304460D02*
X6258277Y-12285412D01*
X6258277Y-12285412D02*
X6258277Y-12266365D01*
X6258277Y-12266365D02*
X6267801Y-12247317D01*
X6267801Y-12247317D02*
X6286848Y-12237793D01*
X6286848Y-12237793D02*
X6334467Y-12237793D01*
X6334467Y-12237793D02*
X6353515Y-12228269D01*
X6448753Y-12180650D02*
X6448753Y-12380650D01*
X6448753Y-12190174D02*
X6467801Y-12180650D01*
X6467801Y-12180650D02*
X6505896Y-12180650D01*
X6505896Y-12180650D02*
X6524943Y-12190174D01*
X6524943Y-12190174D02*
X6534467Y-12199698D01*
X6534467Y-12199698D02*
X6543991Y-12218746D01*
X6543991Y-12218746D02*
X6543991Y-12275888D01*
X6543991Y-12275888D02*
X6534467Y-12294936D01*
X6534467Y-12294936D02*
X6524943Y-12304460D01*
X6524943Y-12304460D02*
X6505896Y-12313984D01*
X6505896Y-12313984D02*
X6467801Y-12313984D01*
X6467801Y-12313984D02*
X6448753Y-12304460D01*
X6629705Y-12294936D02*
X6639229Y-12304460D01*
X6639229Y-12304460D02*
X6629705Y-12313984D01*
X6629705Y-12313984D02*
X6620182Y-12304460D01*
X6620182Y-12304460D02*
X6629705Y-12294936D01*
X6629705Y-12294936D02*
X6629705Y-12313984D01*
X6629705Y-12190174D02*
X6639229Y-12199698D01*
X6639229Y-12199698D02*
X6629705Y-12209222D01*
X6629705Y-12209222D02*
X6620182Y-12199698D01*
X6620182Y-12199698D02*
X6629705Y-12190174D01*
X6629705Y-12190174D02*
X6629705Y-12209222D01*
D12*
X4967500Y-12627500D02*
X4997500Y-12657500D01*
X4997500Y-12627500D02*
X4967500Y-12657500D01*
D11*
X5296372Y-12533984D02*
X5315420Y-12533984D01*
X5315420Y-12533984D02*
X5334467Y-12543508D01*
X5334467Y-12543508D02*
X5343991Y-12553031D01*
X5343991Y-12553031D02*
X5353515Y-12572079D01*
X5353515Y-12572079D02*
X5363039Y-12610174D01*
X5363039Y-12610174D02*
X5363039Y-12657793D01*
X5363039Y-12657793D02*
X5353515Y-12695888D01*
X5353515Y-12695888D02*
X5343991Y-12714936D01*
X5343991Y-12714936D02*
X5334467Y-12724460D01*
X5334467Y-12724460D02*
X5315420Y-12733984D01*
X5315420Y-12733984D02*
X5296372Y-12733984D01*
X5296372Y-12733984D02*
X5277324Y-12724460D01*
X5277324Y-12724460D02*
X5267801Y-12714936D01*
X5267801Y-12714936D02*
X5258277Y-12695888D01*
X5258277Y-12695888D02*
X5248753Y-12657793D01*
X5248753Y-12657793D02*
X5248753Y-12610174D01*
X5248753Y-12610174D02*
X5258277Y-12572079D01*
X5258277Y-12572079D02*
X5267801Y-12553031D01*
X5267801Y-12553031D02*
X5277324Y-12543508D01*
X5277324Y-12543508D02*
X5296372Y-12533984D01*
X5448753Y-12714936D02*
X5458277Y-12724460D01*
X5458277Y-12724460D02*
X5448753Y-12733984D01*
X5448753Y-12733984D02*
X5439229Y-12724460D01*
X5439229Y-12724460D02*
X5448753Y-12714936D01*
X5448753Y-12714936D02*
X5448753Y-12733984D01*
X5524944Y-12533984D02*
X5648753Y-12533984D01*
X5648753Y-12533984D02*
X5582086Y-12610174D01*
X5582086Y-12610174D02*
X5610658Y-12610174D01*
X5610658Y-12610174D02*
X5629705Y-12619698D01*
X5629705Y-12619698D02*
X5639229Y-12629222D01*
X5639229Y-12629222D02*
X5648753Y-12648269D01*
X5648753Y-12648269D02*
X5648753Y-12695888D01*
X5648753Y-12695888D02*
X5639229Y-12714936D01*
X5639229Y-12714936D02*
X5629705Y-12724460D01*
X5629705Y-12724460D02*
X5610658Y-12733984D01*
X5610658Y-12733984D02*
X5553515Y-12733984D01*
X5553515Y-12733984D02*
X5534467Y-12724460D01*
X5534467Y-12724460D02*
X5524944Y-12714936D01*
X5772562Y-12533984D02*
X5791610Y-12533984D01*
X5791610Y-12533984D02*
X5810658Y-12543508D01*
X5810658Y-12543508D02*
X5820182Y-12553031D01*
X5820182Y-12553031D02*
X5829705Y-12572079D01*
X5829705Y-12572079D02*
X5839229Y-12610174D01*
X5839229Y-12610174D02*
X5839229Y-12657793D01*
X5839229Y-12657793D02*
X5829705Y-12695888D01*
X5829705Y-12695888D02*
X5820182Y-12714936D01*
X5820182Y-12714936D02*
X5810658Y-12724460D01*
X5810658Y-12724460D02*
X5791610Y-12733984D01*
X5791610Y-12733984D02*
X5772562Y-12733984D01*
X5772562Y-12733984D02*
X5753515Y-12724460D01*
X5753515Y-12724460D02*
X5743991Y-12714936D01*
X5743991Y-12714936D02*
X5734467Y-12695888D01*
X5734467Y-12695888D02*
X5724943Y-12657793D01*
X5724943Y-12657793D02*
X5724943Y-12610174D01*
X5724943Y-12610174D02*
X5734467Y-12572079D01*
X5734467Y-12572079D02*
X5743991Y-12553031D01*
X5743991Y-12553031D02*
X5753515Y-12543508D01*
X5753515Y-12543508D02*
X5772562Y-12533984D01*
X5963039Y-12533984D02*
X5982086Y-12533984D01*
X5982086Y-12533984D02*
X6001134Y-12543508D01*
X6001134Y-12543508D02*
X6010658Y-12553031D01*
X6010658Y-12553031D02*
X6020182Y-12572079D01*
X6020182Y-12572079D02*
X6029705Y-12610174D01*
X6029705Y-12610174D02*
X6029705Y-12657793D01*
X6029705Y-12657793D02*
X6020182Y-12695888D01*
X6020182Y-12695888D02*
X6010658Y-12714936D01*
X6010658Y-12714936D02*
X6001134Y-12724460D01*
X6001134Y-12724460D02*
X5982086Y-12733984D01*
X5982086Y-12733984D02*
X5963039Y-12733984D01*
X5963039Y-12733984D02*
X5943991Y-12724460D01*
X5943991Y-12724460D02*
X5934467Y-12714936D01*
X5934467Y-12714936D02*
X5924943Y-12695888D01*
X5924943Y-12695888D02*
X5915420Y-12657793D01*
X5915420Y-12657793D02*
X5915420Y-12610174D01*
X5915420Y-12610174D02*
X5924943Y-12572079D01*
X5924943Y-12572079D02*
X5934467Y-12553031D01*
X5934467Y-12553031D02*
X5943991Y-12543508D01*
X5943991Y-12543508D02*
X5963039Y-12533984D01*
X6115420Y-12733984D02*
X6115420Y-12600650D01*
X6115420Y-12619698D02*
X6124943Y-12610174D01*
X6124943Y-12610174D02*
X6143991Y-12600650D01*
X6143991Y-12600650D02*
X6172563Y-12600650D01*
X6172563Y-12600650D02*
X6191610Y-12610174D01*
X6191610Y-12610174D02*
X6201134Y-12629222D01*
X6201134Y-12629222D02*
X6201134Y-12733984D01*
X6201134Y-12629222D02*
X6210658Y-12610174D01*
X6210658Y-12610174D02*
X6229705Y-12600650D01*
X6229705Y-12600650D02*
X6258277Y-12600650D01*
X6258277Y-12600650D02*
X6277324Y-12610174D01*
X6277324Y-12610174D02*
X6286848Y-12629222D01*
X6286848Y-12629222D02*
X6286848Y-12733984D01*
X6382086Y-12733984D02*
X6382086Y-12600650D01*
X6382086Y-12619698D02*
X6391610Y-12610174D01*
X6391610Y-12610174D02*
X6410658Y-12600650D01*
X6410658Y-12600650D02*
X6439229Y-12600650D01*
X6439229Y-12600650D02*
X6458277Y-12610174D01*
X6458277Y-12610174D02*
X6467801Y-12629222D01*
X6467801Y-12629222D02*
X6467801Y-12733984D01*
X6467801Y-12629222D02*
X6477324Y-12610174D01*
X6477324Y-12610174D02*
X6496372Y-12600650D01*
X6496372Y-12600650D02*
X6524943Y-12600650D01*
X6524943Y-12600650D02*
X6543991Y-12610174D01*
X6543991Y-12610174D02*
X6553515Y-12629222D01*
X6553515Y-12629222D02*
X6553515Y-12733984D01*
X6943991Y-12524460D02*
X6772563Y-12781603D01*
X7201134Y-12533984D02*
X7220182Y-12533984D01*
X7220182Y-12533984D02*
X7239229Y-12543508D01*
X7239229Y-12543508D02*
X7248753Y-12553031D01*
X7248753Y-12553031D02*
X7258277Y-12572079D01*
X7258277Y-12572079D02*
X7267801Y-12610174D01*
X7267801Y-12610174D02*
X7267801Y-12657793D01*
X7267801Y-12657793D02*
X7258277Y-12695888D01*
X7258277Y-12695888D02*
X7248753Y-12714936D01*
X7248753Y-12714936D02*
X7239229Y-12724460D01*
X7239229Y-12724460D02*
X7220182Y-12733984D01*
X7220182Y-12733984D02*
X7201134Y-12733984D01*
X7201134Y-12733984D02*
X7182086Y-12724460D01*
X7182086Y-12724460D02*
X7172563Y-12714936D01*
X7172563Y-12714936D02*
X7163039Y-12695888D01*
X7163039Y-12695888D02*
X7153515Y-12657793D01*
X7153515Y-12657793D02*
X7153515Y-12610174D01*
X7153515Y-12610174D02*
X7163039Y-12572079D01*
X7163039Y-12572079D02*
X7172563Y-12553031D01*
X7172563Y-12553031D02*
X7182086Y-12543508D01*
X7182086Y-12543508D02*
X7201134Y-12533984D01*
X7353515Y-12714936D02*
X7363039Y-12724460D01*
X7363039Y-12724460D02*
X7353515Y-12733984D01*
X7353515Y-12733984D02*
X7343991Y-12724460D01*
X7343991Y-12724460D02*
X7353515Y-12714936D01*
X7353515Y-12714936D02*
X7353515Y-12733984D01*
X7486848Y-12533984D02*
X7505896Y-12533984D01*
X7505896Y-12533984D02*
X7524944Y-12543508D01*
X7524944Y-12543508D02*
X7534467Y-12553031D01*
X7534467Y-12553031D02*
X7543991Y-12572079D01*
X7543991Y-12572079D02*
X7553515Y-12610174D01*
X7553515Y-12610174D02*
X7553515Y-12657793D01*
X7553515Y-12657793D02*
X7543991Y-12695888D01*
X7543991Y-12695888D02*
X7534467Y-12714936D01*
X7534467Y-12714936D02*
X7524944Y-12724460D01*
X7524944Y-12724460D02*
X7505896Y-12733984D01*
X7505896Y-12733984D02*
X7486848Y-12733984D01*
X7486848Y-12733984D02*
X7467801Y-12724460D01*
X7467801Y-12724460D02*
X7458277Y-12714936D01*
X7458277Y-12714936D02*
X7448753Y-12695888D01*
X7448753Y-12695888D02*
X7439229Y-12657793D01*
X7439229Y-12657793D02*
X7439229Y-12610174D01*
X7439229Y-12610174D02*
X7448753Y-12572079D01*
X7448753Y-12572079D02*
X7458277Y-12553031D01*
X7458277Y-12553031D02*
X7467801Y-12543508D01*
X7467801Y-12543508D02*
X7486848Y-12533984D01*
X7743991Y-12733984D02*
X7629706Y-12733984D01*
X7686848Y-12733984D02*
X7686848Y-12533984D01*
X7686848Y-12533984D02*
X7667801Y-12562555D01*
X7667801Y-12562555D02*
X7648753Y-12581603D01*
X7648753Y-12581603D02*
X7629706Y-12591127D01*
X7934467Y-12733984D02*
X7820182Y-12733984D01*
X7877325Y-12733984D02*
X7877325Y-12533984D01*
X7877325Y-12533984D02*
X7858277Y-12562555D01*
X7858277Y-12562555D02*
X7839229Y-12581603D01*
X7839229Y-12581603D02*
X7820182Y-12591127D01*
X8048753Y-12619698D02*
X8029706Y-12610174D01*
X8029706Y-12610174D02*
X8020182Y-12600650D01*
X8020182Y-12600650D02*
X8010658Y-12581603D01*
X8010658Y-12581603D02*
X8010658Y-12572079D01*
X8010658Y-12572079D02*
X8020182Y-12553031D01*
X8020182Y-12553031D02*
X8029706Y-12543508D01*
X8029706Y-12543508D02*
X8048753Y-12533984D01*
X8048753Y-12533984D02*
X8086848Y-12533984D01*
X8086848Y-12533984D02*
X8105896Y-12543508D01*
X8105896Y-12543508D02*
X8115420Y-12553031D01*
X8115420Y-12553031D02*
X8124944Y-12572079D01*
X8124944Y-12572079D02*
X8124944Y-12581603D01*
X8124944Y-12581603D02*
X8115420Y-12600650D01*
X8115420Y-12600650D02*
X8105896Y-12610174D01*
X8105896Y-12610174D02*
X8086848Y-12619698D01*
X8086848Y-12619698D02*
X8048753Y-12619698D01*
X8048753Y-12619698D02*
X8029706Y-12629222D01*
X8029706Y-12629222D02*
X8020182Y-12638746D01*
X8020182Y-12638746D02*
X8010658Y-12657793D01*
X8010658Y-12657793D02*
X8010658Y-12695888D01*
X8010658Y-12695888D02*
X8020182Y-12714936D01*
X8020182Y-12714936D02*
X8029706Y-12724460D01*
X8029706Y-12724460D02*
X8048753Y-12733984D01*
X8048753Y-12733984D02*
X8086848Y-12733984D01*
X8086848Y-12733984D02*
X8105896Y-12724460D01*
X8105896Y-12724460D02*
X8115420Y-12714936D01*
X8115420Y-12714936D02*
X8124944Y-12695888D01*
X8124944Y-12695888D02*
X8124944Y-12657793D01*
X8124944Y-12657793D02*
X8115420Y-12638746D01*
X8115420Y-12638746D02*
X8105896Y-12629222D01*
X8105896Y-12629222D02*
X8086848Y-12619698D01*
X8201134Y-12533984D02*
X8201134Y-12572079D01*
X8277325Y-12533984D02*
X8277325Y-12572079D01*
X8572563Y-12810174D02*
X8563039Y-12800650D01*
X8563039Y-12800650D02*
X8543991Y-12772079D01*
X8543991Y-12772079D02*
X8534468Y-12753031D01*
X8534468Y-12753031D02*
X8524944Y-12724460D01*
X8524944Y-12724460D02*
X8515420Y-12676841D01*
X8515420Y-12676841D02*
X8515420Y-12638746D01*
X8515420Y-12638746D02*
X8524944Y-12591127D01*
X8524944Y-12591127D02*
X8534468Y-12562555D01*
X8534468Y-12562555D02*
X8543991Y-12543508D01*
X8543991Y-12543508D02*
X8563039Y-12514936D01*
X8563039Y-12514936D02*
X8572563Y-12505412D01*
X8753515Y-12733984D02*
X8639230Y-12733984D01*
X8696372Y-12733984D02*
X8696372Y-12533984D01*
X8696372Y-12533984D02*
X8677325Y-12562555D01*
X8677325Y-12562555D02*
X8658277Y-12581603D01*
X8658277Y-12581603D02*
X8639230Y-12591127D01*
X8829706Y-12553031D02*
X8839230Y-12543508D01*
X8839230Y-12543508D02*
X8858277Y-12533984D01*
X8858277Y-12533984D02*
X8905896Y-12533984D01*
X8905896Y-12533984D02*
X8924944Y-12543508D01*
X8924944Y-12543508D02*
X8934468Y-12553031D01*
X8934468Y-12553031D02*
X8943991Y-12572079D01*
X8943991Y-12572079D02*
X8943991Y-12591127D01*
X8943991Y-12591127D02*
X8934468Y-12619698D01*
X8934468Y-12619698D02*
X8820182Y-12733984D01*
X8820182Y-12733984D02*
X8943991Y-12733984D01*
X9115420Y-12600650D02*
X9115420Y-12733984D01*
X9067801Y-12524460D02*
X9020182Y-12667317D01*
X9020182Y-12667317D02*
X9143991Y-12667317D01*
X9372563Y-12733984D02*
X9372563Y-12533984D01*
X9458277Y-12733984D02*
X9458277Y-12629222D01*
X9458277Y-12629222D02*
X9448753Y-12610174D01*
X9448753Y-12610174D02*
X9429706Y-12600650D01*
X9429706Y-12600650D02*
X9401134Y-12600650D01*
X9401134Y-12600650D02*
X9382087Y-12610174D01*
X9382087Y-12610174D02*
X9372563Y-12619698D01*
X9582087Y-12733984D02*
X9563039Y-12724460D01*
X9563039Y-12724460D02*
X9553515Y-12714936D01*
X9553515Y-12714936D02*
X9543992Y-12695888D01*
X9543992Y-12695888D02*
X9543992Y-12638746D01*
X9543992Y-12638746D02*
X9553515Y-12619698D01*
X9553515Y-12619698D02*
X9563039Y-12610174D01*
X9563039Y-12610174D02*
X9582087Y-12600650D01*
X9582087Y-12600650D02*
X9610658Y-12600650D01*
X9610658Y-12600650D02*
X9629706Y-12610174D01*
X9629706Y-12610174D02*
X9639230Y-12619698D01*
X9639230Y-12619698D02*
X9648753Y-12638746D01*
X9648753Y-12638746D02*
X9648753Y-12695888D01*
X9648753Y-12695888D02*
X9639230Y-12714936D01*
X9639230Y-12714936D02*
X9629706Y-12724460D01*
X9629706Y-12724460D02*
X9610658Y-12733984D01*
X9610658Y-12733984D02*
X9582087Y-12733984D01*
X9763039Y-12733984D02*
X9743992Y-12724460D01*
X9743992Y-12724460D02*
X9734468Y-12705412D01*
X9734468Y-12705412D02*
X9734468Y-12533984D01*
X9915420Y-12724460D02*
X9896373Y-12733984D01*
X9896373Y-12733984D02*
X9858277Y-12733984D01*
X9858277Y-12733984D02*
X9839230Y-12724460D01*
X9839230Y-12724460D02*
X9829706Y-12705412D01*
X9829706Y-12705412D02*
X9829706Y-12629222D01*
X9829706Y-12629222D02*
X9839230Y-12610174D01*
X9839230Y-12610174D02*
X9858277Y-12600650D01*
X9858277Y-12600650D02*
X9896373Y-12600650D01*
X9896373Y-12600650D02*
X9915420Y-12610174D01*
X9915420Y-12610174D02*
X9924944Y-12629222D01*
X9924944Y-12629222D02*
X9924944Y-12648269D01*
X9924944Y-12648269D02*
X9829706Y-12667317D01*
X10001134Y-12724460D02*
X10020182Y-12733984D01*
X10020182Y-12733984D02*
X10058277Y-12733984D01*
X10058277Y-12733984D02*
X10077325Y-12724460D01*
X10077325Y-12724460D02*
X10086849Y-12705412D01*
X10086849Y-12705412D02*
X10086849Y-12695888D01*
X10086849Y-12695888D02*
X10077325Y-12676841D01*
X10077325Y-12676841D02*
X10058277Y-12667317D01*
X10058277Y-12667317D02*
X10029706Y-12667317D01*
X10029706Y-12667317D02*
X10010658Y-12657793D01*
X10010658Y-12657793D02*
X10001134Y-12638746D01*
X10001134Y-12638746D02*
X10001134Y-12629222D01*
X10001134Y-12629222D02*
X10010658Y-12610174D01*
X10010658Y-12610174D02*
X10029706Y-12600650D01*
X10029706Y-12600650D02*
X10058277Y-12600650D01*
X10058277Y-12600650D02*
X10077325Y-12610174D01*
X10153515Y-12810174D02*
X10163039Y-12800650D01*
X10163039Y-12800650D02*
X10182087Y-12772079D01*
X10182087Y-12772079D02*
X10191611Y-12753031D01*
X10191611Y-12753031D02*
X10201134Y-12724460D01*
X10201134Y-12724460D02*
X10210658Y-12676841D01*
X10210658Y-12676841D02*
X10210658Y-12638746D01*
X10210658Y-12638746D02*
X10201134Y-12591127D01*
X10201134Y-12591127D02*
X10191611Y-12562555D01*
X10191611Y-12562555D02*
X10182087Y-12543508D01*
X10182087Y-12543508D02*
X10163039Y-12514936D01*
X10163039Y-12514936D02*
X10153515Y-12505412D01*
D12*
X4997500Y-12906500D02*
G75*
G02*
X4947500Y-12906500I-25000J0D01*
G01*
X4947500Y-12906500D02*
G75*
G02*
X4997500Y-12906500I25000J0D01*
G01*
D11*
X5296372Y-12797984D02*
X5315420Y-12797984D01*
X5315420Y-12797984D02*
X5334467Y-12807508D01*
X5334467Y-12807508D02*
X5343991Y-12817031D01*
X5343991Y-12817031D02*
X5353515Y-12836079D01*
X5353515Y-12836079D02*
X5363039Y-12874174D01*
X5363039Y-12874174D02*
X5363039Y-12921793D01*
X5363039Y-12921793D02*
X5353515Y-12959888D01*
X5353515Y-12959888D02*
X5343991Y-12978936D01*
X5343991Y-12978936D02*
X5334467Y-12988460D01*
X5334467Y-12988460D02*
X5315420Y-12997984D01*
X5315420Y-12997984D02*
X5296372Y-12997984D01*
X5296372Y-12997984D02*
X5277324Y-12988460D01*
X5277324Y-12988460D02*
X5267801Y-12978936D01*
X5267801Y-12978936D02*
X5258277Y-12959888D01*
X5258277Y-12959888D02*
X5248753Y-12921793D01*
X5248753Y-12921793D02*
X5248753Y-12874174D01*
X5248753Y-12874174D02*
X5258277Y-12836079D01*
X5258277Y-12836079D02*
X5267801Y-12817031D01*
X5267801Y-12817031D02*
X5277324Y-12807508D01*
X5277324Y-12807508D02*
X5296372Y-12797984D01*
X5448753Y-12978936D02*
X5458277Y-12988460D01*
X5458277Y-12988460D02*
X5448753Y-12997984D01*
X5448753Y-12997984D02*
X5439229Y-12988460D01*
X5439229Y-12988460D02*
X5448753Y-12978936D01*
X5448753Y-12978936D02*
X5448753Y-12997984D01*
X5639229Y-12797984D02*
X5543991Y-12797984D01*
X5543991Y-12797984D02*
X5534467Y-12893222D01*
X5534467Y-12893222D02*
X5543991Y-12883698D01*
X5543991Y-12883698D02*
X5563039Y-12874174D01*
X5563039Y-12874174D02*
X5610658Y-12874174D01*
X5610658Y-12874174D02*
X5629705Y-12883698D01*
X5629705Y-12883698D02*
X5639229Y-12893222D01*
X5639229Y-12893222D02*
X5648753Y-12912269D01*
X5648753Y-12912269D02*
X5648753Y-12959888D01*
X5648753Y-12959888D02*
X5639229Y-12978936D01*
X5639229Y-12978936D02*
X5629705Y-12988460D01*
X5629705Y-12988460D02*
X5610658Y-12997984D01*
X5610658Y-12997984D02*
X5563039Y-12997984D01*
X5563039Y-12997984D02*
X5543991Y-12988460D01*
X5543991Y-12988460D02*
X5534467Y-12978936D01*
X5772562Y-12797984D02*
X5791610Y-12797984D01*
X5791610Y-12797984D02*
X5810658Y-12807508D01*
X5810658Y-12807508D02*
X5820182Y-12817031D01*
X5820182Y-12817031D02*
X5829705Y-12836079D01*
X5829705Y-12836079D02*
X5839229Y-12874174D01*
X5839229Y-12874174D02*
X5839229Y-12921793D01*
X5839229Y-12921793D02*
X5829705Y-12959888D01*
X5829705Y-12959888D02*
X5820182Y-12978936D01*
X5820182Y-12978936D02*
X5810658Y-12988460D01*
X5810658Y-12988460D02*
X5791610Y-12997984D01*
X5791610Y-12997984D02*
X5772562Y-12997984D01*
X5772562Y-12997984D02*
X5753515Y-12988460D01*
X5753515Y-12988460D02*
X5743991Y-12978936D01*
X5743991Y-12978936D02*
X5734467Y-12959888D01*
X5734467Y-12959888D02*
X5724943Y-12921793D01*
X5724943Y-12921793D02*
X5724943Y-12874174D01*
X5724943Y-12874174D02*
X5734467Y-12836079D01*
X5734467Y-12836079D02*
X5743991Y-12817031D01*
X5743991Y-12817031D02*
X5753515Y-12807508D01*
X5753515Y-12807508D02*
X5772562Y-12797984D01*
X5963039Y-12797984D02*
X5982086Y-12797984D01*
X5982086Y-12797984D02*
X6001134Y-12807508D01*
X6001134Y-12807508D02*
X6010658Y-12817031D01*
X6010658Y-12817031D02*
X6020182Y-12836079D01*
X6020182Y-12836079D02*
X6029705Y-12874174D01*
X6029705Y-12874174D02*
X6029705Y-12921793D01*
X6029705Y-12921793D02*
X6020182Y-12959888D01*
X6020182Y-12959888D02*
X6010658Y-12978936D01*
X6010658Y-12978936D02*
X6001134Y-12988460D01*
X6001134Y-12988460D02*
X5982086Y-12997984D01*
X5982086Y-12997984D02*
X5963039Y-12997984D01*
X5963039Y-12997984D02*
X5943991Y-12988460D01*
X5943991Y-12988460D02*
X5934467Y-12978936D01*
X5934467Y-12978936D02*
X5924943Y-12959888D01*
X5924943Y-12959888D02*
X5915420Y-12921793D01*
X5915420Y-12921793D02*
X5915420Y-12874174D01*
X5915420Y-12874174D02*
X5924943Y-12836079D01*
X5924943Y-12836079D02*
X5934467Y-12817031D01*
X5934467Y-12817031D02*
X5943991Y-12807508D01*
X5943991Y-12807508D02*
X5963039Y-12797984D01*
X6115420Y-12997984D02*
X6115420Y-12864650D01*
X6115420Y-12883698D02*
X6124943Y-12874174D01*
X6124943Y-12874174D02*
X6143991Y-12864650D01*
X6143991Y-12864650D02*
X6172563Y-12864650D01*
X6172563Y-12864650D02*
X6191610Y-12874174D01*
X6191610Y-12874174D02*
X6201134Y-12893222D01*
X6201134Y-12893222D02*
X6201134Y-12997984D01*
X6201134Y-12893222D02*
X6210658Y-12874174D01*
X6210658Y-12874174D02*
X6229705Y-12864650D01*
X6229705Y-12864650D02*
X6258277Y-12864650D01*
X6258277Y-12864650D02*
X6277324Y-12874174D01*
X6277324Y-12874174D02*
X6286848Y-12893222D01*
X6286848Y-12893222D02*
X6286848Y-12997984D01*
X6382086Y-12997984D02*
X6382086Y-12864650D01*
X6382086Y-12883698D02*
X6391610Y-12874174D01*
X6391610Y-12874174D02*
X6410658Y-12864650D01*
X6410658Y-12864650D02*
X6439229Y-12864650D01*
X6439229Y-12864650D02*
X6458277Y-12874174D01*
X6458277Y-12874174D02*
X6467801Y-12893222D01*
X6467801Y-12893222D02*
X6467801Y-12997984D01*
X6467801Y-12893222D02*
X6477324Y-12874174D01*
X6477324Y-12874174D02*
X6496372Y-12864650D01*
X6496372Y-12864650D02*
X6524943Y-12864650D01*
X6524943Y-12864650D02*
X6543991Y-12874174D01*
X6543991Y-12874174D02*
X6553515Y-12893222D01*
X6553515Y-12893222D02*
X6553515Y-12997984D01*
X6943991Y-12788460D02*
X6772563Y-13045603D01*
X7201134Y-12797984D02*
X7220182Y-12797984D01*
X7220182Y-12797984D02*
X7239229Y-12807508D01*
X7239229Y-12807508D02*
X7248753Y-12817031D01*
X7248753Y-12817031D02*
X7258277Y-12836079D01*
X7258277Y-12836079D02*
X7267801Y-12874174D01*
X7267801Y-12874174D02*
X7267801Y-12921793D01*
X7267801Y-12921793D02*
X7258277Y-12959888D01*
X7258277Y-12959888D02*
X7248753Y-12978936D01*
X7248753Y-12978936D02*
X7239229Y-12988460D01*
X7239229Y-12988460D02*
X7220182Y-12997984D01*
X7220182Y-12997984D02*
X7201134Y-12997984D01*
X7201134Y-12997984D02*
X7182086Y-12988460D01*
X7182086Y-12988460D02*
X7172563Y-12978936D01*
X7172563Y-12978936D02*
X7163039Y-12959888D01*
X7163039Y-12959888D02*
X7153515Y-12921793D01*
X7153515Y-12921793D02*
X7153515Y-12874174D01*
X7153515Y-12874174D02*
X7163039Y-12836079D01*
X7163039Y-12836079D02*
X7172563Y-12817031D01*
X7172563Y-12817031D02*
X7182086Y-12807508D01*
X7182086Y-12807508D02*
X7201134Y-12797984D01*
X7353515Y-12978936D02*
X7363039Y-12988460D01*
X7363039Y-12988460D02*
X7353515Y-12997984D01*
X7353515Y-12997984D02*
X7343991Y-12988460D01*
X7343991Y-12988460D02*
X7353515Y-12978936D01*
X7353515Y-12978936D02*
X7353515Y-12997984D01*
X7486848Y-12797984D02*
X7505896Y-12797984D01*
X7505896Y-12797984D02*
X7524944Y-12807508D01*
X7524944Y-12807508D02*
X7534467Y-12817031D01*
X7534467Y-12817031D02*
X7543991Y-12836079D01*
X7543991Y-12836079D02*
X7553515Y-12874174D01*
X7553515Y-12874174D02*
X7553515Y-12921793D01*
X7553515Y-12921793D02*
X7543991Y-12959888D01*
X7543991Y-12959888D02*
X7534467Y-12978936D01*
X7534467Y-12978936D02*
X7524944Y-12988460D01*
X7524944Y-12988460D02*
X7505896Y-12997984D01*
X7505896Y-12997984D02*
X7486848Y-12997984D01*
X7486848Y-12997984D02*
X7467801Y-12988460D01*
X7467801Y-12988460D02*
X7458277Y-12978936D01*
X7458277Y-12978936D02*
X7448753Y-12959888D01*
X7448753Y-12959888D02*
X7439229Y-12921793D01*
X7439229Y-12921793D02*
X7439229Y-12874174D01*
X7439229Y-12874174D02*
X7448753Y-12836079D01*
X7448753Y-12836079D02*
X7458277Y-12817031D01*
X7458277Y-12817031D02*
X7467801Y-12807508D01*
X7467801Y-12807508D02*
X7486848Y-12797984D01*
X7743991Y-12997984D02*
X7629706Y-12997984D01*
X7686848Y-12997984D02*
X7686848Y-12797984D01*
X7686848Y-12797984D02*
X7667801Y-12826555D01*
X7667801Y-12826555D02*
X7648753Y-12845603D01*
X7648753Y-12845603D02*
X7629706Y-12855127D01*
X7839229Y-12997984D02*
X7877325Y-12997984D01*
X7877325Y-12997984D02*
X7896372Y-12988460D01*
X7896372Y-12988460D02*
X7905896Y-12978936D01*
X7905896Y-12978936D02*
X7924944Y-12950365D01*
X7924944Y-12950365D02*
X7934467Y-12912269D01*
X7934467Y-12912269D02*
X7934467Y-12836079D01*
X7934467Y-12836079D02*
X7924944Y-12817031D01*
X7924944Y-12817031D02*
X7915420Y-12807508D01*
X7915420Y-12807508D02*
X7896372Y-12797984D01*
X7896372Y-12797984D02*
X7858277Y-12797984D01*
X7858277Y-12797984D02*
X7839229Y-12807508D01*
X7839229Y-12807508D02*
X7829706Y-12817031D01*
X7829706Y-12817031D02*
X7820182Y-12836079D01*
X7820182Y-12836079D02*
X7820182Y-12883698D01*
X7820182Y-12883698D02*
X7829706Y-12902746D01*
X7829706Y-12902746D02*
X7839229Y-12912269D01*
X7839229Y-12912269D02*
X7858277Y-12921793D01*
X7858277Y-12921793D02*
X7896372Y-12921793D01*
X7896372Y-12921793D02*
X7915420Y-12912269D01*
X7915420Y-12912269D02*
X7924944Y-12902746D01*
X7924944Y-12902746D02*
X7934467Y-12883698D01*
X8001134Y-12797984D02*
X8134467Y-12797984D01*
X8134467Y-12797984D02*
X8048753Y-12997984D01*
X8201134Y-12797984D02*
X8201134Y-12836079D01*
X8277325Y-12797984D02*
X8277325Y-12836079D01*
X8572563Y-13074174D02*
X8563039Y-13064650D01*
X8563039Y-13064650D02*
X8543991Y-13036079D01*
X8543991Y-13036079D02*
X8534468Y-13017031D01*
X8534468Y-13017031D02*
X8524944Y-12988460D01*
X8524944Y-12988460D02*
X8515420Y-12940841D01*
X8515420Y-12940841D02*
X8515420Y-12902746D01*
X8515420Y-12902746D02*
X8524944Y-12855127D01*
X8524944Y-12855127D02*
X8534468Y-12826555D01*
X8534468Y-12826555D02*
X8543991Y-12807508D01*
X8543991Y-12807508D02*
X8563039Y-12778936D01*
X8563039Y-12778936D02*
X8572563Y-12769412D01*
X8639230Y-12817031D02*
X8648753Y-12807508D01*
X8648753Y-12807508D02*
X8667801Y-12797984D01*
X8667801Y-12797984D02*
X8715420Y-12797984D01*
X8715420Y-12797984D02*
X8734468Y-12807508D01*
X8734468Y-12807508D02*
X8743991Y-12817031D01*
X8743991Y-12817031D02*
X8753515Y-12836079D01*
X8753515Y-12836079D02*
X8753515Y-12855127D01*
X8753515Y-12855127D02*
X8743991Y-12883698D01*
X8743991Y-12883698D02*
X8629706Y-12997984D01*
X8629706Y-12997984D02*
X8753515Y-12997984D01*
X8991611Y-12997984D02*
X8991611Y-12797984D01*
X9077325Y-12997984D02*
X9077325Y-12893222D01*
X9077325Y-12893222D02*
X9067801Y-12874174D01*
X9067801Y-12874174D02*
X9048753Y-12864650D01*
X9048753Y-12864650D02*
X9020182Y-12864650D01*
X9020182Y-12864650D02*
X9001134Y-12874174D01*
X9001134Y-12874174D02*
X8991611Y-12883698D01*
X9201134Y-12997984D02*
X9182087Y-12988460D01*
X9182087Y-12988460D02*
X9172563Y-12978936D01*
X9172563Y-12978936D02*
X9163039Y-12959888D01*
X9163039Y-12959888D02*
X9163039Y-12902746D01*
X9163039Y-12902746D02*
X9172563Y-12883698D01*
X9172563Y-12883698D02*
X9182087Y-12874174D01*
X9182087Y-12874174D02*
X9201134Y-12864650D01*
X9201134Y-12864650D02*
X9229706Y-12864650D01*
X9229706Y-12864650D02*
X9248753Y-12874174D01*
X9248753Y-12874174D02*
X9258277Y-12883698D01*
X9258277Y-12883698D02*
X9267801Y-12902746D01*
X9267801Y-12902746D02*
X9267801Y-12959888D01*
X9267801Y-12959888D02*
X9258277Y-12978936D01*
X9258277Y-12978936D02*
X9248753Y-12988460D01*
X9248753Y-12988460D02*
X9229706Y-12997984D01*
X9229706Y-12997984D02*
X9201134Y-12997984D01*
X9382087Y-12997984D02*
X9363039Y-12988460D01*
X9363039Y-12988460D02*
X9353515Y-12969412D01*
X9353515Y-12969412D02*
X9353515Y-12797984D01*
X9534468Y-12988460D02*
X9515420Y-12997984D01*
X9515420Y-12997984D02*
X9477325Y-12997984D01*
X9477325Y-12997984D02*
X9458277Y-12988460D01*
X9458277Y-12988460D02*
X9448753Y-12969412D01*
X9448753Y-12969412D02*
X9448753Y-12893222D01*
X9448753Y-12893222D02*
X9458277Y-12874174D01*
X9458277Y-12874174D02*
X9477325Y-12864650D01*
X9477325Y-12864650D02*
X9515420Y-12864650D01*
X9515420Y-12864650D02*
X9534468Y-12874174D01*
X9534468Y-12874174D02*
X9543992Y-12893222D01*
X9543992Y-12893222D02*
X9543992Y-12912269D01*
X9543992Y-12912269D02*
X9448753Y-12931317D01*
X9620182Y-12988460D02*
X9639230Y-12997984D01*
X9639230Y-12997984D02*
X9677325Y-12997984D01*
X9677325Y-12997984D02*
X9696373Y-12988460D01*
X9696373Y-12988460D02*
X9705896Y-12969412D01*
X9705896Y-12969412D02*
X9705896Y-12959888D01*
X9705896Y-12959888D02*
X9696373Y-12940841D01*
X9696373Y-12940841D02*
X9677325Y-12931317D01*
X9677325Y-12931317D02*
X9648753Y-12931317D01*
X9648753Y-12931317D02*
X9629706Y-12921793D01*
X9629706Y-12921793D02*
X9620182Y-12902746D01*
X9620182Y-12902746D02*
X9620182Y-12893222D01*
X9620182Y-12893222D02*
X9629706Y-12874174D01*
X9629706Y-12874174D02*
X9648753Y-12864650D01*
X9648753Y-12864650D02*
X9677325Y-12864650D01*
X9677325Y-12864650D02*
X9696373Y-12874174D01*
X9772563Y-13074174D02*
X9782087Y-13064650D01*
X9782087Y-13064650D02*
X9801134Y-13036079D01*
X9801134Y-13036079D02*
X9810658Y-13017031D01*
X9810658Y-13017031D02*
X9820182Y-12988460D01*
X9820182Y-12988460D02*
X9829706Y-12940841D01*
X9829706Y-12940841D02*
X9829706Y-12902746D01*
X9829706Y-12902746D02*
X9820182Y-12855127D01*
X9820182Y-12855127D02*
X9810658Y-12826555D01*
X9810658Y-12826555D02*
X9801134Y-12807508D01*
X9801134Y-12807508D02*
X9782087Y-12778936D01*
X9782087Y-12778936D02*
X9772563Y-12769412D01*
D12*
X4950000Y-13123000D02*
X4950000Y-13218000D01*
X4902500Y-13170500D02*
X4997500Y-13170500D01*
D11*
X5296372Y-13061984D02*
X5315420Y-13061984D01*
X5315420Y-13061984D02*
X5334467Y-13071508D01*
X5334467Y-13071508D02*
X5343991Y-13081031D01*
X5343991Y-13081031D02*
X5353515Y-13100079D01*
X5353515Y-13100079D02*
X5363039Y-13138174D01*
X5363039Y-13138174D02*
X5363039Y-13185793D01*
X5363039Y-13185793D02*
X5353515Y-13223888D01*
X5353515Y-13223888D02*
X5343991Y-13242936D01*
X5343991Y-13242936D02*
X5334467Y-13252460D01*
X5334467Y-13252460D02*
X5315420Y-13261984D01*
X5315420Y-13261984D02*
X5296372Y-13261984D01*
X5296372Y-13261984D02*
X5277324Y-13252460D01*
X5277324Y-13252460D02*
X5267801Y-13242936D01*
X5267801Y-13242936D02*
X5258277Y-13223888D01*
X5258277Y-13223888D02*
X5248753Y-13185793D01*
X5248753Y-13185793D02*
X5248753Y-13138174D01*
X5248753Y-13138174D02*
X5258277Y-13100079D01*
X5258277Y-13100079D02*
X5267801Y-13081031D01*
X5267801Y-13081031D02*
X5277324Y-13071508D01*
X5277324Y-13071508D02*
X5296372Y-13061984D01*
X5448753Y-13242936D02*
X5458277Y-13252460D01*
X5458277Y-13252460D02*
X5448753Y-13261984D01*
X5448753Y-13261984D02*
X5439229Y-13252460D01*
X5439229Y-13252460D02*
X5448753Y-13242936D01*
X5448753Y-13242936D02*
X5448753Y-13261984D01*
X5553515Y-13261984D02*
X5591610Y-13261984D01*
X5591610Y-13261984D02*
X5610658Y-13252460D01*
X5610658Y-13252460D02*
X5620182Y-13242936D01*
X5620182Y-13242936D02*
X5639229Y-13214365D01*
X5639229Y-13214365D02*
X5648753Y-13176269D01*
X5648753Y-13176269D02*
X5648753Y-13100079D01*
X5648753Y-13100079D02*
X5639229Y-13081031D01*
X5639229Y-13081031D02*
X5629705Y-13071508D01*
X5629705Y-13071508D02*
X5610658Y-13061984D01*
X5610658Y-13061984D02*
X5572563Y-13061984D01*
X5572563Y-13061984D02*
X5553515Y-13071508D01*
X5553515Y-13071508D02*
X5543991Y-13081031D01*
X5543991Y-13081031D02*
X5534467Y-13100079D01*
X5534467Y-13100079D02*
X5534467Y-13147698D01*
X5534467Y-13147698D02*
X5543991Y-13166746D01*
X5543991Y-13166746D02*
X5553515Y-13176269D01*
X5553515Y-13176269D02*
X5572563Y-13185793D01*
X5572563Y-13185793D02*
X5610658Y-13185793D01*
X5610658Y-13185793D02*
X5629705Y-13176269D01*
X5629705Y-13176269D02*
X5639229Y-13166746D01*
X5639229Y-13166746D02*
X5648753Y-13147698D01*
X5829705Y-13061984D02*
X5734467Y-13061984D01*
X5734467Y-13061984D02*
X5724943Y-13157222D01*
X5724943Y-13157222D02*
X5734467Y-13147698D01*
X5734467Y-13147698D02*
X5753515Y-13138174D01*
X5753515Y-13138174D02*
X5801134Y-13138174D01*
X5801134Y-13138174D02*
X5820182Y-13147698D01*
X5820182Y-13147698D02*
X5829705Y-13157222D01*
X5829705Y-13157222D02*
X5839229Y-13176269D01*
X5839229Y-13176269D02*
X5839229Y-13223888D01*
X5839229Y-13223888D02*
X5829705Y-13242936D01*
X5829705Y-13242936D02*
X5820182Y-13252460D01*
X5820182Y-13252460D02*
X5801134Y-13261984D01*
X5801134Y-13261984D02*
X5753515Y-13261984D01*
X5753515Y-13261984D02*
X5734467Y-13252460D01*
X5734467Y-13252460D02*
X5724943Y-13242936D01*
X5963039Y-13061984D02*
X5982086Y-13061984D01*
X5982086Y-13061984D02*
X6001134Y-13071508D01*
X6001134Y-13071508D02*
X6010658Y-13081031D01*
X6010658Y-13081031D02*
X6020182Y-13100079D01*
X6020182Y-13100079D02*
X6029705Y-13138174D01*
X6029705Y-13138174D02*
X6029705Y-13185793D01*
X6029705Y-13185793D02*
X6020182Y-13223888D01*
X6020182Y-13223888D02*
X6010658Y-13242936D01*
X6010658Y-13242936D02*
X6001134Y-13252460D01*
X6001134Y-13252460D02*
X5982086Y-13261984D01*
X5982086Y-13261984D02*
X5963039Y-13261984D01*
X5963039Y-13261984D02*
X5943991Y-13252460D01*
X5943991Y-13252460D02*
X5934467Y-13242936D01*
X5934467Y-13242936D02*
X5924943Y-13223888D01*
X5924943Y-13223888D02*
X5915420Y-13185793D01*
X5915420Y-13185793D02*
X5915420Y-13138174D01*
X5915420Y-13138174D02*
X5924943Y-13100079D01*
X5924943Y-13100079D02*
X5934467Y-13081031D01*
X5934467Y-13081031D02*
X5943991Y-13071508D01*
X5943991Y-13071508D02*
X5963039Y-13061984D01*
X6115420Y-13261984D02*
X6115420Y-13128650D01*
X6115420Y-13147698D02*
X6124943Y-13138174D01*
X6124943Y-13138174D02*
X6143991Y-13128650D01*
X6143991Y-13128650D02*
X6172563Y-13128650D01*
X6172563Y-13128650D02*
X6191610Y-13138174D01*
X6191610Y-13138174D02*
X6201134Y-13157222D01*
X6201134Y-13157222D02*
X6201134Y-13261984D01*
X6201134Y-13157222D02*
X6210658Y-13138174D01*
X6210658Y-13138174D02*
X6229705Y-13128650D01*
X6229705Y-13128650D02*
X6258277Y-13128650D01*
X6258277Y-13128650D02*
X6277324Y-13138174D01*
X6277324Y-13138174D02*
X6286848Y-13157222D01*
X6286848Y-13157222D02*
X6286848Y-13261984D01*
X6382086Y-13261984D02*
X6382086Y-13128650D01*
X6382086Y-13147698D02*
X6391610Y-13138174D01*
X6391610Y-13138174D02*
X6410658Y-13128650D01*
X6410658Y-13128650D02*
X6439229Y-13128650D01*
X6439229Y-13128650D02*
X6458277Y-13138174D01*
X6458277Y-13138174D02*
X6467801Y-13157222D01*
X6467801Y-13157222D02*
X6467801Y-13261984D01*
X6467801Y-13157222D02*
X6477324Y-13138174D01*
X6477324Y-13138174D02*
X6496372Y-13128650D01*
X6496372Y-13128650D02*
X6524943Y-13128650D01*
X6524943Y-13128650D02*
X6543991Y-13138174D01*
X6543991Y-13138174D02*
X6553515Y-13157222D01*
X6553515Y-13157222D02*
X6553515Y-13261984D01*
X6943991Y-13052460D02*
X6772563Y-13309603D01*
X7201134Y-13061984D02*
X7220182Y-13061984D01*
X7220182Y-13061984D02*
X7239229Y-13071508D01*
X7239229Y-13071508D02*
X7248753Y-13081031D01*
X7248753Y-13081031D02*
X7258277Y-13100079D01*
X7258277Y-13100079D02*
X7267801Y-13138174D01*
X7267801Y-13138174D02*
X7267801Y-13185793D01*
X7267801Y-13185793D02*
X7258277Y-13223888D01*
X7258277Y-13223888D02*
X7248753Y-13242936D01*
X7248753Y-13242936D02*
X7239229Y-13252460D01*
X7239229Y-13252460D02*
X7220182Y-13261984D01*
X7220182Y-13261984D02*
X7201134Y-13261984D01*
X7201134Y-13261984D02*
X7182086Y-13252460D01*
X7182086Y-13252460D02*
X7172563Y-13242936D01*
X7172563Y-13242936D02*
X7163039Y-13223888D01*
X7163039Y-13223888D02*
X7153515Y-13185793D01*
X7153515Y-13185793D02*
X7153515Y-13138174D01*
X7153515Y-13138174D02*
X7163039Y-13100079D01*
X7163039Y-13100079D02*
X7172563Y-13081031D01*
X7172563Y-13081031D02*
X7182086Y-13071508D01*
X7182086Y-13071508D02*
X7201134Y-13061984D01*
X7353515Y-13242936D02*
X7363039Y-13252460D01*
X7363039Y-13252460D02*
X7353515Y-13261984D01*
X7353515Y-13261984D02*
X7343991Y-13252460D01*
X7343991Y-13252460D02*
X7353515Y-13242936D01*
X7353515Y-13242936D02*
X7353515Y-13261984D01*
X7486848Y-13061984D02*
X7505896Y-13061984D01*
X7505896Y-13061984D02*
X7524944Y-13071508D01*
X7524944Y-13071508D02*
X7534467Y-13081031D01*
X7534467Y-13081031D02*
X7543991Y-13100079D01*
X7543991Y-13100079D02*
X7553515Y-13138174D01*
X7553515Y-13138174D02*
X7553515Y-13185793D01*
X7553515Y-13185793D02*
X7543991Y-13223888D01*
X7543991Y-13223888D02*
X7534467Y-13242936D01*
X7534467Y-13242936D02*
X7524944Y-13252460D01*
X7524944Y-13252460D02*
X7505896Y-13261984D01*
X7505896Y-13261984D02*
X7486848Y-13261984D01*
X7486848Y-13261984D02*
X7467801Y-13252460D01*
X7467801Y-13252460D02*
X7458277Y-13242936D01*
X7458277Y-13242936D02*
X7448753Y-13223888D01*
X7448753Y-13223888D02*
X7439229Y-13185793D01*
X7439229Y-13185793D02*
X7439229Y-13138174D01*
X7439229Y-13138174D02*
X7448753Y-13100079D01*
X7448753Y-13100079D02*
X7458277Y-13081031D01*
X7458277Y-13081031D02*
X7467801Y-13071508D01*
X7467801Y-13071508D02*
X7486848Y-13061984D01*
X7620182Y-13061984D02*
X7743991Y-13061984D01*
X7743991Y-13061984D02*
X7677325Y-13138174D01*
X7677325Y-13138174D02*
X7705896Y-13138174D01*
X7705896Y-13138174D02*
X7724944Y-13147698D01*
X7724944Y-13147698D02*
X7734467Y-13157222D01*
X7734467Y-13157222D02*
X7743991Y-13176269D01*
X7743991Y-13176269D02*
X7743991Y-13223888D01*
X7743991Y-13223888D02*
X7734467Y-13242936D01*
X7734467Y-13242936D02*
X7724944Y-13252460D01*
X7724944Y-13252460D02*
X7705896Y-13261984D01*
X7705896Y-13261984D02*
X7648753Y-13261984D01*
X7648753Y-13261984D02*
X7629706Y-13252460D01*
X7629706Y-13252460D02*
X7620182Y-13242936D01*
X7810658Y-13061984D02*
X7943991Y-13061984D01*
X7943991Y-13061984D02*
X7858277Y-13261984D01*
X8105896Y-13128650D02*
X8105896Y-13261984D01*
X8058277Y-13052460D02*
X8010658Y-13195317D01*
X8010658Y-13195317D02*
X8134467Y-13195317D01*
X8201134Y-13061984D02*
X8201134Y-13100079D01*
X8277325Y-13061984D02*
X8277325Y-13100079D01*
X8572563Y-13338174D02*
X8563039Y-13328650D01*
X8563039Y-13328650D02*
X8543991Y-13300079D01*
X8543991Y-13300079D02*
X8534468Y-13281031D01*
X8534468Y-13281031D02*
X8524944Y-13252460D01*
X8524944Y-13252460D02*
X8515420Y-13204841D01*
X8515420Y-13204841D02*
X8515420Y-13166746D01*
X8515420Y-13166746D02*
X8524944Y-13119127D01*
X8524944Y-13119127D02*
X8534468Y-13090555D01*
X8534468Y-13090555D02*
X8543991Y-13071508D01*
X8543991Y-13071508D02*
X8563039Y-13042936D01*
X8563039Y-13042936D02*
X8572563Y-13033412D01*
X8639230Y-13081031D02*
X8648753Y-13071508D01*
X8648753Y-13071508D02*
X8667801Y-13061984D01*
X8667801Y-13061984D02*
X8715420Y-13061984D01*
X8715420Y-13061984D02*
X8734468Y-13071508D01*
X8734468Y-13071508D02*
X8743991Y-13081031D01*
X8743991Y-13081031D02*
X8753515Y-13100079D01*
X8753515Y-13100079D02*
X8753515Y-13119127D01*
X8753515Y-13119127D02*
X8743991Y-13147698D01*
X8743991Y-13147698D02*
X8629706Y-13261984D01*
X8629706Y-13261984D02*
X8753515Y-13261984D01*
X8934468Y-13061984D02*
X8839230Y-13061984D01*
X8839230Y-13061984D02*
X8829706Y-13157222D01*
X8829706Y-13157222D02*
X8839230Y-13147698D01*
X8839230Y-13147698D02*
X8858277Y-13138174D01*
X8858277Y-13138174D02*
X8905896Y-13138174D01*
X8905896Y-13138174D02*
X8924944Y-13147698D01*
X8924944Y-13147698D02*
X8934468Y-13157222D01*
X8934468Y-13157222D02*
X8943991Y-13176269D01*
X8943991Y-13176269D02*
X8943991Y-13223888D01*
X8943991Y-13223888D02*
X8934468Y-13242936D01*
X8934468Y-13242936D02*
X8924944Y-13252460D01*
X8924944Y-13252460D02*
X8905896Y-13261984D01*
X8905896Y-13261984D02*
X8858277Y-13261984D01*
X8858277Y-13261984D02*
X8839230Y-13252460D01*
X8839230Y-13252460D02*
X8829706Y-13242936D01*
X9182087Y-13261984D02*
X9182087Y-13061984D01*
X9267801Y-13261984D02*
X9267801Y-13157222D01*
X9267801Y-13157222D02*
X9258277Y-13138174D01*
X9258277Y-13138174D02*
X9239230Y-13128650D01*
X9239230Y-13128650D02*
X9210658Y-13128650D01*
X9210658Y-13128650D02*
X9191611Y-13138174D01*
X9191611Y-13138174D02*
X9182087Y-13147698D01*
X9391611Y-13261984D02*
X9372563Y-13252460D01*
X9372563Y-13252460D02*
X9363039Y-13242936D01*
X9363039Y-13242936D02*
X9353515Y-13223888D01*
X9353515Y-13223888D02*
X9353515Y-13166746D01*
X9353515Y-13166746D02*
X9363039Y-13147698D01*
X9363039Y-13147698D02*
X9372563Y-13138174D01*
X9372563Y-13138174D02*
X9391611Y-13128650D01*
X9391611Y-13128650D02*
X9420182Y-13128650D01*
X9420182Y-13128650D02*
X9439230Y-13138174D01*
X9439230Y-13138174D02*
X9448753Y-13147698D01*
X9448753Y-13147698D02*
X9458277Y-13166746D01*
X9458277Y-13166746D02*
X9458277Y-13223888D01*
X9458277Y-13223888D02*
X9448753Y-13242936D01*
X9448753Y-13242936D02*
X9439230Y-13252460D01*
X9439230Y-13252460D02*
X9420182Y-13261984D01*
X9420182Y-13261984D02*
X9391611Y-13261984D01*
X9572563Y-13261984D02*
X9553515Y-13252460D01*
X9553515Y-13252460D02*
X9543992Y-13233412D01*
X9543992Y-13233412D02*
X9543992Y-13061984D01*
X9724944Y-13252460D02*
X9705896Y-13261984D01*
X9705896Y-13261984D02*
X9667801Y-13261984D01*
X9667801Y-13261984D02*
X9648753Y-13252460D01*
X9648753Y-13252460D02*
X9639230Y-13233412D01*
X9639230Y-13233412D02*
X9639230Y-13157222D01*
X9639230Y-13157222D02*
X9648753Y-13138174D01*
X9648753Y-13138174D02*
X9667801Y-13128650D01*
X9667801Y-13128650D02*
X9705896Y-13128650D01*
X9705896Y-13128650D02*
X9724944Y-13138174D01*
X9724944Y-13138174D02*
X9734468Y-13157222D01*
X9734468Y-13157222D02*
X9734468Y-13176269D01*
X9734468Y-13176269D02*
X9639230Y-13195317D01*
X9810658Y-13252460D02*
X9829706Y-13261984D01*
X9829706Y-13261984D02*
X9867801Y-13261984D01*
X9867801Y-13261984D02*
X9886849Y-13252460D01*
X9886849Y-13252460D02*
X9896373Y-13233412D01*
X9896373Y-13233412D02*
X9896373Y-13223888D01*
X9896373Y-13223888D02*
X9886849Y-13204841D01*
X9886849Y-13204841D02*
X9867801Y-13195317D01*
X9867801Y-13195317D02*
X9839230Y-13195317D01*
X9839230Y-13195317D02*
X9820182Y-13185793D01*
X9820182Y-13185793D02*
X9810658Y-13166746D01*
X9810658Y-13166746D02*
X9810658Y-13157222D01*
X9810658Y-13157222D02*
X9820182Y-13138174D01*
X9820182Y-13138174D02*
X9839230Y-13128650D01*
X9839230Y-13128650D02*
X9867801Y-13128650D01*
X9867801Y-13128650D02*
X9886849Y-13138174D01*
X9963039Y-13338174D02*
X9972563Y-13328650D01*
X9972563Y-13328650D02*
X9991611Y-13300079D01*
X9991611Y-13300079D02*
X10001134Y-13281031D01*
X10001134Y-13281031D02*
X10010658Y-13252460D01*
X10010658Y-13252460D02*
X10020182Y-13204841D01*
X10020182Y-13204841D02*
X10020182Y-13166746D01*
X10020182Y-13166746D02*
X10010658Y-13119127D01*
X10010658Y-13119127D02*
X10001134Y-13090555D01*
X10001134Y-13090555D02*
X9991611Y-13071508D01*
X9991611Y-13071508D02*
X9972563Y-13042936D01*
X9972563Y-13042936D02*
X9963039Y-13033412D01*
D12*
X4982856Y-13469856D02*
X4982856Y-13399144D01*
X4912144Y-13399144D01*
X4912144Y-13469856D01*
X4982856Y-13469856D01*
D11*
X5363039Y-13525984D02*
X5248753Y-13525984D01*
X5305896Y-13525984D02*
X5305896Y-13325984D01*
X5305896Y-13325984D02*
X5286848Y-13354555D01*
X5286848Y-13354555D02*
X5267801Y-13373603D01*
X5267801Y-13373603D02*
X5248753Y-13383127D01*
X5448753Y-13506936D02*
X5458277Y-13516460D01*
X5458277Y-13516460D02*
X5448753Y-13525984D01*
X5448753Y-13525984D02*
X5439229Y-13516460D01*
X5439229Y-13516460D02*
X5448753Y-13506936D01*
X5448753Y-13506936D02*
X5448753Y-13525984D01*
X5582086Y-13325984D02*
X5601134Y-13325984D01*
X5601134Y-13325984D02*
X5620182Y-13335508D01*
X5620182Y-13335508D02*
X5629705Y-13345031D01*
X5629705Y-13345031D02*
X5639229Y-13364079D01*
X5639229Y-13364079D02*
X5648753Y-13402174D01*
X5648753Y-13402174D02*
X5648753Y-13449793D01*
X5648753Y-13449793D02*
X5639229Y-13487888D01*
X5639229Y-13487888D02*
X5629705Y-13506936D01*
X5629705Y-13506936D02*
X5620182Y-13516460D01*
X5620182Y-13516460D02*
X5601134Y-13525984D01*
X5601134Y-13525984D02*
X5582086Y-13525984D01*
X5582086Y-13525984D02*
X5563039Y-13516460D01*
X5563039Y-13516460D02*
X5553515Y-13506936D01*
X5553515Y-13506936D02*
X5543991Y-13487888D01*
X5543991Y-13487888D02*
X5534467Y-13449793D01*
X5534467Y-13449793D02*
X5534467Y-13402174D01*
X5534467Y-13402174D02*
X5543991Y-13364079D01*
X5543991Y-13364079D02*
X5553515Y-13345031D01*
X5553515Y-13345031D02*
X5563039Y-13335508D01*
X5563039Y-13335508D02*
X5582086Y-13325984D01*
X5772562Y-13325984D02*
X5791610Y-13325984D01*
X5791610Y-13325984D02*
X5810658Y-13335508D01*
X5810658Y-13335508D02*
X5820182Y-13345031D01*
X5820182Y-13345031D02*
X5829705Y-13364079D01*
X5829705Y-13364079D02*
X5839229Y-13402174D01*
X5839229Y-13402174D02*
X5839229Y-13449793D01*
X5839229Y-13449793D02*
X5829705Y-13487888D01*
X5829705Y-13487888D02*
X5820182Y-13506936D01*
X5820182Y-13506936D02*
X5810658Y-13516460D01*
X5810658Y-13516460D02*
X5791610Y-13525984D01*
X5791610Y-13525984D02*
X5772562Y-13525984D01*
X5772562Y-13525984D02*
X5753515Y-13516460D01*
X5753515Y-13516460D02*
X5743991Y-13506936D01*
X5743991Y-13506936D02*
X5734467Y-13487888D01*
X5734467Y-13487888D02*
X5724943Y-13449793D01*
X5724943Y-13449793D02*
X5724943Y-13402174D01*
X5724943Y-13402174D02*
X5734467Y-13364079D01*
X5734467Y-13364079D02*
X5743991Y-13345031D01*
X5743991Y-13345031D02*
X5753515Y-13335508D01*
X5753515Y-13335508D02*
X5772562Y-13325984D01*
X5963039Y-13325984D02*
X5982086Y-13325984D01*
X5982086Y-13325984D02*
X6001134Y-13335508D01*
X6001134Y-13335508D02*
X6010658Y-13345031D01*
X6010658Y-13345031D02*
X6020182Y-13364079D01*
X6020182Y-13364079D02*
X6029705Y-13402174D01*
X6029705Y-13402174D02*
X6029705Y-13449793D01*
X6029705Y-13449793D02*
X6020182Y-13487888D01*
X6020182Y-13487888D02*
X6010658Y-13506936D01*
X6010658Y-13506936D02*
X6001134Y-13516460D01*
X6001134Y-13516460D02*
X5982086Y-13525984D01*
X5982086Y-13525984D02*
X5963039Y-13525984D01*
X5963039Y-13525984D02*
X5943991Y-13516460D01*
X5943991Y-13516460D02*
X5934467Y-13506936D01*
X5934467Y-13506936D02*
X5924943Y-13487888D01*
X5924943Y-13487888D02*
X5915420Y-13449793D01*
X5915420Y-13449793D02*
X5915420Y-13402174D01*
X5915420Y-13402174D02*
X5924943Y-13364079D01*
X5924943Y-13364079D02*
X5934467Y-13345031D01*
X5934467Y-13345031D02*
X5943991Y-13335508D01*
X5943991Y-13335508D02*
X5963039Y-13325984D01*
X6115420Y-13525984D02*
X6115420Y-13392650D01*
X6115420Y-13411698D02*
X6124943Y-13402174D01*
X6124943Y-13402174D02*
X6143991Y-13392650D01*
X6143991Y-13392650D02*
X6172563Y-13392650D01*
X6172563Y-13392650D02*
X6191610Y-13402174D01*
X6191610Y-13402174D02*
X6201134Y-13421222D01*
X6201134Y-13421222D02*
X6201134Y-13525984D01*
X6201134Y-13421222D02*
X6210658Y-13402174D01*
X6210658Y-13402174D02*
X6229705Y-13392650D01*
X6229705Y-13392650D02*
X6258277Y-13392650D01*
X6258277Y-13392650D02*
X6277324Y-13402174D01*
X6277324Y-13402174D02*
X6286848Y-13421222D01*
X6286848Y-13421222D02*
X6286848Y-13525984D01*
X6382086Y-13525984D02*
X6382086Y-13392650D01*
X6382086Y-13411698D02*
X6391610Y-13402174D01*
X6391610Y-13402174D02*
X6410658Y-13392650D01*
X6410658Y-13392650D02*
X6439229Y-13392650D01*
X6439229Y-13392650D02*
X6458277Y-13402174D01*
X6458277Y-13402174D02*
X6467801Y-13421222D01*
X6467801Y-13421222D02*
X6467801Y-13525984D01*
X6467801Y-13421222D02*
X6477324Y-13402174D01*
X6477324Y-13402174D02*
X6496372Y-13392650D01*
X6496372Y-13392650D02*
X6524943Y-13392650D01*
X6524943Y-13392650D02*
X6543991Y-13402174D01*
X6543991Y-13402174D02*
X6553515Y-13421222D01*
X6553515Y-13421222D02*
X6553515Y-13525984D01*
X6943991Y-13316460D02*
X6772563Y-13573603D01*
X7201134Y-13325984D02*
X7220182Y-13325984D01*
X7220182Y-13325984D02*
X7239229Y-13335508D01*
X7239229Y-13335508D02*
X7248753Y-13345031D01*
X7248753Y-13345031D02*
X7258277Y-13364079D01*
X7258277Y-13364079D02*
X7267801Y-13402174D01*
X7267801Y-13402174D02*
X7267801Y-13449793D01*
X7267801Y-13449793D02*
X7258277Y-13487888D01*
X7258277Y-13487888D02*
X7248753Y-13506936D01*
X7248753Y-13506936D02*
X7239229Y-13516460D01*
X7239229Y-13516460D02*
X7220182Y-13525984D01*
X7220182Y-13525984D02*
X7201134Y-13525984D01*
X7201134Y-13525984D02*
X7182086Y-13516460D01*
X7182086Y-13516460D02*
X7172563Y-13506936D01*
X7172563Y-13506936D02*
X7163039Y-13487888D01*
X7163039Y-13487888D02*
X7153515Y-13449793D01*
X7153515Y-13449793D02*
X7153515Y-13402174D01*
X7153515Y-13402174D02*
X7163039Y-13364079D01*
X7163039Y-13364079D02*
X7172563Y-13345031D01*
X7172563Y-13345031D02*
X7182086Y-13335508D01*
X7182086Y-13335508D02*
X7201134Y-13325984D01*
X7353515Y-13506936D02*
X7363039Y-13516460D01*
X7363039Y-13516460D02*
X7353515Y-13525984D01*
X7353515Y-13525984D02*
X7343991Y-13516460D01*
X7343991Y-13516460D02*
X7353515Y-13506936D01*
X7353515Y-13506936D02*
X7353515Y-13525984D01*
X7486848Y-13325984D02*
X7505896Y-13325984D01*
X7505896Y-13325984D02*
X7524944Y-13335508D01*
X7524944Y-13335508D02*
X7534467Y-13345031D01*
X7534467Y-13345031D02*
X7543991Y-13364079D01*
X7543991Y-13364079D02*
X7553515Y-13402174D01*
X7553515Y-13402174D02*
X7553515Y-13449793D01*
X7553515Y-13449793D02*
X7543991Y-13487888D01*
X7543991Y-13487888D02*
X7534467Y-13506936D01*
X7534467Y-13506936D02*
X7524944Y-13516460D01*
X7524944Y-13516460D02*
X7505896Y-13525984D01*
X7505896Y-13525984D02*
X7486848Y-13525984D01*
X7486848Y-13525984D02*
X7467801Y-13516460D01*
X7467801Y-13516460D02*
X7458277Y-13506936D01*
X7458277Y-13506936D02*
X7448753Y-13487888D01*
X7448753Y-13487888D02*
X7439229Y-13449793D01*
X7439229Y-13449793D02*
X7439229Y-13402174D01*
X7439229Y-13402174D02*
X7448753Y-13364079D01*
X7448753Y-13364079D02*
X7458277Y-13345031D01*
X7458277Y-13345031D02*
X7467801Y-13335508D01*
X7467801Y-13335508D02*
X7486848Y-13325984D01*
X7620182Y-13325984D02*
X7743991Y-13325984D01*
X7743991Y-13325984D02*
X7677325Y-13402174D01*
X7677325Y-13402174D02*
X7705896Y-13402174D01*
X7705896Y-13402174D02*
X7724944Y-13411698D01*
X7724944Y-13411698D02*
X7734467Y-13421222D01*
X7734467Y-13421222D02*
X7743991Y-13440269D01*
X7743991Y-13440269D02*
X7743991Y-13487888D01*
X7743991Y-13487888D02*
X7734467Y-13506936D01*
X7734467Y-13506936D02*
X7724944Y-13516460D01*
X7724944Y-13516460D02*
X7705896Y-13525984D01*
X7705896Y-13525984D02*
X7648753Y-13525984D01*
X7648753Y-13525984D02*
X7629706Y-13516460D01*
X7629706Y-13516460D02*
X7620182Y-13506936D01*
X7839229Y-13525984D02*
X7877325Y-13525984D01*
X7877325Y-13525984D02*
X7896372Y-13516460D01*
X7896372Y-13516460D02*
X7905896Y-13506936D01*
X7905896Y-13506936D02*
X7924944Y-13478365D01*
X7924944Y-13478365D02*
X7934467Y-13440269D01*
X7934467Y-13440269D02*
X7934467Y-13364079D01*
X7934467Y-13364079D02*
X7924944Y-13345031D01*
X7924944Y-13345031D02*
X7915420Y-13335508D01*
X7915420Y-13335508D02*
X7896372Y-13325984D01*
X7896372Y-13325984D02*
X7858277Y-13325984D01*
X7858277Y-13325984D02*
X7839229Y-13335508D01*
X7839229Y-13335508D02*
X7829706Y-13345031D01*
X7829706Y-13345031D02*
X7820182Y-13364079D01*
X7820182Y-13364079D02*
X7820182Y-13411698D01*
X7820182Y-13411698D02*
X7829706Y-13430746D01*
X7829706Y-13430746D02*
X7839229Y-13440269D01*
X7839229Y-13440269D02*
X7858277Y-13449793D01*
X7858277Y-13449793D02*
X7896372Y-13449793D01*
X7896372Y-13449793D02*
X7915420Y-13440269D01*
X7915420Y-13440269D02*
X7924944Y-13430746D01*
X7924944Y-13430746D02*
X7934467Y-13411698D01*
X8105896Y-13392650D02*
X8105896Y-13525984D01*
X8058277Y-13316460D02*
X8010658Y-13459317D01*
X8010658Y-13459317D02*
X8134467Y-13459317D01*
X8201134Y-13325984D02*
X8201134Y-13364079D01*
X8277325Y-13325984D02*
X8277325Y-13364079D01*
X8572563Y-13602174D02*
X8563039Y-13592650D01*
X8563039Y-13592650D02*
X8543991Y-13564079D01*
X8543991Y-13564079D02*
X8534468Y-13545031D01*
X8534468Y-13545031D02*
X8524944Y-13516460D01*
X8524944Y-13516460D02*
X8515420Y-13468841D01*
X8515420Y-13468841D02*
X8515420Y-13430746D01*
X8515420Y-13430746D02*
X8524944Y-13383127D01*
X8524944Y-13383127D02*
X8534468Y-13354555D01*
X8534468Y-13354555D02*
X8543991Y-13335508D01*
X8543991Y-13335508D02*
X8563039Y-13306936D01*
X8563039Y-13306936D02*
X8572563Y-13297412D01*
X8753515Y-13525984D02*
X8639230Y-13525984D01*
X8696372Y-13525984D02*
X8696372Y-13325984D01*
X8696372Y-13325984D02*
X8677325Y-13354555D01*
X8677325Y-13354555D02*
X8658277Y-13373603D01*
X8658277Y-13373603D02*
X8639230Y-13383127D01*
X8820182Y-13325984D02*
X8943991Y-13325984D01*
X8943991Y-13325984D02*
X8877325Y-13402174D01*
X8877325Y-13402174D02*
X8905896Y-13402174D01*
X8905896Y-13402174D02*
X8924944Y-13411698D01*
X8924944Y-13411698D02*
X8934468Y-13421222D01*
X8934468Y-13421222D02*
X8943991Y-13440269D01*
X8943991Y-13440269D02*
X8943991Y-13487888D01*
X8943991Y-13487888D02*
X8934468Y-13506936D01*
X8934468Y-13506936D02*
X8924944Y-13516460D01*
X8924944Y-13516460D02*
X8905896Y-13525984D01*
X8905896Y-13525984D02*
X8848753Y-13525984D01*
X8848753Y-13525984D02*
X8829706Y-13516460D01*
X8829706Y-13516460D02*
X8820182Y-13506936D01*
X9182087Y-13525984D02*
X9182087Y-13325984D01*
X9267801Y-13525984D02*
X9267801Y-13421222D01*
X9267801Y-13421222D02*
X9258277Y-13402174D01*
X9258277Y-13402174D02*
X9239230Y-13392650D01*
X9239230Y-13392650D02*
X9210658Y-13392650D01*
X9210658Y-13392650D02*
X9191611Y-13402174D01*
X9191611Y-13402174D02*
X9182087Y-13411698D01*
X9391611Y-13525984D02*
X9372563Y-13516460D01*
X9372563Y-13516460D02*
X9363039Y-13506936D01*
X9363039Y-13506936D02*
X9353515Y-13487888D01*
X9353515Y-13487888D02*
X9353515Y-13430746D01*
X9353515Y-13430746D02*
X9363039Y-13411698D01*
X9363039Y-13411698D02*
X9372563Y-13402174D01*
X9372563Y-13402174D02*
X9391611Y-13392650D01*
X9391611Y-13392650D02*
X9420182Y-13392650D01*
X9420182Y-13392650D02*
X9439230Y-13402174D01*
X9439230Y-13402174D02*
X9448753Y-13411698D01*
X9448753Y-13411698D02*
X9458277Y-13430746D01*
X9458277Y-13430746D02*
X9458277Y-13487888D01*
X9458277Y-13487888D02*
X9448753Y-13506936D01*
X9448753Y-13506936D02*
X9439230Y-13516460D01*
X9439230Y-13516460D02*
X9420182Y-13525984D01*
X9420182Y-13525984D02*
X9391611Y-13525984D01*
X9572563Y-13525984D02*
X9553515Y-13516460D01*
X9553515Y-13516460D02*
X9543992Y-13497412D01*
X9543992Y-13497412D02*
X9543992Y-13325984D01*
X9724944Y-13516460D02*
X9705896Y-13525984D01*
X9705896Y-13525984D02*
X9667801Y-13525984D01*
X9667801Y-13525984D02*
X9648753Y-13516460D01*
X9648753Y-13516460D02*
X9639230Y-13497412D01*
X9639230Y-13497412D02*
X9639230Y-13421222D01*
X9639230Y-13421222D02*
X9648753Y-13402174D01*
X9648753Y-13402174D02*
X9667801Y-13392650D01*
X9667801Y-13392650D02*
X9705896Y-13392650D01*
X9705896Y-13392650D02*
X9724944Y-13402174D01*
X9724944Y-13402174D02*
X9734468Y-13421222D01*
X9734468Y-13421222D02*
X9734468Y-13440269D01*
X9734468Y-13440269D02*
X9639230Y-13459317D01*
X9810658Y-13516460D02*
X9829706Y-13525984D01*
X9829706Y-13525984D02*
X9867801Y-13525984D01*
X9867801Y-13525984D02*
X9886849Y-13516460D01*
X9886849Y-13516460D02*
X9896373Y-13497412D01*
X9896373Y-13497412D02*
X9896373Y-13487888D01*
X9896373Y-13487888D02*
X9886849Y-13468841D01*
X9886849Y-13468841D02*
X9867801Y-13459317D01*
X9867801Y-13459317D02*
X9839230Y-13459317D01*
X9839230Y-13459317D02*
X9820182Y-13449793D01*
X9820182Y-13449793D02*
X9810658Y-13430746D01*
X9810658Y-13430746D02*
X9810658Y-13421222D01*
X9810658Y-13421222D02*
X9820182Y-13402174D01*
X9820182Y-13402174D02*
X9839230Y-13392650D01*
X9839230Y-13392650D02*
X9867801Y-13392650D01*
X9867801Y-13392650D02*
X9886849Y-13402174D01*
X10134468Y-13449793D02*
X10286849Y-13449793D01*
X10210658Y-13525984D02*
X10210658Y-13373603D01*
X10515420Y-13325984D02*
X10639230Y-13325984D01*
X10639230Y-13325984D02*
X10572563Y-13402174D01*
X10572563Y-13402174D02*
X10601135Y-13402174D01*
X10601135Y-13402174D02*
X10620182Y-13411698D01*
X10620182Y-13411698D02*
X10629706Y-13421222D01*
X10629706Y-13421222D02*
X10639230Y-13440269D01*
X10639230Y-13440269D02*
X10639230Y-13487888D01*
X10639230Y-13487888D02*
X10629706Y-13506936D01*
X10629706Y-13506936D02*
X10620182Y-13516460D01*
X10620182Y-13516460D02*
X10601135Y-13525984D01*
X10601135Y-13525984D02*
X10543992Y-13525984D01*
X10543992Y-13525984D02*
X10524944Y-13516460D01*
X10524944Y-13516460D02*
X10515420Y-13506936D01*
X10867801Y-13516460D02*
X10886849Y-13525984D01*
X10886849Y-13525984D02*
X10924944Y-13525984D01*
X10924944Y-13525984D02*
X10943992Y-13516460D01*
X10943992Y-13516460D02*
X10953516Y-13497412D01*
X10953516Y-13497412D02*
X10953516Y-13487888D01*
X10953516Y-13487888D02*
X10943992Y-13468841D01*
X10943992Y-13468841D02*
X10924944Y-13459317D01*
X10924944Y-13459317D02*
X10896373Y-13459317D01*
X10896373Y-13459317D02*
X10877325Y-13449793D01*
X10877325Y-13449793D02*
X10867801Y-13430746D01*
X10867801Y-13430746D02*
X10867801Y-13421222D01*
X10867801Y-13421222D02*
X10877325Y-13402174D01*
X10877325Y-13402174D02*
X10896373Y-13392650D01*
X10896373Y-13392650D02*
X10924944Y-13392650D01*
X10924944Y-13392650D02*
X10943992Y-13402174D01*
X11067801Y-13525984D02*
X11048754Y-13516460D01*
X11048754Y-13516460D02*
X11039230Y-13497412D01*
X11039230Y-13497412D02*
X11039230Y-13325984D01*
X11172563Y-13525984D02*
X11153516Y-13516460D01*
X11153516Y-13516460D02*
X11143992Y-13506936D01*
X11143992Y-13506936D02*
X11134468Y-13487888D01*
X11134468Y-13487888D02*
X11134468Y-13430746D01*
X11134468Y-13430746D02*
X11143992Y-13411698D01*
X11143992Y-13411698D02*
X11153516Y-13402174D01*
X11153516Y-13402174D02*
X11172563Y-13392650D01*
X11172563Y-13392650D02*
X11201135Y-13392650D01*
X11201135Y-13392650D02*
X11220182Y-13402174D01*
X11220182Y-13402174D02*
X11229706Y-13411698D01*
X11229706Y-13411698D02*
X11239230Y-13430746D01*
X11239230Y-13430746D02*
X11239230Y-13487888D01*
X11239230Y-13487888D02*
X11229706Y-13506936D01*
X11229706Y-13506936D02*
X11220182Y-13516460D01*
X11220182Y-13516460D02*
X11201135Y-13525984D01*
X11201135Y-13525984D02*
X11172563Y-13525984D01*
X11296373Y-13392650D02*
X11372563Y-13392650D01*
X11324944Y-13325984D02*
X11324944Y-13497412D01*
X11324944Y-13497412D02*
X11334468Y-13516460D01*
X11334468Y-13516460D02*
X11353515Y-13525984D01*
X11353515Y-13525984D02*
X11372563Y-13525984D01*
X11429706Y-13516460D02*
X11448754Y-13525984D01*
X11448754Y-13525984D02*
X11486849Y-13525984D01*
X11486849Y-13525984D02*
X11505896Y-13516460D01*
X11505896Y-13516460D02*
X11515420Y-13497412D01*
X11515420Y-13497412D02*
X11515420Y-13487888D01*
X11515420Y-13487888D02*
X11505896Y-13468841D01*
X11505896Y-13468841D02*
X11486849Y-13459317D01*
X11486849Y-13459317D02*
X11458277Y-13459317D01*
X11458277Y-13459317D02*
X11439230Y-13449793D01*
X11439230Y-13449793D02*
X11429706Y-13430746D01*
X11429706Y-13430746D02*
X11429706Y-13421222D01*
X11429706Y-13421222D02*
X11439230Y-13402174D01*
X11439230Y-13402174D02*
X11458277Y-13392650D01*
X11458277Y-13392650D02*
X11486849Y-13392650D01*
X11486849Y-13392650D02*
X11505896Y-13402174D01*
X11582087Y-13602174D02*
X11591611Y-13592650D01*
X11591611Y-13592650D02*
X11610658Y-13564079D01*
X11610658Y-13564079D02*
X11620182Y-13545031D01*
X11620182Y-13545031D02*
X11629706Y-13516460D01*
X11629706Y-13516460D02*
X11639230Y-13468841D01*
X11639230Y-13468841D02*
X11639230Y-13430746D01*
X11639230Y-13430746D02*
X11629706Y-13383127D01*
X11629706Y-13383127D02*
X11620182Y-13354555D01*
X11620182Y-13354555D02*
X11610658Y-13335508D01*
X11610658Y-13335508D02*
X11591611Y-13306936D01*
X11591611Y-13306936D02*
X11582087Y-13297412D01*
D13*
X4938000Y-13758000D02*
X4997500Y-13698500D01*
X4938000Y-13639000D01*
X4878500Y-13698500D01*
X4938000Y-13758000D01*
D11*
X5363039Y-13789984D02*
X5248753Y-13789984D01*
X5305896Y-13789984D02*
X5305896Y-13589984D01*
X5305896Y-13589984D02*
X5286848Y-13618555D01*
X5286848Y-13618555D02*
X5267801Y-13637603D01*
X5267801Y-13637603D02*
X5248753Y-13647127D01*
X5448753Y-13770936D02*
X5458277Y-13780460D01*
X5458277Y-13780460D02*
X5448753Y-13789984D01*
X5448753Y-13789984D02*
X5439229Y-13780460D01*
X5439229Y-13780460D02*
X5448753Y-13770936D01*
X5448753Y-13770936D02*
X5448753Y-13789984D01*
X5648753Y-13789984D02*
X5534467Y-13789984D01*
X5591610Y-13789984D02*
X5591610Y-13589984D01*
X5591610Y-13589984D02*
X5572563Y-13618555D01*
X5572563Y-13618555D02*
X5553515Y-13637603D01*
X5553515Y-13637603D02*
X5534467Y-13647127D01*
X5743991Y-13789984D02*
X5782086Y-13789984D01*
X5782086Y-13789984D02*
X5801134Y-13780460D01*
X5801134Y-13780460D02*
X5810658Y-13770936D01*
X5810658Y-13770936D02*
X5829705Y-13742365D01*
X5829705Y-13742365D02*
X5839229Y-13704269D01*
X5839229Y-13704269D02*
X5839229Y-13628079D01*
X5839229Y-13628079D02*
X5829705Y-13609031D01*
X5829705Y-13609031D02*
X5820182Y-13599508D01*
X5820182Y-13599508D02*
X5801134Y-13589984D01*
X5801134Y-13589984D02*
X5763039Y-13589984D01*
X5763039Y-13589984D02*
X5743991Y-13599508D01*
X5743991Y-13599508D02*
X5734467Y-13609031D01*
X5734467Y-13609031D02*
X5724943Y-13628079D01*
X5724943Y-13628079D02*
X5724943Y-13675698D01*
X5724943Y-13675698D02*
X5734467Y-13694746D01*
X5734467Y-13694746D02*
X5743991Y-13704269D01*
X5743991Y-13704269D02*
X5763039Y-13713793D01*
X5763039Y-13713793D02*
X5801134Y-13713793D01*
X5801134Y-13713793D02*
X5820182Y-13704269D01*
X5820182Y-13704269D02*
X5829705Y-13694746D01*
X5829705Y-13694746D02*
X5839229Y-13675698D01*
X5963039Y-13589984D02*
X5982086Y-13589984D01*
X5982086Y-13589984D02*
X6001134Y-13599508D01*
X6001134Y-13599508D02*
X6010658Y-13609031D01*
X6010658Y-13609031D02*
X6020182Y-13628079D01*
X6020182Y-13628079D02*
X6029705Y-13666174D01*
X6029705Y-13666174D02*
X6029705Y-13713793D01*
X6029705Y-13713793D02*
X6020182Y-13751888D01*
X6020182Y-13751888D02*
X6010658Y-13770936D01*
X6010658Y-13770936D02*
X6001134Y-13780460D01*
X6001134Y-13780460D02*
X5982086Y-13789984D01*
X5982086Y-13789984D02*
X5963039Y-13789984D01*
X5963039Y-13789984D02*
X5943991Y-13780460D01*
X5943991Y-13780460D02*
X5934467Y-13770936D01*
X5934467Y-13770936D02*
X5924943Y-13751888D01*
X5924943Y-13751888D02*
X5915420Y-13713793D01*
X5915420Y-13713793D02*
X5915420Y-13666174D01*
X5915420Y-13666174D02*
X5924943Y-13628079D01*
X5924943Y-13628079D02*
X5934467Y-13609031D01*
X5934467Y-13609031D02*
X5943991Y-13599508D01*
X5943991Y-13599508D02*
X5963039Y-13589984D01*
X6115420Y-13789984D02*
X6115420Y-13656650D01*
X6115420Y-13675698D02*
X6124943Y-13666174D01*
X6124943Y-13666174D02*
X6143991Y-13656650D01*
X6143991Y-13656650D02*
X6172563Y-13656650D01*
X6172563Y-13656650D02*
X6191610Y-13666174D01*
X6191610Y-13666174D02*
X6201134Y-13685222D01*
X6201134Y-13685222D02*
X6201134Y-13789984D01*
X6201134Y-13685222D02*
X6210658Y-13666174D01*
X6210658Y-13666174D02*
X6229705Y-13656650D01*
X6229705Y-13656650D02*
X6258277Y-13656650D01*
X6258277Y-13656650D02*
X6277324Y-13666174D01*
X6277324Y-13666174D02*
X6286848Y-13685222D01*
X6286848Y-13685222D02*
X6286848Y-13789984D01*
X6382086Y-13789984D02*
X6382086Y-13656650D01*
X6382086Y-13675698D02*
X6391610Y-13666174D01*
X6391610Y-13666174D02*
X6410658Y-13656650D01*
X6410658Y-13656650D02*
X6439229Y-13656650D01*
X6439229Y-13656650D02*
X6458277Y-13666174D01*
X6458277Y-13666174D02*
X6467801Y-13685222D01*
X6467801Y-13685222D02*
X6467801Y-13789984D01*
X6467801Y-13685222D02*
X6477324Y-13666174D01*
X6477324Y-13666174D02*
X6496372Y-13656650D01*
X6496372Y-13656650D02*
X6524943Y-13656650D01*
X6524943Y-13656650D02*
X6543991Y-13666174D01*
X6543991Y-13666174D02*
X6553515Y-13685222D01*
X6553515Y-13685222D02*
X6553515Y-13789984D01*
X6943991Y-13580460D02*
X6772563Y-13837603D01*
X7201134Y-13589984D02*
X7220182Y-13589984D01*
X7220182Y-13589984D02*
X7239229Y-13599508D01*
X7239229Y-13599508D02*
X7248753Y-13609031D01*
X7248753Y-13609031D02*
X7258277Y-13628079D01*
X7258277Y-13628079D02*
X7267801Y-13666174D01*
X7267801Y-13666174D02*
X7267801Y-13713793D01*
X7267801Y-13713793D02*
X7258277Y-13751888D01*
X7258277Y-13751888D02*
X7248753Y-13770936D01*
X7248753Y-13770936D02*
X7239229Y-13780460D01*
X7239229Y-13780460D02*
X7220182Y-13789984D01*
X7220182Y-13789984D02*
X7201134Y-13789984D01*
X7201134Y-13789984D02*
X7182086Y-13780460D01*
X7182086Y-13780460D02*
X7172563Y-13770936D01*
X7172563Y-13770936D02*
X7163039Y-13751888D01*
X7163039Y-13751888D02*
X7153515Y-13713793D01*
X7153515Y-13713793D02*
X7153515Y-13666174D01*
X7153515Y-13666174D02*
X7163039Y-13628079D01*
X7163039Y-13628079D02*
X7172563Y-13609031D01*
X7172563Y-13609031D02*
X7182086Y-13599508D01*
X7182086Y-13599508D02*
X7201134Y-13589984D01*
X7353515Y-13770936D02*
X7363039Y-13780460D01*
X7363039Y-13780460D02*
X7353515Y-13789984D01*
X7353515Y-13789984D02*
X7343991Y-13780460D01*
X7343991Y-13780460D02*
X7353515Y-13770936D01*
X7353515Y-13770936D02*
X7353515Y-13789984D01*
X7486848Y-13589984D02*
X7505896Y-13589984D01*
X7505896Y-13589984D02*
X7524944Y-13599508D01*
X7524944Y-13599508D02*
X7534467Y-13609031D01*
X7534467Y-13609031D02*
X7543991Y-13628079D01*
X7543991Y-13628079D02*
X7553515Y-13666174D01*
X7553515Y-13666174D02*
X7553515Y-13713793D01*
X7553515Y-13713793D02*
X7543991Y-13751888D01*
X7543991Y-13751888D02*
X7534467Y-13770936D01*
X7534467Y-13770936D02*
X7524944Y-13780460D01*
X7524944Y-13780460D02*
X7505896Y-13789984D01*
X7505896Y-13789984D02*
X7486848Y-13789984D01*
X7486848Y-13789984D02*
X7467801Y-13780460D01*
X7467801Y-13780460D02*
X7458277Y-13770936D01*
X7458277Y-13770936D02*
X7448753Y-13751888D01*
X7448753Y-13751888D02*
X7439229Y-13713793D01*
X7439229Y-13713793D02*
X7439229Y-13666174D01*
X7439229Y-13666174D02*
X7448753Y-13628079D01*
X7448753Y-13628079D02*
X7458277Y-13609031D01*
X7458277Y-13609031D02*
X7467801Y-13599508D01*
X7467801Y-13599508D02*
X7486848Y-13589984D01*
X7724944Y-13656650D02*
X7724944Y-13789984D01*
X7677325Y-13580460D02*
X7629706Y-13723317D01*
X7629706Y-13723317D02*
X7753515Y-13723317D01*
X7915420Y-13589984D02*
X7877325Y-13589984D01*
X7877325Y-13589984D02*
X7858277Y-13599508D01*
X7858277Y-13599508D02*
X7848753Y-13609031D01*
X7848753Y-13609031D02*
X7829706Y-13637603D01*
X7829706Y-13637603D02*
X7820182Y-13675698D01*
X7820182Y-13675698D02*
X7820182Y-13751888D01*
X7820182Y-13751888D02*
X7829706Y-13770936D01*
X7829706Y-13770936D02*
X7839229Y-13780460D01*
X7839229Y-13780460D02*
X7858277Y-13789984D01*
X7858277Y-13789984D02*
X7896372Y-13789984D01*
X7896372Y-13789984D02*
X7915420Y-13780460D01*
X7915420Y-13780460D02*
X7924944Y-13770936D01*
X7924944Y-13770936D02*
X7934467Y-13751888D01*
X7934467Y-13751888D02*
X7934467Y-13704269D01*
X7934467Y-13704269D02*
X7924944Y-13685222D01*
X7924944Y-13685222D02*
X7915420Y-13675698D01*
X7915420Y-13675698D02*
X7896372Y-13666174D01*
X7896372Y-13666174D02*
X7858277Y-13666174D01*
X7858277Y-13666174D02*
X7839229Y-13675698D01*
X7839229Y-13675698D02*
X7829706Y-13685222D01*
X7829706Y-13685222D02*
X7820182Y-13704269D01*
X8029706Y-13789984D02*
X8067801Y-13789984D01*
X8067801Y-13789984D02*
X8086848Y-13780460D01*
X8086848Y-13780460D02*
X8096372Y-13770936D01*
X8096372Y-13770936D02*
X8115420Y-13742365D01*
X8115420Y-13742365D02*
X8124944Y-13704269D01*
X8124944Y-13704269D02*
X8124944Y-13628079D01*
X8124944Y-13628079D02*
X8115420Y-13609031D01*
X8115420Y-13609031D02*
X8105896Y-13599508D01*
X8105896Y-13599508D02*
X8086848Y-13589984D01*
X8086848Y-13589984D02*
X8048753Y-13589984D01*
X8048753Y-13589984D02*
X8029706Y-13599508D01*
X8029706Y-13599508D02*
X8020182Y-13609031D01*
X8020182Y-13609031D02*
X8010658Y-13628079D01*
X8010658Y-13628079D02*
X8010658Y-13675698D01*
X8010658Y-13675698D02*
X8020182Y-13694746D01*
X8020182Y-13694746D02*
X8029706Y-13704269D01*
X8029706Y-13704269D02*
X8048753Y-13713793D01*
X8048753Y-13713793D02*
X8086848Y-13713793D01*
X8086848Y-13713793D02*
X8105896Y-13704269D01*
X8105896Y-13704269D02*
X8115420Y-13694746D01*
X8115420Y-13694746D02*
X8124944Y-13675698D01*
X8201134Y-13589984D02*
X8201134Y-13628079D01*
X8277325Y-13589984D02*
X8277325Y-13628079D01*
X8572563Y-13866174D02*
X8563039Y-13856650D01*
X8563039Y-13856650D02*
X8543991Y-13828079D01*
X8543991Y-13828079D02*
X8534468Y-13809031D01*
X8534468Y-13809031D02*
X8524944Y-13780460D01*
X8524944Y-13780460D02*
X8515420Y-13732841D01*
X8515420Y-13732841D02*
X8515420Y-13694746D01*
X8515420Y-13694746D02*
X8524944Y-13647127D01*
X8524944Y-13647127D02*
X8534468Y-13618555D01*
X8534468Y-13618555D02*
X8543991Y-13599508D01*
X8543991Y-13599508D02*
X8563039Y-13570936D01*
X8563039Y-13570936D02*
X8572563Y-13561412D01*
X8677325Y-13675698D02*
X8658277Y-13666174D01*
X8658277Y-13666174D02*
X8648753Y-13656650D01*
X8648753Y-13656650D02*
X8639230Y-13637603D01*
X8639230Y-13637603D02*
X8639230Y-13628079D01*
X8639230Y-13628079D02*
X8648753Y-13609031D01*
X8648753Y-13609031D02*
X8658277Y-13599508D01*
X8658277Y-13599508D02*
X8677325Y-13589984D01*
X8677325Y-13589984D02*
X8715420Y-13589984D01*
X8715420Y-13589984D02*
X8734468Y-13599508D01*
X8734468Y-13599508D02*
X8743991Y-13609031D01*
X8743991Y-13609031D02*
X8753515Y-13628079D01*
X8753515Y-13628079D02*
X8753515Y-13637603D01*
X8753515Y-13637603D02*
X8743991Y-13656650D01*
X8743991Y-13656650D02*
X8734468Y-13666174D01*
X8734468Y-13666174D02*
X8715420Y-13675698D01*
X8715420Y-13675698D02*
X8677325Y-13675698D01*
X8677325Y-13675698D02*
X8658277Y-13685222D01*
X8658277Y-13685222D02*
X8648753Y-13694746D01*
X8648753Y-13694746D02*
X8639230Y-13713793D01*
X8639230Y-13713793D02*
X8639230Y-13751888D01*
X8639230Y-13751888D02*
X8648753Y-13770936D01*
X8648753Y-13770936D02*
X8658277Y-13780460D01*
X8658277Y-13780460D02*
X8677325Y-13789984D01*
X8677325Y-13789984D02*
X8715420Y-13789984D01*
X8715420Y-13789984D02*
X8734468Y-13780460D01*
X8734468Y-13780460D02*
X8743991Y-13770936D01*
X8743991Y-13770936D02*
X8753515Y-13751888D01*
X8753515Y-13751888D02*
X8753515Y-13713793D01*
X8753515Y-13713793D02*
X8743991Y-13694746D01*
X8743991Y-13694746D02*
X8734468Y-13685222D01*
X8734468Y-13685222D02*
X8715420Y-13675698D01*
X8991611Y-13789984D02*
X8991611Y-13589984D01*
X9077325Y-13789984D02*
X9077325Y-13685222D01*
X9077325Y-13685222D02*
X9067801Y-13666174D01*
X9067801Y-13666174D02*
X9048753Y-13656650D01*
X9048753Y-13656650D02*
X9020182Y-13656650D01*
X9020182Y-13656650D02*
X9001134Y-13666174D01*
X9001134Y-13666174D02*
X8991611Y-13675698D01*
X9201134Y-13789984D02*
X9182087Y-13780460D01*
X9182087Y-13780460D02*
X9172563Y-13770936D01*
X9172563Y-13770936D02*
X9163039Y-13751888D01*
X9163039Y-13751888D02*
X9163039Y-13694746D01*
X9163039Y-13694746D02*
X9172563Y-13675698D01*
X9172563Y-13675698D02*
X9182087Y-13666174D01*
X9182087Y-13666174D02*
X9201134Y-13656650D01*
X9201134Y-13656650D02*
X9229706Y-13656650D01*
X9229706Y-13656650D02*
X9248753Y-13666174D01*
X9248753Y-13666174D02*
X9258277Y-13675698D01*
X9258277Y-13675698D02*
X9267801Y-13694746D01*
X9267801Y-13694746D02*
X9267801Y-13751888D01*
X9267801Y-13751888D02*
X9258277Y-13770936D01*
X9258277Y-13770936D02*
X9248753Y-13780460D01*
X9248753Y-13780460D02*
X9229706Y-13789984D01*
X9229706Y-13789984D02*
X9201134Y-13789984D01*
X9382087Y-13789984D02*
X9363039Y-13780460D01*
X9363039Y-13780460D02*
X9353515Y-13761412D01*
X9353515Y-13761412D02*
X9353515Y-13589984D01*
X9534468Y-13780460D02*
X9515420Y-13789984D01*
X9515420Y-13789984D02*
X9477325Y-13789984D01*
X9477325Y-13789984D02*
X9458277Y-13780460D01*
X9458277Y-13780460D02*
X9448753Y-13761412D01*
X9448753Y-13761412D02*
X9448753Y-13685222D01*
X9448753Y-13685222D02*
X9458277Y-13666174D01*
X9458277Y-13666174D02*
X9477325Y-13656650D01*
X9477325Y-13656650D02*
X9515420Y-13656650D01*
X9515420Y-13656650D02*
X9534468Y-13666174D01*
X9534468Y-13666174D02*
X9543992Y-13685222D01*
X9543992Y-13685222D02*
X9543992Y-13704269D01*
X9543992Y-13704269D02*
X9448753Y-13723317D01*
X9620182Y-13780460D02*
X9639230Y-13789984D01*
X9639230Y-13789984D02*
X9677325Y-13789984D01*
X9677325Y-13789984D02*
X9696373Y-13780460D01*
X9696373Y-13780460D02*
X9705896Y-13761412D01*
X9705896Y-13761412D02*
X9705896Y-13751888D01*
X9705896Y-13751888D02*
X9696373Y-13732841D01*
X9696373Y-13732841D02*
X9677325Y-13723317D01*
X9677325Y-13723317D02*
X9648753Y-13723317D01*
X9648753Y-13723317D02*
X9629706Y-13713793D01*
X9629706Y-13713793D02*
X9620182Y-13694746D01*
X9620182Y-13694746D02*
X9620182Y-13685222D01*
X9620182Y-13685222D02*
X9629706Y-13666174D01*
X9629706Y-13666174D02*
X9648753Y-13656650D01*
X9648753Y-13656650D02*
X9677325Y-13656650D01*
X9677325Y-13656650D02*
X9696373Y-13666174D01*
X9772563Y-13866174D02*
X9782087Y-13856650D01*
X9782087Y-13856650D02*
X9801134Y-13828079D01*
X9801134Y-13828079D02*
X9810658Y-13809031D01*
X9810658Y-13809031D02*
X9820182Y-13780460D01*
X9820182Y-13780460D02*
X9829706Y-13732841D01*
X9829706Y-13732841D02*
X9829706Y-13694746D01*
X9829706Y-13694746D02*
X9820182Y-13647127D01*
X9820182Y-13647127D02*
X9810658Y-13618555D01*
X9810658Y-13618555D02*
X9801134Y-13599508D01*
X9801134Y-13599508D02*
X9782087Y-13570936D01*
X9782087Y-13570936D02*
X9772563Y-13561412D01*
D14*
X4867500Y-13897500D02*
X4997500Y-14027500D01*
X4997500Y-13897500D02*
X4867500Y-14027500D01*
X4997500Y-13962500D02*
G75*
G02*
X4867500Y-13962500I-65000J0D01*
G01*
X4867500Y-13962500D02*
G75*
G02*
X4997500Y-13962500I65000J0D01*
G01*
D11*
X5363039Y-14053984D02*
X5248753Y-14053984D01*
X5305896Y-14053984D02*
X5305896Y-13853984D01*
X5305896Y-13853984D02*
X5286848Y-13882555D01*
X5286848Y-13882555D02*
X5267801Y-13901603D01*
X5267801Y-13901603D02*
X5248753Y-13911127D01*
X5448753Y-14034936D02*
X5458277Y-14044460D01*
X5458277Y-14044460D02*
X5448753Y-14053984D01*
X5448753Y-14053984D02*
X5439229Y-14044460D01*
X5439229Y-14044460D02*
X5448753Y-14034936D01*
X5448753Y-14034936D02*
X5448753Y-14053984D01*
X5524944Y-13853984D02*
X5648753Y-13853984D01*
X5648753Y-13853984D02*
X5582086Y-13930174D01*
X5582086Y-13930174D02*
X5610658Y-13930174D01*
X5610658Y-13930174D02*
X5629705Y-13939698D01*
X5629705Y-13939698D02*
X5639229Y-13949222D01*
X5639229Y-13949222D02*
X5648753Y-13968269D01*
X5648753Y-13968269D02*
X5648753Y-14015888D01*
X5648753Y-14015888D02*
X5639229Y-14034936D01*
X5639229Y-14034936D02*
X5629705Y-14044460D01*
X5629705Y-14044460D02*
X5610658Y-14053984D01*
X5610658Y-14053984D02*
X5553515Y-14053984D01*
X5553515Y-14053984D02*
X5534467Y-14044460D01*
X5534467Y-14044460D02*
X5524944Y-14034936D01*
X5772562Y-13853984D02*
X5791610Y-13853984D01*
X5791610Y-13853984D02*
X5810658Y-13863508D01*
X5810658Y-13863508D02*
X5820182Y-13873031D01*
X5820182Y-13873031D02*
X5829705Y-13892079D01*
X5829705Y-13892079D02*
X5839229Y-13930174D01*
X5839229Y-13930174D02*
X5839229Y-13977793D01*
X5839229Y-13977793D02*
X5829705Y-14015888D01*
X5829705Y-14015888D02*
X5820182Y-14034936D01*
X5820182Y-14034936D02*
X5810658Y-14044460D01*
X5810658Y-14044460D02*
X5791610Y-14053984D01*
X5791610Y-14053984D02*
X5772562Y-14053984D01*
X5772562Y-14053984D02*
X5753515Y-14044460D01*
X5753515Y-14044460D02*
X5743991Y-14034936D01*
X5743991Y-14034936D02*
X5734467Y-14015888D01*
X5734467Y-14015888D02*
X5724943Y-13977793D01*
X5724943Y-13977793D02*
X5724943Y-13930174D01*
X5724943Y-13930174D02*
X5734467Y-13892079D01*
X5734467Y-13892079D02*
X5743991Y-13873031D01*
X5743991Y-13873031D02*
X5753515Y-13863508D01*
X5753515Y-13863508D02*
X5772562Y-13853984D01*
X5963039Y-13853984D02*
X5982086Y-13853984D01*
X5982086Y-13853984D02*
X6001134Y-13863508D01*
X6001134Y-13863508D02*
X6010658Y-13873031D01*
X6010658Y-13873031D02*
X6020182Y-13892079D01*
X6020182Y-13892079D02*
X6029705Y-13930174D01*
X6029705Y-13930174D02*
X6029705Y-13977793D01*
X6029705Y-13977793D02*
X6020182Y-14015888D01*
X6020182Y-14015888D02*
X6010658Y-14034936D01*
X6010658Y-14034936D02*
X6001134Y-14044460D01*
X6001134Y-14044460D02*
X5982086Y-14053984D01*
X5982086Y-14053984D02*
X5963039Y-14053984D01*
X5963039Y-14053984D02*
X5943991Y-14044460D01*
X5943991Y-14044460D02*
X5934467Y-14034936D01*
X5934467Y-14034936D02*
X5924943Y-14015888D01*
X5924943Y-14015888D02*
X5915420Y-13977793D01*
X5915420Y-13977793D02*
X5915420Y-13930174D01*
X5915420Y-13930174D02*
X5924943Y-13892079D01*
X5924943Y-13892079D02*
X5934467Y-13873031D01*
X5934467Y-13873031D02*
X5943991Y-13863508D01*
X5943991Y-13863508D02*
X5963039Y-13853984D01*
X6115420Y-14053984D02*
X6115420Y-13920650D01*
X6115420Y-13939698D02*
X6124943Y-13930174D01*
X6124943Y-13930174D02*
X6143991Y-13920650D01*
X6143991Y-13920650D02*
X6172563Y-13920650D01*
X6172563Y-13920650D02*
X6191610Y-13930174D01*
X6191610Y-13930174D02*
X6201134Y-13949222D01*
X6201134Y-13949222D02*
X6201134Y-14053984D01*
X6201134Y-13949222D02*
X6210658Y-13930174D01*
X6210658Y-13930174D02*
X6229705Y-13920650D01*
X6229705Y-13920650D02*
X6258277Y-13920650D01*
X6258277Y-13920650D02*
X6277324Y-13930174D01*
X6277324Y-13930174D02*
X6286848Y-13949222D01*
X6286848Y-13949222D02*
X6286848Y-14053984D01*
X6382086Y-14053984D02*
X6382086Y-13920650D01*
X6382086Y-13939698D02*
X6391610Y-13930174D01*
X6391610Y-13930174D02*
X6410658Y-13920650D01*
X6410658Y-13920650D02*
X6439229Y-13920650D01*
X6439229Y-13920650D02*
X6458277Y-13930174D01*
X6458277Y-13930174D02*
X6467801Y-13949222D01*
X6467801Y-13949222D02*
X6467801Y-14053984D01*
X6467801Y-13949222D02*
X6477324Y-13930174D01*
X6477324Y-13930174D02*
X6496372Y-13920650D01*
X6496372Y-13920650D02*
X6524943Y-13920650D01*
X6524943Y-13920650D02*
X6543991Y-13930174D01*
X6543991Y-13930174D02*
X6553515Y-13949222D01*
X6553515Y-13949222D02*
X6553515Y-14053984D01*
X6943991Y-13844460D02*
X6772563Y-14101603D01*
X7201134Y-13853984D02*
X7220182Y-13853984D01*
X7220182Y-13853984D02*
X7239229Y-13863508D01*
X7239229Y-13863508D02*
X7248753Y-13873031D01*
X7248753Y-13873031D02*
X7258277Y-13892079D01*
X7258277Y-13892079D02*
X7267801Y-13930174D01*
X7267801Y-13930174D02*
X7267801Y-13977793D01*
X7267801Y-13977793D02*
X7258277Y-14015888D01*
X7258277Y-14015888D02*
X7248753Y-14034936D01*
X7248753Y-14034936D02*
X7239229Y-14044460D01*
X7239229Y-14044460D02*
X7220182Y-14053984D01*
X7220182Y-14053984D02*
X7201134Y-14053984D01*
X7201134Y-14053984D02*
X7182086Y-14044460D01*
X7182086Y-14044460D02*
X7172563Y-14034936D01*
X7172563Y-14034936D02*
X7163039Y-14015888D01*
X7163039Y-14015888D02*
X7153515Y-13977793D01*
X7153515Y-13977793D02*
X7153515Y-13930174D01*
X7153515Y-13930174D02*
X7163039Y-13892079D01*
X7163039Y-13892079D02*
X7172563Y-13873031D01*
X7172563Y-13873031D02*
X7182086Y-13863508D01*
X7182086Y-13863508D02*
X7201134Y-13853984D01*
X7353515Y-14034936D02*
X7363039Y-14044460D01*
X7363039Y-14044460D02*
X7353515Y-14053984D01*
X7353515Y-14053984D02*
X7343991Y-14044460D01*
X7343991Y-14044460D02*
X7353515Y-14034936D01*
X7353515Y-14034936D02*
X7353515Y-14053984D01*
X7486848Y-13853984D02*
X7505896Y-13853984D01*
X7505896Y-13853984D02*
X7524944Y-13863508D01*
X7524944Y-13863508D02*
X7534467Y-13873031D01*
X7534467Y-13873031D02*
X7543991Y-13892079D01*
X7543991Y-13892079D02*
X7553515Y-13930174D01*
X7553515Y-13930174D02*
X7553515Y-13977793D01*
X7553515Y-13977793D02*
X7543991Y-14015888D01*
X7543991Y-14015888D02*
X7534467Y-14034936D01*
X7534467Y-14034936D02*
X7524944Y-14044460D01*
X7524944Y-14044460D02*
X7505896Y-14053984D01*
X7505896Y-14053984D02*
X7486848Y-14053984D01*
X7486848Y-14053984D02*
X7467801Y-14044460D01*
X7467801Y-14044460D02*
X7458277Y-14034936D01*
X7458277Y-14034936D02*
X7448753Y-14015888D01*
X7448753Y-14015888D02*
X7439229Y-13977793D01*
X7439229Y-13977793D02*
X7439229Y-13930174D01*
X7439229Y-13930174D02*
X7448753Y-13892079D01*
X7448753Y-13892079D02*
X7458277Y-13873031D01*
X7458277Y-13873031D02*
X7467801Y-13863508D01*
X7467801Y-13863508D02*
X7486848Y-13853984D01*
X7734467Y-13853984D02*
X7639229Y-13853984D01*
X7639229Y-13853984D02*
X7629706Y-13949222D01*
X7629706Y-13949222D02*
X7639229Y-13939698D01*
X7639229Y-13939698D02*
X7658277Y-13930174D01*
X7658277Y-13930174D02*
X7705896Y-13930174D01*
X7705896Y-13930174D02*
X7724944Y-13939698D01*
X7724944Y-13939698D02*
X7734467Y-13949222D01*
X7734467Y-13949222D02*
X7743991Y-13968269D01*
X7743991Y-13968269D02*
X7743991Y-14015888D01*
X7743991Y-14015888D02*
X7734467Y-14034936D01*
X7734467Y-14034936D02*
X7724944Y-14044460D01*
X7724944Y-14044460D02*
X7705896Y-14053984D01*
X7705896Y-14053984D02*
X7658277Y-14053984D01*
X7658277Y-14053984D02*
X7639229Y-14044460D01*
X7639229Y-14044460D02*
X7629706Y-14034936D01*
X7934467Y-14053984D02*
X7820182Y-14053984D01*
X7877325Y-14053984D02*
X7877325Y-13853984D01*
X7877325Y-13853984D02*
X7858277Y-13882555D01*
X7858277Y-13882555D02*
X7839229Y-13901603D01*
X7839229Y-13901603D02*
X7820182Y-13911127D01*
X8010658Y-13873031D02*
X8020182Y-13863508D01*
X8020182Y-13863508D02*
X8039229Y-13853984D01*
X8039229Y-13853984D02*
X8086848Y-13853984D01*
X8086848Y-13853984D02*
X8105896Y-13863508D01*
X8105896Y-13863508D02*
X8115420Y-13873031D01*
X8115420Y-13873031D02*
X8124944Y-13892079D01*
X8124944Y-13892079D02*
X8124944Y-13911127D01*
X8124944Y-13911127D02*
X8115420Y-13939698D01*
X8115420Y-13939698D02*
X8001134Y-14053984D01*
X8001134Y-14053984D02*
X8124944Y-14053984D01*
X8201134Y-13853984D02*
X8201134Y-13892079D01*
X8277325Y-13853984D02*
X8277325Y-13892079D01*
X8572563Y-14130174D02*
X8563039Y-14120650D01*
X8563039Y-14120650D02*
X8543991Y-14092079D01*
X8543991Y-14092079D02*
X8534468Y-14073031D01*
X8534468Y-14073031D02*
X8524944Y-14044460D01*
X8524944Y-14044460D02*
X8515420Y-13996841D01*
X8515420Y-13996841D02*
X8515420Y-13958746D01*
X8515420Y-13958746D02*
X8524944Y-13911127D01*
X8524944Y-13911127D02*
X8534468Y-13882555D01*
X8534468Y-13882555D02*
X8543991Y-13863508D01*
X8543991Y-13863508D02*
X8563039Y-13834936D01*
X8563039Y-13834936D02*
X8572563Y-13825412D01*
X8734468Y-13853984D02*
X8696372Y-13853984D01*
X8696372Y-13853984D02*
X8677325Y-13863508D01*
X8677325Y-13863508D02*
X8667801Y-13873031D01*
X8667801Y-13873031D02*
X8648753Y-13901603D01*
X8648753Y-13901603D02*
X8639230Y-13939698D01*
X8639230Y-13939698D02*
X8639230Y-14015888D01*
X8639230Y-14015888D02*
X8648753Y-14034936D01*
X8648753Y-14034936D02*
X8658277Y-14044460D01*
X8658277Y-14044460D02*
X8677325Y-14053984D01*
X8677325Y-14053984D02*
X8715420Y-14053984D01*
X8715420Y-14053984D02*
X8734468Y-14044460D01*
X8734468Y-14044460D02*
X8743991Y-14034936D01*
X8743991Y-14034936D02*
X8753515Y-14015888D01*
X8753515Y-14015888D02*
X8753515Y-13968269D01*
X8753515Y-13968269D02*
X8743991Y-13949222D01*
X8743991Y-13949222D02*
X8734468Y-13939698D01*
X8734468Y-13939698D02*
X8715420Y-13930174D01*
X8715420Y-13930174D02*
X8677325Y-13930174D01*
X8677325Y-13930174D02*
X8658277Y-13939698D01*
X8658277Y-13939698D02*
X8648753Y-13949222D01*
X8648753Y-13949222D02*
X8639230Y-13968269D01*
X8991611Y-14053984D02*
X8991611Y-13853984D01*
X9077325Y-14053984D02*
X9077325Y-13949222D01*
X9077325Y-13949222D02*
X9067801Y-13930174D01*
X9067801Y-13930174D02*
X9048753Y-13920650D01*
X9048753Y-13920650D02*
X9020182Y-13920650D01*
X9020182Y-13920650D02*
X9001134Y-13930174D01*
X9001134Y-13930174D02*
X8991611Y-13939698D01*
X9201134Y-14053984D02*
X9182087Y-14044460D01*
X9182087Y-14044460D02*
X9172563Y-14034936D01*
X9172563Y-14034936D02*
X9163039Y-14015888D01*
X9163039Y-14015888D02*
X9163039Y-13958746D01*
X9163039Y-13958746D02*
X9172563Y-13939698D01*
X9172563Y-13939698D02*
X9182087Y-13930174D01*
X9182087Y-13930174D02*
X9201134Y-13920650D01*
X9201134Y-13920650D02*
X9229706Y-13920650D01*
X9229706Y-13920650D02*
X9248753Y-13930174D01*
X9248753Y-13930174D02*
X9258277Y-13939698D01*
X9258277Y-13939698D02*
X9267801Y-13958746D01*
X9267801Y-13958746D02*
X9267801Y-14015888D01*
X9267801Y-14015888D02*
X9258277Y-14034936D01*
X9258277Y-14034936D02*
X9248753Y-14044460D01*
X9248753Y-14044460D02*
X9229706Y-14053984D01*
X9229706Y-14053984D02*
X9201134Y-14053984D01*
X9382087Y-14053984D02*
X9363039Y-14044460D01*
X9363039Y-14044460D02*
X9353515Y-14025412D01*
X9353515Y-14025412D02*
X9353515Y-13853984D01*
X9534468Y-14044460D02*
X9515420Y-14053984D01*
X9515420Y-14053984D02*
X9477325Y-14053984D01*
X9477325Y-14053984D02*
X9458277Y-14044460D01*
X9458277Y-14044460D02*
X9448753Y-14025412D01*
X9448753Y-14025412D02*
X9448753Y-13949222D01*
X9448753Y-13949222D02*
X9458277Y-13930174D01*
X9458277Y-13930174D02*
X9477325Y-13920650D01*
X9477325Y-13920650D02*
X9515420Y-13920650D01*
X9515420Y-13920650D02*
X9534468Y-13930174D01*
X9534468Y-13930174D02*
X9543992Y-13949222D01*
X9543992Y-13949222D02*
X9543992Y-13968269D01*
X9543992Y-13968269D02*
X9448753Y-13987317D01*
X9620182Y-14044460D02*
X9639230Y-14053984D01*
X9639230Y-14053984D02*
X9677325Y-14053984D01*
X9677325Y-14053984D02*
X9696373Y-14044460D01*
X9696373Y-14044460D02*
X9705896Y-14025412D01*
X9705896Y-14025412D02*
X9705896Y-14015888D01*
X9705896Y-14015888D02*
X9696373Y-13996841D01*
X9696373Y-13996841D02*
X9677325Y-13987317D01*
X9677325Y-13987317D02*
X9648753Y-13987317D01*
X9648753Y-13987317D02*
X9629706Y-13977793D01*
X9629706Y-13977793D02*
X9620182Y-13958746D01*
X9620182Y-13958746D02*
X9620182Y-13949222D01*
X9620182Y-13949222D02*
X9629706Y-13930174D01*
X9629706Y-13930174D02*
X9648753Y-13920650D01*
X9648753Y-13920650D02*
X9677325Y-13920650D01*
X9677325Y-13920650D02*
X9696373Y-13930174D01*
X9772563Y-14130174D02*
X9782087Y-14120650D01*
X9782087Y-14120650D02*
X9801134Y-14092079D01*
X9801134Y-14092079D02*
X9810658Y-14073031D01*
X9810658Y-14073031D02*
X9820182Y-14044460D01*
X9820182Y-14044460D02*
X9829706Y-13996841D01*
X9829706Y-13996841D02*
X9829706Y-13958746D01*
X9829706Y-13958746D02*
X9820182Y-13911127D01*
X9820182Y-13911127D02*
X9810658Y-13882555D01*
X9810658Y-13882555D02*
X9801134Y-13863508D01*
X9801134Y-13863508D02*
X9782087Y-13834936D01*
X9782087Y-13834936D02*
X9772563Y-13825412D01*
M02*
