M48
; DRILL file {KiCad 8.0.6} date 2025-04-13T07:27:18+0100
; FORMAT={-:-/ absolute / metric / decimal}
; #@! TF.CreationDate,2025-04-13T07:27:18+01:00
; #@! TF.GenerationSoftware,Kicad,Pcbnew,8.0.6
; #@! TF.FileFunction,Plated,1,4,PTH
FMAT,2
METRIC
; #@! TA.AperFunction,Plated,PTH,ViaDrill
T1C0.300
; #@! TA.AperFunction,Plated,PTH,ComponentDrill
T2C0.500
; #@! TA.AperFunction,Plated,PTH,ComponentDrill
T3C0.950
; #@! TA.AperFunction,Plated,PTH,ComponentDrill
T4C1.000
; #@! TA.AperFunction,Plated,PTH,ComponentDrill
T5C1.190
; #@! TA.AperFunction,Plated,PTH,ComponentDrill
T6C1.300
%
G90
G05
T1
X53.81Y-66.52
X53.94Y-76.06
X56.25Y-77.17
X56.27Y-67.41
X59.25Y-104.719
X68.0Y-51.9
X68.4Y-98.4
X68.4Y-103.5
X68.406Y-100.955
X69.4Y-52.0
X74.7Y-74.1
X77.1Y-62.6
X79.19Y-109.25
X80.9Y-73.5
X81.975Y-87.75
X82.8Y-59.8
X82.8Y-75.5
X83.25Y-68.175
X83.25Y-70.175
X83.9Y-58.7
X84.8Y-98.4
X84.8Y-103.5
X84.808Y-100.961
X86.0Y-84.25
X86.5Y-69.175
X86.5Y-81.75
X86.8Y-80.991
X87.1Y-90.8
X89.4Y-56.6
X89.6Y-88.4
X90.0Y-85.25
X90.1Y-57.2
X90.543Y-83.035
X91.1Y-58.0
X91.2Y-85.6
X91.238Y-83.635
X91.3Y-88.2
X91.75Y-49.15
X91.75Y-84.25
X92.2Y-58.2
X92.5Y-86.4
X92.8Y-93.2
X93.5Y-81.906
X94.2Y-80.4
X94.7Y-93.6
X94.9Y-64.9
X95.174Y-80.526
X95.5Y-85.2
X95.525Y-83.275
X95.6Y-94.4
X96.1Y-80.4
X96.271Y-93.82
X96.7Y-78.7
X96.9Y-74.3
X97.091Y-91.3
X97.091Y-93.8
X97.416Y-79.058
X97.5Y-75.3
X97.691Y-90.555
X98.01Y-108.94
X98.1Y-105.5
X98.15Y-89.9
X98.214Y-79.107
X98.3Y-80.4
X98.75Y-90.5
X98.9Y-77.0
X99.275Y-108.025
X100.45Y-89.95
X101.0Y-108.9
X101.1Y-98.4
X101.1Y-103.5
X101.106Y-100.955
X102.3Y-81.8
X102.4Y-106.3
X102.6Y-85.3
X103.0Y-94.0
X103.2Y-72.9
X103.824Y-82.524
X103.837Y-84.116
X103.913Y-83.319
X103.942Y-85.484
X104.0Y-81.5
X104.3Y-86.2
X104.3Y-87.5
X104.599Y-82.726
X104.7Y-74.6
X105.2Y-105.5
X105.3Y-83.4
X105.6Y-88.2
X105.7Y-65.2
X106.5Y-66.2
X107.3Y-65.2
X108.3Y-60.4
X108.3Y-66.2
X108.3Y-79.9
X108.7Y-67.3
X108.8Y-54.6
X109.1Y-81.5
X109.2Y-109.5
X109.5Y-65.2
X110.0Y-84.5
X110.6Y-91.1
X110.75Y-56.0
X111.4Y-65.2
X113.6Y-60.2
X116.2Y-58.7
X118.75Y-104.0
X124.0Y-42.42
X128.1Y-90.3
X132.75Y-102.0
X133.0Y-98.5
X133.4Y-41.3
X134.0Y-60.5
X134.75Y-78.0
X138.0Y-65.5
X138.5Y-71.9
X141.9Y-92.9
X141.9Y-109.0
X143.05Y-51.9
X143.05Y-53.7
X145.25Y-96.25
X148.0Y-88.0
X153.2Y-56.2
X153.7Y-49.8
T2
X83.75Y-77.8
X83.75Y-79.7
T3
X53.75Y-62.75
X53.75Y-72.0
X54.225Y-99.75
X54.225Y-102.25
X54.225Y-104.75
X54.225Y-107.25
X56.25Y-62.75
X56.25Y-72.0
X58.75Y-62.75
X58.75Y-72.0
X61.25Y-62.75
X61.25Y-72.0
X66.0Y-109.25
X66.0Y-111.75
X66.0Y-114.25
X66.0Y-116.75
X76.0Y-109.25
X76.0Y-111.75
X76.0Y-114.25
X76.0Y-116.75
X136.0Y-43.5
X138.5Y-43.5
X141.0Y-43.5
X143.5Y-43.5
X146.0Y-43.5
T4
X54.95Y-87.75
X62.55Y-87.75
X102.75Y-114.725
X105.25Y-114.725
X112.25Y-114.75
X114.75Y-114.75
X119.329Y-42.433
X119.329Y-44.973
X119.329Y-47.513
X119.329Y-50.053
X127.25Y-42.42
X127.25Y-44.96
X127.25Y-47.5
T5
X85.02Y-108.94
X85.02Y-111.48
X85.02Y-114.02
X85.02Y-116.56
X94.87Y-108.94
X94.87Y-111.48
X94.87Y-114.02
X94.87Y-116.56
T6
X125.92Y-113.858
X131.0Y-113.858
X138.42Y-113.912
X143.5Y-113.912
X154.055Y-101.215
X154.055Y-106.295
T4
G00X145.5Y-78.457
M15
G01X145.5Y-76.457
M16
G05
G00X149.5Y-72.757
M15
G01X147.5Y-72.757
M16
G05
G00X151.5Y-78.457
M15
G01X151.5Y-76.457
M16
G05
M30
