%TF.GenerationSoftware,KiCad,Pcbnew,8.0.6*%
%TF.CreationDate,2025-04-13T07:27:12+01:00*%
%TF.ProjectId,fabrizio_project _Mainboard,66616272-697a-4696-9f5f-70726f6a6563,rev?*%
%TF.SameCoordinates,Original*%
%TF.FileFunction,Soldermask,Bot*%
%TF.FilePolarity,Negative*%
%FSLAX46Y46*%
G04 Gerber Fmt 4.6, Leading zero omitted, Abs format (unit mm)*
G04 Created by KiCad (PCBNEW 8.0.6) date 2025-04-13 07:27:12*
%MOMM*%
%LPD*%
G01*
G04 APERTURE LIST*
G04 Aperture macros list*
%AMRoundRect*
0 Rectangle with rounded corners*
0 $1 Rounding radius*
0 $2 $3 $4 $5 $6 $7 $8 $9 X,Y pos of 4 corners*
0 Add a 4 corners polygon primitive as box body*
4,1,4,$2,$3,$4,$5,$6,$7,$8,$9,$2,$3,0*
0 Add four circle primitives for the rounded corners*
1,1,$1+$1,$2,$3*
1,1,$1+$1,$4,$5*
1,1,$1+$1,$6,$7*
1,1,$1+$1,$8,$9*
0 Add four rect primitives between the rounded corners*
20,1,$1+$1,$2,$3,$4,$5,0*
20,1,$1+$1,$4,$5,$6,$7,0*
20,1,$1+$1,$6,$7,$8,$9,0*
20,1,$1+$1,$8,$9,$2,$3,0*%
G04 Aperture macros list end*
%ADD10RoundRect,0.250000X0.600000X0.725000X-0.600000X0.725000X-0.600000X-0.725000X0.600000X-0.725000X0*%
%ADD11O,1.700000X1.950000*%
%ADD12RoundRect,0.250000X-0.600000X-0.750000X0.600000X-0.750000X0.600000X0.750000X-0.600000X0.750000X0*%
%ADD13O,1.700000X2.000000*%
%ADD14RoundRect,0.250000X0.845000X-0.620000X0.845000X0.620000X-0.845000X0.620000X-0.845000X-0.620000X0*%
%ADD15O,2.190000X1.740000*%
%ADD16RoundRect,0.250000X0.725000X-0.600000X0.725000X0.600000X-0.725000X0.600000X-0.725000X-0.600000X0*%
%ADD17O,1.950000X1.700000*%
%ADD18RoundRect,0.250000X-0.600000X-0.725000X0.600000X-0.725000X0.600000X0.725000X-0.600000X0.725000X0*%
%ADD19C,1.000000*%
%ADD20R,2.600000X2.600000*%
%ADD21C,2.600000*%
%ADD22R,3.500000X3.500000*%
%ADD23RoundRect,0.750000X0.750000X1.000000X-0.750000X1.000000X-0.750000X-1.000000X0.750000X-1.000000X0*%
%ADD24RoundRect,0.875000X0.875000X0.875000X-0.875000X0.875000X-0.875000X-0.875000X0.875000X-0.875000X0*%
%ADD25C,3.700000*%
%ADD26R,1.700000X1.700000*%
%ADD27O,1.700000X1.700000*%
%ADD28R,2.000000X2.000000*%
%ADD29C,2.000000*%
G04 APERTURE END LIST*
D10*
%TO.C,LC1*%
X61250000Y-62750000D03*
D11*
X58750000Y-62750000D03*
X56250000Y-62750000D03*
X53750000Y-62750000D03*
%TD*%
D12*
%TO.C,F_REG1*%
X112250000Y-114750000D03*
D13*
X114750000Y-114750000D03*
%TD*%
D14*
%TO.C,F140_1*%
X85020000Y-116560000D03*
D15*
X85020000Y-114020000D03*
X85020000Y-111480000D03*
X85020000Y-108940000D03*
%TD*%
D16*
%TO.C,F60_2*%
X76000000Y-116750000D03*
D17*
X76000000Y-114250000D03*
X76000000Y-111750000D03*
X76000000Y-109250000D03*
%TD*%
D18*
%TO.C,POWER_OUT1*%
X136000000Y-43500000D03*
D11*
X138500000Y-43500000D03*
X141000000Y-43500000D03*
X143500000Y-43500000D03*
X146000000Y-43500000D03*
%TD*%
D19*
%TO.C,Y2*%
X83750000Y-77800000D03*
X83750000Y-79700000D03*
%TD*%
D16*
%TO.C,F60_1*%
X66000000Y-116750000D03*
D17*
X66000000Y-114250000D03*
X66000000Y-111750000D03*
X66000000Y-109250000D03*
%TD*%
D12*
%TO.C,F_REG2*%
X102750000Y-114725000D03*
D13*
X105250000Y-114725000D03*
%TD*%
D20*
%TO.C,POWER_IN1*%
X154055000Y-106295000D03*
D21*
X154055000Y-101215000D03*
%TD*%
D10*
%TO.C,LC2*%
X61250000Y-72000000D03*
D11*
X58750000Y-72000000D03*
X56250000Y-72000000D03*
X53750000Y-72000000D03*
%TD*%
D22*
%TO.C,POWER_IN2*%
X145500000Y-77457500D03*
D23*
X151500000Y-77457500D03*
D24*
X148500000Y-72757500D03*
%TD*%
D25*
%TO.C,H4*%
X155750000Y-115750000D03*
%TD*%
D20*
%TO.C,SSR1*%
X138420000Y-113912500D03*
D21*
X143500000Y-113912500D03*
%TD*%
D14*
%TO.C,F140_2*%
X94870000Y-116560000D03*
D15*
X94870000Y-114020000D03*
X94870000Y-111480000D03*
X94870000Y-108940000D03*
%TD*%
D25*
%TO.C,H1*%
X155750000Y-44250000D03*
%TD*%
%TO.C,H2*%
X54250000Y-44250000D03*
%TD*%
D16*
%TO.C,SCREEN1*%
X54225000Y-107250000D03*
D17*
X54225000Y-104750000D03*
X54225000Y-102250000D03*
X54225000Y-99750000D03*
%TD*%
D26*
%TO.C,SERVO1*%
X127250000Y-42420000D03*
D27*
X127250000Y-44960000D03*
X127250000Y-47500000D03*
%TD*%
D28*
%TO.C,BUZZER1*%
X54950000Y-87750000D03*
D29*
X62550000Y-87750000D03*
%TD*%
D26*
%TO.C,SWD1*%
X119329095Y-42433290D03*
D27*
X119329095Y-44973290D03*
X119329095Y-47513290D03*
X119329095Y-50053290D03*
%TD*%
D25*
%TO.C,H3*%
X54000000Y-116000000D03*
%TD*%
D20*
%TO.C,SSR2*%
X125920000Y-113857500D03*
D21*
X131000000Y-113857500D03*
%TD*%
M02*
