%TF.GenerationSoftware,KiCad,Pcbnew,8.0.6*%
%TF.CreationDate,2025-04-13T07:27:12+01:00*%
%TF.ProjectId,fabrizio_project _Mainboard,66616272-697a-4696-9f5f-70726f6a6563,rev?*%
%TF.SameCoordinates,Original*%
%TF.FileFunction,Copper,L3,Inr*%
%TF.FilePolarity,Positive*%
%FSLAX46Y46*%
G04 Gerber Fmt 4.6, Leading zero omitted, Abs format (unit mm)*
G04 Created by KiCad (PCBNEW 8.0.6) date 2025-04-13 07:27:12*
%MOMM*%
%LPD*%
G01*
G04 APERTURE LIST*
G04 Aperture macros list*
%AMRoundRect*
0 Rectangle with rounded corners*
0 $1 Rounding radius*
0 $2 $3 $4 $5 $6 $7 $8 $9 X,Y pos of 4 corners*
0 Add a 4 corners polygon primitive as box body*
4,1,4,$2,$3,$4,$5,$6,$7,$8,$9,$2,$3,0*
0 Add four circle primitives for the rounded corners*
1,1,$1+$1,$2,$3*
1,1,$1+$1,$4,$5*
1,1,$1+$1,$6,$7*
1,1,$1+$1,$8,$9*
0 Add four rect primitives between the rounded corners*
20,1,$1+$1,$2,$3,$4,$5,0*
20,1,$1+$1,$4,$5,$6,$7,0*
20,1,$1+$1,$6,$7,$8,$9,0*
20,1,$1+$1,$8,$9,$2,$3,0*%
G04 Aperture macros list end*
%TA.AperFunction,ComponentPad*%
%ADD10RoundRect,0.250000X0.600000X0.725000X-0.600000X0.725000X-0.600000X-0.725000X0.600000X-0.725000X0*%
%TD*%
%TA.AperFunction,ComponentPad*%
%ADD11O,1.700000X1.950000*%
%TD*%
%TA.AperFunction,ComponentPad*%
%ADD12RoundRect,0.250000X-0.600000X-0.750000X0.600000X-0.750000X0.600000X0.750000X-0.600000X0.750000X0*%
%TD*%
%TA.AperFunction,ComponentPad*%
%ADD13O,1.700000X2.000000*%
%TD*%
%TA.AperFunction,ComponentPad*%
%ADD14RoundRect,0.250000X0.845000X-0.620000X0.845000X0.620000X-0.845000X0.620000X-0.845000X-0.620000X0*%
%TD*%
%TA.AperFunction,ComponentPad*%
%ADD15O,2.190000X1.740000*%
%TD*%
%TA.AperFunction,ComponentPad*%
%ADD16RoundRect,0.250000X0.725000X-0.600000X0.725000X0.600000X-0.725000X0.600000X-0.725000X-0.600000X0*%
%TD*%
%TA.AperFunction,ComponentPad*%
%ADD17O,1.950000X1.700000*%
%TD*%
%TA.AperFunction,ComponentPad*%
%ADD18RoundRect,0.250000X-0.600000X-0.725000X0.600000X-0.725000X0.600000X0.725000X-0.600000X0.725000X0*%
%TD*%
%TA.AperFunction,ComponentPad*%
%ADD19C,1.000000*%
%TD*%
%TA.AperFunction,ComponentPad*%
%ADD20R,2.600000X2.600000*%
%TD*%
%TA.AperFunction,ComponentPad*%
%ADD21C,2.600000*%
%TD*%
%TA.AperFunction,ComponentPad*%
%ADD22R,3.500000X3.500000*%
%TD*%
%TA.AperFunction,ComponentPad*%
%ADD23RoundRect,0.750000X0.750000X1.000000X-0.750000X1.000000X-0.750000X-1.000000X0.750000X-1.000000X0*%
%TD*%
%TA.AperFunction,ComponentPad*%
%ADD24RoundRect,0.875000X0.875000X0.875000X-0.875000X0.875000X-0.875000X-0.875000X0.875000X-0.875000X0*%
%TD*%
%TA.AperFunction,ComponentPad*%
%ADD25R,1.700000X1.700000*%
%TD*%
%TA.AperFunction,ComponentPad*%
%ADD26O,1.700000X1.700000*%
%TD*%
%TA.AperFunction,ComponentPad*%
%ADD27R,2.000000X2.000000*%
%TD*%
%TA.AperFunction,ComponentPad*%
%ADD28C,2.000000*%
%TD*%
%TA.AperFunction,ViaPad*%
%ADD29C,0.600000*%
%TD*%
%TA.AperFunction,Conductor*%
%ADD30C,1.000000*%
%TD*%
%TA.AperFunction,Conductor*%
%ADD31C,0.200000*%
%TD*%
%TA.AperFunction,Conductor*%
%ADD32C,0.400000*%
%TD*%
G04 APERTURE END LIST*
D10*
%TO.N,GND*%
%TO.C,LC1*%
X61250000Y-62750000D03*
D11*
%TO.N,+5V*%
X58750000Y-62750000D03*
%TO.N,/HX1DT*%
X56250000Y-62750000D03*
%TO.N,/HX1_SCK*%
X53750000Y-62750000D03*
%TD*%
D12*
%TO.N,Net-(F_REG1-+)*%
%TO.C,F_REG1*%
X112250000Y-114750000D03*
D13*
%TO.N,Net-(F_REG1--)*%
X114750000Y-114750000D03*
%TD*%
D14*
%TO.N,GND*%
%TO.C,F140_1*%
X85020000Y-116560000D03*
D15*
%TO.N,Net-(F140_1-+)*%
X85020000Y-114020000D03*
%TO.N,/TACH1*%
X85020000Y-111480000D03*
%TO.N,/F140_HS*%
X85020000Y-108940000D03*
%TD*%
D16*
%TO.N,GND*%
%TO.C,F60_2*%
X76000000Y-116750000D03*
D17*
%TO.N,Net-(COOLING1-Pin_1)*%
X76000000Y-114250000D03*
%TO.N,unconnected-(F60_2-Tacho-Pad3)*%
X76000000Y-111750000D03*
%TO.N,/F60_LS*%
X76000000Y-109250000D03*
%TD*%
D18*
%TO.N,GND*%
%TO.C,POWER_OUT1*%
X136000000Y-43500000D03*
D11*
%TO.N,+9V*%
X138500000Y-43500000D03*
%TO.N,+3.3V*%
X141000000Y-43500000D03*
%TO.N,+5V*%
X143500000Y-43500000D03*
%TO.N,/12-24V_IN*%
X146000000Y-43500000D03*
%TD*%
D19*
%TO.N,/XTAL1A*%
%TO.C,Y2*%
X83750000Y-77800000D03*
%TO.N,/XTAL1B*%
X83750000Y-79700000D03*
%TD*%
D16*
%TO.N,GND*%
%TO.C,F60_1*%
X66000000Y-116750000D03*
D17*
%TO.N,Net-(COOLING1-Pin_1)*%
X66000000Y-114250000D03*
%TO.N,/TACHM2*%
X66000000Y-111750000D03*
%TO.N,/F60_LS*%
X66000000Y-109250000D03*
%TD*%
D12*
%TO.N,Net-(F_REG1-+)*%
%TO.C,F_REG2*%
X102750000Y-114725000D03*
D13*
%TO.N,Net-(F_REG1--)*%
X105250000Y-114725000D03*
%TD*%
D20*
%TO.N,/12-24V_IN*%
%TO.C,POWER_IN1*%
X154055000Y-106295000D03*
D21*
%TO.N,GND*%
X154055000Y-101215000D03*
%TD*%
D10*
%TO.N,GND*%
%TO.C,LC2*%
X61250000Y-72000000D03*
D11*
%TO.N,+5V*%
X58750000Y-72000000D03*
%TO.N,/HX2DT*%
X56250000Y-72000000D03*
%TO.N,/HX2_SCK*%
X53750000Y-72000000D03*
%TD*%
D22*
%TO.N,/12-24V_IN*%
%TO.C,POWER_IN2*%
X145500000Y-77457500D03*
D23*
%TO.N,GND*%
X151500000Y-77457500D03*
D24*
X148500000Y-72757500D03*
%TD*%
D20*
%TO.N,Net-(Q5-C)*%
%TO.C,SSR1*%
X138420000Y-113912500D03*
D21*
%TO.N,+5V*%
X143500000Y-113912500D03*
%TD*%
D14*
%TO.N,GND*%
%TO.C,F140_2*%
X94870000Y-116560000D03*
D15*
%TO.N,Net-(F140_1-+)*%
X94870000Y-114020000D03*
%TO.N,/TACH2*%
X94870000Y-111480000D03*
%TO.N,/F140_HS*%
X94870000Y-108940000D03*
%TD*%
D16*
%TO.N,GND*%
%TO.C,SCREEN1*%
X54225000Y-107250000D03*
D17*
%TO.N,/SCREEN_RX*%
X54225000Y-104750000D03*
%TO.N,/SCREEN_TX*%
X54225000Y-102250000D03*
%TO.N,+5V*%
X54225000Y-99750000D03*
%TD*%
D25*
%TO.N,/SERV0*%
%TO.C,SERVO1*%
X127250000Y-42420000D03*
D26*
%TO.N,+5V*%
X127250000Y-44960000D03*
%TO.N,GND*%
X127250000Y-47500000D03*
%TD*%
D27*
%TO.N,+5V*%
%TO.C,BUZZER1*%
X54950000Y-87750000D03*
D28*
%TO.N,Net-(BUZZER1--)*%
X62550000Y-87750000D03*
%TD*%
D25*
%TO.N,+3.3V*%
%TO.C,SWD1*%
X119329095Y-42433290D03*
D26*
%TO.N,/PA13*%
X119329095Y-44973290D03*
%TO.N,/PA14*%
X119329095Y-47513290D03*
%TO.N,GND*%
X119329095Y-50053290D03*
%TD*%
D20*
%TO.N,Net-(Q6-C)*%
%TO.C,SSR2*%
X125920000Y-113857500D03*
D21*
%TO.N,+5V*%
X131000000Y-113857500D03*
%TD*%
D29*
%TO.N,+5V*%
X133400000Y-41300000D03*
X101100000Y-103500000D03*
X84800000Y-103500000D03*
X143050000Y-53700000D03*
X128100000Y-90300000D03*
X68400000Y-103500000D03*
X110000000Y-84500000D03*
X141900000Y-109000000D03*
X141900000Y-92900000D03*
X108300000Y-79900000D03*
X143050000Y-51900000D03*
%TO.N,GND*%
X95500000Y-85200000D03*
X95525000Y-83275000D03*
%TO.N,+3.3V*%
X94200000Y-80400000D03*
X108300000Y-60400000D03*
X82800000Y-59800000D03*
X102400000Y-106300000D03*
X104000000Y-81500000D03*
X111400000Y-65200000D03*
X109500000Y-65200000D03*
X109100000Y-81500000D03*
X92500000Y-86400000D03*
X105700000Y-65200000D03*
X103000000Y-94000000D03*
X100450000Y-89950000D03*
X108800000Y-54600000D03*
X77100000Y-62600000D03*
X107300000Y-65200000D03*
%TO.N,/PH0*%
X91750000Y-84250000D03*
X86000000Y-84250000D03*
%TO.N,/PH1*%
X81975000Y-87750000D03*
X90000000Y-85250000D03*
%TO.N,/XTAL1A*%
X86800000Y-80991051D03*
X90542633Y-83035421D03*
%TO.N,/XTAL1B*%
X91237851Y-83635421D03*
X86500000Y-81750000D03*
%TO.N,/BOOT1*%
X98150000Y-89900000D03*
X74700000Y-74100000D03*
%TO.N,/BOOT0*%
X96700000Y-78700000D03*
X80900000Y-73500000D03*
%TO.N,/NRST*%
X86500000Y-69175000D03*
X91200000Y-85600000D03*
X83250000Y-70175000D03*
X83250000Y-68175000D03*
X82800000Y-75500000D03*
%TO.N,/12-24V_IN*%
X84800000Y-98400000D03*
X101100000Y-98400000D03*
X153700000Y-49800000D03*
X134750000Y-78000000D03*
X68400000Y-98400000D03*
X145250000Y-96250000D03*
X153200000Y-56200000D03*
X148000000Y-88000000D03*
X133000000Y-98500000D03*
%TO.N,+12V*%
X101106089Y-100954809D03*
X84807683Y-100960899D03*
X68406089Y-100954809D03*
X138500000Y-71900000D03*
X138000000Y-65500000D03*
X134000000Y-60500000D03*
%TO.N,/PA13*%
X103824265Y-82524265D03*
X110750000Y-56000000D03*
%TO.N,/PA14*%
X103200000Y-72900000D03*
X116200000Y-58700000D03*
%TO.N,/DET*%
X93499999Y-81905981D03*
X102300000Y-81800000D03*
X113600000Y-60200000D03*
%TO.N,/MOSI*%
X104300000Y-86200000D03*
X106500000Y-66200000D03*
%TO.N,/MISO*%
X108700000Y-67300000D03*
X105600000Y-88200000D03*
%TO.N,/CLK*%
X104300000Y-87500000D03*
X108300000Y-66200000D03*
%TO.N,/LED_LOW_SIDE*%
X104598513Y-82725620D03*
X103942228Y-85484456D03*
%TO.N,/MQ2*%
X98214028Y-79107035D03*
X91100000Y-58000000D03*
%TO.N,/PWM_REG*%
X109200000Y-109500000D03*
X98750000Y-90500000D03*
%TO.N,/SCL*%
X96100000Y-80400000D03*
X94900000Y-64900000D03*
%TO.N,/SDA*%
X83900000Y-58700000D03*
X95174265Y-80525735D03*
%TO.N,/BUZZER*%
X87100000Y-90800000D03*
X97415544Y-79057772D03*
%TO.N,/SSR1*%
X103913370Y-83319290D03*
X132750000Y-102000000D03*
%TO.N,/SSR2*%
X103836827Y-84115623D03*
X118750000Y-104000000D03*
%TO.N,/HX1DT*%
X56270000Y-67410000D03*
X95600000Y-94400000D03*
%TO.N,/HX1_SCK*%
X53810000Y-66520000D03*
X94700000Y-93600000D03*
%TO.N,/HX2DT*%
X56250000Y-77170000D03*
X97091229Y-93800000D03*
%TO.N,/HX2_SCK*%
X96271348Y-93819878D03*
X53940000Y-76060000D03*
%TO.N,/TACH2*%
X99275000Y-108025000D03*
X98300000Y-80400000D03*
%TO.N,/MEMS_AOUT*%
X92200000Y-58200000D03*
X98900000Y-77000000D03*
%TO.N,/PMS_RX*%
X102600000Y-85300000D03*
X68000000Y-51900000D03*
%TO.N,/PMS_TX*%
X69400000Y-52000000D03*
X105300000Y-83400000D03*
%TO.N,/MUTE*%
X89400000Y-56600000D03*
X96900000Y-74300000D03*
%TO.N,/ALARM*%
X97500000Y-75300000D03*
X90100000Y-57200000D03*
%TO.N,/SCREEN_TX*%
X92800000Y-93200000D03*
%TO.N,/SCREEN_RX*%
X59250000Y-104718750D03*
X91300000Y-88200000D03*
%TO.N,/SERV0*%
X89600000Y-88400000D03*
X124000000Y-42420000D03*
X110600000Y-91100000D03*
%TO.N,/WS2811*%
X91750000Y-49150000D03*
X104700000Y-74600000D03*
%TO.N,/F140_LS*%
X97691229Y-90555388D03*
X98100000Y-105500000D03*
X105200000Y-105500000D03*
%TO.N,/F140_HS*%
X98010109Y-108940010D03*
X101000000Y-108900000D03*
%TO.N,/F60_LS*%
X97091229Y-91300000D03*
X79190000Y-109250000D03*
%TD*%
D30*
%TO.N,+5V*%
X141900000Y-109000000D02*
X141900000Y-92900000D01*
D31*
%TO.N,+3.3V*%
X103000000Y-97100000D02*
X103000000Y-94000000D01*
D32*
X108400000Y-65200000D02*
X111400000Y-65200000D01*
D31*
X108300000Y-65200000D02*
X108400000Y-65200000D01*
X102400000Y-97700000D02*
X103000000Y-97100000D01*
D32*
X105700000Y-65200000D02*
X108400000Y-65200000D01*
X108300000Y-60400000D02*
X108300000Y-65200000D01*
D31*
X102400000Y-97700000D02*
X102400000Y-106300000D01*
X104000000Y-81500000D02*
X109100000Y-81500000D01*
%TO.N,/XTAL1A*%
X84750000Y-78800000D02*
X84750000Y-80500000D01*
X83750000Y-77800000D02*
X84750000Y-78800000D01*
X85250000Y-81000000D02*
X85500000Y-81000000D01*
X84750000Y-80500000D02*
X85250000Y-81000000D01*
X85500000Y-81000000D02*
X85508949Y-80991051D01*
X85508949Y-80991051D02*
X86800000Y-80991051D01*
%TO.N,/BOOT1*%
X74700000Y-74100000D02*
X86700000Y-74100000D01*
X92400000Y-84300000D02*
X95600000Y-84300000D01*
X86700000Y-74100000D02*
X92400000Y-80400000D01*
X98150000Y-86850000D02*
X98150000Y-89900000D01*
X95600000Y-84300000D02*
X98150000Y-86850000D01*
X92400000Y-80400000D02*
X92400000Y-84300000D01*
%TO.N,/BOOT0*%
X91500000Y-73500000D02*
X96700000Y-78700000D01*
X80900000Y-73500000D02*
X91500000Y-73500000D01*
%TO.N,/NRST*%
X85268629Y-82350000D02*
X82800000Y-79881371D01*
X87950000Y-82350000D02*
X85268629Y-82350000D01*
X82800000Y-79881371D02*
X82800000Y-75500000D01*
X91200000Y-85600000D02*
X87950000Y-82350000D01*
D30*
%TO.N,/12-24V_IN*%
X145500000Y-77457500D02*
X145500000Y-63900000D01*
X145500000Y-63900000D02*
X153200000Y-56200000D01*
D31*
%TO.N,/PA14*%
X107100000Y-72900000D02*
X116200000Y-63800000D01*
X116200000Y-63800000D02*
X116200000Y-58700000D01*
X103200000Y-72900000D02*
X107100000Y-72900000D01*
%TO.N,/DET*%
X93605980Y-81800000D02*
X93499999Y-81905981D01*
X102300000Y-81800000D02*
X93605980Y-81800000D01*
%TO.N,/PWM_REG*%
X106750000Y-109500000D02*
X109200000Y-109500000D01*
X98800000Y-105600000D02*
X98750000Y-90500000D01*
X106750000Y-109500000D02*
X98800000Y-105600000D01*
%TO.N,/SSR1*%
X132750000Y-102000000D02*
X119901471Y-102000000D01*
X105947306Y-85357661D02*
X105418299Y-84824219D01*
X119901471Y-102000000D02*
X117500000Y-104401471D01*
X109150000Y-88801470D02*
X105947306Y-85357661D01*
X109250000Y-104500000D02*
X109150000Y-104400000D01*
X117500000Y-104401471D02*
X117500000Y-104500000D01*
X109150000Y-104400000D02*
X109150000Y-88801470D01*
X117500000Y-104500000D02*
X109250000Y-104500000D01*
X105418299Y-84824219D02*
X103913370Y-83319290D01*
%TO.N,/SSR2*%
X117750000Y-105000000D02*
X109000000Y-105000000D01*
X105500000Y-85778796D02*
X103836827Y-84115623D01*
X118750000Y-104000000D02*
X117750000Y-105000000D01*
X109000000Y-105000000D02*
X108750000Y-104750000D01*
X108750000Y-89250000D02*
X107202553Y-87570710D01*
X108750000Y-104750000D02*
X108750000Y-89250000D01*
X107202553Y-87570710D02*
X105500000Y-85778796D01*
%TO.N,/SCREEN_RX*%
X68200000Y-93300000D02*
X63500000Y-98000000D01*
X59250000Y-104718750D02*
X59000000Y-104750000D01*
X63500000Y-100750000D02*
X59750000Y-104500000D01*
X59400000Y-104700000D02*
X59250000Y-104718750D01*
X74300000Y-93300000D02*
X68200000Y-93300000D01*
X91500000Y-89000000D02*
X87500000Y-93300000D01*
X87500000Y-93300000D02*
X74300000Y-93300000D01*
X91300000Y-88200000D02*
X91500000Y-89000000D01*
X59750000Y-104500000D02*
X59400000Y-104700000D01*
X63500000Y-98000000D02*
X63500000Y-100750000D01*
%TO.N,/SERV0*%
X123000000Y-43420000D02*
X124000000Y-42420000D01*
X112700000Y-89000000D02*
X119500000Y-89000000D01*
X119500000Y-89000000D02*
X123000000Y-85500000D01*
X110600000Y-91100000D02*
X112700000Y-89000000D01*
X123000000Y-85500000D02*
X123000000Y-43420000D01*
%TO.N,/F140_LS*%
X98100000Y-105500000D02*
X98100000Y-90964159D01*
X98100000Y-90964159D02*
X97691229Y-90555388D01*
%TO.N,/F60_LS*%
X97091229Y-92057300D02*
X91948529Y-97200000D01*
X84300000Y-97200000D02*
X81700000Y-99800000D01*
X81700000Y-99800000D02*
X81700000Y-108500000D01*
X80950000Y-109250000D02*
X79190000Y-109250000D01*
X97091229Y-91300000D02*
X97091229Y-92057300D01*
X91948529Y-97200000D02*
X84300000Y-97200000D01*
X81700000Y-108500000D02*
X80950000Y-109250000D01*
%TD*%
M02*
