%TF.GenerationSoftware,KiCad,Pcbnew,8.0.6*%
%TF.CreationDate,2025-04-13T07:27:12+01:00*%
%TF.ProjectId,fabrizio_project _Mainboard,66616272-697a-4696-9f5f-70726f6a6563,rev?*%
%TF.SameCoordinates,Original*%
%TF.FileFunction,Soldermask,Top*%
%TF.FilePolarity,Negative*%
%FSLAX46Y46*%
G04 Gerber Fmt 4.6, Leading zero omitted, Abs format (unit mm)*
G04 Created by KiCad (PCBNEW 8.0.6) date 2025-04-13 07:27:12*
%MOMM*%
%LPD*%
G01*
G04 APERTURE LIST*
G04 Aperture macros list*
%AMRoundRect*
0 Rectangle with rounded corners*
0 $1 Rounding radius*
0 $2 $3 $4 $5 $6 $7 $8 $9 X,Y pos of 4 corners*
0 Add a 4 corners polygon primitive as box body*
4,1,4,$2,$3,$4,$5,$6,$7,$8,$9,$2,$3,0*
0 Add four circle primitives for the rounded corners*
1,1,$1+$1,$2,$3*
1,1,$1+$1,$4,$5*
1,1,$1+$1,$6,$7*
1,1,$1+$1,$8,$9*
0 Add four rect primitives between the rounded corners*
20,1,$1+$1,$2,$3,$4,$5,0*
20,1,$1+$1,$4,$5,$6,$7,0*
20,1,$1+$1,$6,$7,$8,$9,0*
20,1,$1+$1,$8,$9,$2,$3,0*%
G04 Aperture macros list end*
%ADD10RoundRect,0.225000X0.225000X0.250000X-0.225000X0.250000X-0.225000X-0.250000X0.225000X-0.250000X0*%
%ADD11RoundRect,0.250000X2.050000X0.300000X-2.050000X0.300000X-2.050000X-0.300000X2.050000X-0.300000X0*%
%ADD12RoundRect,0.250002X4.449998X5.149998X-4.449998X5.149998X-4.449998X-5.149998X4.449998X-5.149998X0*%
%ADD13RoundRect,0.250000X0.600000X0.725000X-0.600000X0.725000X-0.600000X-0.725000X0.600000X-0.725000X0*%
%ADD14O,1.700000X1.950000*%
%ADD15RoundRect,0.250000X-0.600000X-0.750000X0.600000X-0.750000X0.600000X0.750000X-0.600000X0.750000X0*%
%ADD16O,1.700000X2.000000*%
%ADD17RoundRect,0.200000X0.200000X0.275000X-0.200000X0.275000X-0.200000X-0.275000X0.200000X-0.275000X0*%
%ADD18R,1.120000X2.160000*%
%ADD19RoundRect,0.250000X0.845000X-0.620000X0.845000X0.620000X-0.845000X0.620000X-0.845000X-0.620000X0*%
%ADD20O,2.190000X1.740000*%
%ADD21RoundRect,0.250000X0.725000X-0.600000X0.725000X0.600000X-0.725000X0.600000X-0.725000X-0.600000X0*%
%ADD22O,1.950000X1.700000*%
%ADD23RoundRect,0.250000X-0.600000X-0.725000X0.600000X-0.725000X0.600000X0.725000X-0.600000X0.725000X0*%
%ADD24C,1.000000*%
%ADD25R,5.150000X5.150000*%
%ADD26RoundRect,0.062500X-0.062500X-0.375000X0.062500X-0.375000X0.062500X0.375000X-0.062500X0.375000X0*%
%ADD27RoundRect,0.062500X-0.375000X-0.062500X0.375000X-0.062500X0.375000X0.062500X-0.375000X0.062500X0*%
%ADD28RoundRect,0.250000X1.000000X0.650000X-1.000000X0.650000X-1.000000X-0.650000X1.000000X-0.650000X0*%
%ADD29RoundRect,0.200000X0.275000X-0.200000X0.275000X0.200000X-0.275000X0.200000X-0.275000X-0.200000X0*%
%ADD30RoundRect,0.225000X0.250000X-0.225000X0.250000X0.225000X-0.250000X0.225000X-0.250000X-0.225000X0*%
%ADD31RoundRect,0.150000X-0.587500X-0.150000X0.587500X-0.150000X0.587500X0.150000X-0.587500X0.150000X0*%
%ADD32RoundRect,0.250000X0.475000X-0.250000X0.475000X0.250000X-0.475000X0.250000X-0.475000X-0.250000X0*%
%ADD33RoundRect,0.225000X-0.225000X-0.250000X0.225000X-0.250000X0.225000X0.250000X-0.225000X0.250000X0*%
%ADD34RoundRect,0.225000X-0.250000X0.225000X-0.250000X-0.225000X0.250000X-0.225000X0.250000X0.225000X0*%
%ADD35R,3.150000X1.000000*%
%ADD36RoundRect,0.150000X0.150000X-0.587500X0.150000X0.587500X-0.150000X0.587500X-0.150000X-0.587500X0*%
%ADD37RoundRect,0.150000X-0.150000X0.512500X-0.150000X-0.512500X0.150000X-0.512500X0.150000X0.512500X0*%
%ADD38RoundRect,0.150000X0.150000X0.700000X-0.150000X0.700000X-0.150000X-0.700000X0.150000X-0.700000X0*%
%ADD39RoundRect,0.250000X0.250000X1.100000X-0.250000X1.100000X-0.250000X-1.100000X0.250000X-1.100000X0*%
%ADD40RoundRect,0.150000X-0.150000X0.587500X-0.150000X-0.587500X0.150000X-0.587500X0.150000X0.587500X0*%
%ADD41RoundRect,0.200000X-0.275000X0.200000X-0.275000X-0.200000X0.275000X-0.200000X0.275000X0.200000X0*%
%ADD42R,2.600000X2.600000*%
%ADD43C,2.600000*%
%ADD44R,3.500000X2.350000*%
%ADD45RoundRect,0.150000X0.587500X0.150000X-0.587500X0.150000X-0.587500X-0.150000X0.587500X-0.150000X0*%
%ADD46RoundRect,0.250000X-1.950000X-1.000000X1.950000X-1.000000X1.950000X1.000000X-1.950000X1.000000X0*%
%ADD47RoundRect,0.250000X-0.300000X2.050000X-0.300000X-2.050000X0.300000X-2.050000X0.300000X2.050000X0*%
%ADD48RoundRect,0.250002X-5.149998X4.449998X-5.149998X-4.449998X5.149998X-4.449998X5.149998X4.449998X0*%
%ADD49R,1.400000X1.200000*%
%ADD50R,3.500000X3.500000*%
%ADD51RoundRect,0.750000X0.750000X1.000000X-0.750000X1.000000X-0.750000X-1.000000X0.750000X-1.000000X0*%
%ADD52RoundRect,0.875000X0.875000X0.875000X-0.875000X0.875000X-0.875000X-0.875000X0.875000X-0.875000X0*%
%ADD53C,3.700000*%
%ADD54RoundRect,0.200000X-0.200000X-0.275000X0.200000X-0.275000X0.200000X0.275000X-0.200000X0.275000X0*%
%ADD55RoundRect,0.250000X-1.500000X-0.550000X1.500000X-0.550000X1.500000X0.550000X-1.500000X0.550000X0*%
%ADD56RoundRect,0.250000X-0.250000X-0.475000X0.250000X-0.475000X0.250000X0.475000X-0.250000X0.475000X0*%
%ADD57R,0.700000X1.200000*%
%ADD58R,1.000000X0.800000*%
%ADD59R,1.000000X1.200000*%
%ADD60R,1.000000X2.800000*%
%ADD61R,1.300000X1.900000*%
%ADD62R,1.700000X1.700000*%
%ADD63O,1.700000X1.700000*%
%ADD64R,2.000000X2.000000*%
%ADD65C,2.000000*%
%ADD66RoundRect,0.250000X0.250000X-0.525000X0.250000X0.525000X-0.250000X0.525000X-0.250000X-0.525000X0*%
%ADD67RoundRect,0.475000X0.475000X1.275000X-0.475000X1.275000X-0.475000X-1.275000X0.475000X-1.275000X0*%
%ADD68RoundRect,0.200000X0.200000X1.550000X-0.200000X1.550000X-0.200000X-1.550000X0.200000X-1.550000X0*%
%ADD69RoundRect,0.175000X0.175000X1.575000X-0.175000X1.575000X-0.175000X-1.575000X0.175000X-1.575000X0*%
G04 APERTURE END LIST*
D10*
%TO.C,C4*%
X87750000Y-79750000D03*
X86200000Y-79750000D03*
%TD*%
D11*
%TO.C,U10*%
X130525000Y-75150000D03*
X130525000Y-73450000D03*
X130525000Y-71750000D03*
D12*
X121375000Y-71750000D03*
D11*
X130525000Y-70050000D03*
X130525000Y-68350000D03*
%TD*%
D13*
%TO.C,LC1*%
X61250000Y-62750000D03*
D14*
X58750000Y-62750000D03*
X56250000Y-62750000D03*
X53750000Y-62750000D03*
%TD*%
D15*
%TO.C,F_REG1*%
X112250000Y-114750000D03*
D16*
X114750000Y-114750000D03*
%TD*%
D17*
%TO.C,R10*%
X122900000Y-104000000D03*
X121250000Y-104000000D03*
%TD*%
D18*
%TO.C,BOOT1*%
X73830000Y-71665000D03*
X76370000Y-71665000D03*
X76370000Y-64935000D03*
X73830000Y-64935000D03*
%TD*%
D19*
%TO.C,F140_1*%
X85020000Y-116560000D03*
D20*
X85020000Y-114020000D03*
X85020000Y-111480000D03*
X85020000Y-108940000D03*
%TD*%
D21*
%TO.C,F60_2*%
X76000000Y-116750000D03*
D22*
X76000000Y-114250000D03*
X76000000Y-111750000D03*
X76000000Y-109250000D03*
%TD*%
D23*
%TO.C,POWER_OUT1*%
X136000000Y-43500000D03*
D14*
X138500000Y-43500000D03*
X141000000Y-43500000D03*
X143500000Y-43500000D03*
X146000000Y-43500000D03*
%TD*%
D24*
%TO.C,Y2*%
X83750000Y-77800000D03*
X83750000Y-79700000D03*
%TD*%
D11*
%TO.C,U11*%
X131150000Y-95400000D03*
X131150000Y-93700000D03*
X131150000Y-92000000D03*
D12*
X122000000Y-92000000D03*
D11*
X131150000Y-90300000D03*
X131150000Y-88600000D03*
%TD*%
D25*
%TO.C,U5*%
X97500000Y-85250000D03*
D26*
X94750000Y-81812500D03*
X95250000Y-81812500D03*
X95750000Y-81812500D03*
X96250000Y-81812500D03*
X96750000Y-81812500D03*
X97250000Y-81812500D03*
X97750000Y-81812500D03*
X98250000Y-81812500D03*
X98750000Y-81812500D03*
X99250000Y-81812500D03*
X99750000Y-81812500D03*
X100250000Y-81812500D03*
D27*
X100937500Y-82500000D03*
X100937500Y-83000000D03*
X100937500Y-83500000D03*
X100937500Y-84000000D03*
X100937500Y-84500000D03*
X100937500Y-85000000D03*
X100937500Y-85500000D03*
X100937500Y-86000000D03*
X100937500Y-86500000D03*
X100937500Y-87000000D03*
X100937500Y-87500000D03*
X100937500Y-88000000D03*
D26*
X100250000Y-88687500D03*
X99750000Y-88687500D03*
X99250000Y-88687500D03*
X98750000Y-88687500D03*
X98250000Y-88687500D03*
X97750000Y-88687500D03*
X97250000Y-88687500D03*
X96750000Y-88687500D03*
X96250000Y-88687500D03*
X95750000Y-88687500D03*
X95250000Y-88687500D03*
X94750000Y-88687500D03*
D27*
X94062500Y-88000000D03*
X94062500Y-87500000D03*
X94062500Y-87000000D03*
X94062500Y-86500000D03*
X94062500Y-86000000D03*
X94062500Y-85500000D03*
X94062500Y-85000000D03*
X94062500Y-84500000D03*
X94062500Y-84000000D03*
X94062500Y-83500000D03*
X94062500Y-83000000D03*
X94062500Y-82500000D03*
%TD*%
D28*
%TO.C,D5*%
X127250000Y-100000000D03*
X123250000Y-100000000D03*
%TD*%
D29*
%TO.C,R3*%
X112000000Y-109300000D03*
X112000000Y-107650000D03*
%TD*%
D30*
%TO.C,C8*%
X69200000Y-72675000D03*
X69200000Y-71125000D03*
%TD*%
D31*
%TO.C,Q2*%
X116500000Y-107525000D03*
X116500000Y-109425000D03*
X118375000Y-108475000D03*
%TD*%
D29*
%TO.C,R6*%
X87050000Y-59600000D03*
X87050000Y-57950000D03*
%TD*%
D10*
%TO.C,C16*%
X131475000Y-78800000D03*
X129925000Y-78800000D03*
%TD*%
D30*
%TO.C,C14*%
X80000000Y-67200000D03*
X80000000Y-65650000D03*
%TD*%
D21*
%TO.C,F60_1*%
X66000000Y-116750000D03*
D22*
X66000000Y-114250000D03*
X66000000Y-111750000D03*
X66000000Y-109250000D03*
%TD*%
D32*
%TO.C,C21*%
X114500000Y-84450000D03*
X114500000Y-82550000D03*
%TD*%
D10*
%TO.C,C2*%
X84025000Y-89250000D03*
X82475000Y-89250000D03*
%TD*%
D33*
%TO.C,C17*%
X126525000Y-64200000D03*
X128075000Y-64200000D03*
%TD*%
D34*
%TO.C,C11*%
X88000000Y-86600000D03*
X88000000Y-88150000D03*
%TD*%
D35*
%TO.C,FILTERING1*%
X94350000Y-103600000D03*
X89300000Y-103600000D03*
X94350000Y-101060000D03*
X89300000Y-101060000D03*
X94350000Y-98520000D03*
X89300000Y-98520000D03*
%TD*%
D33*
%TO.C,C23*%
X110125000Y-77500000D03*
X111675000Y-77500000D03*
%TD*%
D36*
%TO.C,Q1*%
X103800000Y-78437500D03*
X105700000Y-78437500D03*
X104750000Y-76562500D03*
%TD*%
D35*
%TO.C,F_REG3*%
X110550000Y-103500000D03*
X105500000Y-103500000D03*
X110550000Y-100960000D03*
X105500000Y-100960000D03*
X110550000Y-98420000D03*
X105500000Y-98420000D03*
%TD*%
D37*
%TO.C,U12*%
X111900000Y-82500000D03*
X110000000Y-82500000D03*
X110950000Y-84775000D03*
%TD*%
D17*
%TO.C,R9*%
X136762500Y-101700000D03*
X135112500Y-101700000D03*
%TD*%
D38*
%TO.C,PMS1*%
X72875000Y-46100000D03*
X71625000Y-46100000D03*
X70375000Y-46100000D03*
X69125000Y-46100000D03*
X67875000Y-46100000D03*
X66625000Y-46100000D03*
X65375000Y-46100000D03*
X64125000Y-46100000D03*
D39*
X74725000Y-42900000D03*
X62275000Y-42900000D03*
%TD*%
D31*
%TO.C,Q5*%
X136750000Y-104000000D03*
X136750000Y-105900000D03*
X138625000Y-104950000D03*
%TD*%
D32*
%TO.C,C24*%
X145750000Y-53700000D03*
X145750000Y-51800000D03*
%TD*%
D40*
%TO.C,Q3*%
X103350000Y-107162500D03*
X101450000Y-107162500D03*
X102400000Y-109037500D03*
%TD*%
D15*
%TO.C,F_REG2*%
X102750000Y-114725000D03*
D16*
X105250000Y-114725000D03*
%TD*%
D33*
%TO.C,C12*%
X92550000Y-74700000D03*
X94100000Y-74700000D03*
%TD*%
%TO.C,C10*%
X92625000Y-76900000D03*
X94175000Y-76900000D03*
%TD*%
D41*
%TO.C,R5*%
X107400000Y-106575000D03*
X107400000Y-108225000D03*
%TD*%
D29*
%TO.C,R2*%
X107750000Y-78325000D03*
X107750000Y-76675000D03*
%TD*%
D42*
%TO.C,POWER_IN1*%
X154055000Y-106295000D03*
D43*
X154055000Y-101215000D03*
%TD*%
D44*
%TO.C,L1*%
X138500000Y-74775000D03*
X138500000Y-68725000D03*
%TD*%
D13*
%TO.C,LC2*%
X61250000Y-72000000D03*
D14*
X58750000Y-72000000D03*
X56250000Y-72000000D03*
X53750000Y-72000000D03*
%TD*%
D31*
%TO.C,Q6*%
X125387500Y-104050000D03*
X125387500Y-105950000D03*
X127262500Y-105000000D03*
%TD*%
D45*
%TO.C,Q4*%
X68375000Y-88700000D03*
X68375000Y-86800000D03*
X66500000Y-87750000D03*
%TD*%
D46*
%TO.C,C18*%
X132300000Y-58000000D03*
X140700000Y-58000000D03*
%TD*%
D47*
%TO.C,U17*%
X155540000Y-53475000D03*
D48*
X153000000Y-62625000D03*
D47*
X150460000Y-53475000D03*
%TD*%
D49*
%TO.C,Y1*%
X82050000Y-86500000D03*
X84250000Y-86500000D03*
X84250000Y-84800000D03*
X82050000Y-84800000D03*
%TD*%
D29*
%TO.C,R7*%
X85300000Y-59600000D03*
X85300000Y-57950000D03*
%TD*%
D33*
%TO.C,C1*%
X82450000Y-82250000D03*
X84000000Y-82250000D03*
%TD*%
D10*
%TO.C,C5*%
X101400000Y-93600000D03*
X99850000Y-93600000D03*
%TD*%
D44*
%TO.C,L2*%
X139125000Y-95525000D03*
X139125000Y-89475000D03*
%TD*%
D28*
%TO.C,D4*%
X126500000Y-79750000D03*
X122500000Y-79750000D03*
%TD*%
D50*
%TO.C,POWER_IN2*%
X145500000Y-77457500D03*
D51*
X151500000Y-77457500D03*
D52*
X148500000Y-72757500D03*
%TD*%
D53*
%TO.C,H4*%
X155750000Y-115750000D03*
%TD*%
D42*
%TO.C,SSR1*%
X138420000Y-113912500D03*
D43*
X143500000Y-113912500D03*
%TD*%
D35*
%TO.C,COOLING1*%
X77625000Y-103540000D03*
X72575000Y-103540000D03*
X77625000Y-101000000D03*
X72575000Y-101000000D03*
X77625000Y-98460000D03*
X72575000Y-98460000D03*
%TD*%
D29*
%TO.C,R17*%
X111300000Y-63725000D03*
X111300000Y-62075000D03*
%TD*%
D46*
%TO.C,C15*%
X147800000Y-90750000D03*
X156200000Y-90750000D03*
%TD*%
D19*
%TO.C,F140_2*%
X94870000Y-116560000D03*
D20*
X94870000Y-114020000D03*
X94870000Y-111480000D03*
X94870000Y-108940000D03*
%TD*%
D54*
%TO.C,R1*%
X104000000Y-80500000D03*
X105650000Y-80500000D03*
%TD*%
D29*
%TO.C,R15*%
X105400000Y-63725000D03*
X105400000Y-62075000D03*
%TD*%
D55*
%TO.C,C20*%
X135550000Y-83250000D03*
X140950000Y-83250000D03*
%TD*%
D41*
%TO.C,R12*%
X69100000Y-64075000D03*
X69100000Y-65725000D03*
%TD*%
D29*
%TO.C,R14*%
X107200000Y-63750000D03*
X107200000Y-62100000D03*
%TD*%
D56*
%TO.C,C22*%
X109950000Y-80200000D03*
X111850000Y-80200000D03*
%TD*%
D53*
%TO.C,H1*%
X155750000Y-44250000D03*
%TD*%
D57*
%TO.C,Micro_SD_Card1*%
X104975000Y-58475000D03*
X106075000Y-58475000D03*
X107175000Y-58475000D03*
X108275000Y-58475000D03*
X109375000Y-58475000D03*
X110475000Y-58475000D03*
X111575000Y-58475000D03*
X112675000Y-58475000D03*
X113625000Y-58475000D03*
D58*
X114575000Y-47975000D03*
D59*
X114575000Y-54175000D03*
D60*
X114575000Y-43825000D03*
D59*
X103425000Y-58475000D03*
D61*
X101075000Y-43375000D03*
%TD*%
D10*
%TO.C,C6*%
X101375000Y-95500000D03*
X99825000Y-95500000D03*
%TD*%
D53*
%TO.C,H2*%
X54250000Y-44250000D03*
%TD*%
D21*
%TO.C,SCREEN1*%
X54225000Y-107250000D03*
D22*
X54225000Y-104750000D03*
X54225000Y-102250000D03*
X54225000Y-99750000D03*
%TD*%
D62*
%TO.C,SERVO1*%
X127250000Y-42420000D03*
D63*
X127250000Y-44960000D03*
X127250000Y-47500000D03*
%TD*%
D64*
%TO.C,BUZZER1*%
X54950000Y-87750000D03*
D65*
X62550000Y-87750000D03*
%TD*%
D29*
%TO.C,R16*%
X109300000Y-63725000D03*
X109300000Y-62075000D03*
%TD*%
D62*
%TO.C,SWD1*%
X119329095Y-42433290D03*
D63*
X119329095Y-44973290D03*
X119329095Y-47513290D03*
X119329095Y-50053290D03*
%TD*%
D33*
%TO.C,C19*%
X127400000Y-85000000D03*
X128950000Y-85000000D03*
%TD*%
D53*
%TO.C,H3*%
X54000000Y-116000000D03*
%TD*%
D10*
%TO.C,C3*%
X87750000Y-77250000D03*
X86200000Y-77250000D03*
%TD*%
D30*
%TO.C,C9*%
X80000000Y-72200000D03*
X80000000Y-70650000D03*
%TD*%
D29*
%TO.C,R20*%
X114000000Y-109300000D03*
X114000000Y-107650000D03*
%TD*%
D66*
%TO.C,RESET1*%
X83150000Y-71800000D03*
X83150000Y-66550000D03*
X86350000Y-71800000D03*
X86350000Y-66550000D03*
%TD*%
D54*
%TO.C,R8*%
X68475000Y-90800000D03*
X70125000Y-90800000D03*
%TD*%
D10*
%TO.C,C7*%
X101375000Y-91700000D03*
X99825000Y-91700000D03*
%TD*%
D67*
%TO.C,SENSOR_OUT1*%
X79305000Y-43245000D03*
X97105000Y-43245000D03*
D68*
X81255000Y-53195000D03*
X82465000Y-53195000D03*
X95155000Y-53195000D03*
X93945000Y-53195000D03*
D69*
X84625000Y-53195000D03*
X85645000Y-53195000D03*
X86665000Y-53195000D03*
X87685000Y-53195000D03*
X88705000Y-53195000D03*
X89725000Y-53195000D03*
X90745000Y-53195000D03*
X91765000Y-53195000D03*
%TD*%
D42*
%TO.C,SSR2*%
X125920000Y-113857500D03*
D43*
X131000000Y-113857500D03*
%TD*%
D29*
%TO.C,R4*%
X105700000Y-108225000D03*
X105700000Y-106575000D03*
%TD*%
%TO.C,R13*%
X88500000Y-71750000D03*
X88500000Y-70100000D03*
%TD*%
%TO.C,R11*%
X67100000Y-72725000D03*
X67100000Y-71075000D03*
%TD*%
M02*
