%TF.GenerationSoftware,KiCad,Pcbnew,8.0.6*%
%TF.CreationDate,2025-04-13T07:27:12+01:00*%
%TF.ProjectId,fabrizio_project _Mainboard,66616272-697a-4696-9f5f-70726f6a6563,rev?*%
%TF.SameCoordinates,Original*%
%TF.FileFunction,Legend,Bot*%
%TF.FilePolarity,Positive*%
%FSLAX46Y46*%
G04 Gerber Fmt 4.6, Leading zero omitted, Abs format (unit mm)*
G04 Created by KiCad (PCBNEW 8.0.6) date 2025-04-13 07:27:12*
%MOMM*%
%LPD*%
G01*
G04 APERTURE LIST*
%ADD10C,0.000000*%
%ADD11C,0.600000*%
G04 APERTURE END LIST*
D10*
G36*
X134215972Y-80176040D02*
G01*
X129153611Y-83139373D01*
X124091250Y-86102706D01*
X119081806Y-83165834D01*
X114063544Y-80228958D01*
X114037083Y-74284654D01*
X114021667Y-69081182D01*
X115651043Y-69081182D01*
X115744835Y-69144778D01*
X116001202Y-69302219D01*
X116930963Y-69857293D01*
X118298942Y-70663720D01*
X119963751Y-71638820D01*
X124250000Y-74143543D01*
X124250000Y-79250000D01*
X124256201Y-81228035D01*
X124273151Y-82843923D01*
X124298369Y-83930643D01*
X124313304Y-84223372D01*
X124329375Y-84321178D01*
X128606805Y-81834096D01*
X132804861Y-79373472D01*
X132787222Y-74249376D01*
X132760763Y-69134098D01*
X128439236Y-66602917D01*
X125373377Y-64820288D01*
X124432039Y-64282439D01*
X124073612Y-64089376D01*
X119822640Y-66567641D01*
X118193523Y-67524688D01*
X116863716Y-68317198D01*
X115970471Y-68863314D01*
X115730452Y-69018395D01*
X115651043Y-69081182D01*
X114021667Y-69081182D01*
X114019446Y-68331529D01*
X118967152Y-65429933D01*
X122508160Y-63373899D01*
X123618031Y-62742344D01*
X124064791Y-62501876D01*
X124105385Y-62513824D01*
X124195653Y-62555292D01*
X124514721Y-62720846D01*
X125001014Y-62986652D01*
X125633550Y-63340825D01*
X127253434Y-64266729D01*
X129206528Y-65403473D01*
X134207153Y-68331529D01*
X134215972Y-74258195D01*
X134215972Y-79373472D01*
X134215972Y-80176040D01*
G37*
D11*
X134908835Y-90521825D02*
X134658835Y-88521825D01*
X134694549Y-88807539D02*
X134533835Y-88664682D01*
X134533835Y-88664682D02*
X134230264Y-88521825D01*
X134230264Y-88521825D02*
X133801692Y-88521825D01*
X133801692Y-88521825D02*
X133533835Y-88664682D01*
X133533835Y-88664682D02*
X133426692Y-88950396D01*
X133426692Y-88950396D02*
X133623121Y-90521825D01*
X133426692Y-88950396D02*
X133248121Y-88664682D01*
X133248121Y-88664682D02*
X132944549Y-88521825D01*
X132944549Y-88521825D02*
X132515978Y-88521825D01*
X132515978Y-88521825D02*
X132248121Y-88664682D01*
X132248121Y-88664682D02*
X132140978Y-88950396D01*
X132140978Y-88950396D02*
X132337406Y-90521825D01*
X129623121Y-90521825D02*
X129426692Y-88950396D01*
X129426692Y-88950396D02*
X129533835Y-88664682D01*
X129533835Y-88664682D02*
X129801692Y-88521825D01*
X129801692Y-88521825D02*
X130373121Y-88521825D01*
X130373121Y-88521825D02*
X130676692Y-88664682D01*
X129605264Y-90378968D02*
X129908835Y-90521825D01*
X129908835Y-90521825D02*
X130623121Y-90521825D01*
X130623121Y-90521825D02*
X130890978Y-90378968D01*
X130890978Y-90378968D02*
X130998121Y-90093253D01*
X130998121Y-90093253D02*
X130962406Y-89807539D01*
X130962406Y-89807539D02*
X130783835Y-89521825D01*
X130783835Y-89521825D02*
X130480264Y-89378968D01*
X130480264Y-89378968D02*
X129765978Y-89378968D01*
X129765978Y-89378968D02*
X129462406Y-89236110D01*
X128194549Y-90521825D02*
X127944549Y-88521825D01*
X127819549Y-87521825D02*
X127980263Y-87664682D01*
X127980263Y-87664682D02*
X127855263Y-87807539D01*
X127855263Y-87807539D02*
X127694549Y-87664682D01*
X127694549Y-87664682D02*
X127819549Y-87521825D01*
X127819549Y-87521825D02*
X127855263Y-87807539D01*
X126515978Y-88521825D02*
X126765978Y-90521825D01*
X126551692Y-88807539D02*
X126390978Y-88664682D01*
X126390978Y-88664682D02*
X126087407Y-88521825D01*
X126087407Y-88521825D02*
X125658835Y-88521825D01*
X125658835Y-88521825D02*
X125390978Y-88664682D01*
X125390978Y-88664682D02*
X125283835Y-88950396D01*
X125283835Y-88950396D02*
X125480264Y-90521825D01*
X124051692Y-90521825D02*
X123676692Y-87521825D01*
X123819549Y-88664682D02*
X123515978Y-88521825D01*
X123515978Y-88521825D02*
X122944549Y-88521825D01*
X122944549Y-88521825D02*
X122676692Y-88664682D01*
X122676692Y-88664682D02*
X122551692Y-88807539D01*
X122551692Y-88807539D02*
X122444549Y-89093253D01*
X122444549Y-89093253D02*
X122551692Y-89950396D01*
X122551692Y-89950396D02*
X122730263Y-90236110D01*
X122730263Y-90236110D02*
X122890978Y-90378968D01*
X122890978Y-90378968D02*
X123194549Y-90521825D01*
X123194549Y-90521825D02*
X123765978Y-90521825D01*
X123765978Y-90521825D02*
X124033835Y-90378968D01*
X120908835Y-90521825D02*
X121176692Y-90378968D01*
X121176692Y-90378968D02*
X121301692Y-90236110D01*
X121301692Y-90236110D02*
X121408835Y-89950396D01*
X121408835Y-89950396D02*
X121301692Y-89093253D01*
X121301692Y-89093253D02*
X121123120Y-88807539D01*
X121123120Y-88807539D02*
X120962406Y-88664682D01*
X120962406Y-88664682D02*
X120658835Y-88521825D01*
X120658835Y-88521825D02*
X120230263Y-88521825D01*
X120230263Y-88521825D02*
X119962406Y-88664682D01*
X119962406Y-88664682D02*
X119837406Y-88807539D01*
X119837406Y-88807539D02*
X119730263Y-89093253D01*
X119730263Y-89093253D02*
X119837406Y-89950396D01*
X119837406Y-89950396D02*
X120015977Y-90236110D01*
X120015977Y-90236110D02*
X120176692Y-90378968D01*
X120176692Y-90378968D02*
X120480263Y-90521825D01*
X120480263Y-90521825D02*
X120908835Y-90521825D01*
X117337406Y-90521825D02*
X117140977Y-88950396D01*
X117140977Y-88950396D02*
X117248120Y-88664682D01*
X117248120Y-88664682D02*
X117515977Y-88521825D01*
X117515977Y-88521825D02*
X118087406Y-88521825D01*
X118087406Y-88521825D02*
X118390977Y-88664682D01*
X117319549Y-90378968D02*
X117623120Y-90521825D01*
X117623120Y-90521825D02*
X118337406Y-90521825D01*
X118337406Y-90521825D02*
X118605263Y-90378968D01*
X118605263Y-90378968D02*
X118712406Y-90093253D01*
X118712406Y-90093253D02*
X118676691Y-89807539D01*
X118676691Y-89807539D02*
X118498120Y-89521825D01*
X118498120Y-89521825D02*
X118194549Y-89378968D01*
X118194549Y-89378968D02*
X117480263Y-89378968D01*
X117480263Y-89378968D02*
X117176691Y-89236110D01*
X115908834Y-90521825D02*
X115658834Y-88521825D01*
X115730263Y-89093253D02*
X115551691Y-88807539D01*
X115551691Y-88807539D02*
X115390977Y-88664682D01*
X115390977Y-88664682D02*
X115087405Y-88521825D01*
X115087405Y-88521825D02*
X114801691Y-88521825D01*
X112765977Y-90521825D02*
X112390977Y-87521825D01*
X112748120Y-90378968D02*
X113051691Y-90521825D01*
X113051691Y-90521825D02*
X113623120Y-90521825D01*
X113623120Y-90521825D02*
X113890977Y-90378968D01*
X113890977Y-90378968D02*
X114015977Y-90236110D01*
X114015977Y-90236110D02*
X114123120Y-89950396D01*
X114123120Y-89950396D02*
X114015977Y-89093253D01*
X114015977Y-89093253D02*
X113837405Y-88807539D01*
X113837405Y-88807539D02*
X113676691Y-88664682D01*
X113676691Y-88664682D02*
X113373120Y-88521825D01*
X113373120Y-88521825D02*
X112801691Y-88521825D01*
X112801691Y-88521825D02*
X112533834Y-88664682D01*
X128623121Y-95351657D02*
X129444550Y-93923085D01*
X130337407Y-95351657D02*
X129962407Y-92351657D01*
X129962407Y-92351657D02*
X128819550Y-92351657D01*
X128819550Y-92351657D02*
X128551693Y-92494514D01*
X128551693Y-92494514D02*
X128426693Y-92637371D01*
X128426693Y-92637371D02*
X128319550Y-92923085D01*
X128319550Y-92923085D02*
X128373121Y-93351657D01*
X128373121Y-93351657D02*
X128551693Y-93637371D01*
X128551693Y-93637371D02*
X128712407Y-93780228D01*
X128712407Y-93780228D02*
X129015978Y-93923085D01*
X129015978Y-93923085D02*
X130158836Y-93923085D01*
X126176693Y-95208800D02*
X126480264Y-95351657D01*
X126480264Y-95351657D02*
X127051693Y-95351657D01*
X127051693Y-95351657D02*
X127319550Y-95208800D01*
X127319550Y-95208800D02*
X127426693Y-94923085D01*
X127426693Y-94923085D02*
X127283836Y-93780228D01*
X127283836Y-93780228D02*
X127105264Y-93494514D01*
X127105264Y-93494514D02*
X126801693Y-93351657D01*
X126801693Y-93351657D02*
X126230264Y-93351657D01*
X126230264Y-93351657D02*
X125962407Y-93494514D01*
X125962407Y-93494514D02*
X125855264Y-93780228D01*
X125855264Y-93780228D02*
X125890978Y-94065942D01*
X125890978Y-94065942D02*
X127355264Y-94351657D01*
X124801692Y-93351657D02*
X124337407Y-95351657D01*
X124337407Y-95351657D02*
X123373121Y-93351657D01*
X122337407Y-94208800D02*
X120051693Y-94208800D01*
X117569549Y-93780228D02*
X117158835Y-93923085D01*
X117158835Y-93923085D02*
X117033835Y-94065942D01*
X117033835Y-94065942D02*
X116926692Y-94351657D01*
X116926692Y-94351657D02*
X116980264Y-94780228D01*
X116980264Y-94780228D02*
X117158835Y-95065942D01*
X117158835Y-95065942D02*
X117319549Y-95208800D01*
X117319549Y-95208800D02*
X117623121Y-95351657D01*
X117623121Y-95351657D02*
X118765978Y-95351657D01*
X118765978Y-95351657D02*
X118390978Y-92351657D01*
X118390978Y-92351657D02*
X117390978Y-92351657D01*
X117390978Y-92351657D02*
X117123121Y-92494514D01*
X117123121Y-92494514D02*
X116998121Y-92637371D01*
X116998121Y-92637371D02*
X116890978Y-92923085D01*
X116890978Y-92923085D02*
X116926692Y-93208800D01*
X116926692Y-93208800D02*
X117105264Y-93494514D01*
X117105264Y-93494514D02*
X117265978Y-93637371D01*
X117265978Y-93637371D02*
X117569549Y-93780228D01*
X117569549Y-93780228D02*
X118569549Y-93780228D01*
M02*
