0
SECTION
2
HEADER
9
$INSUNITS
70
4
9
$ACADVER
1
AC1014
9
$HANDSEED
5
FFFF
0
ENDSEC
0
SECTION
2
TABLES
0
TABLE
2
VPORT
5
8
100
AcDbSymbolTable
0
ENDTAB
0
TABLE
2
LTYPE
5
5
100
AcDbSymbolTable
0
LTYPE
5
14
100
AcDbSymbolTableRecord
100
AcDbLinetypeTableRecord
2
BYBLOCK
70
0
0
LTYPE
5
15
100
AcDbSymbolTableRecord
100
AcDbLinetypeTableRecord
2
BYLAYER
70
0
0
LTYPE
5
16
100
AcDbSymbolTableRecord
100
AcDbLinetypeTableRecord
2
DASHED
70
0
3
Dashed __ __ __ __ __ __ __ __ __ __ __ __ __ _
72
65
73
2
40
0.75
49
0.5
74
0
49
-0.25
74
0
0
ENDTAB
0
TABLE
2
LAYER
5
2
100
AcDbSymbolTable
70
2
0
LAYER
5
50
100
AcDbSymbolTableRecord
100
AcDbLayerTableRecord
2
0
70
0
62
7
6
CONTINUOUS
0
ENDTAB
0
TABLE
2
STYLE
5
3
100
AcDbSymbolTable
70
1
0
STYLE
5
11
100
AcDbSymbolTableRecord
100
AcDbTextStyleTableRecord
2
STANDARD
70
0
0
ENDTAB
0
TABLE
2
VIEW
5
6
100
AcDbSymbolTable
70
0
0
ENDTAB
0
TABLE
2
UCS
5
7
100
AcDbSymbolTable
70
0
0
ENDTAB
0
TABLE
2
APPID
5
9
100
AcDbSymbolTable
70
2
0
APPID
5
12
100
AcDbSymbolTableRecord
100
AcDbRegAppTableRecord
2
ACAD
70
0
0
ENDTAB
0
TABLE
2
DIMSTYLE
5
A
100
AcDbSymbolTable
70
1
0
ENDTAB
0
TABLE
2
BLOCK_RECORD
5
1
100
AcDbSymbolTable
70
1
0
BLOCK_RECORD
5
1F
100
AcDbSymbolTableRecord
100
AcDbBlockTableRecord
2
*MODEL_SPACE
0
BLOCK_RECORD
5
1B
100
AcDbSymbolTableRecord
100
AcDbBlockTableRecord
2
*PAPER_SPACE
0
ENDTAB
0
ENDSEC
0
SECTION
2
BLOCKS
0
BLOCK
5
20
100
AcDbEntity
100
AcDbBlockBegin
2
*MODEL_SPACE
0
ENDBLK
5
21
100
AcDbEntity
100
AcDbBlockEnd
0
BLOCK
5
1C
100
AcDbEntity
100
AcDbBlockBegin
2
*PAPER_SPACE
0
ENDBLK
5
1D
100
AcDbEntity
100
AcDbBlockEnd
0
ENDSEC
0
SECTION
2
ENTITIES
0
LWPOLYLINE
5
100
100
AcDbEntity
8
OUTER_PROFILES
100
AcDbPolyline
90
38
70
1
43
0.0
10
563.26785493038722
20
531.33195529813054
42
-0.29147341958697104
10
565.0000001446806
20
528.61303193670221
10
565.00000005097661
20
12.172816209987118
42
-0.29147341958670603
10
563.26785483569915
20
9.453892849188561
10
563.25101165398326
20
9.4460387445704175
42
-0.31732571542889487
10
560.98117691975585
20
9.8549022263665869
42
0.53886591548896912
10
553.60785504664273
20
8.392920039101222
42
0.19571582110601496
10
553.60785501471162
20
5.0000000000095692
42
0.0064947184420326501
10
553.65332792783749
20
4.8923068043329172
42
-0.30876719655832707
10
553.23531792696247
20
2.6762473625799665
10
550.55907056438252
20
-3.1086244689504383e-14
10
0
20
0
10
-1.6673220946654674
20
1.6673220946654264
42
-0.46524100934698143
10
-1.4059982146639718
20
4.7158077825675697
42
0.025586010692785113
10
-1.0439733186998565
20
4.9999999401853259
42
0.21683125191076008
10
0.49999999999986011
20
8.3929199606520015
42
0.85468296780480491
10
-8.2816866109668226
20
9.7775355378381619
42
-0.3253046292841123
10
-10.184658438130587
20
8.3929201535686637
10
-16.000000000000156
20
8.3929201546241767
10
-20.39292006585903
20
8.3929201566803897
10
-24.392920063987091
20
12.392920158552108
10
-24.392919822496992
20
528.39292820510946
10
-20.39291982062494
20
532.39292820323749
10
-15.999999754765781
20
532.39292820118158
10
-10.184658193192897
20
532.39292820012611
42
-0.32530462932510351
10
-8.2816863662358493
20
531.00831281516491
42
0.8546829495280156
10
0.50000024523416253
20
532.39292819904881
42
0.21683125115211985
10
-1.043973127566088
20
535.785848176728
42
0.025586010594121883
10
-1.4059979701339631
20
536.07004039292519
42
-0.46524100940517321
10
-1.6673218504486642
20
539.11852608104789
10
2.4523224340100569e-07
20
540.7858481767297
10
550.55907065945655
20
540.78584817685612
10
553.23531802203672
20
538.1096008142772
42
-0.30876719655842971
10
553.65332802291186
20
535.89354137252371
42
0.0064947184414140078
10
553.60785510457367
20
535.78584817898059
42
0.19571582104467289
10
553.60785510029507
20
532.39292812205599
42
0.53886591729497668
10
560.98117701430181
20
530.93094592177965
42
-0.31732571542905597
10
563.25101174867837
20
531.33980940275285
0
CIRCLE
5
101
100
AcDbEntity
8
INTERIOR_PROFILES
100
AcDbCircle
10
-139.50000007605652
20
150.39292415054683
30
0
40
1.7500000000000071
210
0
220
0
230
-1
0
CIRCLE
5
102
100
AcDbEntity
8
INTERIOR_PROFILES
100
AcDbCircle
10
-79.500000054283362
20
30.392924161433385
30
0
40
1.7500000000000071
210
0
220
0
230
-1
0
CIRCLE
5
103
100
AcDbEntity
8
INTERIOR_PROFILES
100
AcDbCircle
10
-79.500000141375864
20
510.39292416143331
30
0
40
1.7500000000000426
210
0
220
0
230
-1
0
CIRCLE
5
104
100
AcDbEntity
8
INTERIOR_PROFILES
100
AcDbCircle
10
-169.50000009782963
20
270.39292414510351
30
0
40
1.7500000000000071
210
0
220
0
230
-1
0
CIRCLE
5
105
100
AcDbEntity
8
INTERIOR_PROFILES
100
AcDbCircle
10
-79.500000076056523
20
150.39292416143337
30
0
40
1.7500000000000071
210
0
220
0
230
-1
0
CIRCLE
5
106
100
AcDbEntity
8
INTERIOR_PROFILES
100
AcDbCircle
10
-389.50000014137584
20
510.39292410518618
30
0
40
1.7500000000000426
210
0
220
0
230
-1
0
CIRCLE
5
107
100
AcDbEntity
8
INTERIOR_PROFILES
100
AcDbCircle
10
-389.50000005428336
20
30.392924105186161
30
0
40
1.7500000000000071
210
0
220
0
230
-1
0
CIRCLE
5
108
100
AcDbEntity
8
INTERIOR_PROFILES
100
AcDbCircle
10
-169.50000005428336
20
30.392924145103528
30
0
40
1.7500000000000071
210
0
220
0
230
-1
0
CIRCLE
5
109
100
AcDbEntity
8
INTERIOR_PROFILES
100
AcDbCircle
10
-139.50000014137586
20
510.39292415054683
30
0
40
1.7500000000000426
210
0
220
0
230
-1
0
CIRCLE
5
110
100
AcDbEntity
8
INTERIOR_PROFILES
100
AcDbCircle
10
-79.500000119602774
20
390.39292416143331
30
0
40
1.7500000000000426
210
0
220
0
230
-1
0
CIRCLE
5
111
100
AcDbEntity
8
INTERIOR_PROFILES
100
AcDbCircle
10
-389.50000009782963
20
270.39292410518618
30
0
40
1.7500000000000071
210
0
220
0
230
-1
0
CIRCLE
5
112
100
AcDbEntity
8
INTERIOR_PROFILES
100
AcDbCircle
10
-389.5000001196027
20
390.39292410518618
30
0
40
1.7500000000000426
210
0
220
0
230
-1
0
CIRCLE
5
113
100
AcDbEntity
8
INTERIOR_PROFILES
100
AcDbCircle
10
-389.50000007605649
20
150.39292410518615
30
0
40
1.7500000000000071
210
0
220
0
230
-1
0
CIRCLE
5
114
100
AcDbEntity
8
INTERIOR_PROFILES
100
AcDbCircle
10
-169.50000007605652
20
150.39292414510354
30
0
40
1.7500000000000071
210
0
220
0
230
-1
0
CIRCLE
5
115
100
AcDbEntity
8
INTERIOR_PROFILES
100
AcDbCircle
10
-139.50000009782963
20
270.39292415054683
30
0
40
1.7500000000000071
210
0
220
0
230
-1
0
CIRCLE
5
116
100
AcDbEntity
8
INTERIOR_PROFILES
100
AcDbCircle
10
-169.50000011960276
20
390.39292414510356
30
0
40
1.7499999999999716
210
0
220
0
230
-1
0
CIRCLE
5
117
100
AcDbEntity
8
INTERIOR_PROFILES
100
AcDbCircle
10
-79.500000097829613
20
270.39292416143337
30
0
40
1.7500000000000071
210
0
220
0
230
-1
0
CIRCLE
5
118
100
AcDbEntity
8
INTERIOR_PROFILES
100
AcDbCircle
10
-139.50000005428336
20
30.392924150546826
30
0
40
1.7500000000000071
210
0
220
0
230
-1
0
CIRCLE
5
119
100
AcDbEntity
8
INTERIOR_PROFILES
100
AcDbCircle
10
-169.50000014137586
20
510.39292414510356
30
0
40
1.7499999999999716
210
0
220
0
230
-1
0
CIRCLE
5
120
100
AcDbEntity
8
INTERIOR_PROFILES
100
AcDbCircle
10
-139.50000011960276
20
390.39292415054683
30
0
40
1.7500000000000426
210
0
220
0
230
-1
0
CIRCLE
5
121
100
AcDbEntity
8
INTERIOR_PROFILES
100
AcDbCircle
10
-419.50000014137584
20
510.39292409974286
30
0
40
1.7500000000000426
210
0
220
0
230
-1
0
CIRCLE
5
122
100
AcDbEntity
8
INTERIOR_PROFILES
100
AcDbCircle
10
-449.5000001196027
20
390.39292409429959
30
0
40
1.7499999999999716
210
0
220
0
230
-1
0
CIRCLE
5
123
100
AcDbEntity
8
INTERIOR_PROFILES
100
AcDbCircle
10
-479.5000001196027
20
390.39292408885626
30
0
40
1.7499999999999716
210
0
220
0
230
-1
0
CIRCLE
5
124
100
AcDbEntity
8
INTERIOR_PROFILES
100
AcDbCircle
10
-109.50000005428336
20
30.392924155990091
30
0
40
1.7500000000000071
210
0
220
0
230
-1
0
CIRCLE
5
125
100
AcDbEntity
8
INTERIOR_PROFILES
100
AcDbCircle
10
-449.50000009782963
20
270.39292409429959
30
0
40
1.7500000000000071
210
0
220
0
230
-1
0
CIRCLE
5
126
100
AcDbEntity
8
INTERIOR_PROFILES
100
AcDbCircle
10
-449.50000014137584
20
510.39292409429959
30
0
40
1.7499999999999716
210
0
220
0
230
-1
0
CIRCLE
5
127
100
AcDbEntity
8
INTERIOR_PROFILES
100
AcDbCircle
10
-419.50000005428336
20
30.392924099742867
30
0
40
1.7500000000000071
210
0
220
0
230
-1
0
CIRCLE
5
128
100
AcDbEntity
8
INTERIOR_PROFILES
100
AcDbCircle
10
-479.50000009782963
20
270.39292408885632
30
0
40
1.7500000000000071
210
0
220
0
230
-1
0
CIRCLE
5
129
100
AcDbEntity
8
INTERIOR_PROFILES
100
AcDbCircle
10
-479.50000007605649
20
150.39292408885632
30
0
40
1.7500000000000071
210
0
220
0
230
-1
0
CIRCLE
5
130
100
AcDbEntity
8
INTERIOR_PROFILES
100
AcDbCircle
10
-109.50000014137586
20
510.39292415599004
30
0
40
1.7499999999999716
210
0
220
0
230
-1
0
CIRCLE
5
131
100
AcDbEntity
8
INTERIOR_PROFILES
100
AcDbCircle
10
-479.50000005428336
20
30.392924088856308
30
0
40
1.7500000000000071
210
0
220
0
230
-1
0
CIRCLE
5
132
100
AcDbEntity
8
INTERIOR_PROFILES
100
AcDbCircle
10
-419.50000009782963
20
270.39292409974286
30
0
40
1.7500000000000071
210
0
220
0
230
-1
0
CIRCLE
5
133
100
AcDbEntity
8
INTERIOR_PROFILES
100
AcDbCircle
10
-479.50000014137584
20
510.39292408885626
30
0
40
1.7499999999999716
210
0
220
0
230
-1
0
CIRCLE
5
134
100
AcDbEntity
8
INTERIOR_PROFILES
100
AcDbCircle
10
-109.50000011960277
20
390.39292415599004
30
0
40
1.7499999999999716
210
0
220
0
230
-1
0
CIRCLE
5
135
100
AcDbEntity
8
INTERIOR_PROFILES
100
AcDbCircle
10
-449.50000005428336
20
30.392924094299609
30
0
40
1.7500000000000071
210
0
220
0
230
-1
0
CIRCLE
5
136
100
AcDbEntity
8
INTERIOR_PROFILES
100
AcDbCircle
10
-109.50000007605652
20
150.3929241559901
30
0
40
1.7500000000000071
210
0
220
0
230
-1
0
CIRCLE
5
137
100
AcDbEntity
8
INTERIOR_PROFILES
100
AcDbCircle
10
-419.5000001196027
20
390.39292409974286
30
0
40
1.7500000000000426
210
0
220
0
230
-1
0
CIRCLE
5
138
100
AcDbEntity
8
INTERIOR_PROFILES
100
AcDbCircle
10
-109.50000009782961
20
270.39292415599004
30
0
40
1.7500000000000071
210
0
220
0
230
-1
0
CIRCLE
5
139
100
AcDbEntity
8
INTERIOR_PROFILES
100
AcDbCircle
10
-419.50000007605649
20
150.39292409974288
30
0
40
1.7500000000000071
210
0
220
0
230
-1
0
CIRCLE
5
140
100
AcDbEntity
8
INTERIOR_PROFILES
100
AcDbCircle
10
-449.50000007605649
20
150.39292409429959
30
0
40
1.7500000000000071
210
0
220
0
230
-1
0
LINE
5
141
100
AcDbEntity
8
BEND
100
AcDbLine
10
553.27583094514569
20
6.6964600511533359
30
3.7042188038141949e-08
11
0.16797598101895517
21
6.6964600511438022
31
3.7042314947613923e-08
0
LINE
5
142
100
AcDbEntity
8
BEND
100
AcDbLine
10
-17.696460032929693
20
8.3929201554183646
30
4.645765984791484e-08
11
-17.696459787695531
21
532.39292820197545
31
4.6457446685094105e-08
0
LINE
5
143
100
AcDbEntity
8
BEND
100
AcDbLine
10
0.16797617366570705
20
534.08938816277657
30
5.5871388178799261e-08
11
553.27583104021994
21
534.08938816290561
31
5.5871441088694378e-08
0
LINE
5
144
100
AcDbEntity
8
BEND_EXTENT
100
AcDbLine
10
553.60785510978974
20
532.39292809872882
30
4.645734929156347e-08
11
0.5000002452342045
21
532.39292819904881
31
4.6457384578074013e-08
0
LINE
5
145
100
AcDbEntity
8
BEND_EXTENT
100
AcDbLine
10
-15.999999754765781
20
532.39292820118158
30
4.6476210439848565e-08
11
-16.000000000000156
21
8.3929201546241927
31
4.6438551674853293e-08
0
LINE
5
146
100
AcDbEntity
8
BEND_EXTENT
100
AcDbLine
10
0.49999999999982947
20
8.3929201524888608
30
4.6457384578074027e-08
11
553.60785501471696
21
8.3929200520957252
31
4.6457349291563477e-08
0
LINE
5
147
100
AcDbEntity
8
BEND_EXTENT
100
AcDbLine
10
-1.0439731275661046
20
535.785848176728
30
6.5249921080079431e-08
11
553.60785510979019
21
535.78584817685737
31
6.524960593126266e-08
0
LINE
5
148
100
AcDbEntity
8
BEND_EXTENT
100
AcDbLine
10
553.60785501471162
20
5.0000000000095088
30
2.7674969195891352e-08
11
-1.0439733708123811
21
4.9999999999999547
31
2.7676065941717473e-08
0
LINE
5
149
100
AcDbEntity
8
BEND_EXTENT
100
AcDbLine
10
-19.392920065859443
20
8.3929201562123872
30
4.6457665463660985e-08
11
-19.39291982062521
21
532.39292820276944
31
4.6457452300840251e-08
0
ENDSEC
0
SECTION
2
OBJECTS
0
DICTIONARY
5
C
100
AcDbDictionary
3
ACAD_GROUP
350
D
3
ACAD_MLINESTYLE
350
17
0
DICTIONARY
5
D
100
AcDbDictionary
0
DICTIONARY
5
1A
330
C
100
AcDbDictionary
0
DICTIONARY
5
17
100
AcDbDictionary
0
ENDSEC
0
EOF
