0
SECTION
2
HEADER
9
$INSUNITS
70
4
9
$ACADVER
1
AC1014
9
$HANDSEED
5
FFFF
0
ENDSEC
0
SECTION
2
TABLES
0
TABLE
2
VPORT
5
8
100
AcDbSymbolTable
0
ENDTAB
0
TABLE
2
LTYPE
5
5
100
AcDbSymbolTable
0
LTYPE
5
14
100
AcDbSymbolTableRecord
100
AcDbLinetypeTableRecord
2
BYBLOCK
70
0
0
LTYPE
5
15
100
AcDbSymbolTableRecord
100
AcDbLinetypeTableRecord
2
BYLAYER
70
0
0
LTYPE
5
16
100
AcDbSymbolTableRecord
100
AcDbLinetypeTableRecord
2
DASHED
70
0
3
Dashed __ __ __ __ __ __ __ __ __ __ __ __ __ _
72
65
73
2
40
0.75
49
0.5
74
0
49
-0.25
74
0
0
ENDTAB
0
TABLE
2
LAYER
5
2
100
AcDbSymbolTable
70
2
0
LAYER
5
50
100
AcDbSymbolTableRecord
100
AcDbLayerTableRecord
2
0
70
0
62
7
6
CONTINUOUS
0
ENDTAB
0
TABLE
2
STYLE
5
3
100
AcDbSymbolTable
70
1
0
STYLE
5
11
100
AcDbSymbolTableRecord
100
AcDbTextStyleTableRecord
2
STANDARD
70
0
0
ENDTAB
0
TABLE
2
VIEW
5
6
100
AcDbSymbolTable
70
0
0
ENDTAB
0
TABLE
2
UCS
5
7
100
AcDbSymbolTable
70
0
0
ENDTAB
0
TABLE
2
APPID
5
9
100
AcDbSymbolTable
70
2
0
APPID
5
12
100
AcDbSymbolTableRecord
100
AcDbRegAppTableRecord
2
ACAD
70
0
0
ENDTAB
0
TABLE
2
DIMSTYLE
5
A
100
AcDbSymbolTable
70
1
0
ENDTAB
0
TABLE
2
BLOCK_RECORD
5
1
100
AcDbSymbolTable
70
1
0
BLOCK_RECORD
5
1F
100
AcDbSymbolTableRecord
100
AcDbBlockTableRecord
2
*MODEL_SPACE
0
BLOCK_RECORD
5
1B
100
AcDbSymbolTableRecord
100
AcDbBlockTableRecord
2
*PAPER_SPACE
0
ENDTAB
0
ENDSEC
0
SECTION
2
BLOCKS
0
BLOCK
5
20
100
AcDbEntity
100
AcDbBlockBegin
2
*MODEL_SPACE
0
ENDBLK
5
21
100
AcDbEntity
100
AcDbBlockEnd
0
BLOCK
5
1C
100
AcDbEntity
100
AcDbBlockBegin
2
*PAPER_SPACE
0
ENDBLK
5
1D
100
AcDbEntity
100
AcDbBlockEnd
0
ENDSEC
0
SECTION
2
ENTITIES
0
LWPOLYLINE
5
100
100
AcDbEntity
8
0
100
AcDbPolyline
90
8
70
1
43
0.0
10
118.53460969094664
20
137.19999999998979
10
125.7500000000795
20
137.19999999998979
42
-0.077089621940413203
10
128.77914942100261
20
136.73017595774215
10
130.17820323033467
20
135.92243186431352
10
130.17820323033465
20
127.92243186433697
10
123.25000000007947
20
123.92243186434871
10
116.32179676982426
20
127.92243186433701
10
116.32179676982429
20
135.92243186431352
0
LWPOLYLINE
5
101
100
AcDbEntity
8
0
100
AcDbPolyline
90
7
70
1
43
0.0
10
110.96539030921232
20
137.19999999998979
10
113.17820323033467
20
135.92243186431352
10
113.17820323033466
20
127.92243186433697
10
106.25000000007947
20
123.92243186434871
10
99.321796769824275
20
127.92243186433701
10
99.321796769824289
20
135.92243186431352
10
101.53460969094664
20
137.19999999998981
0
LWPOLYLINE
5
102
100
AcDbEntity
8
0
100
AcDbPolyline
90
7
70
1
43
0.0
10
93.965390309212324
20
137.19999999998979
10
96.178203230334688
20
135.92243186431352
10
96.178203230334674
20
127.92243186433697
10
89.250000000079481
20
123.92243186434871
10
82.321796769824275
20
127.92243186433701
10
82.321796769824289
20
135.92243186431352
10
84.534609690946652
20
137.19999999998981
0
LWPOLYLINE
5
103
100
AcDbEntity
8
0
100
AcDbPolyline
90
7
70
1
43
0.0
10
76.965390309212324
20
137.19999999998979
10
79.178203230334688
20
135.92243186431352
10
79.178203230334674
20
127.92243186433697
10
72.250000000079496
20
123.92243186434871
10
65.321796769824289
20
127.92243186433701
10
65.321796769824289
20
135.92243186431352
10
67.534609690946638
20
137.19999999998981
0
LWPOLYLINE
5
104
100
AcDbEntity
8
0
100
AcDbPolyline
90
7
70
1
43
0.0
10
59.965390309212339
20
137.19999999998979
10
62.178203230334702
20
135.92243186431352
10
62.178203230334674
20
127.92243186433697
10
55.250000000079488
20
123.92243186434871
10
48.321796769824289
20
127.922431864337
10
48.321796769824303
20
135.92243186431349
10
50.534609690946688
20
137.19999999998979
0
LWPOLYLINE
5
105
100
AcDbEntity
8
0
100
AcDbPolyline
90
8
70
1
43
0.0
10
42.96539030921231
20
137.19999999998979
10
45.178203230334702
20
135.92243186431349
10
45.178203230334681
20
127.92243186433694
10
38.250000000079496
20
123.92243186434868
10
31.321796769824303
20
127.92243186433697
10
31.321796769824314
20
135.92243186431349
10
32.720850579156405
20
136.73017595774218
42
-0.077089621940414424
10
35.750000000079503
20
137.19999999998979
0
LWPOLYLINE
5
106
100
AcDbEntity
8
0
100
AcDbPolyline
90
4
70
1
43
0.0
10
28.178203230334702
20
133.73206657020188
10
28.178203230334688
20
127.92243186433694
10
25.750000000079496
20
126.52050807570198
10
25.750000000079702
20
127.19999999998979
42
-0.17985546498589519
0
LWPOLYLINE
5
107
100
AcDbEntity
8
0
100
AcDbPolyline
90
6
70
1
43
0.0
10
25.750000000079499
20
122.89059892320782
10
29.750000000079517
20
125.19999999996634
10
36.678203230334717
20
121.19999999997803
10
36.678203230334695
20
113.20000000000151
10
29.75000000007951
20
109.20000000001326
10
25.750000000079499
20
111.50940107677178
0
LWPOLYLINE
5
108
100
AcDbEntity
8
0
100
AcDbPolyline
90
4
70
1
43
0.0
10
25.750000000079496
20
107.8794919242776
10
28.178203230334738
20
106.4775681356426
10
28.178203230334734
20
100.66793342977772
42
-0.17985546498589289
10
25.750000000079503
20
107.19999999998983
0
LWPOLYLINE
5
109
100
AcDbEntity
8
0
100
AcDbPolyline
90
8
70
1
43
0.0
10
32.720850579156405
20
97.669824042237465
10
31.321796769824321
20
98.477568135666118
10
31.321796769824338
20
106.47756813564264
10
38.250000000079545
20
110.4775681356309
10
45.178203230334745
20
106.4775681356426
10
45.178203230334702
20
98.477568135666075
10
42.965390309212381
20
97.199999999989828
10
35.750000000079503
20
97.199999999989814
42
-0.077089621940411746
0
LWPOLYLINE
5
110
100
AcDbEntity
8
0
100
AcDbPolyline
90
7
70
1
43
0.0
10
50.534609690946681
20
97.199999999989828
10
48.32179676982431
20
98.477568135666104
10
48.321796769824317
20
106.47756813564264
10
55.250000000079524
20
110.4775681356309
10
62.178203230334724
20
106.47756813564263
10
62.178203230334702
20
98.477568135666061
10
59.965390309212381
20
97.199999999989828
0
LWPOLYLINE
5
111
100
AcDbEntity
8
0
100
AcDbPolyline
90
7
70
1
43
0.0
10
67.534609690946667
20
97.199999999989828
10
65.321796769824303
20
98.477568135666104
10
65.321796769824317
20
106.47756813564266
10
72.250000000079524
20
110.4775681356309
10
79.178203230334731
20
106.4775681356426
10
79.178203230334688
20
98.477568135666075
10
76.965390309212367
20
97.199999999989828
0
LWPOLYLINE
5
112
100
AcDbEntity
8
0
100
AcDbPolyline
90
7
70
1
43
0.0
10
84.534609690946667
20
97.199999999989828
10
82.321796769824289
20
98.477568135666118
10
82.321796769824317
20
106.47756813564266
10
89.250000000079524
20
110.4775681356309
10
96.178203230334717
20
106.4775681356426
10
96.178203230334688
20
98.477568135666075
10
93.965390309212339
20
97.199999999989828
0
LWPOLYLINE
5
113
100
AcDbEntity
8
0
100
AcDbPolyline
90
7
70
1
43
0.0
10
101.53460969094667
20
97.199999999989828
10
99.321796769824289
20
98.477568135666118
10
99.321796769824303
20
106.47756813564266
10
106.25000000007951
20
110.4775681356309
10
113.17820323033472
20
106.4775681356426
10
113.17820323033467
20
98.477568135666075
10
110.96539030921234
20
97.199999999989828
0
LWPOLYLINE
5
114
100
AcDbEntity
8
0
100
AcDbPolyline
90
8
70
1
43
0.0
10
118.53460969094667
20
97.199999999989828
10
116.32179676982429
20
98.477568135666118
10
116.3217967698243
20
106.47756813564266
10
123.2500000000795
20
110.4775681356309
10
130.1782032303347
20
106.4775681356426
10
130.17820323033467
20
98.477568135666075
10
128.77914942100256
20
97.669824042237423
42
-0.07708962194042035
10
125.7500000000795
20
97.199999999989828
0
LWPOLYLINE
5
115
100
AcDbEntity
8
0
100
AcDbPolyline
90
4
70
1
43
0.0
10
133.32179676982429
20
100.66793342977772
10
133.32179676982429
20
106.47756813564264
10
135.7500000000795
20
107.8794919242776
10
135.75000000007873
20
107.19999999998983
42
-0.17985546498590574
0
LWPOLYLINE
5
116
100
AcDbEntity
8
0
100
AcDbPolyline
90
6
70
1
43
0.0
10
135.7500000000795
20
111.50940107677179
10
131.75000000007947
20
109.20000000001326
10
124.82179676982426
20
113.20000000000155
10
124.82179676982427
20
121.1999999999781
10
131.75000000007947
20
125.19999999996635
10
135.7500000000795
20
122.89059892320785
0
LWPOLYLINE
5
117
100
AcDbEntity
8
0
100
AcDbPolyline
90
6
70
1
43
0.0
10
121.67820323033469
20
121.19999999997805
10
121.67820323033466
20
113.20000000000151
10
114.75000000007947
20
109.20000000001326
10
107.82179676982426
20
113.20000000000155
10
107.82179676982429
20
121.1999999999781
10
114.7500000000795
20
125.19999999996635
0
LWPOLYLINE
5
118
100
AcDbEntity
8
0
100
AcDbPolyline
90
6
70
1
43
0.0
10
104.6782032303347
20
121.19999999997805
10
104.67820323033466
20
113.20000000000151
10
97.750000000079481
20
109.20000000001326
10
90.821796769824275
20
113.20000000000155
10
90.821796769824289
20
121.1999999999781
10
97.750000000079496
20
125.19999999996635
0
LWPOLYLINE
5
119
100
AcDbEntity
8
0
100
AcDbPolyline
90
6
70
1
43
0.0
10
53.678203230334709
20
121.19999999997805
10
53.678203230334688
20
113.20000000000151
10
46.750000000079496
20
109.20000000001325
10
39.821796769824296
20
113.20000000000155
10
39.821796769824317
20
121.19999999997808
10
46.750000000079517
20
125.19999999996631
0
LWPOLYLINE
5
120
100
AcDbEntity
8
0
100
AcDbPolyline
90
6
70
1
43
0.0
10
70.678203230334717
20
121.19999999997805
10
70.678203230334674
20
113.20000000000151
10
63.750000000079496
20
109.20000000001326
10
56.821796769824289
20
113.20000000000155
10
56.821796769824303
20
121.1999999999781
10
63.750000000079503
20
125.19999999996635
0
LWPOLYLINE
5
121
100
AcDbEntity
8
0
100
AcDbPolyline
90
6
70
1
43
0.0
10
80.750000000079481
20
125.19999999996635
10
87.678203230334688
20
121.19999999997808
10
87.678203230334674
20
113.20000000000151
10
80.750000000079481
20
109.20000000001326
10
73.821796769824303
20
113.20000000000157
10
73.821796769824303
20
121.1999999999781
0
LWPOLYLINE
5
122
100
AcDbEntity
8
0
100
AcDbPolyline
90
4
70
1
43
0.0
10
158.64800569308062
20
422.46000599239034
42
0.1588944760503315
10
143.22372055837056
20
432.85083034473251
10
143.22372055837053
20
424.55479081780794
10
152.7499999999994
20
419.05479081780783
0
LWPOLYLINE
5
123
100
AcDbEntity
8
0
100
AcDbPolyline
90
6
70
1
43
0.0
10
138.77627944162828
20
433.76137941544556
10
138.77627944162825
20
424.55479081780788
10
129.24999999999937
20
419.05479081780777
10
119.72372055837054
20
424.55479081780788
10
119.72372055837054
20
433.99999985100442
10
134.99999999999952
20
433.99999985100442
42
-0.031563171833087836
0
LWPOLYLINE
5
124
100
AcDbEntity
8
0
100
AcDbPolyline
90
5
70
1
43
0.0
10
115.27627944162829
20
433.99999985100442
10
115.27627944162828
20
424.55479081780777
10
105.7499999999994
20
419.05479081780777
10
96.223720558370559
20
424.55479081780788
10
96.223720558370559
20
433.99999985100442
0
LWPOLYLINE
5
125
100
AcDbEntity
8
0
100
AcDbPolyline
90
5
70
1
43
0.0
10
91.776279441628276
20
433.99999985100442
10
91.776279441628247
20
424.55479081780771
10
82.249999999999389
20
419.05479081780766
10
72.723720558370545
20
424.55479081780777
10
72.723720558370545
20
433.99999985100442
0
LWPOLYLINE
5
126
100
AcDbEntity
8
0
100
AcDbPolyline
90
5
70
1
43
0.0
10
68.276279441628262
20
433.99999985100442
10
68.276279441628262
20
424.55479081780766
10
58.749999999999403
20
419.0547908178076
10
49.223720558370552
20
424.55479081780771
10
49.223720558370552
20
433.99999985100442
0
LWPOLYLINE
5
127
100
AcDbEntity
8
0
100
AcDbPolyline
90
5
70
1
43
0.0
10
44.776279441628262
20
433.99999985100442
10
44.776279441628262
20
424.55479081780766
10
35.249999999999417
20
419.05479081780754
10
25.723720558370559
20
424.55479081780766
10
25.723720558370559
20
433.99999985100442
0
LWPOLYLINE
5
128
100
AcDbEntity
8
0
100
AcDbPolyline
90
5
70
1
43
0.0
10
21.276279441628262
20
433.99999985100442
10
21.276279441628251
20
424.5547908178076
10
11.749999999999407
20
419.05479081780749
10
2.2237205583705477
20
424.5547908178076
10
2.2237205583705544
20
433.99999985100442
0
LWPOLYLINE
5
129
100
AcDbEntity
8
0
100
AcDbPolyline
90
5
70
1
43
0.0
10
-2.2237205583717392
20
433.99999985100442
10
-2.2237205583717481
20
424.55479081780754
10
-11.750000000000593
20
419.05479081780749
10
-21.276279441629455
20
424.55479081780754
10
-21.276279441629448
20
433.99999985100442
0
LWPOLYLINE
5
130
100
AcDbEntity
8
0
100
AcDbPolyline
90
5
70
1
43
0.0
10
-25.723720558371742
20
433.99999985100442
10
-25.723720558371745
20
424.55479081780743
10
-35.25000000000059
20
419.05479081780743
10
-44.776279441629455
20
424.55479081780743
10
-44.776279441629455
20
433.99999985100442
0
LWPOLYLINE
5
131
100
AcDbEntity
8
0
100
AcDbPolyline
90
5
70
1
43
0.0
10
-49.223720558371753
20
433.99999985100442
10
-49.223720558371753
20
424.55479081780737
10
-58.750000000000604
20
419.05479081780732
10
-68.276279441629455
20
424.55479081780743
10
-68.276279441629441
20
433.99999985100442
0
LWPOLYLINE
5
132
100
AcDbEntity
8
0
100
AcDbPolyline
90
5
70
1
43
0.0
10
-72.723720558371738
20
433.99999985100442
10
-72.723720558371738
20
424.55479081780732
10
-82.250000000000597
20
419.05479081780726
10
-91.77627944162947
20
424.55479081780737
10
-91.77627944162947
20
433.99999985100442
0
LWPOLYLINE
5
133
100
AcDbEntity
8
0
100
AcDbPolyline
90
5
70
1
43
0.0
10
-96.223720558371738
20
433.99999985100442
10
-96.223720558371753
20
424.55479081780732
10
-105.75000000000061
20
419.0547908178072
10
-115.27627944162946
20
424.55479081780732
10
-115.27627944162946
20
433.99999985100442
0
LWPOLYLINE
5
134
100
AcDbEntity
8
0
100
AcDbPolyline
90
6
70
1
43
0.0
10
-119.72372055837175
20
433.99999985100442
10
-119.72372055837175
20
424.5547908178072
10
-129.25000000000063
20
419.0547908178072
10
-138.77627944162947
20
424.5547908178072
10
-138.77627944162947
20
433.76137941544556
42
-0.031563171833099278
10
-135.00000000000068
20
433.99999985100442
0
LWPOLYLINE
5
135
100
AcDbEntity
8
0
100
AcDbPolyline
90
4
70
1
43
0.0
10
-143.22372055837172
20
432.8508303447324
10
-143.22372055837175
20
424.55479081780715
10
-152.7500000000006
20
419.05479081780709
10
-158.64800569307974
20
422.46000599238783
42
-0.1588944760503864
0
LWPOLYLINE
5
136
100
AcDbEntity
8
0
100
AcDbPolyline
90
6
70
1
43
0.0
10
-161.12189775971714
20
418.75284559109514
10
-154.97372055837172
20
415.20319382887294
10
-154.97372055837172
20
404.20319382887294
10
-164.5000000000006
20
398.70319382887283
10
-165.00000000000051
20
398.99186896346754
10
-164.99999999999562
20
403.99999985100465
42
-0.12924035461184225
0
LWPOLYLINE
5
137
100
AcDbEntity
8
0
100
AcDbPolyline
90
6
70
1
43
0.0
10
-165.00000000000051
20
379.71132471640937
10
-164.50000000000051
20
379.99999985100419
10
-154.97372055837167
20
374.49999985100425
10
-154.9737205583717
20
363.49999985100425
10
-164.50000000000051
20
357.99999985100413
10
-165.00000000000051
20
358.28867498559896
0
LWPOLYLINE
5
138
100
AcDbEntity
8
0
100
AcDbPolyline
90
6
70
1
43
0.0
10
-165.00000000000045
20
339.00813073854067
10
-164.50000000000048
20
339.2968058731355
10
-154.97372055837164
20
333.7968058731355
10
-154.97372055837167
20
322.7968058731355
10
-161.12189775971677
20
319.2471541109133
42
-0.12924035461183028
10
-165.00000000000051
20
333.99999985100459
0
LWPOLYLINE
5
139
100
AcDbEntity
8
0
100
AcDbPolyline
90
4
70
1
43
0.0
10
-158.64800569308167
20
315.53999370961884
10
-152.75000000000051
20
318.94520888420124
10
-143.22372055837167
20
313.44520888420129
10
-143.22372055837172
20
305.14916935727638
42
-0.15889447605033016
0
LWPOLYLINE
5
140
100
AcDbEntity
8
0
100
AcDbPolyline
90
6
70
1
43
0.0
10
-138.77627944162933
20
304.23862028656356
10
-138.77627944162933
20
313.44520888420124
10
-129.25000000000048
20
318.94520888420129
10
-119.72372055837164
20
313.44520888420141
10
-119.72372055837164
20
303.99999985100459
10
-135.00000000000054
20
303.99999985100453
42
-0.031563171833088058
0
LWPOLYLINE
5
141
100
AcDbEntity
8
0
100
AcDbPolyline
90
5
70
1
43
0.0
10
-115.27627944162936
20
303.99999985100459
10
-115.27627944162936
20
313.44520888420129
10
-105.75000000000051
20
318.94520888420141
10
-96.223720558371667
20
313.44520888420141
10
-96.223720558371667
20
303.99999985100459
0
LWPOLYLINE
5
142
100
AcDbEntity
8
0
100
AcDbPolyline
90
5
70
1
43
0.0
10
-91.776279441629342
20
303.99999985100459
10
-91.776279441629342
20
313.44520888420135
10
-82.250000000000497
20
318.94520888420141
10
-72.723720558371653
20
313.44520888420152
10
-72.723720558371653
20
303.99999985100459
0
LWPOLYLINE
5
143
100
AcDbEntity
8
0
100
AcDbPolyline
90
5
70
1
43
0.0
10
-68.276279441629342
20
303.99999985100459
10
-68.276279441629342
20
313.44520888420141
10
-58.750000000000497
20
318.94520888420152
10
-49.223720558371653
20
313.44520888420158
10
-49.22372055837166
20
303.99999985100459
0
LWPOLYLINE
5
144
100
AcDbEntity
8
0
100
AcDbPolyline
90
5
70
1
43
0.0
10
-44.776279441629342
20
303.99999985100459
10
-44.776279441629342
20
313.44520888420152
10
-35.250000000000512
20
318.94520888420158
10
-25.723720558371653
20
313.44520888420158
10
-25.723720558371667
20
303.99999985100459
0
LWPOLYLINE
5
145
100
AcDbEntity
8
0
100
AcDbPolyline
90
5
70
1
43
0.0
10
-21.276279441629345
20
303.99999985100459
10
-21.276279441629342
20
313.44520888420152
10
-11.750000000000501
20
318.94520888420163
10
-2.2237205583716468
20
313.44520888420169
10
-2.2237205583716579
20
303.99999985100459
0
LWPOLYLINE
5
146
100
AcDbEntity
8
0
100
AcDbPolyline
90
5
70
1
43
0.0
10
2.2237205583706565
20
303.99999985100459
10
2.2237205583706654
20
313.44520888420158
10
11.749999999999501
20
318.94520888420169
10
21.276279441628354
20
313.44520888420169
10
21.27627944162834
20
303.99999985100459
0
LWPOLYLINE
5
147
100
AcDbEntity
8
0
100
AcDbPolyline
90
5
70
1
43
0.0
10
25.723720558370651
20
303.99999985100459
10
25.723720558370662
20
313.44520888420169
10
35.249999999999503
20
318.94520888420169
10
44.776279441628347
20
313.44520888420175
10
44.776279441628347
20
303.99999985100459
0
LWPOLYLINE
5
148
100
AcDbEntity
8
0
100
AcDbPolyline
90
5
70
1
43
0.0
10
49.223720558370665
20
303.99999985100459
10
49.223720558370673
20
313.44520888420175
10
58.749999999999503
20
318.9452088842018
10
68.276279441628361
20
313.44520888420186
10
68.276279441628347
20
303.99999985100459
0
LWPOLYLINE
5
149
100
AcDbEntity
8
0
100
AcDbPolyline
90
5
70
1
43
0.0
10
72.723720558370658
20
303.99999985100459
10
72.723720558370673
20
313.44520888420175
10
82.249999999999517
20
318.94520888420186
10
91.776279441628347
20
313.44520888420186
10
91.776279441628361
20
303.99999985100459
0
LWPOLYLINE
5
150
100
AcDbEntity
8
0
100
AcDbPolyline
90
5
70
1
43
0.0
10
96.223720558370673
20
303.99999985100459
10
96.223720558370673
20
313.44520888420186
10
105.74999999999952
20
318.94520888420186
10
115.27627944162836
20
313.44520888420197
10
115.27627944162836
20
303.99999985100459
0
LWPOLYLINE
5
151
100
AcDbEntity
8
0
100
AcDbPolyline
90
6
70
1
43
0.0
10
119.72372055837064
20
303.99999985100459
10
119.72372055837064
20
313.44520888420192
10
129.24999999999952
20
318.94520888420197
10
138.77627944162833
20
313.44520888420203
10
138.77627944162833
20
304.2386202865635
42
-0.031563171833096169
10
134.99999999999949
20
303.99999985100459
0
LWPOLYLINE
5
152
100
AcDbEntity
8
0
100
AcDbPolyline
90
4
70
1
43
0.0
10
143.22372055837067
20
305.14916935727666
10
143.22372055837067
20
313.44520888420197
10
152.74999999999952
20
318.94520888420203
10
158.64800569307928
20
315.53999370962083
42
-0.15889447605037091
0
LWPOLYLINE
5
153
100
AcDbEntity
8
0
100
AcDbPolyline
90
6
70
1
43
0.0
10
161.12189775971612
20
319.24715411091398
10
154.97372055837064
20
322.79680587313629
10
154.97372055837064
20
333.79680587313624
10
164.49999999999955
20
339.29680587313624
10
164.99999999999946
20
339.00813073854152
10
164.99999999999599
20
333.99999985100459
42
-0.12924035461183592
0
LWPOLYLINE
5
154
100
AcDbEntity
8
0
100
AcDbPolyline
90
6
70
1
43
0.0
10
164.99999999999946
20
358.28867498559981
10
164.49999999999946
20
357.99999985100499
10
154.97372055837062
20
363.49999985100504
10
154.97372055837059
20
374.49999985100499
10
164.49999999999946
20
379.99999985100499
10
164.99999999999946
20
379.71132471641022
0
LWPOLYLINE
5
155
100
AcDbEntity
8
0
100
AcDbPolyline
90
6
70
1
43
0.0
10
107.97372055837057
20
415.20319382887351
10
117.49999999999943
20
420.70319382887357
10
127.02627944162828
20
415.20319382887351
10
127.02627944162829
20
404.20319382887357
10
117.49999999999943
20
398.70319382887351
10
107.97372055837057
20
404.20319382887357
0
LWPOLYLINE
5
156
100
AcDbEntity
8
0
100
AcDbPolyline
90
6
70
1
43
0.0
10
131.47372055837062
20
374.49999985100487
10
140.99999999999946
20
379.99999985100493
10
150.52627944162833
20
374.49999985100499
10
150.52627944162828
20
363.49999985100499
10
140.99999999999943
20
357.99999985100493
10
131.47372055837062
20
363.49999985100499
0
LWPOLYLINE
5
157
100
AcDbEntity
8
0
100
AcDbPolyline
90
6
70
1
43
0.0
10
131.47372055837056
20
415.20319382887357
10
140.9999999999994
20
420.70319382887362
10
150.52627944162825
20
415.20319382887357
10
150.52627944162825
20
404.20319382887362
10
140.9999999999994
20
398.70319382887362
10
131.47372055837056
20
404.20319382887362
0
LWPOLYLINE
5
158
100
AcDbEntity
8
0
100
AcDbPolyline
90
6
70
1
43
0.0
10
-80.02627944162937
20
333.79680587313567
10
-70.500000000000526
20
339.29680587313567
10
-60.97372055837166
20
333.79680587313578
10
-60.973720558371681
20
322.79680587313578
10
-70.500000000000526
20
317.29680587313572
10
-80.026279441629356
20
322.79680587313572
0
LWPOLYLINE
5
159
100
AcDbEntity
8
0
100
AcDbPolyline
90
6
70
1
43
0.0
10
143.22372055837062
20
354.14840286207061
10
152.74999999999949
20
359.64840286207061
10
162.27627944162833
20
354.14840286207072
10
162.27627944162833
20
343.14840286207072
10
152.74999999999949
20
337.64840286207061
10
143.22372055837062
20
343.14840286207061
0
LWPOLYLINE
5
160
100
AcDbEntity
8
0
100
AcDbPolyline
90
6
70
1
43
0.0
10
-91.776279441629427
20
394.85159683993862
10
-82.250000000000583
20
400.35159683993868
10
-72.723720558371724
20
394.85159683993868
10
-72.723720558371724
20
383.85159683993868
10
-82.250000000000568
20
378.35159683993868
10
-91.776279441629427
20
383.85159683993868
0
LWPOLYLINE
5
161
100
AcDbEntity
8
0
100
AcDbPolyline
90
6
70
1
43
0.0
10
-21.276279441629406
20
394.85159683993879
10
-11.750000000000558
20
400.35159683993891
10
-2.2237205583717046
20
394.85159683993891
10
-2.223720558371717
20
383.85159683993891
10
-11.750000000000565
20
378.35159683993885
10
-21.276279441629413
20
383.85159683993885
0
LWPOLYLINE
5
162
100
AcDbEntity
8
0
100
AcDbPolyline
90
6
70
1
43
0.0
10
-150.52627944162936
20
333.79680587313544
10
-141.00000000000051
20
339.2968058731355
10
-131.47372055837164
20
333.79680587313567
10
-131.47372055837164
20
322.79680587313555
10
-141.00000000000054
20
317.2968058731355
10
-150.52627944162936
20
322.7968058731355
0
LWPOLYLINE
5
163
100
AcDbEntity
8
0
100
AcDbPolyline
90
6
70
1
43
0.0
10
-138.77627944162941
20
394.85159683993851
10
-129.25000000000057
20
400.35159683993862
10
-119.72372055837171
20
394.85159683993862
10
-119.7237205583717
20
383.85159683993862
10
-129.25000000000057
20
378.35159683993857
10
-138.77627944162941
20
383.85159683993857
0
LWPOLYLINE
5
164
100
AcDbEntity
8
0
100
AcDbPolyline
90
6
70
1
43
0.0
10
-33.026279441629427
20
415.20319382887317
10
-23.500000000000576
20
420.70319382887317
10
-13.973720558371721
20
415.20319382887322
10
-13.973720558371729
20
404.20319382887328
10
-23.500000000000576
20
398.70319382887317
10
-33.026279441629434
20
404.20319382887322
0
LWPOLYLINE
5
165
100
AcDbEntity
8
0
100
AcDbPolyline
90
6
70
1
43
0.0
10
-150.52627944162941
20
374.49999985100419
10
-141.00000000000057
20
379.99999985100425
10
-131.4737205583717
20
374.49999985100425
10
-131.47372055837172
20
363.49999985100425
10
-141.00000000000057
20
357.99999985100419
10
-150.52627944162941
20
363.49999985100425
0
LWPOLYLINE
5
166
100
AcDbEntity
8
0
100
AcDbPolyline
90
6
70
1
43
0.0
10
37.473720558370609
20
374.49999985100465
10
46.99999999999946
20
379.99999985100476
10
56.526279441628304
20
374.49999985100476
10
56.526279441628304
20
363.49999985100476
10
46.999999999999453
20
357.9999998510047
10
37.473720558370609
20
363.49999985100465
0
LWPOLYLINE
5
167
100
AcDbEntity
8
0
100
AcDbPolyline
90
6
70
1
43
0.0
10
13.973720558370641
20
333.7968058731359
10
23.499999999999485
20
339.2968058731359
10
33.026279441628347
20
333.79680587313601
10
33.026279441628333
20
322.79680587313601
10
23.499999999999485
20
317.29680587313595
10
13.973720558370637
20
322.7968058731359
0
LWPOLYLINE
5
168
100
AcDbEntity
8
0
100
AcDbPolyline
90
6
70
1
43
0.0
10
37.473720558370587
20
415.20319382887328
10
46.999999999999446
20
420.7031938288734
10
56.52627944162829
20
415.2031938288734
10
56.526279441628269
20
404.2031938288734
10
46.999999999999424
20
398.7031938288734
10
37.473720558370573
20
404.20319382887334
0
LWPOLYLINE
5
169
100
AcDbEntity
8
0
100
AcDbPolyline
90
6
70
1
43
0.0
10
72.723720558370601
20
394.85159683993908
10
82.249999999999446
20
400.35159683993913
10
91.77627944162829
20
394.85159683993913
10
91.776279441628304
20
383.85159683993913
10
82.249999999999432
20
378.35159683993908
10
72.723720558370587
20
383.85159683993913
0
LWPOLYLINE
5
170
100
AcDbEntity
8
0
100
AcDbPolyline
90
6
70
1
43
0.0
10
-91.776279441629384
20
354.14840286207004
10
-82.250000000000526
20
359.64840286207004
10
-72.723720558371681
20
354.1484028620701
10
-72.723720558371681
20
343.1484028620701
10
-82.250000000000526
20
337.64840286207004
10
-91.776279441629384
20
343.14840286207004
0
LWPOLYLINE
5
171
100
AcDbEntity
8
0
100
AcDbPolyline
90
6
70
1
43
0.0
10
-80.026279441629441
20
415.203193828873
10
-70.500000000000568
20
420.70319382887311
10
-60.97372055837171
20
415.20319382887305
10
-60.973720558371731
20
404.20319382887317
10
-70.500000000000583
20
398.70319382887311
10
-80.026279441629413
20
404.20319382887305
0
LWPOLYLINE
5
172
100
AcDbEntity
8
0
100
AcDbPolyline
90
6
70
1
43
0.0
10
-103.52627944162946
20
415.20319382887294
10
-94.000000000000597
20
420.70319382887305
10
-84.473720558371753
20
415.203193828873
10
-84.473720558371724
20
404.20319382887305
10
-94.000000000000597
20
398.70319382887305
10
-103.52627944162946
20
404.203193828873
0
LWPOLYLINE
5
173
100
AcDbEntity
8
0
100
AcDbPolyline
90
6
70
1
43
0.0
10
107.97372055837064
20
333.79680587313612
10
117.49999999999949
20
339.29680587313618
10
127.02627944162835
20
333.79680587313629
10
127.02627944162833
20
322.79680587313624
10
117.49999999999949
20
317.29680587313612
10
107.97372055837064
20
322.79680587313624
0
LWPOLYLINE
5
174
100
AcDbEntity
8
0
100
AcDbPolyline
90
6
70
1
43
0.0
10
-127.02627944162938
20
333.7968058731355
10
-117.50000000000054
20
339.29680587313555
10
-107.97372055837167
20
333.79680587313572
10
-107.97372055837167
20
322.79680587313567
10
-117.50000000000055
20
317.29680587313555
10
-127.02627944162938
20
322.79680587313555
0
LWPOLYLINE
5
175
100
AcDbEntity
8
0
100
AcDbPolyline
90
6
70
1
43
0.0
10
37.473720558370644
20
333.79680587313595
10
46.999999999999474
20
339.29680587313601
10
56.52627944162834
20
333.79680587313607
10
56.52627944162834
20
322.79680587313607
10
46.999999999999488
20
317.29680587313601
10
37.473720558370644
20
322.79680587313601
0
LWPOLYLINE
5
176
100
AcDbEntity
8
0
100
AcDbPolyline
90
6
70
1
43
0.0
10
119.72372055837062
20
354.1484028620705
10
129.24999999999949
20
359.64840286207055
10
138.77627944162833
20
354.14840286207067
10
138.77627944162833
20
343.14840286207067
10
129.24999999999949
20
337.64840286207055
10
119.72372055837062
20
343.14840286207061
0
LWPOLYLINE
5
177
100
AcDbEntity
8
0
100
AcDbPolyline
90
6
70
1
43
0.0
10
25.723720558370594
20
394.85159683993891
10
35.249999999999446
20
400.35159683993896
10
44.776279441628297
20
394.85159683993908
10
44.776279441628276
20
383.85159683993902
10
35.249999999999432
20
378.35159683993891
10
25.723720558370594
20
383.85159683993896
0
LWPOLYLINE
5
178
100
AcDbEntity
8
0
100
AcDbPolyline
90
6
70
1
43
0.0
10
-9.5262794416293577
20
333.79680587313578
10
-5.1736392947532295e-13
20
339.29680587313584
10
9.5262794416283434
20
333.79680587313601
10
9.5262794416283292
20
322.7968058731359
10
-5.2069459854919842e-13
20
317.29680587313584
10
-9.5262794416293648
20
322.79680587313584
0
LWPOLYLINE
5
179
100
AcDbEntity
8
0
100
AcDbPolyline
90
6
70
1
43
0.0
10
25.723720558370626
20
354.14840286207033
10
35.249999999999474
20
359.64840286207038
10
44.776279441628333
20
354.14840286207044
10
44.776279441628319
20
343.14840286207044
10
35.24999999999946
20
337.64840286207033
10
25.72372055837063
20
343.14840286207027
0
LWPOLYLINE
5
180
100
AcDbEntity
8
0
100
AcDbPolyline
90
6
70
1
43
0.0
10
84.473720558370616
20
374.49999985100476
10
93.99999999999946
20
379.99999985100482
10
103.52627944162832
20
374.49999985100487
10
103.5262794416283
20
363.49999985100487
10
93.99999999999946
20
357.99999985100476
10
84.473720558370616
20
363.49999985100482
0
LWPOLYLINE
5
181
100
AcDbEntity
8
0
100
AcDbPolyline
90
6
70
1
43
0.0
10
96.223720558370587
20
394.85159683993913
10
105.74999999999943
20
400.35159683993919
10
115.27627944162829
20
394.85159683993919
10
115.2762794416283
20
383.85159683993919
10
105.74999999999945
20
378.35159683993913
10
96.223720558370587
20
383.85159683993919
0
LWPOLYLINE
5
182
100
AcDbEntity
8
0
100
AcDbPolyline
90
6
70
1
43
0.0
10
-21.276279441629377
20
354.14840286207016
10
-11.750000000000529
20
359.64840286207027
10
-2.2237205583716757
20
354.14840286207033
10
-2.2237205583716868
20
343.14840286207027
10
-11.750000000000538
20
337.64840286207016
10
-21.276279441629377
20
343.14840286207021
0
LWPOLYLINE
5
183
100
AcDbEntity
8
0
100
AcDbPolyline
90
6
70
1
43
0.0
10
-33.026279441629363
20
333.79680587313578
10
-23.500000000000515
20
339.29680587313584
10
-13.97372055837166
20
333.79680587313595
10
-13.973720558371671
20
322.79680587313584
10
-23.500000000000519
20
317.29680587313578
10
-33.026279441629363
20
322.79680587313584
0
LWPOLYLINE
5
184
100
AcDbEntity
8
0
100
AcDbPolyline
90
6
70
1
43
0.0
10
-68.276279441629384
20
354.1484028620701
10
-58.750000000000533
20
359.64840286207016
10
-49.223720558371689
20
354.14840286207016
10
-49.223720558371696
20
343.14840286207016
10
-58.750000000000554
20
337.6484028620701
10
-68.276279441629384
20
343.1484028620701
0
LWPOLYLINE
5
185
100
AcDbEntity
8
0
100
AcDbPolyline
90
6
70
1
43
0.0
10
-162.27627944162941
20
394.85159683993845
10
-152.7500000000006
20
400.35159683993857
10
-143.22372055837172
20
394.85159683993857
10
-143.22372055837172
20
383.85159683993857
10
-152.75000000000057
20
378.35159683993851
10
-162.27627944162941
20
383.85159683993845
0
LWPOLYLINE
5
186
100
AcDbEntity
8
0
100
AcDbPolyline
90
6
70
1
43
0.0
10
-115.27627944162938
20
354.14840286206993
10
-105.75000000000053
20
359.64840286206999
10
-96.223720558371681
20
354.1484028620701
10
-96.223720558371681
20
343.1484028620701
10
-105.75000000000053
20
337.64840286206999
10
-115.27627944162938
20
343.14840286207004
0
LWPOLYLINE
5
187
100
AcDbEntity
8
0
100
AcDbPolyline
90
6
70
1
43
0.0
10
-115.27627944162943
20
394.85159683993857
10
-105.75000000000057
20
400.35159683993862
10
-96.223720558371724
20
394.85159683993868
10
-96.223720558371696
20
383.85159683993868
10
-105.75000000000058
20
378.35159683993857
10
-115.27627944162943
20
383.85159683993862
0
LWPOLYLINE
5
188
100
AcDbEntity
8
0
100
AcDbPolyline
90
6
70
1
43
0.0
10
-56.526279441629384
20
374.49999985100442
10
-47.00000000000054
20
379.99999985100442
10
-37.473720558371696
20
374.49999985100453
10
-37.473720558371703
20
363.49999985100453
10
-47.000000000000554
20
357.99999985100442
10
-56.526279441629406
20
363.49999985100447
0
LWPOLYLINE
5
189
100
AcDbEntity
8
0
100
AcDbPolyline
90
6
70
1
43
0.0
10
-138.77627944162941
20
354.14840286206987
10
-129.25000000000054
20
359.64840286206999
10
-119.7237205583717
20
354.14840286207004
10
-119.7237205583717
20
343.14840286207004
10
-129.25000000000054
20
337.64840286206993
10
-138.77627944162941
20
343.14840286206993
0
LWPOLYLINE
5
190
100
AcDbEntity
8
0
100
AcDbPolyline
90
6
70
1
43
0.0
10
-80.026279441629399
20
374.4999998510043
10
-70.500000000000554
20
379.99999985100442
10
-60.973720558371696
20
374.49999985100447
10
-60.97372055837171
20
363.49999985100447
10
-70.500000000000554
20
357.99999985100442
10
-80.026279441629384
20
363.49999985100442
0
LWPOLYLINE
5
191
100
AcDbEntity
8
0
100
AcDbPolyline
90
6
70
1
43
0.0
10
-5.440092820663267e-13
20
379.99999985100459
10
9.5262794416283114
20
374.49999985100465
10
9.5262794416282972
20
363.49999985100459
10
-5.5067062021407764e-13
20
357.99999985100453
10
-9.5262794416293968
20
363.49999985100459
10
-9.5262794416293914
20
374.49999985100453
0
LWPOLYLINE
5
192
100
AcDbEntity
8
0
100
AcDbPolyline
90
6
70
1
43
0.0
10
-56.526279441629427
20
415.20319382887305
10
-47.000000000000583
20
420.70319382887311
10
-37.473720558371724
20
415.20319382887317
10
-37.473720558371731
20
404.20319382887322
10
-47.000000000000583
20
398.70319382887311
10
-56.526279441629434
20
404.20319382887317
0
LWPOLYLINE
5
193
100
AcDbEntity
8
0
100
AcDbPolyline
90
6
70
1
43
0.0
10
-127.02627944162944
20
415.20319382887288
10
-117.50000000000058
20
420.703193828873
10
-107.97372055837174
20
415.20319382887294
10
-107.97372055837172
20
404.203193828873
10
-117.50000000000058
20
398.70319382887294
10
-127.02627944162944
20
404.20319382887294
0
LWPOLYLINE
5
194
100
AcDbEntity
8
0
100
AcDbPolyline
90
6
70
1
43
0.0
10
-68.276279441629413
20
394.85159683993868
10
-58.750000000000568
20
400.35159683993874
10
-49.22372055837171
20
394.85159683993879
10
-49.223720558371724
20
383.85159683993879
10
-58.750000000000568
20
378.35159683993874
10
-68.276279441629413
20
383.85159683993879
0
LWPOLYLINE
5
195
100
AcDbEntity
8
0
100
AcDbPolyline
90
6
70
1
43
0.0
10
-44.776279441629406
20
394.85159683993868
10
-35.250000000000561
20
400.35159683993879
10
-25.723720558371706
20
394.85159683993885
10
-25.723720558371717
20
383.85159683993885
10
-35.250000000000561
20
378.35159683993879
10
-44.776279441629406
20
383.85159683993879
0
LWPOLYLINE
5
196
100
AcDbEntity
8
0
100
AcDbPolyline
90
6
70
1
43
0.0
10
-56.526279441629356
20
333.79680587313572
10
-47.000000000000526
20
339.29680587313578
10
-37.473720558371667
20
333.79680587313578
10
-37.473720558371674
20
322.79680587313578
10
-47.000000000000526
20
317.29680587313572
10
-56.526279441629363
20
322.79680587313578
0
LWPOLYLINE
5
197
100
AcDbEntity
8
0
100
AcDbPolyline
90
6
70
1
43
0.0
10
2.2237205583705899
20
394.85159683993885
10
11.749999999999442
20
400.35159683993891
10
21.276279441628297
20
394.85159683993902
10
21.276279441628283
20
383.85159683993896
10
11.749999999999439
20
378.35159683993885
10
2.2237205583705899
20
383.85159683993891
0
LWPOLYLINE
5
198
100
AcDbEntity
8
0
100
AcDbPolyline
90
6
70
1
43
0.0
10
13.973720558370575
20
415.20319382887328
10
23.499999999999428
20
420.70319382887334
10
33.02627944162829
20
415.20319382887328
10
33.026279441628276
20
404.20319382887334
10
23.499999999999432
20
398.70319382887328
10
13.973720558370566
20
404.20319382887334
0
LWPOLYLINE
5
199
100
AcDbEntity
8
0
100
AcDbPolyline
90
6
70
1
43
0.0
10
-33.026279441629399
20
374.49999985100447
10
-23.500000000000547
20
379.99999985100453
10
-13.973720558371692
20
374.49999985100465
10
-13.973720558371701
20
363.49999985100459
10
-23.500000000000547
20
357.99999985100447
10
-33.026279441629399
20
363.49999985100453
0
LWPOLYLINE
5
200
100
AcDbEntity
8
0
100
AcDbPolyline
90
6
70
1
43
0.0
10
84.473720558370559
20
415.20319382887345
10
93.999999999999417
20
420.70319382887351
10
103.52627944162826
20
415.20319382887351
10
103.52627944162828
20
404.20319382887357
10
93.999999999999417
20
398.70319382887345
10
84.473720558370559
20
404.20319382887351
0
LWPOLYLINE
5
201
100
AcDbEntity
8
0
100
AcDbPolyline
90
6
70
1
43
0.0
10
-162.27627944162933
20
354.14840286206982
10
-152.75000000000048
20
359.64840286206993
10
-143.22372055837167
20
354.14840286206993
10
-143.22372055837167
20
343.14840286206993
10
-152.75000000000051
20
337.64840286206993
10
-162.27627944162941
20
343.14840286206982
0
LWPOLYLINE
5
202
100
AcDbEntity
8
0
100
AcDbPolyline
90
6
70
1
43
0.0
10
13.97372055837061
20
374.49999985100465
10
23.499999999999453
20
379.99999985100465
10
33.026279441628304
20
374.4999998510047
10
33.026279441628304
20
363.49999985100465
10
23.49999999999946
20
357.99999985100465
10
13.973720558370601
20
363.49999985100465
0
LWPOLYLINE
5
203
100
AcDbEntity
8
0
100
AcDbPolyline
90
6
70
1
43
0.0
10
60.973720558370573
20
415.2031938288734
10
70.499999999999432
20
420.7031938288734
10
80.026279441628262
20
415.20319382887345
10
80.026279441628276
20
404.20319382887351
10
70.499999999999417
20
398.7031938288734
10
60.973720558370566
20
404.2031938288734
0
LWPOLYLINE
5
204
100
AcDbEntity
8
0
100
AcDbPolyline
90
6
70
1
43
0.0
10
72.723720558370644
20
354.14840286207044
10
82.249999999999488
20
359.6484028620705
10
91.776279441628333
20
354.1484028620705
10
91.776279441628333
20
343.1484028620705
10
82.249999999999488
20
337.6484028620705
10
72.723720558370616
20
343.14840286207044
0
LWPOLYLINE
5
205
100
AcDbEntity
8
0
100
AcDbPolyline
90
6
70
1
43
0.0
10
49.223720558370623
20
354.14840286207038
10
58.749999999999467
20
359.64840286207044
10
68.276279441628333
20
354.14840286207044
10
68.276279441628304
20
343.14840286207044
10
58.74999999999946
20
337.64840286207038
10
49.223720558370623
20
343.14840286207038
0
LWPOLYLINE
5
206
100
AcDbEntity
8
0
100
AcDbPolyline
90
6
70
1
43
0.0
10
-127.0262794416294
20
374.49999985100419
10
-117.50000000000055
20
379.9999998510043
10
-107.9737205583717
20
374.4999998510043
10
-107.97372055837171
20
363.4999998510043
10
-117.50000000000055
20
357.9999998510043
10
-127.0262794416294
20
363.49999985100425
0
LWPOLYLINE
5
207
100
AcDbEntity
8
0
100
AcDbPolyline
90
6
70
1
43
0.0
10
-103.52627944162936
20
333.79680587313555
10
-94.000000000000512
20
339.29680587313561
10
-84.473720558371653
20
333.79680587313572
10
-84.473720558371653
20
322.79680587313572
10
-94.00000000000054
20
317.29680587313567
10
-103.52627944162936
20
322.79680587313567
0
LWPOLYLINE
5
208
100
AcDbEntity
8
0
100
AcDbPolyline
90
6
70
1
43
0.0
10
107.9737205583706
20
374.49999985100482
10
117.49999999999945
20
379.99999985100487
10
127.0262794416283
20
374.49999985100487
10
127.02627944162829
20
363.49999985100487
10
117.49999999999945
20
357.99999985100487
10
107.9737205583706
20
363.49999985100487
0
LWPOLYLINE
5
209
100
AcDbEntity
8
0
100
AcDbPolyline
90
6
70
1
43
0.0
10
60.973720558370616
20
374.4999998510047
10
70.49999999999946
20
379.99999985100476
10
80.026279441628319
20
374.49999985100482
10
80.026279441628304
20
363.49999985100482
10
70.49999999999946
20
357.9999998510047
10
60.973720558370616
20
363.49999985100476
0
LWPOLYLINE
5
210
100
AcDbEntity
8
0
100
AcDbPolyline
90
6
70
1
43
0.0
10
-103.5262794416294
20
374.49999985100425
10
-94.000000000000554
20
379.99999985100436
10
-84.473720558371696
20
374.49999985100442
10
-84.47372055837171
20
363.49999985100442
10
-94.000000000000554
20
357.99999985100436
10
-103.5262794416294
20
363.4999998510043
0
LWPOLYLINE
5
211
100
AcDbEntity
8
0
100
AcDbPolyline
90
6
70
1
43
0.0
10
-9.526279441629427
20
415.20319382887322
10
-5.7398530373120593e-13
20
420.70319382887328
10
9.5262794416282794
20
415.20319382887322
10
9.5262794416282688
20
404.20319382887328
10
-5.7620574978045624e-13
20
398.70319382887322
10
-9.5262794416294323
20
404.20319382887328
0
LWPOLYLINE
5
212
100
AcDbEntity
8
0
100
AcDbPolyline
90
6
70
1
43
0.0
10
49.223720558370601
20
394.85159683993902
10
58.749999999999446
20
400.35159683993902
10
68.27627944162829
20
394.85159683993908
10
68.27627944162829
20
383.85159683993902
10
58.749999999999439
20
378.35159683993902
10
49.223720558370594
20
383.85159683993902
0
LWPOLYLINE
5
213
100
AcDbEntity
8
0
100
AcDbPolyline
90
6
70
1
43
0.0
10
96.223720558370616
20
354.1484028620705
10
105.74999999999947
20
359.64840286207055
10
115.27627944162832
20
354.14840286207061
10
115.27627944162832
20
343.14840286207061
10
105.74999999999947
20
337.6484028620705
10
96.223720558370616
20
343.14840286207061
0
LWPOLYLINE
5
214
100
AcDbEntity
8
0
100
AcDbPolyline
90
6
70
1
43
0.0
10
-150.52627944162944
20
415.20319382887288
10
-141.00000000000057
20
420.70319382887294
10
-131.47372055837172
20
415.20319382887288
10
-131.47372055837172
20
404.20319382887294
10
-141.00000000000057
20
398.70319382887288
10
-150.52627944162944
20
404.20319382887294
0
LWPOLYLINE
5
215
100
AcDbEntity
8
0
100
AcDbPolyline
90
6
70
1
43
0.0
10
60.973720558370644
20
333.79680587313601
10
70.499999999999488
20
339.29680587313607
10
80.026279441628333
20
333.79680587313612
10
80.026279441628333
20
322.79680587313612
10
70.499999999999488
20
317.29680587313607
10
60.973720558370637
20
322.79680587313607
0
LWPOLYLINE
5
216
100
AcDbEntity
8
0
100
AcDbPolyline
90
6
70
1
43
0.0
10
131.47372055837064
20
333.79680587313624
10
140.99999999999949
20
339.29680587313624
10
150.52627944162836
20
333.79680587313629
10
150.5262794416283
20
322.79680587313629
10
140.99999999999943
20
317.29680587313624
10
131.47372055837064
20
322.79680587313629
0
LWPOLYLINE
5
217
100
AcDbEntity
8
0
100
AcDbPolyline
90
6
70
1
43
0.0
10
2.2237205583706254
20
354.14840286207027
10
11.749999999999474
20
359.64840286207027
10
21.276279441628322
20
354.14840286207038
10
21.276279441628315
20
343.14840286207038
10
11.749999999999465
20
337.64840286207027
10
2.223720558370621
20
343.14840286207027
0
LWPOLYLINE
5
218
100
AcDbEntity
8
0
100
AcDbPolyline
90
6
70
1
43
0.0
10
84.473720558370644
20
333.79680587313607
10
93.999999999999488
20
339.29680587313612
10
103.52627944162835
20
333.79680587313612
10
103.52627944162835
20
322.79680587313612
10
93.999999999999474
20
317.29680587313607
10
84.473720558370644
20
322.79680587313612
0
LWPOLYLINE
5
219
100
AcDbEntity
8
0
100
AcDbPolyline
90
6
70
1
43
0.0
10
-44.776279441629384
20
354.1484028620701
10
-35.25000000000054
20
359.64840286207021
10
-25.723720558371678
20
354.14840286207027
10
-25.723720558371689
20
343.14840286207021
10
-35.25000000000054
20
337.64840286207016
10
-44.776279441629384
20
343.1484028620701
0
LWPOLYLINE
5
220
100
AcDbEntity
8
0
100
AcDbPolyline
90
6
70
1
43
0.0
10
119.72372055837059
20
394.85159683993913
10
129.24999999999943
20
400.35159683993919
10
138.7762794416283
20
394.85159683993925
10
138.77627944162833
20
383.85159683993925
10
129.24999999999946
20
378.35159683993913
10
119.72372055837059
20
383.85159683993919
0
LWPOLYLINE
5
221
100
AcDbEntity
8
0
100
AcDbPolyline
90
6
70
1
43
0.0
10
143.22372055837059
20
394.85159683993919
10
152.74999999999943
20
400.35159683993925
10
162.27627944162828
20
394.85159683993936
10
162.27627944162828
20
383.85159683993936
10
152.74999999999946
20
378.35159683993925
10
143.22372055837056
20
383.85159683993925
0
LWPOLYLINE
5
222
100
AcDbEntity
8
0
100
AcDbPolyline
90
32
70
1
43
0.0
10
-185.47600688892169
20
468.99999985100476
42
0.41421356237310542
10
-187.47600688892163
20
466.99999985100476
10
-187.47600688892166
20
464.6568541004965
42
-0.19891236737966378
10
-188.79402637358228
20
461.47487358515696
10
-196.45088062307465
20
453.81801933566464
42
-0.19891236737966411
10
-199.63286113841409
20
452.49999985100419
10
-201.97600688892157
20
452.49999985100425
42
0.414213562373069
10
-203.97600688892166
20
450.4999998510043
10
-203.97600688892163
20
39.500000148995156
42
0.41421356237310281
10
-201.97600688892157
20
37.500000148995142
10
-199.63286113841306
20
37.500000148995198
42
-0.19891236737965465
10
-196.4508806230736
20
36.181980664334652
10
-188.79402637358115
20
28.525126414842326
42
-0.19891236737966228
10
-187.47600688892064
20
25.343145899502879
10
-187.47600688892064
20
23.000000148995177
42
0.41421356237309437
10
-185.47600688892064
20
21.000000148995191
10
185.47600688892058
20
21.000000148995241
42
0.41421356237309503
10
187.47600688892055
20
23.000000148995255
10
187.47600688892061
20
25.343145899502872
42
-0.19891236737966239
10
188.79402637358118
20
28.525126414842386
10
196.4508806230736
20
36.181980664334759
42
-0.1989123673796564
10
199.63286113841298
20
37.500000148995184
10
201.97600688892052
20
37.500000148995134
42
0.41421356237310936
10
203.97600688892055
20
39.500000148995142
10
203.97600688892055
20
450.49999985100476
42
0.4142135623730846
10
201.97600688892052
20
452.49999985100476
10
199.63286113841303
20
452.49999985100476
42
-0.1989123673796476
10
196.45088062307352
20
453.81801933566527
10
188.79402637358118
20
461.47487358515752
42
-0.19891236737968476
10
187.47600688892061
20
464.65685410049707
10
187.47600688892061
20
466.99999985100476
42
0.41421356237310542
10
185.47600688892061
20
468.99999985100476
0
CIRCLE
5
223
100
AcDbEntity
8
0
100
AcDbCircle
10
-178.97600688892112
20
294.99999999999977
30
0
40
1.7500000000000071
210
-1.6278116135588177e-63
220
2.3389671972700952e-110
230
1
0
CIRCLE
5
224
100
AcDbEntity
8
0
100
AcDbCircle
10
-198.2793077478199
20
50.738329850438674
30
0
40
1.7500000000000071
210
-1.6278116135588177e-63
220
2.3389671972700952e-110
230
1
0
CIRCLE
5
225
100
AcDbEntity
8
0
100
AcDbCircle
10
178.97600688892101
20
204.99999999999977
30
-3.5527136788005009e-14
40
1.7500000000000071
210
-1.6278116135588177e-63
220
2.3389671972700952e-110
230
1
0
CIRCLE
5
226
100
AcDbEntity
8
0
100
AcDbCircle
10
198.2793077478199
20
439.26167014956098
30
0
40
1.7500000000000071
210
-1.6278116135588177e-63
220
2.3389671972700952e-110
230
1
0
LWPOLYLINE
5
227
100
AcDbEntity
8
0
100
AcDbPolyline
90
4
70
1
43
0.0
10
135.7500000000795
20
126.52050807570203
10
133.32179676982426
20
127.92243186433701
10
133.32179676982429
20
133.73206657020194
42
-0.17985546498589519
10
135.7500000000795
20
127.19999999998979
0
CIRCLE
5
228
100
AcDbEntity
8
0
100
AcDbCircle
10
-174.23767718747712
20
463.30330070990351
30
3.5527136788005009e-14
40
1.7500000000000071
210
-1.6278116135588177e-63
220
2.3389671972700952e-110
230
1
0
CIRCLE
5
229
100
AcDbEntity
8
0
100
AcDbCircle
10
178.97600688892112
20
294.99999999999977
30
0
40
1.7500000000000071
210
-1.6278116135588177e-63
220
2.3389671972700952e-110
230
1
0
CIRCLE
5
230
100
AcDbEntity
8
0
100
AcDbCircle
10
174.23767718747712
20
26.696699290096188
30
0
40
1.7500000000000071
210
-1.6278116135588177e-63
220
2.3389671972700952e-110
230
1
0
CIRCLE
5
231
100
AcDbEntity
8
0
100
AcDbCircle
10
-178.97600688892084
20
194.99999999999974
30
0
40
1.7500000000000071
210
-1.6278116135588177e-63
220
2.3389671972700952e-110
230
1
0
CIRCLE
5
232
100
AcDbEntity
8
0
100
AcDbCircle
10
-178.97600688892123
20
284.99999999999977
30
0
40
1.7500000000000071
210
-1.6278116135588177e-63
220
2.3389671972700952e-110
230
1
0
CIRCLE
5
233
100
AcDbEntity
8
0
100
AcDbCircle
10
-174.23767718747712
20
26.696699290096188
30
0
40
1.7500000000000071
210
-1.6278116135588177e-63
220
2.3389671972700952e-110
230
1
0
CIRCLE
5
234
100
AcDbEntity
8
0
100
AcDbCircle
10
178.97600688892084
20
194.99999999999974
30
-3.5527136788005009e-14
40
1.7500000000000071
210
-1.6278116135588177e-63
220
2.3389671972700952e-110
230
1
0
CIRCLE
5
235
100
AcDbEntity
8
0
100
AcDbCircle
10
174.23767718747712
20
463.30330070990351
30
0
40
1.7500000000000071
210
-1.6278116135588177e-63
220
2.3389671972700952e-110
230
1
0
LWPOLYLINE
5
236
100
AcDbEntity
8
0
100
AcDbPolyline
90
6
70
1
43
0.0
10
164.99999999999946
20
398.99186896346851
10
164.49999999999943
20
398.70319382887368
10
154.97372055837059
20
404.20319382887374
10
154.97372055837056
20
415.20319382887362
10
161.12189775971564
20
418.75284559109582
42
-0.12924035461183286
10
164.99999999999946
20
403.99999985100453
0
CIRCLE
5
237
100
AcDbEntity
8
0
100
AcDbCircle
10
-198.2793077478199
20
439.26167014956098
30
3.5527136788005009e-14
40
1.7500000000000071
210
-1.6278116135588177e-63
220
2.3389671972700952e-110
230
1
0
CIRCLE
5
238
100
AcDbEntity
8
0
100
AcDbCircle
10
178.97600688892123
20
284.99999999999977
30
0
40
1.7500000000000071
210
-1.6278116135588177e-63
220
2.3389671972700952e-110
230
1
0
CIRCLE
5
239
100
AcDbEntity
8
0
100
AcDbCircle
10
198.2793077478199
20
50.738329850438674
30
0
40
1.7500000000000071
210
-1.6278116135588177e-63
220
2.3389671972700952e-110
230
1
0
CIRCLE
5
240
100
AcDbEntity
8
0
100
AcDbCircle
10
-178.97600688892101
20
204.99999999999977
30
0
40
1.7500000000000071
210
-1.6278116135588177e-63
220
2.3389671972700952e-110
230
1
0
ENDSEC
0
SECTION
2
OBJECTS
0
DICTIONARY
5
C
100
AcDbDictionary
3
ACAD_GROUP
350
D
3
ACAD_MLINESTYLE
350
17
0
DICTIONARY
5
D
100
AcDbDictionary
0
DICTIONARY
5
1A
330
C
100
AcDbDictionary
0
DICTIONARY
5
17
100
AcDbDictionary
0
ENDSEC
0
EOF
