0
SECTION
2
HEADER
9
$INSUNITS
70
4
9
$ACADVER
1
AC1014
9
$HANDSEED
5
FFFF
0
ENDSEC
0
SECTION
2
TABLES
0
TABLE
2
VPORT
5
8
100
AcDbSymbolTable
0
ENDTAB
0
TABLE
2
LTYPE
5
5
100
AcDbSymbolTable
0
LTYPE
5
14
100
AcDbSymbolTableRecord
100
AcDbLinetypeTableRecord
2
BYBLOCK
70
0
0
LTYPE
5
15
100
AcDbSymbolTableRecord
100
AcDbLinetypeTableRecord
2
BYLAYER
70
0
0
LTYPE
5
16
100
AcDbSymbolTableRecord
100
AcDbLinetypeTableRecord
2
DASHED
70
0
3
Dashed __ __ __ __ __ __ __ __ __ __ __ __ __ _
72
65
73
2
40
0.75
49
0.5
74
0
49
-0.25
74
0
0
ENDTAB
0
TABLE
2
LAYER
5
2
100
AcDbSymbolTable
70
2
0
LAYER
5
50
100
AcDbSymbolTableRecord
100
AcDbLayerTableRecord
2
0
70
0
62
7
6
CONTINUOUS
0
ENDTAB
0
TABLE
2
STYLE
5
3
100
AcDbSymbolTable
70
1
0
STYLE
5
11
100
AcDbSymbolTableRecord
100
AcDbTextStyleTableRecord
2
STANDARD
70
0
0
ENDTAB
0
TABLE
2
VIEW
5
6
100
AcDbSymbolTable
70
0
0
ENDTAB
0
TABLE
2
UCS
5
7
100
AcDbSymbolTable
70
0
0
ENDTAB
0
TABLE
2
APPID
5
9
100
AcDbSymbolTable
70
2
0
APPID
5
12
100
AcDbSymbolTableRecord
100
AcDbRegAppTableRecord
2
ACAD
70
0
0
ENDTAB
0
TABLE
2
DIMSTYLE
5
A
100
AcDbSymbolTable
70
1
0
ENDTAB
0
TABLE
2
BLOCK_RECORD
5
1
100
AcDbSymbolTable
70
1
0
BLOCK_RECORD
5
1F
100
AcDbSymbolTableRecord
100
AcDbBlockTableRecord
2
*MODEL_SPACE
0
BLOCK_RECORD
5
1B
100
AcDbSymbolTableRecord
100
AcDbBlockTableRecord
2
*PAPER_SPACE
0
ENDTAB
0
ENDSEC
0
SECTION
2
BLOCKS
0
BLOCK
5
20
100
AcDbEntity
100
AcDbBlockBegin
2
*MODEL_SPACE
0
ENDBLK
5
21
100
AcDbEntity
100
AcDbBlockEnd
0
BLOCK
5
1C
100
AcDbEntity
100
AcDbBlockBegin
2
*PAPER_SPACE
0
ENDBLK
5
1D
100
AcDbEntity
100
AcDbBlockEnd
0
ENDSEC
0
SECTION
2
ENTITIES
0
LWPOLYLINE
5
100
100
AcDbEntity
8
0
100
AcDbPolyline
90
16
70
1
43
0.0
10
79.283727466144413
20
437.41457432192385
42
0.23291391684578761
10
81.662030754335063
20
436.24314575049362
10
89.999999434001424
20
436.24314575049362
42
-0.41421356237309848
10
102.04314518450894
20
424.19999999998606
10
102.04314518450906
20
284.1999999999864
42
-0.4142135623730972
10
89.999999434001481
20
272.15685424947884
10
81.662030754335731
20
272.1568542494789
42
0.23291391684583349
10
79.283727466144711
20
270.98542567804816
42
-0.49254801826441469
10
75.71627253385914
20
270.98542567804679
42
0.23291391684556209
10
73.33796924567045
20
272.15685424947588
10
64.999999434001438
20
272.15685424947873
42
-0.4142135623730927
10
52.956853683493847
20
284.1999999999864
10
52.956853683493932
20
424.19999999998606
42
-0.41421356237309548
10
64.999999434001396
20
436.24314575049357
10
73.337969245670308
20
436.2431457504959
42
0.23291391684554799
10
75.716272533859112
20
437.41457432192482
42
-0.49254801826434724
0
LWPOLYLINE
5
101
100
AcDbEntity
8
0
100
AcDbPolyline
90
16
70
1
43
0.0
10
-137.29999999999973
20
349.00384757728312
42
0.26794919243111037
10
-138.7999999999997
20
351.60192378863644
42
-0.57735026918963328
10
-138.7999999999997
20
356.79807621134319
42
0.2679491924311117
10
-137.2999999999997
20
359.39615242269645
10
-137.29999999999973
20
418.59999999998979
42
-0.41421356237309465
10
-124.39999999999975
20
431.49999999998977
10
4.4000000000002411
20
431.49999999998977
42
-0.41421356237309681
10
17.300000000000168
20
418.59999999998979
10
17.300000000000239
20
359.39615242269639
42
0.26794919243112353
10
18.800000000000225
20
356.79807621134307
42
-0.57735026918962795
10
18.800000000000221
20
351.6019237886365
42
0.26794919243112642
10
17.300000000000292
20
349.00384757728318
10
17.300000000000239
20
289.79999999998984
42
-0.41421356237309481
10
4.4000000000002588
20
276.8999999999898
10
-124.39999999999972
20
276.8999999999898
42
-0.41421356237309426
10
-137.29999999999973
20
289.79999999998978
0
CIRCLE
5
102
100
AcDbEntity
8
0
100
AcDbCircle
10
120.00000000000114
20
459.99999999999
30
0
40
1.7499999999999893
210
2.6183901467236567e-65
220
-2.1036658877576645e-113
230
1
0
CIRCLE
5
103
100
AcDbEntity
8
0
100
AcDbCircle
10
-119.99999999999886
20
459.99999999999
30
0
40
1.7499999999999893
210
2.6183901467236567e-65
220
-2.1036658877576645e-113
230
1
0
CIRCLE
5
104
100
AcDbEntity
8
0
100
AcDbCircle
10
-85.872583002029728
20
52.37258300203063
30
0
40
1.4000000000000057
210
2.6183901467236572e-65
220
-2.1036658877576651e-113
230
1
0
CIRCLE
5
105
100
AcDbEntity
8
0
100
AcDbCircle
10
1.1368683772161603e-12
20
459.99999999999
30
0
40
1.749999999999996
210
5.4738221262688167e-48
220
-4.3977758230924668e-96
230
1
0
CIRCLE
5
106
100
AcDbEntity
8
0
100
AcDbCircle
10
-108.49999999999935
20
75.000000000000128
30
0
40
25.449999999999982
210
5.4738221262688167e-48
220
6.1629758220391547e-33
230
1
0
CIRCLE
5
107
100
AcDbEntity
8
0
100
AcDbCircle
10
-131.12741699796885
20
52.372583002030566
30
0
40
1.4000000000000057
210
2.6183901467236572e-65
220
-2.1036658877576651e-113
230
1
0
CIRCLE
5
108
100
AcDbEntity
8
0
100
AcDbCircle
10
-108.49999999999926
20
107.0000000000001
30
0
40
1.4000000000000057
210
2.6183901467236572e-65
220
-2.1036658877576651e-113
230
1
0
LWPOLYLINE
5
109
100
AcDbEntity
8
0
100
AcDbPolyline
90
16
70
1
43
0.0
10
-137.2000000000005
20
179.00384757728293
42
0.26794919243111631
10
-138.70000000000053
20
181.60192378863624
42
-0.57735026918962884
10
-138.70000000000053
20
186.7980762113429
42
0.26794919243111615
10
-137.20000000000053
20
189.39615242269622
10
-137.2000000000005
20
194.39999999998932
42
-0.41421356237309681
10
-125.00000000000048
20
206.59999999998928
10
4.9999999999996776
20
206.59999999998928
42
-0.41421356237309087
10
17.199999999999672
20
194.39999999998952
10
17.199999999999736
20
189.39615242269642
42
0.26794919243112447
10
18.699999999999775
20
186.79807621134313
42
-0.57735026918962706
10
18.699999999999861
20
181.6019237886365
42
0.26794919243112769
10
17.199999999999889
20
179.00384757728315
10
17.199999999999974
20
173.99999999999005
42
-0.41421356237309903
10
4.9999999999999982
20
161.79999999998986
10
-125.00000000000048
20
161.79999999998986
42
-0.41421356237309681
10
-137.2000000000005
20
173.99999999998983
0
CIRCLE
5
110
100
AcDbEntity
8
0
100
AcDbCircle
10
-215.00000402331651
20
389.62499999999977
30
0
40
1.7500000000000071
210
2.8105470929333368e-65
220
-2.4237609375855613e-113
230
1
0
CIRCLE
5
111
100
AcDbEntity
8
0
100
AcDbCircle
10
215.00000402331631
20
99.874999999999716
30
0
40
1.7500000000000071
210
2.8105470929333368e-65
220
-2.4237609375855613e-113
230
1
0
CIRCLE
5
112
100
AcDbEntity
8
0
100
AcDbCircle
10
215.00000402331636
20
224.64999999999972
30
0
40
1.7500000000000071
210
2.8105470929333368e-65
220
-2.4237609375855613e-113
230
1
0
CIRCLE
5
113
100
AcDbEntity
8
0
100
AcDbCircle
10
-215.00000402331642
20
264.84999999999968
30
0
40
1.7500000000000071
210
2.8105470929333368e-65
220
-2.4237609375855613e-113
230
1
0
CIRCLE
5
114
100
AcDbEntity
8
0
100
AcDbCircle
10
-215.00000402331631
20
99.874999999999716
30
0
40
1.7500000000000071
210
2.8105470929333368e-65
220
-2.4237609375855613e-113
230
1
0
CIRCLE
5
115
100
AcDbEntity
8
0
100
AcDbCircle
10
215.00000402331651
20
389.62499999999977
30
0
40
1.7499999999999716
210
2.8105470929333368e-65
220
-2.4237609375855613e-113
230
1
0
CIRCLE
5
116
100
AcDbEntity
8
0
100
AcDbCircle
10
215.00000402331642
20
264.84999999999968
30
0
40
1.7500000000000071
210
2.8105470929333368e-65
220
-2.4237609375855613e-113
230
1
0
CIRCLE
5
117
100
AcDbEntity
8
0
100
AcDbCircle
10
-215.00000402331636
20
224.64999999999972
30
0
40
1.7500000000000071
210
2.8105470929333368e-65
220
-2.4237609375855613e-113
230
1
0
LWPOLYLINE
5
118
100
AcDbEntity
8
0
100
AcDbPolyline
90
72
70
1
43
0.0
10
55.583103130298966
20
475.5
42
0.41421356237308204
10
54.583103130298994
20
474.49999999999994
10
54.583103130298987
20
473.50000000000011
42
-0.41421356237309503
10
53.583103130298973
20
472.50000000000006
10
41.583103130298966
20
472.5
42
-0.41421356237309503
10
40.583103130298966
20
473.5
10
40.583103130298966
20
486.50000000000006
42
0.41421356237304563
10
39.58310313029898
20
487.50000000000006
10
-193.93000000000001
20
487.5
42
0.41421356237310542
10
-195.92999999999995
20
485.5
10
-195.93000000000001
20
471.50000000000006
42
-0.41421356237309503
10
-197.93000000000004
20
469.5
10
-222.5
20
469.5
42
0.41421356237310542
10
-224.49999999999994
20
467.5
10
-224.50000000000003
20
22.5
42
0.41421356237309309
10
-222.50000000000003
20
20.500000000000021
10
-206.50000000000006
20
20.5
42
-0.41421356237309342
10
-204.50000000000006
20
18.500000000000018
10
-204.50000000000003
20
12.500000000000004
42
0.4142135623730947
10
-202.50000000000003
20
10.500000000000014
10
-197.43000000000001
20
10.499999999999993
42
-0.41421356237309503
10
-195.43000000000004
20
8.5000000000000018
10
-195.43000000000004
20
2.5
42
0.41421356237309681
10
-193.43000000000004
20
0.49999999999999545
10
26.500000000000021
20
0.50000000000000711
10
26.500000000000021
20
39.250000000000014
42
0.4142135623730957
10
24.500000000000021
20
41.250000000000007
10
23.500000000000014
20
41.250000000000014
42
-0.99999999999999989
10
23.500000000000021
20
44.750000000000014
10
24.500000000000025
20
44.750000000000014
42
0.41421356237309176
10
26.500000000000028
20
46.750000000000007
10
26.500000000000028
20
85.500000000000043
42
-0.41421356237309348
10
41.500000000000021
20
100.5
10
92.750000000000028
20
100.5
42
0.41421356237309503
10
94.750000000000014
20
102.5
10
94.750000000000014
20
103.50000000000001
42
-0.99999999999999989
10
98.250000000000028
20
103.50000000000001
10
98.250000000000028
20
102.50000000000001
42
0.41421356237309503
10
100.25000000000003
20
100.50000000000003
10
151.50000000000003
20
100.50000000000003
42
-0.41421356237309609
10
166.50000000000003
20
85.5
10
166.50000000000003
20
46.749999999999986
42
0.41421356237309503
10
168.5
20
44.75
10
169.50000000000003
20
44.750000000000007
42
-0.99999999999999989
10
169.50000000000003
20
41.249999999999993
10
168.5
20
41.25
42
0.41421356237309825
10
166.50000000000006
20
39.249999999999993
10
166.50000000000003
20
0.49999999999999822
10
193.43000000000004
20
0.50000000000000022
42
0.41421356237309681
10
195.43000000000004
20
2.5000000000000004
10
195.43000000000004
20
8.5000000000000018
42
-0.41421356237309503
10
197.43000000000001
20
10.500000000000004
10
202.5
20
10.5
42
0.41421356237309664
10
204.5
20
12.5
10
204.50000000000003
20
18.500000000000007
42
-0.41421356237309503
10
206.50000000000003
20
20.500000000000007
10
222.5
20
20.500000000000007
42
0.41421356237309631
10
224.5
20
22.500000000000004
10
224.50000000000003
20
467.5
42
0.41421356237308982
10
222.50000000000003
20
469.5
10
197.93000000000006
20
469.5
42
-0.41421356237309503
10
195.93000000000006
20
471.50000000000006
10
195.93000000000004
20
485.5
42
0.41421356237310542
10
193.93000000000001
20
487.5
10
55.58310313029898
20
487.5
42
0.41421356237304563
10
54.583103130298987
20
486.50000000000006
10
54.583103130298973
20
485.50000000000011
42
0.41421356237305079
10
55.583103130298966
20
484.50000000000011
10
56.083103130298973
20
484.5
42
-0.41421356237309503
10
57.083103130298973
20
483.5
10
57.083103130298987
20
476.49999999999989
42
-0.41421356237309503
10
56.083103130298973
20
475.49999999999989
0
ENDSEC
0
SECTION
2
OBJECTS
0
DICTIONARY
5
C
100
AcDbDictionary
3
ACAD_GROUP
350
D
3
ACAD_MLINESTYLE
350
17
0
DICTIONARY
5
D
100
AcDbDictionary
0
DICTIONARY
5
1A
330
C
100
AcDbDictionary
0
DICTIONARY
5
17
100
AcDbDictionary
0
ENDSEC
0
EOF
