0
SECTION
2
HEADER
9
$INSUNITS
70
4
9
$ACADVER
1
AC1014
9
$HANDSEED
5
FFFF
0
ENDSEC
0
SECTION
2
TABLES
0
TABLE
2
VPORT
5
8
100
AcDbSymbolTable
0
ENDTAB
0
TABLE
2
LTYPE
5
5
100
AcDbSymbolTable
0
LTYPE
5
14
100
AcDbSymbolTableRecord
100
AcDbLinetypeTableRecord
2
BYBLOCK
70
0
0
LTYPE
5
15
100
AcDbSymbolTableRecord
100
AcDbLinetypeTableRecord
2
BYLAYER
70
0
0
LTYPE
5
16
100
AcDbSymbolTableRecord
100
AcDbLinetypeTableRecord
2
DASHED
70
0
3
Dashed __ __ __ __ __ __ __ __ __ __ __ __ __ _
72
65
73
2
40
0.75
49
0.5
74
0
49
-0.25
74
0
0
ENDTAB
0
TABLE
2
LAYER
5
2
100
AcDbSymbolTable
70
2
0
LAYER
5
50
100
AcDbSymbolTableRecord
100
AcDbLayerTableRecord
2
0
70
0
62
7
6
CONTINUOUS
0
ENDTAB
0
TABLE
2
STYLE
5
3
100
AcDbSymbolTable
70
1
0
STYLE
5
11
100
AcDbSymbolTableRecord
100
AcDbTextStyleTableRecord
2
STANDARD
70
0
0
ENDTAB
0
TABLE
2
VIEW
5
6
100
AcDbSymbolTable
70
0
0
ENDTAB
0
TABLE
2
UCS
5
7
100
AcDbSymbolTable
70
0
0
ENDTAB
0
TABLE
2
APPID
5
9
100
AcDbSymbolTable
70
2
0
APPID
5
12
100
AcDbSymbolTableRecord
100
AcDbRegAppTableRecord
2
ACAD
70
0
0
ENDTAB
0
TABLE
2
DIMSTYLE
5
A
100
AcDbSymbolTable
70
1
0
ENDTAB
0
TABLE
2
BLOCK_RECORD
5
1
100
AcDbSymbolTable
70
1
0
BLOCK_RECORD
5
1F
100
AcDbSymbolTableRecord
100
AcDbBlockTableRecord
2
*MODEL_SPACE
0
BLOCK_RECORD
5
1B
100
AcDbSymbolTableRecord
100
AcDbBlockTableRecord
2
*PAPER_SPACE
0
ENDTAB
0
ENDSEC
0
SECTION
2
BLOCKS
0
BLOCK
5
20
100
AcDbEntity
100
AcDbBlockBegin
2
*MODEL_SPACE
0
ENDBLK
5
21
100
AcDbEntity
100
AcDbBlockEnd
0
BLOCK
5
1C
100
AcDbEntity
100
AcDbBlockBegin
2
*PAPER_SPACE
0
ENDBLK
5
1D
100
AcDbEntity
100
AcDbBlockEnd
0
ENDSEC
0
SECTION
2
ENTITIES
0
LWPOLYLINE
5
100
100
AcDbEntity
8
0
100
AcDbPolyline
90
52
70
1
43
0.0
10
167.49999999999997
20
-173.99999999999994
42
0.41421356237309503
10
165.49999999999997
20
-171.99999999999994
10
41.500002086162588
20
-171.99999999999991
42
0.41421356237309503
10
39.500002086162596
20
-173.99999999999991
10
39.500002086162567
20
-201.99999999999989
42
-0.41421356237309342
10
31.500002086162532
20
-209.99999999999989
10
-31.49999791383744
20
-209.99999999999994
42
-0.41421356237309359
10
-39.499997913837447
20
-201.99999999999989
10
-39.499997913837433
20
-186.66369258313586
42
0.15686008726289788
10
-39.874998435378089
20
-185.49776947460481
42
-0.32163400724863617
10
-39.874998435378089
20
-178.50223082341819
42
0.15686008726290818
10
-39.49999791383744
20
-177.33630771488714
10
-39.499997913837426
20
-173.99999999999991
42
0.41421356237309631
10
-41.499997913837412
20
-171.99999999999991
10
-165.5
20
-171.99999999999991
42
0.41421356237309503
10
-167.5
20
-173.99999999999991
10
-167.5
20
-199.99999999999994
42
-0.41421356237308982
10
-169.5
20
-201.99999999999989
10
-205
20
-201.99999999999989
42
-0.41421356237309503
10
-207
20
-199.99999999999989
10
-207
20
-173.99999999999991
42
0.41421356237308982
10
-209
20
-171.99999999999994
10
-222.99999999999997
20
-171.99999999999991
42
0.41421356237310542
10
-224.99999999999997
20
-173.99999999999991
10
-225
20
-223.00000499188855
42
0.41421356237310542
10
-223.00000000000006
20
-225.00000499188855
10
-209.99999582767492
20
-225.00000499188857
42
-0.41421356237309293
10
-204.99999582767492
20
-230.00000499188855
10
-204.99999582767492
20
-245.00000499188857
42
0.41421356237309503
10
-199.99999582767489
20
-250.00000499188857
10
-184.99999582767489
20
-250.00000499188855
42
-0.41421356237309293
10
-179.99999582767489
20
-255.00000499188857
10
-179.99999582767489
20
-267.99999999999983
42
0.41421356237310025
10
-177.99999582767495
20
-269.99999999999983
10
177.99999582767487
20
-269.99999999999983
42
0.41421356237309503
10
179.99999582767487
20
-267.99999999999983
10
179.99999582767492
20
-255.00000499188857
42
-0.41421356237309293
10
184.99999582767489
20
-250.00000499188857
10
199.99999582767489
20
-250.00000499188857
42
0.41421356237309503
10
204.99999582767489
20
-245.00000499188857
10
204.99999582767487
20
-230.00000499188857
42
-0.41421356237309503
10
209.99999582767487
20
-225.00000499188857
10
222.99999999999997
20
-225.00000499188857
42
0.41421356237309503
10
224.99999999999997
20
-223.00000499188857
10
225
20
-173.99999999999991
42
0.41421356237310542
10
222.99999999999997
20
-171.99999999999991
10
208.99999999999991
20
-171.99999999999991
42
0.41421356237310542
10
206.99999999999991
20
-173.99999999999991
10
206.99999999999994
20
-199.99999999999989
42
-0.41421356237308982
10
204.99999999999997
20
-201.99999999999986
10
169.49999999999994
20
-201.99999999999989
42
-0.41421356237309503
10
167.49999999999997
20
-199.99999999999989
0
CIRCLE
5
101
100
AcDbEntity
8
0
100
AcDbCircle
10
-173.39999582767487
20
-260.00000499188855
30
0
40
1.7499999999999716
210
0
220
-0
230
1
0
CIRCLE
5
102
100
AcDbEntity
8
0
100
AcDbCircle
10
-214.99999582767492
20
-218.40000499188852
30
0
40
1.7500000000000071
210
0
220
-0
230
1
0
CIRCLE
5
103
100
AcDbEntity
8
0
100
AcDbCircle
10
173.39999582767493
20
-260.00000499188855
30
0
40
1.7499999999999716
210
0
220
-0
230
1
0
CIRCLE
5
104
100
AcDbEntity
8
0
100
AcDbCircle
10
214.99999582767487
20
-218.40000499188858
30
0
40
1.7500000000000071
210
0
220
-0
230
1
0
ENDSEC
0
SECTION
2
OBJECTS
0
DICTIONARY
5
C
100
AcDbDictionary
3
ACAD_GROUP
350
D
3
ACAD_MLINESTYLE
350
17
0
DICTIONARY
5
D
100
AcDbDictionary
0
DICTIONARY
5
1A
330
C
100
AcDbDictionary
0
DICTIONARY
5
17
100
AcDbDictionary
0
ENDSEC
0
EOF
