0
SECTION
2
HEADER
9
$INSUNITS
70
4
9
$ACADVER
1
AC1014
9
$HANDSEED
5
FFFF
0
ENDSEC
0
SECTION
2
TABLES
0
TABLE
2
VPORT
5
8
100
AcDbSymbolTable
0
ENDTAB
0
TABLE
2
LTYPE
5
5
100
AcDbSymbolTable
0
LTYPE
5
14
100
AcDbSymbolTableRecord
100
AcDbLinetypeTableRecord
2
BYBLOCK
70
0
0
LTYPE
5
15
100
AcDbSymbolTableRecord
100
AcDbLinetypeTableRecord
2
BYLAYER
70
0
0
LTYPE
5
16
100
AcDbSymbolTableRecord
100
AcDbLinetypeTableRecord
2
DASHED
70
0
3
Dashed __ __ __ __ __ __ __ __ __ __ __ __ __ _
72
65
73
2
40
0.75
49
0.5
74
0
49
-0.25
74
0
0
ENDTAB
0
TABLE
2
LAYER
5
2
100
AcDbSymbolTable
70
2
0
LAYER
5
50
100
AcDbSymbolTableRecord
100
AcDbLayerTableRecord
2
0
70
0
62
7
6
CONTINUOUS
0
ENDTAB
0
TABLE
2
STYLE
5
3
100
AcDbSymbolTable
70
1
0
STYLE
5
11
100
AcDbSymbolTableRecord
100
AcDbTextStyleTableRecord
2
STANDARD
70
0
0
ENDTAB
0
TABLE
2
VIEW
5
6
100
AcDbSymbolTable
70
0
0
ENDTAB
0
TABLE
2
UCS
5
7
100
AcDbSymbolTable
70
0
0
ENDTAB
0
TABLE
2
APPID
5
9
100
AcDbSymbolTable
70
2
0
APPID
5
12
100
AcDbSymbolTableRecord
100
AcDbRegAppTableRecord
2
ACAD
70
0
0
ENDTAB
0
TABLE
2
DIMSTYLE
5
A
100
AcDbSymbolTable
70
1
0
ENDTAB
0
TABLE
2
BLOCK_RECORD
5
1
100
AcDbSymbolTable
70
1
0
BLOCK_RECORD
5
1F
100
AcDbSymbolTableRecord
100
AcDbBlockTableRecord
2
*MODEL_SPACE
0
BLOCK_RECORD
5
1B
100
AcDbSymbolTableRecord
100
AcDbBlockTableRecord
2
*PAPER_SPACE
0
ENDTAB
0
ENDSEC
0
SECTION
2
BLOCKS
0
BLOCK
5
20
100
AcDbEntity
100
AcDbBlockBegin
2
*MODEL_SPACE
0
ENDBLK
5
21
100
AcDbEntity
100
AcDbBlockEnd
0
BLOCK
5
1C
100
AcDbEntity
100
AcDbBlockBegin
2
*PAPER_SPACE
0
ENDBLK
5
1D
100
AcDbEntity
100
AcDbBlockEnd
0
ENDSEC
0
SECTION
2
ENTITIES
0
CIRCLE
5
100
100
AcDbEntity
8
0
100
AcDbCircle
10
-69.461524226943098
20
131.31088913221015
30
0
40
1.749999999999998
210
-1.5813296914845799e-81
220
2.278936258982352e-64
230
1
0
CIRCLE
5
101
100
AcDbEntity
8
0
100
AcDbCircle
10
83.048692801209128
20
-60.637296012112564
30
0
40
1.749999999999998
210
-1.5813296914845799e-81
220
2.278936258982352e-64
230
1
0
CIRCLE
5
102
100
AcDbEntity
8
0
100
AcDbCircle
10
-26.529527886100087
20
-89.980835084966643
30
0
40
1.749999999999998
210
-1.5813296914845799e-81
220
2.278936258982352e-64
230
1
0
CIRCLE
5
103
100
AcDbEntity
8
0
100
AcDbCircle
10
43.383352945015034
20
-75.082991719305866
30
0
40
1.749999999999998
210
-1.5813296914845799e-81
220
2.278936258982352e-64
230
1
0
CIRCLE
5
104
100
AcDbEntity
8
0
100
AcDbCircle
10
-46.901619656082019
20
-126.62930003546899
30
0
40
1.7500000000000071
210
-0
220
0
230
1
0
CIRCLE
5
105
100
AcDbEntity
8
0
100
AcDbCircle
10
1.1493028750919621e-11
20
165.99999999999943
30
0
40
1.7499999999999927
210
1.3177747429038159e-81
220
-1.8991135491519597e-64
230
1
0
CIRCLE
5
106
100
AcDbEntity
8
0
100
AcDbCircle
10
-121.24355652890357
20
31.621778264223472
30
0
40
1.7499999999999893
210
3.0308819086787768e-81
220
-4.3679611630495074e-64
230
1
0
CIRCLE
5
107
100
AcDbEntity
8
0
100
AcDbCircle
10
121.24355652969614
20
31.62177826491785
30
0
40
1.7499999999999893
210
3.0308819086787768e-81
220
-4.3679611630495074e-64
230
1
0
CIRCLE
5
108
100
AcDbEntity
8
0
100
AcDbCircle
10
-43.38335294489012
20
-75.082991719339446
30
0
40
1.749999999999998
210
-1.5813296914845799e-81
220
2.278936258982352e-64
230
1
0
CIRCLE
5
109
100
AcDbEntity
8
0
100
AcDbCircle
10
107.6213343076107
20
93.549725176326291
30
0
40
1.7500000000000071
210
-0
220
0
230
1
0
CIRCLE
5
110
100
AcDbEntity
8
0
100
AcDbCircle
10
-107.62133430760635
20
93.549725176265653
30
0
40
1.7500000000000071
210
-0
220
0
230
1
0
CIRCLE
5
111
100
AcDbEntity
8
0
100
AcDbCircle
10
69.461524227164745
20
131.31088913260794
30
0
40
1.749999999999998
210
-1.5813296914845799e-81
220
2.278936258982352e-64
230
1
0
CIRCLE
5
112
100
AcDbEntity
8
0
100
AcDbCircle
10
-83.048692799888158
20
-60.637296012588209
30
0
40
1.7500000000000071
210
-0
220
0
230
1
0
CIRCLE
5
113
100
AcDbEntity
8
0
100
AcDbCircle
10
-72.137213562373091
20
238.35797374669318
30
0
40
1.7500000000000071
210
-2.3719945372268682e-81
220
3.4184043884735275e-64
230
1
0
CIRCLE
5
114
100
AcDbEntity
8
0
100
AcDbCircle
10
72.137213562373091
20
238.35797374669318
30
0
40
1.7500000000000071
210
-2.3719945372268682e-81
220
3.4184043884735275e-64
230
1
0
LWPOLYLINE
5
115
100
AcDbEntity
8
0
100
AcDbPolyline
90
30
70
1
43
0.0
10
152.32780062594483
20
-164.66666666666441
42
0.21342176528338855
10
157.54529257344439
20
-166.99999999999775
10
220.30000014901159
20
-167.0000000000008
42
0.41421356237309503
10
225.00000014901161
20
-162.30000000000081
10
225.00000014901161
20
226.39999998510712
42
0.41421356237309503
10
223.00000014901158
20
228.39999998510709
10
210.10000014901149
20
228.39999998510709
42
-0.36327082628399349
10
203.79999581277372
20
233.67308138976097
10
203.79999581277372
20
245.00000499188872
42
0.41421356237308682
10
199.99999582767492
20
248.80000497698759
10
188.6730293256571
20
248.80000497698751
42
-0.36326848760566693
10
183.39999998506781
20
255.09999999999957
10
183.39999998506784
20
268.00000000000034
42
0.41421356237310025
10
181.39999998506781
20
270.00000000000034
10
-181.39999998506781
20
270.00000000000034
42
0.41421356237309503
10
-183.39999998506781
20
268.00000000000034
10
-183.39999998506781
20
255.09999999999957
42
-0.36326848760566383
10
-188.67302932565696
20
248.80000497698759
10
-199.99999582767475
20
248.80000497698759
42
0.41421356237309775
10
-203.79999581277366
20
245.0000049918886
10
-203.79999581277363
20
233.67308138976099
42
-0.36327082628398744
10
-210.10000014901129
20
228.39999998510709
10
-223.00000014901161
20
228.39999998510712
42
0.41421356237309503
10
-225.00000014901161
20
226.39999998510712
10
-225.00000014901147
20
-162.30000000000089
42
0.41421356237309059
10
-220.30000014901151
20
-167.00000000000091
10
-155.5452922754213
20
-166.99999999999775
42
0.21342176528339232
10
-150.32780032792178
20
-164.66666666666444
42
-0.21342176528338974
10
-146.6010203654221
20
-162.99999999999778
10
148.60102066344518
20
-162.99999999999773
42
-0.2134217652833888
0
CIRCLE
5
116
100
AcDbEntity
8
0
100
AcDbCircle
10
-190.00000014901147
20
-157.00000161677701
30
0
40
1.7500000000000071
210
-2.3719945372268682e-81
220
3.4184043884735275e-64
230
1
0
CIRCLE
5
117
100
AcDbEntity
8
0
100
AcDbCircle
10
-215.00000014901147
20
-157.00000042797109
30
0
40
1.7500000000000071
210
-2.3719945372268682e-81
220
3.4184043884735275e-64
230
1
0
CIRCLE
5
118
100
AcDbEntity
8
0
100
AcDbCircle
10
190.00000014901158
20
-157.00000161677693
30
0
40
1.7499999999999716
210
-2.5037720115172493e-81
220
3.6083157433887235e-64
230
1
0
CIRCLE
5
119
100
AcDbEntity
8
0
100
AcDbCircle
10
165.00000014901156
20
-157.00000280558277
30
0
40
1.7500000000000071
210
-2.3719945372268682e-81
220
3.4184043884735275e-64
230
1
0
CIRCLE
5
120
100
AcDbEntity
8
0
100
AcDbCircle
10
215.00000014901158
20
-157.000000427971
30
0
40
1.7500000000000071
210
-2.3719945372268682e-81
220
3.4184043884735275e-64
230
1
0
CIRCLE
5
121
100
AcDbEntity
8
0
100
AcDbCircle
10
-165.00000014901144
20
-157.00000280558285
30
0
40
1.7500000000000071
210
-2.3719945372268682e-81
220
3.4184043884735275e-64
230
1
0
LWPOLYLINE
5
122
100
AcDbEntity
8
0
100
AcDbPolyline
90
30
70
1
43
0.0
10
23.974281214097104
20
-47.110154294457004
10
15.256366801132156
20
-52.143444527554379
42
-0.06635500624390292
10
13.815698604090198
20
-52.335481156728292
10
-13.815698604055109
20
-52.335481156729138
42
-0.066355006243490666
10
-15.256366801088571
20
-52.143444527557612
10
-23.974281214064384
20
-47.110154294447248
42
-0.41421356237309431
10
-24.523319319739866
20
-45.061116188770285
10
-21.506297518697473
20
-39.835481141828815
42
0.26794919243127729
10
-21.506297518694723
20
-30.335481141824072
10
-64.230217430121726
20
43.664518843271267
42
-0.26794919243112214
10
-64.230217430121726
20
54.164518843271281
10
-51.830311944514158
20
75.641785153395574
10
-43.808969655975133
20
93.667050545017631
42
-0.29626415069230372
10
-36.49999999998424
20
98.414518828368998
10
-21.499999999984226
20
98.414518828368898
42
-0.36104797181011566
10
-13.636310369376037
20
91.885023977446721
10
-11.737459062136262
20
81.730705684734545
42
0.36104797180997705
10
-10.75449785831074
20
80.914518828369268
10
10.754497858341665
20
80.914518828369268
42
0.36104797181012549
10
11.73745906216768
20
81.730705684734545
10
13.636310369407504
20
91.88502397744665
42
-0.36104797181011861
10
21.500000000015717
20
98.414518828368813
10
36.500000000015724
20
98.414518828368855
42
-0.29626415069230511
10
43.808969656006582
20
93.667050545017503
10
51.830311944549848
20
75.641785153395489
10
64.230217430157367
20
54.164518843271203
42
-0.26794919243112192
10
64.230217430157353
20
43.664518843271203
10
21.50629751872841
20
-30.335481141827245
42
0.26794919243117549
10
21.50629751872934
20
-39.835481141828865
10
24.523319319773776
20
-45.061116188780339
42
-0.41421356237309237
0
ENDSEC
0
SECTION
2
OBJECTS
0
DICTIONARY
5
C
100
AcDbDictionary
3
ACAD_GROUP
350
D
3
ACAD_MLINESTYLE
350
17
0
DICTIONARY
5
D
100
AcDbDictionary
0
DICTIONARY
5
1A
330
C
100
AcDbDictionary
0
DICTIONARY
5
17
100
AcDbDictionary
0
ENDSEC
0
EOF
