0
SECTION
2
HEADER
9
$INSUNITS
70
4
9
$ACADVER
1
AC1014
9
$HANDSEED
5
FFFF
0
ENDSEC
0
SECTION
2
TABLES
0
TABLE
2
VPORT
5
8
100
AcDbSymbolTable
0
ENDTAB
0
TABLE
2
LTYPE
5
5
100
AcDbSymbolTable
0
LTYPE
5
14
100
AcDbSymbolTableRecord
100
AcDbLinetypeTableRecord
2
BYBLOCK
70
0
0
LTYPE
5
15
100
AcDbSymbolTableRecord
100
AcDbLinetypeTableRecord
2
BYLAYER
70
0
0
LTYPE
5
16
100
AcDbSymbolTableRecord
100
AcDbLinetypeTableRecord
2
DASHED
70
0
3
Dashed __ __ __ __ __ __ __ __ __ __ __ __ __ _
72
65
73
2
40
0.75
49
0.5
74
0
49
-0.25
74
0
0
ENDTAB
0
TABLE
2
LAYER
5
2
100
AcDbSymbolTable
70
2
0
LAYER
5
50
100
AcDbSymbolTableRecord
100
AcDbLayerTableRecord
2
0
70
0
62
7
6
CONTINUOUS
0
ENDTAB
0
TABLE
2
STYLE
5
3
100
AcDbSymbolTable
70
1
0
STYLE
5
11
100
AcDbSymbolTableRecord
100
AcDbTextStyleTableRecord
2
STANDARD
70
0
0
ENDTAB
0
TABLE
2
VIEW
5
6
100
AcDbSymbolTable
70
0
0
ENDTAB
0
TABLE
2
UCS
5
7
100
AcDbSymbolTable
70
0
0
ENDTAB
0
TABLE
2
APPID
5
9
100
AcDbSymbolTable
70
2
0
APPID
5
12
100
AcDbSymbolTableRecord
100
AcDbRegAppTableRecord
2
ACAD
70
0
0
ENDTAB
0
TABLE
2
DIMSTYLE
5
A
100
AcDbSymbolTable
70
1
0
ENDTAB
0
TABLE
2
BLOCK_RECORD
5
1
100
AcDbSymbolTable
70
1
0
BLOCK_RECORD
5
1F
100
AcDbSymbolTableRecord
100
AcDbBlockTableRecord
2
*MODEL_SPACE
0
BLOCK_RECORD
5
1B
100
AcDbSymbolTableRecord
100
AcDbBlockTableRecord
2
*PAPER_SPACE
0
ENDTAB
0
ENDSEC
0
SECTION
2
BLOCKS
0
BLOCK
5
20
100
AcDbEntity
100
AcDbBlockBegin
2
*MODEL_SPACE
0
ENDBLK
5
21
100
AcDbEntity
100
AcDbBlockEnd
0
BLOCK
5
1C
100
AcDbEntity
100
AcDbBlockBegin
2
*PAPER_SPACE
0
ENDBLK
5
1D
100
AcDbEntity
100
AcDbBlockEnd
0
ENDSEC
0
SECTION
2
ENTITIES
0
LWPOLYLINE
5
100
100
AcDbEntity
8
0
100
AcDbPolyline
90
6
70
1
43
0.0
10
236.10288795421013
20
241.89101761168942
10
236.1028879542103
20
246.39101498908707
10
240.00000000000014
20
248.64101367778576
10
240.99999999999639
20
248.06366340859827
10
240.99999999999639
20
240.21836919217805
10
239.99999999999977
20
239.64101892299044
0
LWPOLYLINE
5
101
100
AcDbEntity
8
0
100
AcDbPolyline
90
6
70
1
43
0.0
10
199.99999999999616
20
170.35898662023749
10
198.9999999999965
20
170.93633688942697
10
198.9999999999965
20
178.78163110584322
10
199.99999999999653
20
179.35898137503284
10
203.89711204578614
20
177.10898268633383
10
203.89711204578603
20
172.60898530893621
0
LWPOLYLINE
5
102
100
AcDbEntity
8
0
100
AcDbPolyline
90
6
70
1
43
0.0
10
236.10288795420743
20
189.92949338462319
10
236.1028879542076
20
194.42949076202083
10
239.99999999999744
20
196.67948945071953
10
240.99999999999639
20
196.10213918153039
10
240.99999999999639
20
188.25684496511337
10
239.9999999999971
20
187.67949469592421
0
LWPOLYLINE
5
103
100
AcDbEntity
8
0
100
AcDbPolyline
90
6
70
1
43
0.0
10
236.10288795420837
20
207.25000146031192
10
236.10288795420854
20
211.7499988377096
10
239.99999999999829
20
213.99999752640827
10
240.99999999999636
20
213.42264725721975
10
240.99999999999639
20
205.57735304080165
10
239.99999999999798
20
205.00000277161294
0
LWPOLYLINE
5
104
100
AcDbEntity
8
0
100
AcDbPolyline
90
5
70
1
43
0.0
10
211.10288795420533
20
150.47787100307647
42
0.096536381193239068
10
218.89711204578472
20
148.52898114276275
10
218.89711204578478
20
151.12822057279993
10
214.99999999999517
20
153.37821926149888
10
211.10288795420541
20
151.12822057280022
0
LWPOLYLINE
5
105
100
AcDbEntity
8
0
100
AcDbPolyline
90
5
70
1
43
0.0
10
221.10288795421155
20
267.87177972522335
10
221.10288795421167
20
270.47101915526389
42
-0.096536381193222082
10
228.897112045791
20
268.52212929495045
10
228.89711204579098
20
267.87177972522312
10
225.00000000000117
20
265.6217810365244
0
LWPOLYLINE
5
106
100
AcDbEntity
8
0
100
AcDbPolyline
90
6
70
1
43
0.0
10
199.9999999999971
20
187.67949469592628
10
198.9999999999965
20
188.2568449651163
10
198.9999999999965
20
196.10213918153147
10
199.99999999999744
20
196.67948945072163
10
203.89711204578705
20
194.42949076202265
10
203.89711204578697
20
189.92949338462495
0
LWPOLYLINE
5
107
100
AcDbEntity
8
0
100
AcDbPolyline
90
5
70
1
43
0.0
10
211.10288795421155
20
267.87177972522386
10
211.10288795421158
20
268.52212929495181
42
-0.096536381193219847
10
218.89711204579103
20
270.471019155264
10
218.897112045791
20
267.87177972522363
10
215.00000000000117
20
265.62178103652491
0
LWPOLYLINE
5
108
100
AcDbEntity
8
0
100
AcDbPolyline
90
3
70
1
43
0.0
10
203.89711204578526
20
159.7884746106451
10
203.89711204578515
20
156.02049720809748
42
-0.08007734910219079
10
200.47724925063247
20
161.76293331601829
0
LWPOLYLINE
5
109
100
AcDbEntity
8
0
100
AcDbPolyline
90
6
70
1
43
0.0
10
236.10288795420649
20
172.60898530893442
10
236.10288795420669
20
177.10898268633207
10
239.99999999999653
20
179.35898137503077
10
240.99999999999639
20
178.78163110584114
10
240.99999999999639
20
170.93633688942509
10
239.99999999999616
20
170.35898662023541
0
LWPOLYLINE
5
110
100
AcDbEntity
8
0
100
AcDbPolyline
90
6
70
1
43
0.0
10
236.10288795420922
20
224.57050953600066
10
236.10288795420939
20
229.07050691339833
10
239.9999999999992
20
231.32050560209703
10
240.99999999999639
20
230.74315533290894
10
240.99999999999639
20
222.89786111648979
10
239.99999999999886
20
222.32051084730173
0
LWPOLYLINE
5
111
100
AcDbEntity
8
0
100
AcDbPolyline
90
6
70
1
43
0.0
10
199.99999999999977
20
239.64101892299254
10
198.9999999999965
20
240.21836919218413
10
198.9999999999965
20
248.06366340859614
10
200.00000000000014
20
248.64101367778787
10
203.89711204578975
20
246.39101498908889
10
203.89711204578964
20
241.89101761169121
0
LWPOLYLINE
5
112
100
AcDbEntity
8
0
100
AcDbPolyline
90
5
70
1
43
0.0
10
221.10288795420527
20
148.5289811427626
42
0.096536381193236681
10
228.89711204578472
20
150.47787100307514
10
228.89711204578478
20
151.12822057279942
10
224.99999999999517
20
153.37821926149837
10
221.10288795420541
20
151.12822057279973
0
LWPOLYLINE
5
113
100
AcDbEntity
8
0
100
AcDbPolyline
90
3
70
1
43
0.0
10
236.10288795421104
20
259.21152568737824
10
236.10288795421121
20
262.97950308993092
42
-0.080077349102285991
10
239.52275074936838
20
257.23706698200237
0
LWPOLYLINE
5
114
100
AcDbEntity
8
0
100
AcDbPolyline
90
6
70
1
43
0.0
10
199.99999999999801
20
205.00000277161504
10
198.99999999999653
20
205.57735304080558
10
198.9999999999965
20
213.42264725721975
10
199.99999999999832
20
213.99999752641037
10
203.89711204578799
20
211.74999883771139
10
203.89711204578782
20
207.25000146031368
0
LWPOLYLINE
5
115
100
AcDbEntity
8
0
100
AcDbPolyline
90
6
70
1
43
0.0
10
221.10288795420792
20
198.58974742246829
10
221.10288795420811
20
203.08974479986597
10
224.99999999999787
20
205.33974348856464
10
228.89711204578748
20
203.08974479986571
10
228.89711204578737
20
198.58974742246801
10
224.99999999999756
20
196.33974873376931
0
LWPOLYLINE
5
116
100
AcDbEntity
8
0
100
AcDbPolyline
90
6
70
1
43
0.0
10
199.99999999999886
20
222.32051084730381
10
198.9999999999965
20
222.89786111649482
10
198.9999999999965
20
230.74315533290797
10
199.9999999999992
20
231.32050560209908
10
203.89711204578884
20
229.07050691340015
10
203.89711204578873
20
224.57050953600253
0
LWPOLYLINE
5
117
100
AcDbEntity
8
0
100
AcDbPolyline
90
3
70
1
43
0.0
10
236.10288795420564
20
156.02049720809501
42
0.080077349102211551
10
239.52275074935986
20
161.76293331601693
10
236.10288795420581
20
159.78847461064331
0
LWPOLYLINE
5
118
100
AcDbEntity
8
0
100
AcDbPolyline
90
3
70
1
43
0.0
10
203.89711204579049
20
259.21152568738
10
200.4772492506317
20
257.23706698200368
42
-0.080077349102311249
10
203.89711204579061
20
262.97950308993359
0
LWPOLYLINE
5
119
100
AcDbEntity
8
0
100
AcDbPolyline
90
6
70
1
43
0.0
10
211.10288795420792
20
198.58974742246886
10
211.10288795420811
20
203.08974479986654
10
214.99999999999787
20
205.3397434885652
10
218.89711204578748
20
203.0897447998662
10
218.89711204578737
20
198.58974742246858
10
214.99999999999756
20
196.33974873376988
0
LWPOLYLINE
5
120
100
AcDbEntity
8
0
100
AcDbPolyline
90
6
70
1
43
0.0
10
221.1028879542061
20
163.94873127109079
10
221.10288795420627
20
168.44872864848844
10
224.99999999999608
20
170.69872733718714
10
228.89711204578572
20
168.44872864848813
10
228.89711204578555
20
163.94873127109051
10
224.99999999999571
20
161.69873258239181
0
LWPOLYLINE
5
121
100
AcDbEntity
8
0
100
AcDbPolyline
90
6
70
1
43
0.0
10
206.10288795420837
20
207.25000146031348
10
206.10288795420854
20
211.74999883771113
10
209.99999999999835
20
213.99999752640983
10
213.89711204578799
20
211.7499988377109
10
213.89711204578782
20
207.2500014603132
10
209.99999999999798
20
205.0000027716145
0
LWPOLYLINE
5
122
100
AcDbEntity
8
0
100
AcDbPolyline
90
6
70
1
43
0.0
10
216.10288795420752
20
189.92949338462415
10
216.10288795420769
20
194.42949076202183
10
219.99999999999744
20
196.67948945072052
10
223.89711204578705
20
194.42949076202157
10
223.89711204578697
20
189.92949338462387
10
219.99999999999713
20
187.6794946959252
0
LWPOLYLINE
5
123
100
AcDbEntity
8
0
100
AcDbPolyline
90
6
70
1
43
0.0
10
231.10288795421064
20
250.5512716495341
10
231.10288795421081
20
255.05126902693178
10
235.00000000000057
20
257.30126771563044
10
238.89711204579018
20
255.05126902693146
10
238.8971120457901
20
250.55127164953382
10
235.00000000000026
20
248.30127296083515
0
LWPOLYLINE
5
124
100
AcDbEntity
8
0
100
AcDbPolyline
90
6
70
1
43
0.0
10
226.10288795420837
20
207.25000146031243
10
226.10288795420854
20
211.74999883771008
10
229.99999999999835
20
213.99999752640878
10
233.89711204578799
20
211.74999883770982
10
233.89711204578782
20
207.25000146031215
10
229.99999999999798
20
205.00000277161345
0
LWPOLYLINE
5
125
100
AcDbEntity
8
0
100
AcDbPolyline
90
6
70
1
43
0.0
10
206.10288795421019
20
241.89101761169098
10
206.10288795421039
20
246.39101498908866
10
210.00000000000014
20
248.64101367778733
10
213.89711204578975
20
246.3910149890884
10
213.89711204578964
20
241.8910176116907
10
209.99999999999983
20
239.641018922992
0
LWPOLYLINE
5
126
100
AcDbEntity
8
0
100
AcDbPolyline
90
6
70
1
43
0.0
10
221.10288795420701
20
181.26923934677956
10
221.10288795420718
20
185.7692367241772
10
224.99999999999702
20
188.0192354128759
10
228.89711204578663
20
185.76923672417695
10
228.89711204578646
20
181.26923934677927
10
224.99999999999662
20
179.01924065808058
0
LWPOLYLINE
5
127
100
AcDbEntity
8
0
100
AcDbPolyline
90
6
70
1
43
0.0
10
211.10288795420885
20
215.9102554981576
10
211.10288795420902
20
220.41025287555527
10
214.99999999999881
20
222.66025156425397
10
218.89711204578842
20
220.41025287555502
10
218.8971120457883
20
215.91025549815731
10
214.99999999999847
20
213.66025680945864
0
LWPOLYLINE
5
128
100
AcDbEntity
8
0
100
AcDbPolyline
90
6
70
1
43
0.0
10
216.10288795421019
20
241.89101761169047
10
216.10288795421039
20
246.39101498908815
10
220.00000000000014
20
248.64101367778684
10
223.89711204578975
20
246.39101498908784
10
223.89711204578964
20
241.89101761169019
10
219.99999999999983
20
239.64101892299152
0
LWPOLYLINE
5
129
100
AcDbEntity
8
0
100
AcDbPolyline
90
6
70
1
43
0.0
10
226.10288795420658
20
172.6089853089349
10
226.10288795420675
20
177.10898268633258
10
229.99999999999653
20
179.35898137503128
10
233.89711204578614
20
177.10898268633227
10
233.89711204578595
20
172.60898530893462
10
229.99999999999613
20
170.35898662023595
0
LWPOLYLINE
5
130
100
AcDbEntity
8
0
100
AcDbPolyline
90
6
70
1
43
0.0
10
201.10288795420885
20
215.91025549815811
10
201.10288795420902
20
220.41025287555578
10
204.99999999999881
20
222.66025156425445
10
208.89711204578842
20
220.41025287555553
10
208.8971120457883
20
215.91025549815782
10
204.99999999999847
20
213.66025680945913
0
LWPOLYLINE
5
131
100
AcDbEntity
8
0
100
AcDbPolyline
90
6
70
1
43
0.0
10
211.10288795420701
20
181.26923934678004
10
211.10288795420718
20
185.76923672417769
10
214.99999999999702
20
188.01923541287638
10
218.89711204578663
20
185.76923672417746
10
218.89711204578646
20
181.26923934677976
10
214.99999999999662
20
179.01924065808106
0
LWPOLYLINE
5
132
100
AcDbEntity
8
0
100
AcDbPolyline
90
6
70
1
43
0.0
10
201.1028879542061
20
163.94873127109184
10
201.10288795420627
20
168.44872864848952
10
204.99999999999608
20
170.69872733718819
10
208.89711204578572
20
168.44872864848924
10
208.89711204578555
20
163.94873127109156
10
204.99999999999571
20
161.69873258239284
0
LWPOLYLINE
5
133
100
AcDbEntity
8
0
100
AcDbPolyline
90
6
70
1
43
0.0
10
231.10288795420877
20
215.91025549815654
10
231.10288795420897
20
220.41025287555419
10
234.99999999999881
20
222.66025156425289
10
238.89711204578842
20
220.41025287555397
10
238.89711204578822
20
215.91025549815626
10
234.99999999999841
20
213.66025680945756
0
LWPOLYLINE
5
134
100
AcDbEntity
8
0
100
AcDbPolyline
90
6
70
1
43
0.0
10
211.10288795421064
20
250.55127164953512
10
211.10288795421081
20
255.05126902693277
10
215.00000000000063
20
257.30126771563147
10
218.89711204579027
20
255.05126902693252
10
218.8971120457901
20
250.55127164953484
10
215.00000000000026
20
248.30127296083614
0
LWPOLYLINE
5
135
100
AcDbEntity
8
0
100
AcDbPolyline
90
6
70
1
43
0.0
10
206.10288795421104
20
259.21152568737972
10
206.10288795421124
20
263.7115230647774
10
210.00000000000108
20
265.96152175347606
10
213.89711204579069
20
263.71152306477717
10
213.89711204579049
20
259.21152568737944
10
210.00000000000068
20
256.96152699868077
0
LWPOLYLINE
5
136
100
AcDbEntity
8
0
100
AcDbPolyline
90
6
70
1
43
0.0
10
231.10288795420971
20
233.23076357384531
10
231.10288795420988
20
237.73076095124296
10
234.99999999999966
20
239.98075963994165
10
238.89711204578927
20
237.7307609512427
10
238.89711204578916
20
233.23076357384502
10
234.99999999999932
20
230.98076488514633
0
LWPOLYLINE
5
137
100
AcDbEntity
8
0
100
AcDbPolyline
90
6
70
1
43
0.0
10
226.10288795421104
20
259.21152568737875
10
226.10288795421124
20
263.71152306477643
10
230.00000000000108
20
265.9615217534751
10
233.89711204579061
20
263.71152306477609
10
233.89711204579049
20
259.21152568737847
10
230.00000000000068
20
256.96152699867974
0
LWPOLYLINE
5
138
100
AcDbEntity
8
0
100
AcDbPolyline
90
6
70
1
43
0.0
10
201.10288795420792
20
198.58974742246937
10
201.10288795420811
20
203.08974479986702
10
204.99999999999787
20
205.33974348856572
10
208.89711204578748
20
203.08974479986676
10
208.89711204578737
20
198.58974742246909
10
204.99999999999756
20
196.33974873377039
0
LWPOLYLINE
5
139
100
AcDbEntity
8
0
100
AcDbPolyline
90
6
70
1
43
0.0
10
231.10288795420701
20
181.26923934677905
10
231.10288795420718
20
185.76923672417672
10
234.99999999999693
20
188.01923541287539
10
238.89711204578657
20
185.76923672417638
10
238.89711204578646
20
181.26923934677876
10
234.99999999999662
20
179.01924065808007
0
LWPOLYLINE
5
140
100
AcDbEntity
8
0
100
AcDbPolyline
90
6
70
1
43
0.0
10
223.89711204578782
20
207.25000146031272
10
219.99999999999798
20
205.00000277161402
10
216.1028879542084
20
207.25000146031294
10
216.10288795420854
20
211.74999883771065
10
219.99999999999835
20
213.99999752640935
10
223.89711204578799
20
211.74999883771034
0
LWPOLYLINE
5
141
100
AcDbEntity
8
0
100
AcDbPolyline
90
6
70
1
43
0.0
10
226.10288795420752
20
189.92949338462367
10
226.10288795420769
20
194.42949076202132
10
229.99999999999744
20
196.67948945072001
10
233.89711204578705
20
194.42949076202109
10
233.89711204578688
20
189.92949338462338
10
229.99999999999704
20
187.67949469592469
0
LWPOLYLINE
5
142
100
AcDbEntity
8
0
100
AcDbPolyline
90
6
70
1
43
0.0
10
216.10288795420928
20
224.57050953600174
10
216.10288795420945
20
229.07050691339941
10
219.9999999999992
20
231.32050560209808
10
223.89711204578884
20
229.07050691339907
10
223.89711204578873
20
224.57050953600145
10
219.99999999999889
20
222.32051084730276
0
LWPOLYLINE
5
143
100
AcDbEntity
8
0
100
AcDbPolyline
90
6
70
1
43
0.0
10
216.10288795420564
20
155.28847723324668
10
216.10288795420584
20
159.78847461064433
10
219.99999999999568
20
162.03847329934302
10
223.89711204578529
20
159.78847461064402
10
223.89711204578509
20
155.2884772332464
10
219.99999999999528
20
153.0384785445477
0
LWPOLYLINE
5
144
100
AcDbEntity
8
0
100
AcDbPolyline
90
6
70
1
43
0.0
10
206.10288795420752
20
189.92949338462472
10
206.10288795420769
20
194.4294907620224
10
209.99999999999744
20
196.67948945072109
10
213.89711204578705
20
194.42949076202208
10
213.89711204578697
20
189.92949338462444
10
209.99999999999713
20
187.67949469592577
0
LWPOLYLINE
5
145
100
AcDbEntity
8
0
100
AcDbPolyline
90
6
70
1
43
0.0
10
226.10288795420928
20
224.57050953600123
10
226.10288795420945
20
229.0705069133989
10
229.9999999999992
20
231.3205056020976
10
233.89711204578884
20
229.07050691339859
10
233.89711204578867
20
224.57050953600094
10
229.99999999999883
20
222.32051084730227
0
LWPOLYLINE
5
146
100
AcDbEntity
8
0
100
AcDbPolyline
90
6
70
1
43
0.0
10
206.10288795420564
20
155.28847723324719
10
206.10288795420584
20
159.78847461064487
10
209.99999999999568
20
162.03847329934354
10
213.89711204578529
20
159.78847461064458
10
213.89711204578509
20
155.28847723324691
10
209.99999999999528
20
153.03847854454824
0
LWPOLYLINE
5
147
100
AcDbEntity
8
0
100
AcDbPolyline
90
6
70
1
43
0.0
10
211.10288795420971
20
233.23076357384636
10
211.10288795420988
20
237.73076095124401
10
214.99999999999972
20
239.9807596399427
10
218.89711204578933
20
237.7307609512437
10
218.89711204578916
20
233.23076357384608
10
214.99999999999932
20
230.98076488514738
0
LWPOLYLINE
5
148
100
AcDbEntity
8
0
100
AcDbPolyline
90
6
70
1
43
0.0
10
231.10288795420786
20
198.58974742246778
10
231.10288795420803
20
203.08974479986546
10
234.99999999999787
20
205.33974348856415
10
238.89711204578748
20
203.0897447998652
10
238.89711204578731
20
198.5897474224675
10
234.99999999999747
20
196.33974873376883
0
LWPOLYLINE
5
149
100
AcDbEntity
8
0
100
AcDbPolyline
90
6
70
1
43
0.0
10
206.10288795420928
20
224.57050953600225
10
206.10288795420945
20
229.0705069133999
10
209.9999999999992
20
231.32050560209859
10
213.89711204578884
20
229.07050691339958
10
213.89711204578873
20
224.57050953600196
10
209.99999999999889
20
222.32051084730327
0
LWPOLYLINE
5
150
100
AcDbEntity
8
0
100
AcDbPolyline
90
6
70
1
43
0.0
10
201.10288795420971
20
233.23076357384684
10
201.10288795420988
20
237.73076095124452
10
204.99999999999972
20
239.98075963994322
10
208.89711204578933
20
237.73076095124426
10
208.89711204578916
20
233.23076357384656
10
204.99999999999932
20
230.98076488514789
0
LWPOLYLINE
5
151
100
AcDbEntity
8
0
100
AcDbPolyline
90
6
70
1
43
0.0
10
216.10288795421104
20
259.21152568737921
10
216.10288795421124
20
263.71152306477688
10
220.00000000000108
20
265.96152175347561
10
223.89711204579069
20
263.71152306477666
10
223.89711204579049
20
259.21152568737898
10
220.00000000000068
20
256.96152699868026
0
LWPOLYLINE
5
152
100
AcDbEntity
8
0
100
AcDbPolyline
90
6
70
1
43
0.0
10
226.10288795420564
20
155.28847723324617
10
226.10288795420584
20
159.78847461064385
10
229.99999999999568
20
162.03847329934248
10
233.89711204578529
20
159.78847461064356
10
233.89711204578509
20
155.28847723324589
10
229.99999999999528
20
153.03847854454716
0
LWPOLYLINE
5
153
100
AcDbEntity
8
0
100
AcDbPolyline
90
6
70
1
43
0.0
10
211.1028879542061
20
163.94873127109128
10
211.10288795420627
20
168.44872864848895
10
214.99999999999608
20
170.69872733718765
10
218.89711204578572
20
168.4487286484887
10
218.89711204578555
20
163.94873127109099
10
214.99999999999571
20
161.69873258239232
0
LWPOLYLINE
5
154
100
AcDbEntity
8
0
100
AcDbPolyline
90
6
70
1
43
0.0
10
221.10288795420971
20
233.23076357384588
10
221.10288795420988
20
237.73076095124352
10
224.99999999999972
20
239.98075963994222
10
228.89711204578933
20
237.73076095124321
10
228.89711204578916
20
233.23076357384559
10
224.99999999999932
20
230.9807648851469
0
LWPOLYLINE
5
155
100
AcDbEntity
8
0
100
AcDbPolyline
90
6
70
1
43
0.0
10
221.10288795421064
20
250.55127164953461
10
221.10288795421081
20
255.05126902693229
10
225.00000000000063
20
257.30126771563096
10
228.89711204579027
20
255.05126902693195
10
228.8971120457901
20
250.55127164953433
10
225.00000000000026
20
248.30127296083563
0
LWPOLYLINE
5
156
100
AcDbEntity
8
0
100
AcDbPolyline
90
6
70
1
43
0.0
10
221.10288795420885
20
215.91025549815711
10
221.10288795420902
20
220.41025287555476
10
224.99999999999881
20
222.66025156425346
10
228.89711204578842
20
220.41025287555445
10
228.8971120457883
20
215.91025549815683
10
224.99999999999847
20
213.66025680945813
0
LWPOLYLINE
5
157
100
AcDbEntity
8
0
100
AcDbPolyline
90
6
70
1
43
0.0
10
201.10288795420701
20
181.26923934678061
10
201.10288795420718
20
185.76923672417826
10
204.99999999999702
20
188.01923541287695
10
208.89711204578663
20
185.76923672417794
10
208.89711204578646
20
181.26923934678032
10
204.99999999999662
20
179.01924065808163
0
LWPOLYLINE
5
158
100
AcDbEntity
8
0
100
AcDbPolyline
90
6
70
1
43
0.0
10
201.10288795421064
20
250.55127164953561
10
201.10288795421081
20
255.05126902693326
10
205.00000000000063
20
257.30126771563198
10
208.89711204579027
20
255.05126902693303
10
208.8971120457901
20
250.55127164953532
10
205.00000000000026
20
248.30127296083663
0
LWPOLYLINE
5
159
100
AcDbEntity
8
0
100
AcDbPolyline
90
6
70
1
43
0.0
10
231.1028879542061
20
163.94873127109031
10
231.10288795420627
20
168.44872864848796
10
234.99999999999602
20
170.6987273371866
10
238.89711204578563
20
168.44872864848767
10
238.89711204578555
20
163.94873127109003
10
234.99999999999571
20
161.6987325823913
0
LWPOLYLINE
5
160
100
AcDbEntity
8
0
100
AcDbPolyline
90
6
70
1
43
0.0
10
216.10288795420658
20
172.60898530893542
10
216.10288795420675
20
177.10898268633309
10
219.99999999999653
20
179.35898137503176
10
223.89711204578614
20
177.10898268633284
10
223.89711204578603
20
172.60898530893513
10
219.99999999999619
20
170.35898662023644
0
LWPOLYLINE
5
161
100
AcDbEntity
8
0
100
AcDbPolyline
90
6
70
1
43
0.0
10
206.10288795420658
20
172.60898530893598
10
206.10288795420675
20
177.10898268633366
10
209.99999999999653
20
179.3589813750323
10
213.89711204578614
20
177.10898268633338
10
213.89711204578603
20
172.6089853089357
10
209.99999999999619
20
170.35898662023698
0
LWPOLYLINE
5
162
100
AcDbEntity
8
0
100
AcDbPolyline
90
6
70
1
43
0.0
10
226.10288795421019
20
241.89101761168999
10
226.10288795421039
20
246.39101498908764
10
230.00000000000014
20
248.64101367778633
10
233.89711204578975
20
246.39101498908732
10
233.89711204578958
20
241.8910176116897
10
229.99999999999974
20
239.64101892299101
0
LWPOLYLINE
5
163
100
AcDbEntity
8
0
100
AcDbPolyline
90
8
70
1
43
0.0
10
247.49999999999972
20
101.75000014901165
42
0.41421356237309764
10
249.49999999999966
20
103.75000014901164
10
249.49999999999972
20
467.49999985099862
42
0.4142135623730846
10
247.49999999999974
20
469.49999985099873
10
192.49999999999983
20
469.49999985099782
42
0.41421356237310542
10
190.49999999999986
20
467.49999985099777
10
190.49999999999986
20
103.75000014901168
42
0.41421356237310025
10
192.49999999999977
20
101.75000014901165
0
LWPOLYLINE
5
164
100
AcDbEntity
8
0
100
AcDbPolyline
90
4
70
1
43
0.0
10
229.99999999999977
20
412.86424054093374
42
0.99999999999999989
10
209.99999999999977
20
412.86424054093374
10
209.99999999999977
20
406.13575916106271
42
0.99999999999999989
10
229.99999999999977
20
406.13575916106271
0
ENDSEC
0
SECTION
2
OBJECTS
0
DICTIONARY
5
C
100
AcDbDictionary
3
ACAD_GROUP
350
D
3
ACAD_MLINESTYLE
350
17
0
DICTIONARY
5
D
100
AcDbDictionary
0
DICTIONARY
5
1A
330
C
100
AcDbDictionary
0
DICTIONARY
5
17
100
AcDbDictionary
0
ENDSEC
0
EOF
