0
SECTION
2
HEADER
9
$INSUNITS
70
4
9
$ACADVER
1
AC1014
9
$HANDSEED
5
FFFF
0
ENDSEC
0
SECTION
2
TABLES
0
TABLE
2
VPORT
5
8
100
AcDbSymbolTable
0
ENDTAB
0
TABLE
2
LTYPE
5
5
100
AcDbSymbolTable
0
LTYPE
5
14
100
AcDbSymbolTableRecord
100
AcDbLinetypeTableRecord
2
BYBLOCK
70
0
0
LTYPE
5
15
100
AcDbSymbolTableRecord
100
AcDbLinetypeTableRecord
2
BYLAYER
70
0
0
LTYPE
5
16
100
AcDbSymbolTableRecord
100
AcDbLinetypeTableRecord
2
DASHED
70
0
3
Dashed __ __ __ __ __ __ __ __ __ __ __ __ __ _
72
65
73
2
40
0.75
49
0.5
74
0
49
-0.25
74
0
0
ENDTAB
0
TABLE
2
LAYER
5
2
100
AcDbSymbolTable
70
2
0
LAYER
5
50
100
AcDbSymbolTableRecord
100
AcDbLayerTableRecord
2
0
70
0
62
7
6
CONTINUOUS
0
ENDTAB
0
TABLE
2
STYLE
5
3
100
AcDbSymbolTable
70
1
0
STYLE
5
11
100
AcDbSymbolTableRecord
100
AcDbTextStyleTableRecord
2
STANDARD
70
0
0
ENDTAB
0
TABLE
2
VIEW
5
6
100
AcDbSymbolTable
70
0
0
ENDTAB
0
TABLE
2
UCS
5
7
100
AcDbSymbolTable
70
0
0
ENDTAB
0
TABLE
2
APPID
5
9
100
AcDbSymbolTable
70
2
0
APPID
5
12
100
AcDbSymbolTableRecord
100
AcDbRegAppTableRecord
2
ACAD
70
0
0
ENDTAB
0
TABLE
2
DIMSTYLE
5
A
100
AcDbSymbolTable
70
1
0
ENDTAB
0
TABLE
2
BLOCK_RECORD
5
1
100
AcDbSymbolTable
70
1
0
BLOCK_RECORD
5
1F
100
AcDbSymbolTableRecord
100
AcDbBlockTableRecord
2
*MODEL_SPACE
0
BLOCK_RECORD
5
1B
100
AcDbSymbolTableRecord
100
AcDbBlockTableRecord
2
*PAPER_SPACE
0
ENDTAB
0
ENDSEC
0
SECTION
2
BLOCKS
0
BLOCK
5
20
100
AcDbEntity
100
AcDbBlockBegin
2
*MODEL_SPACE
0
ENDBLK
5
21
100
AcDbEntity
100
AcDbBlockEnd
0
BLOCK
5
1C
100
AcDbEntity
100
AcDbBlockBegin
2
*PAPER_SPACE
0
ENDBLK
5
1D
100
AcDbEntity
100
AcDbBlockEnd
0
ENDSEC
0
SECTION
2
ENTITIES
0
ARC
5
100
100
AcDbEntity
8
0
100
AcDbCircle
10
240.49999634921619
20
473.59999999995125
30
1.4505628634612364e-44
40
1.9999999999999929
210
-4.3193930398387043e-44
220
-1.9721522630525052e-31
230
1
100
AcDbArc
50
0
51
89.999999999993491
0
LINE
5
101
100
AcDbEntity
8
0
100
AcDbLine
10
240.49999634921642
20
475.59999999995125
30
3.9443045261051414e-31
11
58.501000002490962
21
475.59999999997012
31
0
0
ARC
5
102
100
AcDbEntity
8
0
100
AcDbCircle
10
58.501000002490798
20
473.59999999997012
30
1.1546343547598285e-46
40
1.9999999999999574
210
-2.3111159383920321e-33
220
2.4247321490942924e-46
230
1
100
AcDbArc
50
89.99999999999531
51
180
0
LINE
5
103
100
AcDbEntity
8
0
100
AcDbLine
10
56.50100000249077
20
473.59999999997012
30
-4.6222318767840142e-33
11
56.501000002490748
21
446.99999999997317
31
0
0
ARC
5
104
100
AcDbEntity
8
0
100
AcDbCircle
10
51.501000002490798
20
446.99999999997311
30
-5.8294137746887501e-76
40
4.9999999999999289
210
1.012702302387755e-62
220
8.6530358264029709e-78
230
1
100
AcDbArc
50
-90.000000000000568
51
0
0
LINE
5
105
100
AcDbEntity
8
0
100
AcDbLine
10
51.501000002490748
20
441.99999999997317
30
0
11
32.564863922995961
21
441.99999999997317
31
6.8422776578362129e-48
0
SPLINE
5
106
100
AcDbEntity
8
0
100
AcDbSpline
70
0
71
3
72
10
73
6
74
0
42
0.000000001
43
0.0000000001
44
0.0000000001
40
0
40
0
40
0
40
0
40
0.42655464590619913
40
0.42655464590619913
40
0.8531092918123957
40
0.8531092918123957
40
0.8531092918123957
40
0.8531092918123957
10
24.498338946180386
20
439.64638979304891
30
0
10
25.697089239553101
20
440.41101506086653
30
0
10
26.998491365658058
20
441.00132674492716
30
0
10
29.728361602785846
20
441.79783459336863
30
0
10
31.143015103308642
20
441.99999999997317
30
0
10
32.564863922995961
20
441.99999999997317
30
0
0
SPLINE
5
107
100
AcDbEntity
8
0
100
AcDbSpline
70
0
71
3
72
8
73
4
74
0
42
0.000000001
43
0.0000000001
44
0.0000000001
40
-0.093979024645770015
40
-0.093979024645770015
40
-0.093979024645770015
40
-0.093979024645770015
40
0.42361012469169995
40
0.42361012469169995
40
0.42361012469169995
40
0.42361012469169995
10
24.498338947451543
20
439.64638979385973
30
0
10
22.962691197352751
20
438.66687381034478
30
0
10
21.147625562603501
20
438.14285699384845
30
0
10
19.297097739962407
20
438.14285699384845
30
0
0
LINE
5
108
100
AcDbEntity
8
0
100
AcDbLine
10
19.297097739962407
20
438.14285699384857
30
0
11
-58.294240592124908
21
438.1428569938484
31
1.4012984643248171e-44
0
SPLINE
5
109
100
AcDbEntity
8
0
100
AcDbSpline
70
0
71
3
72
14
73
10
74
0
42
0.000000001
43
0.0000000001
44
0.0000000001
40
-0.42361012469169856
40
-0.42361012469169856
40
-0.42361012469169856
40
-0.42361012469169856
40
-0.38517736905447175
40
-0.38517736905447175
40
-0.38517736905447175
40
0.32047226174925181
40
0.32047226174925181
40
0.32047226174925181
40
1.0645546481902022
40
1.0645546481902022
40
1.0645546481902022
40
1.0645546481902022
10
-58.294240592124908
20
438.1428569938484
30
0
10
-58.431648580098553
20
438.1428569938484
30
0
10
-58.568870530760854
20
438.14567596963218
30
0
10
-58.705803037880443
20
438.15131440575453
30
0
10
-61.219970223966186
20
438.25483964879629
30
0
10
-63.621941721803275
20
439.34963076790888
30
0
10
-65.338553905346245
20
441.17579256206011
30
0
10
-67.148660273104753
20
443.10141508987431
30
0
10
-68.177142854652658
20
445.81832652695874
30
0
10
-68.177142854652672
20
448.62455105052163
30
0
0
LINE
5
110
100
AcDbEntity
8
0
100
AcDbLine
10
-68.177142854652672
20
448.62455105052163
30
0
11
-68.177142854652629
21
473.59999999998354
31
0
0
ARC
5
111
100
AcDbEntity
8
0
100
AcDbCircle
10
-70.177142854652658
20
473.59999999998354
30
-5.2001310199553758e-45
40
2.0000000000000373
210
-2.6000655099776394e-45
220
-1.9721522630525234e-31
230
1
100
AcDbArc
50
0
51
89.999999999993491
0
LINE
5
112
100
AcDbEntity
8
0
100
AcDbLine
10
-70.177142854652431
20
475.59999999998354
30
3.9443045261050511e-31
11
-160.49999634916773
21
475.59999999999292
31
0
0
ARC
5
113
100
AcDbEntity
8
0
100
AcDbCircle
10
-160.4999963491679
20
473.59999999999297
30
-2.1430013624342417e-44
40
1.9999999999999574
210
1.6948183496105244e-32
220
-1.222030789560732e-44
230
1
100
AcDbArc
50
89.999999999995111
51
180
0
LINE
5
114
100
AcDbEntity
8
0
100
AcDbLine
10
-162.49999634916793
20
473.5999999999932
30
3.3896366992196573e-32
11
-162.49999634921662
21
16.399999999993611
31
0
0
ARC
5
115
100
AcDbEntity
8
0
100
AcDbCircle
10
-160.49999634921662
20
16.399999999993383
30
-4.1053665947016125e-45
40
1.9999999999999929
210
-2.0499463862876796e-44
220
-1.97215226305253e-31
230
1
100
AcDbArc
50
180
51
269.99999999999432
0
LINE
5
116
100
AcDbEntity
8
0
100
AcDbLine
10
-160.49999634921681
20
14.399999999993389
30
-3.9443045261050871e-31
11
240.49999634916838
21
14.399999999950751
31
0
0
ARC
5
117
100
AcDbEntity
8
0
100
AcDbCircle
10
240.49999634916858
20
16.39999999995073
30
-1.2795059220153359e-45
40
1.9999999999999796
210
-6.0089014279185261e-32
220
7.0441248502667426e-45
230
1
100
AcDbArc
50
269.99999999999432
51
360
0
LINE
5
118
100
AcDbEntity
8
0
100
AcDbLine
10
242.49999634916858
20
16.399999999950545
30
1.2017802855837313e-31
11
242.49999634921619
21
473.59999999995097
31
4.4841550858394146e-44
0
LWPOLYLINE
5
119
100
AcDbEntity
8
0
100
AcDbPolyline
90
8
70
1
43
0.0
10
172.49999634916855
20
61.399999999951014
10
108.49999634916858
20
61.399999999951021
10
105.49999634916858
20
64.399999999951035
10
105.49999634916858
20
128.39999999995104
10
108.49999634916858
20
131.39999999995104
10
172.49999634916855
20
131.39999999995104
10
175.49999634916855
20
128.39999999995104
10
175.49999634916855
20
64.399999999951007
0
LWPOLYLINE
5
120
100
AcDbEntity
8
0
100
AcDbPolyline
90
3
70
1
43
0.0
10
105.4999963491686
20
61.83614066158551
42
11.260161750071763
10
105.93613701080309
20
61.399999999951056
10
105.49999634916858
20
61.399999999951035
0
LWPOLYLINE
5
121
100
AcDbEntity
8
0
100
AcDbPolyline
90
3
70
1
43
0.0
10
105.93613701080308
20
131.39999999995104
42
11.260161750070996
10
105.49999634916858
20
130.96385933831652
10
105.49999634916858
20
131.39999999995104
0
LWPOLYLINE
5
122
100
AcDbEntity
8
0
100
AcDbPolyline
90
3
70
1
43
0.0
10
175.0638556875341
20
61.399999999951021
42
11.260161750071564
10
175.49999634916855
20
61.836140661585532
10
175.49999634916855
20
61.399999999951021
0
LWPOLYLINE
5
123
100
AcDbEntity
8
0
100
AcDbPolyline
90
3
70
1
43
0.0
10
175.49999634916855
20
130.96385933831658
42
11.260161750071989
10
175.06385568753404
20
131.39999999995101
10
175.49999634916855
20
131.39999999995104
0
ENDSEC
0
SECTION
2
OBJECTS
0
DICTIONARY
5
C
100
AcDbDictionary
3
ACAD_GROUP
350
D
3
ACAD_MLINESTYLE
350
17
0
DICTIONARY
5
D
100
AcDbDictionary
0
DICTIONARY
5
1A
330
C
100
AcDbDictionary
0
DICTIONARY
5
17
100
AcDbDictionary
0
ENDSEC
0
EOF
