0
SECTION
2
HEADER
9
$INSUNITS
70
4
9
$ACADVER
1
AC1014
9
$HANDSEED
5
FFFF
0
ENDSEC
0
SECTION
2
TABLES
0
TABLE
2
VPORT
5
8
100
AcDbSymbolTable
0
ENDTAB
0
TABLE
2
LTYPE
5
5
100
AcDbSymbolTable
0
LTYPE
5
14
100
AcDbSymbolTableRecord
100
AcDbLinetypeTableRecord
2
BYBLOCK
70
0
0
LTYPE
5
15
100
AcDbSymbolTableRecord
100
AcDbLinetypeTableRecord
2
BYLAYER
70
0
0
LTYPE
5
16
100
AcDbSymbolTableRecord
100
AcDbLinetypeTableRecord
2
DASHED
70
0
3
Dashed __ __ __ __ __ __ __ __ __ __ __ __ __ _
72
65
73
2
40
0.75
49
0.5
74
0
49
-0.25
74
0
0
ENDTAB
0
TABLE
2
LAYER
5
2
100
AcDbSymbolTable
70
2
0
LAYER
5
50
100
AcDbSymbolTableRecord
100
AcDbLayerTableRecord
2
0
70
0
62
7
6
CONTINUOUS
0
ENDTAB
0
TABLE
2
STYLE
5
3
100
AcDbSymbolTable
70
1
0
STYLE
5
11
100
AcDbSymbolTableRecord
100
AcDbTextStyleTableRecord
2
STANDARD
70
0
0
ENDTAB
0
TABLE
2
VIEW
5
6
100
AcDbSymbolTable
70
0
0
ENDTAB
0
TABLE
2
UCS
5
7
100
AcDbSymbolTable
70
0
0
ENDTAB
0
TABLE
2
APPID
5
9
100
AcDbSymbolTable
70
2
0
APPID
5
12
100
AcDbSymbolTableRecord
100
AcDbRegAppTableRecord
2
ACAD
70
0
0
ENDTAB
0
TABLE
2
DIMSTYLE
5
A
100
AcDbSymbolTable
70
1
0
ENDTAB
0
TABLE
2
BLOCK_RECORD
5
1
100
AcDbSymbolTable
70
1
0
BLOCK_RECORD
5
1F
100
AcDbSymbolTableRecord
100
AcDbBlockTableRecord
2
*MODEL_SPACE
0
BLOCK_RECORD
5
1B
100
AcDbSymbolTableRecord
100
AcDbBlockTableRecord
2
*PAPER_SPACE
0
ENDTAB
0
ENDSEC
0
SECTION
2
BLOCKS
0
BLOCK
5
20
100
AcDbEntity
100
AcDbBlockBegin
2
*MODEL_SPACE
0
ENDBLK
5
21
100
AcDbEntity
100
AcDbBlockEnd
0
BLOCK
5
1C
100
AcDbEntity
100
AcDbBlockBegin
2
*PAPER_SPACE
0
ENDBLK
5
1D
100
AcDbEntity
100
AcDbBlockEnd
0
ENDSEC
0
SECTION
2
ENTITIES
0
LWPOLYLINE
5
100
100
AcDbEntity
8
0
100
AcDbPolyline
90
28
70
1
43
0.0
10
201.75000000000017
20
32.360055739012161
42
0.41421356237309503
10
203.5000000000002
20
34.110055739012154
10
203.5000000000002
20
455.8899441119836
42
0.41421356237309503
10
201.75000000000017
20
457.63994411198354
10
200.49999988075973
20
457.63994411198354
42
-0.18787482642697953
10
199.41778787326518
20
458.0614632377924
10
193.14534279299903
20
463.82151885759515
42
-0.20999672738382355
10
192.62755480049375
20
464.99999973178609
10
192.62755480049378
20
466.74999985099544
42
0.41421356237311291
10
190.87755480049367
20
468.49999985099544
10
64.000000000000924
20
468.49999985098748
42
0.41421356237309087
10
61.500000000001108
20
465.99999985098742
10
61.500000000000981
20
409.00000000001012
42
-0.41421356237308909
10
40.000000000001499
20
387.50000000001023
10
3.5000000000009557
20
387.50000000001012
42
0.41421356237309531
10
1.0000000000009535
20
385.00000000001012
10
1.0000000000009868
20
32.999999999999972
42
0.41421356237308971
10
3.5000000000009868
20
30.500000000000014
10
28.500000000000981
20
30.500000000000036
42
-0.41421356237309553
10
31.000000000000981
20
28.000000000000028
10
31.000000000000981
20
24.000000000000004
42
0.41421356237309503
10
33.500000000000981
20
21.500000000000004
10
190.87755480049381
20
21.499999999999993
42
0.41421356237309209
10
192.62755480049381
20
23.249999999999975
10
192.62755480049384
20
25.000000119209478
42
-0.20999672738385916
10
193.14534279299917
20
26.178480993400626
10
199.41778787326518
20
31.938536613203262
42
-0.18787482642698963
10
200.49999988075979
20
32.360055739012161
0
CIRCLE
5
101
100
AcDbEntity
8
0
100
AcDbCircle
10
190.24999999996908
20
28.000000000000263
30
0
40
1.7500000000000071
210
9.4081317795243342e-48
220
4.637624243020242e-78
230
1
0
CIRCLE
5
102
100
AcDbEntity
8
0
100
AcDbCircle
10
25.499999653547981
20
296
30
0
40
1.7500000000000071
210
9.4081317795243342e-48
220
4.637624243020242e-78
230
1
0
CIRCLE
5
103
100
AcDbEntity
8
0
100
AcDbCircle
10
13.250000000000986
20
276
30
0
40
1.7500000000000113
210
9.4081317795243354e-48
220
4.637624243020243e-78
230
1
0
CIRCLE
5
104
100
AcDbEntity
8
0
100
AcDbCircle
10
197.49999999996905
20
35.250000000000277
30
0
40
1.7500000000000071
210
9.4081317795243342e-48
220
4.637624243020242e-78
230
1
0
CIRCLE
5
105
100
AcDbEntity
8
0
100
AcDbCircle
10
13.250000000000986
20
215.99999999999997
30
0
40
1.7500000000000113
210
9.4081317795243354e-48
220
4.637624243020243e-78
230
1
0
CIRCLE
5
106
100
AcDbEntity
8
0
100
AcDbCircle
10
190.24999999996905
20
461.99999985099538
30
3.5527136788005009e-14
40
1.7499999999999716
210
1.2325951644078318e-32
220
6.0759280909820477e-63
230
1
0
CIRCLE
5
107
100
AcDbEntity
8
0
100
AcDbCircle
10
69.000000000013983
20
451.25000886983287
30
0
40
1.749999999999998
210
9.4081317795243354e-48
220
4.637624243020244e-78
230
1
0
CIRCLE
5
108
100
AcDbEntity
8
0
100
AcDbCircle
10
69.000000000013983
20
416.75000886983287
30
0
40
1.749999999999998
210
9.4081317795243354e-48
220
4.637624243020244e-78
230
1
0
CIRCLE
5
109
100
AcDbEntity
8
0
100
AcDbCircle
10
25.499999653547981
20
195.99999999999997
30
0
40
1.7500000000000071
210
9.4081317795243342e-48
220
4.637624243020242e-78
230
1
0
LWPOLYLINE
5
110
100
AcDbEntity
8
0
100
AcDbPolyline
90
4
70
1
43
0.0
10
9.4000000000009827
20
241.03613054160363
42
0.56001611624736258
10
25.600000000000986
20
241.03613054160363
10
25.600000000000986
20
250.96386945839635
42
0.56001611624736658
10
9.4000000000009862
20
250.96386945839635
0
CIRCLE
5
111
100
AcDbEntity
8
0
100
AcDbCircle
10
197.49999999996902
20
454.74999985099532
30
3.5527136788005009e-14
40
1.7500000000000071
210
9.4081317795243342e-48
220
4.637624243020242e-78
230
1
0
ENDSEC
0
SECTION
2
OBJECTS
0
DICTIONARY
5
C
100
AcDbDictionary
3
ACAD_GROUP
350
D
3
ACAD_MLINESTYLE
350
17
0
DICTIONARY
5
D
100
AcDbDictionary
0
DICTIONARY
5
1A
330
C
100
AcDbDictionary
0
DICTIONARY
5
17
100
AcDbDictionary
0
ENDSEC
0
EOF
