0
SECTION
2
HEADER
9
$INSUNITS
70
4
9
$ACADVER
1
AC1014
9
$HANDSEED
5
FFFF
0
ENDSEC
0
SECTION
2
TABLES
0
TABLE
2
VPORT
5
8
100
AcDbSymbolTable
0
ENDTAB
0
TABLE
2
LTYPE
5
5
100
AcDbSymbolTable
0
LTYPE
5
14
100
AcDbSymbolTableRecord
100
AcDbLinetypeTableRecord
2
BYBLOCK
70
0
0
LTYPE
5
15
100
AcDbSymbolTableRecord
100
AcDbLinetypeTableRecord
2
BYLAYER
70
0
0
LTYPE
5
16
100
AcDbSymbolTableRecord
100
AcDbLinetypeTableRecord
2
DASHED
70
0
3
Dashed __ __ __ __ __ __ __ __ __ __ __ __ __ _
72
65
73
2
40
0.75
49
0.5
74
0
49
-0.25
74
0
0
ENDTAB
0
TABLE
2
LAYER
5
2
100
AcDbSymbolTable
70
2
0
LAYER
5
50
100
AcDbSymbolTableRecord
100
AcDbLayerTableRecord
2
0
70
0
62
7
6
CONTINUOUS
0
ENDTAB
0
TABLE
2
STYLE
5
3
100
AcDbSymbolTable
70
1
0
STYLE
5
11
100
AcDbSymbolTableRecord
100
AcDbTextStyleTableRecord
2
STANDARD
70
0
0
ENDTAB
0
TABLE
2
VIEW
5
6
100
AcDbSymbolTable
70
0
0
ENDTAB
0
TABLE
2
UCS
5
7
100
AcDbSymbolTable
70
0
0
ENDTAB
0
TABLE
2
APPID
5
9
100
AcDbSymbolTable
70
2
0
APPID
5
12
100
AcDbSymbolTableRecord
100
AcDbRegAppTableRecord
2
ACAD
70
0
0
ENDTAB
0
TABLE
2
DIMSTYLE
5
A
100
AcDbSymbolTable
70
1
0
ENDTAB
0
TABLE
2
BLOCK_RECORD
5
1
100
AcDbSymbolTable
70
1
0
BLOCK_RECORD
5
1F
100
AcDbSymbolTableRecord
100
AcDbBlockTableRecord
2
*MODEL_SPACE
0
BLOCK_RECORD
5
1B
100
AcDbSymbolTableRecord
100
AcDbBlockTableRecord
2
*PAPER_SPACE
0
ENDTAB
0
ENDSEC
0
SECTION
2
BLOCKS
0
BLOCK
5
20
100
AcDbEntity
100
AcDbBlockBegin
2
*MODEL_SPACE
0
ENDBLK
5
21
100
AcDbEntity
100
AcDbBlockEnd
0
BLOCK
5
1C
100
AcDbEntity
100
AcDbBlockBegin
2
*PAPER_SPACE
0
ENDBLK
5
1D
100
AcDbEntity
100
AcDbBlockEnd
0
ENDSEC
0
SECTION
2
ENTITIES
0
LWPOLYLINE
5
100
100
AcDbEntity
8
0
100
AcDbPolyline
90
8
70
1
43
0.0
10
-189.99999999993875
20
256.50000000001324
42
0.41421356237309842
10
-202.29999999993876
20
244.20000000001323
10
-202.2999999999391
20
223.80000000001382
42
0.41421356237309337
10
-189.99999999993906
20
211.50000000001376
10
-59.999999999938609
20
211.50000000001381
42
0.41421356237299733
10
-47.699999999938612
20
223.80000000000959
10
-47.699999999938605
20
244.20000000001323
42
0.4142135623730942
10
-59.999999999938609
20
256.50000000001319
0
LWPOLYLINE
5
101
100
AcDbEntity
8
0
100
AcDbPolyline
90
8
70
1
43
0.0
10
47.69999999993864
20
223.80000000000967
10
47.69999999993864
20
244.20000000001323
42
-0.4142135623730967
10
59.999999999938645
20
256.50000000001324
10
189.99999999993878
20
256.50000000001319
42
-0.41421356237309587
10
202.29999999993879
20
244.20000000001323
10
202.29999999993908
20
223.80000000001377
42
-0.41421356237309503
10
189.99999999993912
20
211.50000000001381
10
59.999999999938645
20
211.50000000001384
42
-0.41421356237299567
0
LWPOLYLINE
5
102
100
AcDbEntity
8
0
100
AcDbPolyline
90
32
70
1
43
0.0
10
55.8330019169547
20
527.70096994095024
42
0.26794919243114013
10
55.08300191695475
20
526.40193183527367
10
55.0830019169547
20
524.00000804662704
42
-0.41421356237309503
10
53.583001916954714
20
522.50000804662716
10
42.583001916954721
20
522.50000804662704
42
-0.41421356237309503
10
41.083001916954714
20
524.00000804662704
10
41.0830019169547
20
538.00000804662716
42
0.41421356237309243
10
39.583001916954714
20
539.50000804662716
10
-243.25000000000003
20
539.50000804662704
10
-243.25000000000003
20
529.75
42
-0.31033019540946671
10
-247.25641025641028
20
523.91657861435863
42
0.29122354467400691
10
-249.49140772121012
20
520.8949587915198
42
-0.39383202381066723
10
-250.98772531601443
20
519.5
10
-270
20
519.5
10
-270
20
20.499999999999972
10
-249.50000000000003
20
20.499999999999972
10
-249.50000000000003
20
0
10
249.50000000000003
20
0
10
249.50000000000003
20
20.499999999999972
10
270
20
20.499999999999972
10
270
20
519.5
10
250.98772531601443
20
519.5
42
-0.39383202381066723
10
249.49140772121012
20
520.8949587915198
42
0.29122354467401707
10
247.25641025641028
20
523.91657861435863
42
-0.31033019540946494
10
243.25000000000003
20
529.75
10
243.25000000000003
20
539.50000804662704
10
56.583001916954707
20
539.50000804662704
42
0.41421356237309337
10
55.083001916954728
20
538.00000804662704
10
55.083001916954721
20
535.59808425798042
42
0.26794919243115384
10
55.833001916954686
20
534.29904615230373
42
-0.26794919243113047
10
56.583001916954728
20
533.00000804662704
10
56.583001916954736
20
529.00000804662693
42
-0.26794919243112902
0
LWPOLYLINE
5
103
100
AcDbEntity
8
0
100
AcDbPolyline
90
16
70
1
43
0.0
10
1.2877781622518891
20
487.17135087871469
42
0.19489937370507793
10
4.0721621541470912
20
486.04314575051023
10
12.499999999999945
20
486.04314575050779
42
-0.41421356237309087
10
24.543145750507268
20
474.00000000000028
10
24.5431457505073
20
334.00000000000057
42
-0.4142135623730947
10
12.499999999999931
20
321.95685424949318
10
4.0721621541472963
20
321.95685424949045
42
0.19489937370507809
10
1.2877781622519882
20
320.82864912128593
42
-0.40519020777613651
10
-1.2877770302530467
20
320.82864912128656
42
0.19489937370528618
10
-4.072161022151227
20
321.95685424949272
10
-12.500000000000151
20
321.95685424949289
42
-0.41421356237309176
10
-24.543145750507534
20
334.0000000000004
10
-24.543145750507598
20
474.00000000000011
42
-0.41421356237309542
10
-12.500000000000133
20
486.04314575050756
10
-4.0721610221513949
20
486.04314575050756
42
0.19489937370530894
10
-1.2877770302531886
20
487.17135087871389
42
-0.40519020777616149
0
LWPOLYLINE
5
104
100
AcDbEntity
8
0
100
AcDbPolyline
90
16
70
1
43
0.0
10
59.999999999885354
20
481.19999999989261
10
190.00000000000762
20
481.20000000001517
42
-0.41421356237309503
10
202.19999999997071
20
469.00000000005235
10
202.19999999997069
20
407.17214438512764
42
0.25754274367711277
10
203.22666666663733
20
405.31115301252839
42
-0.55167728436735364
10
203.22666666663741
20
402.68884698750219
42
0.25754274367711705
10
202.19999999997069
20
400.82785561490289
10
202.19999999997083
20
338.9999999999809
42
-0.41421356237316326
10
190.00000000000509
20
326.80000000001229
10
59.999999999873751
20
326.80000000001519
42
-0.41421356237309931
10
47.799999999970368
20
338.99999999991871
10
47.79999999997046
20
400.82785561490277
42
0.25754274367714869
10
46.773333333303725
20
402.68884698750207
42
-0.55167728436738872
10
46.773333333303725
20
405.31115301252845
42
0.25754274367712593
10
47.799999999970417
20
407.17214438512769
10
47.799999999970517
20
468.99999999997783
42
-0.41421356237309614
0
LWPOLYLINE
5
105
100
AcDbEntity
8
0
100
AcDbPolyline
90
16
70
1
43
0.0
10
-190.00000000000762
20
481.20000000001517
10
-59.999999999885354
20
481.19999999989261
42
-0.41421356237309631
10
-47.799999999970524
20
468.99999999997783
10
-47.799999999970453
20
407.17214438512769
42
0.25754274367713959
10
-46.773333333303711
20
405.31115301252845
42
-0.55167728436736496
10
-46.773333333303725
20
402.68884698750207
42
0.25754274367714142
10
-47.79999999997046
20
400.82785561490277
10
-47.799999999970396
20
338.99999999991871
42
-0.41421356237309848
10
-59.999999999873751
20
326.80000000001519
10
-190.00000000000509
20
326.80000000001229
42
-0.41421356237316242
10
-202.19999999997077
20
338.9999999999809
10
-202.19999999997069
20
400.82785561490289
42
0.25754274367713925
10
-203.22666666663741
20
402.6888469875023
42
-0.55167728436732844
10
-203.2266666666373
20
405.31115301252839
42
0.25754274367712038
10
-202.19999999997069
20
407.17214438512764
10
-202.19999999997074
20
469.00000000005235
42
-0.41421356237308904
0
CIRCLE
5
106
100
AcDbEntity
8
0
100
AcDbCircle
10
152.5000000000006
20
46.000000000000099
30
0
40
7.5
210
0
220
0
230
1
0
CIRCLE
5
107
100
AcDbEntity
8
0
100
AcDbCircle
10
172.5000000000006
20
149.99230723708786
30
0
40
1.7500000000000071
210
0
220
0
230
1
0
CIRCLE
5
108
100
AcDbEntity
8
0
100
AcDbCircle
10
152.5000000000006
20
85.000000000000114
30
0
40
25.549999999999997
210
0
220
0
230
1
0
CIRCLE
5
109
100
AcDbEntity
8
0
100
AcDbCircle
10
132.50000000000063
20
149.99230723708786
30
0
40
1.7500000000000071
210
0
220
0
230
1
0
CIRCLE
5
110
100
AcDbEntity
8
0
100
AcDbCircle
10
152.5000000000006
20
120.00000000000011
30
0
40
1.7500000000000071
210
0
220
0
230
1
0
CIRCLE
5
111
100
AcDbEntity
8
0
100
AcDbCircle
10
124.75000000000001
20
510
30
0
40
1.7499999999999716
210
0
220
0
230
1
0
CIRCLE
5
112
100
AcDbEntity
8
0
100
AcDbCircle
10
260
20
125.12500000000003
30
0
40
1.7500000000000071
210
0
220
0
230
1
0
CIRCLE
5
113
100
AcDbEntity
8
0
100
AcDbCircle
10
260
20
414.87500000000006
30
0
40
1.7500000000000071
210
0
220
0
230
1
0
CIRCLE
5
114
100
AcDbEntity
8
0
100
AcDbCircle
10
-260
20
414.87500000000006
30
0
40
1.7500000000000071
210
0
220
0
230
1
0
CIRCLE
5
115
100
AcDbEntity
8
0
100
AcDbCircle
10
-260
20
125.12500000000003
30
0
40
1.7500000000000071
210
0
220
0
230
1
0
CIRCLE
5
116
100
AcDbEntity
8
0
100
AcDbCircle
10
-124.75000000000001
20
510
30
0
40
1.7499999999999716
210
0
220
0
230
1
0
LWPOLYLINE
5
117
100
AcDbEntity
8
0
100
AcDbPolyline
90
24
70
1
43
0.0
10
-110.58256607331936
20
29.599999999999294
42
0.60695548347727701
10
-113.85823105874009
20
23.304347826149986
42
-1.9219462923932644
10
-126.14197475406249
20
23.304347826151741
42
0.60695548347728978
10
-129.41763973948096
20
29.600000000001288
10
-150.00000000000006
20
29.599999999999994
42
-0.12171122277105595
10
-157.17227874918308
20
31.372145526752313
42
0.16487065720567246
10
-160.34261779528575
20
31.876166316063706
42
-0.57031161009782427
10
-163.15366891215334
20
34.540495518686789
42
0.1345494820710775
10
-163.26748304046018
20
37.181183352251722
42
-0.13392489496529611
10
-165.39999999999998
20
45
10
-165.39999999999998
20
155.00000000000003
42
-0.4142135623730947
10
-149.99999999999997
20
170.39999999999998
10
-124.83758179777058
20
170.40000000009317
42
0.18468640511164869
10
-121.50131848903291
20
171.67584276191383
42
-0.38241668709623872
10
-118.49868151117033
20
171.67584276192557
42
0.1846864051112404
10
-115.16241820243083
20
170.40000000013097
10
-89.999999999878085
20
170.40000000022098
42
-0.41421356237261769
10
-74.599999999675703
20
155.00000000012872
10
-74.600000000018952
20
45.000000000024556
42
-0.12153657741594673
10
-76.367211371171635
20
37.837104342402242
42
0.17376882253460363
10
-76.836865956785928
20
34.496445324868155
42
-0.53972667052924228
10
-79.496851656387832
20
31.836541733825321
42
0.17376882253460701
10
-82.837525169873132
20
31.366990269640141
42
-0.12152874630075851
10
-89.999999999972658
20
29.599999999992637
0
CIRCLE
5
118
100
AcDbEntity
8
0
100
AcDbCircle
10
-259.99999999999994
20
290.09999999999985
30
0
40
1.7500000000000071
210
0
220
0
230
1
0
CIRCLE
5
119
100
AcDbEntity
8
0
100
AcDbCircle
10
259.99999999999994
20
290.09999999999985
30
0
40
1.7500000000000071
210
0
220
0
230
1
0
CIRCLE
5
120
100
AcDbEntity
8
0
100
AcDbCircle
10
-259.99999999999994
20
249.90000000000015
30
0
40
1.7500000000000071
210
0
220
0
230
1
0
CIRCLE
5
121
100
AcDbEntity
8
0
100
AcDbCircle
10
259.99999999999994
20
249.90000000000015
30
0
40
1.7500000000000071
210
0
220
0
230
1
0
ENDSEC
0
SECTION
2
OBJECTS
0
DICTIONARY
5
C
100
AcDbDictionary
3
ACAD_GROUP
350
D
3
ACAD_MLINESTYLE
350
17
0
DICTIONARY
5
D
100
AcDbDictionary
0
DICTIONARY
5
1A
330
C
100
AcDbDictionary
0
DICTIONARY
5
17
100
AcDbDictionary
0
ENDSEC
0
EOF
