0
SECTION
2
HEADER
9
$INSUNITS
70
4
9
$ACADVER
1
AC1014
9
$HANDSEED
5
FFFF
0
ENDSEC
0
SECTION
2
TABLES
0
TABLE
2
VPORT
5
8
100
AcDbSymbolTable
0
ENDTAB
0
TABLE
2
LTYPE
5
5
100
AcDbSymbolTable
0
LTYPE
5
14
100
AcDbSymbolTableRecord
100
AcDbLinetypeTableRecord
2
BYBLOCK
70
0
0
LTYPE
5
15
100
AcDbSymbolTableRecord
100
AcDbLinetypeTableRecord
2
BYLAYER
70
0
0
LTYPE
5
16
100
AcDbSymbolTableRecord
100
AcDbLinetypeTableRecord
2
DASHED
70
0
3
Dashed __ __ __ __ __ __ __ __ __ __ __ __ __ _
72
65
73
2
40
0.75
49
0.5
74
0
49
-0.25
74
0
0
ENDTAB
0
TABLE
2
LAYER
5
2
100
AcDbSymbolTable
70
2
0
LAYER
5
50
100
AcDbSymbolTableRecord
100
AcDbLayerTableRecord
2
0
70
0
62
7
6
CONTINUOUS
0
ENDTAB
0
TABLE
2
STYLE
5
3
100
AcDbSymbolTable
70
1
0
STYLE
5
11
100
AcDbSymbolTableRecord
100
AcDbTextStyleTableRecord
2
STANDARD
70
0
0
ENDTAB
0
TABLE
2
VIEW
5
6
100
AcDbSymbolTable
70
0
0
ENDTAB
0
TABLE
2
UCS
5
7
100
AcDbSymbolTable
70
0
0
ENDTAB
0
TABLE
2
APPID
5
9
100
AcDbSymbolTable
70
2
0
APPID
5
12
100
AcDbSymbolTableRecord
100
AcDbRegAppTableRecord
2
ACAD
70
0
0
ENDTAB
0
TABLE
2
DIMSTYLE
5
A
100
AcDbSymbolTable
70
1
0
ENDTAB
0
TABLE
2
BLOCK_RECORD
5
1
100
AcDbSymbolTable
70
1
0
BLOCK_RECORD
5
1F
100
AcDbSymbolTableRecord
100
AcDbBlockTableRecord
2
*MODEL_SPACE
0
BLOCK_RECORD
5
1B
100
AcDbSymbolTableRecord
100
AcDbBlockTableRecord
2
*PAPER_SPACE
0
ENDTAB
0
ENDSEC
0
SECTION
2
BLOCKS
0
BLOCK
5
20
100
AcDbEntity
100
AcDbBlockBegin
2
*MODEL_SPACE
0
ENDBLK
5
21
100
AcDbEntity
100
AcDbBlockEnd
0
BLOCK
5
1C
100
AcDbEntity
100
AcDbBlockBegin
2
*PAPER_SPACE
0
ENDBLK
5
1D
100
AcDbEntity
100
AcDbBlockEnd
0
ENDSEC
0
SECTION
2
ENTITIES
0
LWPOLYLINE
5
100
100
AcDbEntity
8
0
100
AcDbPolyline
90
24
70
1
43
0.0
10
-232.99999999999955
20
519.5
10
-232.99999999999957
20
514.65685424949129
42
-0.19891236737965476
10
-234.17157287525333
20
511.82842712474508
10
-241.8284271247457
20
504.17157287525265
42
-0.19891236737965154
10
-244.65685424949191
20
502.99999999999886
10
-249.5
20
502.99999999999892
10
-249.50000000000006
20
37.500000000000497
10
-244.65685424949129
20
37.500000000000526
42
-0.19891236737965984
10
-241.47487373415174
20
36.181980515339944
10
-233.81801948465943
20
28.525126265847408
42
-0.19891236737965501
10
-232.49999999999892
20
25.343145750508036
10
-232.49999999999892
20
20.5
10
232.49999999999943
20
20.5
10
232.4999999999994
20
25.343145750508782
42
-0.19891236737965592
10
233.81801948465994
20
28.525126265848328
10
241.47487373415245
20
36.181980515340648
42
-0.19891236737965268
10
244.65685424949183
20
37.500000000001137
10
249.5
20
37.500000000001137
10
249.50000000000006
20
502.49999999999949
10
244.65685424949129
20
502.49999999999949
42
-0.1989123673796708
10
241.47487373415174
20
503.81801948466006
10
233.81801948465946
20
511.4748737341526
42
-0.1989123673796693
10
232.49999999999892
20
514.65685424949186
10
232.49999999999892
20
519.5
0
LWPOLYLINE
5
101
100
AcDbEntity
8
0
100
AcDbPolyline
90
3
70
1
43
0.0
10
15.435935394489382
20
334.49999999999994
10
21.999999999999655
20
338.28976446696942
10
28.564064605509994
20
334.49999999999994
0
LWPOLYLINE
5
102
100
AcDbEntity
8
0
100
AcDbPolyline
90
6
70
1
43
0.0
10
8.660254037844112
20
409.5
10
8.660254037844112
20
399.5
10
-3.6193270602780103e-13
20
394.5
10
-8.6602540378447088
20
399.50000000000011
10
-8.6602540378447035
20
409.5
10
-3.2418512319054571e-13
20
414.5
0
LWPOLYLINE
5
103
100
AcDbEntity
8
0
100
AcDbPolyline
90
6
70
1
43
0.0
10
-156.33974596215592
20
352.34232335022705
10
-156.33974596215592
20
342.34232335022705
10
-165.0000000000004
20
337.34232335022705
10
-173.66025403784474
20
342.3423233502271
10
-173.66025403784474
20
352.34232335022705
10
-165.00000000000034
20
357.34232335022705
0
LWPOLYLINE
5
104
100
AcDbEntity
8
0
100
AcDbPolyline
90
6
70
1
43
0.0
10
-134.33974596215592
20
352.34232335022705
10
-134.33974596215592
20
342.34232335022705
10
-143.00000000000037
20
337.34232335022705
10
-151.66025403784474
20
342.3423233502271
10
-151.66025403784471
20
352.34232335022705
10
-143.00000000000034
20
357.34232335022705
0
LWPOLYLINE
5
105
100
AcDbEntity
8
0
100
AcDbPolyline
90
6
70
1
43
0.0
10
-145.33974596215592
20
371.39488223348474
10
-145.33974596215592
20
361.39488223348474
10
-154.00000000000037
20
356.39488223348474
10
-162.66025403784471
20
361.39488223348479
10
-162.66025403784471
20
371.39488223348474
10
-154.00000000000034
20
376.39488223348474
0
LWPOLYLINE
5
106
100
AcDbEntity
8
0
100
AcDbPolyline
90
6
70
1
43
0.0
10
-156.33974596215592
20
390.44744111674231
10
-156.33974596215592
20
380.44744111674231
10
-165.0000000000004
20
375.44744111674231
10
-173.66025403784474
20
380.44744111674243
10
-173.66025403784474
20
390.44744111674231
10
-165.00000000000034
20
395.44744111674231
0
LWPOLYLINE
5
107
100
AcDbEntity
8
0
100
AcDbPolyline
90
6
70
1
43
0.0
10
-112.33974596215592
20
352.34232335022705
10
-112.33974596215592
20
342.34232335022705
10
-121.00000000000038
20
337.34232335022705
10
-129.66025403784474
20
342.3423233502271
10
-129.66025403784474
20
352.34232335022705
10
-121.00000000000036
20
357.34232335022705
0
LWPOLYLINE
5
108
100
AcDbEntity
8
0
100
AcDbPolyline
90
6
70
1
43
0.0
10
-123.33974596215592
20
371.39488223348474
10
-123.33974596215592
20
361.39488223348474
10
-132.0000000000004
20
356.39488223348474
10
-140.66025403784474
20
361.39488223348479
10
-140.66025403784471
20
371.39488223348474
10
-132.00000000000034
20
376.39488223348474
0
LWPOLYLINE
5
109
100
AcDbEntity
8
0
100
AcDbPolyline
90
6
70
1
43
0.0
10
-134.33974596215592
20
390.44744111674231
10
-134.33974596215592
20
380.44744111674231
10
-143.0000000000004
20
375.44744111674231
10
-151.66025403784474
20
380.44744111674243
10
-151.66025403784474
20
390.44744111674231
10
-143.00000000000034
20
395.44744111674231
0
LWPOLYLINE
5
110
100
AcDbEntity
8
0
100
AcDbPolyline
90
6
70
1
43
0.0
10
-145.33974596215592
20
409.5
10
-145.33974596215592
20
399.5
10
-154.00000000000037
20
394.5
10
-162.66025403784471
20
399.50000000000011
10
-162.66025403784471
20
409.5
10
-154.00000000000034
20
414.5
0
LWPOLYLINE
5
111
100
AcDbEntity
8
0
100
AcDbPolyline
90
6
70
1
43
0.0
10
-156.33974596215592
20
428.55255888325769
10
-156.33974596215592
20
418.55255888325769
10
-165.0000000000004
20
413.55255888325769
10
-173.66025403784474
20
418.5525588832578
10
-173.66025403784474
20
428.55255888325769
10
-165.00000000000034
20
433.55255888325769
0
LWPOLYLINE
5
112
100
AcDbEntity
8
0
100
AcDbPolyline
90
6
70
1
43
0.0
10
-90.339745962155888
20
352.34232335022705
10
-90.339745962155888
20
342.34232335022705
10
-99.000000000000369
20
337.34232335022705
10
-107.66025403784471
20
342.3423233502271
10
-107.66025403784471
20
352.34232335022705
10
-99.000000000000341
20
357.34232335022705
0
LWPOLYLINE
5
113
100
AcDbEntity
8
0
100
AcDbPolyline
90
6
70
1
43
0.0
10
-101.33974596215592
20
371.39488223348474
10
-101.33974596215592
20
361.39488223348474
10
-110.0000000000004
20
356.39488223348474
10
-118.66025403784474
20
361.39488223348479
10
-118.66025403784474
20
371.39488223348474
10
-110.00000000000034
20
376.39488223348474
0
LWPOLYLINE
5
114
100
AcDbEntity
8
0
100
AcDbPolyline
90
6
70
1
43
0.0
10
-112.3397459621559
20
390.44744111674231
10
-112.3397459621559
20
380.44744111674231
10
-121.00000000000037
20
375.44744111674231
10
-129.66025403784474
20
380.44744111674243
10
-129.66025403784474
20
390.44744111674231
10
-121.00000000000034
20
395.44744111674231
0
LWPOLYLINE
5
115
100
AcDbEntity
8
0
100
AcDbPolyline
90
6
70
1
43
0.0
10
-123.3397459621559
20
409.5
10
-123.3397459621559
20
399.5
10
-132.00000000000037
20
394.5
10
-140.66025403784471
20
399.50000000000011
10
-140.66025403784471
20
409.5
10
-132.00000000000034
20
414.5
0
LWPOLYLINE
5
116
100
AcDbEntity
8
0
100
AcDbPolyline
90
6
70
1
43
0.0
10
-134.33974596215589
20
428.55255888325769
10
-134.33974596215589
20
418.55255888325769
10
-143.00000000000037
20
413.55255888325769
10
-151.66025403784471
20
418.5525588832578
10
-151.66025403784471
20
428.55255888325769
10
-143.00000000000034
20
433.55255888325769
0
LWPOLYLINE
5
117
100
AcDbEntity
8
0
100
AcDbPolyline
90
6
70
1
43
0.0
10
-145.33974596215589
20
447.60511776651532
10
-145.33974596215589
20
437.60511776651532
10
-154.00000000000037
20
432.60511776651532
10
-162.66025403784471
20
437.60511776651538
10
-162.66025403784471
20
447.60511776651532
10
-154.00000000000031
20
452.60511776651532
0
LWPOLYLINE
5
118
100
AcDbEntity
8
0
100
AcDbPolyline
90
6
70
1
43
0.0
10
-68.339745962155888
20
352.34232335022705
10
-68.339745962155888
20
342.34232335022705
10
-77.000000000000369
20
337.34232335022705
10
-85.660254037844723
20
342.3423233502271
10
-85.660254037844709
20
352.34232335022705
10
-77.000000000000327
20
357.34232335022705
0
LWPOLYLINE
5
119
100
AcDbEntity
8
0
100
AcDbPolyline
90
6
70
1
43
0.0
10
-79.339745962155902
20
371.39488223348474
10
-79.339745962155902
20
361.39488223348474
10
-88.000000000000369
20
356.39488223348474
10
-96.660254037844723
20
361.39488223348479
10
-96.660254037844709
20
371.39488223348474
10
-88.000000000000327
20
376.39488223348474
0
LWPOLYLINE
5
120
100
AcDbEntity
8
0
100
AcDbPolyline
90
6
70
1
43
0.0
10
-90.339745962155888
20
390.44744111674231
10
-90.339745962155888
20
380.44744111674231
10
-99.000000000000369
20
375.44744111674231
10
-107.66025403784471
20
380.44744111674243
10
-107.66025403784471
20
390.44744111674231
10
-99.000000000000327
20
395.44744111674231
0
LWPOLYLINE
5
121
100
AcDbEntity
8
0
100
AcDbPolyline
90
6
70
1
43
0.0
10
-101.33974596215589
20
409.5
10
-101.33974596215589
20
399.5
10
-110.00000000000036
20
394.5
10
-118.66025403784471
20
399.50000000000011
10
-118.66025403784471
20
409.5
10
-110.00000000000031
20
414.5
0
LWPOLYLINE
5
122
100
AcDbEntity
8
0
100
AcDbPolyline
90
6
70
1
43
0.0
10
-112.33974596215589
20
428.55255888325769
10
-112.33974596215589
20
418.55255888325769
10
-121.00000000000037
20
413.55255888325769
10
-129.66025403784471
20
418.5525588832578
10
-129.66025403784471
20
428.55255888325769
10
-121.00000000000031
20
433.55255888325769
0
LWPOLYLINE
5
123
100
AcDbEntity
8
0
100
AcDbPolyline
90
6
70
1
43
0.0
10
-123.33974596215589
20
447.60511776651532
10
-123.33974596215589
20
437.60511776651532
10
-132.00000000000034
20
432.60511776651532
10
-140.66025403784471
20
437.60511776651538
10
-140.66025403784468
20
447.60511776651532
10
-132.00000000000031
20
452.60511776651532
0
LWPOLYLINE
5
124
100
AcDbEntity
8
0
100
AcDbPolyline
90
6
70
1
43
0.0
10
-46.339745962155902
20
352.34232335022705
10
-46.339745962155902
20
342.34232335022705
10
-55.000000000000369
20
337.34232335022705
10
-63.660254037844723
20
342.3423233502271
10
-63.660254037844709
20
352.34232335022705
10
-55.000000000000341
20
357.34232335022705
0
LWPOLYLINE
5
125
100
AcDbEntity
8
0
100
AcDbPolyline
90
6
70
1
43
0.0
10
-57.339745962155902
20
371.39488223348474
10
-57.339745962155902
20
361.39488223348474
10
-66.000000000000384
20
356.39488223348474
10
-74.660254037844723
20
361.39488223348479
10
-74.660254037844723
20
371.39488223348474
10
-66.000000000000341
20
376.39488223348474
0
LWPOLYLINE
5
126
100
AcDbEntity
8
0
100
AcDbPolyline
90
6
70
1
43
0.0
10
-68.339745962155902
20
390.44744111674231
10
-68.339745962155902
20
380.44744111674231
10
-77.000000000000369
20
375.44744111674231
10
-85.660254037844723
20
380.44744111674243
10
-85.660254037844723
20
390.44744111674231
10
-77.000000000000327
20
395.44744111674231
0
LWPOLYLINE
5
127
100
AcDbEntity
8
0
100
AcDbPolyline
90
6
70
1
43
0.0
10
-79.339745962155902
20
409.5
10
-79.339745962155902
20
399.5
10
-88.000000000000369
20
394.5
10
-96.660254037844723
20
399.50000000000011
10
-96.660254037844723
20
409.5
10
-88.000000000000327
20
414.5
0
LWPOLYLINE
5
128
100
AcDbEntity
8
0
100
AcDbPolyline
90
6
70
1
43
0.0
10
-90.339745962155888
20
428.55255888325769
10
-90.339745962155888
20
418.55255888325769
10
-99.000000000000369
20
413.55255888325769
10
-107.66025403784471
20
418.5525588832578
10
-107.66025403784471
20
428.55255888325769
10
-99.000000000000327
20
433.55255888325769
0
LWPOLYLINE
5
129
100
AcDbEntity
8
0
100
AcDbPolyline
90
6
70
1
43
0.0
10
-101.33974596215589
20
447.60511776651532
10
-101.33974596215589
20
437.60511776651532
10
-110.00000000000036
20
432.60511776651532
10
-118.66025403784471
20
437.60511776651538
10
-118.66025403784469
20
447.60511776651532
10
-110.00000000000031
20
452.60511776651532
0
LWPOLYLINE
5
130
100
AcDbEntity
8
0
100
AcDbPolyline
90
6
70
1
43
0.0
10
-24.339745962155899
20
352.34232335022705
10
-24.339745962155899
20
342.34232335022705
10
-33.000000000000377
20
337.34232335022705
10
-41.660254037844723
20
342.3423233502271
10
-41.660254037844723
20
352.34232335022705
10
-33.000000000000334
20
357.34232335022705
0
LWPOLYLINE
5
131
100
AcDbEntity
8
0
100
AcDbPolyline
90
6
70
1
43
0.0
10
-35.339745962155902
20
371.39488223348474
10
-35.339745962155902
20
361.39488223348474
10
-44.000000000000377
20
356.39488223348474
10
-52.660254037844716
20
361.39488223348479
10
-52.660254037844716
20
371.39488223348474
10
-44.000000000000341
20
376.39488223348474
0
LWPOLYLINE
5
132
100
AcDbEntity
8
0
100
AcDbPolyline
90
6
70
1
43
0.0
10
-46.339745962155888
20
390.44744111674231
10
-46.339745962155902
20
380.44744111674231
10
-55.000000000000369
20
375.44744111674231
10
-63.660254037844723
20
380.44744111674243
10
-63.660254037844709
20
390.44744111674231
10
-55.000000000000341
20
395.44744111674231
0
LWPOLYLINE
5
133
100
AcDbEntity
8
0
100
AcDbPolyline
90
6
70
1
43
0.0
10
-57.339745962155895
20
409.5
10
-57.339745962155895
20
399.5
10
-66.000000000000369
20
394.5
10
-74.660254037844723
20
399.50000000000011
10
-74.660254037844709
20
409.5
10
-66.000000000000341
20
414.5
0
LWPOLYLINE
5
134
100
AcDbEntity
8
0
100
AcDbPolyline
90
6
70
1
43
0.0
10
-68.339745962155888
20
428.55255888325769
10
-68.339745962155888
20
418.55255888325769
10
-77.000000000000369
20
413.55255888325769
10
-85.660254037844709
20
418.5525588832578
10
-85.660254037844709
20
428.55255888325769
10
-77.000000000000327
20
433.55255888325769
0
LWPOLYLINE
5
135
100
AcDbEntity
8
0
100
AcDbPolyline
90
6
70
1
43
0.0
10
-79.339745962155888
20
447.60511776651532
10
-79.339745962155888
20
437.60511776651532
10
-88.000000000000369
20
432.60511776651532
10
-96.660254037844709
20
437.60511776651538
10
-96.660254037844709
20
447.60511776651532
10
-88.000000000000327
20
452.60511776651532
0
LWPOLYLINE
5
136
100
AcDbEntity
8
0
100
AcDbPolyline
90
6
70
1
43
0.0
10
-2.339745962155896
20
352.34232335022705
10
-2.339745962155896
20
342.34232335022705
10
-11.000000000000373
20
337.34232335022705
10
-19.660254037844716
20
342.3423233502271
10
-19.660254037844712
20
352.34232335022705
10
-11.000000000000334
20
357.34232335022705
0
LWPOLYLINE
5
137
100
AcDbEntity
8
0
100
AcDbPolyline
90
6
70
1
43
0.0
10
-13.339745962155899
20
371.39488223348474
10
-13.339745962155902
20
361.39488223348474
10
-22.000000000000377
20
356.39488223348474
10
-30.660254037844719
20
361.39488223348479
10
-30.660254037844716
20
371.39488223348474
10
-22.000000000000334
20
376.39488223348474
0
LWPOLYLINE
5
138
100
AcDbEntity
8
0
100
AcDbPolyline
90
6
70
1
43
0.0
10
-24.339745962155895
20
390.44744111674231
10
-24.339745962155899
20
380.44744111674231
10
-33.000000000000369
20
375.44744111674231
10
-41.660254037844723
20
380.44744111674243
10
-41.660254037844709
20
390.44744111674231
10
-33.000000000000334
20
395.44744111674231
0
LWPOLYLINE
5
139
100
AcDbEntity
8
0
100
AcDbPolyline
90
6
70
1
43
0.0
10
-35.339745962155888
20
409.5
10
-35.339745962155895
20
399.5
10
-44.000000000000369
20
394.5
10
-52.660254037844716
20
399.50000000000011
10
-52.660254037844709
20
409.5
10
-44.000000000000334
20
414.5
0
LWPOLYLINE
5
140
100
AcDbEntity
8
0
100
AcDbPolyline
90
6
70
1
43
0.0
10
-46.339745962155888
20
428.55255888325769
10
-46.339745962155888
20
418.55255888325769
10
-55.000000000000362
20
413.55255888325769
10
-63.660254037844709
20
418.5525588832578
10
-63.660254037844702
20
428.55255888325769
10
-55.00000000000032
20
433.55255888325769
0
LWPOLYLINE
5
141
100
AcDbEntity
8
0
100
AcDbPolyline
90
6
70
1
43
0.0
10
-57.339745962155888
20
447.60511776651532
10
-57.339745962155888
20
437.60511776651532
10
-66.000000000000355
20
432.60511776651532
10
-74.660254037844709
20
437.60511776651538
10
-74.660254037844695
20
447.60511776651532
10
-66.000000000000313
20
452.60511776651532
0
LWPOLYLINE
5
142
100
AcDbEntity
8
0
100
AcDbPolyline
90
6
70
1
43
0.0
10
19.660254037844105
20
352.34232335022705
10
19.660254037844105
20
342.34232335022705
10
10.999999999999627
20
337.34232335022705
10
2.339745962155285
20
342.3423233502271
10
2.3397459621552894
20
352.34232335022705
10
10.999999999999668
20
357.34232335022705
0
LWPOLYLINE
5
143
100
AcDbEntity
8
0
100
AcDbPolyline
90
6
70
1
43
0.0
10
8.6602540378441049
20
371.39488223348474
10
8.6602540378441013
20
361.39488223348474
10
-3.7192471324942744e-13
20
356.39488223348474
10
-8.6602540378447159
20
361.39488223348479
10
-8.6602540378447106
20
371.39488223348474
10
-3.3195668436292181e-13
20
376.39488223348474
0
LWPOLYLINE
5
144
100
AcDbEntity
8
0
100
AcDbPolyline
90
6
70
1
43
0.0
10
-2.3397459621558916
20
390.44744111674231
10
-2.3397459621558934
20
380.44744111674231
10
-11.000000000000369
20
375.44744111674231
10
-19.660254037844712
20
380.44744111674243
10
-19.660254037844709
20
390.44744111674231
10
-11.00000000000033
20
395.44744111674231
0
LWPOLYLINE
5
145
100
AcDbEntity
8
0
100
AcDbPolyline
90
6
70
1
43
0.0
10
-13.339745962155888
20
409.5
10
-13.339745962155892
20
399.5
10
-22.000000000000366
20
394.5
10
-30.660254037844709
20
399.50000000000011
10
-30.660254037844705
20
409.5
10
-22.000000000000327
20
414.5
0
LWPOLYLINE
5
146
100
AcDbEntity
8
0
100
AcDbPolyline
90
6
70
1
43
0.0
10
-24.339745962155884
20
428.55255888325769
10
-24.339745962155888
20
418.55255888325769
10
-33.000000000000362
20
413.55255888325769
10
-41.660254037844702
20
418.5525588832578
10
-41.660254037844702
20
428.55255888325769
10
-33.00000000000032
20
433.55255888325769
0
LWPOLYLINE
5
147
100
AcDbEntity
8
0
100
AcDbPolyline
90
6
70
1
43
0.0
10
-35.339745962155881
20
447.60511776651532
10
-35.339745962155888
20
437.60511776651532
10
-44.000000000000355
20
432.60511776651532
10
-52.660254037844695
20
437.60511776651538
10
-52.660254037844695
20
447.60511776651532
10
-44.000000000000327
20
452.60511776651532
0
LWPOLYLINE
5
148
100
AcDbEntity
8
0
100
AcDbPolyline
90
6
70
1
43
0.0
10
41.660254037844105
20
352.34232335022705
10
41.660254037844105
20
342.34232335022705
10
32.999999999999631
20
337.34232335022705
10
24.339745962155284
20
342.3423233502271
10
24.339745962155291
20
352.34232335022705
10
32.999999999999673
20
357.34232335022705
0
LWPOLYLINE
5
149
100
AcDbEntity
8
0
100
AcDbPolyline
90
6
70
1
43
0.0
10
30.660254037844105
20
371.39488223348474
10
30.660254037844101
20
361.39488223348474
10
21.999999999999631
20
356.39488223348474
10
13.339745962155284
20
361.39488223348479
10
13.339745962155289
20
371.39488223348474
10
21.99999999999967
20
376.39488223348474
0
LWPOLYLINE
5
150
100
AcDbEntity
8
0
100
AcDbPolyline
90
6
70
1
43
0.0
10
19.660254037844108
20
390.44744111674231
10
19.660254037844108
20
380.44744111674231
10
10.999999999999632
20
375.44744111674231
10
2.3397459621552885
20
380.44744111674243
10
2.339745962155293
20
390.44744111674231
10
10.999999999999673
20
395.44744111674231
0
LWPOLYLINE
5
151
100
AcDbEntity
8
0
100
AcDbPolyline
90
6
70
1
43
0.0
10
-2.3397459621558836
20
428.55255888325769
10
-2.3397459621558845
20
418.55255888325769
10
-11.000000000000361
20
413.55255888325769
10
-19.660254037844705
20
418.5525588832578
10
-19.660254037844702
20
428.55255888325769
10
-11.00000000000032
20
433.55255888325769
0
LWPOLYLINE
5
152
100
AcDbEntity
8
0
100
AcDbPolyline
90
6
70
1
43
0.0
10
-13.339745962155881
20
447.60511776651532
10
-13.339745962155883
20
437.60511776651532
10
-22.000000000000355
20
432.60511776651532
10
-30.660254037844702
20
437.60511776651538
10
-30.660254037844695
20
447.60511776651532
10
-22.000000000000316
20
452.60511776651532
0
LWPOLYLINE
5
153
100
AcDbEntity
8
0
100
AcDbPolyline
90
6
70
1
43
0.0
10
63.660254037844112
20
352.34232335022705
10
63.660254037844112
20
342.34232335022705
10
54.999999999999631
20
337.34232335022705
10
46.339745962155291
20
342.3423233502271
10
46.339745962155291
20
352.34232335022705
10
54.999999999999673
20
357.34232335022705
0
LWPOLYLINE
5
154
100
AcDbEntity
8
0
100
AcDbPolyline
90
6
70
1
43
0.0
10
52.660254037844112
20
371.39488223348474
10
52.660254037844105
20
361.39488223348474
10
43.999999999999631
20
356.39488223348474
10
35.339745962155284
20
361.39488223348479
10
35.339745962155291
20
371.39488223348474
10
43.999999999999666
20
376.39488223348474
0
LWPOLYLINE
5
155
100
AcDbEntity
8
0
100
AcDbPolyline
90
6
70
1
43
0.0
10
41.660254037844112
20
390.44744111674231
10
41.660254037844105
20
380.44744111674231
10
32.999999999999631
20
375.44744111674231
10
24.339745962155291
20
380.44744111674243
10
24.339745962155295
20
390.44744111674231
10
32.999999999999673
20
395.44744111674231
0
LWPOLYLINE
5
156
100
AcDbEntity
8
0
100
AcDbPolyline
90
6
70
1
43
0.0
10
30.660254037844116
20
409.5
10
30.660254037844112
20
399.5
10
21.999999999999638
20
394.5
10
13.339745962155295
20
399.50000000000011
10
13.339745962155298
20
409.5
10
21.999999999999677
20
414.5
0
LWPOLYLINE
5
157
100
AcDbEntity
8
0
100
AcDbPolyline
90
6
70
1
43
0.0
10
19.660254037844119
20
428.55255888325769
10
19.660254037844116
20
418.55255888325769
10
10.999999999999641
20
413.55255888325769
10
2.3397459621552983
20
418.5525588832578
10
2.3397459621553027
20
428.55255888325769
10
10.99999999999968
20
433.55255888325769
0
LWPOLYLINE
5
158
100
AcDbEntity
8
0
100
AcDbPolyline
90
6
70
1
43
0.0
10
8.6602540378441226
20
447.60511776651532
10
8.6602540378441208
20
437.60511776651532
10
-3.5416114485542494e-13
20
432.60511776651532
10
-8.6602540378446982
20
437.60511776651538
10
-8.6602540378446928
20
447.60511776651532
10
-3.141931159689193e-13
20
452.60511776651532
0
LWPOLYLINE
5
159
100
AcDbEntity
8
0
100
AcDbPolyline
90
6
70
1
43
0.0
10
85.660254037844112
20
352.34232335022705
10
85.660254037844112
20
342.34232335022705
10
76.999999999999631
20
337.34232335022705
10
68.339745962155291
20
342.3423233502271
10
68.339745962155291
20
352.34232335022705
10
76.999999999999673
20
357.34232335022705
0
LWPOLYLINE
5
160
100
AcDbEntity
8
0
100
AcDbPolyline
90
6
70
1
43
0.0
10
74.660254037844112
20
371.39488223348474
10
74.660254037844112
20
361.39488223348474
10
65.999999999999631
20
356.39488223348474
10
57.339745962155284
20
361.39488223348479
10
57.339745962155291
20
371.39488223348474
10
65.999999999999673
20
376.39488223348474
0
LWPOLYLINE
5
161
100
AcDbEntity
8
0
100
AcDbPolyline
90
6
70
1
43
0.0
10
63.660254037844112
20
390.44744111674231
10
63.660254037844112
20
380.44744111674231
10
54.999999999999638
20
375.44744111674231
10
46.339745962155291
20
380.44744111674243
10
46.339745962155298
20
390.44744111674231
10
54.99999999999968
20
395.44744111674231
0
LWPOLYLINE
5
162
100
AcDbEntity
8
0
100
AcDbPolyline
90
6
70
1
43
0.0
10
52.660254037844112
20
409.5
10
52.660254037844112
20
399.5
10
43.999999999999638
20
394.5
10
35.339745962155298
20
399.50000000000011
10
35.339745962155298
20
409.5
10
43.999999999999673
20
414.5
0
LWPOLYLINE
5
163
100
AcDbEntity
8
0
100
AcDbPolyline
90
6
70
1
43
0.0
10
41.660254037844112
20
428.55255888325769
10
41.660254037844112
20
418.55255888325769
10
32.999999999999645
20
413.55255888325769
10
24.339745962155298
20
418.5525588832578
10
24.339745962155305
20
428.55255888325769
10
32.99999999999968
20
433.55255888325769
0
LWPOLYLINE
5
164
100
AcDbEntity
8
0
100
AcDbPolyline
90
6
70
1
43
0.0
10
30.660254037844123
20
447.60511776651532
10
30.660254037844119
20
437.60511776651532
10
21.999999999999645
20
432.60511776651532
10
13.339745962155302
20
437.60511776651538
10
13.339745962155307
20
447.60511776651532
10
21.999999999999687
20
452.60511776651532
0
LWPOLYLINE
5
165
100
AcDbEntity
8
0
100
AcDbPolyline
90
6
70
1
43
0.0
10
107.66025403784411
20
352.34232335022705
10
107.66025403784411
20
342.34232335022705
10
98.999999999999631
20
337.34232335022705
10
90.339745962155291
20
342.3423233502271
10
90.339745962155291
20
352.34232335022705
10
98.999999999999659
20
357.34232335022705
0
LWPOLYLINE
5
166
100
AcDbEntity
8
0
100
AcDbPolyline
90
6
70
1
43
0.0
10
96.660254037844112
20
371.39488223348474
10
96.660254037844098
20
361.39488223348474
10
87.999999999999631
20
356.39488223348474
10
79.339745962155291
20
361.39488223348479
10
79.339745962155291
20
371.39488223348474
10
87.999999999999673
20
376.39488223348474
0
LWPOLYLINE
5
167
100
AcDbEntity
8
0
100
AcDbPolyline
90
6
70
1
43
0.0
10
85.660254037844112
20
390.44744111674231
10
85.660254037844112
20
380.44744111674231
10
76.999999999999631
20
375.44744111674231
10
68.339745962155291
20
380.44744111674243
10
68.339745962155291
20
390.44744111674231
10
76.999999999999673
20
395.44744111674231
0
LWPOLYLINE
5
168
100
AcDbEntity
8
0
100
AcDbPolyline
90
6
70
1
43
0.0
10
74.660254037844112
20
409.5
10
74.660254037844112
20
399.5
10
65.999999999999645
20
394.5
10
57.339745962155291
20
399.50000000000011
10
57.339745962155305
20
409.5
10
65.999999999999673
20
414.5
0
LWPOLYLINE
5
169
100
AcDbEntity
8
0
100
AcDbPolyline
90
6
70
1
43
0.0
10
63.660254037844119
20
428.55255888325769
10
63.660254037844119
20
418.55255888325769
10
54.999999999999645
20
413.55255888325769
10
46.339745962155305
20
418.5525588832578
10
46.339745962155305
20
428.55255888325769
10
54.99999999999968
20
433.55255888325769
0
LWPOLYLINE
5
170
100
AcDbEntity
8
0
100
AcDbPolyline
90
6
70
1
43
0.0
10
52.660254037844126
20
447.60511776651532
10
52.660254037844119
20
437.60511776651532
10
43.999999999999645
20
432.60511776651532
10
35.339745962155305
20
437.60511776651538
10
35.339745962155305
20
447.60511776651532
10
43.999999999999687
20
452.60511776651532
0
LWPOLYLINE
5
171
100
AcDbEntity
8
0
100
AcDbPolyline
90
6
70
1
43
0.0
10
129.66025403784411
20
352.34232335022705
10
129.66025403784411
20
342.34232335022705
10
120.99999999999964
20
337.34232335022705
10
112.33974596215529
20
342.3423233502271
10
112.33974596215531
20
352.34232335022705
10
120.99999999999967
20
357.34232335022705
0
LWPOLYLINE
5
172
100
AcDbEntity
8
0
100
AcDbPolyline
90
6
70
1
43
0.0
10
118.66025403784411
20
371.39488223348474
10
118.66025403784411
20
361.39488223348474
10
109.99999999999964
20
356.39488223348474
10
101.33974596215529
20
361.39488223348479
10
101.33974596215531
20
371.39488223348474
10
109.99999999999969
20
376.39488223348474
0
LWPOLYLINE
5
173
100
AcDbEntity
8
0
100
AcDbPolyline
90
6
70
1
43
0.0
10
107.66025403784411
20
390.44744111674231
10
107.66025403784411
20
380.44744111674231
10
98.999999999999631
20
375.44744111674231
10
90.339745962155291
20
380.44744111674243
10
90.339745962155291
20
390.44744111674231
10
98.999999999999687
20
395.44744111674231
0
LWPOLYLINE
5
174
100
AcDbEntity
8
0
100
AcDbPolyline
90
6
70
1
43
0.0
10
96.660254037844112
20
409.5
10
96.660254037844112
20
399.5
10
87.999999999999659
20
394.5
10
79.339745962155291
20
399.50000000000011
10
79.339745962155305
20
409.5
10
87.999999999999687
20
414.5
0
LWPOLYLINE
5
175
100
AcDbEntity
8
0
100
AcDbPolyline
90
6
70
1
43
0.0
10
85.660254037844112
20
428.55255888325769
10
85.660254037844112
20
418.55255888325769
10
76.999999999999645
20
413.55255888325769
10
68.339745962155291
20
418.5525588832578
10
68.339745962155305
20
428.55255888325769
10
76.999999999999687
20
433.55255888325769
0
LWPOLYLINE
5
176
100
AcDbEntity
8
0
100
AcDbPolyline
90
6
70
1
43
0.0
10
74.660254037844126
20
447.60511776651532
10
74.660254037844126
20
437.60511776651532
10
65.999999999999645
20
432.60511776651532
10
57.339745962155305
20
437.60511776651538
10
57.339745962155312
20
447.60511776651532
10
65.999999999999687
20
452.60511776651532
0
LWPOLYLINE
5
177
100
AcDbEntity
8
0
100
AcDbPolyline
90
6
70
1
43
0.0
10
-156.33974596215589
20
466.65767664977301
10
-156.33974596215589
20
456.65767664977301
10
-165.00000000000034
20
451.65767664977301
10
-173.66025403784471
20
456.65767664977307
10
-173.66025403784471
20
466.65767664977301
10
-165.00000000000031
20
471.65767664977301
0
LWPOLYLINE
5
178
100
AcDbEntity
8
0
100
AcDbPolyline
90
6
70
1
43
0.0
10
-134.33974596215589
20
466.65767664977301
10
-134.33974596215589
20
456.65767664977301
10
-143.00000000000037
20
451.65767664977301
10
-151.66025403784471
20
456.65767664977307
10
-151.66025403784471
20
466.65767664977301
10
-143.00000000000034
20
471.65767664977301
0
LWPOLYLINE
5
179
100
AcDbEntity
8
0
100
AcDbPolyline
90
6
70
1
43
0.0
10
-112.33974596215589
20
466.65767664977301
10
-112.33974596215589
20
456.65767664977301
10
-121.00000000000037
20
451.65767664977301
10
-129.66025403784471
20
456.65767664977307
10
-129.66025403784471
20
466.65767664977301
10
-121.00000000000034
20
471.65767664977301
0
LWPOLYLINE
5
180
100
AcDbEntity
8
0
100
AcDbPolyline
90
6
70
1
43
0.0
10
-90.339745962155888
20
466.65767664977301
10
-90.339745962155888
20
456.65767664977301
10
-99.000000000000355
20
451.65767664977301
10
-107.66025403784471
20
456.65767664977307
10
-107.66025403784471
20
466.65767664977301
10
-99.000000000000327
20
471.65767664977301
0
LWPOLYLINE
5
181
100
AcDbEntity
8
0
100
AcDbPolyline
90
6
70
1
43
0.0
10
-68.339745962155888
20
466.65767664977301
10
-68.339745962155888
20
456.65767664977301
10
-77.000000000000369
20
451.65767664977301
10
-85.660254037844709
20
456.65767664977307
10
-85.660254037844709
20
466.65767664977301
10
-77.000000000000327
20
471.65767664977301
0
LWPOLYLINE
5
182
100
AcDbEntity
8
0
100
AcDbPolyline
90
6
70
1
43
0.0
10
-46.339745962155881
20
466.65767664977301
10
-46.339745962155881
20
456.65767664977301
10
-55.000000000000355
20
451.65767664977301
10
-63.660254037844702
20
456.65767664977307
10
-63.660254037844702
20
466.65767664977301
10
-55.00000000000032
20
471.65767664977301
0
LWPOLYLINE
5
183
100
AcDbEntity
8
0
100
AcDbPolyline
90
6
70
1
43
0.0
10
-24.339745962155881
20
466.65767664977301
10
-24.339745962155881
20
456.65767664977301
10
-33.000000000000355
20
451.65767664977301
10
-41.660254037844702
20
456.65767664977307
10
-41.660254037844702
20
466.65767664977301
10
-33.00000000000032
20
471.65767664977301
0
LWPOLYLINE
5
184
100
AcDbEntity
8
0
100
AcDbPolyline
90
6
70
1
43
0.0
10
-2.3397459621558783
20
466.65767664977301
10
-2.3397459621558783
20
456.65767664977301
10
-11.000000000000355
20
451.65767664977301
10
-19.660254037844702
20
456.65767664977307
10
-19.660254037844702
20
466.65767664977301
10
-11.000000000000316
20
471.65767664977301
0
LWPOLYLINE
5
185
100
AcDbEntity
8
0
100
AcDbPolyline
90
6
70
1
43
0.0
10
19.660254037844123
20
466.65767664977301
10
19.660254037844123
20
456.65767664977301
10
10.999999999999645
20
451.65767664977301
10
2.3397459621553027
20
456.65767664977307
10
2.3397459621553027
20
466.65767664977301
10
10.999999999999686
20
471.65767664977301
0
LWPOLYLINE
5
186
100
AcDbEntity
8
0
100
AcDbPolyline
90
6
70
1
43
0.0
10
41.660254037844126
20
466.65767664977301
10
41.660254037844126
20
456.65767664977301
10
32.999999999999645
20
451.65767664977301
10
24.339745962155305
20
456.65767664977307
10
24.339745962155305
20
466.65767664977301
10
32.999999999999687
20
471.65767664977301
0
LWPOLYLINE
5
187
100
AcDbEntity
8
0
100
AcDbPolyline
90
6
70
1
43
0.0
10
63.660254037844126
20
466.65767664977301
10
63.660254037844126
20
456.65767664977301
10
54.999999999999645
20
451.65767664977301
10
46.339745962155305
20
456.65767664977307
10
46.339745962155305
20
466.65767664977301
10
54.999999999999687
20
471.65767664977301
0
LWPOLYLINE
5
188
100
AcDbEntity
8
0
100
AcDbPolyline
90
6
70
1
43
0.0
10
151.66025403784408
20
352.34232335022705
10
151.66025403784408
20
342.34232335022705
10
142.99999999999963
20
337.34232335022705
10
134.33974596215529
20
342.3423233502271
10
134.33974596215529
20
352.34232335022705
10
142.99999999999966
20
357.34232335022705
0
LWPOLYLINE
5
189
100
AcDbEntity
8
0
100
AcDbPolyline
90
6
70
1
43
0.0
10
140.66025403784411
20
371.39488223348474
10
140.66025403784411
20
361.39488223348474
10
131.99999999999963
20
356.39488223348474
10
123.33974596215528
20
361.39488223348479
10
123.33974596215529
20
371.39488223348474
10
131.99999999999966
20
376.39488223348474
0
LWPOLYLINE
5
190
100
AcDbEntity
8
0
100
AcDbPolyline
90
6
70
1
43
0.0
10
129.66025403784411
20
390.44744111674231
10
129.66025403784411
20
380.44744111674231
10
120.99999999999963
20
375.44744111674231
10
112.33974596215529
20
380.44744111674243
10
112.33974596215529
20
390.44744111674231
10
120.99999999999967
20
395.44744111674231
0
LWPOLYLINE
5
191
100
AcDbEntity
8
0
100
AcDbPolyline
90
6
70
1
43
0.0
10
118.66025403784411
20
409.5
10
118.66025403784411
20
399.5
10
109.99999999999964
20
394.5
10
101.33974596215529
20
399.50000000000011
10
101.33974596215529
20
409.5
10
109.99999999999969
20
414.5
0
LWPOLYLINE
5
192
100
AcDbEntity
8
0
100
AcDbPolyline
90
6
70
1
43
0.0
10
107.66025403784411
20
428.55255888325769
10
107.66025403784411
20
418.55255888325769
10
98.999999999999631
20
413.55255888325769
10
90.339745962155291
20
418.5525588832578
10
90.339745962155291
20
428.55255888325769
10
98.999999999999687
20
433.55255888325769
0
LWPOLYLINE
5
193
100
AcDbEntity
8
0
100
AcDbPolyline
90
6
70
1
43
0.0
10
96.660254037844112
20
447.60511776651532
10
96.660254037844112
20
437.60511776651532
10
87.999999999999659
20
432.60511776651532
10
79.339745962155291
20
437.60511776651538
10
79.339745962155305
20
447.60511776651532
10
87.999999999999687
20
452.60511776651532
0
LWPOLYLINE
5
194
100
AcDbEntity
8
0
100
AcDbPolyline
90
6
70
1
43
0.0
10
85.660254037844112
20
466.65767664977301
10
85.660254037844112
20
456.65767664977301
10
76.999999999999631
20
451.65767664977301
10
68.339745962155291
20
456.65767664977307
10
68.339745962155291
20
466.65767664977301
10
76.999999999999687
20
471.65767664977301
0
LWPOLYLINE
5
195
100
AcDbEntity
8
0
100
AcDbPolyline
90
6
70
1
43
0.0
10
173.66025403784414
20
352.34232335022705
10
173.66025403784414
20
342.34232335022705
10
164.99999999999966
20
337.34232335022705
10
156.33974596215529
20
342.3423233502271
10
156.33974596215529
20
352.34232335022705
10
164.99999999999969
20
357.34232335022705
0
LWPOLYLINE
5
196
100
AcDbEntity
8
0
100
AcDbPolyline
90
6
70
1
43
0.0
10
162.66025403784411
20
371.39488223348474
10
162.66025403784411
20
361.39488223348474
10
153.99999999999963
20
356.39488223348474
10
145.33974596215529
20
361.39488223348479
10
145.33974596215529
20
371.39488223348474
10
153.99999999999969
20
376.39488223348474
0
LWPOLYLINE
5
197
100
AcDbEntity
8
0
100
AcDbPolyline
90
6
70
1
43
0.0
10
151.66025403784411
20
390.44744111674231
10
151.66025403784411
20
380.44744111674231
10
142.99999999999966
20
375.44744111674231
10
134.33974596215529
20
380.44744111674243
10
134.33974596215529
20
390.44744111674231
10
142.99999999999969
20
395.44744111674231
0
LWPOLYLINE
5
198
100
AcDbEntity
8
0
100
AcDbPolyline
90
6
70
1
43
0.0
10
140.66025403784411
20
409.5
10
140.66025403784411
20
399.5
10
131.99999999999966
20
394.5
10
123.33974596215529
20
399.50000000000011
10
123.33974596215529
20
409.5
10
131.99999999999969
20
414.5
0
LWPOLYLINE
5
199
100
AcDbEntity
8
0
100
AcDbPolyline
90
6
70
1
43
0.0
10
129.66025403784411
20
428.55255888325769
10
129.66025403784411
20
418.55255888325769
10
120.99999999999966
20
413.55255888325769
10
112.33974596215531
20
418.5525588832578
10
112.33974596215532
20
428.55255888325769
10
120.99999999999969
20
433.55255888325769
0
LWPOLYLINE
5
200
100
AcDbEntity
8
0
100
AcDbPolyline
90
6
70
1
43
0.0
10
118.66025403784413
20
447.60511776651532
10
118.66025403784413
20
437.60511776651532
10
109.99999999999964
20
432.60511776651532
10
101.33974596215531
20
437.60511776651538
10
101.33974596215531
20
447.60511776651532
10
109.9999999999997
20
452.60511776651532
0
LWPOLYLINE
5
201
100
AcDbEntity
8
0
100
AcDbPolyline
90
6
70
1
43
0.0
10
107.66025403784413
20
466.65767664977301
10
107.66025403784413
20
456.65767664977301
10
98.999999999999645
20
451.65767664977301
10
90.339745962155305
20
456.65767664977307
10
90.339745962155305
20
466.65767664977301
10
98.999999999999702
20
471.65767664977301
0
LWPOLYLINE
5
202
100
AcDbEntity
8
0
100
AcDbPolyline
90
6
70
1
43
0.0
10
173.66025403784414
20
390.44744111674231
10
173.66025403784414
20
380.44744111674231
10
164.99999999999966
20
375.44744111674231
10
156.33974596215529
20
380.44744111674243
10
156.33974596215529
20
390.44744111674231
10
164.99999999999969
20
395.44744111674231
0
LWPOLYLINE
5
203
100
AcDbEntity
8
0
100
AcDbPolyline
90
6
70
1
43
0.0
10
162.66025403784414
20
409.5
10
162.66025403784414
20
399.5
10
153.99999999999966
20
394.5
10
145.33974596215532
20
399.50000000000011
10
145.33974596215532
20
409.5
10
153.99999999999972
20
414.5
0
LWPOLYLINE
5
204
100
AcDbEntity
8
0
100
AcDbPolyline
90
6
70
1
43
0.0
10
151.66025403784414
20
428.55255888325769
10
151.66025403784414
20
418.55255888325769
10
142.99999999999966
20
413.55255888325769
10
134.33974596215532
20
418.5525588832578
10
134.33974596215532
20
428.55255888325769
10
142.99999999999972
20
433.55255888325769
0
LWPOLYLINE
5
205
100
AcDbEntity
8
0
100
AcDbPolyline
90
6
70
1
43
0.0
10
140.66025403784414
20
447.60511776651532
10
140.66025403784414
20
437.60511776651532
10
131.99999999999966
20
432.60511776651532
10
123.33974596215532
20
437.60511776651538
10
123.33974596215533
20
447.60511776651532
10
131.99999999999972
20
452.60511776651532
0
LWPOLYLINE
5
206
100
AcDbEntity
8
0
100
AcDbPolyline
90
6
70
1
43
0.0
10
129.66025403784414
20
466.65767664977301
10
129.66025403784414
20
456.65767664977301
10
120.99999999999966
20
451.65767664977301
10
112.33974596215532
20
456.65767664977307
10
112.33974596215532
20
466.65767664977301
10
120.99999999999969
20
471.65767664977301
0
LWPOLYLINE
5
207
100
AcDbEntity
8
0
100
AcDbPolyline
90
6
70
1
43
0.0
10
173.66025403784414
20
428.55255888325769
10
173.66025403784414
20
418.55255888325769
10
164.99999999999966
20
413.55255888325769
10
156.33974596215529
20
418.5525588832578
10
156.33974596215529
20
428.55255888325769
10
164.99999999999969
20
433.55255888325769
0
LWPOLYLINE
5
208
100
AcDbEntity
8
0
100
AcDbPolyline
90
6
70
1
43
0.0
10
162.66025403784414
20
447.60511776651532
10
162.66025403784414
20
437.60511776651532
10
153.99999999999966
20
432.60511776651532
10
145.33974596215532
20
437.60511776651538
10
145.33974596215532
20
447.60511776651532
10
153.99999999999972
20
452.60511776651532
0
LWPOLYLINE
5
209
100
AcDbEntity
8
0
100
AcDbPolyline
90
6
70
1
43
0.0
10
151.66025403784414
20
466.65767664977301
10
151.66025403784414
20
456.65767664977301
10
142.99999999999966
20
451.65767664977301
10
134.33974596215532
20
456.65767664977307
10
134.33974596215532
20
466.65767664977301
10
142.99999999999969
20
471.65767664977301
0
LWPOLYLINE
5
210
100
AcDbEntity
8
0
100
AcDbPolyline
90
6
70
1
43
0.0
10
173.66025403784414
20
466.65767664977301
10
173.66025403784414
20
456.65767664977301
10
164.99999999999966
20
451.65767664977301
10
156.33974596215529
20
456.65767664977307
10
156.33974596215529
20
466.65767664977301
10
164.99999999999969
20
471.65767664977301
0
LWPOLYLINE
5
211
100
AcDbEntity
8
0
100
AcDbPolyline
90
3
70
1
43
0.0
10
-6.5640646055106258
20
334.49999999999994
10
-3.4527936065842368e-13
20
338.28976446696942
10
6.5640646055099712
20
334.49999999999994
0
LWPOLYLINE
5
212
100
AcDbEntity
8
0
100
AcDbPolyline
90
3
70
1
43
0.0
10
-28.564064605510637
20
334.49999999999994
10
-22.000000000000348
20
338.28976446696942
10
-15.435935394490023
20
334.49999999999994
0
LWPOLYLINE
5
213
100
AcDbEntity
8
0
100
AcDbPolyline
90
3
70
1
43
0.0
10
-50.564064605510609
20
334.49999999999994
10
-44.000000000000348
20
338.28976446696942
10
-37.435935394490031
20
334.49999999999994
0
LWPOLYLINE
5
214
100
AcDbEntity
8
0
100
AcDbPolyline
90
3
70
1
43
0.0
10
-72.564064605510623
20
334.49999999999994
10
-66.000000000000341
20
338.28976446696942
10
-59.435935394490031
20
334.49999999999994
0
LWPOLYLINE
5
215
100
AcDbEntity
8
0
100
AcDbPolyline
90
3
70
1
43
0.0
10
-94.564064605510637
20
334.49999999999994
10
-88.000000000000369
20
338.28976446696942
10
-81.435935394490031
20
334.49999999999994
0
LWPOLYLINE
5
216
100
AcDbEntity
8
0
100
AcDbPolyline
90
3
70
1
43
0.0
10
-116.56406460551065
20
334.49999999999994
10
-110.00000000000036
20
338.28976446696942
10
-103.43593539449003
20
334.49999999999994
0
LWPOLYLINE
5
217
100
AcDbEntity
8
0
100
AcDbPolyline
90
3
70
1
43
0.0
10
-138.56406460551062
20
334.49999999999994
10
-132.00000000000034
20
338.28976446696942
10
-125.43593539449003
20
334.49999999999994
0
LWPOLYLINE
5
218
100
AcDbEntity
8
0
100
AcDbPolyline
90
4
70
1
43
0.0
10
-160.36918478244954
20
334.61251391830388
10
-154.00000000000034
20
338.28976446696942
10
-147.43593539449
20
334.49999999999994
10
-157.9999999999998
20
334.49999999999983
42
-0.023731907892970219
0
LWPOLYLINE
5
219
100
AcDbEntity
8
0
100
AcDbPolyline
90
3
70
1
43
0.0
10
-182.54894719050128
20
354.77250681248557
10
-178.33974596215592
20
352.34232335022705
10
-178.33974596216939
20
344.96401932461202
42
-0.10797958088654164
0
LWPOLYLINE
5
220
100
AcDbEntity
8
0
100
AcDbPolyline
90
6
70
1
43
0.0
10
-183.00000000000037
20
372.35343034915729
10
-176.00000000000034
20
376.39488223348474
10
-167.33974596215589
20
371.39488223348474
10
-167.33974596215589
20
361.39488223348474
10
-176.00000000000037
20
356.39488223348474
10
-183.00000000000037
20
360.43633411781218
0
LWPOLYLINE
5
221
100
AcDbEntity
8
0
100
AcDbPolyline
90
4
70
1
43
0.0
10
-183.00000000000037
20
393.13804003998382
10
-178.33974596215592
20
390.44744111674231
10
-178.33974596215592
20
380.44744111674231
10
-183.00000000000037
20
377.7568421935008
0
LWPOLYLINE
5
222
100
AcDbEntity
8
0
100
AcDbPolyline
90
6
70
1
43
0.0
10
-183.00000000000037
20
410.45854811567261
10
-176.00000000000034
20
414.5
10
-167.33974596215589
20
409.5
10
-167.33974596215589
20
399.5
10
-176.00000000000037
20
394.5
10
-183.00000000000037
20
398.54145188432744
0
LWPOLYLINE
5
223
100
AcDbEntity
8
0
100
AcDbPolyline
90
4
70
1
43
0.0
10
-183.00000000000037
20
431.2431578064992
10
-178.33974596215592
20
428.55255888325769
10
-178.33974596215592
20
418.55255888325769
10
-183.00000000000037
20
415.86195996001618
0
LWPOLYLINE
5
224
100
AcDbEntity
8
0
100
AcDbPolyline
90
6
70
1
43
0.0
10
-183.00000000000037
20
448.56366588218793
10
-176.00000000000034
20
452.60511776651532
10
-167.33974596215589
20
447.60511776651532
10
-167.33974596215589
20
437.60511776651532
10
-176.00000000000037
20
432.60511776651532
10
-183.00000000000037
20
436.64656965084276
0
LWPOLYLINE
5
225
100
AcDbEntity
8
0
100
AcDbPolyline
90
3
70
1
43
0.0
10
-178.33974596215592
20
464.03598067537837
10
-178.33974596215592
20
456.65767664977301
10
-182.54894719050125
20
454.2274931875146
42
-0.10797958088646099
0
LWPOLYLINE
5
226
100
AcDbEntity
8
0
100
AcDbPolyline
90
4
70
1
43
0.0
10
-147.43593539449029
20
474.49999999999994
10
-154.00000000000034
20
470.71023553303064
10
-160.36918478244903
20
474.38748608169595
42
-0.023731907892920786
10
-158.0000000000002
20
474.49999999999994
0
LWPOLYLINE
5
227
100
AcDbEntity
8
0
100
AcDbPolyline
90
3
70
1
43
0.0
10
-125.43593539449026
20
474.49999999999994
10
-132.00000000000034
20
470.71023553303064
10
-138.56406460551025
20
474.49999999999994
0
LWPOLYLINE
5
228
100
AcDbEntity
8
0
100
AcDbPolyline
90
3
70
1
43
0.0
10
-103.43593539449029
20
474.49999999999994
10
-110.00000000000036
20
470.71023553303064
10
-116.56406460551028
20
474.49999999999994
0
LWPOLYLINE
5
229
100
AcDbEntity
8
0
100
AcDbPolyline
90
3
70
1
43
0.0
10
-81.43593539449023
20
474.49999999999994
10
-88.000000000000369
20
470.71023553303064
10
-94.564064605510239
20
474.49999999999994
0
LWPOLYLINE
5
230
100
AcDbEntity
8
0
100
AcDbPolyline
90
3
70
1
43
0.0
10
-59.435935394490244
20
474.49999999999994
10
-66.000000000000355
20
470.71023553303064
10
-72.564064605510254
20
474.49999999999994
0
LWPOLYLINE
5
231
100
AcDbEntity
8
0
100
AcDbPolyline
90
3
70
1
43
0.0
10
-37.435935394490272
20
474.49999999999994
10
-44.000000000000348
20
470.71023553303064
10
-50.564064605510254
20
474.49999999999994
0
LWPOLYLINE
5
232
100
AcDbEntity
8
0
100
AcDbPolyline
90
3
70
1
43
0.0
10
-15.435935394490226
20
474.49999999999994
10
-22.000000000000348
20
470.71023553303064
10
-28.564064605510239
20
474.49999999999994
0
LWPOLYLINE
5
233
100
AcDbEntity
8
0
100
AcDbPolyline
90
3
70
1
43
0.0
10
6.5640646055097553
20
474.49999999999994
10
-3.4527936065842368e-13
20
470.71023553303064
10
-6.564064605510243
20
474.49999999999994
0
LWPOLYLINE
5
234
100
AcDbEntity
8
0
100
AcDbPolyline
90
3
70
1
43
0.0
10
28.564064605509749
20
474.49999999999994
10
21.999999999999655
20
470.71023553303064
10
15.435935394489753
20
474.49999999999994
0
LWPOLYLINE
5
235
100
AcDbEntity
8
0
100
AcDbPolyline
90
3
70
1
43
0.0
10
50.564064605509742
20
474.49999999999994
10
43.999999999999659
20
470.71023553303064
10
37.435935394489732
20
474.49999999999994
0
LWPOLYLINE
5
236
100
AcDbEntity
8
0
100
AcDbPolyline
90
3
70
1
43
0.0
10
72.564064605509756
20
474.49999999999994
10
65.999999999999645
20
470.71023553303064
10
59.435935394489725
20
474.49999999999994
0
LWPOLYLINE
5
237
100
AcDbEntity
8
0
100
AcDbPolyline
90
3
70
1
43
0.0
10
94.56406460550977
20
474.49999999999994
10
87.999999999999659
20
470.71023553303064
10
81.435935394489732
20
474.49999999999994
0
LWPOLYLINE
5
238
100
AcDbEntity
8
0
100
AcDbPolyline
90
3
70
1
43
0.0
10
116.5640646055098
20
474.49999999999994
10
109.99999999999969
20
470.71023553303064
10
103.43593539448975
20
474.49999999999994
0
LWPOLYLINE
5
239
100
AcDbEntity
8
0
100
AcDbPolyline
90
3
70
1
43
0.0
10
138.56406460550977
20
474.49999999999994
10
131.99999999999966
20
470.71023553303064
10
125.43593539448975
20
474.49999999999994
0
LWPOLYLINE
5
240
100
AcDbEntity
8
0
100
AcDbPolyline
90
4
70
1
43
0.0
10
160.36918478244854
20
474.38748608169595
10
153.99999999999966
20
470.71023553303064
10
147.43593539448975
20
474.49999999999994
10
157.99999999999932
20
474.49999999999994
42
-0.023731907892933671
0
LWPOLYLINE
5
241
100
AcDbEntity
8
0
100
AcDbPolyline
90
3
70
1
43
0.0
10
182.54894719050046
20
454.22749318751465
10
178.33974596215529
20
456.65767664977307
10
178.33974596215822
20
464.03598067538019
42
-0.10797958088647537
0
LWPOLYLINE
5
242
100
AcDbEntity
8
0
100
AcDbPolyline
90
6
70
1
43
0.0
10
182.99999999999966
20
436.64656965084271
10
175.99999999999966
20
432.60511776651532
10
167.33974596215532
20
437.60511776651538
10
167.33974596215532
20
447.60511776651532
10
175.99999999999969
20
452.60511776651532
10
182.9999999999996
20
448.56366588218805
0
LWPOLYLINE
5
243
100
AcDbEntity
8
0
100
AcDbPolyline
90
4
70
1
43
0.0
10
182.99999999999966
20
415.86195996001629
10
178.33974596215529
20
418.5525588832578
10
178.33974596215529
20
428.55255888325769
10
182.99999999999966
20
431.2431578064992
0
LWPOLYLINE
5
244
100
AcDbEntity
8
0
100
AcDbPolyline
90
6
70
1
43
0.0
10
182.99999999999966
20
398.54145188432739
10
175.99999999999966
20
394.5
10
167.33974596215532
20
399.50000000000011
10
167.33974596215532
20
409.5
10
175.99999999999969
20
414.5
10
182.99999999999966
20
410.45854811567267
0
LWPOLYLINE
5
245
100
AcDbEntity
8
0
100
AcDbPolyline
90
4
70
1
43
0.0
10
182.99999999999966
20
377.75684219350092
10
178.33974596215529
20
380.44744111674243
10
178.33974596215529
20
390.44744111674231
10
182.99999999999966
20
393.13804003998382
0
LWPOLYLINE
5
246
100
AcDbEntity
8
0
100
AcDbPolyline
90
6
70
1
43
0.0
10
182.99999999999966
20
360.43633411781207
10
175.99999999999966
20
356.39488223348474
10
167.33974596215532
20
361.39488223348479
10
167.33974596215532
20
371.39488223348474
10
175.99999999999969
20
376.39488223348474
10
182.99999999999966
20
372.35343034915735
0
LWPOLYLINE
5
247
100
AcDbEntity
8
0
100
AcDbPolyline
90
3
70
1
43
0.0
10
178.33974596215529
20
344.96401932462192
10
178.33974596215529
20
352.34232335022705
10
182.54894719050048
20
354.7725068124854
42
-0.10797958088645797
0
LWPOLYLINE
5
248
100
AcDbEntity
8
0
100
AcDbPolyline
90
4
70
1
43
0.0
10
147.43593539448941
20
334.49999999999994
10
153.99999999999966
20
338.28976446696942
10
160.36918478244868
20
334.61251391830399
42
-0.023731907892926341
10
157.99999999999929
20
334.49999999999994
0
LWPOLYLINE
5
249
100
AcDbEntity
8
0
100
AcDbPolyline
90
3
70
1
43
0.0
10
125.43593539448938
20
334.49999999999994
10
131.99999999999966
20
338.28976446696942
10
138.56406460550997
20
334.49999999999994
0
LWPOLYLINE
5
250
100
AcDbEntity
8
0
100
AcDbPolyline
90
3
70
1
43
0.0
10
103.43593539448935
20
334.49999999999994
10
109.99999999999966
20
338.28976446696942
10
116.56406460551
20
334.49999999999994
0
LWPOLYLINE
5
251
100
AcDbEntity
8
0
100
AcDbPolyline
90
3
70
1
43
0.0
10
81.435935394489363
20
334.49999999999994
10
87.999999999999659
20
338.28976446696942
10
94.564064605509969
20
334.49999999999994
0
LWPOLYLINE
5
252
100
AcDbEntity
8
0
100
AcDbPolyline
90
3
70
1
43
0.0
10
59.43593539448937
20
334.49999999999994
10
65.999999999999659
20
338.28976446696942
10
72.564064605510012
20
334.49999999999994
0
LWPOLYLINE
5
253
100
AcDbEntity
8
0
100
AcDbPolyline
90
3
70
1
43
0.0
10
50.564064605510019
20
334.49999999999994
10
37.435935394489377
20
334.49999999999994
10
43.999999999999659
20
338.28976446696942
0
CIRCLE
5
254
100
AcDbEntity
8
0
100
AcDbCircle
10
234.50000000000003
20
309.99999999999966
30
0
40
1.7500000000000071
210
0
220
-0
230
1
0
CIRCLE
5
255
100
AcDbEntity
8
0
100
AcDbCircle
10
-234.50000000000003
20
309.99999999999966
30
0
40
1.7500000000000071
210
0
220
-0
230
1
0
CIRCLE
5
256
100
AcDbEntity
8
0
100
AcDbCircle
10
234.50000000000003
20
229.99999999999966
30
0
40
1.7500000000000071
210
0
220
-0
230
1
0
CIRCLE
5
257
100
AcDbEntity
8
0
100
AcDbCircle
10
-234.50000000000003
20
229.99999999999966
30
0
40
1.7500000000000071
210
0
220
-0
230
1
0
ENDSEC
0
SECTION
2
OBJECTS
0
DICTIONARY
5
C
100
AcDbDictionary
3
ACAD_GROUP
350
D
3
ACAD_MLINESTYLE
350
17
0
DICTIONARY
5
D
100
AcDbDictionary
0
DICTIONARY
5
1A
330
C
100
AcDbDictionary
0
DICTIONARY
5
17
100
AcDbDictionary
0
ENDSEC
0
EOF
