0
SECTION
2
HEADER
9
$INSUNITS
70
4
9
$ACADVER
1
AC1014
9
$HANDSEED
5
FFFF
0
ENDSEC
0
SECTION
2
TABLES
0
TABLE
2
VPORT
5
8
100
AcDbSymbolTable
0
ENDTAB
0
TABLE
2
LTYPE
5
5
100
AcDbSymbolTable
0
LTYPE
5
14
100
AcDbSymbolTableRecord
100
AcDbLinetypeTableRecord
2
BYBLOCK
70
0
0
LTYPE
5
15
100
AcDbSymbolTableRecord
100
AcDbLinetypeTableRecord
2
BYLAYER
70
0
0
LTYPE
5
16
100
AcDbSymbolTableRecord
100
AcDbLinetypeTableRecord
2
DASHED
70
0
3
Dashed __ __ __ __ __ __ __ __ __ __ __ __ __ _
72
65
73
2
40
0.75
49
0.5
74
0
49
-0.25
74
0
0
ENDTAB
0
TABLE
2
LAYER
5
2
100
AcDbSymbolTable
70
2
0
LAYER
5
50
100
AcDbSymbolTableRecord
100
AcDbLayerTableRecord
2
0
70
0
62
7
6
CONTINUOUS
0
ENDTAB
0
TABLE
2
STYLE
5
3
100
AcDbSymbolTable
70
1
0
STYLE
5
11
100
AcDbSymbolTableRecord
100
AcDbTextStyleTableRecord
2
STANDARD
70
0
0
ENDTAB
0
TABLE
2
VIEW
5
6
100
AcDbSymbolTable
70
0
0
ENDTAB
0
TABLE
2
UCS
5
7
100
AcDbSymbolTable
70
0
0
ENDTAB
0
TABLE
2
APPID
5
9
100
AcDbSymbolTable
70
2
0
APPID
5
12
100
AcDbSymbolTableRecord
100
AcDbRegAppTableRecord
2
ACAD
70
0
0
ENDTAB
0
TABLE
2
DIMSTYLE
5
A
100
AcDbSymbolTable
70
1
0
ENDTAB
0
TABLE
2
BLOCK_RECORD
5
1
100
AcDbSymbolTable
70
1
0
BLOCK_RECORD
5
1F
100
AcDbSymbolTableRecord
100
AcDbBlockTableRecord
2
*MODEL_SPACE
0
BLOCK_RECORD
5
1B
100
AcDbSymbolTableRecord
100
AcDbBlockTableRecord
2
*PAPER_SPACE
0
ENDTAB
0
ENDSEC
0
SECTION
2
BLOCKS
0
BLOCK
5
20
100
AcDbEntity
100
AcDbBlockBegin
2
*MODEL_SPACE
0
ENDBLK
5
21
100
AcDbEntity
100
AcDbBlockEnd
0
BLOCK
5
1C
100
AcDbEntity
100
AcDbBlockBegin
2
*PAPER_SPACE
0
ENDBLK
5
1D
100
AcDbEntity
100
AcDbBlockEnd
0
ENDSEC
0
SECTION
2
ENTITIES
0
CIRCLE
5
100
100
AcDbEntity
8
0
100
AcDbCircle
10
-218.39999582767496
20
-310.00000499188866
30
0
40
1.7500000000000071
210
0
220
0
230
1
0
CIRCLE
5
101
100
AcDbEntity
8
0
100
AcDbCircle
10
218.39999582767479
20
-310.00000499188889
30
0
40
1.7500000000000071
210
0
220
0
230
1
0
LWPOLYLINE
5
102
100
AcDbEntity
8
0
100
AcDbPolyline
90
40
70
1
43
0.0
10
-270.00000014901156
20
-273.10000499188897
42
0.41421356237309503
10
-268.00000014901161
20
-275.10000499188897
10
-254.99999582767475
20
-275.10000499188897
42
-0.41421356237309931
10
-250.09999582767477
20
-280.00000499188894
10
-250.09999582767477
20
-295.00000499188894
42
0.41421356237309098
10
-244.99999582767475
20
-300.10000499188897
10
-229.99999582767475
20
-300.10000499188891
42
-0.41421356237310142
10
-225.09999582767477
20
-305.00000499188894
10
-225.09999582767477
20
-317.99999999999989
42
0.41421356237310542
10
-223.09999582767475
20
-319.99999999999989
10
223.09999582767475
20
-319.99999999999994
42
0.41421356237310025
10
225.09999582767477
20
-317.99999999999989
10
225.0999958276748
20
-305.00000499188894
42
-0.41421356237310142
10
229.99999582767475
20
-300.10000499188897
10
244.99999582767481
20
-300.10000499188897
42
0.41421356237309304
10
250.09999582767477
20
-295.00000499188894
10
250.09999582767477
20
-280.00000499188894
42
-0.41421356237309931
10
254.99999582767475
20
-275.10000499188897
10
268.00000014901161
20
-275.10000499188897
42
0.41421356237310542
10
270.00000014901156
20
-273.10000499188897
10
270.00000014901156
20
-223.00000000000006
42
0.41421356237310542
10
268.00000014901161
20
-221.00000000000006
10
253.0000001490115
20
-221.00000000000009
42
0.41421356237310542
10
251.00000014901153
20
-223.00000000000006
10
251.00000014901153
20
-248.50000000000006
42
-0.41421356237309503
10
249.00000014901153
20
-250.50000000000006
10
221.00000014901156
20
-250.50000000000006
42
-0.41421356237311585
10
219.00000014901153
20
-248.5
10
219.00000014901156
20
-223.00000000000006
42
0.41421356237310542
10
217.00000014901156
20
-221.00000000000006
10
-217.00000014901164
20
-221.00000000000009
42
0.41421356237310542
10
-219.00000014901164
20
-223.00000000000006
10
-219.00000014901153
20
-248.50000000000017
42
-0.41421356237311585
10
-221.00000014901156
20
-250.50000000000017
10
-249.00000014901153
20
-250.50000000000028
42
-0.41421356237311585
10
-251.00000014901156
20
-248.50000000000011
10
-251.00000014901167
20
-223.00000000000006
42
0.41421356237310542
10
-253.00000014901167
20
-221.00000000000006
10
-268.00000014901161
20
-221.00000000000009
42
0.41421356237310542
10
-270.00000014901156
20
-223.00000000000006
0
CIRCLE
5
103
100
AcDbEntity
8
0
100
AcDbCircle
10
-259.99999582767487
20
-268.40000499188864
30
0
40
1.7499999999999716
210
0
220
-0
230
1
0
CIRCLE
5
104
100
AcDbEntity
8
0
100
AcDbCircle
10
259.99999582767475
20
-268.40000499188886
30
0
40
1.7500000000000071
210
0
220
-0
230
1
0
ENDSEC
0
SECTION
2
OBJECTS
0
DICTIONARY
5
C
100
AcDbDictionary
3
ACAD_GROUP
350
D
3
ACAD_MLINESTYLE
350
17
0
DICTIONARY
5
D
100
AcDbDictionary
0
DICTIONARY
5
1A
330
C
100
AcDbDictionary
0
DICTIONARY
5
17
100
AcDbDictionary
0
ENDSEC
0
EOF
