0
SECTION
2
HEADER
9
$INSUNITS
70
4
9
$ACADVER
1
AC1014
9
$HANDSEED
5
FFFF
0
ENDSEC
0
SECTION
2
TABLES
0
TABLE
2
VPORT
5
8
100
AcDbSymbolTable
0
ENDTAB
0
TABLE
2
LTYPE
5
5
100
AcDbSymbolTable
0
LTYPE
5
14
100
AcDbSymbolTableRecord
100
AcDbLinetypeTableRecord
2
BYBLOCK
70
0
0
LTYPE
5
15
100
AcDbSymbolTableRecord
100
AcDbLinetypeTableRecord
2
BYLAYER
70
0
0
LTYPE
5
16
100
AcDbSymbolTableRecord
100
AcDbLinetypeTableRecord
2
DASHED
70
0
3
Dashed __ __ __ __ __ __ __ __ __ __ __ __ __ _
72
65
73
2
40
0.75
49
0.5
74
0
49
-0.25
74
0
0
ENDTAB
0
TABLE
2
LAYER
5
2
100
AcDbSymbolTable
70
2
0
LAYER
5
50
100
AcDbSymbolTableRecord
100
AcDbLayerTableRecord
2
0
70
0
62
7
6
CONTINUOUS
0
ENDTAB
0
TABLE
2
STYLE
5
3
100
AcDbSymbolTable
70
1
0
STYLE
5
11
100
AcDbSymbolTableRecord
100
AcDbTextStyleTableRecord
2
STANDARD
70
0
0
ENDTAB
0
TABLE
2
VIEW
5
6
100
AcDbSymbolTable
70
0
0
ENDTAB
0
TABLE
2
UCS
5
7
100
AcDbSymbolTable
70
0
0
ENDTAB
0
TABLE
2
APPID
5
9
100
AcDbSymbolTable
70
2
0
APPID
5
12
100
AcDbSymbolTableRecord
100
AcDbRegAppTableRecord
2
ACAD
70
0
0
ENDTAB
0
TABLE
2
DIMSTYLE
5
A
100
AcDbSymbolTable
70
1
0
ENDTAB
0
TABLE
2
BLOCK_RECORD
5
1
100
AcDbSymbolTable
70
1
0
BLOCK_RECORD
5
1F
100
AcDbSymbolTableRecord
100
AcDbBlockTableRecord
2
*MODEL_SPACE
0
BLOCK_RECORD
5
1B
100
AcDbSymbolTableRecord
100
AcDbBlockTableRecord
2
*PAPER_SPACE
0
ENDTAB
0
ENDSEC
0
SECTION
2
BLOCKS
0
BLOCK
5
20
100
AcDbEntity
100
AcDbBlockBegin
2
*MODEL_SPACE
0
ENDBLK
5
21
100
AcDbEntity
100
AcDbBlockEnd
0
BLOCK
5
1C
100
AcDbEntity
100
AcDbBlockBegin
2
*PAPER_SPACE
0
ENDBLK
5
1D
100
AcDbEntity
100
AcDbBlockEnd
0
ENDSEC
0
SECTION
2
ENTITIES
0
CIRCLE
5
100
100
AcDbEntity
8
0
100
AcDbCircle
10
260.00000014901156
20
269.10000499188897
30
0
40
1.7500000000000071
210
0
220
-0
230
1
0
CIRCLE
5
101
100
AcDbEntity
8
0
100
AcDbCircle
10
-260.00000014901156
20
269.10000499188897
30
0
40
1.7500000000000071
210
0
220
-0
230
1
0
CIRCLE
5
102
100
AcDbEntity
8
0
100
AcDbCircle
10
235.00000014901158
20
-207.00000161677596
30
0
40
1.7500000000000071
210
0
220
0
230
1
0
CIRCLE
5
103
100
AcDbEntity
8
0
100
AcDbCircle
10
210.00000014901156
20
-207.00000280558183
30
0
40
1.7500000000000071
210
0
220
0
230
1
0
CIRCLE
5
104
100
AcDbEntity
8
0
100
AcDbCircle
10
260.00000014901156
20
-207.00000042797004
30
0
40
1.7500000000000071
210
0
220
0
230
1
0
CIRCLE
5
105
100
AcDbEntity
8
0
100
AcDbCircle
10
-260.00000014901156
20
-207.00000042797004
30
0
40
1.7500000000000071
210
0
220
0
230
1
0
CIRCLE
5
106
100
AcDbEntity
8
0
100
AcDbCircle
10
-210.00000014901156
20
-207.00000280558183
30
0
40
1.7500000000000071
210
0
220
0
230
1
0
CIRCLE
5
107
100
AcDbEntity
8
0
100
AcDbCircle
10
-235.00000014901158
20
-207.00000161677596
30
0
40
1.7500000000000071
210
0
220
0
230
1
0
CIRCLE
5
108
100
AcDbEntity
8
0
100
AcDbCircle
10
-72.174235934799199
20
45.224535017107627
30
0
40
1.8499999999999981
210
0
220
0
230
1
0
CIRCLE
5
109
100
AcDbEntity
8
0
100
AcDbCircle
10
-78.375197828996676
20
200.46491607393034
30
0
40
1.8499999999999894
210
0
220
0
230
1
0
CIRCLE
5
110
100
AcDbEntity
8
0
100
AcDbCircle
10
24.518685713409802
20
-68.252517517966794
30
0
40
1.8500000000000028
210
0
220
0
230
1
0
CIRCLE
5
111
100
AcDbEntity
8
0
100
AcDbCircle
10
-195.28862734003184
20
-92.535083926116641
30
0
40
1.850000000000007
210
0
220
0
230
1
0
CIRCLE
5
112
100
AcDbEntity
8
0
100
AcDbCircle
10
72.174438361521212
20
45.224535017107627
30
0
40
1.8499999999999981
210
0
220
0
230
1
0
CIRCLE
5
113
100
AcDbEntity
8
0
100
AcDbCircle
10
-57.746038423294138
20
70.214909629009696
30
0
40
1.850000000000007
210
0
220
0
230
1
0
CIRCLE
5
114
100
AcDbEntity
8
0
100
AcDbCircle
10
78.375400255718688
20
200.46491607393034
30
0
40
1.8499999999999894
210
0
220
0
230
1
0
CIRCLE
5
115
100
AcDbEntity
8
0
100
AcDbCircle
10
-24.518483286687783
20
-68.252517517966794
30
0
40
1.8500000000000028
210
0
220
0
230
1
0
CIRCLE
5
116
100
AcDbEntity
8
0
100
AcDbCircle
10
195.28882976675385
20
-92.535083926116641
30
0
40
1.850000000000007
210
0
220
0
230
1
0
CIRCLE
5
117
100
AcDbEntity
8
0
100
AcDbCircle
10
57.746240850016157
20
70.214909629009696
30
0
40
1.850000000000007
210
0
220
0
230
1
0
CIRCLE
5
118
100
AcDbEntity
8
0
100
AcDbCircle
10
-47.58300191695632
20
-196.52018381652664
30
0
40
1.8499999999999981
210
0
220
0
230
1
0
CIRCLE
5
119
100
AcDbEntity
8
0
100
AcDbCircle
10
-26.529426672757332
20
-101.18043785436785
30
0
40
1.8499999999999981
210
0
220
0
230
1
0
CIRCLE
5
120
100
AcDbEntity
8
0
100
AcDbCircle
10
72.137213562373091
20
287.85797374669329
30
0
40
1.7499999999999805
210
0
220
-0
230
1
0
CIRCLE
5
121
100
AcDbEntity
8
0
100
AcDbCircle
10
-72.137213562373091
20
287.85797374669329
30
0
40
1.7499999999999805
210
0
220
-0
230
1
0
CIRCLE
5
122
100
AcDbEntity
8
0
100
AcDbCircle
10
-42.137213562373091
20
287.85797374669329
30
0
40
1.7500000000000071
210
0
220
0
230
1
0
CIRCLE
5
123
100
AcDbEntity
8
0
100
AcDbCircle
10
42.137213562373091
20
287.85797374669329
30
0
40
1.749999999999998
210
0
220
0
230
1
0
LWPOLYLINE
5
124
100
AcDbEntity
8
0
100
AcDbPolyline
90
8
70
1
43
0.0
10
-12.5
20
291.85797374669329
10
12.5
20
291.85797374669329
42
-0.41421356237309503
10
15
20
289.35797374669329
10
15
20
286.35797374669329
42
-0.41421356237309503
10
12.5
20
283.85797374669329
10
-12.5
20
283.85797374669329
42
-0.41421356237309503
10
-15
20
286.35797374669329
10
-15
20
289.35797374669329
42
-0.41421356237309503
0
LWPOLYLINE
5
125
100
AcDbEntity
8
0
100
AcDbPolyline
90
24
70
1
43
0.0
10
228.69999998506771
20
305.0999999999998
10
228.69999998506771
20
320.00000476837158
10
225.09999582767477
20
320.00000476837158
10
-225.09999582767477
20
319.99999999999994
10
-228.69999998506771
20
319.99999999999994
10
-228.69999998506773
20
305.0999999999998
42
-0.36204865202718622
10
-233.69997277047622
20
299.1000049769878
10
-244.99999582767472
20
299.1000049769878
42
0.41421356237309248
10
-249.09999581277361
20
295.00000499188894
10
-249.09999581277364
20
283.70002356984139
42
-0.36205104611504874
10
-255.10000014901127
20
278.69999998510741
10
-270.00000402331352
20
278.69999998510735
10
-270.00000402331352
20
275.10000499188897
10
-270.00000014901156
20
-212.29999999999995
42
0.41421356237309725
10
-265.30000014901157
20
-217
10
265.30000014901157
20
-217
42
0.41421356237309503
10
270.00000014901156
20
-212.30000000000001
10
270.00000014901156
20
275.10000499188897
10
270.00000014901156
20
278.69999998510735
10
255.10000014901127
20
278.69999998510741
42
-0.36205104611505307
10
249.09999581277361
20
283.70002356984139
10
249.09999581277361
20
295.00000499188894
42
0.41421356237308998
10
244.99999582767475
20
299.1000049769878
10
233.69997277047614
20
299.1000049769878
42
-0.3620486520271784
0
LWPOLYLINE
5
126
100
AcDbEntity
8
0
100
AcDbPolyline
90
30
70
1
43
0.0
10
13.81579981743625
20
-63.335083926128213
10
-13.815799817436252
20
-63.335083926128213
42
-0.13165249758738848
10
-16.465799817436096
20
-62.62501856618573
10
-23.099774413652526
20
-58.794891547262999
42
-0.41421356237315105
10
-23.941632842356505
20
-55.65303311855839
10
-21.333193651317703
20
-51.135083911227426
42
0.26794919243117626
10
-21.333193651316719
20
-41.43508391122576
10
-64.057113562743879
20
32.564916073870023
42
-0.26794919243112214
10
-64.057113562743837
20
42.864916073870006
10
-51.651957959789854
20
64.351275853983935
10
-43.626346627952522
20
82.386134482701408
42
-0.29626415069230527
10
-36.50010121336139
20
87.014916058968993
10
-21.50010121336139
20
87.014916058968879
42
-0.36104797181011672
10
-13.833003823518402
20
80.648658579319758
10
-11.934152516278612
20
70.494340286607638
42
0.36104797181012971
10
-10.75459907168738
20
69.514916058969305
10
10.75459907168738
20
69.514916058969305
42
0.36104797181012505
10
11.934152516278612
20
70.494340286607638
10
13.833003823518396
20
80.648658579319758
42
-0.36104797181011694
10
21.50010121336139
20
87.014916058968879
10
36.50010121336139
20
87.014916058968979
42
-0.29626415069230405
10
43.626346627952515
20
82.386134482701408
10
51.651957959789854
20
64.351275853983935
10
64.057113562743837
20
42.864916073870006
42
-0.26794919243112214
10
64.057113562743865
20
32.564916073870023
10
21.333193651316719
20
-41.43508391122576
42
0.26794919243117554
10
21.333193651317703
20
-51.135083911227419
10
23.941632842356505
20
-55.65303311855839
42
-0.41421356237315149
10
23.099774413652526
20
-58.794891547262992
10
16.465799817436093
20
-62.62501856618573
42
-0.13165249758738848
0
ENDSEC
0
SECTION
2
OBJECTS
0
DICTIONARY
5
C
100
AcDbDictionary
3
ACAD_GROUP
350
D
3
ACAD_MLINESTYLE
350
17
0
DICTIONARY
5
D
100
AcDbDictionary
0
DICTIONARY
5
1A
330
C
100
AcDbDictionary
0
DICTIONARY
5
17
100
AcDbDictionary
0
ENDSEC
0
EOF
