0
SECTION
2
HEADER
9
$INSUNITS
70
4
9
$ACADVER
1
AC1014
9
$HANDSEED
5
FFFF
0
ENDSEC
0
SECTION
2
TABLES
0
TABLE
2
VPORT
5
8
100
AcDbSymbolTable
0
ENDTAB
0
TABLE
2
LTYPE
5
5
100
AcDbSymbolTable
0
LTYPE
5
14
100
AcDbSymbolTableRecord
100
AcDbLinetypeTableRecord
2
BYBLOCK
70
0
0
LTYPE
5
15
100
AcDbSymbolTableRecord
100
AcDbLinetypeTableRecord
2
BYLAYER
70
0
0
LTYPE
5
16
100
AcDbSymbolTableRecord
100
AcDbLinetypeTableRecord
2
DASHED
70
0
3
Dashed __ __ __ __ __ __ __ __ __ __ __ __ __ _
72
65
73
2
40
0.75
49
0.5
74
0
49
-0.25
74
0
0
ENDTAB
0
TABLE
2
LAYER
5
2
100
AcDbSymbolTable
70
2
0
LAYER
5
50
100
AcDbSymbolTableRecord
100
AcDbLayerTableRecord
2
0
70
0
62
7
6
CONTINUOUS
0
ENDTAB
0
TABLE
2
STYLE
5
3
100
AcDbSymbolTable
70
1
0
STYLE
5
11
100
AcDbSymbolTableRecord
100
AcDbTextStyleTableRecord
2
STANDARD
70
0
0
ENDTAB
0
TABLE
2
VIEW
5
6
100
AcDbSymbolTable
70
0
0
ENDTAB
0
TABLE
2
UCS
5
7
100
AcDbSymbolTable
70
0
0
ENDTAB
0
TABLE
2
APPID
5
9
100
AcDbSymbolTable
70
2
0
APPID
5
12
100
AcDbSymbolTableRecord
100
AcDbRegAppTableRecord
2
ACAD
70
0
0
ENDTAB
0
TABLE
2
DIMSTYLE
5
A
100
AcDbSymbolTable
70
1
0
ENDTAB
0
TABLE
2
BLOCK_RECORD
5
1
100
AcDbSymbolTable
70
1
0
BLOCK_RECORD
5
1F
100
AcDbSymbolTableRecord
100
AcDbBlockTableRecord
2
*MODEL_SPACE
0
BLOCK_RECORD
5
1B
100
AcDbSymbolTableRecord
100
AcDbBlockTableRecord
2
*PAPER_SPACE
0
ENDTAB
0
ENDSEC
0
SECTION
2
BLOCKS
0
BLOCK
5
20
100
AcDbEntity
100
AcDbBlockBegin
2
*MODEL_SPACE
0
ENDBLK
5
21
100
AcDbEntity
100
AcDbBlockEnd
0
BLOCK
5
1C
100
AcDbEntity
100
AcDbBlockBegin
2
*PAPER_SPACE
0
ENDBLK
5
1D
100
AcDbEntity
100
AcDbBlockEnd
0
ENDSEC
0
SECTION
2
ENTITIES
0
LWPOLYLINE
5
100
100
AcDbEntity
8
0
100
AcDbPolyline
90
4
70
1
43
0.0
10
240.49999999999966
20
102.7500001490118
10
299.49999999999955
20
102.7500001490118
10
299.49999999999983
20
519.49999985099896
10
240.49999999999989
20
519.49999985099805
0
LWPOLYLINE
5
101
100
AcDbEntity
8
0
100
AcDbPolyline
90
6
70
1
43
0.0
10
276.10288795421025
20
242.89101761169019
10
276.10288795421042
20
247.39101498908784
10
280.00000000000023
20
249.64101367778653
10
283.89711204578981
20
247.39101498908755
10
283.8971120457897
20
242.8910176116899
10
279.99999999999989
20
240.64101892299121
0
LWPOLYLINE
5
102
100
AcDbEntity
8
0
100
AcDbPolyline
90
6
70
1
43
0.0
10
256.10288795420661
20
173.60898530893616
10
256.10288795420678
20
178.1089826863338
10
259.99999999999659
20
180.35898137503244
10
263.89711204578623
20
178.10898268633352
10
263.89711204578606
20
173.60898530893587
10
259.99999999999625
20
171.35898662023715
0
LWPOLYLINE
5
103
100
AcDbEntity
8
0
100
AcDbPolyline
90
6
70
1
43
0.0
10
266.10288795420661
20
173.60898530893562
10
266.10288795420678
20
178.10898268633326
10
269.99999999999659
20
180.35898137503196
10
273.89711204578623
20
178.10898268633298
10
273.89711204578606
20
173.60898530893533
10
269.99999999999625
20
171.35898662023664
0
LWPOLYLINE
5
104
100
AcDbEntity
8
0
100
AcDbPolyline
90
6
70
1
43
0.0
10
281.10288795420615
20
164.94873127109045
10
281.10288795420632
20
169.4487286484881
10
284.99999999999613
20
171.69872733718677
10
288.89711204578578
20
169.44872864848782
10
288.8971120457856
20
164.94873127109017
10
284.99999999999579
20
162.69873258239144
0
LWPOLYLINE
5
105
100
AcDbEntity
8
0
100
AcDbPolyline
90
6
70
1
43
0.0
10
251.1028879542107
20
251.55127164953583
10
251.10288795421087
20
256.05126902693348
10
255.00000000000068
20
258.30126771563221
10
258.89711204579032
20
256.0512690269332
10
258.89711204579015
20
251.55127164953555
10
255.00000000000031
20
249.30127296083685
0
LWPOLYLINE
5
106
100
AcDbEntity
8
0
100
AcDbPolyline
90
6
70
1
43
0.0
10
251.10288795420706
20
182.26923934678075
10
251.10288795420726
20
186.76923672417843
10
254.99999999999704
20
189.01923541287712
10
258.89711204578668
20
186.76923672417814
10
258.89711204578651
20
182.26923934678047
10
254.9999999999967
20
180.0192406580818
0
LWPOLYLINE
5
107
100
AcDbEntity
8
0
100
AcDbPolyline
90
6
70
1
43
0.0
10
271.10288795420888
20
216.91025549815726
10
271.10288795420905
20
221.41025287555493
10
274.99999999999886
20
223.66025156425363
10
278.8971120457885
20
221.41025287555465
10
278.89711204578833
20
216.91025549815697
10
274.99999999999852
20
214.6602568094583
0
LWPOLYLINE
5
108
100
AcDbEntity
8
0
100
AcDbPolyline
90
6
70
1
43
0.0
10
271.1028879542107
20
251.55127164953481
10
271.10288795421087
20
256.05126902693246
10
275.00000000000068
20
258.30126771563118
10
278.89711204579032
20
256.05126902693218
10
278.89711204579015
20
251.55127164953453
10
275.00000000000034
20
249.30127296083583
0
LWPOLYLINE
5
109
100
AcDbEntity
8
0
100
AcDbPolyline
90
6
70
1
43
0.0
10
271.10288795420979
20
234.23076357384605
10
271.10288795420996
20
238.73076095124372
10
274.99999999999977
20
240.98075963994239
10
278.89711204578936
20
238.73076095124344
10
278.89711204578924
20
234.23076357384576
10
274.99999999999937
20
231.9807648851471
0
LWPOLYLINE
5
110
100
AcDbEntity
8
0
100
AcDbPolyline
90
6
70
1
43
0.0
10
261.10288795420615
20
164.94873127109148
10
261.10288795420632
20
169.44872864848915
10
264.99999999999613
20
171.69872733718785
10
268.89711204578578
20
169.44872864848887
10
268.8971120457856
20
164.94873127109119
10
264.99999999999579
20
162.69873258239249
0
LWPOLYLINE
5
111
100
AcDbEntity
8
0
100
AcDbPolyline
90
6
70
1
43
0.0
10
276.1028879542057
20
156.28847723324631
10
276.10288795420593
20
160.78847461064399
10
279.99999999999568
20
163.03847329934263
10
283.89711204578532
20
160.7884746106437
10
283.89711204578521
20
156.28847723324603
10
279.99999999999534
20
154.03847854454733
0
LWPOLYLINE
5
112
100
AcDbEntity
8
0
100
AcDbPolyline
90
6
70
1
43
0.0
10
266.10288795421116
20
260.21152568737944
10
266.10288795421133
20
264.71152306477711
10
270.00000000000108
20
266.96152175347584
10
273.89711204579072
20
264.71152306477683
10
273.89711204579055
20
260.21152568737921
10
270.00000000000074
20
257.96152699868048
0
LWPOLYLINE
5
113
100
AcDbEntity
8
0
100
AcDbPolyline
90
6
70
1
43
0.0
10
251.10288795420979
20
234.23076357384707
10
251.10288795420996
20
238.73076095124475
10
254.99999999999974
20
240.98075963994344
10
258.89711204578936
20
238.73076095124446
10
258.89711204578924
20
234.23076357384679
10
254.9999999999994
20
231.98076488514812
0
LWPOLYLINE
5
114
100
AcDbEntity
8
0
100
AcDbPolyline
90
6
70
1
43
0.0
10
256.10288795420934
20
225.57050953600242
10
256.10288795420951
20
230.0705069134001
10
259.99999999999932
20
232.32050560209876
10
263.8971120457889
20
230.07050691339981
10
263.89711204578879
20
225.57050953600213
10
259.99999999999892
20
223.32051084730347
0
LWPOLYLINE
5
115
100
AcDbEntity
8
0
100
AcDbPolyline
90
6
70
1
43
0.0
10
281.10288795420797
20
199.58974742246798
10
281.10288795420814
20
204.08974479986566
10
284.99999999999795
20
206.33974348856435
10
288.89711204578754
20
204.08974479986537
10
288.89711204578742
20
199.5897474224677
10
284.99999999999761
20
197.339748733769
0
LWPOLYLINE
5
116
100
AcDbEntity
8
0
100
AcDbPolyline
90
6
70
1
43
0.0
10
261.10288795420979
20
234.23076357384656
10
261.10288795420996
20
238.73076095124421
10
264.99999999999977
20
240.9807596399429
10
268.89711204578936
20
238.73076095124392
10
268.89711204578924
20
234.23076357384627
10
264.99999999999937
20
231.98076488514758
0
LWPOLYLINE
5
117
100
AcDbEntity
8
0
100
AcDbPolyline
90
6
70
1
43
0.0
10
256.1028879542057
20
156.28847723324736
10
256.10288795420593
20
160.78847461064501
10
259.99999999999568
20
163.03847329934371
10
263.89711204578532
20
160.78847461064473
10
263.89711204578521
20
156.28847723324708
10
259.99999999999534
20
154.03847854454838
0
LWPOLYLINE
5
118
100
AcDbEntity
8
0
100
AcDbPolyline
90
6
70
1
43
0.0
10
276.10288795420934
20
225.5705095360014
10
276.10288795420951
20
230.07050691339907
10
279.99999999999932
20
232.32050560209774
10
283.8971120457889
20
230.07050691339879
10
283.89711204578879
20
225.57050953600111
10
279.99999999999892
20
223.32051084730242
0
LWPOLYLINE
5
119
100
AcDbEntity
8
0
100
AcDbPolyline
90
6
70
1
43
0.0
10
256.10288795420752
20
190.92949338462489
10
256.10288795420774
20
195.42949076202257
10
259.9999999999975
20
197.67948945072123
10
263.89711204578714
20
195.42949076202228
10
263.89711204578697
20
190.92949338462461
10
259.99999999999716
20
188.67949469592591
0
LWPOLYLINE
5
120
100
AcDbEntity
8
0
100
AcDbPolyline
90
6
70
1
43
0.0
10
266.1028879542057
20
156.28847723324682
10
266.10288795420593
20
160.78847461064447
10
269.99999999999568
20
163.03847329934317
10
273.89711204578532
20
160.78847461064419
10
273.89711204578521
20
156.28847723324654
10
269.99999999999534
20
154.03847854454784
0
LWPOLYLINE
5
121
100
AcDbEntity
8
0
100
AcDbPolyline
90
6
70
1
43
0.0
10
266.10288795420934
20
225.57050953600194
10
266.10288795420951
20
230.07050691339958
10
269.99999999999932
20
232.32050560209828
10
273.8971120457889
20
230.0705069133993
10
273.89711204578879
20
225.57050953600165
10
269.99999999999892
20
223.32051084730296
0
LWPOLYLINE
5
122
100
AcDbEntity
8
0
100
AcDbPolyline
90
6
70
1
43
0.0
10
276.10288795420752
20
190.92949338462387
10
276.10288795420774
20
195.42949076202152
10
279.9999999999975
20
197.67948945072021
10
283.89711204578714
20
195.42949076202123
10
283.89711204578697
20
190.92949338462358
10
279.99999999999716
20
188.67949469592489
0
LWPOLYLINE
5
123
100
AcDbEntity
8
0
100
AcDbPolyline
90
6
70
1
43
0.0
10
273.89711204578788
20
208.25000146031286
10
269.99999999999807
20
206.00000277161416
10
266.10288795420843
20
208.25000146031314
10
266.1028879542086
20
212.74999883771079
10
269.99999999999841
20
214.99999752640949
10
273.89711204578805
20
212.74999883771051
0
LWPOLYLINE
5
124
100
AcDbEntity
8
0
100
AcDbPolyline
90
6
70
1
43
0.0
10
281.10288795420706
20
182.26923934677922
10
281.10288795420723
20
186.76923672417686
10
284.99999999999704
20
189.01923541287556
10
288.89711204578668
20
186.76923672417658
10
288.89711204578651
20
182.26923934677893
10
284.9999999999967
20
180.01924065808024
0
LWPOLYLINE
5
125
100
AcDbEntity
8
0
100
AcDbPolyline
90
6
70
1
43
0.0
10
251.10288795420797
20
199.58974742246954
10
251.10288795420814
20
204.08974479986722
10
254.99999999999795
20
206.33974348856589
10
258.89711204578754
20
204.08974479986693
10
258.89711204578742
20
199.58974742246926
10
254.99999999999758
20
197.33974873377059
0
LWPOLYLINE
5
126
100
AcDbEntity
8
0
100
AcDbPolyline
90
6
70
1
43
0.0
10
276.10288795421116
20
260.21152568737892
10
276.10288795421133
20
264.7115230647766
10
280.00000000000108
20
266.96152175347527
10
283.89711204579072
20
264.71152306477632
10
283.89711204579055
20
260.21152568737864
10
280.00000000000074
20
257.96152699867997
0
LWPOLYLINE
5
127
100
AcDbEntity
8
0
100
AcDbPolyline
90
6
70
1
43
0.0
10
281.10288795420979
20
234.23076357384554
10
281.10288795420996
20
238.73076095124318
10
284.99999999999977
20
240.98075963994188
10
288.89711204578936
20
238.7307609512429
10
288.89711204578924
20
234.23076357384525
10
284.99999999999937
20
231.98076488514656
0
LWPOLYLINE
5
128
100
AcDbEntity
8
0
100
AcDbPolyline
90
6
70
1
43
0.0
10
256.10288795421116
20
260.21152568737995
10
256.10288795421133
20
264.71152306477762
10
260.00000000000108
20
266.96152175347629
10
263.89711204579072
20
264.71152306477734
10
263.89711204579055
20
260.21152568737966
10
260.00000000000074
20
257.96152699868099
0
LWPOLYLINE
5
129
100
AcDbEntity
8
0
100
AcDbPolyline
90
6
70
1
43
0.0
10
261.1028879542107
20
251.55127164953535
10
261.10288795421087
20
256.05126902693303
10
265.00000000000068
20
258.3012677156317
10
268.89711204579032
20
256.05126902693269
10
268.89711204579015
20
251.55127164953507
10
265.00000000000034
20
249.30127296083637
0
LWPOLYLINE
5
130
100
AcDbEntity
8
0
100
AcDbPolyline
90
6
70
1
43
0.0
10
281.10288795420888
20
216.91025549815674
10
281.10288795420905
20
221.41025287555439
10
284.99999999999886
20
223.66025156425309
10
288.8971120457885
20
221.41025287555411
10
288.89711204578833
20
216.91025549815646
10
284.99999999999852
20
214.66025680945776
0
LWPOLYLINE
5
131
100
AcDbEntity
8
0
100
AcDbPolyline
90
6
70
1
43
0.0
10
251.10288795420615
20
164.94873127109202
10
251.10288795420632
20
169.44872864848969
10
254.99999999999613
20
171.69872733718833
10
258.89711204578578
20
169.44872864848941
10
258.8971120457856
20
164.94873127109173
10
254.99999999999577
20
162.69873258239301
0
LWPOLYLINE
5
132
100
AcDbEntity
8
0
100
AcDbPolyline
90
6
70
1
43
0.0
10
261.10288795420706
20
182.26923934678024
10
261.10288795420723
20
186.76923672417789
10
264.99999999999704
20
189.01923541287658
10
268.89711204578668
20
186.7692367241776
10
268.89711204578651
20
182.26923934677995
10
264.9999999999967
20
180.01924065808126
0
LWPOLYLINE
5
133
100
AcDbEntity
8
0
100
AcDbPolyline
90
6
70
1
43
0.0
10
251.10288795420888
20
216.91025549815831
10
251.10288795420905
20
221.41025287555595
10
254.99999999999886
20
223.66025156425465
10
258.8971120457885
20
221.41025287555567
10
258.89711204578833
20
216.91025549815802
10
254.99999999999852
20
214.66025680945933
0
LWPOLYLINE
5
134
100
AcDbEntity
8
0
100
AcDbPolyline
90
6
70
1
43
0.0
10
276.10288795420661
20
173.60898530893508
10
276.10288795420678
20
178.10898268633275
10
279.99999999999659
20
180.35898137503142
10
283.89711204578623
20
178.10898268633247
10
283.89711204578606
20
173.60898530893479
10
279.99999999999625
20
171.3589866202361
0
LWPOLYLINE
5
135
100
AcDbEntity
8
0
100
AcDbPolyline
90
4
70
1
43
0.0
10
279.99999999999989
20
462.86424054093396
42
0.99999999999999989
10
259.99999999999989
20
462.86424054093396
10
259.99999999999989
20
456.13575916106294
42
0.99999999999999989
10
279.99999999999989
20
456.13575916106294
0
LWPOLYLINE
5
136
100
AcDbEntity
8
0
100
AcDbPolyline
90
6
70
1
43
0.0
10
266.10288795421025
20
242.89101761169067
10
266.10288795421042
20
247.39101498908835
10
270.00000000000023
20
249.64101367778704
10
273.89711204578981
20
247.39101498908806
10
273.8971120457897
20
242.89101761169039
10
269.99999999999989
20
240.64101892299169
0
LWPOLYLINE
5
137
100
AcDbEntity
8
0
100
AcDbPolyline
90
6
70
1
43
0.0
10
261.10288795420888
20
216.9102554981578
10
261.10288795420905
20
221.41025287555547
10
264.99999999999886
20
223.66025156425417
10
268.8971120457885
20
221.41025287555519
10
268.89711204578833
20
216.91025549815751
10
264.99999999999852
20
214.66025680945882
0
LWPOLYLINE
5
138
100
AcDbEntity
8
0
100
AcDbPolyline
90
6
70
1
43
0.0
10
271.10288795420706
20
182.26923934677973
10
271.10288795420723
20
186.7692367241774
10
274.99999999999704
20
189.01923541287607
10
278.89711204578668
20
186.76923672417712
10
278.89711204578651
20
182.26923934677944
10
274.9999999999967
20
180.01924065808078
0
LWPOLYLINE
5
139
100
AcDbEntity
8
0
100
AcDbPolyline
90
6
70
1
43
0.0
10
256.10288795421025
20
242.89101761169121
10
256.10288795421042
20
247.39101498908889
10
260.00000000000023
20
249.64101367778756
10
263.89711204578981
20
247.3910149890886
10
263.8971120457897
20
242.89101761169093
10
259.99999999999989
20
240.64101892299223
0
LWPOLYLINE
5
140
100
AcDbEntity
8
0
100
AcDbPolyline
90
6
70
1
43
0.0
10
276.10288795420843
20
208.2500014603126
10
276.1028879542086
20
212.74999883771028
10
279.99999999999841
20
214.99999752640895
10
283.89711204578805
20
212.74999883771
10
283.89711204578788
20
208.25000146031232
10
279.99999999999807
20
206.00000277161365
0
LWPOLYLINE
5
141
100
AcDbEntity
8
0
100
AcDbPolyline
90
6
70
1
43
0.0
10
281.1028879542107
20
251.5512716495343
10
281.10288795421087
20
256.05126902693195
10
285.00000000000068
20
258.30126771563067
10
288.89711204579032
20
256.05126902693166
10
288.89711204579015
20
251.55127164953402
10
285.00000000000034
20
249.30127296083532
0
LWPOLYLINE
5
142
100
AcDbEntity
8
0
100
AcDbPolyline
90
6
70
1
43
0.0
10
266.10288795420752
20
190.92949338462435
10
266.10288795420774
20
195.42949076202203
10
269.9999999999975
20
197.67948945072072
10
273.89711204578714
20
195.42949076202174
10
273.89711204578697
20
190.92949338462407
10
269.99999999999716
20
188.67949469592537
0
LWPOLYLINE
5
143
100
AcDbEntity
8
0
100
AcDbPolyline
90
6
70
1
43
0.0
10
256.10288795420843
20
208.25000146031368
10
256.1028879542086
20
212.74999883771133
10
259.99999999999841
20
214.99999752641003
10
263.89711204578805
20
212.74999883771105
10
263.89711204578788
20
208.2500014603134
10
259.99999999999807
20
206.0000027716147
0
LWPOLYLINE
5
144
100
AcDbEntity
8
0
100
AcDbPolyline
90
6
70
1
43
0.0
10
271.10288795420615
20
164.94873127109094
10
271.10288795420632
20
169.44872864848861
10
274.99999999999613
20
171.69872733718731
10
278.89711204578578
20
169.44872864848833
10
278.8971120457856
20
164.94873127109065
10
274.99999999999579
20
162.69873258239198
0
LWPOLYLINE
5
145
100
AcDbEntity
8
0
100
AcDbPolyline
90
6
70
1
43
0.0
10
261.10288795420797
20
199.58974742246903
10
261.10288795420814
20
204.08974479986668
10
264.99999999999795
20
206.33974348856538
10
268.89711204578754
20
204.08974479986639
10
268.89711204578742
20
199.58974742246875
10
264.99999999999761
20
197.33974873377005
0
LWPOLYLINE
5
146
100
AcDbEntity
8
0
100
AcDbPolyline
90
3
70
1
43
0.0
10
253.89711204579058
20
260.21152568738023
10
250.47724925063179
20
258.23706698200385
42
-0.080077349102311249
10
253.89711204579069
20
263.97950308993376
0
LWPOLYLINE
5
147
100
AcDbEntity
8
0
100
AcDbPolyline
90
3
70
1
43
0.0
10
286.10288795420576
20
157.02049720809515
42
0.080077349102211731
10
289.52275074935994
20
162.76293331601707
10
286.10288795420593
20
160.78847461064345
0
LWPOLYLINE
5
148
100
AcDbEntity
8
0
100
AcDbPolyline
90
6
70
1
43
0.0
10
249.99999999999892
20
223.32051084730398
10
248.99999999999659
20
223.89786111649502
10
248.99999999999659
20
231.74315533290815
10
249.99999999999929
20
232.3205056020993
10
253.8971120457889
20
230.07050691340032
10
253.89711204578876
20
225.57050953600267
0
LWPOLYLINE
5
149
100
AcDbEntity
8
0
100
AcDbPolyline
90
6
70
1
43
0.0
10
271.10288795420797
20
199.58974742246849
10
271.10288795420814
20
204.08974479986614
10
274.99999999999795
20
206.33974348856484
10
278.89711204578754
20
204.08974479986585
10
278.89711204578742
20
199.58974742246821
10
274.99999999999761
20
197.33974873376951
0
LWPOLYLINE
5
150
100
AcDbEntity
8
0
100
AcDbPolyline
90
6
70
1
43
0.0
10
249.99999999999804
20
206.00000277161519
10
248.99999999999659
20
206.57735304080575
10
248.99999999999659
20
214.42264725721992
10
249.99999999999841
20
214.99999752641054
10
253.89711204578802
20
212.74999883771156
10
253.89711204578788
20
208.25000146031388
0
LWPOLYLINE
5
151
100
AcDbEntity
8
0
100
AcDbPolyline
90
3
70
1
43
0.0
10
286.10288795421116
20
260.21152568737841
10
286.10288795421127
20
263.97950308993109
42
-0.080077349102286324
10
289.52275074936847
20
258.23706698200255
0
LWPOLYLINE
5
152
100
AcDbEntity
8
0
100
AcDbPolyline
90
5
70
1
43
0.0
10
271.10288795420536
20
149.52898114276275
42
0.09653638119323675
10
278.89711204578481
20
151.47787100307531
10
278.89711204578487
20
152.12822057279956
10
274.99999999999523
20
154.37821926149854
10
271.10288795420547
20
152.12822057279985
0
LWPOLYLINE
5
153
100
AcDbEntity
8
0
100
AcDbPolyline
90
6
70
1
43
0.0
10
249.99999999999986
20
240.64101892299274
10
248.99999999999659
20
241.2183691921843
10
248.99999999999659
20
249.06366340859637
10
250.00000000000023
20
249.64101367778807
10
253.89711204578984
20
247.39101498908909
10
253.8971120457897
20
242.89101761169144
0
LWPOLYLINE
5
154
100
AcDbEntity
8
0
100
AcDbPolyline
90
6
70
1
43
0.0
10
286.10288795420934
20
225.57050953600086
10
286.10288795420951
20
230.07050691339853
10
289.99999999999932
20
232.32050560209723
10
290.99999999999648
20
231.74315533290917
10
290.99999999999648
20
223.89786111649002
10
289.99999999999892
20
223.32051084730188
0
LWPOLYLINE
5
155
100
AcDbEntity
8
0
100
AcDbPolyline
90
6
70
1
43
0.0
10
286.10288795420661
20
173.60898530893456
10
286.10288795420678
20
178.10898268633224
10
289.99999999999659
20
180.35898137503094
10
290.99999999999648
20
179.78163110584134
10
290.99999999999648
20
171.93633688942526
10
289.99999999999625
20
171.35898662023556
0
LWPOLYLINE
5
156
100
AcDbEntity
8
0
100
AcDbPolyline
90
3
70
1
43
0.0
10
253.89711204578532
20
160.78847461064527
10
253.89711204578521
20
157.02049720809762
42
-0.08007734910219079
10
250.47724925063252
20
162.76293331601846
0
LWPOLYLINE
5
157
100
AcDbEntity
8
0
100
AcDbPolyline
90
5
70
1
43
0.0
10
261.10288795421161
20
268.87177972522409
10
261.10288795421161
20
269.52212929495204
42
-0.09653638119322018
10
268.89711204579112
20
271.47101915526423
10
268.89711204579106
20
268.8717797252238
10
265.00000000000119
20
266.62178103652514
0
LWPOLYLINE
5
158
100
AcDbEntity
8
0
100
AcDbPolyline
90
6
70
1
43
0.0
10
249.99999999999716
20
188.67949469592645
10
248.99999999999659
20
189.25684496511647
10
248.99999999999659
20
197.10213918153164
10
249.9999999999975
20
197.67948945072177
10
253.89711204578714
20
195.42949076202279
10
253.897112045787
20
190.92949338462515
0
LWPOLYLINE
5
159
100
AcDbEntity
8
0
100
AcDbPolyline
90
5
70
1
43
0.0
10
271.10288795421161
20
268.87177972522358
10
271.10288795421172
20
271.47101915526406
42
-0.09653638119322254
10
278.89711204579106
20
269.52212929495067
10
278.89711204579106
20
268.87177972522329
10
275.00000000000119
20
266.62178103652462
0
LWPOLYLINE
5
160
100
AcDbEntity
8
0
100
AcDbPolyline
90
5
70
1
43
0.0
10
261.10288795420541
20
151.47787100307664
42
0.096536381193239068
10
268.89711204578481
20
149.52898114276292
10
268.89711204578487
20
152.12822057280007
10
264.99999999999523
20
154.37821926149905
10
261.10288795420547
20
152.12822057280036
0
LWPOLYLINE
5
161
100
AcDbEntity
8
0
100
AcDbPolyline
90
6
70
1
43
0.0
10
286.10288795420843
20
208.25000146031212
10
286.1028879542086
20
212.74999883770977
10
289.99999999999841
20
214.99999752640846
10
290.99999999999648
20
214.42264725721992
10
290.99999999999648
20
206.5773530408018
10
289.99999999999807
20
206.00000277161314
0
LWPOLYLINE
5
162
100
AcDbEntity
8
0
100
AcDbPolyline
90
6
70
1
43
0.0
10
286.10288795420752
20
190.92949338462333
10
286.10288795420774
20
195.42949076202098
10
289.9999999999975
20
197.67948945071967
10
290.99999999999648
20
197.10213918153059
10
290.99999999999648
20
189.25684496511352
10
289.99999999999716
20
188.67949469592435
0
LWPOLYLINE
5
163
100
AcDbEntity
8
0
100
AcDbPolyline
90
6
70
1
43
0.0
10
249.99999999999625
20
171.35898662023766
10
248.99999999999659
20
171.93633688942714
10
248.99999999999659
20
179.78163110584342
10
249.99999999999659
20
180.35898137503298
10
253.8971120457862
20
178.108982686334
10
253.89711204578606
20
173.60898530893635
0
LWPOLYLINE
5
164
100
AcDbEntity
8
0
100
AcDbPolyline
90
6
70
1
43
0.0
10
286.10288795421025
20
242.89101761168965
10
286.10288795421042
20
247.3910149890873
10
290.00000000000023
20
249.64101367778599
10
290.99999999999648
20
249.06366340859847
10
290.99999999999648
20
241.21836919217827
10
289.99999999999989
20
240.64101892299067
0
ENDSEC
0
SECTION
2
OBJECTS
0
DICTIONARY
5
C
100
AcDbDictionary
3
ACAD_GROUP
350
D
3
ACAD_MLINESTYLE
350
17
0
DICTIONARY
5
D
100
AcDbDictionary
0
DICTIONARY
5
1A
330
C
100
AcDbDictionary
0
DICTIONARY
5
17
100
AcDbDictionary
0
ENDSEC
0
EOF
