0
SECTION
2
HEADER
9
$INSUNITS
70
4
9
$ACADVER
1
AC1014
9
$HANDSEED
5
FFFF
0
ENDSEC
0
SECTION
2
TABLES
0
TABLE
2
VPORT
5
8
100
AcDbSymbolTable
0
ENDTAB
0
TABLE
2
LTYPE
5
5
100
AcDbSymbolTable
0
LTYPE
5
14
100
AcDbSymbolTableRecord
100
AcDbLinetypeTableRecord
2
BYBLOCK
70
0
0
LTYPE
5
15
100
AcDbSymbolTableRecord
100
AcDbLinetypeTableRecord
2
BYLAYER
70
0
0
LTYPE
5
16
100
AcDbSymbolTableRecord
100
AcDbLinetypeTableRecord
2
DASHED
70
0
3
Dashed __ __ __ __ __ __ __ __ __ __ __ __ __ _
72
65
73
2
40
0.75
49
0.5
74
0
49
-0.25
74
0
0
ENDTAB
0
TABLE
2
LAYER
5
2
100
AcDbSymbolTable
70
2
0
LAYER
5
50
100
AcDbSymbolTableRecord
100
AcDbLayerTableRecord
2
0
70
0
62
7
6
CONTINUOUS
0
ENDTAB
0
TABLE
2
STYLE
5
3
100
AcDbSymbolTable
70
1
0
STYLE
5
11
100
AcDbSymbolTableRecord
100
AcDbTextStyleTableRecord
2
STANDARD
70
0
0
ENDTAB
0
TABLE
2
VIEW
5
6
100
AcDbSymbolTable
70
0
0
ENDTAB
0
TABLE
2
UCS
5
7
100
AcDbSymbolTable
70
0
0
ENDTAB
0
TABLE
2
APPID
5
9
100
AcDbSymbolTable
70
2
0
APPID
5
12
100
AcDbSymbolTableRecord
100
AcDbRegAppTableRecord
2
ACAD
70
0
0
ENDTAB
0
TABLE
2
DIMSTYLE
5
A
100
AcDbSymbolTable
70
1
0
ENDTAB
0
TABLE
2
BLOCK_RECORD
5
1
100
AcDbSymbolTable
70
1
0
BLOCK_RECORD
5
1F
100
AcDbSymbolTableRecord
100
AcDbBlockTableRecord
2
*MODEL_SPACE
0
BLOCK_RECORD
5
1B
100
AcDbSymbolTableRecord
100
AcDbBlockTableRecord
2
*PAPER_SPACE
0
ENDTAB
0
ENDSEC
0
SECTION
2
BLOCKS
0
BLOCK
5
20
100
AcDbEntity
100
AcDbBlockBegin
2
*MODEL_SPACE
0
ENDBLK
5
21
100
AcDbEntity
100
AcDbBlockEnd
0
BLOCK
5
1C
100
AcDbEntity
100
AcDbBlockBegin
2
*PAPER_SPACE
0
ENDBLK
5
1D
100
AcDbEntity
100
AcDbBlockEnd
0
ENDSEC
0
SECTION
2
ENTITIES
0
CIRCLE
5
100
100
AcDbEntity
8
0
100
AcDbCircle
10
-159.49999999999986
20
169.50000000000003
30
0
40
1.7499999999999893
210
0
220
-0
230
1
0
CIRCLE
5
101
100
AcDbEntity
8
0
100
AcDbCircle
10
-87.499999999999872
20
97.500000000000014
30
0
40
1.7499999999999893
210
0
220
-0
230
1
0
CIRCLE
5
102
100
AcDbEntity
8
0
100
AcDbCircle
10
-159.49999999999986
20
97.500000000000014
30
0
40
1.7499999999999893
210
0
220
-0
230
1
0
CIRCLE
5
103
100
AcDbEntity
8
0
100
AcDbCircle
10
-87.499999999999872
20
169.50000000000003
30
0
40
1.7499999999999893
210
0
220
-0
230
1
0
LWPOLYLINE
5
104
100
AcDbEntity
8
0
100
AcDbPolyline
90
8
70
1
43
0.0
10
-91.499999999999915
20
168.50000000000006
10
-88.499999999999915
20
165.50000000000006
10
-88.499999999999929
20
101.50000000000004
10
-91.499999999999929
20
98.500000000000028
10
-155.49999999999994
20
98.500000000000028
10
-158.49999999999994
20
101.50000000000004
10
-158.49999999999989
20
165.50000000000006
10
-155.49999999999989
20
168.50000000000006
0
LINE
5
105
100
AcDbEntity
8
0
100
AcDbLine
10
20.819999997509839
20
498.62455105052157
30
0
11
20.819999997509768
21
525.60000000000616
31
0
0
LINE
5
106
100
AcDbEntity
8
0
100
AcDbLine
10
20.819999997509768
20
525.60000000000616
30
0
11
-295.49999634922352
21
525.60000000000105
31
0
0
LINE
5
107
100
AcDbEntity
8
0
100
AcDbLine
10
-295.49999634922352
20
525.60000000000105
30
0
11
-295.49999634922352
21
14.400000000003033
31
0
0
LINE
5
108
100
AcDbEntity
8
0
100
AcDbLine
10
-295.49999634922352
20
14.400000000003033
30
0
11
212.49999634921556
21
14.400000000000475
31
0
0
LINE
5
109
100
AcDbEntity
8
0
100
AcDbLine
10
212.49999634921556
20
14.400000000000475
30
0
11
212.49999634921551
21
525.60000000000912
31
0
0
LINE
5
110
100
AcDbEntity
8
0
100
AcDbLine
10
212.49999634921551
20
525.60000000000912
30
0
11
118.17714285465257
21
525.60000000000764
31
0
0
LINE
5
111
100
AcDbEntity
8
0
100
AcDbLine
10
118.17714285465257
20
525.60000000000764
30
0
11
118.17714285465269
21
498.62455105052152
31
0
0
SPLINE
5
112
100
AcDbEntity
8
0
100
AcDbSpline
70
0
71
3
72
14
73
10
74
0
42
0.000000001
43
0.0000000001
44
0.0000000001
40
-0.42361012469170178
40
-0.42361012469170178
40
-0.42361012469170178
40
-0.42361012469170178
40
0.28203950611202178
40
0.28203950611202178
40
0.28203950611202178
40
1.0111098996602348
40
1.0111098996602348
40
1.0111098996602348
40
1.0645546481902151
40
1.0645546481902151
40
1.0645546481902151
40
1.0645546481902151
10
108.29424059212486
20
488.14285699384811
30
0
10
110.81713790654925
20
488.14285699384811
30
0
10
113.264569868778
20
489.13440517269851
30
0
10
115.05223144708573
20
490.88365605484796
30
0
10
116.8992261503117
20
492.69096519722041
30
0
10
118.02327584896574
20
495.28622603827603
30
0
10
118.16189944541409
20
498.02132232955319
30
0
10
118.17206129441807
20
498.22181947603747
30
0
10
118.17714285465269
20
498.4229900853469
30
0
10
118.17714285465269
20
498.62455105052152
30
0
0
LINE
5
113
100
AcDbEntity
8
0
100
AcDbLine
10
108.29424059212486
20
488.14285699384811
30
0
11
30.702902260037632
21
488.14285699384811
31
0
0
SPLINE
5
114
100
AcDbEntity
8
0
100
AcDbSpline
70
0
71
3
72
14
73
10
74
0
42
0.000000001
43
0.0000000001
44
0.0000000001
40
-1.0645546481902142
40
-1.0645546481902142
40
-1.0645546481902142
40
-1.0645546481902142
40
-0.32047226174925625
40
-0.32047226174925625
40
-0.32047226174925625
40
0.38517736905446742
40
0.38517736905446742
40
0.38517736905446742
40
0.42361012469170173
40
0.42361012469170173
40
0.42361012469170173
40
0.42361012469170173
10
20.819999997509822
20
498.62455105052157
30
0
10
20.819999997509797
20
495.81832652695869
30
0
10
21.848482579057684
20
493.10141508987408
30
0
10
23.658588946816202
20
491.17579256205994
30
0
10
25.375201130359159
20
489.34963076790865
30
0
10
27.777172628196261
20
488.25483964879606
30
0
10
30.291339814281997
20
488.15131440575436
30
0
10
30.428272321401618
20
488.14567596963195
30
0
10
30.565494272063933
20
488.14285699384817
30
0
10
30.702902260037611
20
488.14285699384817
30
0
0
ENDSEC
0
SECTION
2
OBJECTS
0
DICTIONARY
5
C
100
AcDbDictionary
3
ACAD_GROUP
350
D
3
ACAD_MLINESTYLE
350
17
0
DICTIONARY
5
D
100
AcDbDictionary
0
DICTIONARY
5
1A
330
C
100
AcDbDictionary
0
DICTIONARY
5
17
100
AcDbDictionary
0
ENDSEC
0
EOF
