0
SECTION
2
HEADER
9
$INSUNITS
70
4
9
$ACADVER
1
AC1014
9
$HANDSEED
5
FFFF
0
ENDSEC
0
SECTION
2
TABLES
0
TABLE
2
VPORT
5
8
100
AcDbSymbolTable
0
ENDTAB
0
TABLE
2
LTYPE
5
5
100
AcDbSymbolTable
0
LTYPE
5
14
100
AcDbSymbolTableRecord
100
AcDbLinetypeTableRecord
2
BYBLOCK
70
0
0
LTYPE
5
15
100
AcDbSymbolTableRecord
100
AcDbLinetypeTableRecord
2
BYLAYER
70
0
0
LTYPE
5
16
100
AcDbSymbolTableRecord
100
AcDbLinetypeTableRecord
2
DASHED
70
0
3
Dashed __ __ __ __ __ __ __ __ __ __ __ __ __ _
72
65
73
2
40
0.75
49
0.5
74
0
49
-0.25
74
0
0
ENDTAB
0
TABLE
2
LAYER
5
2
100
AcDbSymbolTable
70
2
0
LAYER
5
50
100
AcDbSymbolTableRecord
100
AcDbLayerTableRecord
2
0
70
0
62
7
6
CONTINUOUS
0
ENDTAB
0
TABLE
2
STYLE
5
3
100
AcDbSymbolTable
70
1
0
STYLE
5
11
100
AcDbSymbolTableRecord
100
AcDbTextStyleTableRecord
2
STANDARD
70
0
0
ENDTAB
0
TABLE
2
VIEW
5
6
100
AcDbSymbolTable
70
0
0
ENDTAB
0
TABLE
2
UCS
5
7
100
AcDbSymbolTable
70
0
0
ENDTAB
0
TABLE
2
APPID
5
9
100
AcDbSymbolTable
70
2
0
APPID
5
12
100
AcDbSymbolTableRecord
100
AcDbRegAppTableRecord
2
ACAD
70
0
0
ENDTAB
0
TABLE
2
DIMSTYLE
5
A
100
AcDbSymbolTable
70
1
0
ENDTAB
0
TABLE
2
BLOCK_RECORD
5
1
100
AcDbSymbolTable
70
1
0
BLOCK_RECORD
5
1F
100
AcDbSymbolTableRecord
100
AcDbBlockTableRecord
2
*MODEL_SPACE
0
BLOCK_RECORD
5
1B
100
AcDbSymbolTableRecord
100
AcDbBlockTableRecord
2
*PAPER_SPACE
0
ENDTAB
0
ENDSEC
0
SECTION
2
BLOCKS
0
BLOCK
5
20
100
AcDbEntity
100
AcDbBlockBegin
2
*MODEL_SPACE
0
ENDBLK
5
21
100
AcDbEntity
100
AcDbBlockEnd
0
BLOCK
5
1C
100
AcDbEntity
100
AcDbBlockBegin
2
*PAPER_SPACE
0
ENDBLK
5
1D
100
AcDbEntity
100
AcDbBlockEnd
0
ENDSEC
0
SECTION
2
ENTITIES
0
LWPOLYLINE
5
100
100
AcDbEntity
8
0
100
AcDbPolyline
90
20
70
1
43
0.0
10
-235.95494122074257
20
518.5
42
0.54648811547851095
10
-237.77305987615989
20
515.66666660043938
42
-0.32522227575014123
10
-238.14534279299903
20
513.82151900659937
10
-244.41778787326501
20
508.06146338679667
42
-0.28896916743102524
10
-246.09701486308353
20
507.75550055680748
42
0.53120051210824537
10
-248.50000000000006
20
506.13189025536019
10
-248.5
20
33.868109744639838
42
0.53120051210825714
10
-246.09701486308336
20
32.24449944319246
42
-0.28896916743100659
10
-244.41778787326496
20
31.938536613203187
10
-238.14534279299903
20
26.178480993400505
42
-0.32522227575011226
10
-237.77305987615983
20
24.333333399560743
42
0.54648811547852105
10
-235.95494122074251
20
21.500000000000018
10
-71.499999985098839
20
21.5
10
-71.499999985098853
20
47.500000000000036
42
-0.41421356237309503
10
-68.499999985098853
20
50.500000000000036
10
-0.49999999999999822
20
50.5
10
-0.50000000000002198
20
437.50000000000631
10
-40.000000000032401
20
437.50000000000631
42
-0.41421356237309137
10
-61.500000000032394
20
459.00000000000631
10
-61.50000000003233
20
518.5
0
CIRCLE
5
101
100
AcDbEntity
8
0
100
AcDbCircle
10
-15.00000000000002
20
230
30
0
40
1.7500000000000004
210
2.3111159332587634e-33
220
6.1629758220391547e-33
230
1
0
CIRCLE
5
102
100
AcDbEntity
8
0
100
AcDbCircle
10
-15.000000000000025
20
310
30
3.5527136788005009e-14
40
1.7500000000000004
210
2.3111159332587634e-33
220
6.1629758220391547e-33
230
1
0
CIRCLE
5
103
100
AcDbEntity
8
0
100
AcDbCircle
10
-69.500000007482967
20
459.00000000000574
30
0
40
1.7499999999999716
210
-1.0014835710819545e-32
220
-4.1695129477361824e-49
230
1
0
CIRCLE
5
104
100
AcDbEntity
8
0
100
AcDbCircle
10
-242.49999999996891
20
504.74999999999972
30
0
40
1.4000000000000057
210
2.3111159332587641e-33
220
6.1629758220391547e-33
230
1
0
CIRCLE
5
105
100
AcDbEntity
8
0
100
AcDbCircle
10
-235.24999999996891
20
511.99999999999977
30
0
40
1.4000000000000057
210
2.3111159332587641e-33
220
6.1629758220391547e-33
230
1
0
CIRCLE
5
106
100
AcDbEntity
8
0
100
AcDbCircle
10
-242.49999999996888
20
35.250000000000142
30
0
40
1.4000000000000057
210
2.3111159332587641e-33
220
6.1629758220391547e-33
230
1
0
CIRCLE
5
107
100
AcDbEntity
8
0
100
AcDbCircle
10
-235.24999999996885
20
28.000000000000131
30
0
40
1.4000000000000057
210
2.3111159332587641e-33
220
6.1629758220391547e-33
230
1
0
ENDSEC
0
SECTION
2
OBJECTS
0
DICTIONARY
5
C
100
AcDbDictionary
3
ACAD_GROUP
350
D
3
ACAD_MLINESTYLE
350
17
0
DICTIONARY
5
D
100
AcDbDictionary
0
DICTIONARY
5
1A
330
C
100
AcDbDictionary
0
DICTIONARY
5
17
100
AcDbDictionary
0
ENDSEC
0
EOF
