%TF.GenerationSoftware,KiCad,Pcbnew,8.0.6*%
%TF.CreationDate,2025-04-13T07:12:56+01:00*%
%TF.ProjectId,fabrizio_project _sensorboard,66616272-697a-4696-9f5f-70726f6a6563,rev?*%
%TF.SameCoordinates,Original*%
%TF.FileFunction,Soldermask,Bot*%
%TF.FilePolarity,Negative*%
%FSLAX46Y46*%
G04 Gerber Fmt 4.6, Leading zero omitted, Abs format (unit mm)*
G04 Created by KiCad (PCBNEW 8.0.6) date 2025-04-13 07:12:56*
%MOMM*%
%LPD*%
G01*
G04 APERTURE LIST*
G04 Aperture macros list*
%AMRoundRect*
0 Rectangle with rounded corners*
0 $1 Rounding radius*
0 $2 $3 $4 $5 $6 $7 $8 $9 X,Y pos of 4 corners*
0 Add a 4 corners polygon primitive as box body*
4,1,4,$2,$3,$4,$5,$6,$7,$8,$9,$2,$3,0*
0 Add four circle primitives for the rounded corners*
1,1,$1+$1,$2,$3*
1,1,$1+$1,$4,$5*
1,1,$1+$1,$6,$7*
1,1,$1+$1,$8,$9*
0 Add four rect primitives between the rounded corners*
20,1,$1+$1,$2,$3,$4,$5,0*
20,1,$1+$1,$4,$5,$6,$7,0*
20,1,$1+$1,$6,$7,$8,$9,0*
20,1,$1+$1,$8,$9,$2,$3,0*%
%AMHorizOval*
0 Thick line with rounded ends*
0 $1 width*
0 $2 $3 position (X,Y) of the first rounded end (center of the circle)*
0 $4 $5 position (X,Y) of the second rounded end (center of the circle)*
0 Add line between two ends*
20,1,$1,$2,$3,$4,$5,0*
0 Add two circle primitives to create the rounded ends*
1,1,$1,$2,$3*
1,1,$1,$4,$5*%
%AMFreePoly0*
4,1,19,0.500000,-0.750000,0.000000,-0.750000,0.000000,-0.744911,-0.071157,-0.744911,-0.207708,-0.704816,-0.327430,-0.627875,-0.420627,-0.520320,-0.479746,-0.390866,-0.500000,-0.250000,-0.500000,0.250000,-0.479746,0.390866,-0.420627,0.520320,-0.327430,0.627875,-0.207708,0.704816,-0.071157,0.744911,0.000000,0.744911,0.000000,0.750000,0.500000,0.750000,0.500000,-0.750000,0.500000,-0.750000,
$1*%
%AMFreePoly1*
4,1,19,0.000000,0.744911,0.071157,0.744911,0.207708,0.704816,0.327430,0.627875,0.420627,0.520320,0.479746,0.390866,0.500000,0.250000,0.500000,-0.250000,0.479746,-0.390866,0.420627,-0.520320,0.327430,-0.627875,0.207708,-0.704816,0.071157,-0.744911,0.000000,-0.744911,0.000000,-0.750000,-0.500000,-0.750000,-0.500000,0.750000,0.000000,0.750000,0.000000,0.744911,0.000000,0.744911,
$1*%
G04 Aperture macros list end*
%ADD10RoundRect,0.250000X0.600000X0.725000X-0.600000X0.725000X-0.600000X-0.725000X0.600000X-0.725000X0*%
%ADD11O,1.700000X1.950000*%
%ADD12C,1.524000*%
%ADD13C,4.000000*%
%ADD14RoundRect,0.200000X0.200000X0.275000X-0.200000X0.275000X-0.200000X-0.275000X0.200000X-0.275000X0*%
%ADD15RoundRect,0.200000X-0.200000X-0.275000X0.200000X-0.275000X0.200000X0.275000X-0.200000X0.275000X0*%
%ADD16RoundRect,0.375000X0.625000X0.375000X-0.625000X0.375000X-0.625000X-0.375000X0.625000X-0.375000X0*%
%ADD17RoundRect,0.500000X0.500000X1.400000X-0.500000X1.400000X-0.500000X-1.400000X0.500000X-1.400000X0*%
%ADD18FreePoly0,180.000000*%
%ADD19FreePoly1,180.000000*%
%ADD20RoundRect,0.250000X-0.250000X-0.475000X0.250000X-0.475000X0.250000X0.475000X-0.250000X0.475000X0*%
%ADD21FreePoly0,0.000000*%
%ADD22FreePoly1,0.000000*%
%ADD23RoundRect,0.250000X-0.927868X0.157115X-0.327868X-0.882115X0.927868X-0.157115X0.327868X0.882115X0*%
%ADD24HorizOval,1.700000X-0.108253X-0.062500X0.108253X0.062500X0*%
G04 APERTURE END LIST*
D10*
%TO.C,WS2811*%
X176960000Y-95710000D03*
D11*
X174460000Y-95710000D03*
X171960000Y-95710000D03*
%TD*%
D12*
%TO.C,BME680*%
X151854000Y-79070000D03*
X151854000Y-81610000D03*
X151854000Y-84150000D03*
X151854000Y-86690000D03*
X151854000Y-89230000D03*
X151854000Y-91770000D03*
X151854000Y-94310000D03*
%TD*%
%TO.C,MQ2*%
X146240000Y-84530000D03*
X146240000Y-87070000D03*
X146240000Y-89610000D03*
X146240000Y-92150000D03*
D13*
X145146000Y-96534000D03*
X145146000Y-80278000D03*
X119492000Y-96534000D03*
X119492000Y-80278000D03*
%TD*%
D14*
%TO.C,R18*%
X156875000Y-86700000D03*
X155225000Y-86700000D03*
%TD*%
%TO.C,R21*%
X142515000Y-84520000D03*
X140865000Y-84520000D03*
%TD*%
D15*
%TO.C,R24*%
X129705000Y-80740000D03*
X131355000Y-80740000D03*
%TD*%
D16*
%TO.C,U13*%
X132150000Y-83350000D03*
X132150000Y-85650000D03*
D17*
X125850000Y-85650000D03*
D16*
X132150000Y-87950000D03*
%TD*%
D14*
%TO.C,R19*%
X156895000Y-91770000D03*
X155245000Y-91770000D03*
%TD*%
D18*
%TO.C,JP1*%
X156320000Y-77880000D03*
D19*
X155020000Y-77880000D03*
%TD*%
D20*
%TO.C,C13*%
X127750000Y-91850000D03*
X129650000Y-91850000D03*
%TD*%
D15*
%TO.C,R22*%
X140875000Y-86300000D03*
X142525000Y-86300000D03*
%TD*%
%TO.C,R23*%
X125910000Y-80760000D03*
X127560000Y-80760000D03*
%TD*%
D21*
%TO.C,JP2*%
X155100000Y-81600000D03*
D22*
X156400000Y-81600000D03*
%TD*%
D23*
%TO.C,ELECBEE1*%
X163174664Y-58487373D03*
D24*
X164424664Y-60652437D03*
X165674664Y-62817500D03*
X166924664Y-64982564D03*
X168174664Y-67147627D03*
%TD*%
D23*
%TO.C,POWER_IN3*%
X171534664Y-72927373D03*
D24*
X172784664Y-75092437D03*
X174034664Y-77257500D03*
X175284664Y-79422564D03*
X176534664Y-81587627D03*
%TD*%
D12*
%TO.C,MEMS_SMOKE1*%
X133565660Y-72690659D03*
X133565660Y-70150659D03*
X133565660Y-67610659D03*
%TD*%
M02*
