M48
; DRILL file {KiCad 8.0.6} date 2025-04-13T07:13:09+0100
; FORMAT={-:-/ absolute / metric / decimal}
; #@! TF.CreationDate,2025-04-13T07:13:09+01:00
; #@! TF.GenerationSoftware,Kicad,Pcbnew,8.0.6
; #@! TF.FileFunction,Plated,1,2,PTH
FMAT,2
METRIC
; #@! TA.AperFunction,Plated,PTH,ViaDrill
T1C0.300
; #@! TA.AperFunction,Plated,PTH,ComponentDrill
T2C0.762
; #@! TA.AperFunction,Plated,PTH,ComponentDrill
T3C0.950
%
G90
G05
T1
X129.9Y-65.31
X130.62Y-56.76
X131.54Y-91.85
X132.69Y-80.751
X132.75Y-91.85
X133.87Y-80.76
X133.93Y-91.85
X137.6Y-72.63
X140.97Y-56.76
X144.42Y-72.691
X146.81Y-71.36
X147.2Y-66.56
X150.95Y-57.19
X155.01Y-57.19
X156.874Y-90.374
X156.875Y-88.08
X158.1Y-81.62
X158.89Y-96.41
X159.37Y-79.26
X161.94Y-76.3
X166.69Y-97.72
X166.71Y-84.41
T2
X133.566Y-67.611
X133.566Y-70.151
X133.566Y-72.691
X146.24Y-84.53
X146.24Y-87.07
X146.24Y-89.61
X146.24Y-92.15
X151.854Y-79.07
X151.854Y-81.61
X151.854Y-84.15
X151.854Y-86.69
X151.854Y-89.23
X151.854Y-91.77
X151.854Y-94.31
T3
X163.175Y-58.487
X164.425Y-60.652
X165.675Y-62.817
X166.925Y-64.983
X168.175Y-67.148
X171.535Y-72.927
X171.96Y-95.71
X172.785Y-75.092
X174.035Y-77.257
X174.46Y-95.71
X175.285Y-79.423
X176.535Y-81.588
X176.96Y-95.71
M30
