%TF.GenerationSoftware,KiCad,Pcbnew,9.0.2*%
%TF.CreationDate,2026-07-30T05:10:02+01:00*%
%TF.ProjectId,fabrizio_project _sensorboard,66616272-697a-4696-9f5f-70726f6a6563,rev?*%
%TF.SameCoordinates,Original*%
%TF.FileFunction,Legend,Top*%
%TF.FilePolarity,Positive*%
%FSLAX46Y46*%
G04 Gerber Fmt 4.6, Leading zero omitted, Abs format (unit mm)*
G04 Created by KiCad (PCBNEW 9.0.2) date 2026-07-30 05:10:02*
%MOMM*%
%LPD*%
G01*
G04 APERTURE LIST*
%ADD10C,0.187500*%
%ADD11C,0.000000*%
%ADD12C,0.200000*%
%ADD13C,0.150000*%
%ADD14C,0.100000*%
%ADD15C,0.120000*%
%ADD16C,0.050000*%
G04 APERTURE END LIST*
D10*
X170312640Y-90006678D02*
X170669783Y-91506678D01*
X170669783Y-91506678D02*
X170955497Y-90435250D01*
X170955497Y-90435250D02*
X171241212Y-91506678D01*
X171241212Y-91506678D02*
X171598355Y-90006678D01*
X172098355Y-91435250D02*
X172312641Y-91506678D01*
X172312641Y-91506678D02*
X172669783Y-91506678D01*
X172669783Y-91506678D02*
X172812641Y-91435250D01*
X172812641Y-91435250D02*
X172884069Y-91363821D01*
X172884069Y-91363821D02*
X172955498Y-91220964D01*
X172955498Y-91220964D02*
X172955498Y-91078107D01*
X172955498Y-91078107D02*
X172884069Y-90935250D01*
X172884069Y-90935250D02*
X172812641Y-90863821D01*
X172812641Y-90863821D02*
X172669783Y-90792392D01*
X172669783Y-90792392D02*
X172384069Y-90720964D01*
X172384069Y-90720964D02*
X172241212Y-90649535D01*
X172241212Y-90649535D02*
X172169783Y-90578107D01*
X172169783Y-90578107D02*
X172098355Y-90435250D01*
X172098355Y-90435250D02*
X172098355Y-90292392D01*
X172098355Y-90292392D02*
X172169783Y-90149535D01*
X172169783Y-90149535D02*
X172241212Y-90078107D01*
X172241212Y-90078107D02*
X172384069Y-90006678D01*
X172384069Y-90006678D02*
X172741212Y-90006678D01*
X172741212Y-90006678D02*
X172955498Y-90078107D01*
X173526926Y-90149535D02*
X173598354Y-90078107D01*
X173598354Y-90078107D02*
X173741212Y-90006678D01*
X173741212Y-90006678D02*
X174098354Y-90006678D01*
X174098354Y-90006678D02*
X174241212Y-90078107D01*
X174241212Y-90078107D02*
X174312640Y-90149535D01*
X174312640Y-90149535D02*
X174384069Y-90292392D01*
X174384069Y-90292392D02*
X174384069Y-90435250D01*
X174384069Y-90435250D02*
X174312640Y-90649535D01*
X174312640Y-90649535D02*
X173455497Y-91506678D01*
X173455497Y-91506678D02*
X174384069Y-91506678D01*
X175241211Y-90649535D02*
X175098354Y-90578107D01*
X175098354Y-90578107D02*
X175026925Y-90506678D01*
X175026925Y-90506678D02*
X174955497Y-90363821D01*
X174955497Y-90363821D02*
X174955497Y-90292392D01*
X174955497Y-90292392D02*
X175026925Y-90149535D01*
X175026925Y-90149535D02*
X175098354Y-90078107D01*
X175098354Y-90078107D02*
X175241211Y-90006678D01*
X175241211Y-90006678D02*
X175526925Y-90006678D01*
X175526925Y-90006678D02*
X175669783Y-90078107D01*
X175669783Y-90078107D02*
X175741211Y-90149535D01*
X175741211Y-90149535D02*
X175812640Y-90292392D01*
X175812640Y-90292392D02*
X175812640Y-90363821D01*
X175812640Y-90363821D02*
X175741211Y-90506678D01*
X175741211Y-90506678D02*
X175669783Y-90578107D01*
X175669783Y-90578107D02*
X175526925Y-90649535D01*
X175526925Y-90649535D02*
X175241211Y-90649535D01*
X175241211Y-90649535D02*
X175098354Y-90720964D01*
X175098354Y-90720964D02*
X175026925Y-90792392D01*
X175026925Y-90792392D02*
X174955497Y-90935250D01*
X174955497Y-90935250D02*
X174955497Y-91220964D01*
X174955497Y-91220964D02*
X175026925Y-91363821D01*
X175026925Y-91363821D02*
X175098354Y-91435250D01*
X175098354Y-91435250D02*
X175241211Y-91506678D01*
X175241211Y-91506678D02*
X175526925Y-91506678D01*
X175526925Y-91506678D02*
X175669783Y-91435250D01*
X175669783Y-91435250D02*
X175741211Y-91363821D01*
X175741211Y-91363821D02*
X175812640Y-91220964D01*
X175812640Y-91220964D02*
X175812640Y-90935250D01*
X175812640Y-90935250D02*
X175741211Y-90792392D01*
X175741211Y-90792392D02*
X175669783Y-90720964D01*
X175669783Y-90720964D02*
X175526925Y-90649535D01*
X177241211Y-91506678D02*
X176384068Y-91506678D01*
X176812639Y-91506678D02*
X176812639Y-90006678D01*
X176812639Y-90006678D02*
X176669782Y-90220964D01*
X176669782Y-90220964D02*
X176526925Y-90363821D01*
X176526925Y-90363821D02*
X176384068Y-90435250D01*
X178669782Y-91506678D02*
X177812639Y-91506678D01*
X178241210Y-91506678D02*
X178241210Y-90006678D01*
X178241210Y-90006678D02*
X178098353Y-90220964D01*
X178098353Y-90220964D02*
X177955496Y-90363821D01*
X177955496Y-90363821D02*
X177812639Y-90435250D01*
D11*
G36*
X141588288Y-67141410D02*
G01*
X142032236Y-67394032D01*
X143448639Y-68216445D01*
X145427722Y-69377084D01*
X145420667Y-71758334D01*
X145410083Y-74136055D01*
X143402778Y-75310806D01*
X141399000Y-76485555D01*
X139374056Y-75300222D01*
X137349112Y-74114888D01*
X137349112Y-73793861D01*
X137913556Y-73793861D01*
X139592778Y-74778111D01*
X141303750Y-75772943D01*
X141310179Y-75733821D01*
X141316152Y-75616729D01*
X141326240Y-75182041D01*
X141333020Y-74535686D01*
X141335500Y-73744472D01*
X141335500Y-71701889D01*
X143050000Y-70700000D01*
X143715923Y-70309960D01*
X144263115Y-69987389D01*
X144635020Y-69765360D01*
X144737566Y-69702384D01*
X144775083Y-69676945D01*
X144743319Y-69651830D01*
X144647312Y-69589798D01*
X144290014Y-69371351D01*
X143758091Y-69054347D01*
X143106444Y-68671529D01*
X141406055Y-67680223D01*
X141262684Y-67757448D01*
X140886149Y-67972587D01*
X139659806Y-68685639D01*
X137931195Y-69698111D01*
X137920612Y-71744223D01*
X137913556Y-73793861D01*
X137349112Y-73793861D01*
X137349112Y-71747750D01*
X137352639Y-69377084D01*
X139352889Y-68205861D01*
X140134126Y-67751164D01*
X140782080Y-67380802D01*
X141035095Y-67239133D01*
X141229612Y-67132811D01*
X141357239Y-67066589D01*
X141393346Y-67050002D01*
X141409584Y-67045223D01*
X141588288Y-67141410D01*
G37*
D12*
X129379197Y-55867219D02*
X129569673Y-55867219D01*
X129569673Y-55867219D02*
X129658958Y-55914838D01*
X129658958Y-55914838D02*
X129742292Y-56010076D01*
X129742292Y-56010076D02*
X129766101Y-56200552D01*
X129766101Y-56200552D02*
X129724435Y-56533885D01*
X129724435Y-56533885D02*
X129653006Y-56724361D01*
X129653006Y-56724361D02*
X129545863Y-56819600D01*
X129545863Y-56819600D02*
X129444673Y-56867219D01*
X129444673Y-56867219D02*
X129254197Y-56867219D01*
X129254197Y-56867219D02*
X129164911Y-56819600D01*
X129164911Y-56819600D02*
X129081578Y-56724361D01*
X129081578Y-56724361D02*
X129057768Y-56533885D01*
X129057768Y-56533885D02*
X129099435Y-56200552D01*
X129099435Y-56200552D02*
X129170863Y-56010076D01*
X129170863Y-56010076D02*
X129278006Y-55914838D01*
X129278006Y-55914838D02*
X129379197Y-55867219D01*
X130111339Y-56867219D02*
X130236339Y-55867219D01*
X130236339Y-55867219D02*
X130617292Y-55867219D01*
X130617292Y-55867219D02*
X130706577Y-55914838D01*
X130706577Y-55914838D02*
X130748244Y-55962457D01*
X130748244Y-55962457D02*
X130783958Y-56057695D01*
X130783958Y-56057695D02*
X130766101Y-56200552D01*
X130766101Y-56200552D02*
X130706577Y-56295790D01*
X130706577Y-56295790D02*
X130653006Y-56343409D01*
X130653006Y-56343409D02*
X130551816Y-56391028D01*
X130551816Y-56391028D02*
X130170863Y-56391028D01*
X131093482Y-55867219D02*
X131664911Y-55867219D01*
X131254197Y-56867219D02*
X131379197Y-55867219D01*
X131873244Y-56867219D02*
X131998244Y-55867219D01*
X132932768Y-56771980D02*
X132879196Y-56819600D01*
X132879196Y-56819600D02*
X132730387Y-56867219D01*
X132730387Y-56867219D02*
X132635149Y-56867219D01*
X132635149Y-56867219D02*
X132498244Y-56819600D01*
X132498244Y-56819600D02*
X132414911Y-56724361D01*
X132414911Y-56724361D02*
X132379196Y-56629123D01*
X132379196Y-56629123D02*
X132355387Y-56438647D01*
X132355387Y-56438647D02*
X132373244Y-56295790D01*
X132373244Y-56295790D02*
X132444672Y-56105314D01*
X132444672Y-56105314D02*
X132504196Y-56010076D01*
X132504196Y-56010076D02*
X132611339Y-55914838D01*
X132611339Y-55914838D02*
X132760149Y-55867219D01*
X132760149Y-55867219D02*
X132855387Y-55867219D01*
X132855387Y-55867219D02*
X132992292Y-55914838D01*
X132992292Y-55914838D02*
X133033958Y-55962457D01*
X133337530Y-56581504D02*
X133813720Y-56581504D01*
X133206577Y-56867219D02*
X133664911Y-55867219D01*
X133664911Y-55867219D02*
X133873244Y-56867219D01*
X134682768Y-56867219D02*
X134206577Y-56867219D01*
X134206577Y-56867219D02*
X134331577Y-55867219D01*
X162283222Y-66943400D02*
X162449889Y-67232075D01*
X162034947Y-67560994D02*
X161796852Y-67148601D01*
X161796852Y-67148601D02*
X162725377Y-66756854D01*
X162725377Y-66756854D02*
X162963472Y-67169247D01*
X162487328Y-68344540D02*
X162249233Y-67932147D01*
X162249233Y-67932147D02*
X163177758Y-67540401D01*
X163140365Y-68428015D02*
X163307032Y-68716690D01*
X162892090Y-69045609D02*
X162653995Y-68633216D01*
X162653995Y-68633216D02*
X163582520Y-68241469D01*
X163582520Y-68241469D02*
X163820615Y-68653862D01*
X163480521Y-69874325D02*
X163412496Y-69851740D01*
X163412496Y-69851740D02*
X163296852Y-69746677D01*
X163296852Y-69746677D02*
X163249233Y-69664198D01*
X163249233Y-69664198D02*
X163222020Y-69521826D01*
X163222020Y-69521826D02*
X163262832Y-69402038D01*
X163262832Y-69402038D02*
X163327453Y-69323490D01*
X163327453Y-69323490D02*
X163480506Y-69207632D01*
X163480506Y-69207632D02*
X163613152Y-69151668D01*
X163613152Y-69151668D02*
X163813824Y-69118289D01*
X163813824Y-69118289D02*
X163926064Y-69122219D01*
X163926064Y-69122219D02*
X164062114Y-69167388D01*
X164062114Y-69167388D02*
X164177758Y-69272452D01*
X164177758Y-69272452D02*
X164225377Y-69354930D01*
X164225377Y-69354930D02*
X164252590Y-69497303D01*
X164252590Y-69497303D02*
X164232184Y-69557197D01*
X164259413Y-70366262D02*
X164286626Y-70508635D01*
X164286626Y-70508635D02*
X164266220Y-70568529D01*
X164266220Y-70568529D02*
X164201598Y-70647077D01*
X164201598Y-70647077D02*
X164068952Y-70703041D01*
X164068952Y-70703041D02*
X163956711Y-70699111D01*
X163956711Y-70699111D02*
X163888686Y-70676526D01*
X163888686Y-70676526D02*
X163796852Y-70612702D01*
X163796852Y-70612702D02*
X163606376Y-70282788D01*
X163606376Y-70282788D02*
X164534901Y-69891041D01*
X164534901Y-69891041D02*
X164701568Y-70179716D01*
X164701568Y-70179716D02*
X164704971Y-70280850D01*
X164704971Y-70280850D02*
X164684565Y-70340743D01*
X164684565Y-70340743D02*
X164619944Y-70419292D01*
X164619944Y-70419292D02*
X164531513Y-70456601D01*
X164531513Y-70456601D02*
X164419272Y-70452671D01*
X164419272Y-70452671D02*
X164351247Y-70430086D01*
X164351247Y-70430086D02*
X164259413Y-70366262D01*
X164259413Y-70366262D02*
X164092746Y-70077587D01*
X164592746Y-70943613D02*
X164759413Y-71232288D01*
X164344471Y-71561206D02*
X164106376Y-71148813D01*
X164106376Y-71148813D02*
X165034901Y-70757067D01*
X165034901Y-70757067D02*
X165272996Y-71169460D01*
X165045127Y-71727160D02*
X165211794Y-72015835D01*
X164796852Y-72344753D02*
X164558757Y-71932360D01*
X164558757Y-71932360D02*
X165487282Y-71540613D01*
X165487282Y-71540613D02*
X165725377Y-71953007D01*
X141272054Y-66844600D02*
X141408958Y-66892219D01*
X141408958Y-66892219D02*
X141647054Y-66892219D01*
X141647054Y-66892219D02*
X141748244Y-66844600D01*
X141748244Y-66844600D02*
X141801816Y-66796980D01*
X141801816Y-66796980D02*
X141861339Y-66701742D01*
X141861339Y-66701742D02*
X141873244Y-66606504D01*
X141873244Y-66606504D02*
X141837530Y-66511266D01*
X141837530Y-66511266D02*
X141795863Y-66463647D01*
X141795863Y-66463647D02*
X141706578Y-66416028D01*
X141706578Y-66416028D02*
X141522054Y-66368409D01*
X141522054Y-66368409D02*
X141432768Y-66320790D01*
X141432768Y-66320790D02*
X141391101Y-66273171D01*
X141391101Y-66273171D02*
X141355387Y-66177933D01*
X141355387Y-66177933D02*
X141367292Y-66082695D01*
X141367292Y-66082695D02*
X141426816Y-65987457D01*
X141426816Y-65987457D02*
X141480387Y-65939838D01*
X141480387Y-65939838D02*
X141581578Y-65892219D01*
X141581578Y-65892219D02*
X141819673Y-65892219D01*
X141819673Y-65892219D02*
X141956578Y-65939838D01*
X142331578Y-66368409D02*
X142664911Y-66368409D01*
X142742292Y-66892219D02*
X142266101Y-66892219D01*
X142266101Y-66892219D02*
X142391101Y-65892219D01*
X142391101Y-65892219D02*
X142867292Y-65892219D01*
X143170863Y-66892219D02*
X143295863Y-65892219D01*
X143295863Y-65892219D02*
X143742292Y-66892219D01*
X143742292Y-66892219D02*
X143867292Y-65892219D01*
X144176816Y-66844600D02*
X144313720Y-66892219D01*
X144313720Y-66892219D02*
X144551816Y-66892219D01*
X144551816Y-66892219D02*
X144653006Y-66844600D01*
X144653006Y-66844600D02*
X144706578Y-66796980D01*
X144706578Y-66796980D02*
X144766101Y-66701742D01*
X144766101Y-66701742D02*
X144778006Y-66606504D01*
X144778006Y-66606504D02*
X144742292Y-66511266D01*
X144742292Y-66511266D02*
X144700625Y-66463647D01*
X144700625Y-66463647D02*
X144611340Y-66416028D01*
X144611340Y-66416028D02*
X144426816Y-66368409D01*
X144426816Y-66368409D02*
X144337530Y-66320790D01*
X144337530Y-66320790D02*
X144295863Y-66273171D01*
X144295863Y-66273171D02*
X144260149Y-66177933D01*
X144260149Y-66177933D02*
X144272054Y-66082695D01*
X144272054Y-66082695D02*
X144331578Y-65987457D01*
X144331578Y-65987457D02*
X144385149Y-65939838D01*
X144385149Y-65939838D02*
X144486340Y-65892219D01*
X144486340Y-65892219D02*
X144724435Y-65892219D01*
X144724435Y-65892219D02*
X144861340Y-65939838D01*
X145486340Y-65892219D02*
X145676816Y-65892219D01*
X145676816Y-65892219D02*
X145766101Y-65939838D01*
X145766101Y-65939838D02*
X145849435Y-66035076D01*
X145849435Y-66035076D02*
X145873244Y-66225552D01*
X145873244Y-66225552D02*
X145831578Y-66558885D01*
X145831578Y-66558885D02*
X145760149Y-66749361D01*
X145760149Y-66749361D02*
X145653006Y-66844600D01*
X145653006Y-66844600D02*
X145551816Y-66892219D01*
X145551816Y-66892219D02*
X145361340Y-66892219D01*
X145361340Y-66892219D02*
X145272054Y-66844600D01*
X145272054Y-66844600D02*
X145188721Y-66749361D01*
X145188721Y-66749361D02*
X145164911Y-66558885D01*
X145164911Y-66558885D02*
X145206578Y-66225552D01*
X145206578Y-66225552D02*
X145278006Y-66035076D01*
X145278006Y-66035076D02*
X145385149Y-65939838D01*
X145385149Y-65939838D02*
X145486340Y-65892219D01*
X146789911Y-66892219D02*
X146516101Y-66416028D01*
X146218482Y-66892219D02*
X146343482Y-65892219D01*
X146343482Y-65892219D02*
X146724435Y-65892219D01*
X146724435Y-65892219D02*
X146813720Y-65939838D01*
X146813720Y-65939838D02*
X146855387Y-65987457D01*
X146855387Y-65987457D02*
X146891101Y-66082695D01*
X146891101Y-66082695D02*
X146873244Y-66225552D01*
X146873244Y-66225552D02*
X146813720Y-66320790D01*
X146813720Y-66320790D02*
X146760149Y-66368409D01*
X146760149Y-66368409D02*
X146658959Y-66416028D01*
X146658959Y-66416028D02*
X146278006Y-66416028D01*
X146968482Y-66987457D02*
X147730387Y-66987457D01*
X148295864Y-65892219D02*
X148486340Y-65892219D01*
X148486340Y-65892219D02*
X148575625Y-65939838D01*
X148575625Y-65939838D02*
X148658959Y-66035076D01*
X148658959Y-66035076D02*
X148682768Y-66225552D01*
X148682768Y-66225552D02*
X148641102Y-66558885D01*
X148641102Y-66558885D02*
X148569673Y-66749361D01*
X148569673Y-66749361D02*
X148462530Y-66844600D01*
X148462530Y-66844600D02*
X148361340Y-66892219D01*
X148361340Y-66892219D02*
X148170864Y-66892219D01*
X148170864Y-66892219D02*
X148081578Y-66844600D01*
X148081578Y-66844600D02*
X147998245Y-66749361D01*
X147998245Y-66749361D02*
X147974435Y-66558885D01*
X147974435Y-66558885D02*
X148016102Y-66225552D01*
X148016102Y-66225552D02*
X148087530Y-66035076D01*
X148087530Y-66035076D02*
X148194673Y-65939838D01*
X148194673Y-65939838D02*
X148295864Y-65892219D01*
X149153006Y-65892219D02*
X149051816Y-66701742D01*
X149051816Y-66701742D02*
X149087530Y-66796980D01*
X149087530Y-66796980D02*
X149129197Y-66844600D01*
X149129197Y-66844600D02*
X149218483Y-66892219D01*
X149218483Y-66892219D02*
X149408959Y-66892219D01*
X149408959Y-66892219D02*
X149510149Y-66844600D01*
X149510149Y-66844600D02*
X149563721Y-66796980D01*
X149563721Y-66796980D02*
X149623244Y-66701742D01*
X149623244Y-66701742D02*
X149724435Y-65892219D01*
X150057768Y-65892219D02*
X150629197Y-65892219D01*
X150218483Y-66892219D02*
X150343483Y-65892219D01*
X169446852Y-80323601D02*
X170375377Y-79931854D01*
X170375377Y-79931854D02*
X170565853Y-80261768D01*
X170565853Y-80261768D02*
X170569257Y-80362901D01*
X170569257Y-80362901D02*
X170548851Y-80422795D01*
X170548851Y-80422795D02*
X170484229Y-80501344D01*
X170484229Y-80501344D02*
X170351583Y-80557308D01*
X170351583Y-80557308D02*
X170239342Y-80553378D01*
X170239342Y-80553378D02*
X170171317Y-80530793D01*
X170171317Y-80530793D02*
X170079483Y-80466969D01*
X170079483Y-80466969D02*
X169889007Y-80137054D01*
X170970615Y-80962836D02*
X171065853Y-81127794D01*
X171065853Y-81127794D02*
X171069257Y-81228927D01*
X171069257Y-81228927D02*
X171028445Y-81348715D01*
X171028445Y-81348715D02*
X170875392Y-81464572D01*
X170875392Y-81464572D02*
X170565884Y-81595155D01*
X170565884Y-81595155D02*
X170365212Y-81628534D01*
X170365212Y-81628534D02*
X170229162Y-81583364D01*
X170229162Y-81583364D02*
X170137328Y-81519540D01*
X170137328Y-81519540D02*
X170042090Y-81354583D01*
X170042090Y-81354583D02*
X170038686Y-81253450D01*
X170038686Y-81253450D02*
X170079498Y-81133662D01*
X170079498Y-81133662D02*
X170232551Y-81017804D01*
X170232551Y-81017804D02*
X170542059Y-80887222D01*
X170542059Y-80887222D02*
X170742731Y-80853843D01*
X170742731Y-80853843D02*
X170878781Y-80899012D01*
X170878781Y-80899012D02*
X170970615Y-80962836D01*
X171351567Y-81622665D02*
X170542090Y-82220609D01*
X170542090Y-82220609D02*
X171300560Y-82105747D01*
X171300560Y-82105747D02*
X170732566Y-82550523D01*
X170732566Y-82550523D02*
X171780139Y-82364973D01*
X171528460Y-82881433D02*
X171695127Y-83170108D01*
X171280185Y-83499027D02*
X171042090Y-83086634D01*
X171042090Y-83086634D02*
X171970615Y-82694887D01*
X171970615Y-82694887D02*
X172208710Y-83107280D01*
X171780185Y-84365052D02*
X172055673Y-83889831D01*
X171494471Y-83870181D02*
X172422996Y-83478434D01*
X172422996Y-83478434D02*
X172613472Y-83808348D01*
X172613472Y-83808348D02*
X172616876Y-83909482D01*
X172616876Y-83909482D02*
X172596470Y-83969375D01*
X172596470Y-83969375D02*
X172531848Y-84047924D01*
X172531848Y-84047924D02*
X172399202Y-84103888D01*
X172399202Y-84103888D02*
X172286961Y-84099958D01*
X172286961Y-84099958D02*
X172218936Y-84077373D01*
X172218936Y-84077373D02*
X172127102Y-84013549D01*
X172127102Y-84013549D02*
X171936626Y-83683635D01*
X172375423Y-85396035D02*
X173303949Y-85004288D01*
X172613518Y-85808428D02*
X173542044Y-85416681D01*
X173542044Y-85416681D02*
X172899232Y-86303299D01*
X172899232Y-86303299D02*
X173827758Y-85911553D01*
X136867219Y-75636279D02*
X135867219Y-75511279D01*
X135867219Y-75511279D02*
X136581504Y-75267231D01*
X136581504Y-75267231D02*
X135867219Y-74844612D01*
X135867219Y-74844612D02*
X136867219Y-74969612D01*
X136343409Y-74427945D02*
X136343409Y-74094612D01*
X136867219Y-74017231D02*
X136867219Y-74493422D01*
X136867219Y-74493422D02*
X135867219Y-74368422D01*
X135867219Y-74368422D02*
X135867219Y-73892231D01*
X136867219Y-73588660D02*
X135867219Y-73463660D01*
X135867219Y-73463660D02*
X136581504Y-73219612D01*
X136581504Y-73219612D02*
X135867219Y-72796993D01*
X135867219Y-72796993D02*
X136867219Y-72921993D01*
X136819600Y-72487469D02*
X136867219Y-72350565D01*
X136867219Y-72350565D02*
X136867219Y-72112469D01*
X136867219Y-72112469D02*
X136819600Y-72011279D01*
X136819600Y-72011279D02*
X136771980Y-71957707D01*
X136771980Y-71957707D02*
X136676742Y-71898184D01*
X136676742Y-71898184D02*
X136581504Y-71886279D01*
X136581504Y-71886279D02*
X136486266Y-71921993D01*
X136486266Y-71921993D02*
X136438647Y-71963660D01*
X136438647Y-71963660D02*
X136391028Y-72052946D01*
X136391028Y-72052946D02*
X136343409Y-72237469D01*
X136343409Y-72237469D02*
X136295790Y-72326755D01*
X136295790Y-72326755D02*
X136248171Y-72368422D01*
X136248171Y-72368422D02*
X136152933Y-72404136D01*
X136152933Y-72404136D02*
X136057695Y-72392231D01*
X136057695Y-72392231D02*
X135962457Y-72332707D01*
X135962457Y-72332707D02*
X135914838Y-72279136D01*
X135914838Y-72279136D02*
X135867219Y-72177946D01*
X135867219Y-72177946D02*
X135867219Y-71939850D01*
X135867219Y-71939850D02*
X135914838Y-71802946D01*
X136819600Y-70773183D02*
X136867219Y-70636279D01*
X136867219Y-70636279D02*
X136867219Y-70398183D01*
X136867219Y-70398183D02*
X136819600Y-70296993D01*
X136819600Y-70296993D02*
X136771980Y-70243421D01*
X136771980Y-70243421D02*
X136676742Y-70183898D01*
X136676742Y-70183898D02*
X136581504Y-70171993D01*
X136581504Y-70171993D02*
X136486266Y-70207707D01*
X136486266Y-70207707D02*
X136438647Y-70249374D01*
X136438647Y-70249374D02*
X136391028Y-70338660D01*
X136391028Y-70338660D02*
X136343409Y-70523183D01*
X136343409Y-70523183D02*
X136295790Y-70612469D01*
X136295790Y-70612469D02*
X136248171Y-70654136D01*
X136248171Y-70654136D02*
X136152933Y-70689850D01*
X136152933Y-70689850D02*
X136057695Y-70677945D01*
X136057695Y-70677945D02*
X135962457Y-70618421D01*
X135962457Y-70618421D02*
X135914838Y-70564850D01*
X135914838Y-70564850D02*
X135867219Y-70463660D01*
X135867219Y-70463660D02*
X135867219Y-70225564D01*
X135867219Y-70225564D02*
X135914838Y-70088660D01*
X136867219Y-69779136D02*
X135867219Y-69654136D01*
X135867219Y-69654136D02*
X136581504Y-69410088D01*
X136581504Y-69410088D02*
X135867219Y-68987469D01*
X135867219Y-68987469D02*
X136867219Y-69112469D01*
X135867219Y-68320802D02*
X135867219Y-68130326D01*
X135867219Y-68130326D02*
X135914838Y-68041041D01*
X135914838Y-68041041D02*
X136010076Y-67957707D01*
X136010076Y-67957707D02*
X136200552Y-67933898D01*
X136200552Y-67933898D02*
X136533885Y-67975564D01*
X136533885Y-67975564D02*
X136724361Y-68046993D01*
X136724361Y-68046993D02*
X136819600Y-68154136D01*
X136819600Y-68154136D02*
X136867219Y-68255326D01*
X136867219Y-68255326D02*
X136867219Y-68445802D01*
X136867219Y-68445802D02*
X136819600Y-68535088D01*
X136819600Y-68535088D02*
X136724361Y-68618422D01*
X136724361Y-68618422D02*
X136533885Y-68642231D01*
X136533885Y-68642231D02*
X136200552Y-68600564D01*
X136200552Y-68600564D02*
X136010076Y-68529136D01*
X136010076Y-68529136D02*
X135914838Y-68421993D01*
X135914838Y-68421993D02*
X135867219Y-68320802D01*
X136867219Y-67588660D02*
X135867219Y-67463660D01*
X136867219Y-67017231D02*
X136295790Y-67374374D01*
X135867219Y-66892231D02*
X136438647Y-67535088D01*
X136343409Y-66523183D02*
X136343409Y-66189850D01*
X136867219Y-66112469D02*
X136867219Y-66588660D01*
X136867219Y-66588660D02*
X135867219Y-66463660D01*
X135867219Y-66463660D02*
X135867219Y-65987469D01*
D13*
X170816666Y-93304819D02*
X170816666Y-94019104D01*
X170816666Y-94019104D02*
X170769047Y-94161961D01*
X170769047Y-94161961D02*
X170673809Y-94257200D01*
X170673809Y-94257200D02*
X170530952Y-94304819D01*
X170530952Y-94304819D02*
X170435714Y-94304819D01*
X171721428Y-93638152D02*
X171721428Y-94304819D01*
X171483333Y-93257200D02*
X171245238Y-93971485D01*
X171245238Y-93971485D02*
X171864285Y-93971485D01*
X170216829Y-75400167D02*
X171082855Y-74900167D01*
X171082855Y-74900167D02*
X171273331Y-75230081D01*
X171273331Y-75230081D02*
X171279711Y-75336370D01*
X171279711Y-75336370D02*
X171262281Y-75401418D01*
X171262281Y-75401418D02*
X171203612Y-75490277D01*
X171203612Y-75490277D02*
X171079894Y-75561705D01*
X171079894Y-75561705D02*
X170973606Y-75568085D01*
X170973606Y-75568085D02*
X170908557Y-75550655D01*
X170908557Y-75550655D02*
X170819699Y-75491986D01*
X170819699Y-75491986D02*
X170629222Y-75162072D01*
X171678093Y-75931150D02*
X171773331Y-76096107D01*
X171773331Y-76096107D02*
X171779711Y-76202395D01*
X171779711Y-76202395D02*
X171744851Y-76332493D01*
X171744851Y-76332493D02*
X171603703Y-76468970D01*
X171603703Y-76468970D02*
X171315028Y-76635637D01*
X171315028Y-76635637D02*
X171126261Y-76689635D01*
X171126261Y-76689635D02*
X170996164Y-76654776D01*
X170996164Y-76654776D02*
X170907305Y-76596107D01*
X170907305Y-76596107D02*
X170812067Y-76431150D01*
X170812067Y-76431150D02*
X170805688Y-76324861D01*
X170805688Y-76324861D02*
X170840547Y-76194764D01*
X170840547Y-76194764D02*
X170981695Y-76058286D01*
X170981695Y-76058286D02*
X171270370Y-75891620D01*
X171270370Y-75891620D02*
X171459137Y-75837621D01*
X171459137Y-75837621D02*
X171589234Y-75872480D01*
X171589234Y-75872480D02*
X171678093Y-75931150D01*
X172059045Y-76590978D02*
X171312067Y-77297175D01*
X171312067Y-77297175D02*
X172025895Y-77104989D01*
X172025895Y-77104989D02*
X171502544Y-77627089D01*
X171502544Y-77627089D02*
X172487617Y-77333286D01*
X172265700Y-77901295D02*
X172432366Y-78189971D01*
X172050163Y-78575593D02*
X171812067Y-78163200D01*
X171812067Y-78163200D02*
X172678093Y-77663200D01*
X172678093Y-77663200D02*
X172916188Y-78075593D01*
X172550163Y-79441619D02*
X172795889Y-78914848D01*
X172264448Y-78946747D02*
X173130474Y-78446747D01*
X173130474Y-78446747D02*
X173320950Y-78776662D01*
X173320950Y-78776662D02*
X173327330Y-78882950D01*
X173327330Y-78882950D02*
X173309900Y-78947998D01*
X173309900Y-78947998D02*
X173251231Y-79036857D01*
X173251231Y-79036857D02*
X173127513Y-79108285D01*
X173127513Y-79108285D02*
X173021225Y-79114665D01*
X173021225Y-79114665D02*
X172956176Y-79097235D01*
X172956176Y-79097235D02*
X172867318Y-79038566D01*
X172867318Y-79038566D02*
X172676841Y-78708652D01*
X172562922Y-79654195D02*
X172943874Y-80314024D01*
X173145401Y-80472602D02*
X174011426Y-79972602D01*
X173383496Y-80884994D02*
X174249521Y-80384994D01*
X174249521Y-80384994D02*
X173669210Y-81379866D01*
X173669210Y-81379866D02*
X174535235Y-80879866D01*
X174169210Y-82245891D02*
X173883496Y-81751020D01*
X174026353Y-81998455D02*
X174892378Y-81498455D01*
X174892378Y-81498455D02*
X174721041Y-81487405D01*
X174721041Y-81487405D02*
X174590944Y-81452546D01*
X174590944Y-81452546D02*
X174502085Y-81393877D01*
D12*
X115612219Y-97499285D02*
X114612219Y-97374285D01*
X114612219Y-97374285D02*
X115326504Y-97130237D01*
X115326504Y-97130237D02*
X114612219Y-96707618D01*
X114612219Y-96707618D02*
X115612219Y-96832618D01*
X115707457Y-95701666D02*
X115659838Y-95790951D01*
X115659838Y-95790951D02*
X115564600Y-95874285D01*
X115564600Y-95874285D02*
X115421742Y-95999285D01*
X115421742Y-95999285D02*
X115374123Y-96088571D01*
X115374123Y-96088571D02*
X115374123Y-96183809D01*
X115612219Y-96165951D02*
X115564600Y-96255237D01*
X115564600Y-96255237D02*
X115469361Y-96338571D01*
X115469361Y-96338571D02*
X115278885Y-96362380D01*
X115278885Y-96362380D02*
X114945552Y-96320713D01*
X114945552Y-96320713D02*
X114755076Y-96249285D01*
X114755076Y-96249285D02*
X114659838Y-96142142D01*
X114659838Y-96142142D02*
X114612219Y-96040951D01*
X114612219Y-96040951D02*
X114612219Y-95850475D01*
X114612219Y-95850475D02*
X114659838Y-95761190D01*
X114659838Y-95761190D02*
X114755076Y-95677856D01*
X114755076Y-95677856D02*
X114945552Y-95654047D01*
X114945552Y-95654047D02*
X115278885Y-95695713D01*
X115278885Y-95695713D02*
X115469361Y-95767142D01*
X115469361Y-95767142D02*
X115564600Y-95874285D01*
X115564600Y-95874285D02*
X115612219Y-95975475D01*
X115612219Y-95975475D02*
X115612219Y-96165951D01*
X115612219Y-94784999D02*
X115612219Y-95356428D01*
X115612219Y-95070713D02*
X114612219Y-94945713D01*
X114612219Y-94945713D02*
X114755076Y-95058809D01*
X114755076Y-95058809D02*
X114850314Y-95165952D01*
X114850314Y-95165952D02*
X114897933Y-95267142D01*
D13*
X159404819Y-69688094D02*
X160214342Y-69688094D01*
X160214342Y-69688094D02*
X160309580Y-69640475D01*
X160309580Y-69640475D02*
X160357200Y-69592856D01*
X160357200Y-69592856D02*
X160404819Y-69497618D01*
X160404819Y-69497618D02*
X160404819Y-69307142D01*
X160404819Y-69307142D02*
X160357200Y-69211904D01*
X160357200Y-69211904D02*
X160309580Y-69164285D01*
X160309580Y-69164285D02*
X160214342Y-69116666D01*
X160214342Y-69116666D02*
X159404819Y-69116666D01*
X160404819Y-68116666D02*
X160404819Y-68688094D01*
X160404819Y-68402380D02*
X159404819Y-68402380D01*
X159404819Y-68402380D02*
X159547676Y-68497618D01*
X159547676Y-68497618D02*
X159642914Y-68592856D01*
X159642914Y-68592856D02*
X159690533Y-68688094D01*
X159500057Y-67735713D02*
X159452438Y-67688094D01*
X159452438Y-67688094D02*
X159404819Y-67592856D01*
X159404819Y-67592856D02*
X159404819Y-67354761D01*
X159404819Y-67354761D02*
X159452438Y-67259523D01*
X159452438Y-67259523D02*
X159500057Y-67211904D01*
X159500057Y-67211904D02*
X159595295Y-67164285D01*
X159595295Y-67164285D02*
X159690533Y-67164285D01*
X159690533Y-67164285D02*
X159833390Y-67211904D01*
X159833390Y-67211904D02*
X160404819Y-67783332D01*
X160404819Y-67783332D02*
X160404819Y-67164285D01*
X158107142Y-66009580D02*
X158059523Y-66057200D01*
X158059523Y-66057200D02*
X157916666Y-66104819D01*
X157916666Y-66104819D02*
X157821428Y-66104819D01*
X157821428Y-66104819D02*
X157678571Y-66057200D01*
X157678571Y-66057200D02*
X157583333Y-65961961D01*
X157583333Y-65961961D02*
X157535714Y-65866723D01*
X157535714Y-65866723D02*
X157488095Y-65676247D01*
X157488095Y-65676247D02*
X157488095Y-65533390D01*
X157488095Y-65533390D02*
X157535714Y-65342914D01*
X157535714Y-65342914D02*
X157583333Y-65247676D01*
X157583333Y-65247676D02*
X157678571Y-65152438D01*
X157678571Y-65152438D02*
X157821428Y-65104819D01*
X157821428Y-65104819D02*
X157916666Y-65104819D01*
X157916666Y-65104819D02*
X158059523Y-65152438D01*
X158059523Y-65152438D02*
X158107142Y-65200057D01*
X158488095Y-65200057D02*
X158535714Y-65152438D01*
X158535714Y-65152438D02*
X158630952Y-65104819D01*
X158630952Y-65104819D02*
X158869047Y-65104819D01*
X158869047Y-65104819D02*
X158964285Y-65152438D01*
X158964285Y-65152438D02*
X159011904Y-65200057D01*
X159011904Y-65200057D02*
X159059523Y-65295295D01*
X159059523Y-65295295D02*
X159059523Y-65390533D01*
X159059523Y-65390533D02*
X159011904Y-65533390D01*
X159011904Y-65533390D02*
X158440476Y-66104819D01*
X158440476Y-66104819D02*
X159059523Y-66104819D01*
X159440476Y-65200057D02*
X159488095Y-65152438D01*
X159488095Y-65152438D02*
X159583333Y-65104819D01*
X159583333Y-65104819D02*
X159821428Y-65104819D01*
X159821428Y-65104819D02*
X159916666Y-65152438D01*
X159916666Y-65152438D02*
X159964285Y-65200057D01*
X159964285Y-65200057D02*
X160011904Y-65295295D01*
X160011904Y-65295295D02*
X160011904Y-65390533D01*
X160011904Y-65390533D02*
X159964285Y-65533390D01*
X159964285Y-65533390D02*
X159392857Y-66104819D01*
X159392857Y-66104819D02*
X160011904Y-66104819D01*
X152760559Y-68367323D02*
X152808179Y-68414942D01*
X152808179Y-68414942D02*
X152855798Y-68557799D01*
X152855798Y-68557799D02*
X152855798Y-68653037D01*
X152855798Y-68653037D02*
X152808179Y-68795894D01*
X152808179Y-68795894D02*
X152712940Y-68891132D01*
X152712940Y-68891132D02*
X152617702Y-68938751D01*
X152617702Y-68938751D02*
X152427226Y-68986370D01*
X152427226Y-68986370D02*
X152284369Y-68986370D01*
X152284369Y-68986370D02*
X152093893Y-68938751D01*
X152093893Y-68938751D02*
X151998655Y-68891132D01*
X151998655Y-68891132D02*
X151903417Y-68795894D01*
X151903417Y-68795894D02*
X151855798Y-68653037D01*
X151855798Y-68653037D02*
X151855798Y-68557799D01*
X151855798Y-68557799D02*
X151903417Y-68414942D01*
X151903417Y-68414942D02*
X151951036Y-68367323D01*
X151951036Y-67986370D02*
X151903417Y-67938751D01*
X151903417Y-67938751D02*
X151855798Y-67843513D01*
X151855798Y-67843513D02*
X151855798Y-67605418D01*
X151855798Y-67605418D02*
X151903417Y-67510180D01*
X151903417Y-67510180D02*
X151951036Y-67462561D01*
X151951036Y-67462561D02*
X152046274Y-67414942D01*
X152046274Y-67414942D02*
X152141512Y-67414942D01*
X152141512Y-67414942D02*
X152284369Y-67462561D01*
X152284369Y-67462561D02*
X152855798Y-68033989D01*
X152855798Y-68033989D02*
X152855798Y-67414942D01*
X151855798Y-66510180D02*
X151855798Y-66986370D01*
X151855798Y-66986370D02*
X152331988Y-67033989D01*
X152331988Y-67033989D02*
X152284369Y-66986370D01*
X152284369Y-66986370D02*
X152236750Y-66891132D01*
X152236750Y-66891132D02*
X152236750Y-66653037D01*
X152236750Y-66653037D02*
X152284369Y-66557799D01*
X152284369Y-66557799D02*
X152331988Y-66510180D01*
X152331988Y-66510180D02*
X152427226Y-66462561D01*
X152427226Y-66462561D02*
X152665321Y-66462561D01*
X152665321Y-66462561D02*
X152760559Y-66510180D01*
X152760559Y-66510180D02*
X152808179Y-66557799D01*
X152808179Y-66557799D02*
X152855798Y-66653037D01*
X152855798Y-66653037D02*
X152855798Y-66891132D01*
X152855798Y-66891132D02*
X152808179Y-66986370D01*
X152808179Y-66986370D02*
X152760559Y-67033989D01*
X154609580Y-67942857D02*
X154657200Y-67990476D01*
X154657200Y-67990476D02*
X154704819Y-68133333D01*
X154704819Y-68133333D02*
X154704819Y-68228571D01*
X154704819Y-68228571D02*
X154657200Y-68371428D01*
X154657200Y-68371428D02*
X154561961Y-68466666D01*
X154561961Y-68466666D02*
X154466723Y-68514285D01*
X154466723Y-68514285D02*
X154276247Y-68561904D01*
X154276247Y-68561904D02*
X154133390Y-68561904D01*
X154133390Y-68561904D02*
X153942914Y-68514285D01*
X153942914Y-68514285D02*
X153847676Y-68466666D01*
X153847676Y-68466666D02*
X153752438Y-68371428D01*
X153752438Y-68371428D02*
X153704819Y-68228571D01*
X153704819Y-68228571D02*
X153704819Y-68133333D01*
X153704819Y-68133333D02*
X153752438Y-67990476D01*
X153752438Y-67990476D02*
X153800057Y-67942857D01*
X153800057Y-67561904D02*
X153752438Y-67514285D01*
X153752438Y-67514285D02*
X153704819Y-67419047D01*
X153704819Y-67419047D02*
X153704819Y-67180952D01*
X153704819Y-67180952D02*
X153752438Y-67085714D01*
X153752438Y-67085714D02*
X153800057Y-67038095D01*
X153800057Y-67038095D02*
X153895295Y-66990476D01*
X153895295Y-66990476D02*
X153990533Y-66990476D01*
X153990533Y-66990476D02*
X154133390Y-67038095D01*
X154133390Y-67038095D02*
X154704819Y-67609523D01*
X154704819Y-67609523D02*
X154704819Y-66990476D01*
X153704819Y-66657142D02*
X153704819Y-66038095D01*
X153704819Y-66038095D02*
X154085771Y-66371428D01*
X154085771Y-66371428D02*
X154085771Y-66228571D01*
X154085771Y-66228571D02*
X154133390Y-66133333D01*
X154133390Y-66133333D02*
X154181009Y-66085714D01*
X154181009Y-66085714D02*
X154276247Y-66038095D01*
X154276247Y-66038095D02*
X154514342Y-66038095D01*
X154514342Y-66038095D02*
X154609580Y-66085714D01*
X154609580Y-66085714D02*
X154657200Y-66133333D01*
X154657200Y-66133333D02*
X154704819Y-66228571D01*
X154704819Y-66228571D02*
X154704819Y-66514285D01*
X154704819Y-66514285D02*
X154657200Y-66609523D01*
X154657200Y-66609523D02*
X154609580Y-66657142D01*
D12*
X165021590Y-76930952D02*
X164973971Y-77067857D01*
X164973971Y-77067857D02*
X164926352Y-77109523D01*
X164926352Y-77109523D02*
X164831114Y-77145238D01*
X164831114Y-77145238D02*
X164688257Y-77127380D01*
X164688257Y-77127380D02*
X164593019Y-77067857D01*
X164593019Y-77067857D02*
X164545400Y-77014285D01*
X164545400Y-77014285D02*
X164497780Y-76913095D01*
X164497780Y-76913095D02*
X164497780Y-76532142D01*
X164497780Y-76532142D02*
X165497780Y-76657142D01*
X165497780Y-76657142D02*
X165497780Y-76990476D01*
X165497780Y-76990476D02*
X165450161Y-77079761D01*
X165450161Y-77079761D02*
X165402542Y-77121428D01*
X165402542Y-77121428D02*
X165307304Y-77157142D01*
X165307304Y-77157142D02*
X165212066Y-77145238D01*
X165212066Y-77145238D02*
X165116828Y-77085714D01*
X165116828Y-77085714D02*
X165069209Y-77032142D01*
X165069209Y-77032142D02*
X165021590Y-76930952D01*
X165021590Y-76930952D02*
X165021590Y-76597619D01*
X164497780Y-77532142D02*
X165497780Y-77657142D01*
X165497780Y-77657142D02*
X164783495Y-77901190D01*
X164783495Y-77901190D02*
X165497780Y-78323809D01*
X165497780Y-78323809D02*
X164497780Y-78198809D01*
X165021590Y-78740476D02*
X165021590Y-79073809D01*
X164497780Y-79151190D02*
X164497780Y-78674999D01*
X164497780Y-78674999D02*
X165497780Y-78799999D01*
X165497780Y-78799999D02*
X165497780Y-79276190D01*
X164497780Y-80103571D02*
X164497780Y-79532142D01*
X164497780Y-79817857D02*
X165497780Y-79942857D01*
X165497780Y-79942857D02*
X165354923Y-79829761D01*
X165354923Y-79829761D02*
X165259685Y-79722619D01*
X165259685Y-79722619D02*
X165212066Y-79621428D01*
D14*
X150815951Y-58415200D02*
X150673094Y-58367580D01*
X150673094Y-58367580D02*
X150434999Y-58367580D01*
X150434999Y-58367580D02*
X150339761Y-58415200D01*
X150339761Y-58415200D02*
X150292142Y-58462819D01*
X150292142Y-58462819D02*
X150244523Y-58558057D01*
X150244523Y-58558057D02*
X150244523Y-58653295D01*
X150244523Y-58653295D02*
X150292142Y-58748533D01*
X150292142Y-58748533D02*
X150339761Y-58796152D01*
X150339761Y-58796152D02*
X150434999Y-58843771D01*
X150434999Y-58843771D02*
X150625475Y-58891390D01*
X150625475Y-58891390D02*
X150720713Y-58939009D01*
X150720713Y-58939009D02*
X150768332Y-58986628D01*
X150768332Y-58986628D02*
X150815951Y-59081866D01*
X150815951Y-59081866D02*
X150815951Y-59177104D01*
X150815951Y-59177104D02*
X150768332Y-59272342D01*
X150768332Y-59272342D02*
X150720713Y-59319961D01*
X150720713Y-59319961D02*
X150625475Y-59367580D01*
X150625475Y-59367580D02*
X150387380Y-59367580D01*
X150387380Y-59367580D02*
X150244523Y-59319961D01*
X149815951Y-58891390D02*
X149482618Y-58891390D01*
X149339761Y-58367580D02*
X149815951Y-58367580D01*
X149815951Y-58367580D02*
X149815951Y-59367580D01*
X149815951Y-59367580D02*
X149339761Y-59367580D01*
X148911189Y-58367580D02*
X148911189Y-59367580D01*
X148911189Y-59367580D02*
X148339761Y-58367580D01*
X148339761Y-58367580D02*
X148339761Y-59367580D01*
X147911189Y-58415200D02*
X147768332Y-58367580D01*
X147768332Y-58367580D02*
X147530237Y-58367580D01*
X147530237Y-58367580D02*
X147434999Y-58415200D01*
X147434999Y-58415200D02*
X147387380Y-58462819D01*
X147387380Y-58462819D02*
X147339761Y-58558057D01*
X147339761Y-58558057D02*
X147339761Y-58653295D01*
X147339761Y-58653295D02*
X147387380Y-58748533D01*
X147387380Y-58748533D02*
X147434999Y-58796152D01*
X147434999Y-58796152D02*
X147530237Y-58843771D01*
X147530237Y-58843771D02*
X147720713Y-58891390D01*
X147720713Y-58891390D02*
X147815951Y-58939009D01*
X147815951Y-58939009D02*
X147863570Y-58986628D01*
X147863570Y-58986628D02*
X147911189Y-59081866D01*
X147911189Y-59081866D02*
X147911189Y-59177104D01*
X147911189Y-59177104D02*
X147863570Y-59272342D01*
X147863570Y-59272342D02*
X147815951Y-59319961D01*
X147815951Y-59319961D02*
X147720713Y-59367580D01*
X147720713Y-59367580D02*
X147482618Y-59367580D01*
X147482618Y-59367580D02*
X147339761Y-59319961D01*
X146720713Y-59367580D02*
X146530237Y-59367580D01*
X146530237Y-59367580D02*
X146434999Y-59319961D01*
X146434999Y-59319961D02*
X146339761Y-59224723D01*
X146339761Y-59224723D02*
X146292142Y-59034247D01*
X146292142Y-59034247D02*
X146292142Y-58700914D01*
X146292142Y-58700914D02*
X146339761Y-58510438D01*
X146339761Y-58510438D02*
X146434999Y-58415200D01*
X146434999Y-58415200D02*
X146530237Y-58367580D01*
X146530237Y-58367580D02*
X146720713Y-58367580D01*
X146720713Y-58367580D02*
X146815951Y-58415200D01*
X146815951Y-58415200D02*
X146911189Y-58510438D01*
X146911189Y-58510438D02*
X146958808Y-58700914D01*
X146958808Y-58700914D02*
X146958808Y-59034247D01*
X146958808Y-59034247D02*
X146911189Y-59224723D01*
X146911189Y-59224723D02*
X146815951Y-59319961D01*
X146815951Y-59319961D02*
X146720713Y-59367580D01*
X145292142Y-58367580D02*
X145625475Y-58843771D01*
X145863570Y-58367580D02*
X145863570Y-59367580D01*
X145863570Y-59367580D02*
X145482618Y-59367580D01*
X145482618Y-59367580D02*
X145387380Y-59319961D01*
X145387380Y-59319961D02*
X145339761Y-59272342D01*
X145339761Y-59272342D02*
X145292142Y-59177104D01*
X145292142Y-59177104D02*
X145292142Y-59034247D01*
X145292142Y-59034247D02*
X145339761Y-58939009D01*
X145339761Y-58939009D02*
X145387380Y-58891390D01*
X145387380Y-58891390D02*
X145482618Y-58843771D01*
X145482618Y-58843771D02*
X145863570Y-58843771D01*
X145101666Y-58272342D02*
X144339761Y-58272342D01*
X144101665Y-58367580D02*
X144101665Y-59367580D01*
X143625475Y-58367580D02*
X143625475Y-59367580D01*
X143625475Y-59367580D02*
X143054047Y-58367580D01*
X143054047Y-58367580D02*
X143054047Y-59367580D01*
X142054047Y-58367580D02*
X142625475Y-58367580D01*
X142339761Y-58367580D02*
X142339761Y-59367580D01*
X142339761Y-59367580D02*
X142434999Y-59224723D01*
X142434999Y-59224723D02*
X142530237Y-59129485D01*
X142530237Y-59129485D02*
X142625475Y-59081866D01*
D15*
%TO.C,J4*%
X179810000Y-98460000D02*
X179810000Y-97210000D01*
X179520000Y-98170000D02*
X179520000Y-92200000D01*
X179520000Y-92200000D02*
X169400000Y-92200000D01*
X179510000Y-98160000D02*
X179510000Y-97410000D01*
X179510000Y-97410000D02*
X177710000Y-97410000D01*
X179510000Y-95910000D02*
X178760000Y-95910000D01*
X178760000Y-95910000D02*
X178760000Y-92960000D01*
X178760000Y-92960000D02*
X174460000Y-92960000D01*
X178560000Y-98460000D02*
X179810000Y-98460000D01*
X177710000Y-98160000D02*
X179510000Y-98160000D01*
X177710000Y-97410000D02*
X177710000Y-98160000D01*
X176210000Y-98160000D02*
X176210000Y-97410000D01*
X176210000Y-97410000D02*
X172710000Y-97410000D01*
X172710000Y-98160000D02*
X176210000Y-98160000D01*
X172710000Y-97410000D02*
X172710000Y-98160000D01*
X171210000Y-98160000D02*
X171210000Y-97410000D01*
X171210000Y-97410000D02*
X169410000Y-97410000D01*
X170160000Y-95910000D02*
X170160000Y-92960000D01*
X170160000Y-92960000D02*
X174460000Y-92960000D01*
X169410000Y-98160000D02*
X171210000Y-98160000D01*
X169410000Y-97410000D02*
X169410000Y-98160000D01*
X169410000Y-95910000D02*
X170160000Y-95910000D01*
X169400000Y-98170000D02*
X179520000Y-98170000D01*
X169400000Y-92200000D02*
X169400000Y-98170000D01*
%TO.C,POWER_IN1*%
X172491234Y-69084201D02*
X171408702Y-69709201D01*
X172385086Y-69480348D02*
X167214915Y-72465348D01*
X167214915Y-72465348D02*
X174774915Y-85559652D01*
X172381426Y-69494008D02*
X171731907Y-69869008D01*
X171731907Y-69869008D02*
X172631907Y-71427854D01*
X170432869Y-70619008D02*
X170807869Y-71268527D01*
X170807869Y-71268527D02*
X168253094Y-72743527D01*
X168253094Y-72743527D02*
X171653094Y-78632500D01*
X173116234Y-70166732D02*
X172491234Y-69084201D01*
X173281426Y-71052854D02*
X172381426Y-69494008D01*
X172631907Y-71427854D02*
X173281426Y-71052854D01*
X174031426Y-72351892D02*
X173381907Y-72726892D01*
X173381907Y-72726892D02*
X177631907Y-80088108D01*
X178281426Y-79713108D02*
X174031426Y-72351892D01*
X177631907Y-80088108D02*
X178281426Y-79713108D01*
X179031426Y-81012146D02*
X178381907Y-81387146D01*
X178381907Y-81387146D02*
X179281907Y-82945992D01*
X177607869Y-83046473D02*
X175053094Y-84521473D01*
X175053094Y-84521473D02*
X171653094Y-78632500D01*
X179931426Y-82570992D02*
X179031426Y-81012146D01*
X179281907Y-82945992D02*
X179931426Y-82570992D01*
X177982869Y-83695992D02*
X177607869Y-83046473D01*
X179945086Y-82574652D02*
X172385086Y-69480348D01*
X174774915Y-85559652D02*
X179945086Y-82574652D01*
D16*
%TO.C,MQ1*%
X116350000Y-77390000D02*
X148350000Y-77390000D01*
X116350000Y-99390000D02*
X116350000Y-77390000D01*
X148350000Y-77390000D02*
X148350000Y-99390000D01*
X148350000Y-99390000D02*
X116350000Y-99390000D01*
D14*
X145505210Y-91200000D02*
G75*
G02*
X144786790Y-91200000I-359210J0D01*
G01*
X144786790Y-91200000D02*
G75*
G02*
X145505210Y-91200000I359210J0D01*
G01*
D15*
%TO.C,U12*%
X156362500Y-69015000D02*
X156122500Y-68685000D01*
X156602500Y-68685000D01*
X156362500Y-69015000D01*
G36*
X156362500Y-69015000D02*
G01*
X156122500Y-68685000D01*
X156602500Y-68685000D01*
X156362500Y-69015000D01*
G37*
X157662500Y-72085000D02*
X158462500Y-72085000D01*
X157662500Y-72085000D02*
X156862500Y-72085000D01*
X157662500Y-68965000D02*
X158462500Y-68965000D01*
X157662500Y-68965000D02*
X156862500Y-68965000D01*
%TO.C,C22*%
X157311252Y-68085000D02*
X156788748Y-68085000D01*
X157311252Y-66615000D02*
X156788748Y-66615000D01*
%TO.C,C25*%
X151815000Y-70840580D02*
X151815000Y-70559420D01*
X152835000Y-70840580D02*
X152835000Y-70559420D01*
%TO.C,C23*%
X153465000Y-70786252D02*
X153465000Y-70263748D01*
X154935000Y-70786252D02*
X154935000Y-70263748D01*
D14*
%TO.C,MEMS_SMOKE1*%
X125265660Y-76650659D02*
X132265660Y-76650659D01*
X135265660Y-73650659D02*
X135265660Y-66650659D01*
X122265660Y-66650659D02*
X122265660Y-73650659D01*
X132255660Y-63650659D02*
X125265660Y-63650659D01*
X125265660Y-76650659D02*
G75*
G02*
X122265660Y-73650659I1J3000001D01*
G01*
X135265660Y-73650659D02*
G75*
G02*
X132265660Y-76650659I-3000001J1D01*
G01*
X122265660Y-66650659D02*
G75*
G02*
X125265660Y-63650659I3000001J-1D01*
G01*
X132265660Y-63650659D02*
G75*
G02*
X135265660Y-66650659I-1J-3000001D01*
G01*
%TO.C,BME1*%
X151342000Y-73726000D02*
X165312000Y-73726000D01*
X167344000Y-75758000D02*
X167344000Y-97348000D01*
X149310000Y-97348000D02*
X149310000Y-75758000D01*
X165312000Y-99380000D02*
X151342000Y-99380000D01*
X165312000Y-73726000D02*
G75*
G02*
X167344000Y-75758000I0J-2032000D01*
G01*
X149310000Y-75758000D02*
G75*
G02*
X151342000Y-73726000I2032000J0D01*
G01*
X167344000Y-97348000D02*
G75*
G02*
X165312000Y-99380000I-2032000J0D01*
G01*
X151342000Y-99380000D02*
G75*
G02*
X149310000Y-97348000I0J2032000D01*
G01*
X152419631Y-75758000D02*
G75*
G02*
X150264369Y-75758000I-1077631J0D01*
G01*
X150264369Y-75758000D02*
G75*
G02*
X152419631Y-75758000I1077631J0D01*
G01*
X152419631Y-97348000D02*
G75*
G02*
X150264369Y-97348000I-1077631J0D01*
G01*
X150264369Y-97348000D02*
G75*
G02*
X152419631Y-97348000I1077631J0D01*
G01*
%TO.C,SENSOR_IN1*%
X157095000Y-65185000D02*
X135865000Y-65185000D01*
X157095000Y-50145000D02*
X157095000Y-65185000D01*
X153815000Y-53995000D02*
X153815000Y-59935000D01*
X153775000Y-59935000D02*
X139095000Y-59935000D01*
X139095000Y-59935000D02*
X139095000Y-53995000D01*
X139095000Y-53995000D02*
X153815000Y-53995000D01*
X135865000Y-65185000D02*
X135865000Y-50145000D01*
X135865000Y-50145000D02*
X157095000Y-50145000D01*
D15*
%TO.C,ELECBEE1*%
X158854915Y-58025348D02*
X166414915Y-71119652D01*
X159893094Y-58303527D02*
X163293094Y-64192500D01*
X162072869Y-56179008D02*
X162447869Y-56828527D01*
X162447869Y-56828527D02*
X159893094Y-58303527D01*
X163371907Y-55429008D02*
X164271907Y-56987854D01*
X164021426Y-55054008D02*
X163371907Y-55429008D01*
X164025086Y-55040348D02*
X158854915Y-58025348D01*
X164131234Y-54644201D02*
X163048702Y-55269201D01*
X164271907Y-56987854D02*
X164921426Y-56612854D01*
X164756234Y-55726732D02*
X164131234Y-54644201D01*
X164921426Y-56612854D02*
X164021426Y-55054008D01*
X165021907Y-58286892D02*
X169271907Y-65648108D01*
X165671426Y-57911892D02*
X165021907Y-58286892D01*
X166414915Y-71119652D02*
X171585086Y-68134652D01*
X166693094Y-70081473D02*
X163293094Y-64192500D01*
X169247869Y-68606473D02*
X166693094Y-70081473D01*
X169271907Y-65648108D02*
X169921426Y-65273108D01*
X169622869Y-69255992D02*
X169247869Y-68606473D01*
X169921426Y-65273108D02*
X165671426Y-57911892D01*
X170021907Y-66947146D02*
X170921907Y-68505992D01*
X170671426Y-66572146D02*
X170021907Y-66947146D01*
X170921907Y-68505992D02*
X171571426Y-68130992D01*
X171571426Y-68130992D02*
X170671426Y-66572146D01*
X171585086Y-68134652D02*
X164025086Y-55040348D01*
%TO.C,OPTICAL_SMOKE1*%
X135240000Y-62840000D02*
X135240000Y-62290000D01*
X135240000Y-60070000D02*
X135240000Y-58320000D01*
X135240000Y-58320000D02*
X133790000Y-58320000D01*
X128670000Y-58320000D02*
X128670000Y-57430000D01*
X127220000Y-62840000D02*
X135240000Y-62840000D01*
X127220000Y-62290000D02*
X127220000Y-62840000D01*
X127220000Y-60070000D02*
X127220000Y-58320000D01*
X127220000Y-58320000D02*
X128670000Y-58320000D01*
%TD*%
M02*
