%TF.GenerationSoftware,KiCad,Pcbnew,9.0.2*%
%TF.CreationDate,2026-07-30T05:10:02+01:00*%
%TF.ProjectId,fabrizio_project _sensorboard,66616272-697a-4696-9f5f-70726f6a6563,rev?*%
%TF.SameCoordinates,Original*%
%TF.FileFunction,Copper,L2,Bot*%
%TF.FilePolarity,Positive*%
%FSLAX46Y46*%
G04 Gerber Fmt 4.6, Leading zero omitted, Abs format (unit mm)*
G04 Created by KiCad (PCBNEW 9.0.2) date 2026-07-30 05:10:02*
%MOMM*%
%LPD*%
G01*
G04 APERTURE LIST*
G04 Aperture macros list*
%AMRoundRect*
0 Rectangle with rounded corners*
0 $1 Rounding radius*
0 $2 $3 $4 $5 $6 $7 $8 $9 X,Y pos of 4 corners*
0 Add a 4 corners polygon primitive as box body*
4,1,4,$2,$3,$4,$5,$6,$7,$8,$9,$2,$3,0*
0 Add four circle primitives for the rounded corners*
1,1,$1+$1,$2,$3*
1,1,$1+$1,$4,$5*
1,1,$1+$1,$6,$7*
1,1,$1+$1,$8,$9*
0 Add four rect primitives between the rounded corners*
20,1,$1+$1,$2,$3,$4,$5,0*
20,1,$1+$1,$4,$5,$6,$7,0*
20,1,$1+$1,$6,$7,$8,$9,0*
20,1,$1+$1,$8,$9,$2,$3,0*%
%AMHorizOval*
0 Thick line with rounded ends*
0 $1 width*
0 $2 $3 position (X,Y) of the first rounded end (center of the circle)*
0 $4 $5 position (X,Y) of the second rounded end (center of the circle)*
0 Add line between two ends*
20,1,$1,$2,$3,$4,$5,0*
0 Add two circle primitives to create the rounded ends*
1,1,$1,$2,$3*
1,1,$1,$4,$5*%
%AMFreePoly0*
4,1,23,0.500000,-0.750000,0.000000,-0.750000,0.000000,-0.745722,-0.065263,-0.745722,-0.191342,-0.711940,-0.304381,-0.646677,-0.396677,-0.554381,-0.461940,-0.441342,-0.495722,-0.315263,-0.495722,-0.250000,-0.500000,-0.250000,-0.500000,0.250000,-0.495722,0.250000,-0.495722,0.315263,-0.461940,0.441342,-0.396677,0.554381,-0.304381,0.646677,-0.191342,0.711940,-0.065263,0.745722,0.000000,0.745722,
0.000000,0.750000,0.500000,0.750000,0.500000,-0.750000,0.500000,-0.750000,$1*%
%AMFreePoly1*
4,1,23,0.000000,0.745722,0.065263,0.745722,0.191342,0.711940,0.304381,0.646677,0.396677,0.554381,0.461940,0.441342,0.495722,0.315263,0.495722,0.250000,0.500000,0.250000,0.500000,-0.250000,0.495722,-0.250000,0.495722,-0.315263,0.461940,-0.441342,0.396677,-0.554381,0.304381,-0.646677,0.191342,-0.711940,0.065263,-0.745722,0.000000,-0.745722,0.000000,-0.750000,-0.500000,-0.750000,
-0.500000,0.750000,0.000000,0.750000,0.000000,0.745722,0.000000,0.745722,$1*%
G04 Aperture macros list end*
%TA.AperFunction,EtchedComponent*%
%ADD10C,0.000000*%
%TD*%
%TA.AperFunction,SMDPad,CuDef*%
%ADD11FreePoly0,180.000000*%
%TD*%
%TA.AperFunction,SMDPad,CuDef*%
%ADD12FreePoly1,180.000000*%
%TD*%
%TA.AperFunction,SMDPad,CuDef*%
%ADD13FreePoly0,0.000000*%
%TD*%
%TA.AperFunction,SMDPad,CuDef*%
%ADD14FreePoly1,0.000000*%
%TD*%
%TA.AperFunction,ComponentPad*%
%ADD15RoundRect,0.250000X0.600000X0.725000X-0.600000X0.725000X-0.600000X-0.725000X0.600000X-0.725000X0*%
%TD*%
%TA.AperFunction,ComponentPad*%
%ADD16O,1.700000X1.950000*%
%TD*%
%TA.AperFunction,ComponentPad*%
%ADD17RoundRect,0.250000X-0.927868X0.157115X-0.327868X-0.882115X0.927868X-0.157115X0.327868X0.882115X0*%
%TD*%
%TA.AperFunction,ComponentPad*%
%ADD18HorizOval,1.700000X-0.108253X-0.062500X0.108253X0.062500X0*%
%TD*%
%TA.AperFunction,WasherPad*%
%ADD19C,4.000000*%
%TD*%
%TA.AperFunction,ComponentPad*%
%ADD20C,1.524000*%
%TD*%
%TA.AperFunction,SMDPad,CuDef*%
%ADD21RoundRect,0.200000X-0.200000X-0.275000X0.200000X-0.275000X0.200000X0.275000X-0.200000X0.275000X0*%
%TD*%
%TA.AperFunction,SMDPad,CuDef*%
%ADD22RoundRect,0.250000X-0.250000X-0.475000X0.250000X-0.475000X0.250000X0.475000X-0.250000X0.475000X0*%
%TD*%
%TA.AperFunction,SMDPad,CuDef*%
%ADD23RoundRect,0.375000X0.625000X0.375000X-0.625000X0.375000X-0.625000X-0.375000X0.625000X-0.375000X0*%
%TD*%
%TA.AperFunction,SMDPad,CuDef*%
%ADD24RoundRect,0.500000X0.500000X1.400000X-0.500000X1.400000X-0.500000X-1.400000X0.500000X-1.400000X0*%
%TD*%
%TA.AperFunction,SMDPad,CuDef*%
%ADD25RoundRect,0.200000X0.200000X0.275000X-0.200000X0.275000X-0.200000X-0.275000X0.200000X-0.275000X0*%
%TD*%
%TA.AperFunction,ViaPad*%
%ADD26C,0.600000*%
%TD*%
%TA.AperFunction,Conductor*%
%ADD27C,0.400000*%
%TD*%
%TA.AperFunction,Conductor*%
%ADD28C,1.000000*%
%TD*%
%TA.AperFunction,Conductor*%
%ADD29C,0.200000*%
%TD*%
G04 APERTURE END LIST*
D10*
%TA.AperFunction,EtchedComponent*%
%TO.C,JP2*%
G36*
X156025000Y-81925000D02*
G01*
X155525000Y-81925000D01*
X155525000Y-81325000D01*
X156025000Y-81325000D01*
X156025000Y-81925000D01*
G37*
%TD.AperFunction*%
%TD*%
D11*
%TO.P,JP1,1,A*%
%TO.N,/Sensor Board/5V*%
X156320000Y-77880000D03*
D12*
%TO.P,JP1,2,B*%
%TO.N,Net-(BME1-VIN)*%
X155020000Y-77880000D03*
%TD*%
D13*
%TO.P,JP2,1,A*%
%TO.N,Net-(BME1-3V)*%
X155125000Y-81625000D03*
D14*
%TO.P,JP2,2,B*%
%TO.N,/Sensor Board/3V*%
X156425000Y-81625000D03*
%TD*%
D15*
%TO.P,J4,1,Pin_1*%
%TO.N,/Sensor Board/12-24V_IN*%
X176960000Y-95710000D03*
D16*
%TO.P,J4,2,Pin_2*%
%TO.N,/Sensor Board/WS2811*%
X174460000Y-95710000D03*
%TO.P,J4,3,Pin_3*%
%TO.N,/Sensor Board/GND*%
X171960000Y-95710000D03*
%TD*%
D17*
%TO.P,POWER_IN1,1,Pin_1*%
%TO.N,/Sensor Board/GND*%
X171534664Y-72927373D03*
D18*
%TO.P,POWER_IN1,2,Pin_2*%
%TO.N,/Sensor Board/9V*%
X172784664Y-75092437D03*
%TO.P,POWER_IN1,3,Pin_3*%
%TO.N,unconnected-(POWER_IN1-Pin_3-Pad3)*%
X174034664Y-77257500D03*
%TO.P,POWER_IN1,4,Pin_4*%
%TO.N,/Sensor Board/5V*%
X175284664Y-79422564D03*
%TO.P,POWER_IN1,5,Pin_5*%
%TO.N,/Sensor Board/12-24V_IN*%
X176534664Y-81587627D03*
%TD*%
D19*
%TO.P,MQ1,*%
%TO.N,*%
X119492000Y-80278000D03*
X119492000Y-96534000D03*
X145146000Y-80278000D03*
X145146000Y-96534000D03*
D20*
%TO.P,MQ1,1,VCC*%
%TO.N,/Sensor Board/5V*%
X146240000Y-92150000D03*
%TO.P,MQ1,2,GND*%
%TO.N,/Sensor Board/GND*%
X146240000Y-89610000D03*
%TO.P,MQ1,3,DO*%
%TO.N,unconnected-(MQ1-DO-Pad3)*%
X146240000Y-87070000D03*
%TO.P,MQ1,4,AO*%
%TO.N,Net-(MQ1-AO)*%
X146240000Y-84530000D03*
%TD*%
%TO.P,MEMS_SMOKE1,1,A*%
%TO.N,/Sensor Board/MEMS_AOUT*%
X133565660Y-72690659D03*
%TO.P,MEMS_SMOKE1,2,VCC*%
%TO.N,/Sensor Board/3V*%
X133565660Y-70150659D03*
%TO.P,MEMS_SMOKE1,3,GND*%
%TO.N,/Sensor Board/GND*%
X133565660Y-67610659D03*
%TD*%
%TO.P,BME1,1,VIN*%
%TO.N,Net-(BME1-VIN)*%
X151850000Y-79060000D03*
%TO.P,BME1,2,3V*%
%TO.N,Net-(BME1-3V)*%
X151850000Y-81600000D03*
%TO.P,BME1,3,GND*%
%TO.N,/Sensor Board/GND*%
X151850000Y-84140000D03*
%TO.P,BME1,4,SCK*%
%TO.N,/Sensor Board/SCL*%
X151850000Y-86680000D03*
%TO.P,BME1,5,SDO*%
%TO.N,unconnected-(BME1-SDO-Pad5)*%
X151850000Y-89220000D03*
%TO.P,BME1,6,SDI*%
%TO.N,/Sensor Board/SDA*%
X151850000Y-91760000D03*
%TO.P,BME1,7,CS*%
%TO.N,unconnected-(BME1-CS-Pad7)*%
X151850000Y-94300000D03*
%TD*%
D21*
%TO.P,R19,2*%
%TO.N,/Sensor Board/GND*%
X142525000Y-86300000D03*
%TO.P,R19,1*%
%TO.N,/Sensor Board/MQ2_DO*%
X140875000Y-86300000D03*
%TD*%
%TO.P,R22,2*%
%TO.N,/Sensor Board/GND*%
X131355000Y-80740000D03*
%TO.P,R22,1*%
%TO.N,Net-(U6-ADJ)*%
X129705000Y-80740000D03*
%TD*%
D17*
%TO.P,ELECBEE1,1,GND*%
%TO.N,/Sensor Board/GND*%
X163174664Y-58487373D03*
D18*
%TO.P,ELECBEE1,2,+9V*%
%TO.N,/Sensor Board/9V*%
X164424664Y-60652437D03*
%TO.P,ELECBEE1,3,NO*%
%TO.N,unconnected-(ELECBEE1-NO-Pad3)*%
X165674664Y-62817500D03*
%TO.P,ELECBEE1,4,CO*%
%TO.N,/Sensor Board/ALARM*%
X166924664Y-64982564D03*
%TO.P,ELECBEE1,5,NC*%
%TO.N,/Sensor Board/GND*%
X168174664Y-67147627D03*
%TD*%
D22*
%TO.P,C13,2*%
%TO.N,/Sensor Board/GND*%
X129650000Y-91850000D03*
%TO.P,C13,1*%
%TO.N,/Sensor Board/3.7V*%
X127750000Y-91850000D03*
%TD*%
D23*
%TO.P,U6,1,ADJ*%
%TO.N,Net-(U6-ADJ)*%
X132150000Y-83362500D03*
%TO.P,U6,2,VO*%
%TO.N,/Sensor Board/3.7V*%
X132150000Y-85662500D03*
D24*
X125850000Y-85662500D03*
D23*
%TO.P,U6,3,VI*%
%TO.N,/Sensor Board/9V*%
X132150000Y-87962500D03*
%TD*%
D25*
%TO.P,R23,1*%
%TO.N,/Sensor Board/3V*%
X156875000Y-86700000D03*
%TO.P,R23,2*%
%TO.N,/Sensor Board/SCL*%
X155225000Y-86700000D03*
%TD*%
%TO.P,R18,1*%
%TO.N,Net-(MQ1-AO)*%
X142515000Y-84520000D03*
%TO.P,R18,2*%
%TO.N,/Sensor Board/MQ2_DO*%
X140865000Y-84520000D03*
%TD*%
%TO.P,R24,1*%
%TO.N,/Sensor Board/3V*%
X156895000Y-91770000D03*
%TO.P,R24,2*%
%TO.N,/Sensor Board/SDA*%
X155245000Y-91770000D03*
%TD*%
D21*
%TO.P,R21,1*%
%TO.N,/Sensor Board/3.7V*%
X125910000Y-80760000D03*
%TO.P,R21,2*%
%TO.N,Net-(U6-ADJ)*%
X127560000Y-80760000D03*
%TD*%
D26*
%TO.N,/Sensor Board/GND*%
X169275000Y-90325000D03*
X168525000Y-77925000D03*
%TO.N,/Sensor Board/3.7V*%
X129900000Y-65310000D03*
%TO.N,/Sensor Board/5V*%
X159370000Y-79260000D03*
X158890000Y-96410000D03*
X160150000Y-73250000D03*
%TO.N,/Sensor Board/3V*%
X156874022Y-90373686D03*
X158100000Y-81620000D03*
X156875000Y-88080000D03*
%TO.N,/Sensor Board/9V*%
X166710000Y-84410000D03*
X166690000Y-97720000D03*
%TO.N,/Sensor Board/WS2811*%
X147200000Y-66560000D03*
%TO.N,/Sensor Board/MQ2_DO*%
X146810000Y-71360000D03*
%TO.N,/Sensor Board/ALARM*%
X155010000Y-57190000D03*
X150950000Y-57190000D03*
%TO.N,/Sensor Board/MUTE*%
X130620000Y-56760000D03*
X140970000Y-56760000D03*
%TO.N,/Sensor Board/MEMS_AOUT*%
X137600000Y-72630000D03*
X144420000Y-72690659D03*
%TO.N,/Sensor Board/GND*%
X133930000Y-91850000D03*
X133870000Y-80760000D03*
X132750000Y-91850000D03*
X131540000Y-91850000D03*
X132690000Y-80750616D03*
%TO.N,/Sensor Board/3V*%
X161940000Y-76300000D03*
%TD*%
D27*
%TO.N,Net-(MQ1-AO)*%
X146230000Y-84520000D02*
X146240000Y-84530000D01*
X142515000Y-84520000D02*
X146230000Y-84520000D01*
%TO.N,Net-(BME1-VIN)*%
X153040000Y-77880000D02*
X155020000Y-77880000D01*
X152740000Y-78180000D02*
X153040000Y-77880000D01*
X152740000Y-78184000D02*
X152740000Y-78180000D01*
X151854000Y-79070000D02*
X152740000Y-78184000D01*
X151934000Y-78990000D02*
X151854000Y-79070000D01*
%TO.N,Net-(BME1-3V)*%
X155100000Y-81600000D02*
X151864000Y-81600000D01*
X151864000Y-81600000D02*
X151854000Y-81610000D01*
D28*
%TO.N,/Sensor Board/GND*%
X148975000Y-88125000D02*
X147490000Y-89610000D01*
X148975000Y-85500000D02*
X148975000Y-88125000D01*
X150325000Y-84150000D02*
X148975000Y-85500000D01*
X147490000Y-89610000D02*
X146975000Y-89610000D01*
X151854000Y-84150000D02*
X150325000Y-84150000D01*
X147850000Y-93685852D02*
X147850000Y-90485000D01*
X149850000Y-95685852D02*
X147850000Y-93685852D01*
X149850000Y-96848000D02*
X149850000Y-95685852D01*
X157652000Y-96848000D02*
X149850000Y-96848000D01*
X157724001Y-96775999D02*
X157652000Y-96848000D01*
X147850000Y-90485000D02*
X146975000Y-89610000D01*
X157724001Y-96160371D02*
X157724001Y-96775999D01*
X158475372Y-95409000D02*
X157724001Y-96160371D01*
X171659000Y-95409000D02*
X158475372Y-95409000D01*
X171960000Y-95710000D02*
X171659000Y-95409000D01*
D27*
%TO.N,/Sensor Board/5V*%
X158625000Y-97250000D02*
X158624000Y-97250000D01*
X158624000Y-97250000D02*
X158125000Y-97749000D01*
X158625000Y-96675000D02*
X158890000Y-96410000D01*
X158625000Y-97250000D02*
X158625000Y-96675000D01*
X149248942Y-97749000D02*
X158125000Y-97749000D01*
X148800000Y-97300058D02*
X149248942Y-97749000D01*
X148800000Y-95910058D02*
X148800000Y-97300058D01*
X146240000Y-93350058D02*
X148800000Y-95910058D01*
X146240000Y-92150000D02*
X146240000Y-93350058D01*
%TO.N,/Sensor Board/9V*%
X166060000Y-98350000D02*
X166690000Y-97720000D01*
X148195000Y-97545000D02*
X149000000Y-98350000D01*
X148195000Y-96155000D02*
X148195000Y-97545000D01*
X149000000Y-98350000D02*
X166060000Y-98350000D01*
D28*
%TO.N,/Sensor Board/GND*%
X146240000Y-89610000D02*
X146975000Y-89610000D01*
D27*
%TO.N,Net-(U6-ADJ)*%
X129705000Y-83165000D02*
X129705000Y-80740000D01*
X129890000Y-83350000D02*
X129705000Y-83165000D01*
D28*
%TO.N,/Sensor Board/GND*%
X168525000Y-89575000D02*
X169275000Y-90325000D01*
X168525000Y-77925000D02*
X168525000Y-89575000D01*
D27*
%TO.N,/Sensor Board/3.7V*%
X125850000Y-80820000D02*
X125910000Y-80760000D01*
D29*
X125910000Y-69300000D02*
X125910000Y-80760000D01*
X129900000Y-65310000D02*
X125910000Y-69300000D01*
D27*
%TO.N,/Sensor Board/5V*%
X159971364Y-79260000D02*
X159370000Y-79260000D01*
X162641000Y-76590364D02*
X159971364Y-79260000D01*
X162641000Y-75741000D02*
X162641000Y-76590364D01*
X160150000Y-73250000D02*
X162641000Y-75741000D01*
X159370000Y-79260000D02*
X159370000Y-78470000D01*
X159370000Y-78470000D02*
X158780000Y-77880000D01*
X158780000Y-77880000D02*
X156320000Y-77880000D01*
D29*
%TO.N,/Sensor Board/3V*%
X156895000Y-90394664D02*
X156874022Y-90373686D01*
D27*
X158080000Y-81600000D02*
X158100000Y-81620000D01*
D29*
X156895000Y-91770000D02*
X156895000Y-90394664D01*
X156875000Y-86700000D02*
X156875000Y-82075000D01*
X156875000Y-82075000D02*
X156400000Y-81600000D01*
X161940000Y-76300000D02*
X155440000Y-70070000D01*
X156875000Y-91750000D02*
X156895000Y-91770000D01*
D27*
X156400000Y-81600000D02*
X158080000Y-81600000D01*
D29*
X156875000Y-86700000D02*
X156875000Y-88080000D01*
X155440000Y-70070000D02*
X133565660Y-70150659D01*
D27*
%TO.N,/Sensor Board/9V*%
X167810000Y-76580000D02*
X171297101Y-76580000D01*
X167620000Y-76580000D02*
X167810000Y-76580000D01*
X162520000Y-71480000D02*
X167620000Y-76580000D01*
X164224996Y-60852105D02*
X164187895Y-60852105D01*
X162520000Y-62520000D02*
X162520000Y-71480000D01*
X166710000Y-84410000D02*
X166710000Y-77680000D01*
X145352000Y-93312000D02*
X148195000Y-96155000D01*
X137512000Y-93312000D02*
X145352000Y-93312000D01*
X132150000Y-87950000D02*
X137512000Y-93312000D01*
X164187895Y-60852105D02*
X162520000Y-62520000D01*
X164424664Y-60652437D02*
X164224996Y-60852105D01*
X171297101Y-76580000D02*
X172784664Y-75092437D01*
X166710000Y-77680000D02*
X167810000Y-76580000D01*
D29*
%TO.N,/Sensor Board/WS2811*%
X147200000Y-66560000D02*
X147950000Y-67310000D01*
X147950000Y-67310000D02*
X155500000Y-67310000D01*
X155500000Y-67310000D02*
X163440000Y-75250000D01*
X165740000Y-92700000D02*
X173800000Y-92700000D01*
X163440000Y-90400000D02*
X165740000Y-92700000D01*
X174460000Y-93360000D02*
X174460000Y-95710000D01*
X163440000Y-75250000D02*
X163440000Y-90400000D01*
X173800000Y-92700000D02*
X174460000Y-93360000D01*
D27*
%TO.N,/Sensor Board/MQ2_DO*%
X140865000Y-77305000D02*
X140865000Y-84520000D01*
X140875000Y-84530000D02*
X140865000Y-84520000D01*
X146810000Y-71360000D02*
X140865000Y-77305000D01*
X140875000Y-86300000D02*
X140875000Y-84530000D01*
D29*
%TO.N,/Sensor Board/ALARM*%
X155010000Y-57190000D02*
X150950000Y-57190000D01*
%TO.N,/Sensor Board/MUTE*%
X130620000Y-56760000D02*
X140970000Y-56760000D01*
D27*
%TO.N,/Sensor Board/MEMS_AOUT*%
X144420000Y-72690659D02*
X137660659Y-72690659D01*
X137600000Y-72630000D02*
X137539341Y-72690659D01*
X137660659Y-72690659D02*
X137600000Y-72630000D01*
%TO.N,/Sensor Board/SCL*%
X155225000Y-86700000D02*
X151864000Y-86700000D01*
X151864000Y-86700000D02*
X151854000Y-86690000D01*
%TO.N,/Sensor Board/SDA*%
X155245000Y-91770000D02*
X151854000Y-91770000D01*
%TO.N,Net-(U6-ADJ)*%
X127580000Y-80740000D02*
X127560000Y-80760000D01*
X129890000Y-83350000D02*
X132150000Y-83350000D01*
X129705000Y-80740000D02*
X127580000Y-80740000D01*
D29*
%TO.N,/Sensor Board/GND*%
X133870000Y-80760000D02*
X132680000Y-80670000D01*
D27*
X132690000Y-80750616D02*
X133870000Y-80760000D01*
X132750000Y-91850000D02*
X133930000Y-91850000D01*
X129650000Y-91850000D02*
X131540000Y-91850000D01*
X131355000Y-80740000D02*
X132690000Y-80750616D01*
X131540000Y-91850000D02*
X132750000Y-91850000D01*
%TD*%
%TA.AperFunction,Conductor*%
%TO.N,/Sensor Board/3.7V*%
G36*
X135142579Y-78360018D02*
G01*
X135188640Y-78412555D01*
X135200147Y-78464574D01*
X135213503Y-89723337D01*
X135193898Y-89790400D01*
X135141148Y-89836217D01*
X135072002Y-89846243D01*
X135008411Y-89817293D01*
X135001822Y-89811165D01*
X133686818Y-88496161D01*
X133653333Y-88434838D01*
X133650499Y-88408489D01*
X133650499Y-87511378D01*
X133647600Y-87468611D01*
X133601641Y-87283807D01*
X133579828Y-87239825D01*
X133517032Y-87113207D01*
X133517030Y-87113204D01*
X133397724Y-86964780D01*
X133397722Y-86964778D01*
X133328112Y-86908824D01*
X133288196Y-86851485D01*
X133285616Y-86781663D01*
X133321194Y-86721530D01*
X133328115Y-86715533D01*
X133397366Y-86659867D01*
X133397367Y-86659866D01*
X133516607Y-86511525D01*
X133516609Y-86511522D01*
X133601168Y-86341023D01*
X133647102Y-86156324D01*
X133650000Y-86113596D01*
X133650000Y-85912500D01*
X130650000Y-85912500D01*
X130650000Y-86113596D01*
X130652897Y-86156324D01*
X130698831Y-86341023D01*
X130783390Y-86511522D01*
X130783392Y-86511525D01*
X130902630Y-86659864D01*
X130971884Y-86715531D01*
X131011803Y-86772875D01*
X131014383Y-86842697D01*
X130978805Y-86902829D01*
X130971885Y-86908826D01*
X130902276Y-86964780D01*
X130782969Y-87113204D01*
X130782967Y-87113207D01*
X130698360Y-87283802D01*
X130652400Y-87468607D01*
X130649500Y-87511379D01*
X130649500Y-88413622D01*
X130649501Y-88413625D01*
X130652399Y-88456386D01*
X130652399Y-88456387D01*
X130698360Y-88641196D01*
X130782967Y-88811792D01*
X130782969Y-88811795D01*
X130902277Y-88960221D01*
X130902278Y-88960222D01*
X131050704Y-89079530D01*
X131050707Y-89079532D01*
X131221302Y-89164139D01*
X131221303Y-89164139D01*
X131221307Y-89164141D01*
X131406111Y-89210100D01*
X131448877Y-89213000D01*
X132370980Y-89212999D01*
X132438019Y-89232683D01*
X132458661Y-89249318D01*
X134047162Y-90837819D01*
X134080647Y-90899142D01*
X134075663Y-90968834D01*
X134033791Y-91024767D01*
X133968327Y-91049184D01*
X133959481Y-91049500D01*
X133851155Y-91049500D01*
X133696510Y-91080261D01*
X133696498Y-91080264D01*
X133552136Y-91140061D01*
X133504684Y-91149500D01*
X133175316Y-91149500D01*
X133127864Y-91140061D01*
X132983501Y-91080264D01*
X132983489Y-91080261D01*
X132828845Y-91049500D01*
X132828842Y-91049500D01*
X132671158Y-91049500D01*
X132671155Y-91049500D01*
X132516510Y-91080261D01*
X132516498Y-91080264D01*
X132372136Y-91140061D01*
X132324684Y-91149500D01*
X131965316Y-91149500D01*
X131917864Y-91140061D01*
X131773501Y-91080264D01*
X131773489Y-91080261D01*
X131618845Y-91049500D01*
X131618842Y-91049500D01*
X131461158Y-91049500D01*
X131461155Y-91049500D01*
X131306510Y-91080261D01*
X131306498Y-91080264D01*
X131162136Y-91140061D01*
X131114684Y-91149500D01*
X130705449Y-91149500D01*
X130638410Y-91129815D01*
X130592655Y-91077011D01*
X130587744Y-91064507D01*
X130584814Y-91055667D01*
X130584814Y-91055666D01*
X130492712Y-90906344D01*
X130368656Y-90782288D01*
X130219334Y-90690186D01*
X130052797Y-90635001D01*
X130052795Y-90635000D01*
X129950010Y-90624500D01*
X129349998Y-90624500D01*
X129349980Y-90624501D01*
X129247203Y-90635000D01*
X129247200Y-90635001D01*
X129080668Y-90690185D01*
X129080663Y-90690187D01*
X128931342Y-90782289D01*
X128807288Y-90906343D01*
X128807283Y-90906349D01*
X128805241Y-90909661D01*
X128803247Y-90911453D01*
X128802807Y-90912011D01*
X128802711Y-90911935D01*
X128753291Y-90956383D01*
X128684328Y-90967602D01*
X128620247Y-90939755D01*
X128594168Y-90909656D01*
X128592319Y-90906659D01*
X128592316Y-90906655D01*
X128468345Y-90782684D01*
X128319124Y-90690643D01*
X128319119Y-90690641D01*
X128152697Y-90635494D01*
X128152690Y-90635493D01*
X128049986Y-90625000D01*
X128000000Y-90625000D01*
X128000000Y-93074999D01*
X128049972Y-93074999D01*
X128049986Y-93074998D01*
X128152697Y-93064505D01*
X128319119Y-93009358D01*
X128319124Y-93009356D01*
X128468345Y-92917315D01*
X128592318Y-92793342D01*
X128594165Y-92790348D01*
X128595969Y-92788724D01*
X128596798Y-92787677D01*
X128596976Y-92787818D01*
X128646110Y-92743621D01*
X128715073Y-92732396D01*
X128779156Y-92760236D01*
X128805243Y-92790341D01*
X128807288Y-92793656D01*
X128931344Y-92917712D01*
X129080666Y-93009814D01*
X129247203Y-93064999D01*
X129349991Y-93075500D01*
X129950008Y-93075499D01*
X129950016Y-93075498D01*
X129950019Y-93075498D01*
X130006302Y-93069748D01*
X130052797Y-93064999D01*
X130219334Y-93009814D01*
X130368656Y-92917712D01*
X130492712Y-92793656D01*
X130584814Y-92644334D01*
X130587744Y-92635493D01*
X130627518Y-92578049D01*
X130692035Y-92551228D01*
X130705449Y-92550500D01*
X131114684Y-92550500D01*
X131162136Y-92559939D01*
X131205858Y-92578049D01*
X131306503Y-92619737D01*
X131429079Y-92644119D01*
X131461153Y-92650499D01*
X131461156Y-92650500D01*
X131461158Y-92650500D01*
X131618844Y-92650500D01*
X131618845Y-92650499D01*
X131773497Y-92619737D01*
X131874142Y-92578049D01*
X131917864Y-92559939D01*
X131965316Y-92550500D01*
X132324684Y-92550500D01*
X132372136Y-92559939D01*
X132415858Y-92578049D01*
X132516503Y-92619737D01*
X132639079Y-92644119D01*
X132671153Y-92650499D01*
X132671156Y-92650500D01*
X132671158Y-92650500D01*
X132828844Y-92650500D01*
X132828845Y-92650499D01*
X132983497Y-92619737D01*
X133084142Y-92578049D01*
X133127864Y-92559939D01*
X133175316Y-92550500D01*
X133504684Y-92550500D01*
X133552136Y-92559939D01*
X133595858Y-92578049D01*
X133696503Y-92619737D01*
X133819079Y-92644119D01*
X133851153Y-92650499D01*
X133851156Y-92650500D01*
X133851158Y-92650500D01*
X134008844Y-92650500D01*
X134008845Y-92650499D01*
X134163497Y-92619737D01*
X134309179Y-92559394D01*
X134440289Y-92471789D01*
X134551789Y-92360289D01*
X134639394Y-92229179D01*
X134699737Y-92083497D01*
X134730500Y-91928842D01*
X134730500Y-91820519D01*
X134750185Y-91753480D01*
X134802989Y-91707725D01*
X134872147Y-91697781D01*
X134935703Y-91726806D01*
X134942181Y-91732838D01*
X135179953Y-91970610D01*
X135213438Y-92031933D01*
X135216272Y-92058144D01*
X135219852Y-95076054D01*
X135200247Y-95143117D01*
X135147497Y-95188934D01*
X135096054Y-95200201D01*
X123044128Y-95219798D01*
X122977056Y-95200222D01*
X122931216Y-95147493D01*
X122919926Y-95095872D01*
X122918718Y-93064998D01*
X122918308Y-92374986D01*
X126750001Y-92374986D01*
X126760494Y-92477697D01*
X126815641Y-92644119D01*
X126815643Y-92644124D01*
X126907684Y-92793345D01*
X127031654Y-92917315D01*
X127180875Y-93009356D01*
X127180880Y-93009358D01*
X127347302Y-93064505D01*
X127347309Y-93064506D01*
X127450019Y-93074999D01*
X127499999Y-93074998D01*
X127500000Y-93074998D01*
X127500000Y-92100000D01*
X126750001Y-92100000D01*
X126750001Y-92374986D01*
X122918308Y-92374986D01*
X122917683Y-91325013D01*
X126750000Y-91325013D01*
X126750000Y-91600000D01*
X127500000Y-91600000D01*
X127500000Y-90625000D01*
X127499999Y-90624999D01*
X127450029Y-90625000D01*
X127450011Y-90625001D01*
X127347302Y-90635494D01*
X127180880Y-90690641D01*
X127180875Y-90690643D01*
X127031654Y-90782684D01*
X126907684Y-90906654D01*
X126815643Y-91055875D01*
X126815641Y-91055880D01*
X126760494Y-91222302D01*
X126760493Y-91222309D01*
X126750000Y-91325013D01*
X122917683Y-91325013D01*
X122916425Y-89210099D01*
X122915182Y-87120500D01*
X124350000Y-87120500D01*
X124360608Y-87239825D01*
X124360609Y-87239828D01*
X124416557Y-87435361D01*
X124510721Y-87615629D01*
X124639246Y-87773253D01*
X124796870Y-87901778D01*
X124977138Y-87995942D01*
X125172671Y-88051890D01*
X125172674Y-88051891D01*
X125291999Y-88062499D01*
X125292002Y-88062500D01*
X125600000Y-88062500D01*
X126100000Y-88062500D01*
X126407998Y-88062500D01*
X126408000Y-88062499D01*
X126527325Y-88051891D01*
X126527328Y-88051890D01*
X126722861Y-87995942D01*
X126903129Y-87901778D01*
X127060753Y-87773253D01*
X127189278Y-87615629D01*
X127283442Y-87435361D01*
X127339390Y-87239828D01*
X127339391Y-87239825D01*
X127349999Y-87120500D01*
X127350000Y-87120498D01*
X127350000Y-85912500D01*
X126100000Y-85912500D01*
X126100000Y-88062500D01*
X125600000Y-88062500D01*
X125600000Y-85912500D01*
X124350000Y-85912500D01*
X124350000Y-87120500D01*
X122915182Y-87120500D01*
X122914433Y-85861212D01*
X122913448Y-84204499D01*
X124350000Y-84204499D01*
X124350000Y-85412500D01*
X125600000Y-85412500D01*
X126100000Y-85412500D01*
X127350000Y-85412500D01*
X127350000Y-84204502D01*
X127349999Y-84204499D01*
X127339391Y-84085174D01*
X127339390Y-84085171D01*
X127283442Y-83889638D01*
X127189278Y-83709370D01*
X127060753Y-83551746D01*
X126903129Y-83423221D01*
X126722861Y-83329057D01*
X126527328Y-83273109D01*
X126527325Y-83273108D01*
X126408000Y-83262500D01*
X126100000Y-83262500D01*
X126100000Y-85412500D01*
X125600000Y-85412500D01*
X125600000Y-83262500D01*
X125291999Y-83262500D01*
X125172674Y-83273108D01*
X125172671Y-83273109D01*
X124977138Y-83329057D01*
X124796870Y-83423221D01*
X124639246Y-83551746D01*
X124510721Y-83709370D01*
X124416557Y-83889638D01*
X124360609Y-84085171D01*
X124360608Y-84085174D01*
X124350000Y-84204499D01*
X122913448Y-84204499D01*
X122913446Y-84201821D01*
X122911817Y-81463898D01*
X122911596Y-81091582D01*
X125010001Y-81091582D01*
X125016408Y-81162102D01*
X125016409Y-81162107D01*
X125066981Y-81324396D01*
X125154927Y-81469877D01*
X125275122Y-81590072D01*
X125420604Y-81678019D01*
X125420603Y-81678019D01*
X125582894Y-81728590D01*
X125582893Y-81728590D01*
X125653408Y-81734998D01*
X125653426Y-81734999D01*
X125659999Y-81734998D01*
X125660000Y-81734998D01*
X125660000Y-81010000D01*
X125010001Y-81010000D01*
X125010001Y-81091582D01*
X122911596Y-81091582D01*
X122911201Y-80428427D01*
X125010000Y-80428427D01*
X125010000Y-80510000D01*
X125660000Y-80510000D01*
X125660000Y-79785000D01*
X126160000Y-79785000D01*
X126160000Y-81734999D01*
X126166581Y-81734999D01*
X126237102Y-81728591D01*
X126237107Y-81728590D01*
X126399396Y-81678018D01*
X126544877Y-81590072D01*
X126544878Y-81590071D01*
X126646963Y-81487985D01*
X126708286Y-81454499D01*
X126777977Y-81459483D01*
X126822326Y-81487984D01*
X126924811Y-81590469D01*
X126924813Y-81590470D01*
X126924815Y-81590472D01*
X127070394Y-81678478D01*
X127232804Y-81729086D01*
X127303384Y-81735500D01*
X127303387Y-81735500D01*
X127816613Y-81735500D01*
X127816616Y-81735500D01*
X127887196Y-81729086D01*
X128049606Y-81678478D01*
X128195185Y-81590472D01*
X128308839Y-81476817D01*
X128370160Y-81443334D01*
X128396519Y-81440500D01*
X128880500Y-81440500D01*
X128947539Y-81460185D01*
X128993294Y-81512989D01*
X129004500Y-81564500D01*
X129004500Y-83096006D01*
X129004500Y-83233994D01*
X129004500Y-83233996D01*
X129004499Y-83233996D01*
X129031418Y-83369322D01*
X129031421Y-83369332D01*
X129084222Y-83496807D01*
X129160887Y-83611545D01*
X129443454Y-83894112D01*
X129558192Y-83970777D01*
X129685667Y-84023578D01*
X129685672Y-84023580D01*
X129685676Y-84023580D01*
X129685677Y-84023581D01*
X129821004Y-84050500D01*
X129821007Y-84050500D01*
X130626061Y-84050500D01*
X130693100Y-84070185D01*
X130737149Y-84119406D01*
X130782969Y-84211795D01*
X130902277Y-84360221D01*
X130902278Y-84360222D01*
X130971884Y-84416173D01*
X131011803Y-84473516D01*
X131014383Y-84543338D01*
X130978804Y-84603471D01*
X130971885Y-84609467D01*
X130902631Y-84665135D01*
X130783392Y-84813474D01*
X130783390Y-84813477D01*
X130698831Y-84983976D01*
X130652897Y-85168675D01*
X130650000Y-85211403D01*
X130650000Y-85412500D01*
X133650000Y-85412500D01*
X133650000Y-85211403D01*
X133647102Y-85168675D01*
X133601168Y-84983976D01*
X133516609Y-84813477D01*
X133516607Y-84813474D01*
X133397367Y-84665133D01*
X133397366Y-84665132D01*
X133328115Y-84609467D01*
X133288196Y-84552124D01*
X133285616Y-84482302D01*
X133321194Y-84422169D01*
X133328089Y-84416194D01*
X133397722Y-84360222D01*
X133517030Y-84211796D01*
X133601641Y-84041193D01*
X133647600Y-83856389D01*
X133650500Y-83813623D01*
X133650499Y-82911378D01*
X133647600Y-82868611D01*
X133601641Y-82683807D01*
X133556236Y-82592255D01*
X133517032Y-82513207D01*
X133517030Y-82513204D01*
X133397722Y-82364778D01*
X133397721Y-82364777D01*
X133249295Y-82245469D01*
X133249292Y-82245467D01*
X133078697Y-82160860D01*
X132893892Y-82114900D01*
X132872506Y-82113450D01*
X132851123Y-82112000D01*
X132851120Y-82112000D01*
X131448877Y-82112000D01*
X131448874Y-82112001D01*
X131406113Y-82114899D01*
X131406112Y-82114899D01*
X131221303Y-82160860D01*
X131050707Y-82245467D01*
X131050704Y-82245469D01*
X130902278Y-82364777D01*
X130902277Y-82364778D01*
X130782969Y-82513204D01*
X130749548Y-82580594D01*
X130738770Y-82592255D01*
X130732173Y-82606703D01*
X130715541Y-82617391D01*
X130702127Y-82631907D01*
X130686035Y-82636353D01*
X130673395Y-82644477D01*
X130638460Y-82649500D01*
X130529500Y-82649500D01*
X130462461Y-82629815D01*
X130416706Y-82577011D01*
X130405500Y-82525500D01*
X130405500Y-81556519D01*
X130425185Y-81489480D01*
X130441731Y-81468926D01*
X130442232Y-81468424D01*
X130503520Y-81434879D01*
X130573216Y-81439794D01*
X130617680Y-81468338D01*
X130719811Y-81570469D01*
X130719813Y-81570470D01*
X130719815Y-81570472D01*
X130865394Y-81658478D01*
X131027804Y-81709086D01*
X131098384Y-81715500D01*
X131098387Y-81715500D01*
X131611613Y-81715500D01*
X131611616Y-81715500D01*
X131682196Y-81709086D01*
X131844606Y-81658478D01*
X131990185Y-81570472D01*
X132077373Y-81483283D01*
X132104724Y-81468348D01*
X132131065Y-81451715D01*
X132136549Y-81450970D01*
X132138694Y-81449800D01*
X132166034Y-81446970D01*
X132257710Y-81447699D01*
X132304398Y-81459598D01*
X132305193Y-81457679D01*
X132456498Y-81520351D01*
X132456503Y-81520353D01*
X132611153Y-81551115D01*
X132611156Y-81551116D01*
X132611158Y-81551116D01*
X132768844Y-81551116D01*
X132768845Y-81551115D01*
X132923497Y-81520353D01*
X133059794Y-81463897D01*
X133108225Y-81454463D01*
X133437710Y-81457083D01*
X133484397Y-81468982D01*
X133485192Y-81467063D01*
X133613850Y-81520354D01*
X133636503Y-81529737D01*
X133791153Y-81560499D01*
X133791156Y-81560500D01*
X133791158Y-81560500D01*
X133948844Y-81560500D01*
X133948845Y-81560499D01*
X134103497Y-81529737D01*
X134231253Y-81476819D01*
X134249172Y-81469397D01*
X134249172Y-81469396D01*
X134249179Y-81469394D01*
X134380289Y-81381789D01*
X134491789Y-81270289D01*
X134579394Y-81139179D01*
X134639737Y-80993497D01*
X134670500Y-80838842D01*
X134670500Y-80681158D01*
X134670500Y-80681155D01*
X134670499Y-80681153D01*
X134639738Y-80526510D01*
X134639737Y-80526503D01*
X134599095Y-80428384D01*
X134579397Y-80380827D01*
X134579390Y-80380814D01*
X134491789Y-80249711D01*
X134491786Y-80249707D01*
X134380292Y-80138213D01*
X134380288Y-80138210D01*
X134249185Y-80050609D01*
X134249172Y-80050602D01*
X134103501Y-79990264D01*
X134103489Y-79990261D01*
X133948845Y-79959500D01*
X133948842Y-79959500D01*
X133791158Y-79959500D01*
X133791155Y-79959500D01*
X133636510Y-79990261D01*
X133636507Y-79990262D01*
X133636506Y-79990262D01*
X133636503Y-79990263D01*
X133565158Y-80019815D01*
X133500209Y-80046717D01*
X133451771Y-80056151D01*
X133122290Y-80053531D01*
X133075600Y-80041639D01*
X133074808Y-80043553D01*
X132923501Y-79980880D01*
X132923489Y-79980877D01*
X132768845Y-79950116D01*
X132768842Y-79950116D01*
X132611158Y-79950116D01*
X132611155Y-79950116D01*
X132456510Y-79980877D01*
X132456498Y-79980880D01*
X132320208Y-80037333D01*
X132311477Y-80039033D01*
X132306743Y-80042023D01*
X132271769Y-80046768D01*
X132177051Y-80046014D01*
X132110170Y-80025796D01*
X132090357Y-80009699D01*
X131990188Y-79909530D01*
X131878447Y-79841980D01*
X131844606Y-79821522D01*
X131682196Y-79770914D01*
X131682194Y-79770913D01*
X131682192Y-79770913D01*
X131632778Y-79766423D01*
X131611616Y-79764500D01*
X131098384Y-79764500D01*
X131079145Y-79766248D01*
X131027807Y-79770913D01*
X130865393Y-79821522D01*
X130719811Y-79909530D01*
X130719810Y-79909531D01*
X130617681Y-80011661D01*
X130556358Y-80045146D01*
X130486666Y-80040162D01*
X130442319Y-80011661D01*
X130340188Y-79909530D01*
X130228447Y-79841980D01*
X130194606Y-79821522D01*
X130032196Y-79770914D01*
X130032194Y-79770913D01*
X130032192Y-79770913D01*
X129982778Y-79766423D01*
X129961616Y-79764500D01*
X129448384Y-79764500D01*
X129429145Y-79766248D01*
X129377807Y-79770913D01*
X129215393Y-79821522D01*
X129069811Y-79909530D01*
X129069810Y-79909531D01*
X128976161Y-80003181D01*
X128914838Y-80036666D01*
X128888480Y-80039500D01*
X128356519Y-80039500D01*
X128289480Y-80019815D01*
X128268842Y-80003185D01*
X128195185Y-79929528D01*
X128049606Y-79841522D01*
X127887196Y-79790914D01*
X127887194Y-79790913D01*
X127887192Y-79790913D01*
X127837778Y-79786423D01*
X127816616Y-79784500D01*
X127303384Y-79784500D01*
X127284145Y-79786248D01*
X127232807Y-79790913D01*
X127070393Y-79841522D01*
X126924811Y-79929530D01*
X126924810Y-79929531D01*
X126822327Y-80032015D01*
X126761004Y-80065500D01*
X126691312Y-80060516D01*
X126646965Y-80032015D01*
X126544877Y-79929927D01*
X126399395Y-79841980D01*
X126399396Y-79841980D01*
X126237105Y-79791409D01*
X126237106Y-79791409D01*
X126166572Y-79785000D01*
X126160000Y-79785000D01*
X125660000Y-79785000D01*
X125659999Y-79784999D01*
X125653436Y-79785000D01*
X125653417Y-79785001D01*
X125582897Y-79791408D01*
X125582892Y-79791409D01*
X125420603Y-79841981D01*
X125275122Y-79929927D01*
X125154927Y-80050122D01*
X125066980Y-80195604D01*
X125016409Y-80357893D01*
X125010000Y-80428427D01*
X122911201Y-80428427D01*
X122910074Y-78534074D01*
X122929719Y-78467023D01*
X122982495Y-78421236D01*
X123034074Y-78410000D01*
X123149984Y-78410000D01*
X123150000Y-78410000D01*
X135075429Y-78340723D01*
X135142579Y-78360018D01*
G37*
%TD.AperFunction*%
%TD*%
%TA.AperFunction,Conductor*%
%TO.N,/Sensor Board/GND*%
G36*
X134167111Y-91538143D02*
G01*
X134223044Y-91580015D01*
X134247461Y-91645479D01*
X134245655Y-91674927D01*
X134245927Y-91674967D01*
X134225000Y-91820520D01*
X134225000Y-91866839D01*
X134222616Y-91891035D01*
X134216043Y-91924073D01*
X134208988Y-91947329D01*
X134196098Y-91978449D01*
X134184639Y-91999888D01*
X134165920Y-92027903D01*
X134150499Y-92046693D01*
X134126693Y-92070499D01*
X134107903Y-92085920D01*
X134079885Y-92104641D01*
X134058446Y-92116100D01*
X134027328Y-92128989D01*
X134004071Y-92136045D01*
X133987340Y-92139373D01*
X133971031Y-92142617D01*
X133946841Y-92145000D01*
X133913159Y-92145000D01*
X133888968Y-92142617D01*
X133855924Y-92136044D01*
X133832665Y-92128988D01*
X133745581Y-92092917D01*
X133745576Y-92092915D01*
X133650771Y-92064156D01*
X133650762Y-92064153D01*
X133650756Y-92064152D01*
X133627670Y-92059560D01*
X133603300Y-92054712D01*
X133528872Y-92047382D01*
X133504684Y-92045000D01*
X133175316Y-92045000D01*
X133153769Y-92047122D01*
X133076699Y-92054712D01*
X133034125Y-92063181D01*
X133029244Y-92064152D01*
X133029241Y-92064152D01*
X133029228Y-92064156D01*
X132934425Y-92092914D01*
X132847328Y-92128990D01*
X132824074Y-92136044D01*
X132824071Y-92136044D01*
X132791030Y-92142617D01*
X132766841Y-92145000D01*
X132733159Y-92145000D01*
X132708968Y-92142617D01*
X132675924Y-92136044D01*
X132652665Y-92128988D01*
X132565581Y-92092917D01*
X132565576Y-92092915D01*
X132470771Y-92064156D01*
X132470762Y-92064153D01*
X132470756Y-92064152D01*
X132447670Y-92059560D01*
X132423300Y-92054712D01*
X132348872Y-92047382D01*
X132324684Y-92045000D01*
X131965316Y-92045000D01*
X131943769Y-92047122D01*
X131866699Y-92054712D01*
X131824125Y-92063181D01*
X131819244Y-92064152D01*
X131819241Y-92064152D01*
X131819228Y-92064156D01*
X131724425Y-92092914D01*
X131637328Y-92128990D01*
X131614074Y-92136044D01*
X131614071Y-92136044D01*
X131581030Y-92142617D01*
X131556841Y-92145000D01*
X131523159Y-92145000D01*
X131498968Y-92142617D01*
X131465924Y-92136044D01*
X131442665Y-92128988D01*
X131355581Y-92092917D01*
X131355576Y-92092915D01*
X131260771Y-92064156D01*
X131260762Y-92064153D01*
X131260756Y-92064152D01*
X131237670Y-92059560D01*
X131213300Y-92054712D01*
X131138872Y-92047382D01*
X131114684Y-92045000D01*
X130705449Y-92045000D01*
X130705433Y-92045000D01*
X130678078Y-92045741D01*
X130664646Y-92046470D01*
X130637353Y-92048694D01*
X130497988Y-92084456D01*
X130494467Y-92085920D01*
X130483449Y-92090500D01*
X130435851Y-92100000D01*
X129774000Y-92100000D01*
X129706961Y-92080315D01*
X129661206Y-92027511D01*
X129650000Y-91976000D01*
X129650000Y-91724000D01*
X129669685Y-91656961D01*
X129722489Y-91611206D01*
X129774000Y-91600000D01*
X130436525Y-91600000D01*
X130488038Y-91611206D01*
X130495990Y-91614838D01*
X130563029Y-91634523D01*
X130563033Y-91634524D01*
X130705449Y-91655000D01*
X130705452Y-91655000D01*
X131114682Y-91655000D01*
X131114684Y-91655000D01*
X131213304Y-91645287D01*
X131260756Y-91635848D01*
X131355583Y-91607082D01*
X131355593Y-91607078D01*
X131442665Y-91571011D01*
X131465925Y-91563953D01*
X131498966Y-91557381D01*
X131523156Y-91555000D01*
X131556842Y-91555000D01*
X131581027Y-91557381D01*
X131614079Y-91563956D01*
X131637336Y-91571011D01*
X131724413Y-91607080D01*
X131724421Y-91607083D01*
X131738016Y-91611207D01*
X131819244Y-91635848D01*
X131866696Y-91645287D01*
X131965316Y-91655000D01*
X131965318Y-91655000D01*
X132324682Y-91655000D01*
X132324684Y-91655000D01*
X132423304Y-91645287D01*
X132470756Y-91635848D01*
X132565583Y-91607082D01*
X132565593Y-91607078D01*
X132652665Y-91571011D01*
X132675925Y-91563953D01*
X132708966Y-91557381D01*
X132733156Y-91555000D01*
X132766842Y-91555000D01*
X132791027Y-91557381D01*
X132824079Y-91563956D01*
X132847336Y-91571011D01*
X132934413Y-91607080D01*
X132934421Y-91607083D01*
X132948016Y-91611207D01*
X133029244Y-91635848D01*
X133076696Y-91645287D01*
X133175316Y-91655000D01*
X133175318Y-91655000D01*
X133504682Y-91655000D01*
X133504684Y-91655000D01*
X133603304Y-91645287D01*
X133650756Y-91635848D01*
X133745583Y-91607082D01*
X133745593Y-91607078D01*
X133832665Y-91571011D01*
X133855925Y-91563953D01*
X133888966Y-91557381D01*
X133913156Y-91555000D01*
X133959500Y-91555000D01*
X133977482Y-91554679D01*
X133977492Y-91554678D01*
X133977527Y-91554678D01*
X133986373Y-91554362D01*
X134004390Y-91553396D01*
X134016773Y-91550702D01*
X134097419Y-91533159D01*
X134167111Y-91538143D01*
G37*
%TD.AperFunction*%
%TA.AperFunction,Conductor*%
G36*
X154205059Y-82320185D02*
G01*
X154245407Y-82362500D01*
X154287120Y-82434749D01*
X154287132Y-82434767D01*
X154343151Y-82507771D01*
X154367459Y-82539449D01*
X154460551Y-82632541D01*
X154460555Y-82632544D01*
X154565232Y-82712867D01*
X154565236Y-82712869D01*
X154565243Y-82712875D01*
X154565250Y-82712879D01*
X154679248Y-82778696D01*
X154679249Y-82778697D01*
X154679252Y-82778698D01*
X154679257Y-82778701D01*
X154801171Y-82829200D01*
X154928338Y-82863275D01*
X155059174Y-82880500D01*
X155059181Y-82880500D01*
X155625000Y-82880500D01*
X155696940Y-82875355D01*
X155734259Y-82864396D01*
X155786841Y-82860636D01*
X155925000Y-82880500D01*
X156150500Y-82880500D01*
X156217539Y-82900185D01*
X156263294Y-82952989D01*
X156274500Y-83004500D01*
X156274500Y-85783480D01*
X156265855Y-85812920D01*
X156259332Y-85842907D01*
X156255577Y-85847922D01*
X156254815Y-85850519D01*
X156238181Y-85871161D01*
X156137681Y-85971661D01*
X156076358Y-86005146D01*
X156006666Y-86000162D01*
X155962319Y-85971661D01*
X155860188Y-85869530D01*
X155852436Y-85864844D01*
X155714606Y-85781522D01*
X155552196Y-85730914D01*
X155552194Y-85730913D01*
X155552192Y-85730913D01*
X155502778Y-85726423D01*
X155481616Y-85724500D01*
X154968384Y-85724500D01*
X154949145Y-85726248D01*
X154897807Y-85730913D01*
X154735393Y-85781522D01*
X154589811Y-85869530D01*
X154589810Y-85869531D01*
X154496161Y-85963181D01*
X154434838Y-85996666D01*
X154408480Y-85999500D01*
X152979305Y-85999500D01*
X152912266Y-85979815D01*
X152878987Y-85948386D01*
X152812981Y-85857536D01*
X152672464Y-85717019D01*
X152511694Y-85600213D01*
X152354667Y-85520203D01*
X152303872Y-85472229D01*
X152287077Y-85404408D01*
X152309614Y-85338273D01*
X152354669Y-85299234D01*
X152511422Y-85219364D01*
X152548716Y-85192268D01*
X151877448Y-84521000D01*
X151900160Y-84521000D01*
X151997061Y-84495036D01*
X152083940Y-84444876D01*
X152154876Y-84373940D01*
X152205036Y-84287061D01*
X152231000Y-84190160D01*
X152231000Y-84167447D01*
X152902268Y-84838715D01*
X152929362Y-84801425D01*
X153019542Y-84624437D01*
X153080924Y-84435523D01*
X153080924Y-84435520D01*
X153112000Y-84239321D01*
X153112000Y-84040678D01*
X153080924Y-83844479D01*
X153080924Y-83844476D01*
X153019542Y-83655562D01*
X152929358Y-83478567D01*
X152902268Y-83441283D01*
X152231000Y-84112551D01*
X152231000Y-84089840D01*
X152205036Y-83992939D01*
X152154876Y-83906060D01*
X152083940Y-83835124D01*
X151997061Y-83784964D01*
X151900160Y-83759000D01*
X151877447Y-83759000D01*
X152548716Y-83087731D01*
X152548715Y-83087730D01*
X152511432Y-83060641D01*
X152354668Y-82980765D01*
X152303872Y-82932790D01*
X152287077Y-82864969D01*
X152309615Y-82798834D01*
X152354667Y-82759796D01*
X152511694Y-82679787D01*
X152672464Y-82562981D01*
X152812981Y-82422464D01*
X152864457Y-82351613D01*
X152919786Y-82308949D01*
X152964774Y-82300500D01*
X154138020Y-82300500D01*
X154205059Y-82320185D01*
G37*
%TD.AperFunction*%
%TA.AperFunction,Conductor*%
G36*
X132731027Y-80457998D02*
G01*
X132753835Y-80462534D01*
X132764072Y-80464570D01*
X132776227Y-80468257D01*
X132780975Y-80469195D01*
X132784188Y-80470323D01*
X132881363Y-80510575D01*
X132949970Y-80533396D01*
X132964313Y-80534932D01*
X132997522Y-80543391D01*
X133118270Y-80559015D01*
X133412873Y-80561357D01*
X133447736Y-80561635D01*
X133447738Y-80561634D01*
X133447751Y-80561635D01*
X133548409Y-80552328D01*
X133596847Y-80542894D01*
X133596854Y-80542891D01*
X133596858Y-80542891D01*
X133693640Y-80513743D01*
X133693642Y-80513742D01*
X133693653Y-80513739D01*
X133772680Y-80481005D01*
X133795920Y-80473955D01*
X133828970Y-80467381D01*
X133853154Y-80465000D01*
X133886842Y-80465000D01*
X133911027Y-80467381D01*
X133944079Y-80473956D01*
X133967325Y-80481006D01*
X133998458Y-80493902D01*
X134019890Y-80505359D01*
X134047898Y-80524074D01*
X134066685Y-80539492D01*
X134090502Y-80563308D01*
X134105925Y-80582100D01*
X134124638Y-80610106D01*
X134136098Y-80631546D01*
X134148990Y-80662671D01*
X134156045Y-80685927D01*
X134162617Y-80718961D01*
X134165000Y-80743156D01*
X134165000Y-80776839D01*
X134162616Y-80801035D01*
X134156043Y-80834073D01*
X134148988Y-80857329D01*
X134136098Y-80888449D01*
X134124639Y-80909888D01*
X134105920Y-80937903D01*
X134090499Y-80956693D01*
X134066693Y-80980499D01*
X134047903Y-80995920D01*
X134019885Y-81014641D01*
X133998446Y-81026100D01*
X133967328Y-81038989D01*
X133944071Y-81046045D01*
X133927340Y-81049373D01*
X133911031Y-81052617D01*
X133886841Y-81055000D01*
X133853159Y-81055000D01*
X133828968Y-81052617D01*
X133795924Y-81046044D01*
X133772665Y-81038988D01*
X133678640Y-81000042D01*
X133644434Y-80988656D01*
X133610232Y-80977272D01*
X133610230Y-80977271D01*
X133610228Y-80977271D01*
X133604609Y-80976666D01*
X133587266Y-80973539D01*
X133562555Y-80967242D01*
X133562552Y-80967241D01*
X133562550Y-80967241D01*
X133441731Y-80951599D01*
X133112256Y-80948978D01*
X133112239Y-80948979D01*
X133011587Y-80958287D01*
X133011576Y-80958288D01*
X133011574Y-80958289D01*
X133011569Y-80958290D01*
X132963150Y-80967721D01*
X132963144Y-80967722D01*
X132963143Y-80967723D01*
X132886997Y-80990657D01*
X132866345Y-80996877D01*
X132866338Y-80996879D01*
X132787327Y-81029606D01*
X132764072Y-81036660D01*
X132764069Y-81036661D01*
X132731032Y-81043233D01*
X132706839Y-81045616D01*
X132673161Y-81045616D01*
X132648968Y-81043233D01*
X132615926Y-81036660D01*
X132592674Y-81029607D01*
X132498638Y-80990657D01*
X132498633Y-80990655D01*
X132498625Y-80990652D01*
X132458422Y-80977271D01*
X132430233Y-80967888D01*
X132430230Y-80967887D01*
X132430228Y-80967887D01*
X132426361Y-80967471D01*
X132424622Y-80967284D01*
X132407263Y-80964155D01*
X132382551Y-80957856D01*
X132261731Y-80942215D01*
X132170074Y-80941485D01*
X132113994Y-80944156D01*
X132086645Y-80946987D01*
X132031458Y-80955805D01*
X132030284Y-80956243D01*
X132027303Y-80957310D01*
X132019994Y-80959820D01*
X131992522Y-80965571D01*
X131956955Y-80981471D01*
X131951701Y-80983276D01*
X131940578Y-80983779D01*
X131911422Y-80990000D01*
X131479000Y-80990000D01*
X131411961Y-80970315D01*
X131366206Y-80917511D01*
X131355000Y-80866000D01*
X131355000Y-80614000D01*
X131374685Y-80546961D01*
X131427489Y-80501206D01*
X131479000Y-80490000D01*
X131894225Y-80490000D01*
X131897897Y-80490613D01*
X131899878Y-80490129D01*
X131910250Y-80492678D01*
X131934548Y-80496739D01*
X131940713Y-80498859D01*
X131963896Y-80509670D01*
X132030777Y-80529888D01*
X132030779Y-80529889D01*
X132173027Y-80551498D01*
X132267734Y-80552252D01*
X132267735Y-80552251D01*
X132267745Y-80552252D01*
X132339729Y-80547679D01*
X132374703Y-80542934D01*
X132445339Y-80528152D01*
X132460187Y-80521510D01*
X132467222Y-80518621D01*
X132471072Y-80517176D01*
X132513654Y-80504354D01*
X132594608Y-80470820D01*
X132596553Y-80470091D01*
X132598101Y-80469977D01*
X132615929Y-80464569D01*
X132648968Y-80457998D01*
X132673156Y-80455616D01*
X132706839Y-80455616D01*
X132731027Y-80457998D01*
G37*
%TD.AperFunction*%
%TA.AperFunction,Conductor*%
G36*
X138584680Y-50484783D02*
G01*
X138651703Y-50504516D01*
X138697420Y-50557353D01*
X138707313Y-50626519D01*
X138678242Y-50690053D01*
X138672270Y-50696464D01*
X138564700Y-50804034D01*
X138433017Y-50975646D01*
X138401609Y-51016579D01*
X138393089Y-51027682D01*
X138393083Y-51027690D01*
X138252140Y-51271809D01*
X138252135Y-51271820D01*
X138144259Y-51532256D01*
X138071295Y-51804560D01*
X138034500Y-52084041D01*
X138034500Y-52365958D01*
X138071295Y-52645439D01*
X138144259Y-52917743D01*
X138252135Y-53178179D01*
X138252140Y-53178190D01*
X138385966Y-53409982D01*
X138393088Y-53422317D01*
X138564700Y-53645965D01*
X138564704Y-53645970D01*
X138764029Y-53845295D01*
X138764033Y-53845298D01*
X138764035Y-53845300D01*
X138987683Y-54016912D01*
X138987690Y-54016916D01*
X139231809Y-54157859D01*
X139231814Y-54157861D01*
X139231817Y-54157863D01*
X139492261Y-54265742D01*
X139764558Y-54338704D01*
X140044049Y-54375500D01*
X140044056Y-54375500D01*
X140325944Y-54375500D01*
X140325951Y-54375500D01*
X140605442Y-54338704D01*
X140877739Y-54265742D01*
X141138183Y-54157863D01*
X141382317Y-54016912D01*
X141605965Y-53845300D01*
X141805300Y-53645965D01*
X141976912Y-53422317D01*
X142117863Y-53178183D01*
X142225742Y-52917739D01*
X142298704Y-52645442D01*
X142335500Y-52365951D01*
X142335500Y-52084049D01*
X142298704Y-51804558D01*
X142225742Y-51532261D01*
X142117863Y-51271817D01*
X142117861Y-51271814D01*
X142117859Y-51271809D01*
X141976916Y-51027690D01*
X141976912Y-51027683D01*
X141805300Y-50804035D01*
X141805298Y-50804033D01*
X141805295Y-50804029D01*
X141700044Y-50698778D01*
X141666559Y-50637455D01*
X141671543Y-50567763D01*
X141713415Y-50511830D01*
X141778879Y-50487413D01*
X141787810Y-50487097D01*
X146433928Y-50490451D01*
X146434108Y-50490500D01*
X146500435Y-50490500D01*
X146565531Y-50490547D01*
X146565532Y-50490546D01*
X146573161Y-50490552D01*
X146573970Y-50490500D01*
X151078872Y-50490500D01*
X151145911Y-50510185D01*
X151191666Y-50562989D01*
X151201610Y-50632147D01*
X151172585Y-50695703D01*
X151166553Y-50702181D01*
X151064704Y-50804029D01*
X151006011Y-50880519D01*
X150896422Y-51023339D01*
X150893089Y-51027682D01*
X150893083Y-51027690D01*
X150752140Y-51271809D01*
X150752135Y-51271820D01*
X150644259Y-51532256D01*
X150571295Y-51804560D01*
X150534500Y-52084041D01*
X150534500Y-52365958D01*
X150571295Y-52645439D01*
X150644259Y-52917743D01*
X150752135Y-53178179D01*
X150752140Y-53178190D01*
X150885966Y-53409982D01*
X150893088Y-53422317D01*
X151064700Y-53645965D01*
X151064704Y-53645970D01*
X151264029Y-53845295D01*
X151264033Y-53845298D01*
X151264035Y-53845300D01*
X151487683Y-54016912D01*
X151487690Y-54016916D01*
X151731809Y-54157859D01*
X151731814Y-54157861D01*
X151731817Y-54157863D01*
X151992261Y-54265742D01*
X152264558Y-54338704D01*
X152544049Y-54375500D01*
X152544056Y-54375500D01*
X152825944Y-54375500D01*
X152825951Y-54375500D01*
X153105442Y-54338704D01*
X153377739Y-54265742D01*
X153638183Y-54157863D01*
X153882317Y-54016912D01*
X154105965Y-53845300D01*
X154305300Y-53645965D01*
X154382177Y-53545778D01*
X158149500Y-53545778D01*
X158149500Y-53834221D01*
X158149501Y-53834238D01*
X158187149Y-54120206D01*
X158187150Y-54120211D01*
X158187151Y-54120217D01*
X158259130Y-54388845D01*
X158261809Y-54398844D01*
X158261814Y-54398860D01*
X158372191Y-54665336D01*
X158372199Y-54665352D01*
X158516420Y-54915148D01*
X158516431Y-54915164D01*
X158692024Y-55144002D01*
X158692030Y-55144009D01*
X158895990Y-55347969D01*
X158895996Y-55347974D01*
X159124844Y-55523575D01*
X159124851Y-55523579D01*
X159374647Y-55667800D01*
X159374663Y-55667808D01*
X159641139Y-55778185D01*
X159641145Y-55778186D01*
X159641155Y-55778191D01*
X159919783Y-55852849D01*
X160205772Y-55890500D01*
X160205779Y-55890500D01*
X160494221Y-55890500D01*
X160494228Y-55890500D01*
X160780217Y-55852849D01*
X161058845Y-55778191D01*
X161058857Y-55778185D01*
X161058860Y-55778185D01*
X161325336Y-55667808D01*
X161325339Y-55667806D01*
X161325345Y-55667804D01*
X161575156Y-55523575D01*
X161804004Y-55347974D01*
X162007974Y-55144004D01*
X162183575Y-54915156D01*
X162327804Y-54665345D01*
X162438191Y-54398845D01*
X162512849Y-54120217D01*
X162550500Y-53834228D01*
X162550500Y-53545772D01*
X162512849Y-53259783D01*
X162438191Y-52981155D01*
X162438186Y-52981145D01*
X162438185Y-52981139D01*
X162327808Y-52714663D01*
X162327800Y-52714647D01*
X162183579Y-52464851D01*
X162183575Y-52464844D01*
X162107692Y-52365951D01*
X162007975Y-52235997D01*
X162007969Y-52235990D01*
X161804009Y-52032030D01*
X161804002Y-52032024D01*
X161575164Y-51856431D01*
X161575162Y-51856429D01*
X161575156Y-51856425D01*
X161575151Y-51856422D01*
X161575148Y-51856420D01*
X161325352Y-51712199D01*
X161325336Y-51712191D01*
X161058860Y-51601814D01*
X161058848Y-51601810D01*
X161058845Y-51601809D01*
X160780217Y-51527151D01*
X160780211Y-51527150D01*
X160780206Y-51527149D01*
X160494238Y-51489501D01*
X160494233Y-51489500D01*
X160494228Y-51489500D01*
X160205772Y-51489500D01*
X160205766Y-51489500D01*
X160205761Y-51489501D01*
X159919793Y-51527149D01*
X159919786Y-51527150D01*
X159919783Y-51527151D01*
X159678476Y-51591809D01*
X159641155Y-51601809D01*
X159641139Y-51601814D01*
X159374663Y-51712191D01*
X159374647Y-51712199D01*
X159124851Y-51856420D01*
X159124835Y-51856431D01*
X158895997Y-52032024D01*
X158895990Y-52032030D01*
X158692030Y-52235990D01*
X158692024Y-52235997D01*
X158516431Y-52464835D01*
X158516420Y-52464851D01*
X158372199Y-52714647D01*
X158372191Y-52714663D01*
X158261814Y-52981139D01*
X158261809Y-52981155D01*
X158189831Y-53249783D01*
X158187152Y-53259780D01*
X158187149Y-53259793D01*
X158149501Y-53545761D01*
X158149500Y-53545778D01*
X154382177Y-53545778D01*
X154476912Y-53422317D01*
X154617863Y-53178183D01*
X154725742Y-52917739D01*
X154798704Y-52645442D01*
X154835500Y-52365951D01*
X154835500Y-52084049D01*
X154798704Y-51804558D01*
X154725742Y-51532261D01*
X154617863Y-51271817D01*
X154617861Y-51271814D01*
X154617859Y-51271809D01*
X154476916Y-51027690D01*
X154476912Y-51027683D01*
X154305300Y-50804035D01*
X154305298Y-50804033D01*
X154305295Y-50804029D01*
X154203447Y-50702181D01*
X154169962Y-50640858D01*
X154174946Y-50571166D01*
X154216818Y-50515233D01*
X154282282Y-50490816D01*
X154291128Y-50490500D01*
X160284108Y-50490500D01*
X160346949Y-50490500D01*
X160353033Y-50490649D01*
X160360030Y-50490992D01*
X160657524Y-50505607D01*
X160669632Y-50506799D01*
X160818898Y-50528941D01*
X160968164Y-50551083D01*
X160980098Y-50553457D01*
X161086532Y-50580117D01*
X161272875Y-50626793D01*
X161284492Y-50630318D01*
X161568658Y-50731994D01*
X161579887Y-50736644D01*
X161852735Y-50865692D01*
X161863460Y-50871425D01*
X162105634Y-51016579D01*
X162122317Y-51026578D01*
X162132435Y-51033338D01*
X162374852Y-51213127D01*
X162384258Y-51220847D01*
X162555625Y-51376165D01*
X162580018Y-51406530D01*
X182038107Y-85465490D01*
X182038108Y-85465491D01*
X182038107Y-85465491D01*
X182039388Y-85466783D01*
X182059896Y-85494191D01*
X182138084Y-85635997D01*
X182156888Y-85670101D01*
X182161910Y-85680287D01*
X182274768Y-85938343D01*
X182278837Y-85948945D01*
X182367612Y-86216238D01*
X182370695Y-86227168D01*
X182434648Y-86501483D01*
X182436717Y-86512650D01*
X182475301Y-86791649D01*
X182476340Y-86802957D01*
X182489370Y-87087190D01*
X182489500Y-87092732D01*
X182489500Y-87155892D01*
X182489569Y-87156155D01*
X182489579Y-87164408D01*
X182489579Y-87164410D01*
X182499496Y-96286687D01*
X182499326Y-96293312D01*
X182482312Y-96617952D01*
X182480955Y-96630860D01*
X182430600Y-96948788D01*
X182427902Y-96961484D01*
X182344585Y-97272427D01*
X182340574Y-97284770D01*
X182225219Y-97585282D01*
X182219940Y-97597140D01*
X182073796Y-97883964D01*
X182067306Y-97895204D01*
X181891991Y-98165165D01*
X181884362Y-98175666D01*
X181681778Y-98425836D01*
X181673093Y-98435481D01*
X181445481Y-98663093D01*
X181435836Y-98671778D01*
X181185666Y-98874362D01*
X181175165Y-98881991D01*
X180905204Y-99057306D01*
X180893964Y-99063796D01*
X180607140Y-99209940D01*
X180595282Y-99215219D01*
X180294770Y-99330574D01*
X180282427Y-99334585D01*
X179971484Y-99417902D01*
X179958788Y-99420600D01*
X179640860Y-99470955D01*
X179627952Y-99472312D01*
X179303244Y-99489330D01*
X179296773Y-99489500D01*
X179234108Y-99489500D01*
X179234070Y-99489509D01*
X179226052Y-99489511D01*
X113713252Y-99499498D01*
X113706744Y-99499328D01*
X113382048Y-99482312D01*
X113369139Y-99480955D01*
X113051211Y-99430600D01*
X113038515Y-99427902D01*
X112727572Y-99344585D01*
X112715229Y-99340574D01*
X112414717Y-99225219D01*
X112402859Y-99219940D01*
X112263107Y-99148733D01*
X112116029Y-99073792D01*
X112104802Y-99067310D01*
X111838103Y-98894114D01*
X111834834Y-98891991D01*
X111824333Y-98884362D01*
X111574163Y-98681778D01*
X111564518Y-98673093D01*
X111336906Y-98445481D01*
X111328221Y-98435836D01*
X111125637Y-98185666D01*
X111118008Y-98175165D01*
X111068662Y-98099179D01*
X110942686Y-97905192D01*
X110936210Y-97893976D01*
X110790058Y-97607138D01*
X110784780Y-97595282D01*
X110780941Y-97585282D01*
X110669424Y-97294769D01*
X110665414Y-97282427D01*
X110582095Y-96971478D01*
X110579399Y-96958788D01*
X110578563Y-96953512D01*
X110529044Y-96640860D01*
X110527687Y-96627951D01*
X110515562Y-96396585D01*
X110515404Y-96393568D01*
X116991500Y-96393568D01*
X116991500Y-96674431D01*
X117022942Y-96953494D01*
X117022945Y-96953512D01*
X117085439Y-97227317D01*
X117085443Y-97227329D01*
X117178200Y-97492411D01*
X117300053Y-97745442D01*
X117300055Y-97745445D01*
X117449477Y-97983248D01*
X117541929Y-98099179D01*
X117598900Y-98170619D01*
X117624584Y-98202825D01*
X117823175Y-98401416D01*
X118042752Y-98576523D01*
X118280555Y-98725945D01*
X118533592Y-98847801D01*
X118732680Y-98917465D01*
X118798670Y-98940556D01*
X118798682Y-98940560D01*
X119072491Y-99003055D01*
X119072497Y-99003055D01*
X119072505Y-99003057D01*
X119258547Y-99024018D01*
X119351569Y-99034499D01*
X119351572Y-99034500D01*
X119351575Y-99034500D01*
X119632428Y-99034500D01*
X119632429Y-99034499D01*
X119775055Y-99018429D01*
X119911494Y-99003057D01*
X119911499Y-99003056D01*
X119911509Y-99003055D01*
X120185318Y-98940560D01*
X120450408Y-98847801D01*
X120703445Y-98725945D01*
X120941248Y-98576523D01*
X121160825Y-98401416D01*
X121359416Y-98202825D01*
X121534523Y-97983248D01*
X121683945Y-97745445D01*
X121805801Y-97492408D01*
X121898560Y-97227318D01*
X121961055Y-96953509D01*
X121992500Y-96674425D01*
X121992500Y-96393575D01*
X121973406Y-96224108D01*
X121961057Y-96114505D01*
X121961054Y-96114487D01*
X121941956Y-96030815D01*
X121898560Y-95840682D01*
X121805801Y-95575592D01*
X121683945Y-95322555D01*
X121534523Y-95084752D01*
X121359416Y-94865175D01*
X121160825Y-94666584D01*
X121159676Y-94665668D01*
X121021244Y-94555272D01*
X120941248Y-94491477D01*
X120703445Y-94342055D01*
X120703442Y-94342053D01*
X120450411Y-94220200D01*
X120185329Y-94127443D01*
X120185317Y-94127439D01*
X119911512Y-94064945D01*
X119911494Y-94064942D01*
X119632431Y-94033500D01*
X119632425Y-94033500D01*
X119351575Y-94033500D01*
X119351568Y-94033500D01*
X119072505Y-94064942D01*
X119072487Y-94064945D01*
X118798682Y-94127439D01*
X118798670Y-94127443D01*
X118533588Y-94220200D01*
X118280557Y-94342053D01*
X118042753Y-94491476D01*
X117823175Y-94666583D01*
X117624583Y-94865175D01*
X117449476Y-95084753D01*
X117300053Y-95322557D01*
X117178200Y-95575588D01*
X117085443Y-95840670D01*
X117085439Y-95840682D01*
X117022945Y-96114487D01*
X117022942Y-96114505D01*
X116991500Y-96393568D01*
X110515404Y-96393568D01*
X110510670Y-96303243D01*
X110510500Y-96296753D01*
X110510500Y-87102741D01*
X110510621Y-87097263D01*
X110514471Y-87010188D01*
X110516877Y-86955778D01*
X111519500Y-86955778D01*
X111519500Y-87244221D01*
X111519501Y-87244238D01*
X111557149Y-87530206D01*
X111557150Y-87530211D01*
X111557151Y-87530217D01*
X111629130Y-87798845D01*
X111631809Y-87808844D01*
X111631814Y-87808860D01*
X111742191Y-88075336D01*
X111742199Y-88075352D01*
X111886420Y-88325148D01*
X111886431Y-88325164D01*
X112062024Y-88554002D01*
X112062030Y-88554009D01*
X112265990Y-88757969D01*
X112265996Y-88757974D01*
X112494844Y-88933575D01*
X112494851Y-88933579D01*
X112744647Y-89077800D01*
X112744663Y-89077808D01*
X113011139Y-89188185D01*
X113011145Y-89188186D01*
X113011155Y-89188191D01*
X113289783Y-89262849D01*
X113575772Y-89300500D01*
X113575779Y-89300500D01*
X113864221Y-89300500D01*
X113864228Y-89300500D01*
X114150217Y-89262849D01*
X114428845Y-89188191D01*
X114428857Y-89188185D01*
X114428860Y-89188185D01*
X114695336Y-89077808D01*
X114695339Y-89077806D01*
X114695345Y-89077804D01*
X114945156Y-88933575D01*
X115174004Y-88757974D01*
X115377974Y-88554004D01*
X115553575Y-88325156D01*
X115697804Y-88075345D01*
X115728535Y-88001155D01*
X115808185Y-87808860D01*
X115808185Y-87808857D01*
X115808191Y-87808845D01*
X115882849Y-87530217D01*
X115920500Y-87244228D01*
X115920500Y-86955772D01*
X115882849Y-86669783D01*
X115808191Y-86391155D01*
X115808186Y-86391145D01*
X115808185Y-86391139D01*
X115697808Y-86124663D01*
X115697800Y-86124647D01*
X115553579Y-85874851D01*
X115553575Y-85874844D01*
X115481967Y-85781522D01*
X115377975Y-85645997D01*
X115377969Y-85645990D01*
X115174009Y-85442030D01*
X115174002Y-85442024D01*
X114945164Y-85266431D01*
X114945162Y-85266429D01*
X114945156Y-85266425D01*
X114945151Y-85266422D01*
X114945148Y-85266420D01*
X114695352Y-85122199D01*
X114695336Y-85122191D01*
X114428860Y-85011814D01*
X114428848Y-85011810D01*
X114428845Y-85011809D01*
X114150217Y-84937151D01*
X114150211Y-84937150D01*
X114150206Y-84937149D01*
X113864238Y-84899501D01*
X113864233Y-84899500D01*
X113864228Y-84899500D01*
X113575772Y-84899500D01*
X113575766Y-84899500D01*
X113575761Y-84899501D01*
X113289793Y-84937149D01*
X113289786Y-84937150D01*
X113289783Y-84937151D01*
X113048476Y-85001809D01*
X113011155Y-85011809D01*
X113011139Y-85011814D01*
X112744663Y-85122191D01*
X112744647Y-85122199D01*
X112494851Y-85266420D01*
X112494835Y-85266431D01*
X112265997Y-85442024D01*
X112265990Y-85442030D01*
X112062030Y-85645990D01*
X112062024Y-85645997D01*
X111886431Y-85874835D01*
X111886420Y-85874851D01*
X111742199Y-86124647D01*
X111742191Y-86124663D01*
X111631814Y-86391139D01*
X111631809Y-86391155D01*
X111559831Y-86659783D01*
X111557152Y-86669780D01*
X111557149Y-86669793D01*
X111519501Y-86955761D01*
X111519500Y-86955778D01*
X110516877Y-86955778D01*
X110522785Y-86822166D01*
X110523749Y-86811286D01*
X110559790Y-86541029D01*
X110561710Y-86530282D01*
X110621461Y-86264280D01*
X110624325Y-86253732D01*
X110707324Y-85994037D01*
X110711115Y-85983767D01*
X110816707Y-85732422D01*
X110821372Y-85722562D01*
X110948752Y-85481494D01*
X110954277Y-85472072D01*
X111073601Y-85287735D01*
X111089565Y-85267889D01*
X111102067Y-85255260D01*
X111136441Y-85195012D01*
X111143616Y-85184934D01*
X111146303Y-85177727D01*
X114021948Y-80137568D01*
X116991500Y-80137568D01*
X116991500Y-80418431D01*
X117022942Y-80697494D01*
X117022945Y-80697512D01*
X117085439Y-80971317D01*
X117085443Y-80971329D01*
X117178200Y-81236411D01*
X117300053Y-81489442D01*
X117344752Y-81560580D01*
X117449477Y-81727248D01*
X117624584Y-81946825D01*
X117823175Y-82145416D01*
X118042752Y-82320523D01*
X118280555Y-82469945D01*
X118533592Y-82591801D01*
X118732680Y-82661465D01*
X118798670Y-82684556D01*
X118798682Y-82684560D01*
X119072491Y-82747055D01*
X119072497Y-82747055D01*
X119072505Y-82747057D01*
X119258547Y-82768018D01*
X119351569Y-82778499D01*
X119351572Y-82778500D01*
X119351575Y-82778500D01*
X119632428Y-82778500D01*
X119632429Y-82778499D01*
X119798438Y-82759795D01*
X119911494Y-82747057D01*
X119911499Y-82747056D01*
X119911509Y-82747055D01*
X120185318Y-82684560D01*
X120450408Y-82591801D01*
X120703445Y-82469945D01*
X120941248Y-82320523D01*
X121160825Y-82145416D01*
X121359416Y-81946825D01*
X121534523Y-81727248D01*
X121683945Y-81489445D01*
X121805801Y-81236408D01*
X121898560Y-80971318D01*
X121961055Y-80697509D01*
X121963527Y-80675575D01*
X121978471Y-80542934D01*
X121992500Y-80418425D01*
X121992500Y-80137575D01*
X121969516Y-79933581D01*
X121961057Y-79858505D01*
X121961054Y-79858487D01*
X121940923Y-79770289D01*
X121898560Y-79584682D01*
X121805801Y-79319592D01*
X121683945Y-79066555D01*
X121534523Y-78828752D01*
X121359416Y-78609175D01*
X121284616Y-78534375D01*
X122404574Y-78534375D01*
X122404576Y-78538546D01*
X122404576Y-78538550D01*
X122405583Y-80230005D01*
X122405701Y-80428728D01*
X122405782Y-80565460D01*
X122406096Y-81091883D01*
X122407948Y-84204800D01*
X122407961Y-84226921D01*
X122408359Y-84895511D01*
X122409668Y-87098076D01*
X122409682Y-87120801D01*
X122409682Y-87120803D01*
X122412183Y-91325314D01*
X122412808Y-92375287D01*
X122414426Y-95096167D01*
X122414426Y-95096183D01*
X122426099Y-95203882D01*
X122426100Y-95203885D01*
X122437388Y-95255493D01*
X122437390Y-95255501D01*
X122471736Y-95358226D01*
X122471735Y-95358226D01*
X122471737Y-95358230D01*
X122471738Y-95358231D01*
X122549722Y-95479145D01*
X122595161Y-95531413D01*
X122595564Y-95531876D01*
X122704452Y-95625918D01*
X122704453Y-95625919D01*
X122754123Y-95648505D01*
X122835427Y-95685476D01*
X122901444Y-95704744D01*
X122902441Y-95705045D01*
X123042176Y-95724902D01*
X123044950Y-95725297D01*
X135096876Y-95705700D01*
X135105753Y-95704732D01*
X135204198Y-95693997D01*
X135204200Y-95693996D01*
X135204205Y-95693996D01*
X135255648Y-95682729D01*
X135358031Y-95648505D01*
X135478979Y-95570575D01*
X135528388Y-95527659D01*
X135530107Y-95526271D01*
X135531729Y-95524758D01*
X135531733Y-95524755D01*
X135611069Y-95432976D01*
X135625826Y-95415905D01*
X135685434Y-95284969D01*
X135685436Y-95284964D01*
X135685436Y-95284962D01*
X135685439Y-95284957D01*
X135705044Y-95217894D01*
X135725352Y-95075454D01*
X135722667Y-92812830D01*
X135742272Y-92745770D01*
X135795022Y-92699953D01*
X135864168Y-92689927D01*
X135927758Y-92718877D01*
X135934348Y-92725005D01*
X137065451Y-93856109D01*
X137065454Y-93856112D01*
X137160438Y-93919578D01*
X137160437Y-93919578D01*
X137175267Y-93929486D01*
X137180189Y-93932775D01*
X137180191Y-93932775D01*
X137180193Y-93932777D01*
X137307667Y-93985578D01*
X137307672Y-93985580D01*
X137307676Y-93985580D01*
X137307677Y-93985581D01*
X137443004Y-94012500D01*
X137443007Y-94012500D01*
X144075603Y-94012500D01*
X144142642Y-94032185D01*
X144188397Y-94084989D01*
X144198341Y-94154147D01*
X144169316Y-94217703D01*
X144129405Y-94248220D01*
X143934557Y-94342053D01*
X143696753Y-94491476D01*
X143477175Y-94666583D01*
X143278583Y-94865175D01*
X143103476Y-95084753D01*
X142954053Y-95322557D01*
X142832200Y-95575588D01*
X142739443Y-95840670D01*
X142739439Y-95840682D01*
X142676945Y-96114487D01*
X142676942Y-96114505D01*
X142645500Y-96393568D01*
X142645500Y-96674431D01*
X142676942Y-96953494D01*
X142676945Y-96953512D01*
X142739439Y-97227317D01*
X142739443Y-97227329D01*
X142832200Y-97492411D01*
X142954053Y-97745442D01*
X142954055Y-97745445D01*
X143103477Y-97983248D01*
X143195929Y-98099179D01*
X143252900Y-98170619D01*
X143278584Y-98202825D01*
X143477175Y-98401416D01*
X143696752Y-98576523D01*
X143934555Y-98725945D01*
X144187592Y-98847801D01*
X144386680Y-98917465D01*
X144452670Y-98940556D01*
X144452682Y-98940560D01*
X144726491Y-99003055D01*
X144726497Y-99003055D01*
X144726505Y-99003057D01*
X144912547Y-99024018D01*
X145005569Y-99034499D01*
X145005572Y-99034500D01*
X145005575Y-99034500D01*
X145286428Y-99034500D01*
X145286429Y-99034499D01*
X145429055Y-99018429D01*
X145565494Y-99003057D01*
X145565499Y-99003056D01*
X145565509Y-99003055D01*
X145839318Y-98940560D01*
X146104408Y-98847801D01*
X146357445Y-98725945D01*
X146595248Y-98576523D01*
X146814825Y-98401416D01*
X147013416Y-98202825D01*
X147188523Y-97983248D01*
X147319854Y-97774235D01*
X147372188Y-97727946D01*
X147441241Y-97717298D01*
X147505090Y-97745673D01*
X147539408Y-97792756D01*
X147574223Y-97876809D01*
X147650887Y-97991545D01*
X148553454Y-98894112D01*
X148668192Y-98970777D01*
X148795667Y-99023578D01*
X148795672Y-99023580D01*
X148795676Y-99023580D01*
X148795677Y-99023581D01*
X148931003Y-99050500D01*
X148931006Y-99050500D01*
X166128996Y-99050500D01*
X166220040Y-99032389D01*
X166264328Y-99023580D01*
X166328069Y-98997177D01*
X166391807Y-98970777D01*
X166391808Y-98970776D01*
X166391811Y-98970775D01*
X166506543Y-98894114D01*
X166884588Y-98516067D01*
X166924810Y-98489192D01*
X166979435Y-98466566D01*
X167069173Y-98429397D01*
X167069176Y-98429395D01*
X167069179Y-98429394D01*
X167200289Y-98341789D01*
X167311789Y-98230289D01*
X167399394Y-98099179D01*
X167459737Y-97953497D01*
X167490500Y-97798842D01*
X167490500Y-97641158D01*
X167490500Y-97641155D01*
X167490499Y-97641153D01*
X167467476Y-97525410D01*
X167459737Y-97486503D01*
X167459190Y-97485183D01*
X167399397Y-97340827D01*
X167399390Y-97340814D01*
X167311789Y-97209711D01*
X167311786Y-97209707D01*
X167200292Y-97098213D01*
X167200288Y-97098210D01*
X167069185Y-97010609D01*
X167069172Y-97010602D01*
X166923501Y-96950264D01*
X166923489Y-96950261D01*
X166768845Y-96919500D01*
X166768842Y-96919500D01*
X166611158Y-96919500D01*
X166611155Y-96919500D01*
X166456510Y-96950261D01*
X166456498Y-96950264D01*
X166310827Y-97010602D01*
X166310814Y-97010609D01*
X166179711Y-97098210D01*
X166179707Y-97098213D01*
X166068213Y-97209707D01*
X166068210Y-97209711D01*
X165980609Y-97340814D01*
X165980604Y-97340824D01*
X165920809Y-97485183D01*
X165916177Y-97492114D01*
X165915081Y-97497156D01*
X165893930Y-97525410D01*
X165806162Y-97613180D01*
X165744839Y-97646666D01*
X165718480Y-97649500D01*
X159403316Y-97649500D01*
X159336277Y-97629815D01*
X159290522Y-97577011D01*
X159280578Y-97507853D01*
X159288755Y-97478047D01*
X159298580Y-97454328D01*
X159325500Y-97318993D01*
X159325500Y-97148040D01*
X159345185Y-97081001D01*
X159380610Y-97044937D01*
X159400289Y-97031789D01*
X159511789Y-96920289D01*
X159599394Y-96789179D01*
X159659737Y-96643497D01*
X159690500Y-96488842D01*
X159690500Y-96331158D01*
X159690500Y-96331155D01*
X159690499Y-96331153D01*
X159667476Y-96215410D01*
X159659737Y-96176503D01*
X159634051Y-96114491D01*
X159599397Y-96030827D01*
X159599395Y-96030823D01*
X159599394Y-96030821D01*
X159511789Y-95899711D01*
X159511786Y-95899707D01*
X159400292Y-95788213D01*
X159400288Y-95788210D01*
X159269185Y-95700609D01*
X159269172Y-95700602D01*
X159123501Y-95640264D01*
X159123491Y-95640261D01*
X159014995Y-95618680D01*
X159014994Y-95618679D01*
X158968845Y-95609500D01*
X158968842Y-95609500D01*
X158811158Y-95609500D01*
X158811155Y-95609500D01*
X158656510Y-95640261D01*
X158656498Y-95640264D01*
X158510827Y-95700602D01*
X158510814Y-95700609D01*
X158379711Y-95788210D01*
X158379707Y-95788213D01*
X158268213Y-95899707D01*
X158268210Y-95899711D01*
X158180609Y-96030814D01*
X158180604Y-96030823D01*
X158120809Y-96175184D01*
X158093932Y-96215410D01*
X158080887Y-96228455D01*
X158004223Y-96343191D01*
X157951421Y-96470667D01*
X157951418Y-96470679D01*
X157926144Y-96597743D01*
X157926143Y-96597749D01*
X157924500Y-96606006D01*
X157924500Y-96907481D01*
X157915855Y-96936921D01*
X157909332Y-96966908D01*
X157905577Y-96971923D01*
X157904815Y-96974520D01*
X157888181Y-96995162D01*
X157871162Y-97012181D01*
X157809839Y-97045666D01*
X157783481Y-97048500D01*
X149624500Y-97048500D01*
X149557461Y-97028815D01*
X149511706Y-96976011D01*
X149500500Y-96924500D01*
X149500500Y-95841062D01*
X149473581Y-95705735D01*
X149473580Y-95705734D01*
X149473580Y-95705730D01*
X149420775Y-95578247D01*
X149418998Y-95575588D01*
X149408175Y-95559389D01*
X149344114Y-95463514D01*
X149344111Y-95463511D01*
X147115703Y-93235104D01*
X147082218Y-93173781D01*
X147087202Y-93104089D01*
X147115703Y-93059742D01*
X147152945Y-93022500D01*
X147202981Y-92972464D01*
X147319787Y-92811694D01*
X147410005Y-92634632D01*
X147471413Y-92445636D01*
X147502500Y-92249361D01*
X147502500Y-92050639D01*
X147471413Y-91854364D01*
X147410005Y-91665368D01*
X147410005Y-91665367D01*
X147354983Y-91557382D01*
X147319787Y-91488306D01*
X147202981Y-91327536D01*
X147062464Y-91187019D01*
X146901694Y-91070213D01*
X146744667Y-90990203D01*
X146693872Y-90942229D01*
X146677077Y-90874408D01*
X146699614Y-90808273D01*
X146744669Y-90769234D01*
X146901422Y-90689364D01*
X146938716Y-90662268D01*
X146267448Y-89991000D01*
X146290160Y-89991000D01*
X146387061Y-89965036D01*
X146473940Y-89914876D01*
X146544876Y-89843940D01*
X146595036Y-89757061D01*
X146621000Y-89660160D01*
X146621000Y-89637447D01*
X147292268Y-90308715D01*
X147319362Y-90271425D01*
X147409542Y-90094437D01*
X147470924Y-89905523D01*
X147470924Y-89905520D01*
X147502000Y-89709321D01*
X147502000Y-89510678D01*
X147470924Y-89314479D01*
X147470924Y-89314476D01*
X147409542Y-89125562D01*
X147319358Y-88948567D01*
X147292268Y-88911283D01*
X146621000Y-89582551D01*
X146621000Y-89559840D01*
X146595036Y-89462939D01*
X146544876Y-89376060D01*
X146473940Y-89305124D01*
X146387061Y-89254964D01*
X146290160Y-89229000D01*
X146267447Y-89229000D01*
X146938716Y-88557731D01*
X146938715Y-88557730D01*
X146901432Y-88530641D01*
X146744668Y-88450765D01*
X146693872Y-88402790D01*
X146677077Y-88334969D01*
X146699615Y-88268834D01*
X146744667Y-88229796D01*
X146901694Y-88149787D01*
X147062464Y-88032981D01*
X147202981Y-87892464D01*
X147319787Y-87731694D01*
X147410005Y-87554632D01*
X147471413Y-87365636D01*
X147502500Y-87169361D01*
X147502500Y-86970639D01*
X147471413Y-86774364D01*
X147434183Y-86659780D01*
X147410006Y-86585370D01*
X147410005Y-86585367D01*
X147347789Y-86463263D01*
X147319787Y-86408306D01*
X147202981Y-86247536D01*
X147062464Y-86107019D01*
X146901694Y-85990213D01*
X146745218Y-85910484D01*
X146694423Y-85862510D01*
X146677628Y-85794689D01*
X146700165Y-85728554D01*
X146745218Y-85689515D01*
X146901694Y-85609787D01*
X147062464Y-85492981D01*
X147202981Y-85352464D01*
X147319787Y-85191694D01*
X147410005Y-85014632D01*
X147471413Y-84825636D01*
X147502500Y-84629361D01*
X147502500Y-84430639D01*
X147471413Y-84234364D01*
X147424455Y-84089840D01*
X147419349Y-84074124D01*
X147414629Y-84059601D01*
X147410005Y-84045368D01*
X147410004Y-84045367D01*
X147410005Y-84045367D01*
X147348586Y-83924827D01*
X147319787Y-83868306D01*
X147202981Y-83707536D01*
X147062464Y-83567019D01*
X146901694Y-83450213D01*
X146884166Y-83441282D01*
X146724632Y-83359994D01*
X146724629Y-83359993D01*
X146535637Y-83298587D01*
X146437498Y-83283043D01*
X146339361Y-83267500D01*
X146140639Y-83267500D01*
X146075214Y-83277862D01*
X145944362Y-83298587D01*
X145755370Y-83359993D01*
X145755367Y-83359994D01*
X145578305Y-83450213D01*
X145417533Y-83567021D01*
X145277017Y-83707537D01*
X145277013Y-83707542D01*
X145232809Y-83768385D01*
X145177480Y-83811051D01*
X145132491Y-83819500D01*
X143331520Y-83819500D01*
X143264481Y-83799815D01*
X143243839Y-83783181D01*
X143150188Y-83689530D01*
X143093998Y-83655562D01*
X143004606Y-83601522D01*
X142842196Y-83550914D01*
X142842194Y-83550913D01*
X142842192Y-83550913D01*
X142792778Y-83546423D01*
X142771616Y-83544500D01*
X142258384Y-83544500D01*
X142239145Y-83546248D01*
X142187807Y-83550913D01*
X142025393Y-83601522D01*
X141879813Y-83689529D01*
X141777680Y-83791662D01*
X141769678Y-83796030D01*
X141764210Y-83803321D01*
X141739499Y-83812509D01*
X141716357Y-83825146D01*
X141707265Y-83824495D01*
X141698721Y-83827673D01*
X141672962Y-83822042D01*
X141646665Y-83820162D01*
X141637560Y-83814304D01*
X141630463Y-83812753D01*
X141602230Y-83791573D01*
X141601731Y-83791073D01*
X141568307Y-83729717D01*
X141565500Y-83703480D01*
X141565500Y-80137568D01*
X142645500Y-80137568D01*
X142645500Y-80418431D01*
X142676942Y-80697494D01*
X142676945Y-80697512D01*
X142739439Y-80971317D01*
X142739443Y-80971329D01*
X142832200Y-81236411D01*
X142954053Y-81489442D01*
X142998752Y-81560580D01*
X143103477Y-81727248D01*
X143278584Y-81946825D01*
X143477175Y-82145416D01*
X143696752Y-82320523D01*
X143934555Y-82469945D01*
X144187592Y-82591801D01*
X144386680Y-82661465D01*
X144452670Y-82684556D01*
X144452682Y-82684560D01*
X144726491Y-82747055D01*
X144726497Y-82747055D01*
X144726505Y-82747057D01*
X144912547Y-82768018D01*
X145005569Y-82778499D01*
X145005572Y-82778500D01*
X145005575Y-82778500D01*
X145286428Y-82778500D01*
X145286429Y-82778499D01*
X145452438Y-82759795D01*
X145565494Y-82747057D01*
X145565499Y-82747056D01*
X145565509Y-82747055D01*
X145839318Y-82684560D01*
X146104408Y-82591801D01*
X146357445Y-82469945D01*
X146595248Y-82320523D01*
X146814825Y-82145416D01*
X147013416Y-81946825D01*
X147188523Y-81727248D01*
X147337945Y-81489445D01*
X147459801Y-81236408D01*
X147552560Y-80971318D01*
X147615055Y-80697509D01*
X147617527Y-80675575D01*
X147632471Y-80542934D01*
X147646500Y-80418425D01*
X147646500Y-80137575D01*
X147623516Y-79933581D01*
X147615057Y-79858505D01*
X147615054Y-79858487D01*
X147594923Y-79770289D01*
X147552560Y-79584682D01*
X147459801Y-79319592D01*
X147337945Y-79066555D01*
X147188523Y-78828752D01*
X147013416Y-78609175D01*
X146814825Y-78410584D01*
X146595248Y-78235477D01*
X146359423Y-78087298D01*
X146357442Y-78086053D01*
X146104411Y-77964200D01*
X145839329Y-77871443D01*
X145839317Y-77871439D01*
X145565512Y-77808945D01*
X145565494Y-77808942D01*
X145286431Y-77777500D01*
X145286425Y-77777500D01*
X145005575Y-77777500D01*
X145005568Y-77777500D01*
X144726505Y-77808942D01*
X144726487Y-77808945D01*
X144452682Y-77871439D01*
X144452670Y-77871443D01*
X144187588Y-77964200D01*
X143934557Y-78086053D01*
X143696753Y-78235476D01*
X143477175Y-78410583D01*
X143278583Y-78609175D01*
X143103476Y-78828753D01*
X142954053Y-79066557D01*
X142832200Y-79319588D01*
X142739443Y-79584670D01*
X142739439Y-79584682D01*
X142676945Y-79858487D01*
X142676942Y-79858505D01*
X142645500Y-80137568D01*
X141565500Y-80137568D01*
X141565500Y-77646518D01*
X141585185Y-77579479D01*
X141601814Y-77558842D01*
X147004586Y-72156069D01*
X147044810Y-72129192D01*
X147115818Y-72099781D01*
X147189173Y-72069397D01*
X147189176Y-72069395D01*
X147189179Y-72069394D01*
X147320289Y-71981789D01*
X147431789Y-71870289D01*
X147519394Y-71739179D01*
X147579737Y-71593497D01*
X147610500Y-71438842D01*
X147610500Y-71281158D01*
X147610500Y-71281155D01*
X147610499Y-71281153D01*
X147600412Y-71230445D01*
X147579737Y-71126503D01*
X147574408Y-71113637D01*
X147519397Y-70980827D01*
X147519390Y-70980814D01*
X147460339Y-70892438D01*
X147439461Y-70825760D01*
X147457946Y-70758380D01*
X147509924Y-70711690D01*
X147562980Y-70699548D01*
X155149527Y-70671574D01*
X155216636Y-70691011D01*
X155235784Y-70706052D01*
X156800767Y-72206027D01*
X160884638Y-76120260D01*
X161107787Y-76334139D01*
X161142565Y-76394738D01*
X161143602Y-76399468D01*
X161170261Y-76533491D01*
X161170264Y-76533501D01*
X161230602Y-76679172D01*
X161230609Y-76679184D01*
X161306617Y-76792937D01*
X161327495Y-76859614D01*
X161309011Y-76926994D01*
X161291196Y-76949509D01*
X160142372Y-78098333D01*
X160081049Y-78131818D01*
X160011357Y-78126834D01*
X159955424Y-78084962D01*
X159951598Y-78079556D01*
X159914114Y-78023457D01*
X159914112Y-78023454D01*
X159226545Y-77335887D01*
X159111807Y-77259222D01*
X158984332Y-77206421D01*
X158984322Y-77206418D01*
X158848996Y-77179500D01*
X158848994Y-77179500D01*
X158848993Y-77179500D01*
X157292546Y-77179500D01*
X157225507Y-77159815D01*
X157185159Y-77117500D01*
X157159542Y-77073131D01*
X157157875Y-77070243D01*
X157077541Y-76965551D01*
X156984449Y-76872459D01*
X156978379Y-76867801D01*
X156879767Y-76792132D01*
X156879749Y-76792120D01*
X156765751Y-76726303D01*
X156765750Y-76726302D01*
X156746511Y-76718333D01*
X156643829Y-76675800D01*
X156516662Y-76641725D01*
X156516661Y-76641724D01*
X156516658Y-76641724D01*
X156385833Y-76624500D01*
X156385826Y-76624500D01*
X155820000Y-76624500D01*
X155819997Y-76624500D01*
X155748061Y-76629644D01*
X155748056Y-76629645D01*
X155710735Y-76640603D01*
X155658158Y-76644363D01*
X155520001Y-76624500D01*
X155520000Y-76624500D01*
X154954174Y-76624500D01*
X154954166Y-76624500D01*
X154823341Y-76641724D01*
X154696170Y-76675800D01*
X154574249Y-76726302D01*
X154574248Y-76726303D01*
X154460250Y-76792120D01*
X154460232Y-76792132D01*
X154355555Y-76872455D01*
X154355545Y-76872464D01*
X154262464Y-76965545D01*
X154262455Y-76965555D01*
X154182132Y-77070232D01*
X154182120Y-77070250D01*
X154154841Y-77117500D01*
X154104274Y-77165716D01*
X154047454Y-77179500D01*
X152971004Y-77179500D01*
X152835677Y-77206418D01*
X152835667Y-77206421D01*
X152708192Y-77259222D01*
X152593454Y-77335887D01*
X152195892Y-77733449D01*
X152195879Y-77733464D01*
X152194610Y-77735365D01*
X152179197Y-77754144D01*
X152155020Y-77778321D01*
X152093697Y-77811806D01*
X152047941Y-77813113D01*
X151949366Y-77797500D01*
X151949361Y-77797500D01*
X151750639Y-77797500D01*
X151685214Y-77807862D01*
X151554362Y-77828587D01*
X151365370Y-77889993D01*
X151365367Y-77889994D01*
X151188305Y-77980213D01*
X151027533Y-78097021D01*
X150887021Y-78237533D01*
X150770213Y-78398305D01*
X150679994Y-78575367D01*
X150679993Y-78575370D01*
X150618587Y-78764362D01*
X150599078Y-78887541D01*
X150587500Y-78960639D01*
X150587500Y-79159361D01*
X150591283Y-79183246D01*
X150618587Y-79355637D01*
X150679993Y-79544629D01*
X150679994Y-79544632D01*
X150770213Y-79721694D01*
X150887019Y-79882464D01*
X151027536Y-80022981D01*
X151188306Y-80139787D01*
X151270881Y-80181861D01*
X151344780Y-80219515D01*
X151395576Y-80267490D01*
X151412371Y-80335311D01*
X151389833Y-80401446D01*
X151344780Y-80440485D01*
X151188305Y-80520213D01*
X151027533Y-80637021D01*
X150887021Y-80777533D01*
X150770213Y-80938305D01*
X150679994Y-81115367D01*
X150679993Y-81115370D01*
X150618587Y-81304362D01*
X150587500Y-81500639D01*
X150587500Y-81699360D01*
X150618587Y-81895637D01*
X150679993Y-82084629D01*
X150679994Y-82084632D01*
X150755761Y-82233330D01*
X150770213Y-82261694D01*
X150887019Y-82422464D01*
X151027536Y-82562981D01*
X151188306Y-82679787D01*
X151345332Y-82759796D01*
X151396127Y-82807769D01*
X151412922Y-82875590D01*
X151390385Y-82941725D01*
X151345332Y-82980764D01*
X151188566Y-83060641D01*
X151151283Y-83087729D01*
X151151282Y-83087730D01*
X151822554Y-83759000D01*
X151799840Y-83759000D01*
X151702939Y-83784964D01*
X151616060Y-83835124D01*
X151545124Y-83906060D01*
X151494964Y-83992939D01*
X151469000Y-84089840D01*
X151469000Y-84112552D01*
X150797730Y-83441282D01*
X150797729Y-83441283D01*
X150770643Y-83478564D01*
X150680457Y-83655562D01*
X150619075Y-83844476D01*
X150619075Y-83844479D01*
X150588000Y-84040678D01*
X150588000Y-84239321D01*
X150619075Y-84435520D01*
X150619075Y-84435523D01*
X150680457Y-84624437D01*
X150770641Y-84801432D01*
X150797730Y-84838715D01*
X150797731Y-84838716D01*
X151469000Y-84167447D01*
X151469000Y-84190160D01*
X151494964Y-84287061D01*
X151545124Y-84373940D01*
X151616060Y-84444876D01*
X151702939Y-84495036D01*
X151799840Y-84521000D01*
X151822553Y-84521000D01*
X151151283Y-85192268D01*
X151151283Y-85192269D01*
X151188567Y-85219358D01*
X151345331Y-85299234D01*
X151396127Y-85347209D01*
X151412922Y-85415030D01*
X151390384Y-85481165D01*
X151345331Y-85520204D01*
X151188305Y-85600213D01*
X151027533Y-85717021D01*
X150887021Y-85857533D01*
X150770213Y-86018305D01*
X150679994Y-86195367D01*
X150679993Y-86195370D01*
X150618587Y-86384362D01*
X150587500Y-86580639D01*
X150587500Y-86779360D01*
X150618587Y-86975637D01*
X150679993Y-87164629D01*
X150679994Y-87164632D01*
X150770213Y-87341694D01*
X150887019Y-87502464D01*
X151027536Y-87642981D01*
X151188306Y-87759787D01*
X151284587Y-87808845D01*
X151344780Y-87839515D01*
X151395576Y-87887490D01*
X151412371Y-87955311D01*
X151389833Y-88021446D01*
X151344780Y-88060485D01*
X151188305Y-88140213D01*
X151027533Y-88257021D01*
X150887021Y-88397533D01*
X150770213Y-88558305D01*
X150679994Y-88735367D01*
X150679993Y-88735370D01*
X150618587Y-88924362D01*
X150587500Y-89120639D01*
X150587500Y-89319360D01*
X150618587Y-89515637D01*
X150679993Y-89704629D01*
X150679994Y-89704632D01*
X150750976Y-89843940D01*
X150770213Y-89881694D01*
X150887019Y-90042464D01*
X151027536Y-90182981D01*
X151188306Y-90299787D01*
X151229827Y-90320943D01*
X151344780Y-90379515D01*
X151395576Y-90427490D01*
X151412371Y-90495311D01*
X151389833Y-90561446D01*
X151344780Y-90600485D01*
X151188305Y-90680213D01*
X151027533Y-90797021D01*
X150887021Y-90937533D01*
X150770213Y-91098305D01*
X150679994Y-91275367D01*
X150679993Y-91275370D01*
X150618587Y-91464362D01*
X150589932Y-91645287D01*
X150587500Y-91660639D01*
X150587500Y-91859361D01*
X150590619Y-91879053D01*
X150618587Y-92055637D01*
X150679993Y-92244629D01*
X150679994Y-92244632D01*
X150746567Y-92375287D01*
X150770213Y-92421694D01*
X150887019Y-92582464D01*
X151027536Y-92722981D01*
X151188306Y-92839787D01*
X151257688Y-92875139D01*
X151344780Y-92919515D01*
X151395576Y-92967490D01*
X151412371Y-93035311D01*
X151389833Y-93101446D01*
X151344780Y-93140485D01*
X151188305Y-93220213D01*
X151027533Y-93337021D01*
X150887021Y-93477533D01*
X150770213Y-93638305D01*
X150679994Y-93815367D01*
X150679993Y-93815370D01*
X150618587Y-94004362D01*
X150587500Y-94200639D01*
X150587500Y-94399360D01*
X150618587Y-94595637D01*
X150679993Y-94784629D01*
X150679994Y-94784632D01*
X150770213Y-94961694D01*
X150887019Y-95122464D01*
X151027536Y-95262981D01*
X151188306Y-95379787D01*
X151259191Y-95415905D01*
X151365367Y-95470005D01*
X151365370Y-95470006D01*
X151459866Y-95500709D01*
X151554364Y-95531413D01*
X151750639Y-95562500D01*
X151750640Y-95562500D01*
X151949360Y-95562500D01*
X151949361Y-95562500D01*
X152145636Y-95531413D01*
X152334632Y-95470005D01*
X152511694Y-95379787D01*
X152672464Y-95262981D01*
X152812981Y-95122464D01*
X152929787Y-94961694D01*
X153020005Y-94784632D01*
X153081413Y-94595636D01*
X153112500Y-94399361D01*
X153112500Y-94200639D01*
X153081413Y-94004364D01*
X153033244Y-93856114D01*
X153020006Y-93815370D01*
X153020005Y-93815367D01*
X152929786Y-93638305D01*
X152881915Y-93572416D01*
X152812981Y-93477536D01*
X152672464Y-93337019D01*
X152511694Y-93220213D01*
X152355218Y-93140484D01*
X152304423Y-93092510D01*
X152287628Y-93024689D01*
X152310165Y-92958554D01*
X152355218Y-92919515D01*
X152511694Y-92839787D01*
X152672464Y-92722981D01*
X152812981Y-92582464D01*
X152823677Y-92567742D01*
X152857191Y-92521615D01*
X152912520Y-92478949D01*
X152957509Y-92470500D01*
X154428480Y-92470500D01*
X154495519Y-92490185D01*
X154516161Y-92506819D01*
X154609811Y-92600469D01*
X154609813Y-92600470D01*
X154609815Y-92600472D01*
X154755394Y-92688478D01*
X154917804Y-92739086D01*
X154988384Y-92745500D01*
X154988387Y-92745500D01*
X155501613Y-92745500D01*
X155501616Y-92745500D01*
X155572196Y-92739086D01*
X155734606Y-92688478D01*
X155880185Y-92600472D01*
X155912915Y-92567742D01*
X155982319Y-92498339D01*
X156043642Y-92464854D01*
X156113334Y-92469838D01*
X156157681Y-92498339D01*
X156259811Y-92600469D01*
X156259813Y-92600470D01*
X156259815Y-92600472D01*
X156405394Y-92688478D01*
X156567804Y-92739086D01*
X156638384Y-92745500D01*
X156638387Y-92745500D01*
X157151613Y-92745500D01*
X157151616Y-92745500D01*
X157222196Y-92739086D01*
X157384606Y-92688478D01*
X157530185Y-92600472D01*
X157650472Y-92480185D01*
X157738478Y-92334606D01*
X157789086Y-92172196D01*
X157795500Y-92101616D01*
X157795500Y-91438384D01*
X157789086Y-91367804D01*
X157738478Y-91205394D01*
X157650472Y-91059815D01*
X157650470Y-91059813D01*
X157650469Y-91059811D01*
X157559286Y-90968628D01*
X157525801Y-90907305D01*
X157530785Y-90837613D01*
X157543866Y-90812055D01*
X157546394Y-90808273D01*
X157583416Y-90752865D01*
X157643759Y-90607183D01*
X157674522Y-90452528D01*
X157674522Y-90294844D01*
X157674522Y-90294841D01*
X157674521Y-90294839D01*
X157657609Y-90209819D01*
X157643759Y-90140189D01*
X157603281Y-90042466D01*
X157583419Y-89994513D01*
X157583412Y-89994500D01*
X157495811Y-89863397D01*
X157495808Y-89863393D01*
X157384314Y-89751899D01*
X157384310Y-89751896D01*
X157253207Y-89664295D01*
X157253194Y-89664288D01*
X157107523Y-89603950D01*
X157107511Y-89603947D01*
X156952867Y-89573186D01*
X156952864Y-89573186D01*
X156795180Y-89573186D01*
X156795177Y-89573186D01*
X156640532Y-89603947D01*
X156640520Y-89603950D01*
X156494849Y-89664288D01*
X156494836Y-89664295D01*
X156363733Y-89751896D01*
X156363729Y-89751899D01*
X156252235Y-89863393D01*
X156252232Y-89863397D01*
X156164631Y-89994500D01*
X156164624Y-89994513D01*
X156104286Y-90140184D01*
X156104283Y-90140196D01*
X156073522Y-90294839D01*
X156073522Y-90452532D01*
X156104283Y-90607175D01*
X156104286Y-90607187D01*
X156164624Y-90752858D01*
X156164631Y-90752871D01*
X156220983Y-90837207D01*
X156230470Y-90867505D01*
X156241565Y-90897251D01*
X156240834Y-90900607D01*
X156241861Y-90903885D01*
X156233463Y-90934493D01*
X156226714Y-90965524D01*
X156223931Y-90969241D01*
X156223376Y-90971265D01*
X156205563Y-90993778D01*
X156157682Y-91041660D01*
X156096359Y-91075146D01*
X156026668Y-91070162D01*
X155982319Y-91041661D01*
X155880188Y-90939530D01*
X155845544Y-90918587D01*
X155734606Y-90851522D01*
X155572196Y-90800914D01*
X155572194Y-90800913D01*
X155572192Y-90800913D01*
X155522778Y-90796423D01*
X155501616Y-90794500D01*
X154988384Y-90794500D01*
X154969145Y-90796248D01*
X154917807Y-90800913D01*
X154755393Y-90851522D01*
X154609811Y-90939530D01*
X154609810Y-90939531D01*
X154516161Y-91033181D01*
X154454838Y-91066666D01*
X154428480Y-91069500D01*
X152972039Y-91069500D01*
X152905000Y-91049815D01*
X152871720Y-91018384D01*
X152812984Y-90937539D01*
X152672466Y-90797021D01*
X152672464Y-90797019D01*
X152511694Y-90680213D01*
X152355218Y-90600484D01*
X152304423Y-90552510D01*
X152287628Y-90484689D01*
X152310165Y-90418554D01*
X152355218Y-90379515D01*
X152511694Y-90299787D01*
X152672464Y-90182981D01*
X152812981Y-90042464D01*
X152929787Y-89881694D01*
X153020005Y-89704632D01*
X153081413Y-89515636D01*
X153112500Y-89319361D01*
X153112500Y-89120639D01*
X153081413Y-88924364D01*
X153037558Y-88789390D01*
X153020006Y-88735370D01*
X153020005Y-88735367D01*
X152974035Y-88645149D01*
X152929787Y-88558306D01*
X152812981Y-88397536D01*
X152672464Y-88257019D01*
X152511694Y-88140213D01*
X152355218Y-88060484D01*
X152304423Y-88012510D01*
X152287628Y-87944689D01*
X152310165Y-87878554D01*
X152355218Y-87839515D01*
X152511694Y-87759787D01*
X152672464Y-87642981D01*
X152812981Y-87502464D01*
X152849924Y-87451615D01*
X152905253Y-87408949D01*
X152950243Y-87400500D01*
X154408480Y-87400500D01*
X154475519Y-87420185D01*
X154496161Y-87436819D01*
X154589811Y-87530469D01*
X154589813Y-87530470D01*
X154589815Y-87530472D01*
X154735394Y-87618478D01*
X154897804Y-87669086D01*
X154968384Y-87675500D01*
X154968387Y-87675500D01*
X155481613Y-87675500D01*
X155481616Y-87675500D01*
X155552196Y-87669086D01*
X155714606Y-87618478D01*
X155860185Y-87530472D01*
X155962320Y-87428336D01*
X155970264Y-87423999D01*
X155975690Y-87416751D01*
X156000449Y-87407516D01*
X156023641Y-87394853D01*
X156032671Y-87395498D01*
X156041155Y-87392335D01*
X156066976Y-87397952D01*
X156093333Y-87399837D01*
X156102385Y-87405655D01*
X156109428Y-87407187D01*
X156137682Y-87428339D01*
X156191604Y-87482262D01*
X156225088Y-87543585D01*
X156220103Y-87613277D01*
X156207025Y-87638832D01*
X156165608Y-87700816D01*
X156165602Y-87700827D01*
X156105264Y-87846498D01*
X156105261Y-87846510D01*
X156074500Y-88001153D01*
X156074500Y-88158846D01*
X156105261Y-88313489D01*
X156105264Y-88313501D01*
X156165602Y-88459172D01*
X156165609Y-88459185D01*
X156253210Y-88590288D01*
X156253213Y-88590292D01*
X156364707Y-88701786D01*
X156364711Y-88701789D01*
X156495814Y-88789390D01*
X156495827Y-88789397D01*
X156641498Y-88849735D01*
X156641503Y-88849737D01*
X156796153Y-88880499D01*
X156796156Y-88880500D01*
X156796158Y-88880500D01*
X156953844Y-88880500D01*
X156953845Y-88880499D01*
X157108497Y-88849737D01*
X157254179Y-88789394D01*
X157385289Y-88701789D01*
X157496789Y-88590289D01*
X157584394Y-88459179D01*
X157644737Y-88313497D01*
X157675500Y-88158842D01*
X157675500Y-88001158D01*
X157675500Y-88001155D01*
X157675499Y-88001153D01*
X157666380Y-87955311D01*
X157644737Y-87846503D01*
X157644735Y-87846498D01*
X157584397Y-87700827D01*
X157584395Y-87700823D01*
X157584394Y-87700821D01*
X157545747Y-87642981D01*
X157542975Y-87638833D01*
X157522097Y-87572156D01*
X157540581Y-87504776D01*
X157558392Y-87482264D01*
X157630472Y-87410185D01*
X157718478Y-87264606D01*
X157769086Y-87102196D01*
X157775500Y-87031616D01*
X157775500Y-86368384D01*
X157769086Y-86297804D01*
X157718478Y-86135394D01*
X157630472Y-85989815D01*
X157630470Y-85989813D01*
X157630469Y-85989811D01*
X157511819Y-85871161D01*
X157478334Y-85809838D01*
X157475500Y-85783480D01*
X157475500Y-82424500D01*
X157478050Y-82415814D01*
X157476762Y-82406853D01*
X157487740Y-82382812D01*
X157495185Y-82357461D01*
X157502025Y-82351533D01*
X157505787Y-82343297D01*
X157528021Y-82329007D01*
X157547989Y-82311706D01*
X157558503Y-82309418D01*
X157564565Y-82305523D01*
X157599500Y-82300500D01*
X157639963Y-82300500D01*
X157707002Y-82320185D01*
X157708853Y-82321398D01*
X157720818Y-82329393D01*
X157720822Y-82329395D01*
X157849784Y-82382812D01*
X157866503Y-82389737D01*
X157997600Y-82415814D01*
X158021153Y-82420499D01*
X158021156Y-82420500D01*
X158021158Y-82420500D01*
X158178844Y-82420500D01*
X158178845Y-82420499D01*
X158333497Y-82389737D01*
X158479179Y-82329394D01*
X158610289Y-82241789D01*
X158721789Y-82130289D01*
X158809394Y-81999179D01*
X158869737Y-81853497D01*
X158900500Y-81698842D01*
X158900500Y-81541158D01*
X158900500Y-81541155D01*
X158900499Y-81541153D01*
X158892440Y-81500639D01*
X158869737Y-81386503D01*
X158835714Y-81304364D01*
X158809397Y-81240827D01*
X158809390Y-81240814D01*
X158721789Y-81109711D01*
X158721786Y-81109707D01*
X158610292Y-80998213D01*
X158610288Y-80998210D01*
X158479185Y-80910609D01*
X158479172Y-80910602D01*
X158333501Y-80850264D01*
X158333489Y-80850261D01*
X158178845Y-80819500D01*
X158178842Y-80819500D01*
X158021158Y-80819500D01*
X158021155Y-80819500D01*
X157866511Y-80850260D01*
X157866501Y-80850263D01*
X157770421Y-80890061D01*
X157722969Y-80899500D01*
X157383112Y-80899500D01*
X157316073Y-80879815D01*
X157275725Y-80837500D01*
X157262875Y-80815243D01*
X157242778Y-80789053D01*
X157182544Y-80710555D01*
X157182541Y-80710551D01*
X157089449Y-80617459D01*
X157079867Y-80610106D01*
X156984767Y-80537132D01*
X156984749Y-80537120D01*
X156870751Y-80471303D01*
X156870750Y-80471302D01*
X156867826Y-80470091D01*
X156748829Y-80420800D01*
X156621662Y-80386725D01*
X156621661Y-80386724D01*
X156621658Y-80386724D01*
X156490833Y-80369500D01*
X156490826Y-80369500D01*
X155925000Y-80369500D01*
X155924997Y-80369500D01*
X155853061Y-80374644D01*
X155853056Y-80374645D01*
X155815735Y-80385603D01*
X155763158Y-80389363D01*
X155625001Y-80369500D01*
X155625000Y-80369500D01*
X155059174Y-80369500D01*
X155059166Y-80369500D01*
X154928341Y-80386724D01*
X154801170Y-80420800D01*
X154679249Y-80471302D01*
X154679248Y-80471303D01*
X154565250Y-80537120D01*
X154565232Y-80537132D01*
X154460555Y-80617455D01*
X154460545Y-80617464D01*
X154367464Y-80710545D01*
X154367455Y-80710555D01*
X154287132Y-80815232D01*
X154287121Y-80815249D01*
X154274275Y-80837500D01*
X154223708Y-80885716D01*
X154166888Y-80899500D01*
X152964774Y-80899500D01*
X152897735Y-80879815D01*
X152864457Y-80848387D01*
X152812981Y-80777536D01*
X152672464Y-80637019D01*
X152511694Y-80520213D01*
X152355218Y-80440484D01*
X152304423Y-80392510D01*
X152287628Y-80324689D01*
X152310165Y-80258554D01*
X152355218Y-80219515D01*
X152511694Y-80139787D01*
X152672464Y-80022981D01*
X152812981Y-79882464D01*
X152929787Y-79721694D01*
X153020005Y-79544632D01*
X153081413Y-79355636D01*
X153112500Y-79159361D01*
X153112500Y-78960639D01*
X153100714Y-78886229D01*
X153101372Y-78881130D01*
X153099551Y-78876323D01*
X153105804Y-78846835D01*
X153109668Y-78816936D01*
X153113267Y-78811641D01*
X153114046Y-78807973D01*
X153133842Y-78781383D01*
X153135049Y-78779609D01*
X153135217Y-78779438D01*
X153284114Y-78630543D01*
X153287331Y-78625727D01*
X153295693Y-78617278D01*
X153321422Y-78603053D01*
X153345720Y-78586502D01*
X153353608Y-78585259D01*
X153356840Y-78583473D01*
X153362550Y-78583851D01*
X153383831Y-78580500D01*
X154047454Y-78580500D01*
X154114493Y-78600185D01*
X154154841Y-78642500D01*
X154182120Y-78689749D01*
X154182132Y-78689767D01*
X154252433Y-78781383D01*
X154262459Y-78794449D01*
X154355551Y-78887541D01*
X154355555Y-78887544D01*
X154460232Y-78967867D01*
X154460236Y-78967869D01*
X154460243Y-78967875D01*
X154460250Y-78967879D01*
X154574248Y-79033696D01*
X154574249Y-79033697D01*
X154574252Y-79033698D01*
X154574257Y-79033701D01*
X154696171Y-79084200D01*
X154823338Y-79118275D01*
X154954174Y-79135500D01*
X154954181Y-79135500D01*
X155520000Y-79135500D01*
X155591940Y-79130355D01*
X155629259Y-79119396D01*
X155681841Y-79115636D01*
X155820000Y-79135500D01*
X155820003Y-79135500D01*
X156385819Y-79135500D01*
X156385826Y-79135500D01*
X156516662Y-79118275D01*
X156643829Y-79084200D01*
X156765743Y-79033701D01*
X156879757Y-78967875D01*
X156984449Y-78887541D01*
X157077541Y-78794449D01*
X157157875Y-78689757D01*
X157185159Y-78642499D01*
X157235726Y-78594284D01*
X157292546Y-78580500D01*
X158438481Y-78580500D01*
X158467921Y-78589144D01*
X158497908Y-78595668D01*
X158502923Y-78599422D01*
X158505520Y-78600185D01*
X158526162Y-78616819D01*
X158633181Y-78723838D01*
X158666666Y-78785161D01*
X158669500Y-78811519D01*
X158669500Y-78834684D01*
X158660061Y-78882136D01*
X158600264Y-79026498D01*
X158600261Y-79026510D01*
X158569500Y-79181153D01*
X158569500Y-79338846D01*
X158600261Y-79493489D01*
X158600264Y-79493501D01*
X158660602Y-79639172D01*
X158660609Y-79639185D01*
X158748210Y-79770288D01*
X158748213Y-79770292D01*
X158859707Y-79881786D01*
X158859711Y-79881789D01*
X158990814Y-79969390D01*
X158990827Y-79969397D01*
X159120185Y-80022978D01*
X159136503Y-80029737D01*
X159291153Y-80060499D01*
X159291156Y-80060500D01*
X159291158Y-80060500D01*
X159448844Y-80060500D01*
X159448845Y-80060499D01*
X159603497Y-80029737D01*
X159679845Y-79998113D01*
X159747864Y-79969939D01*
X159795316Y-79960500D01*
X160040360Y-79960500D01*
X160131404Y-79942389D01*
X160175692Y-79933580D01*
X160299093Y-79882466D01*
X160303171Y-79880777D01*
X160303172Y-79880776D01*
X160303175Y-79880775D01*
X160417907Y-79804114D01*
X162627819Y-77594200D01*
X162689142Y-77560716D01*
X162758834Y-77565700D01*
X162814767Y-77607572D01*
X162839184Y-77673036D01*
X162839500Y-77681882D01*
X162839500Y-90313330D01*
X162839499Y-90313348D01*
X162839499Y-90479054D01*
X162839498Y-90479054D01*
X162841008Y-90484689D01*
X162880423Y-90631785D01*
X162908383Y-90680213D01*
X162908383Y-90680214D01*
X162959475Y-90768709D01*
X162959481Y-90768717D01*
X163078349Y-90887585D01*
X163078355Y-90887590D01*
X165255139Y-93064374D01*
X165255149Y-93064385D01*
X165259479Y-93068715D01*
X165259480Y-93068716D01*
X165371284Y-93180520D01*
X165440035Y-93220213D01*
X165508215Y-93259577D01*
X165660942Y-93300500D01*
X165660943Y-93300500D01*
X173499903Y-93300500D01*
X173566942Y-93320185D01*
X173587584Y-93336819D01*
X173823181Y-93572416D01*
X173856666Y-93633739D01*
X173859500Y-93660097D01*
X173859500Y-94299281D01*
X173839815Y-94366320D01*
X173791795Y-94409765D01*
X173752185Y-94429947D01*
X173752184Y-94429948D01*
X173580213Y-94554890D01*
X173429894Y-94705209D01*
X173429890Y-94705214D01*
X173310008Y-94870218D01*
X173254678Y-94912884D01*
X173185065Y-94918863D01*
X173123270Y-94886257D01*
X173109372Y-94870218D01*
X172989727Y-94705540D01*
X172989723Y-94705535D01*
X172839464Y-94555276D01*
X172839459Y-94555272D01*
X172667557Y-94430379D01*
X172478215Y-94333903D01*
X172276124Y-94268241D01*
X172210000Y-94257768D01*
X172210000Y-95305854D01*
X172143343Y-95267370D01*
X172022535Y-95235000D01*
X171897465Y-95235000D01*
X171776657Y-95267370D01*
X171710000Y-95305854D01*
X171710000Y-94257768D01*
X171709999Y-94257768D01*
X171643875Y-94268241D01*
X171441784Y-94333903D01*
X171252442Y-94430379D01*
X171080540Y-94555272D01*
X171080535Y-94555276D01*
X170930276Y-94705535D01*
X170930272Y-94705540D01*
X170805379Y-94877442D01*
X170708904Y-95066782D01*
X170643242Y-95268869D01*
X170643242Y-95268872D01*
X170612970Y-95460000D01*
X171555854Y-95460000D01*
X171517370Y-95526657D01*
X171485000Y-95647465D01*
X171485000Y-95772535D01*
X171517370Y-95893343D01*
X171555854Y-95960000D01*
X170612970Y-95960000D01*
X170643242Y-96151127D01*
X170643242Y-96151130D01*
X170708904Y-96353217D01*
X170805379Y-96542557D01*
X170930272Y-96714459D01*
X170930276Y-96714464D01*
X171080535Y-96864723D01*
X171080540Y-96864727D01*
X171252442Y-96989620D01*
X171441782Y-97086095D01*
X171643871Y-97151757D01*
X171710000Y-97162231D01*
X171710000Y-96114145D01*
X171776657Y-96152630D01*
X171897465Y-96185000D01*
X172022535Y-96185000D01*
X172143343Y-96152630D01*
X172210000Y-96114145D01*
X172210000Y-97162230D01*
X172276126Y-97151757D01*
X172276129Y-97151757D01*
X172478217Y-97086095D01*
X172667557Y-96989620D01*
X172839459Y-96864727D01*
X172839464Y-96864723D01*
X172989721Y-96714466D01*
X173109371Y-96549781D01*
X173164701Y-96507115D01*
X173234314Y-96501136D01*
X173296110Y-96533741D01*
X173310008Y-96549781D01*
X173429890Y-96714785D01*
X173429894Y-96714790D01*
X173580213Y-96865109D01*
X173752179Y-96990048D01*
X173752181Y-96990049D01*
X173752184Y-96990051D01*
X173941588Y-97086557D01*
X174143757Y-97152246D01*
X174353713Y-97185500D01*
X174353714Y-97185500D01*
X174566286Y-97185500D01*
X174566287Y-97185500D01*
X174776243Y-97152246D01*
X174978412Y-97086557D01*
X175167816Y-96990051D01*
X175339792Y-96865104D01*
X175478604Y-96726291D01*
X175539923Y-96692809D01*
X175609615Y-96697793D01*
X175665549Y-96739664D01*
X175671821Y-96748878D01*
X175675185Y-96754333D01*
X175675186Y-96754334D01*
X175767288Y-96903656D01*
X175891344Y-97027712D01*
X176040666Y-97119814D01*
X176207203Y-97174999D01*
X176309991Y-97185500D01*
X177610008Y-97185499D01*
X177712797Y-97174999D01*
X177879334Y-97119814D01*
X178028656Y-97027712D01*
X178152712Y-96903656D01*
X178244814Y-96754334D01*
X178299999Y-96587797D01*
X178310500Y-96485009D01*
X178310499Y-94934992D01*
X178308851Y-94918863D01*
X178299999Y-94832203D01*
X178299998Y-94832200D01*
X178244814Y-94665666D01*
X178152712Y-94516344D01*
X178028656Y-94392288D01*
X177879334Y-94300186D01*
X177712797Y-94245001D01*
X177712795Y-94245000D01*
X177610010Y-94234500D01*
X176309998Y-94234500D01*
X176309981Y-94234501D01*
X176207203Y-94245000D01*
X176207200Y-94245001D01*
X176040668Y-94300185D01*
X176040663Y-94300187D01*
X175891342Y-94392289D01*
X175767289Y-94516342D01*
X175671821Y-94671121D01*
X175619873Y-94717845D01*
X175550910Y-94729068D01*
X175486828Y-94701224D01*
X175478601Y-94693705D01*
X175339786Y-94554890D01*
X175167815Y-94429948D01*
X175167814Y-94429947D01*
X175128205Y-94409765D01*
X175077409Y-94361791D01*
X175060500Y-94299281D01*
X175060500Y-93449059D01*
X175060501Y-93449046D01*
X175060501Y-93280945D01*
X175060501Y-93280943D01*
X175019577Y-93128215D01*
X174983079Y-93064999D01*
X174940520Y-92991284D01*
X174828716Y-92879480D01*
X174828715Y-92879479D01*
X174824385Y-92875149D01*
X174824374Y-92875139D01*
X174287590Y-92338355D01*
X174287588Y-92338352D01*
X174168717Y-92219481D01*
X174168716Y-92219480D01*
X174081904Y-92169360D01*
X174081904Y-92169359D01*
X174081900Y-92169358D01*
X174031785Y-92140423D01*
X173879057Y-92099499D01*
X173720943Y-92099499D01*
X173713347Y-92099499D01*
X173713331Y-92099500D01*
X166040097Y-92099500D01*
X165973058Y-92079815D01*
X165952416Y-92063181D01*
X164076819Y-90187584D01*
X164043334Y-90126261D01*
X164040500Y-90099903D01*
X164040500Y-86945778D01*
X177089500Y-86945778D01*
X177089500Y-87234221D01*
X177089501Y-87234238D01*
X177127149Y-87520206D01*
X177127150Y-87520211D01*
X177127151Y-87520217D01*
X177201809Y-87798844D01*
X177201814Y-87798860D01*
X177312191Y-88065336D01*
X177312199Y-88065352D01*
X177456420Y-88315148D01*
X177456431Y-88315164D01*
X177632024Y-88544002D01*
X177632030Y-88544009D01*
X177835990Y-88747969D01*
X177835997Y-88747975D01*
X177968614Y-88849735D01*
X178064844Y-88923575D01*
X178064851Y-88923579D01*
X178314647Y-89067800D01*
X178314663Y-89067808D01*
X178581139Y-89178185D01*
X178581145Y-89178186D01*
X178581155Y-89178191D01*
X178859783Y-89252849D01*
X179145772Y-89290500D01*
X179145779Y-89290500D01*
X179434221Y-89290500D01*
X179434228Y-89290500D01*
X179720217Y-89252849D01*
X179998845Y-89178191D01*
X179998857Y-89178185D01*
X179998860Y-89178185D01*
X180265336Y-89067808D01*
X180265339Y-89067806D01*
X180265345Y-89067804D01*
X180515156Y-88923575D01*
X180744004Y-88747974D01*
X180947974Y-88544004D01*
X181123575Y-88315156D01*
X181267804Y-88065345D01*
X181281210Y-88032981D01*
X181378185Y-87798860D01*
X181378185Y-87798857D01*
X181378191Y-87798845D01*
X181452849Y-87520217D01*
X181490500Y-87234228D01*
X181490500Y-86945772D01*
X181452849Y-86659783D01*
X181378191Y-86381155D01*
X181378186Y-86381145D01*
X181378185Y-86381139D01*
X181267808Y-86114663D01*
X181267800Y-86114647D01*
X181123579Y-85864851D01*
X181123575Y-85864844D01*
X181018101Y-85727387D01*
X180947975Y-85635997D01*
X180947969Y-85635990D01*
X180744009Y-85432030D01*
X180744002Y-85432024D01*
X180515164Y-85256431D01*
X180515162Y-85256429D01*
X180515156Y-85256425D01*
X180515151Y-85256422D01*
X180515148Y-85256420D01*
X180265352Y-85112199D01*
X180265336Y-85112191D01*
X179998860Y-85001814D01*
X179998848Y-85001810D01*
X179998845Y-85001809D01*
X179720217Y-84927151D01*
X179720211Y-84927150D01*
X179720206Y-84927149D01*
X179434238Y-84889501D01*
X179434233Y-84889500D01*
X179434228Y-84889500D01*
X179145772Y-84889500D01*
X179145766Y-84889500D01*
X179145761Y-84889501D01*
X178859793Y-84927149D01*
X178859786Y-84927150D01*
X178859783Y-84927151D01*
X178822459Y-84937152D01*
X178581155Y-85001809D01*
X178581139Y-85001814D01*
X178314663Y-85112191D01*
X178314647Y-85112199D01*
X178064851Y-85256420D01*
X178064835Y-85256431D01*
X177835997Y-85432024D01*
X177835990Y-85432030D01*
X177632030Y-85635990D01*
X177632024Y-85635997D01*
X177456431Y-85864835D01*
X177456420Y-85864851D01*
X177312199Y-86114647D01*
X177312191Y-86114663D01*
X177201814Y-86381139D01*
X177201809Y-86381155D01*
X177147091Y-86585368D01*
X177127152Y-86659780D01*
X177127149Y-86659793D01*
X177089501Y-86945761D01*
X177089500Y-86945778D01*
X164040500Y-86945778D01*
X164040500Y-75339060D01*
X164040501Y-75339047D01*
X164040501Y-75170944D01*
X164012219Y-75065397D01*
X163999577Y-75018216D01*
X163935984Y-74908068D01*
X163920524Y-74881290D01*
X163920518Y-74881282D01*
X155987590Y-66948355D01*
X155987588Y-66948352D01*
X155868717Y-66829481D01*
X155868716Y-66829480D01*
X155781904Y-66779360D01*
X155781904Y-66779359D01*
X155781900Y-66779358D01*
X155731785Y-66750423D01*
X155579057Y-66709499D01*
X155420943Y-66709499D01*
X155413347Y-66709499D01*
X155413331Y-66709500D01*
X148250097Y-66709500D01*
X148220656Y-66700855D01*
X148190670Y-66694332D01*
X148185654Y-66690577D01*
X148183058Y-66689815D01*
X148162416Y-66673181D01*
X148034574Y-66545339D01*
X148001089Y-66484016D01*
X148000638Y-66481849D01*
X147969738Y-66326510D01*
X147969737Y-66326503D01*
X147932074Y-66235575D01*
X147909397Y-66180827D01*
X147909390Y-66180814D01*
X147821789Y-66049711D01*
X147821786Y-66049707D01*
X147710292Y-65938213D01*
X147710288Y-65938210D01*
X147579185Y-65850609D01*
X147579172Y-65850602D01*
X147433501Y-65790264D01*
X147433489Y-65790261D01*
X147278845Y-65759500D01*
X147278842Y-65759500D01*
X147121158Y-65759500D01*
X147121155Y-65759500D01*
X146966510Y-65790261D01*
X146966498Y-65790264D01*
X146820827Y-65850602D01*
X146820814Y-65850609D01*
X146689711Y-65938210D01*
X146689707Y-65938213D01*
X146578213Y-66049707D01*
X146578210Y-66049711D01*
X146490609Y-66180814D01*
X146490602Y-66180827D01*
X146430264Y-66326498D01*
X146430261Y-66326510D01*
X146399500Y-66481153D01*
X146399500Y-66638846D01*
X146430261Y-66793489D01*
X146430264Y-66793501D01*
X146490602Y-66939172D01*
X146490609Y-66939185D01*
X146578210Y-67070288D01*
X146578213Y-67070292D01*
X146689707Y-67181786D01*
X146689711Y-67181789D01*
X146820814Y-67269390D01*
X146820827Y-67269397D01*
X146966498Y-67329735D01*
X146966503Y-67329737D01*
X147031147Y-67342595D01*
X147121849Y-67360638D01*
X147183760Y-67393023D01*
X147185339Y-67394574D01*
X147465139Y-67674374D01*
X147465149Y-67674385D01*
X147469479Y-67678715D01*
X147469480Y-67678716D01*
X147581284Y-67790520D01*
X147668095Y-67840639D01*
X147668097Y-67840641D01*
X147706151Y-67862611D01*
X147718215Y-67869577D01*
X147870943Y-67910500D01*
X155199903Y-67910500D01*
X155266942Y-67930185D01*
X155287584Y-67946819D01*
X159730250Y-72389486D01*
X159763735Y-72450809D01*
X159758751Y-72520501D01*
X159716879Y-72576434D01*
X159711460Y-72580269D01*
X159639711Y-72628210D01*
X159639707Y-72628213D01*
X159528213Y-72739707D01*
X159440550Y-72870903D01*
X159386937Y-72915707D01*
X159317612Y-72924414D01*
X159254585Y-72894259D01*
X159251663Y-72891548D01*
X155859317Y-69640115D01*
X155806942Y-69588124D01*
X155802305Y-69585469D01*
X155798443Y-69581768D01*
X155798442Y-69581767D01*
X155734685Y-69546738D01*
X155734685Y-69546739D01*
X155733720Y-69546209D01*
X155669719Y-69509572D01*
X155664551Y-69508207D01*
X155659867Y-69505634D01*
X155589234Y-69488303D01*
X155588163Y-69488041D01*
X155516842Y-69469213D01*
X155511501Y-69469232D01*
X155506306Y-69467958D01*
X155506303Y-69467958D01*
X155433554Y-69469501D01*
X155431382Y-69469528D01*
X134750168Y-69545787D01*
X134683057Y-69526350D01*
X134649420Y-69492100D01*
X134648311Y-69492907D01*
X134631322Y-69469524D01*
X134528641Y-69328195D01*
X134388124Y-69187678D01*
X134227354Y-69070872D01*
X134070327Y-68990862D01*
X134019532Y-68942888D01*
X134002737Y-68875067D01*
X134025274Y-68808932D01*
X134070329Y-68769893D01*
X134227082Y-68690023D01*
X134264376Y-68662927D01*
X133593108Y-67991659D01*
X133615820Y-67991659D01*
X133712721Y-67965695D01*
X133799600Y-67915535D01*
X133870536Y-67844599D01*
X133920696Y-67757720D01*
X133946660Y-67660819D01*
X133946660Y-67638106D01*
X134617928Y-68309374D01*
X134645022Y-68272084D01*
X134735202Y-68095096D01*
X134796584Y-67906182D01*
X134796584Y-67906179D01*
X134827660Y-67709980D01*
X134827660Y-67511337D01*
X134796584Y-67315138D01*
X134796584Y-67315135D01*
X134735202Y-67126221D01*
X134645018Y-66949226D01*
X134617928Y-66911942D01*
X133946660Y-67583210D01*
X133946660Y-67560499D01*
X133920696Y-67463598D01*
X133870536Y-67376719D01*
X133799600Y-67305783D01*
X133712721Y-67255623D01*
X133615820Y-67229659D01*
X133593107Y-67229659D01*
X134264376Y-66558390D01*
X134264375Y-66558389D01*
X134227092Y-66531300D01*
X134050097Y-66441116D01*
X133861182Y-66379734D01*
X133664981Y-66348659D01*
X133466339Y-66348659D01*
X133270139Y-66379734D01*
X133270136Y-66379734D01*
X133081222Y-66441116D01*
X132904224Y-66531302D01*
X132866943Y-66558388D01*
X132866942Y-66558389D01*
X133538214Y-67229659D01*
X133515500Y-67229659D01*
X133418599Y-67255623D01*
X133331720Y-67305783D01*
X133260784Y-67376719D01*
X133210624Y-67463598D01*
X133184660Y-67560499D01*
X133184660Y-67583211D01*
X132513390Y-66911941D01*
X132513389Y-66911942D01*
X132486303Y-66949223D01*
X132396117Y-67126221D01*
X132334735Y-67315135D01*
X132334735Y-67315138D01*
X132303660Y-67511337D01*
X132303660Y-67709980D01*
X132334735Y-67906179D01*
X132334735Y-67906182D01*
X132396117Y-68095096D01*
X132486301Y-68272091D01*
X132513390Y-68309374D01*
X132513391Y-68309375D01*
X133184660Y-67638106D01*
X133184660Y-67660819D01*
X133210624Y-67757720D01*
X133260784Y-67844599D01*
X133331720Y-67915535D01*
X133418599Y-67965695D01*
X133515500Y-67991659D01*
X133538213Y-67991659D01*
X132866943Y-68662927D01*
X132866943Y-68662928D01*
X132904227Y-68690017D01*
X133060991Y-68769893D01*
X133111787Y-68817868D01*
X133128582Y-68885689D01*
X133106044Y-68951824D01*
X133060991Y-68990863D01*
X132903965Y-69070872D01*
X132743193Y-69187680D01*
X132602681Y-69328192D01*
X132485873Y-69488964D01*
X132395654Y-69666026D01*
X132395653Y-69666029D01*
X132334247Y-69855021D01*
X132303160Y-70051298D01*
X132303160Y-70250019D01*
X132334247Y-70446296D01*
X132395653Y-70635288D01*
X132395654Y-70635291D01*
X132452603Y-70747058D01*
X132485873Y-70812353D01*
X132602679Y-70973123D01*
X132743196Y-71113640D01*
X132903966Y-71230446D01*
X133022492Y-71290838D01*
X133060440Y-71310174D01*
X133111236Y-71358149D01*
X133128031Y-71425970D01*
X133105493Y-71492105D01*
X133060440Y-71531144D01*
X132903965Y-71610872D01*
X132743193Y-71727680D01*
X132602681Y-71868192D01*
X132485873Y-72028964D01*
X132395654Y-72206026D01*
X132395653Y-72206029D01*
X132334247Y-72395021D01*
X132303160Y-72591298D01*
X132303160Y-72790019D01*
X132334247Y-72986296D01*
X132395653Y-73175288D01*
X132395654Y-73175291D01*
X132485873Y-73352353D01*
X132602679Y-73513123D01*
X132743196Y-73653640D01*
X132903966Y-73770446D01*
X132990809Y-73814694D01*
X133081027Y-73860664D01*
X133081030Y-73860665D01*
X133175526Y-73891368D01*
X133270024Y-73922072D01*
X133466299Y-73953159D01*
X133466300Y-73953159D01*
X133665020Y-73953159D01*
X133665021Y-73953159D01*
X133861296Y-73922072D01*
X134050292Y-73860664D01*
X134227354Y-73770446D01*
X134388124Y-73653640D01*
X134528641Y-73513123D01*
X134645447Y-73352353D01*
X134735665Y-73175291D01*
X134797073Y-72986295D01*
X134828160Y-72790020D01*
X134828160Y-72591298D01*
X134797073Y-72395023D01*
X134750221Y-72250827D01*
X134735666Y-72206029D01*
X134735665Y-72206026D01*
X134681530Y-72099781D01*
X134645447Y-72028965D01*
X134528641Y-71868195D01*
X134388124Y-71727678D01*
X134227354Y-71610872D01*
X134070878Y-71531143D01*
X134020083Y-71483169D01*
X134003288Y-71415348D01*
X134025825Y-71349213D01*
X134070878Y-71310174D01*
X134227354Y-71230446D01*
X134388124Y-71113640D01*
X134528641Y-70973123D01*
X134645447Y-70812353D01*
X134645454Y-70812338D01*
X134647988Y-70808205D01*
X134649450Y-70809101D01*
X134692314Y-70763699D01*
X134754385Y-70746778D01*
X146052382Y-70705118D01*
X146119491Y-70724555D01*
X146165441Y-70777190D01*
X146175639Y-70846311D01*
X146155939Y-70898008D01*
X146100609Y-70980814D01*
X146100604Y-70980823D01*
X146040809Y-71125184D01*
X146013929Y-71165412D01*
X145108062Y-72071280D01*
X145046739Y-72104765D01*
X144977048Y-72099781D01*
X144932700Y-72071280D01*
X144930292Y-72068872D01*
X144930288Y-72068869D01*
X144799185Y-71981268D01*
X144799172Y-71981261D01*
X144653501Y-71920923D01*
X144653489Y-71920920D01*
X144498845Y-71890159D01*
X144498842Y-71890159D01*
X144341158Y-71890159D01*
X144341155Y-71890159D01*
X144186510Y-71920920D01*
X144186498Y-71920923D01*
X144042136Y-71980720D01*
X143994684Y-71990159D01*
X138120887Y-71990159D01*
X138053848Y-71970474D01*
X138052047Y-71969295D01*
X137979179Y-71920606D01*
X137979172Y-71920602D01*
X137833501Y-71860264D01*
X137833489Y-71860261D01*
X137678845Y-71829500D01*
X137678842Y-71829500D01*
X137521158Y-71829500D01*
X137521155Y-71829500D01*
X137366510Y-71860261D01*
X137366498Y-71860264D01*
X137220827Y-71920602D01*
X137220814Y-71920609D01*
X137089711Y-72008210D01*
X137089707Y-72008213D01*
X136978213Y-72119707D01*
X136978210Y-72119711D01*
X136890609Y-72250814D01*
X136890602Y-72250827D01*
X136830264Y-72396498D01*
X136830261Y-72396510D01*
X136799500Y-72551153D01*
X136799500Y-72708846D01*
X136830261Y-72863489D01*
X136830264Y-72863501D01*
X136890602Y-73009172D01*
X136890609Y-73009185D01*
X136978210Y-73140288D01*
X136978213Y-73140292D01*
X137089707Y-73251786D01*
X137089711Y-73251789D01*
X137220814Y-73339390D01*
X137220827Y-73339397D01*
X137364637Y-73398964D01*
X137366503Y-73399737D01*
X137521153Y-73430499D01*
X137521156Y-73430500D01*
X137521158Y-73430500D01*
X137678844Y-73430500D01*
X137678845Y-73430499D01*
X137833497Y-73399737D01*
X137833509Y-73399731D01*
X137839324Y-73397969D01*
X137839626Y-73398964D01*
X137878871Y-73391159D01*
X143488822Y-73391159D01*
X143555861Y-73410844D01*
X143601616Y-73463648D01*
X143611560Y-73532806D01*
X143582535Y-73596362D01*
X143576503Y-73602840D01*
X140320888Y-76858453D01*
X140320887Y-76858454D01*
X140244222Y-76973192D01*
X140191421Y-77100667D01*
X140191418Y-77100679D01*
X140170385Y-77206421D01*
X140169447Y-77211139D01*
X140165603Y-77230463D01*
X140164500Y-77236007D01*
X140164500Y-83703480D01*
X140144815Y-83770519D01*
X140128181Y-83791161D01*
X140109531Y-83809810D01*
X140109530Y-83809811D01*
X140021522Y-83955393D01*
X139970913Y-84117807D01*
X139964500Y-84188386D01*
X139964500Y-84851613D01*
X139970913Y-84922192D01*
X139970913Y-84922194D01*
X139970914Y-84922196D01*
X140021522Y-85084606D01*
X140109528Y-85230185D01*
X140138181Y-85258838D01*
X140152887Y-85285770D01*
X140169477Y-85311584D01*
X140170368Y-85317782D01*
X140171666Y-85320159D01*
X140174500Y-85346519D01*
X140174500Y-85483480D01*
X140154815Y-85550519D01*
X140138181Y-85571161D01*
X140119531Y-85589810D01*
X140119530Y-85589811D01*
X140031522Y-85735393D01*
X139980913Y-85897807D01*
X139974500Y-85968386D01*
X139974500Y-86631611D01*
X139980913Y-86702192D01*
X139980913Y-86702194D01*
X139980914Y-86702196D01*
X140031522Y-86864606D01*
X140116930Y-87005888D01*
X140119530Y-87010188D01*
X140239811Y-87130469D01*
X140239813Y-87130470D01*
X140239815Y-87130472D01*
X140385394Y-87218478D01*
X140547804Y-87269086D01*
X140618384Y-87275500D01*
X140618387Y-87275500D01*
X141131613Y-87275500D01*
X141131616Y-87275500D01*
X141202196Y-87269086D01*
X141364606Y-87218478D01*
X141510185Y-87130472D01*
X141612673Y-87027983D01*
X141673994Y-86994499D01*
X141743685Y-86999483D01*
X141788034Y-87027984D01*
X141890122Y-87130072D01*
X142035604Y-87218019D01*
X142035603Y-87218019D01*
X142197894Y-87268590D01*
X142197893Y-87268590D01*
X142268408Y-87274998D01*
X142268426Y-87274999D01*
X142775000Y-87274999D01*
X142781581Y-87274999D01*
X142852102Y-87268591D01*
X142852107Y-87268590D01*
X143014396Y-87218018D01*
X143159877Y-87130072D01*
X143280072Y-87009877D01*
X143368019Y-86864395D01*
X143418590Y-86702106D01*
X143425000Y-86631572D01*
X143425000Y-86550000D01*
X142775000Y-86550000D01*
X142775000Y-87274999D01*
X142268426Y-87274999D01*
X142274999Y-87274998D01*
X142275000Y-87274998D01*
X142275000Y-86424000D01*
X142294685Y-86356961D01*
X142347489Y-86311206D01*
X142399000Y-86300000D01*
X142525000Y-86300000D01*
X142525000Y-86174000D01*
X142544685Y-86106961D01*
X142597489Y-86061206D01*
X142649000Y-86050000D01*
X143424999Y-86050000D01*
X143424999Y-85968417D01*
X143418591Y-85897897D01*
X143418590Y-85897892D01*
X143368018Y-85735603D01*
X143280072Y-85590122D01*
X143182984Y-85493034D01*
X143178645Y-85485088D01*
X143171397Y-85479662D01*
X143162162Y-85454902D01*
X143149499Y-85431711D01*
X143150144Y-85422680D01*
X143146981Y-85414197D01*
X143152597Y-85388378D01*
X143154483Y-85362019D01*
X143160302Y-85352963D01*
X143161834Y-85345924D01*
X143182979Y-85317677D01*
X143243840Y-85256817D01*
X143305164Y-85223333D01*
X143331520Y-85220500D01*
X145117961Y-85220500D01*
X145185000Y-85240185D01*
X145218279Y-85271615D01*
X145228470Y-85285641D01*
X145277015Y-85352460D01*
X145277019Y-85352464D01*
X145417536Y-85492981D01*
X145578306Y-85609787D01*
X145629744Y-85635996D01*
X145734780Y-85689515D01*
X145785576Y-85737490D01*
X145802371Y-85805311D01*
X145779833Y-85871446D01*
X145734780Y-85910485D01*
X145578305Y-85990213D01*
X145417533Y-86107021D01*
X145277021Y-86247533D01*
X145160213Y-86408305D01*
X145069994Y-86585367D01*
X145069993Y-86585370D01*
X145008587Y-86774362D01*
X144977500Y-86970639D01*
X144977500Y-87169360D01*
X145008587Y-87365637D01*
X145069993Y-87554629D01*
X145069994Y-87554632D01*
X145144479Y-87700815D01*
X145160213Y-87731694D01*
X145277019Y-87892464D01*
X145417536Y-88032981D01*
X145578306Y-88149787D01*
X145735332Y-88229796D01*
X145786127Y-88277769D01*
X145802922Y-88345590D01*
X145780385Y-88411725D01*
X145735332Y-88450764D01*
X145578566Y-88530641D01*
X145541283Y-88557729D01*
X145541282Y-88557730D01*
X146212554Y-89229000D01*
X146189840Y-89229000D01*
X146092939Y-89254964D01*
X146006060Y-89305124D01*
X145935124Y-89376060D01*
X145884964Y-89462939D01*
X145859000Y-89559840D01*
X145859000Y-89582552D01*
X145187730Y-88911282D01*
X145187729Y-88911283D01*
X145160643Y-88948564D01*
X145070457Y-89125562D01*
X145009075Y-89314476D01*
X145009075Y-89314479D01*
X144978000Y-89510678D01*
X144978000Y-89709321D01*
X145009075Y-89905520D01*
X145009075Y-89905523D01*
X145070457Y-90094437D01*
X145160641Y-90271432D01*
X145187730Y-90308715D01*
X145187731Y-90308716D01*
X145859000Y-89637447D01*
X145859000Y-89660160D01*
X145884964Y-89757061D01*
X145935124Y-89843940D01*
X146006060Y-89914876D01*
X146092939Y-89965036D01*
X146189840Y-89991000D01*
X146212553Y-89991000D01*
X145541283Y-90662268D01*
X145541283Y-90662269D01*
X145578567Y-90689358D01*
X145735331Y-90769234D01*
X145786127Y-90817209D01*
X145802922Y-90885030D01*
X145780384Y-90951165D01*
X145735331Y-90990204D01*
X145578305Y-91070213D01*
X145417533Y-91187021D01*
X145277021Y-91327533D01*
X145160213Y-91488305D01*
X145069994Y-91665367D01*
X145069993Y-91665370D01*
X145008587Y-91854362D01*
X144977500Y-92050639D01*
X144977500Y-92249360D01*
X145008587Y-92445638D01*
X145009738Y-92449180D01*
X145011735Y-92519021D01*
X144975655Y-92578854D01*
X144912955Y-92609684D01*
X144891808Y-92611500D01*
X137853519Y-92611500D01*
X137786480Y-92591815D01*
X137765838Y-92575181D01*
X135531491Y-90340834D01*
X135498006Y-90279511D01*
X135502990Y-90209819D01*
X135525363Y-90172061D01*
X135525380Y-90172040D01*
X135525384Y-90172038D01*
X135619476Y-90063189D01*
X135619476Y-90063187D01*
X135619478Y-90063186D01*
X135679085Y-89932252D01*
X135679087Y-89932247D01*
X135679087Y-89932245D01*
X135679090Y-89932240D01*
X135698695Y-89865177D01*
X135719003Y-89722737D01*
X135718757Y-89515636D01*
X135718746Y-89505953D01*
X135716276Y-87423999D01*
X135705647Y-78463974D01*
X135693715Y-78355393D01*
X135682208Y-78303374D01*
X135647230Y-78199893D01*
X135568741Y-78079308D01*
X135568736Y-78079302D01*
X135522687Y-78026778D01*
X135522682Y-78026774D01*
X135522680Y-78026771D01*
X135413404Y-77933188D01*
X135282181Y-77874177D01*
X135282178Y-77874176D01*
X135282167Y-77874172D01*
X135217520Y-77855596D01*
X135215771Y-77855054D01*
X135215021Y-77854878D01*
X135072496Y-77835232D01*
X135072489Y-77835231D01*
X126635220Y-77884245D01*
X126568068Y-77864950D01*
X126522007Y-77812413D01*
X126510500Y-77760247D01*
X126510500Y-69600097D01*
X126530185Y-69533058D01*
X126546819Y-69512416D01*
X127572607Y-68486628D01*
X129914662Y-66144572D01*
X129975983Y-66111089D01*
X129978150Y-66110638D01*
X130036085Y-66099113D01*
X130133497Y-66079737D01*
X130279179Y-66019394D01*
X130410289Y-65931789D01*
X130521789Y-65820289D01*
X130609394Y-65689179D01*
X130669737Y-65543497D01*
X130700500Y-65388842D01*
X130700500Y-65231158D01*
X130700500Y-65231155D01*
X130700499Y-65231153D01*
X130687725Y-65166933D01*
X130669737Y-65076503D01*
X130642026Y-65009602D01*
X130609397Y-64930827D01*
X130609390Y-64930814D01*
X130521789Y-64799711D01*
X130521786Y-64799707D01*
X130410292Y-64688213D01*
X130410288Y-64688210D01*
X130279185Y-64600609D01*
X130279172Y-64600602D01*
X130133501Y-64540264D01*
X130133489Y-64540261D01*
X129978845Y-64509500D01*
X129978842Y-64509500D01*
X129821158Y-64509500D01*
X129821155Y-64509500D01*
X129666510Y-64540261D01*
X129666498Y-64540264D01*
X129520827Y-64600602D01*
X129520814Y-64600609D01*
X129389711Y-64688210D01*
X129389707Y-64688213D01*
X129278213Y-64799707D01*
X129278210Y-64799711D01*
X129190609Y-64930814D01*
X129190602Y-64930827D01*
X129130264Y-65076498D01*
X129130261Y-65076508D01*
X129099361Y-65231850D01*
X129066976Y-65293761D01*
X129065425Y-65295339D01*
X125429481Y-68931282D01*
X125429479Y-68931285D01*
X125379361Y-69018094D01*
X125379359Y-69018096D01*
X125350425Y-69068209D01*
X125350424Y-69068210D01*
X125350423Y-69068215D01*
X125309499Y-69220943D01*
X125309499Y-69220945D01*
X125309499Y-69389046D01*
X125309500Y-69389059D01*
X125309500Y-77768665D01*
X125289815Y-77835704D01*
X125237011Y-77881459D01*
X125186220Y-77892663D01*
X123148957Y-77904498D01*
X123148237Y-77904500D01*
X123034073Y-77904500D01*
X122926483Y-77916082D01*
X122874913Y-77927315D01*
X122874900Y-77927319D01*
X122772222Y-77961545D01*
X122651227Y-78039408D01*
X122598449Y-78085197D01*
X122504305Y-78193977D01*
X122504303Y-78193981D01*
X122444610Y-78324893D01*
X122424966Y-78391944D01*
X122423789Y-78400142D01*
X122423788Y-78400169D01*
X122423761Y-78400358D01*
X122404574Y-78534375D01*
X121284616Y-78534375D01*
X121160825Y-78410584D01*
X120941248Y-78235477D01*
X120705423Y-78087298D01*
X120703442Y-78086053D01*
X120450411Y-77964200D01*
X120185329Y-77871443D01*
X120185317Y-77871439D01*
X119911512Y-77808945D01*
X119911494Y-77808942D01*
X119632431Y-77777500D01*
X119632425Y-77777500D01*
X119351575Y-77777500D01*
X119351568Y-77777500D01*
X119072505Y-77808942D01*
X119072487Y-77808945D01*
X118798682Y-77871439D01*
X118798670Y-77871443D01*
X118533588Y-77964200D01*
X118280557Y-78086053D01*
X118042753Y-78235476D01*
X117823175Y-78410583D01*
X117624583Y-78609175D01*
X117449476Y-78828753D01*
X117300053Y-79066557D01*
X117178200Y-79319588D01*
X117085443Y-79584670D01*
X117085439Y-79584682D01*
X117022945Y-79858487D01*
X117022942Y-79858505D01*
X116991500Y-80137568D01*
X114021948Y-80137568D01*
X126426481Y-58396071D01*
X161494562Y-58396071D01*
X161530016Y-58567770D01*
X161572290Y-58661980D01*
X161572294Y-58661988D01*
X161772275Y-59008365D01*
X161772276Y-59008365D01*
X162699664Y-58472938D01*
X162699664Y-58549908D01*
X162732034Y-58670716D01*
X162794569Y-58779030D01*
X162883007Y-58867468D01*
X162949662Y-58905951D01*
X162022276Y-59441377D01*
X162022276Y-59441378D01*
X162222264Y-59787767D01*
X162282710Y-59871476D01*
X162282713Y-59871480D01*
X162413684Y-59988034D01*
X162568010Y-60071246D01*
X162737356Y-60116622D01*
X162919190Y-60121912D01*
X162985629Y-60143538D01*
X163029829Y-60197650D01*
X163037757Y-60267069D01*
X163035359Y-60277953D01*
X162984420Y-60468062D01*
X162962199Y-60679475D01*
X162962199Y-60679483D01*
X162973324Y-60891753D01*
X162991627Y-60977863D01*
X162986310Y-61047530D01*
X162958017Y-61091324D01*
X161975888Y-62073453D01*
X161975885Y-62073457D01*
X161910177Y-62171797D01*
X161899229Y-62188180D01*
X161899224Y-62188189D01*
X161846420Y-62315671D01*
X161846418Y-62315677D01*
X161819500Y-62451004D01*
X161819500Y-62451007D01*
X161819500Y-71411006D01*
X161819500Y-71548994D01*
X161819500Y-71548996D01*
X161819499Y-71548996D01*
X161846418Y-71684322D01*
X161846421Y-71684332D01*
X161899222Y-71811807D01*
X161975887Y-71926545D01*
X161975888Y-71926546D01*
X166636661Y-76587318D01*
X166670146Y-76648641D01*
X166665162Y-76718333D01*
X166636661Y-76762680D01*
X166165887Y-77233454D01*
X166097447Y-77335884D01*
X166097446Y-77335885D01*
X166089227Y-77348184D01*
X166089222Y-77348193D01*
X166036421Y-77475667D01*
X166036418Y-77475677D01*
X166009500Y-77611004D01*
X166009500Y-83984684D01*
X166000061Y-84032136D01*
X165940264Y-84176498D01*
X165940261Y-84176510D01*
X165909500Y-84331153D01*
X165909500Y-84488846D01*
X165940261Y-84643489D01*
X165940264Y-84643501D01*
X166000602Y-84789172D01*
X166000609Y-84789185D01*
X166088210Y-84920288D01*
X166088213Y-84920292D01*
X166199707Y-85031786D01*
X166199711Y-85031789D01*
X166330814Y-85119390D01*
X166330827Y-85119397D01*
X166450593Y-85169005D01*
X166476503Y-85179737D01*
X166580468Y-85200417D01*
X166631153Y-85210499D01*
X166631156Y-85210500D01*
X166631158Y-85210500D01*
X166788844Y-85210500D01*
X166788845Y-85210499D01*
X166943497Y-85179737D01*
X167082407Y-85122199D01*
X167089172Y-85119397D01*
X167089172Y-85119396D01*
X167089179Y-85119394D01*
X167220289Y-85031789D01*
X167331789Y-84920289D01*
X167419394Y-84789179D01*
X167479737Y-84643497D01*
X167510500Y-84488842D01*
X167510500Y-84331158D01*
X167510500Y-84331155D01*
X167510499Y-84331153D01*
X167479737Y-84176503D01*
X167479735Y-84176498D01*
X167419939Y-84032136D01*
X167410500Y-83984684D01*
X167410500Y-78021519D01*
X167430185Y-77954480D01*
X167446819Y-77933838D01*
X168063838Y-77316819D01*
X168125161Y-77283334D01*
X168151519Y-77280500D01*
X171366097Y-77280500D01*
X171473065Y-77259222D01*
X171501429Y-77253580D01*
X171565170Y-77227177D01*
X171628908Y-77200777D01*
X171628909Y-77200776D01*
X171628912Y-77200775D01*
X171743644Y-77124114D01*
X172343641Y-76524115D01*
X172345519Y-76523090D01*
X172346609Y-76521244D01*
X172376049Y-76506419D01*
X172404962Y-76490632D01*
X172407700Y-76490481D01*
X172409013Y-76489821D01*
X172444273Y-76488477D01*
X172631866Y-76508194D01*
X172696478Y-76534778D01*
X172736463Y-76592075D01*
X172739123Y-76661894D01*
X172732182Y-76681949D01*
X172649435Y-76867802D01*
X172595191Y-77070250D01*
X172594419Y-77073131D01*
X172585308Y-77159815D01*
X172572199Y-77284538D01*
X172572199Y-77284546D01*
X172583324Y-77496816D01*
X172583325Y-77496825D01*
X172615144Y-77646518D01*
X172627521Y-77704749D01*
X172643168Y-77745511D01*
X172703700Y-77903203D01*
X172703703Y-77903208D01*
X172809986Y-78087295D01*
X172809991Y-78087302D01*
X172884502Y-78179315D01*
X172943765Y-78252498D01*
X173098639Y-78391947D01*
X173101735Y-78394734D01*
X173101740Y-78394739D01*
X173208339Y-78463965D01*
X173280016Y-78510513D01*
X173474212Y-78596975D01*
X173679542Y-78651992D01*
X173881866Y-78673257D01*
X173946479Y-78699840D01*
X173986464Y-78757138D01*
X173989124Y-78826957D01*
X173982183Y-78847012D01*
X173899435Y-79032866D01*
X173859143Y-79183242D01*
X173844419Y-79238195D01*
X173832075Y-79355637D01*
X173822199Y-79449602D01*
X173822199Y-79449610D01*
X173833324Y-79661880D01*
X173833325Y-79661889D01*
X173856367Y-79770292D01*
X173877521Y-79869813D01*
X173882378Y-79882466D01*
X173953700Y-80068267D01*
X173953703Y-80068272D01*
X174059986Y-80252359D01*
X174059991Y-80252366D01*
X174126595Y-80334614D01*
X174193765Y-80417562D01*
X174343438Y-80552328D01*
X174351735Y-80559798D01*
X174351740Y-80559803D01*
X174459936Y-80630066D01*
X174530016Y-80675577D01*
X174724212Y-80762039D01*
X174929542Y-80817056D01*
X175131865Y-80838321D01*
X175196478Y-80864904D01*
X175236463Y-80922202D01*
X175239123Y-80992021D01*
X175232182Y-81012076D01*
X175149435Y-81197929D01*
X175094420Y-81403253D01*
X175094419Y-81403258D01*
X175084184Y-81500639D01*
X175072199Y-81614665D01*
X175072199Y-81614673D01*
X175083324Y-81826943D01*
X175083325Y-81826952D01*
X175097925Y-81895637D01*
X175127521Y-82034876D01*
X175146621Y-82084632D01*
X175203700Y-82233330D01*
X175203703Y-82233335D01*
X175309986Y-82417422D01*
X175309991Y-82417429D01*
X175314070Y-82422466D01*
X175443765Y-82582625D01*
X175588427Y-82712879D01*
X175601735Y-82724861D01*
X175601740Y-82724866D01*
X175684631Y-82778696D01*
X175780016Y-82840640D01*
X175974212Y-82927102D01*
X176179542Y-82982119D01*
X176390951Y-83004339D01*
X176603232Y-82993213D01*
X176811160Y-82949017D01*
X177009615Y-82872837D01*
X177410215Y-82641550D01*
X177575415Y-82507773D01*
X177717654Y-82349800D01*
X177833430Y-82171522D01*
X177919892Y-81977326D01*
X177974910Y-81771996D01*
X177997129Y-81560587D01*
X177986003Y-81348305D01*
X177941807Y-81140377D01*
X177930490Y-81110894D01*
X177865630Y-80941927D01*
X177865625Y-80941918D01*
X177847545Y-80910602D01*
X177759341Y-80757829D01*
X177625564Y-80592629D01*
X177613870Y-80582100D01*
X177511726Y-80490129D01*
X177467591Y-80450390D01*
X177467588Y-80450387D01*
X177289313Y-80334614D01*
X177095120Y-80248153D01*
X177095113Y-80248150D01*
X176889785Y-80193133D01*
X176687464Y-80171870D01*
X176622849Y-80145286D01*
X176582864Y-80087989D01*
X176580204Y-80018170D01*
X176587141Y-79998122D01*
X176669892Y-79812263D01*
X176724910Y-79606933D01*
X176747129Y-79395524D01*
X176736003Y-79183242D01*
X176691807Y-78975314D01*
X176688953Y-78967879D01*
X176615630Y-78776864D01*
X176615625Y-78776855D01*
X176538055Y-78642500D01*
X176509341Y-78592766D01*
X176504268Y-78586502D01*
X176494088Y-78573931D01*
X176375564Y-78427566D01*
X176356702Y-78410583D01*
X176237634Y-78303374D01*
X176217591Y-78285327D01*
X176217588Y-78285324D01*
X176039313Y-78169551D01*
X175845120Y-78083090D01*
X175845113Y-78083087D01*
X175639785Y-78028070D01*
X175453850Y-78008529D01*
X175437462Y-78006806D01*
X175372848Y-77980223D01*
X175332863Y-77922926D01*
X175330203Y-77853107D01*
X175337145Y-77833050D01*
X175419892Y-77647199D01*
X175474910Y-77441869D01*
X175497129Y-77230460D01*
X175486003Y-77018178D01*
X175441807Y-76810250D01*
X175434852Y-76792132D01*
X175365630Y-76611800D01*
X175365625Y-76611791D01*
X175354242Y-76592075D01*
X175259341Y-76427702D01*
X175125564Y-76262502D01*
X174967591Y-76120263D01*
X174967588Y-76120260D01*
X174789313Y-76004487D01*
X174595120Y-75918026D01*
X174595113Y-75918023D01*
X174389785Y-75863006D01*
X174187464Y-75841743D01*
X174122849Y-75815159D01*
X174082864Y-75757862D01*
X174080204Y-75688043D01*
X174087141Y-75667995D01*
X174169892Y-75482136D01*
X174224910Y-75276806D01*
X174247129Y-75065397D01*
X174236003Y-74853115D01*
X174191807Y-74645187D01*
X174188914Y-74637650D01*
X174115630Y-74446737D01*
X174115625Y-74446728D01*
X174009342Y-74262641D01*
X174009337Y-74262634D01*
X173875562Y-74097437D01*
X173717593Y-73955202D01*
X173717588Y-73955197D01*
X173539313Y-73839424D01*
X173345120Y-73752963D01*
X173345116Y-73752961D01*
X173155004Y-73702021D01*
X173095344Y-73665656D01*
X173064815Y-73602809D01*
X173073110Y-73533433D01*
X173077953Y-73523395D01*
X173164290Y-73363273D01*
X173209666Y-73193927D01*
X173214765Y-73018674D01*
X173179311Y-72846975D01*
X173137037Y-72752765D01*
X173137033Y-72752757D01*
X172937051Y-72406379D01*
X172937050Y-72406379D01*
X172009664Y-72941806D01*
X172009664Y-72864838D01*
X171977294Y-72744030D01*
X171914759Y-72635716D01*
X171826321Y-72547278D01*
X171759663Y-72508793D01*
X172687050Y-71973367D01*
X172687050Y-71973366D01*
X172487063Y-71626978D01*
X172426617Y-71543269D01*
X172426614Y-71543265D01*
X172295643Y-71426711D01*
X172141317Y-71343499D01*
X171971971Y-71298123D01*
X171796718Y-71293024D01*
X171625019Y-71328478D01*
X171530815Y-71370749D01*
X171530805Y-71370754D01*
X171076170Y-71633238D01*
X171076170Y-71633239D01*
X171549097Y-72452373D01*
X171472129Y-72452373D01*
X171351321Y-72484743D01*
X171243007Y-72547278D01*
X171154569Y-72635716D01*
X171116084Y-72702372D01*
X170643158Y-71883239D01*
X170643157Y-71883239D01*
X170188525Y-72145722D01*
X170188520Y-72145724D01*
X170104805Y-72206174D01*
X170104803Y-72206175D01*
X169988249Y-72337146D01*
X169905037Y-72491472D01*
X169859661Y-72660818D01*
X169854562Y-72836071D01*
X169890016Y-73007770D01*
X169932290Y-73101980D01*
X169932294Y-73101988D01*
X170132275Y-73448365D01*
X170132276Y-73448365D01*
X171059664Y-72912938D01*
X171059664Y-72989908D01*
X171092034Y-73110716D01*
X171154569Y-73219030D01*
X171243007Y-73307468D01*
X171309662Y-73345951D01*
X170382276Y-73881377D01*
X170382276Y-73881378D01*
X170582264Y-74227767D01*
X170642710Y-74311476D01*
X170642713Y-74311480D01*
X170773684Y-74428034D01*
X170928010Y-74511246D01*
X171097356Y-74556622D01*
X171279190Y-74561912D01*
X171345629Y-74583538D01*
X171389829Y-74637650D01*
X171397757Y-74707069D01*
X171395359Y-74717953D01*
X171344420Y-74908062D01*
X171322199Y-75119475D01*
X171322199Y-75119483D01*
X171333324Y-75331753D01*
X171333326Y-75331765D01*
X171358130Y-75448460D01*
X171352814Y-75518127D01*
X171324521Y-75561921D01*
X171043261Y-75843182D01*
X170981941Y-75876666D01*
X170955582Y-75879500D01*
X167961519Y-75879500D01*
X167894480Y-75859815D01*
X167873838Y-75843181D01*
X163256819Y-71226162D01*
X163223334Y-71164839D01*
X163220500Y-71138481D01*
X163220500Y-62861518D01*
X163240185Y-62794479D01*
X163256815Y-62773841D01*
X163951240Y-62079415D01*
X164012561Y-62045932D01*
X164052598Y-62043855D01*
X164061939Y-62044891D01*
X164069542Y-62046929D01*
X164272288Y-62068238D01*
X164272581Y-62068271D01*
X164304416Y-62081586D01*
X164336478Y-62094777D01*
X164336693Y-62095086D01*
X164337040Y-62095231D01*
X164356631Y-62123656D01*
X164376463Y-62152075D01*
X164376477Y-62152451D01*
X164376690Y-62152760D01*
X164377803Y-62187270D01*
X164379123Y-62221894D01*
X164378938Y-62222426D01*
X164378944Y-62222593D01*
X164378794Y-62222842D01*
X164372182Y-62241949D01*
X164289435Y-62427802D01*
X164234420Y-62633126D01*
X164212199Y-62844538D01*
X164212199Y-62844546D01*
X164223324Y-63056816D01*
X164223325Y-63056825D01*
X164267521Y-63264748D01*
X164343700Y-63463203D01*
X164343703Y-63463208D01*
X164449986Y-63647295D01*
X164449991Y-63647302D01*
X164583766Y-63812499D01*
X164741735Y-63954734D01*
X164741740Y-63954739D01*
X164849936Y-64025002D01*
X164920016Y-64070513D01*
X165114212Y-64156975D01*
X165319542Y-64211992D01*
X165521866Y-64233257D01*
X165586479Y-64259840D01*
X165626464Y-64317138D01*
X165629124Y-64386957D01*
X165622183Y-64407012D01*
X165539435Y-64592866D01*
X165499143Y-64743242D01*
X165484419Y-64798195D01*
X165484260Y-64799711D01*
X165462199Y-65009602D01*
X165462199Y-65009610D01*
X165473324Y-65221880D01*
X165473325Y-65221889D01*
X165517521Y-65429812D01*
X165593700Y-65628267D01*
X165593703Y-65628272D01*
X165699986Y-65812359D01*
X165699991Y-65812366D01*
X165730960Y-65850609D01*
X165833765Y-65977562D01*
X165982062Y-66111089D01*
X165991735Y-66119798D01*
X165991740Y-66119803D01*
X166042816Y-66152972D01*
X166170016Y-66235577D01*
X166364212Y-66322039D01*
X166569542Y-66377056D01*
X166772389Y-66398376D01*
X166837002Y-66424959D01*
X166876987Y-66482257D01*
X166879647Y-66552076D01*
X166872706Y-66572131D01*
X166789909Y-66758096D01*
X166734911Y-66963350D01*
X166712701Y-67174676D01*
X166712701Y-67174685D01*
X166723821Y-67386878D01*
X166723822Y-67386887D01*
X166768002Y-67594733D01*
X166791994Y-67657236D01*
X167671827Y-67149265D01*
X167699664Y-67133193D01*
X167699664Y-67210162D01*
X167732034Y-67330970D01*
X167794569Y-67439284D01*
X167883007Y-67527722D01*
X167949661Y-67566204D01*
X167041994Y-68090247D01*
X167041994Y-68090248D01*
X167084130Y-68142281D01*
X167242040Y-68284463D01*
X167242045Y-68284468D01*
X167420252Y-68400196D01*
X167614380Y-68486628D01*
X167614379Y-68486628D01*
X167819634Y-68541626D01*
X168030965Y-68563836D01*
X168243162Y-68552716D01*
X168243171Y-68552715D01*
X168451016Y-68508536D01*
X168631671Y-68439187D01*
X168160230Y-67622627D01*
X168237199Y-67622627D01*
X168358007Y-67590257D01*
X168466321Y-67527722D01*
X168554759Y-67439284D01*
X168593242Y-67372628D01*
X169064683Y-68189188D01*
X169064684Y-68189188D01*
X169215071Y-68067407D01*
X169357255Y-67909497D01*
X169357259Y-67909492D01*
X169472986Y-67731286D01*
X169559419Y-67537154D01*
X169614414Y-67331909D01*
X169636626Y-67120577D01*
X169636626Y-67120568D01*
X169625506Y-66908375D01*
X169625505Y-66908366D01*
X169581325Y-66700519D01*
X169557333Y-66638017D01*
X168649664Y-67162058D01*
X168649664Y-67085092D01*
X168617294Y-66964284D01*
X168554759Y-66855970D01*
X168466321Y-66767532D01*
X168399664Y-66729047D01*
X169307332Y-66205005D01*
X169307332Y-66205004D01*
X169265197Y-66152972D01*
X169107288Y-66010789D01*
X169107283Y-66010785D01*
X168929076Y-65895057D01*
X168734947Y-65808625D01*
X168734948Y-65808625D01*
X168529699Y-65753629D01*
X168327249Y-65732351D01*
X168262634Y-65705767D01*
X168222649Y-65648469D01*
X168219989Y-65578650D01*
X168226928Y-65558601D01*
X168309892Y-65372263D01*
X168364910Y-65166933D01*
X168387129Y-64955524D01*
X168376003Y-64743242D01*
X168331807Y-64535314D01*
X168282557Y-64407012D01*
X168255630Y-64336864D01*
X168255625Y-64336855D01*
X168149342Y-64152768D01*
X168149337Y-64152761D01*
X168015562Y-63987564D01*
X167857593Y-63845329D01*
X167857588Y-63845324D01*
X167679313Y-63729551D01*
X167485120Y-63643090D01*
X167485113Y-63643087D01*
X167279785Y-63588070D01*
X167093850Y-63568529D01*
X167077462Y-63566806D01*
X167012848Y-63540223D01*
X166972863Y-63482926D01*
X166970203Y-63413107D01*
X166977145Y-63393050D01*
X167059892Y-63207199D01*
X167114910Y-63001869D01*
X167137129Y-62790460D01*
X167126003Y-62578178D01*
X167081807Y-62370250D01*
X167081806Y-62370247D01*
X167005630Y-62171800D01*
X167005625Y-62171791D01*
X166899341Y-61987702D01*
X166765564Y-61822502D01*
X166607591Y-61680263D01*
X166607588Y-61680260D01*
X166429313Y-61564487D01*
X166235120Y-61478026D01*
X166235113Y-61478023D01*
X166029785Y-61423006D01*
X165827464Y-61401743D01*
X165762849Y-61375159D01*
X165722864Y-61317862D01*
X165720204Y-61248043D01*
X165727141Y-61227995D01*
X165809892Y-61042136D01*
X165864910Y-60836806D01*
X165887129Y-60625397D01*
X165876003Y-60413115D01*
X165831807Y-60205187D01*
X165828914Y-60197650D01*
X165755630Y-60006737D01*
X165755625Y-60006728D01*
X165649342Y-59822641D01*
X165649337Y-59822634D01*
X165515562Y-59657437D01*
X165357593Y-59515202D01*
X165357588Y-59515197D01*
X165179313Y-59399424D01*
X164985120Y-59312963D01*
X164985116Y-59312961D01*
X164795004Y-59262021D01*
X164735344Y-59225656D01*
X164704815Y-59162809D01*
X164713110Y-59093433D01*
X164717953Y-59083395D01*
X164804290Y-58923273D01*
X164849666Y-58753927D01*
X164854765Y-58578674D01*
X164819311Y-58406975D01*
X164777037Y-58312765D01*
X164777033Y-58312757D01*
X164577051Y-57966379D01*
X164577050Y-57966379D01*
X163649664Y-58501806D01*
X163649664Y-58424838D01*
X163617294Y-58304030D01*
X163554759Y-58195716D01*
X163466321Y-58107278D01*
X163399663Y-58068793D01*
X164327050Y-57533367D01*
X164327050Y-57533366D01*
X164127063Y-57186978D01*
X164066617Y-57103269D01*
X164066614Y-57103265D01*
X163935643Y-56986711D01*
X163781317Y-56903499D01*
X163611971Y-56858123D01*
X163436718Y-56853024D01*
X163265019Y-56888478D01*
X163170815Y-56930749D01*
X163170805Y-56930754D01*
X162716170Y-57193238D01*
X162716170Y-57193239D01*
X163189097Y-58012373D01*
X163112129Y-58012373D01*
X162991321Y-58044743D01*
X162883007Y-58107278D01*
X162794569Y-58195716D01*
X162756084Y-58262372D01*
X162283158Y-57443239D01*
X162283157Y-57443239D01*
X161828525Y-57705722D01*
X161828520Y-57705724D01*
X161744805Y-57766174D01*
X161744803Y-57766175D01*
X161628249Y-57897146D01*
X161545037Y-58051472D01*
X161499661Y-58220818D01*
X161494562Y-58396071D01*
X126426481Y-58396071D01*
X127404921Y-56681153D01*
X129819500Y-56681153D01*
X129819500Y-56838846D01*
X129850261Y-56993489D01*
X129850264Y-56993501D01*
X129910602Y-57139172D01*
X129910609Y-57139185D01*
X129998210Y-57270288D01*
X129998213Y-57270292D01*
X130109707Y-57381786D01*
X130109711Y-57381789D01*
X130240814Y-57469390D01*
X130240827Y-57469397D01*
X130386498Y-57529735D01*
X130386503Y-57529737D01*
X130541153Y-57560499D01*
X130541156Y-57560500D01*
X130541158Y-57560500D01*
X130698844Y-57560500D01*
X130698845Y-57560499D01*
X130853497Y-57529737D01*
X130999179Y-57469394D01*
X131067881Y-57423489D01*
X131130875Y-57381398D01*
X131197553Y-57360520D01*
X131199766Y-57360500D01*
X140390234Y-57360500D01*
X140457273Y-57380185D01*
X140459125Y-57381398D01*
X140590814Y-57469390D01*
X140590827Y-57469397D01*
X140736498Y-57529735D01*
X140736503Y-57529737D01*
X140891153Y-57560499D01*
X140891156Y-57560500D01*
X140891158Y-57560500D01*
X141048844Y-57560500D01*
X141048845Y-57560499D01*
X141203497Y-57529737D01*
X141349179Y-57469394D01*
X141480289Y-57381789D01*
X141591789Y-57270289D01*
X141679394Y-57139179D01*
X141691003Y-57111153D01*
X150149500Y-57111153D01*
X150149500Y-57268846D01*
X150180261Y-57423489D01*
X150180264Y-57423501D01*
X150240602Y-57569172D01*
X150240609Y-57569185D01*
X150328210Y-57700288D01*
X150328213Y-57700292D01*
X150439707Y-57811786D01*
X150439711Y-57811789D01*
X150570814Y-57899390D01*
X150570827Y-57899397D01*
X150716498Y-57959735D01*
X150716503Y-57959737D01*
X150871153Y-57990499D01*
X150871156Y-57990500D01*
X150871158Y-57990500D01*
X151028844Y-57990500D01*
X151028845Y-57990499D01*
X151183497Y-57959737D01*
X151329179Y-57899394D01*
X151332543Y-57897146D01*
X151460875Y-57811398D01*
X151527553Y-57790520D01*
X151529766Y-57790500D01*
X154430234Y-57790500D01*
X154497273Y-57810185D01*
X154499125Y-57811398D01*
X154630814Y-57899390D01*
X154630827Y-57899397D01*
X154776498Y-57959735D01*
X154776503Y-57959737D01*
X154931153Y-57990499D01*
X154931156Y-57990500D01*
X154931158Y-57990500D01*
X155088844Y-57990500D01*
X155088845Y-57990499D01*
X155243497Y-57959737D01*
X155389179Y-57899394D01*
X155520289Y-57811789D01*
X155631789Y-57700289D01*
X155719394Y-57569179D01*
X155779737Y-57423497D01*
X155810500Y-57268842D01*
X155810500Y-57111158D01*
X155810500Y-57111155D01*
X155810499Y-57111153D01*
X155787096Y-56993501D01*
X155779737Y-56956503D01*
X155779735Y-56956498D01*
X155719397Y-56810827D01*
X155719390Y-56810814D01*
X155631789Y-56679711D01*
X155631786Y-56679707D01*
X155520292Y-56568213D01*
X155520288Y-56568210D01*
X155389185Y-56480609D01*
X155389172Y-56480602D01*
X155243501Y-56420264D01*
X155243489Y-56420261D01*
X155088845Y-56389500D01*
X155088842Y-56389500D01*
X154931158Y-56389500D01*
X154931155Y-56389500D01*
X154776510Y-56420261D01*
X154776498Y-56420264D01*
X154630827Y-56480602D01*
X154630814Y-56480609D01*
X154499125Y-56568602D01*
X154432447Y-56589480D01*
X154430234Y-56589500D01*
X151529766Y-56589500D01*
X151462727Y-56569815D01*
X151460875Y-56568602D01*
X151329185Y-56480609D01*
X151329172Y-56480602D01*
X151183501Y-56420264D01*
X151183489Y-56420261D01*
X151028845Y-56389500D01*
X151028842Y-56389500D01*
X150871158Y-56389500D01*
X150871155Y-56389500D01*
X150716510Y-56420261D01*
X150716498Y-56420264D01*
X150570827Y-56480602D01*
X150570814Y-56480609D01*
X150439711Y-56568210D01*
X150439707Y-56568213D01*
X150328213Y-56679707D01*
X150328210Y-56679711D01*
X150240609Y-56810814D01*
X150240602Y-56810827D01*
X150180264Y-56956498D01*
X150180261Y-56956510D01*
X150149500Y-57111153D01*
X141691003Y-57111153D01*
X141739737Y-56993497D01*
X141770500Y-56838842D01*
X141770500Y-56681158D01*
X141770500Y-56681155D01*
X141770499Y-56681153D01*
X141748111Y-56568602D01*
X141739737Y-56526503D01*
X141720726Y-56480606D01*
X141679397Y-56380827D01*
X141679390Y-56380814D01*
X141591789Y-56249711D01*
X141591786Y-56249707D01*
X141480292Y-56138213D01*
X141480288Y-56138210D01*
X141349185Y-56050609D01*
X141349172Y-56050602D01*
X141203501Y-55990264D01*
X141203489Y-55990261D01*
X141048845Y-55959500D01*
X141048842Y-55959500D01*
X140891158Y-55959500D01*
X140891155Y-55959500D01*
X140736510Y-55990261D01*
X140736498Y-55990264D01*
X140590827Y-56050602D01*
X140590814Y-56050609D01*
X140459125Y-56138602D01*
X140392447Y-56159480D01*
X140390234Y-56159500D01*
X131199766Y-56159500D01*
X131132727Y-56139815D01*
X131130875Y-56138602D01*
X130999185Y-56050609D01*
X130999172Y-56050602D01*
X130853501Y-55990264D01*
X130853489Y-55990261D01*
X130698845Y-55959500D01*
X130698842Y-55959500D01*
X130541158Y-55959500D01*
X130541155Y-55959500D01*
X130386510Y-55990261D01*
X130386498Y-55990264D01*
X130240827Y-56050602D01*
X130240814Y-56050609D01*
X130109711Y-56138210D01*
X130109707Y-56138213D01*
X129998213Y-56249707D01*
X129998210Y-56249711D01*
X129910609Y-56380814D01*
X129910602Y-56380827D01*
X129850264Y-56526498D01*
X129850261Y-56526510D01*
X129819500Y-56681153D01*
X127404921Y-56681153D01*
X129199503Y-53535778D01*
X130449500Y-53535778D01*
X130449500Y-53824221D01*
X130449501Y-53824238D01*
X130487149Y-54110206D01*
X130487150Y-54110211D01*
X130487151Y-54110217D01*
X130561809Y-54388844D01*
X130561814Y-54388860D01*
X130672191Y-54655336D01*
X130672199Y-54655352D01*
X130816420Y-54905148D01*
X130816431Y-54905164D01*
X130992024Y-55134002D01*
X130992030Y-55134009D01*
X131195990Y-55337969D01*
X131195997Y-55337975D01*
X131358953Y-55463015D01*
X131424844Y-55513575D01*
X131424851Y-55513579D01*
X131674647Y-55657800D01*
X131674663Y-55657808D01*
X131941139Y-55768185D01*
X131941145Y-55768186D01*
X131941155Y-55768191D01*
X132219783Y-55842849D01*
X132505772Y-55880500D01*
X132505779Y-55880500D01*
X132794221Y-55880500D01*
X132794228Y-55880500D01*
X133080217Y-55842849D01*
X133358845Y-55768191D01*
X133358857Y-55768185D01*
X133358860Y-55768185D01*
X133625336Y-55657808D01*
X133625339Y-55657806D01*
X133625345Y-55657804D01*
X133875156Y-55513575D01*
X134104004Y-55337974D01*
X134307974Y-55134004D01*
X134483575Y-54905156D01*
X134627804Y-54655345D01*
X134734050Y-54398844D01*
X134738185Y-54388860D01*
X134738185Y-54388857D01*
X134738191Y-54388845D01*
X134812849Y-54110217D01*
X134850500Y-53824228D01*
X134850500Y-53535772D01*
X134812849Y-53249783D01*
X134738191Y-52971155D01*
X134738186Y-52971145D01*
X134738185Y-52971139D01*
X134627808Y-52704663D01*
X134627800Y-52704647D01*
X134483579Y-52454851D01*
X134483575Y-52454844D01*
X134433015Y-52388953D01*
X134307975Y-52225997D01*
X134307969Y-52225990D01*
X134104009Y-52022030D01*
X134104002Y-52022024D01*
X133875164Y-51846431D01*
X133875162Y-51846429D01*
X133875156Y-51846425D01*
X133875151Y-51846422D01*
X133875148Y-51846420D01*
X133625352Y-51702199D01*
X133625336Y-51702191D01*
X133358860Y-51591814D01*
X133358848Y-51591810D01*
X133358845Y-51591809D01*
X133080217Y-51517151D01*
X133080211Y-51517150D01*
X133080206Y-51517149D01*
X132794238Y-51479501D01*
X132794233Y-51479500D01*
X132794228Y-51479500D01*
X132505772Y-51479500D01*
X132505766Y-51479500D01*
X132505761Y-51479501D01*
X132219793Y-51517149D01*
X132219786Y-51517150D01*
X132219783Y-51517151D01*
X132163392Y-51532261D01*
X131941155Y-51591809D01*
X131941139Y-51591814D01*
X131674663Y-51702191D01*
X131674647Y-51702199D01*
X131424851Y-51846420D01*
X131424835Y-51846431D01*
X131195997Y-52022024D01*
X131195990Y-52022030D01*
X130992030Y-52225990D01*
X130992024Y-52225997D01*
X130816431Y-52454835D01*
X130816420Y-52454851D01*
X130672199Y-52704647D01*
X130672191Y-52704663D01*
X130561814Y-52971139D01*
X130561809Y-52971155D01*
X130487152Y-53249780D01*
X130487149Y-53249793D01*
X130449501Y-53535761D01*
X130449500Y-53535778D01*
X129199503Y-53535778D01*
X130420077Y-51396471D01*
X130421644Y-51394519D01*
X130421992Y-51393231D01*
X130444500Y-51366051D01*
X130615751Y-51210839D01*
X130625136Y-51203136D01*
X130867577Y-51023330D01*
X130877670Y-51016587D01*
X131136548Y-50861421D01*
X131147257Y-50855697D01*
X131420120Y-50726642D01*
X131431335Y-50721997D01*
X131715507Y-50620319D01*
X131727124Y-50616794D01*
X132019901Y-50543458D01*
X132031832Y-50541084D01*
X132330371Y-50496800D01*
X132342471Y-50495608D01*
X132646947Y-50480651D01*
X132653116Y-50480502D01*
X138584680Y-50484783D01*
G37*
%TD.AperFunction*%
%TD*%
M02*
